<?xml version="1.0" encoding="UTF-8" standalone="no"?>
<!DOCTYPE svg  PUBLIC '-//W3C//DTD SVG 1.1//EN'  'http://www.w3.org/Graphics/SVG/1.1/DTD/svg11.dtd'>
<svg xmlns="http://www.w3.org/2000/svg" version="1.1">
<defs>
<font id="AvenirNext-BoldItalic" horiz-adv-x="587">
<font-face x-height="498" unicode-range="U+000D-FE48" ascent="800" font-family="Avenir Next" font-style="italic" underline-position="-150" font-weight="700" underline-thickness="50" descent="-200" panose-1="2 11 8 3 2 2 2 9 2 4" bbox="-527 -481 1614 1214" cap-height="708" units-per-em="1000" slope="-12"/>
<missing-glyph horiz-adv-x="512" d="M512 718v-718h-512v718h512zM462 50v617h-412v-617h412zM225 234l-2 17q0 56 13 81q7 13 18 27.5t28 31.5q16 15 26 26.5t15 21t7 18t2 17.5q0 36 -22.5 60.5t-53.5 24.5t-53.5 -22t-28.5 -73l-50 8q7 72 44 104.5t91 32.5t89 -35.5t35 -95.5q0 -32 -12.5 -58.5 t-50.5 -61.5q-37 -33 -43 -52q-6 -20 -6 -72h-46zM222 117v67h56v-67h-56z"/>
<glyph unicode="IJ" glyph-name="IJ" horiz-adv-x="832" d="M749 239q-8 -43 -22 -89t-42 -83.5t-74 -61.5t-117 -24q-91 0 -148 44.5t-73 120.5l154 50q4 -27 21 -46t45 -19q44 0 63 31t27 78l82 468h168zM18 0l125 708h167l-125 -708h-167z"/>
<glyph unicode="ij" glyph-name="ij" horiz-adv-x="594" d="M593 665q0 -20 -7 -37t-19.5 -30.5t-29.5 -21t-37 -7.5q-38 0 -62.5 22.5t-24.5 57.5q0 41 27.5 68.5t67.5 27.5q37 0 61 -23t24 -57zM468 -19q-8 -45 -22.5 -86t-40 -72t-66 -49t-101.5 -18q-17 0 -36 2.5t-33 6.5l29 133q9 -3 18 -4t16 -1q37 0 52.5 24.5t22.5 63.5 l91 517h161zM293 665q0 -20 -7 -37t-19.5 -30.5t-29.5 -21t-37 -7.5q-38 0 -62.5 22.5t-24.5 57.5q0 41 27.5 68.5t67.5 27.5q37 0 61 -23t24 -57zM11 0l87 498h161l-89 -498h-159z"/>
<glyph unicode='&quot;n' glyph-name="napostrophe" horiz-adv-x="701" d="M160 513h-123l111 195h142zM327 426q24 37 64 61t92 24q42 0 72 -12t49.5 -33t28.5 -48.5t9 -57.5q0 -14 -1 -27.5t-4 -26.5l-54 -306h-160l47 270q5 23 5 42q0 28 -14.5 47.5t-51.5 19.5q-22 0 -39.5 -8.5t-31 -23.5t-22 -35t-12.5 -42l-48 -270h-160l69 395 q4 19 8.5 49t6.5 54h153q-1 -12 -3.5 -34t-4.5 -38h2z"/>
<glyph unicode="fi" glyph-name="fi" horiz-adv-x="659" d="M414 637q-19 8 -42 8q-22 0 -36.5 -8t-24.5 -21.5t-15.5 -30.5t-8.5 -34l-9 -53h112l-21 -120h-110l-67 -378h-157l67 378h-91l21 120h88l10 51q8 43 23.5 84t42.5 72.5t69 50.5t103 19q20 0 40 -2.5t35 -7.5zM536 0h-160l87 498h161zM658 665q0 -20 -7 -37t-19.5 -30.5 t-29.5 -21t-37 -7.5q-38 0 -62 22.5t-24 57.5q0 41 27 68.5t67 27.5q37 0 61 -23t24 -57z"/>
<glyph unicode="fl" glyph-name="fl" horiz-adv-x="659" d="M414 637q-19 8 -42 8q-22 0 -36.5 -8t-24.5 -21.5t-15.5 -30.5t-8.5 -34l-9 -53h112l-21 -120h-110l-67 -378h-157l67 378h-91l21 120h88l10 51q8 43 23 84t42.5 72.5t69.5 50.5t103 19q20 0 40 -2.5t35 -7.5zM375 0l133 756h162l-133 -756h-162z"/>
<glyph horiz-adv-x="512" glyph-name=".notdef" d="M512 718v-718h-512v718h512zM462 50v617h-412v-617h412zM225 234l-2 17q0 56 13 81q7 13 18 27.5t28 31.5q16 15 26 26.5t15 21t7 18t2 17.5q0 36 -22.5 60.5t-53.5 24.5t-53.5 -22t-28.5 -73l-50 8q7 72 44 104.5t91 32.5t89 -35.5t35 -95.5q0 -32 -12.5 -58.5 t-50.5 -61.5q-37 -33 -43 -52q-6 -20 -6 -72h-46zM222 117v67h56v-67h-56z"/>
<glyph horiz-adv-x="500" glyph-name=".null"/>
<glyph horiz-adv-x="500" glyph-name=".null"/>
<glyph unicode="" glyph-name="nonmarkingreturn" horiz-adv-x="0"/>
<glyph unicode=" " glyph-name="space" horiz-adv-x="250"/>
<glyph unicode="!" glyph-name="exclam" horiz-adv-x="353" d="M236 92q0 -21 -7.5 -39t-20 -31.5t-30.5 -21.5t-39 -8q-40 0 -65 23.5t-25 60.5q0 21 7.5 39t21 31.5t31 21.5t38.5 8q39 0 64 -24t25 -60zM80 236l83 472h164l-84 -472h-163z"/>
<glyph unicode='&quot;' glyph-name="quotedbl" horiz-adv-x="490" d="M98 438l48 270h128l-49 -270h-127zM291 438l48 270h127l-48 -270h-127z"/>
<glyph unicode="#" glyph-name="numbersign" horiz-adv-x="601" d="M283 405l-33 -102h81l33 102h-81zM471 405l-32 -102h85l-18 -102h-98l-65 -201h-108l64 201h-81l-64 -201h-108l64 201h-85l18 102h98l34 102h-85l17 102h100l64 201h108l-63 -201h80l64 201h108l-64 -201h85l-18 -102h-100z"/>
<glyph unicode="$" glyph-name="dollar" horiz-adv-x="644" d="M408 206q0 29 -16.5 46.5t-43.5 28.5l-29 -160q38 2 63.5 24.5t25.5 60.5zM330 589q-35 -2 -59.5 -21.5t-24.5 -57.5q0 -27 14.5 -42.5t43.5 -24.5zM508 540q-17 20 -45.5 34.5t-61.5 15.5l-29 -167q40 -14 75 -30.5t61 -40t41 -56t15 -77.5q0 -52 -21.5 -93.5t-58 -70.5 t-85 -45.5t-103.5 -19.5l-13 -74h-70l12 74q-30 1 -61.5 8.5t-61.5 20t-56 30.5t-44 42l119 100q10 -15 25 -27.5t32 -22t35.5 -15t35.5 -5.5l31 179q-35 10 -68 24.5t-59 36.5t-41.5 53.5t-15.5 75.5q0 52 21.5 93.5t56.5 71t81 45.5t96 18l13 72h71l-13 -72 q60 -5 110.5 -25t82.5 -55z"/>
<glyph unicode="%" glyph-name="percent" horiz-adv-x="908" d="M224 -35l-71 46l546 729l72 -46zM329 550q0 27 -17 47t-48 20q-39 0 -63 -27.5t-24 -68.5q0 -28 17 -48t47 -20q40 0 64 27.5t24 69.5zM442 563q0 -45 -15.5 -83.5t-43.5 -67.5t-66.5 -45.5t-83.5 -16.5q-37 0 -68 11.5t-53.5 32t-35.5 49.5t-13 65q0 44 15.5 83 t43.5 67.5t66.5 45t84.5 16.5q37 0 68 -11.5t53.5 -32t35 -49.5t12.5 -64zM751 189q0 27 -17 47t-47 20q-39 0 -63 -27.5t-24 -68.5q0 -28 17 -48t46 -20q41 0 64.5 27.5t23.5 69.5zM865 202q0 -45 -15.5 -83.5t-43.5 -67.5t-66 -45.5t-84 -16.5q-37 0 -68 11.5t-53.5 32 t-35.5 49.5t-13 65q0 44 15.5 83t43.5 67.5t66.5 45t83.5 16.5q37 0 68.5 -11.5t54 -32t35 -49.5t12.5 -64z"/>
<glyph unicode="&amp;" glyph-name="ampersand" horiz-adv-x="777" d="M279 303q-41 -14 -70 -39.5t-29 -69.5q0 -35 26.5 -56.5t62.5 -21.5q35 0 63 15t52 43zM441 549q0 28 -16 45t-45 17q-34 0 -55 -22t-21 -55q0 -23 10.5 -46.5t25.5 -38.5q43 15 72 41t29 59zM574 177l151 -177h-198l-57 72q-52 -47 -104.5 -66.5t-108.5 -19.5 q-49 0 -92 11.5t-75.5 35t-51 60t-18.5 86.5q0 41 14 75t38.5 61.5t59 48t75.5 35.5q-23 29 -34.5 62.5t-11.5 67.5q0 43 16.5 79t45.5 62.5t69.5 41.5t87.5 15q43 0 80 -11.5t64 -33t42.5 -53.5t15.5 -73q0 -34 -12 -62.5t-34.5 -52.5t-54.5 -43.5t-72 -36.5l73 -87l76 105 h183z"/>
<glyph unicode="&apos;" glyph-name="quotesingle" horiz-adv-x="296" d="M98 438l47 270h127l-47 -270h-127z"/>
<glyph unicode="(" glyph-name="parenleft" horiz-adv-x="342" d="M94 -165q-40 71 -61 157.5t-21 177.5q0 152 60.5 298.5t177.5 273.5l98 -61q-53 -59 -92.5 -122.5t-65.5 -129t-39 -130.5t-13 -128q0 -75 17.5 -152t52.5 -140z"/>
<glyph unicode=")" glyph-name="parenright" horiz-adv-x="342" d="M239 742q40 -70 61 -157t21 -178q0 -152 -60.5 -298.5t-177.5 -272.5l-98 60q106 119 158 251.5t52 258.5q0 75 -17.5 152t-52.5 140z"/>
<glyph unicode="*" glyph-name="asterisk" horiz-adv-x="486" d="M338 576l129 41l33 -97l-129 -40l81 -109l-88 -61l-82 110l-79 -107l-86 62l82 105l-131 44l34 97l129 -44v131h107v-132z"/>
<glyph unicode="+" glyph-name="plus" horiz-adv-x="666" d="M399 240v-209h-130v209h-213v126h212v209h130v-209h213v-126h-212z"/>
<glyph unicode="," glyph-name="comma" horiz-adv-x="300" d="M74 -124h-131l124 282h153z"/>
<glyph unicode="-" glyph-name="hyphen" horiz-adv-x="326" d="M15 197l23 127h252l-22 -127h-253z"/>
<glyph unicode="." glyph-name="period" horiz-adv-x="300" d="M203 94q0 -21 -7.5 -39t-20.5 -32t-31.5 -22t-39.5 -8q-41 0 -66.5 23.5t-25.5 61.5q0 44 29 73t72 29q39 0 64.5 -24.5t25.5 -61.5z"/>
<glyph unicode="/" glyph-name="slash" horiz-adv-x="413" d="M38 -51l-103 36l445 775l104 -37z"/>
<glyph unicode="0" glyph-name="zero" horiz-adv-x="644" d="M366 590q-36 0 -65.5 -30t-50.5 -77.5t-32.5 -106.5t-11.5 -117q0 -29 4.5 -54t15 -43.5t27 -29.5t39.5 -11q35 0 64 29.5t49.5 76.5t32 106t11.5 119q0 28 -4.5 53.5t-14 44t-25.5 29.5t-39 11zM379 726q65 0 110.5 -21.5t74 -56.5t41 -81.5t12.5 -95.5q0 -50 -7.5 -106 t-23.5 -110.5t-42 -104t-63 -87t-86.5 -59.5t-111.5 -22q-66 0 -111.5 21t-74.5 55.5t-42 80t-13 95.5q0 51 7.5 107.5t24.5 111t43.5 104t63.5 87t86.5 60t111.5 22.5z"/>
<glyph unicode="1" glyph-name="one" horiz-adv-x="644" d="M226 0l93 525l-150 -98l-61 124l253 157h154l-125 -708h-164z"/>
<glyph unicode="2" glyph-name="two" horiz-adv-x="644" d="M551 142l-25 -142h-515l24 138l319 249q42 35 63.5 64t21.5 59q0 35 -21.5 55.5t-63.5 20.5t-71.5 -26.5t-43.5 -74.5l-150 31q30 101 104.5 156t174.5 55q51 0 95 -13t76.5 -38.5t51 -62t18.5 -83.5q0 -44 -13 -77.5t-35.5 -62.5t-52.5 -54.5t-65 -52.5l-180 -141h288z "/>
<glyph unicode="3" glyph-name="three" horiz-adv-x="644" d="M290 426q68 0 103.5 25t35.5 72q0 32 -21.5 51t-58.5 19q-39 0 -66.5 -18.5t-43.5 -51.5l-134 54q37 78 106 114t151 36q44 0 85.5 -11t73.5 -34t51.5 -58.5t19.5 -84.5q0 -37 -12.5 -65.5t-32.5 -49.5t-45 -34t-50 -19v-2q51 -14 80 -54t29 -93q0 -60 -23.5 -105 t-62.5 -75t-90 -45.5t-106 -15.5q-49 0 -91 11.5t-76 34t-57.5 56.5t-35.5 78l152 41q11 -40 40 -61t74 -21q49 0 79.5 25t30.5 69q0 26 -10.5 44t-28.5 28.5t-42 15t-51 4.5h-44l20 120h51z"/>
<glyph unicode="4" glyph-name="four" horiz-adv-x="644" d="M401 548h-4l-219 -276h173zM482 139l-24 -139h-152l23 139h-332l25 141l352 428h205l-77 -436h100l-23 -133h-97z"/>
<glyph unicode="5" glyph-name="five" horiz-adv-x="644" d="M272 452q14 3 32.5 5t34.5 2q39 0 79 -10.5t72.5 -35t52.5 -64.5t20 -98q0 -70 -25 -121t-65 -84t-90.5 -49t-100.5 -16t-93.5 12t-77.5 34.5t-57.5 54t-35.5 69.5l150 49q11 -35 40.5 -57t70.5 -22q53 0 85.5 30.5t32.5 83.5q0 28 -10.5 47.5t-27.5 31.5t-40.5 17.5 t-48.5 5.5q-39 0 -86 -10t-88 -25l86 406h418l-26 -140h-276z"/>
<glyph unicode="6" glyph-name="six" horiz-adv-x="644" d="M412 247q0 24 -8.5 42t-22 30.5t-31 19t-35.5 6.5q-30 0 -54.5 -10t-41.5 -28t-26 -42t-9 -52q0 -23 8.5 -41t22.5 -31t32.5 -19.5t38.5 -6.5q59 0 92.5 36t33.5 96zM578 258q0 -56 -20 -106t-58.5 -87.5t-94 -60t-126.5 -22.5q-54 0 -101 14.5t-82 43t-55 71t-20 98.5 t25 112.5t82 124.5l222 262h206l-219 -246l-6 -8q7 2 17.5 3.5t18.5 1.5q51 0 90.5 -16.5t66 -44.5t40.5 -64.5t14 -75.5z"/>
<glyph unicode="7" glyph-name="seven" horiz-adv-x="644" d="M234 0h-199l400 567h-323l24 141h506l-23 -131z"/>
<glyph unicode="8" glyph-name="eight" horiz-adv-x="644" d="M271 506q0 -32 21 -53.5t57 -21.5q40 0 68.5 24.5t28.5 68.5q0 35 -22.5 55t-57.5 20q-43 0 -69 -26.5t-26 -66.5zM458 366q21 -8 40 -22t34 -33.5t23.5 -43.5t8.5 -51q0 -55 -20.5 -98.5t-58 -73.5t-89 -46t-113.5 -16q-40 0 -82 9.5t-76.5 32.5t-57 61t-22.5 94 q0 41 14 75t37 59.5t52.5 42t60.5 23.5v3q-38 18 -61.5 52.5t-23.5 79.5q0 54 22.5 94t58.5 66t82 39t94 13q42 0 81.5 -10t70 -32t49 -55.5t18.5 -79.5q0 -40 -13 -70.5t-33.5 -52t-46 -36t-50.5 -21.5zM201 199q0 -23 7.5 -39.5t20 -27t28.5 -15.5t33 -5q58 0 87.5 31 t29.5 77q0 39 -25 63t-64 24q-52 0 -84.5 -30t-32.5 -78z"/>
<glyph unicode="9" glyph-name="nine" horiz-adv-x="644" d="M462 495q0 23 -8.5 41t-22.5 31t-32.5 19.5t-38.5 6.5q-59 0 -92.5 -36t-33.5 -96q0 -24 8.5 -42t22 -30.5t31 -19t35.5 -6.5q30 0 54.5 10t41.5 28t26 42t9 52zM625 499q0 -56 -25 -112.5t-82 -124.5l-222 -262h-206l219 246l6 8q-7 -2 -17.5 -3.5t-18.5 -1.5 q-51 0 -90.5 16.5t-66 44.5t-40.5 64.5t-14 75.5q0 55 20 105.5t58 88t94 60t127 22.5q54 0 101 -14.5t82 -43t55 -71t20 -98.5z"/>
<glyph unicode=":" glyph-name="colon" horiz-adv-x="330" d="M272 419q0 -41 -27 -70t-69 -29q-39 0 -64 23.5t-25 59.5q0 21 7.5 39t20.5 31t31 20.5t38 7.5q38 0 63 -23.5t25 -58.5zM216 94q0 -20 -7.5 -37.5t-20 -31t-30.5 -21.5t-39 -8q-38 0 -63.5 23t-25.5 60q0 42 28 70t70 28q38 0 63 -24t25 -59z"/>
<glyph unicode=";" glyph-name="semicolon" horiz-adv-x="330" d="M272 419q0 -41 -27 -70t-69 -29q-39 0 -64 23.5t-25 59.5q0 21 7.5 39t20.5 31t31 20.5t38 7.5q38 0 63 -23.5t25 -58.5zM95 -124h-135l124 282h156z"/>
<glyph unicode="&lt;" glyph-name="less" horiz-adv-x="666" d="M79 251v103l508 214v-136l-306 -131l306 -127v-137z"/>
<glyph unicode="=" glyph-name="equal" horiz-adv-x="666" d="M68 150v123h530v-123h-530zM68 335v123h530v-123h-530z"/>
<glyph unicode="&gt;" glyph-name="greater" horiz-adv-x="666" d="M79 37v137l306 127l-306 131v136l508 -214v-103z"/>
<glyph unicode="?" glyph-name="question" horiz-adv-x="543" d="M345 92q0 -21 -7.5 -39t-20 -31.5t-30.5 -21.5t-39 -8q-40 0 -65 23.5t-25 60.5q0 21 7.5 39t21 31.5t31 21.5t38.5 8q39 0 64 -24t25 -60zM418 345q-19 -12 -32 -22.5t-21.5 -21t-13 -23t-7.5 -28.5l-4 -26h-152l6 39q4 26 13 46.5t21.5 38t30 33.5t40.5 33l40 30 q24 17 40.5 36t16.5 48q0 32 -18.5 46.5t-50.5 14.5q-43 0 -68 -28.5t-33 -66.5l-148 26q10 48 35 86.5t60 65.5t79 41t94 14q43 0 82.5 -9.5t69.5 -31t47.5 -56t17.5 -84.5q0 -35 -9.5 -62t-28 -50.5t-45.5 -45t-62 -43.5z"/>
<glyph unicode="@" glyph-name="at" horiz-adv-x="800" d="M479 405q0 23 -11 38.5t-39 15.5q-19 0 -38 -14t-34 -36t-24 -48.5t-9 -51.5q0 -21 11 -36t37 -15q22 0 42 14.5t34 36t22.5 47.5t8.5 49zM545 160q-40 0 -64 17.5t-24 46.5h-3q-16 -23 -47.5 -43.5t-72.5 -20.5q-62 0 -95 34.5t-33 91.5q0 45 16.5 92.5t46.5 86.5 t72.5 64t94.5 25q40 0 63.5 -16.5t27.5 -37.5h1l13 34h106l-60 -159q-4 -12 -9 -25t-9 -26t-6.5 -24.5t-2.5 -18.5q0 -14 5.5 -19t19.5 -5q22 0 42 14t34.5 38.5t23 57.5t8.5 71q0 50 -17 87t-47.5 62t-72.5 37t-93 12q-72 0 -132 -25.5t-102.5 -70t-66.5 -104.5t-24 -129 q0 -56 18.5 -99.5t53 -73.5t83 -45.5t108.5 -15.5q66 0 122 22t105 61l50 -68q-54 -49 -128.5 -77.5t-160.5 -28.5q-83 0 -150 22t-114 63.5t-72 100t-25 131.5q0 91 34 169.5t93 135.5t138.5 89.5t171.5 32.5q71 0 131 -18.5t104 -54.5t69 -88t25 -118q0 -59 -17.5 -111 t-50 -91t-78.5 -62t-103 -23z"/>
<glyph unicode="A" glyph-name="A" horiz-adv-x="710" d="M411 526l-148 -251h185zM489 0l-24 141h-273l-85 -141h-190l451 708h162l134 -708h-175z"/>
<glyph unicode="B" glyph-name="B" horiz-adv-x="664" d="M229 303l-29 -169h97q28 0 53 5t44.5 16t31 30t11.5 46q0 34 -26 53t-74 19h-108zM277 575l-26 -152h102q18 0 37.5 4t35.5 14t26.5 27t10.5 42q0 35 -27 50t-68 15h-91zM420 708q37 0 74 -8t66.5 -26.5t48 -48t18.5 -72.5q0 -72 -42 -118t-109 -63v-2q54 -9 90.5 -48.5 t36.5 -102.5q0 -54 -22.5 -95t-62.5 -68.5t-96 -41.5t-122 -14h-282l125 708h277z"/>
<glyph unicode="C" glyph-name="C" horiz-adv-x="684" d="M649 99q-21 -23 -48.5 -44.5t-63 -38t-78 -26t-93.5 -9.5q-75 0 -135 22t-102 62.5t-65 97.5t-23 126q0 91 32 171t88.5 139.5t133.5 93.5t167 34q84 0 151 -29.5t101 -75.5l-123 -110q-17 26 -50.5 46t-83.5 20q-53 0 -96.5 -22.5t-75 -60t-49 -86t-17.5 -100.5 q0 -36 11.5 -68.5t33.5 -56.5t54.5 -38t74.5 -14q47 0 89 20t74 57z"/>
<glyph unicode="D" glyph-name="D" horiz-adv-x="769" d="M207 144h107q62 0 109.5 20.5t79 55t47.5 79t16 91.5q0 36 -11.5 68.5t-35.5 56.5t-60.5 38t-86.5 14h-91zM143 708h262q60 0 119.5 -16.5t107 -52.5t77.5 -92.5t30 -136.5q0 -93 -32.5 -169t-90.5 -129.5t-137 -82.5t-172 -29h-289z"/>
<glyph unicode="E" glyph-name="E" d="M18 0l125 708h453l-25 -142h-294l-24 -137h280l-24 -134h-280l-26 -152h322l-25 -143h-482z"/>
<glyph unicode="F" glyph-name="F" horiz-adv-x="561" d="M282 566l-27 -151h265l-24 -137h-265l-49 -278h-164l125 708h445l-25 -142h-281z"/>
<glyph unicode="G" glyph-name="G" horiz-adv-x="749" d="M401 126q30 1 55.5 5.5t47.5 15.5l23 133h-138l25 137h291l-65 -374q-54 -28 -121.5 -45t-139.5 -17q-76 0 -138.5 21.5t-106.5 61.5t-68.5 97t-24.5 128q0 91 31.5 171t88 139.5t133 93.5t166.5 34q84 0 152.5 -26.5t107.5 -78.5l-121 -109q-20 29 -54.5 48.5 t-87.5 19.5q-52 0 -96.5 -22t-77 -59.5t-51 -87t-18.5 -104.5q0 -39 12 -72.5t36 -58t59 -38t80 -13.5z"/>
<glyph unicode="H" glyph-name="H" horiz-adv-x="757" d="M460 0l52 298h-275l-53 -298h-166l125 708h166l-48 -269h276l47 269h167l-125 -708h-166z"/>
<glyph unicode="I" glyph-name="I" horiz-adv-x="315" d="M18 0l125 708h167l-125 -708h-167z"/>
<glyph unicode="J" glyph-name="J" horiz-adv-x="525" d="M442 239q-8 -43 -22 -89t-42 -83.5t-74 -61.5t-117 -24q-91 0 -148 44.5t-73 120.5l154 50q4 -27 21 -46t45 -19q44 0 63 31t27 78l82 468h168z"/>
<glyph unicode="K" glyph-name="K" horiz-adv-x="679" d="M447 0l-205 333h-3l-58 -333h-163l125 708h163l-53 -297h3l281 297h212l-347 -337l252 -371h-207z"/>
<glyph unicode="L" glyph-name="L" horiz-adv-x="525" d="M18 0l125 708h167l-100 -563h278l-26 -145h-444z"/>
<glyph unicode="M" glyph-name="M" horiz-adv-x="953" d="M660 0l93 507h-4l-275 -507h-117l-94 507h-4l-85 -507h-156l125 708h233l82 -459h4l239 459h247l-125 -708h-163z"/>
<glyph unicode="N" glyph-name="N" horiz-adv-x="789" d="M460 0l-195 470h-3l-80 -470h-164l125 708h187l194 -467h2l80 467h164l-125 -708h-185z"/>
<glyph unicode="O" glyph-name="O" horiz-adv-x="831" d="M395 132q55 0 98.5 22.5t73.5 60t46 86t16 99.5q0 37 -12 69.5t-34.5 56.5t-56.5 38t-77 14q-54 0 -97.5 -23t-74 -60.5t-47 -85.5t-16.5 -99q0 -37 12 -69.5t35 -56.5t56.5 -38t77.5 -14zM460 726q80 0 143.5 -22t107.5 -63t67.5 -99t23.5 -129q0 -90 -30.5 -168.5 t-85.5 -137t-131.5 -92t-168.5 -33.5q-81 0 -145 22t-108.5 63t-68 99t-23.5 129q0 90 31 168.5t87 137t132.5 92t168.5 33.5z"/>
<glyph unicode="P" glyph-name="P" horiz-adv-x="637" d="M325 401q65 0 103.5 20.5t38.5 72.5q0 23 -8.5 38.5t-23.5 24.5t-36 12.5t-46 3.5h-68l-31 -172h71zM376 708q125 0 191.5 -52t66.5 -145q0 -63 -22 -109t-63 -75.5t-98.5 -43.5t-128.5 -14h-91l-48 -269h-165l125 708h233z"/>
<glyph unicode="Q" glyph-name="Q" horiz-adv-x="837" d="M619 406q0 36 -11.5 67.5t-33 55t-53.5 37t-74 13.5q-53 0 -96.5 -22t-74 -58.5t-47 -83.5t-16.5 -96q0 -36 11.5 -67.5t33.5 -55.5t54.5 -38t74.5 -14q52 0 95 22t73.5 58.5t47 84t16.5 97.5zM791 427q0 -63 -14.5 -111.5t-36 -84.5t-46 -60.5t-45.5 -37.5l-1 -3l150 3 l-24 -133h-397q-75 0 -137 21t-106.5 60t-68.5 94.5t-24 124.5q0 89 31 166.5t86.5 135.5t131.5 91t165 33q76 0 138 -21t106 -59.5t68 -94t24 -124.5z"/>
<glyph unicode="R" glyph-name="R" horiz-adv-x="656" d="M324 404q67 0 104 22t37 70q0 44 -31 60t-83 16h-71l-30 -168h74zM603 0h-188l-119 285h-68l-48 -285h-162l125 708h242q117 0 182.5 -49.5t65.5 -138.5q0 -86 -47 -140.5t-127 -74.5z"/>
<glyph unicode="S" glyph-name="S" horiz-adv-x="585" d="M472 536q-20 27 -50 41t-67 14q-17 0 -36 -4.5t-34.5 -15t-26 -26.5t-10.5 -39q0 -30 23.5 -47.5t65.5 -32.5q46 -16 82 -35.5t61 -44.5t38 -56.5t13 -71.5q0 -64 -26.5 -109t-68.5 -73.5t-94 -41.5t-103 -13q-38 0 -76 7t-73 20.5t-65 34.5t-51 48l123 100 q21 -32 62 -52t83 -20q22 0 42.5 4.5t36.5 15t25.5 27t9.5 39.5q0 37 -30 58.5t-80 38.5q-35 12 -65.5 27t-53 37t-36 52.5t-13.5 73.5q0 54 22.5 97.5t61.5 74t91 47t111 16.5q31 0 63 -6t61.5 -17.5t54.5 -28.5t42 -39z"/>
<glyph unicode="T" glyph-name="T" horiz-adv-x="553" d="M404 565l-100 -565h-166l99 565h-198l26 143h558l-25 -143h-194z"/>
<glyph unicode="U" glyph-name="U" horiz-adv-x="737" d="M658 260q-11 -63 -36 -114.5t-65.5 -87.5t-96.5 -56t-129 -20q-64 0 -115.5 15.5t-88 44t-56 69.5t-19.5 92q0 14 1.5 30t3.5 31l78 444h165l-76 -429q-2 -10 -2.5 -21t-0.5 -20q0 -22 6.5 -42t20.5 -35.5t37 -24.5t55 -9q42 0 69.5 13.5t45 35t26.5 48t14 53.5l77 431 h164z"/>
<glyph unicode="V" glyph-name="V" horiz-adv-x="674" d="M345 0h-175l-108 708h177l55 -506h4l276 506h193z"/>
<glyph unicode="W" glyph-name="W" horiz-adv-x="1014" d="M750 0h-166l-48 484h-3l-235 -484h-165l-62 708h176l21 -476h3l220 476h172l38 -476h3l211 476h175z"/>
<glyph unicode="X" glyph-name="X" horiz-adv-x="687" d="M439 0l-105 253l-206 -253h-206l332 374l-156 334h187l89 -224l180 224h201l-300 -338l175 -370h-191z"/>
<glyph unicode="Y" glyph-name="Y" horiz-adv-x="613" d="M383 301l-54 -301h-166l53 301l-181 407h186l101 -268l203 268h202z"/>
<glyph unicode="Z" glyph-name="Z" horiz-adv-x="620" d="M-31 0l25 144l412 422h-307l25 142h524l-24 -134l-417 -429h351l-26 -145h-563z"/>
<glyph unicode="[" glyph-name="bracketleft" horiz-adv-x="342" d="M-37 -156l156 888h215l-18 -99h-89l-121 -690h89l-18 -99h-214z"/>
<glyph unicode="\" glyph-name="backslash" horiz-adv-x="415" d="M309 -52l-308 775l113 39l308 -777z"/>
<glyph unicode="]" glyph-name="bracketright" horiz-adv-x="342" d="M-10 -156l17 99h89l122 690h-89l17 99h214l-157 -888h-213z"/>
<glyph unicode="^" glyph-name="asciicircum" horiz-adv-x="690" d="M468 343l-124 213l-123 -213h-148l213 365h118l212 -365h-148z"/>
<glyph unicode="_" glyph-name="underscore" horiz-adv-x="500" d="M0 -164v89h500v-89h-500z"/>
<glyph unicode="`" glyph-name="grave" horiz-adv-x="300" d="M282 572h-120l-152 144h163z"/>
<glyph unicode="a" glyph-name="a" horiz-adv-x="559" d="M326 218q-30 0 -61 -2.5t-55.5 -10.5t-40.5 -22t-16 -37q0 -30 20.5 -40.5t45.5 -10.5q46 0 77 28.5t39 70.5l5 24h-14zM503 352q0 -14 -1.5 -30t-4.5 -31l-34 -194q-5 -26 -7.5 -53t-2.5 -44h-142q0 11 1 25.5t3 27.5h-2q-55 -65 -152 -65q-26 0 -53.5 6.5t-50 22 t-36.5 41t-14 62.5q0 60 30 98t78.5 59t110 29t123.5 8q2 9 2 14v9q0 29 -20.5 42.5t-57.5 13.5q-34 0 -68.5 -13t-62.5 -34l-66 92q45 36 103.5 55.5t115.5 19.5q45 0 83 -9.5t65.5 -29.5t43.5 -50t16 -72z"/>
<glyph unicode="b" glyph-name="b" horiz-adv-x="659" d="M453 276q0 45 -26 75.5t-77 30.5q-30 0 -56 -13t-44.5 -35t-29.5 -51t-11 -61q0 -46 28 -75.5t77 -29.5q32 0 57.5 12.5t43.5 34t28 50.5t10 62zM247 434q26 35 68.5 56t90.5 21t86.5 -16t65 -44.5t40.5 -68t14 -85.5q0 -64 -20.5 -120.5t-57.5 -98.5t-87 -66t-110 -24 q-53 0 -97.5 22t-67.5 61h-2l-12 -71h-148l133 756h161l-59 -322h2z"/>
<glyph unicode="c" glyph-name="c" horiz-adv-x="500" d="M409 340q-11 17 -34.5 30t-52.5 13q-32 0 -59 -12.5t-46.5 -34.5t-30.5 -50.5t-11 -59.5q0 -21 6.5 -40.5t19.5 -34t33.5 -23.5t48.5 -9q36 0 61 13t43 32l76 -102q-39 -35 -88 -55.5t-113 -20.5q-54 0 -99 15.5t-76.5 44.5t-49 69t-17.5 90q0 61 22 116.5t62 98t96.5 68 t125.5 25.5q57 0 106.5 -19t77.5 -58z"/>
<glyph unicode="d" glyph-name="d" horiz-adv-x="656" d="M179 223q0 -45 26 -75t77 -30q30 0 56 12.5t45 34.5t29.5 51t10.5 61q0 46 -28 75.5t-76 29.5q-32 0 -58 -12.5t-44 -34t-28 -50.5t-10 -62zM507 756h160l-134 -756h-147l12 68h-3q-26 -38 -70 -59t-99 -21q-48 0 -86.5 16t-65 44.5t-40.5 67.5t-14 86q0 64 20.5 120 t57 98t87 66.5t110.5 24.5q55 0 95 -21t60 -56h2z"/>
<glyph unicode="e" glyph-name="e" d="M397 304q1 5 1 10v10q0 33 -23.5 55t-67.5 22q-27 0 -48.5 -9.5t-37.5 -23.5t-26 -31t-14 -33h216zM170 206q-1 -4 -1 -9q0 -21 9.5 -37.5t25 -28t35 -17.5t40.5 -6q38 0 67 14t52 38l101 -79q-48 -51 -107 -73.5t-127 -22.5q-52 0 -96.5 14.5t-77.5 43t-52 70.5t-19 96 q0 64 22.5 119.5t62 96.5t94.5 64.5t121 23.5q49 0 89.5 -14t69.5 -40.5t45 -65.5t16 -90q0 -18 -3.5 -45.5t-9.5 -51.5h-357z"/>
<glyph unicode="f" glyph-name="f" horiz-adv-x="361" d="M414 637q-19 8 -42 8q-22 0 -36.5 -8t-24.5 -21.5t-15.5 -30.5t-8.5 -34l-9 -53h112l-21 -120h-110l-67 -378h-157l67 378h-91l21 120h88l10 51q8 43 23 84t42.5 72.5t69.5 50.5t103 19q20 0 40 -2.5t35 -7.5z"/>
<glyph unicode="g" glyph-name="g" horiz-adv-x="656" d="M182 223q0 -21 6 -40t19 -33.5t32 -23t46 -8.5q31 0 57.5 13t45.5 35.5t29.5 51t10.5 60.5q0 48 -28.5 76.5t-76.5 28.5q-33 0 -59 -13t-44 -35t-28 -51t-10 -61zM459 432l11 66h151l-79 -452q-12 -69 -36 -122.5t-62 -89.5t-93 -55t-128 -19q-33 0 -67.5 5.5t-67.5 16 t-62.5 26t-50.5 36.5l90 113q29 -32 71.5 -49.5t85.5 -17.5q40 0 67.5 10.5t46.5 29.5t30 44t17 55l7 33h-3q-21 -27 -61.5 -47t-91.5 -20q-50 0 -89 15.5t-66 43t-41 65.5t-14 84q0 64 20.5 120t57 98t87 66t111.5 24q54 0 94.5 -20.5t61.5 -58.5h3z"/>
<glyph unicode="h" glyph-name="h" horiz-adv-x="615" d="M337 0l47 270q5 23 5 42q0 28 -14.5 47.5t-51.5 19.5q-44 0 -70.5 -32.5t-34.5 -78.5l-48 -268h-160l133 756h161l-57 -323h2q21 31 59 54.5t89 23.5q42 0 72 -12t49.5 -33t28.5 -48.5t9 -57.5q0 -14 -1 -27.5t-4 -26.5l-54 -306h-160z"/>
<glyph unicode="i" glyph-name="i" horiz-adv-x="294" d="M293 665q0 -20 -7 -37t-19.5 -30.5t-29.5 -21t-37 -7.5q-38 0 -62.5 22.5t-24.5 57.5q0 41 27.5 68.5t67.5 27.5q37 0 61 -23t24 -57zM11 0l87 498h161l-89 -498h-159z"/>
<glyph unicode="j" glyph-name="j" horiz-adv-x="297" d="M296 665q0 -20 -7 -37t-19.5 -30.5t-29.5 -21t-37 -7.5q-38 0 -62.5 22.5t-24.5 57.5q0 41 27.5 68.5t67.5 27.5q37 0 61 -23t24 -57zM171 -19q-8 -45 -22.5 -86t-40 -72t-66 -49t-101.5 -18q-17 0 -36 2.5t-33 6.5l29 133q9 -3 18 -4t16 -1q37 0 52.5 24.5t22.5 63.5 l91 517h161z"/>
<glyph unicode="k" glyph-name="k" horiz-adv-x="572" d="M342 0l-127 239h-3l-42 -239h-160l133 756h161l-82 -460h3l189 202h202l-240 -233l157 -265h-191z"/>
<glyph unicode="l" glyph-name="l" horiz-adv-x="295" d="M10 0l133 756h163l-134 -756h-162z"/>
<glyph unicode="m" glyph-name="m" horiz-adv-x="925" d="M79 395q4 19 8.5 49t6.5 54h153q-1 -12 -3.5 -34.5t-4.5 -37.5h2q11 16 26 31.5t33.5 27.5t41.5 19t50 7q59 0 94.5 -24.5t49.5 -63.5q29 39 69 63.5t96 24.5q43 0 74 -13t51.5 -35t30 -50.5t9.5 -58.5q0 -12 -1 -24t-3 -23l-55 -307h-160l47 270q5 23 5 42 q0 29 -15 48.5t-50 19.5q-21 0 -38 -9.5t-30 -25t-21 -36t-12 -41.5l-47 -268h-161l50 285q3 15 3 28q0 29 -14.5 48t-45.5 19q-41 0 -66.5 -32.5t-33.5 -77.5l-48 -270h-160z"/>
<glyph unicode="n" glyph-name="n" horiz-adv-x="615" d="M241 426q24 37 64 61t92 24q42 0 72 -12t49.5 -33t28.5 -48.5t9 -57.5q0 -14 -1 -27.5t-4 -26.5l-54 -306h-160l47 270q5 23 5 42q0 28 -14.5 47.5t-51.5 19.5q-22 0 -39.5 -8.5t-31 -23.5t-22 -35t-12.5 -42l-48 -270h-160l69 395q4 19 8.5 49t6.5 54h153 q-1 -12 -3.5 -34t-4.5 -38h2z"/>
<glyph unicode="o" glyph-name="o" horiz-adv-x="626" d="M422 277q0 45 -27.5 75t-77.5 30q-32 0 -58 -13t-44 -35t-28 -51t-10 -61q0 -45 27 -74.5t77 -29.5q32 0 58 12.5t44.5 34.5t28.5 51t10 61zM273 -14q-54 0 -100.5 15t-80 43.5t-53 69t-19.5 91.5q0 62 21 118t60.5 98t95.5 67t127 25q55 0 102 -15t81 -43.5t53.5 -69 t19.5 -91.5q0 -63 -21 -119t-61 -98t-96.5 -66.5t-128.5 -24.5z"/>
<glyph unicode="p" glyph-name="p" horiz-adv-x="657" d="M451 275q0 45 -26 75.5t-76 30.5q-30 0 -56 -13t-45 -35t-30 -51t-11 -61q0 -46 28 -75.5t77 -29.5q32 0 57.5 12.5t43.5 34t28 50.5t10 62zM126 -240h-160l130 738h152l-12 -69h3q28 38 70.5 59.5t92.5 21.5q49 0 88 -16t66 -44.5t41 -68t14 -85.5q0 -64 -20.5 -120.5 t-57.5 -98.5t-87.5 -66.5t-110.5 -24.5q-55 0 -95 20.5t-60 55.5h-2z"/>
<glyph unicode="q" glyph-name="q" horiz-adv-x="655" d="M178 223q0 -45 26.5 -75t76.5 -30q30 0 56 12.5t45 34.5t30 51t11 61q0 46 -28.5 75.5t-76.5 29.5q-32 0 -58 -12.5t-44 -34t-28 -50.5t-10 -62zM385 62q-26 -35 -66.5 -54.5t-91.5 -19.5q-48 0 -86.5 16t-65.5 44.5t-41.5 67.5t-14.5 86q0 64 20.5 120t57.5 98 t87.5 66.5t110.5 24.5q50 0 93.5 -21.5t66.5 -63.5h2l13 72h151l-129 -738h-160l55 302h-2z"/>
<glyph unicode="r" glyph-name="r" horiz-adv-x="379" d="M239 425q24 38 57.5 62t80.5 24q9 0 18.5 -1t15.5 -3l-26 -142q-11 3 -21 4t-19 1q-35 0 -59 -12t-39.5 -29.5t-23 -37.5t-10.5 -35l-45 -256h-160l71 395q4 19 8.5 49t6.5 54h152q0 -5 -1 -14.5t-2.5 -20l-3 -21l-2.5 -17.5h2z"/>
<glyph unicode="s" glyph-name="s" horiz-adv-x="464" d="M68 159q19 -28 50.5 -42.5t64.5 -14.5q32 0 51.5 12t19.5 33q0 20 -18 31t-53 22q-35 10 -61.5 22.5t-44.5 29t-27 38t-9 50.5q0 41 18.5 73t49 54.5t71.5 34t86 11.5q58 0 108.5 -19.5t80.5 -57.5l-101 -85q-14 20 -38.5 33t-58.5 13q-26 0 -47.5 -10t-21.5 -34 q0 -17 16 -26.5t49 -18.5q70 -19 110.5 -52.5t40.5 -97.5q0 -45 -19.5 -78.5t-51 -55t-72 -32t-82.5 -10.5q-69 0 -123 23t-88 63z"/>
<glyph unicode="t" glyph-name="t" horiz-adv-x="364" d="M10 377l22 121h79l23 132h156l-23 -132h106l-22 -121h-103l-36 -195q-1 -7 -1.5 -14.5t-0.5 -12.5q0 -25 14 -34t38 -9q12 0 23.5 2t20.5 4l-15 -115q-14 -6 -39.5 -10.5t-48.5 -4.5q-72 0 -113.5 29t-41.5 92q0 12 1.5 27.5t4.5 29.5l38 211h-82z"/>
<glyph unicode="u" glyph-name="u" horiz-adv-x="614" d="M342 72q-23 -36 -63.5 -60.5t-92.5 -24.5q-41 0 -71 12.5t-49.5 33.5t-28.5 48.5t-9 57.5q0 13 1 26.5t4 27.5l53 305h161l-48 -270q-2 -11 -3 -21.5t-1 -20.5q0 -27 14.5 -47t51.5 -20q22 0 39.5 9t30.5 24t22 35t13 42l48 269h160l-70 -395q-4 -19 -8.5 -49t-6.5 -54 h-152q1 12 3.5 34.5t4.5 37.5h-3z"/>
<glyph unicode="v" glyph-name="v" horiz-adv-x="554" d="M293 0h-174l-92 498h169l41 -327h3l173 327h174z"/>
<glyph unicode="w" glyph-name="w" horiz-adv-x="856" d="M620 0h-161l-37 313h-2l-162 -313h-161l-68 498h167l24 -318h3l154 318h161l30 -318h3l153 318h168z"/>
<glyph unicode="x" glyph-name="x" horiz-adv-x="562" d="M330 0l-78 153l-136 -153h-193l252 261l-133 237h175l69 -136l119 136h187l-229 -240l144 -258h-177z"/>
<glyph unicode="y" glyph-name="y" horiz-adv-x="556" d="M268 -75q-22 -39 -43.5 -70t-47 -52t-58.5 -32t-77 -11q-47 0 -82 11l24 132q22 -9 47 -9q35 0 54.5 17.5t37.5 49.5l24 41l-115 496h175l50 -326h2l165 326h170z"/>
<glyph unicode="z" glyph-name="z" horiz-adv-x="509" d="M-23 0l22 125l283 251h-225l21 122h422l-21 -120l-288 -254h249l-22 -124h-441z"/>
<glyph unicode="{" glyph-name="braceleft" horiz-adv-x="342" d="M132 -156q-54 0 -84 29.5t-30 81.5q0 17 3 37l29 167q2 13 2 24q0 8 -2 18t-10.5 18t-20 11t-23.5 3l20 110q25 0 48 13.5t31 56.5l30 171q12 68 56 108t107 40h82l-18 -105h-47q-29 0 -41 -19t-16 -41l-29 -167q-5 -29 -19 -49.5t-30.5 -33.5t-34 -20t-29.5 -8v-2 q10 -1 23.5 -6t24.5 -15t19 -26.5t8 -41.5v-12.5t-2 -13.5l-29 -163q-1 -7 -1.5 -13t-0.5 -12q0 -15 8.5 -25t28.5 -10h47l-18 -105h-82z"/>
<glyph unicode="|" glyph-name="bar" horiz-adv-x="241" d="M56 -250l-1 1000h131v-1000h-130z"/>
<glyph unicode="}" glyph-name="braceright" horiz-adv-x="342" d="M204 732q54 0 84 -29.5t30 -81.5q0 -18 -3 -37l-29 -167q-2 -13 -2 -24q0 -8 2 -18t10.5 -18t20 -11t23.5 -3l-20 -110q-25 0 -48 -13.5t-31 -56.5l-30 -171q-12 -68 -56 -108t-107 -40h-82l18 105h47q29 0 41 19t16 41l29 167q5 29 19 49.5t30.5 33.5t34 19.5t29.5 8.5 v2q-11 1 -24 6t-24 15t-19 26.5t-8 41.5v12.5t2 13.5l29 163q1 7 1.5 13t0.5 12q0 15 -8.5 25t-28.5 10h-47l18 105h82z"/>
<glyph unicode="~" glyph-name="asciitilde" horiz-adv-x="666" d="M593 285q-11 -19 -24.5 -37t-30 -32t-37.5 -22.5t-47 -8.5q-32 0 -56.5 9t-55.5 29q-30 19 -54.5 28.5t-52.5 9.5q-29 0 -49 -19.5t-35 -50.5l-66 104q23 45 56.5 72t80.5 27q32 0 61 -9.5t59 -27.5q34 -20 58 -30t41 -10q28 0 48.5 22t38.5 49l65 -101v-2z"/>
<glyph unicode=" " glyph-name="uni00A0" horiz-adv-x="250"/>
<glyph unicode="¡" glyph-name="exclamdown" horiz-adv-x="353" d="M95 416q0 42 27.5 71t69.5 29q40 0 65.5 -23.5t25.5 -60.5q0 -21 -7.5 -39.5t-21 -32t-31.5 -21t-39 -7.5q-39 0 -64 24t-25 60zM252 272l-84 -472h-163l83 472h164z"/>
<glyph unicode="¢" glyph-name="cent" horiz-adv-x="644" d="M328 379q-24 -4 -44.5 -17t-35.5 -34t-24 -48t-9 -58q0 -35 15.5 -64.5t50.5 -37.5zM424 509q43 -5 77.5 -21t57.5 -45l-96 -101q-8 14 -25 24.5t-37 14.5l-46 -265q28 4 48 15t37 27l70 -99q-34 -30 -79 -50t-99 -23l-12 -65h-74l12 67q-88 14 -139.5 69t-51.5 146 q0 59 20 113t57 96t89.5 68t116.5 30l11 64h75z"/>
<glyph unicode="£" glyph-name="sterling" horiz-adv-x="644" d="M559 553q-14 17 -36.5 27t-50.5 10q-31 0 -52.5 -12t-35.5 -30.5t-21.5 -40t-10.5 -40.5l-10 -52h159l-20 -113h-156l-29 -164h259l-24 -138h-516l24 138h95l30 164h-96l20 113h93l12 64q8 40 26 84t50 80.5t81 60t120 23.5q59 0 107 -18.5t77 -47.5z"/>
<glyph unicode="¤" glyph-name="currency" horiz-adv-x="644" d="M324 415q-27 0 -49 -10q-21 -11 -37 -27t-24 -39t-8 -48q0 -27 8 -49t24 -39t37 -27q22 -10 49 -10q28 0 50 10t38 27t23 39q8 22 8 49q0 25 -8 48q-7 23 -23 39t-38 27q-22 10 -50 10zM536 419q18 -29 26 -61t8 -67q0 -33 -10 -70t-26 -63l82 -81l-81 -84l-84 84 q-52 -33 -127 -33q-32 0 -66 10t-61 25l-85 -86l-83 83l86 85q-17 27 -26 62t-9 68q0 36 8 68t24 59l-82 81l82 81l82 -81q29 17 62 27t68 10q34 0 68 -10t62 -25l79 79l84 -81z"/>
<glyph unicode="¥" glyph-name="yen" horiz-adv-x="644" d="M471 414h124l-18 -101h-180l-12 -66h180l-17 -101h-179l-25 -146h-153l25 146h-179l17 101h178l12 66h-178l18 101h133l-129 294h170l88 -262l175 262h178z"/>
<glyph unicode="¦" glyph-name="brokenbar" horiz-adv-x="241" d="M55 -175v362h131v-362h-131zM55 313v362h131v-362h-131z"/>
<glyph unicode="§" glyph-name="section" horiz-adv-x="616" d="M354 208q48 15 48 60q0 30 -19.5 46.5t-47.5 29.5l-82 36q-26 -6 -40.5 -24.5t-14.5 -40.5q0 -28 17.5 -42.5t49.5 -27.5zM476 545q-17 26 -46 39t-60 13q-12 0 -26 -3t-25.5 -9.5t-19 -17t-7.5 -26.5q0 -13 5.5 -22.5t17.5 -18t32 -17t49 -20.5q30 -12 57 -26t47.5 -33 t32.5 -45.5t12 -62.5q0 -30 -8.5 -53.5t-23 -41t-33 -30.5t-38.5 -22q17 -14 29 -38.5t12 -53.5q0 -59 -24 -98.5t-60.5 -63t-79.5 -33.5t-82 -10q-35 0 -72.5 7.5t-72 22t-63.5 36.5t-46 52l122 84q20 -36 59.5 -52t74.5 -16q13 0 27.5 2t25.5 8t18.5 16.5t7.5 26.5 q0 15 -6 26.5t-20.5 21.5t-37 20t-55.5 22q-30 11 -56 24.5t-46 32t-31.5 44t-11.5 60.5q0 28 9.5 52.5t25.5 43.5t36 32.5t41 21.5q-14 12 -25 34.5t-11 52.5q0 55 24.5 93t61.5 61.5t80.5 34t81.5 10.5q75 0 132.5 -25.5t85.5 -70.5z"/>
<glyph unicode="¨" glyph-name="dieresis" horiz-adv-x="300" d="M398 664q0 -35 -23.5 -60.5t-60.5 -25.5q-34 0 -56 20.5t-22 52.5q0 37 24.5 61.5t61.5 24.5q33 0 54.5 -20.5t21.5 -52.5zM179 664q0 -35 -23.5 -60.5t-60.5 -25.5q-35 0 -56.5 20.5t-21.5 52.5q0 37 24.5 61.5t60.5 24.5q34 0 55.5 -20.5t21.5 -52.5z"/>
<glyph unicode="©" glyph-name="copyright" horiz-adv-x="800" d="M508 440q-14 18 -38.5 28.5t-51.5 10.5q-28 0 -49 -10.5t-35.5 -28.5t-22 -40.5t-7.5 -46.5t7.5 -47t22.5 -41t37.5 -29t52.5 -11q26 0 49.5 9.5t38.5 26.5l72 -76q-29 -30 -72 -46.5t-93 -16.5q-49 0 -92 15.5t-75.5 44.5t-51 72t-18.5 98q0 53 19 95.5t51 72t75.5 45.5 t91.5 16q50 0 94.5 -18.5t71.5 -52.5zM720 353q0 66 -25 124.5t-68.5 102t-101.5 69t-124 25.5t-124.5 -25.5t-102 -69t-69 -102t-25.5 -124.5t25 -124t68 -101.5t101.5 -68.5t124.5 -25t124.5 25t102 68.5t69 101.5t25.5 124zM780 353q0 -78 -30 -146.5t-81.5 -119.5 t-120.5 -80t-147 -29q-79 0 -148.5 29t-121 80t-81.5 119.5t-30 146.5q0 79 30 147.5t81.5 119.5t121 80.5t148.5 29.5q78 0 147 -29.5t120.5 -80.5t81.5 -119.5t30 -147.5z"/>
<glyph unicode="ª" glyph-name="ordfeminine" horiz-adv-x="380" d="M260 459q-14 -17 -34 -26t-49 -9q-39 0 -64.5 20t-25.5 56q0 31 13.5 52.5t38.5 35t60.5 19t78.5 5.5q1 3 1 10q0 29 -41 29q-17 0 -36.5 -7t-35.5 -19l-39 55q30 23 63 33t60 10q61 0 89.5 -26t28.5 -67q0 -10 -1 -18.5t-3 -18.5l-18 -106q-2 -14 -3.5 -30.5t-1.5 -25.5 h-82q0 5 0.5 12.5t1.5 15.5h-1zM267 554q-17 0 -33.5 -1.5t-30 -5.5t-22 -11.5t-8.5 -19.5q0 -17 11 -22.5t24 -5.5q25 0 41.5 15t20.5 38l4 13h-7z"/>
<glyph unicode="«" glyph-name="guillemotleft" horiz-adv-x="544" d="M443 482l85 -64l-150 -174l84 -165l-101 -56l-120 229zM218 487l84 -64l-150 -174l86 -170l-101 -56l-120 234z"/>
<glyph unicode="¬" glyph-name="logicalnot" horiz-adv-x="666" d="M476 145v183h-425v123h555v-306h-130z"/>
<glyph unicode="­" glyph-name="uni00AD" horiz-adv-x="326" d="M15 197l23 127h252l-22 -127h-253z"/>
<glyph unicode="®" glyph-name="registered" horiz-adv-x="600" d="M148 492q0 -39 15 -74t41.5 -61.5t61.5 -41.5t75 -15t74.5 15t60.5 41.5t41 61.5t15 74q0 40 -15 75t-41 61t-60.5 41t-74.5 15t-75 -15t-61.5 -41t-41.5 -61t-15 -75zM112 492q0 47 18 88.5t49 72t73 48.5t89 18t88.5 -18t72 -48.5t48.5 -72t18 -88.5t-18 -88 t-48.5 -71.5t-72 -48t-88.5 -17.5t-89 17.5t-73 48t-49 71.5t-18 88zM379 365l-44 94h-16v-94h-88v266h114q21 0 43 -4t39 -14t28 -26.5t11 -41.5q0 -55 -48 -74l61 -106h-100zM345 521q12 0 20 6.5t8 16.5q0 8 -8.5 13t-19.5 5h-26v-41h26z"/>
<glyph unicode="¯" glyph-name="macron" horiz-adv-x="300" d="M32 601l14 84h334l-15 -84h-333z"/>
<glyph unicode="°" glyph-name="degree" horiz-adv-x="416" d="M328 558q0 36 -25.5 62t-62.5 26t-62.5 -26t-25.5 -62q0 -37 25.5 -62.5t62.5 -25.5t62.5 25.5t25.5 62.5zM408 558q0 -35 -13 -66t-35.5 -53.5t-53.5 -35.5t-66 -13t-66 13t-53.5 35.5t-35.5 53.5t-13 66t13 65.5t35.5 53t53.5 35.5t66 13t66 -13t53.5 -35.5t35.5 -53 t13 -65.5z"/>
<glyph unicode="±" glyph-name="plusminus" horiz-adv-x="666" d="M61 31v127h555v-127h-555zM404 331v-132h-130v132h-213v127h213v132h130v-132h212v-127h-212z"/>
<glyph unicode="²" glyph-name="twosuperior" horiz-adv-x="420" d="M92 589q19 61 65 95t109 34q31 0 57.5 -8t46.5 -23t31.5 -37.5t11.5 -52.5q0 -27 -7.5 -48t-21 -38.5t-32 -33t-41.5 -32.5l-101 -73h167l-18 -97h-314l16 92l192 147q23 18 36 35t13 34q0 41 -46 41q-26 0 -41 -15.5t-23 -41.5z"/>
<glyph unicode="³" glyph-name="threesuperior" horiz-adv-x="420" d="M209 541q36 0 56.5 13t20.5 41q0 19 -12 27.5t-30 8.5q-42 0 -62 -41l-90 36q25 50 67 72t92 22q30 0 56 -8t45.5 -23t30.5 -36.5t11 -48.5q0 -41 -24.5 -67t-56.5 -34q29 -11 45.5 -33.5t16.5 -53.5q0 -38 -14.5 -65.5t-38.5 -45.5t-55 -27t-63 -9q-62 0 -104.5 29 t-57.5 83l101 27q6 -24 23 -35t40 -11q27 0 43.5 13.5t16.5 36.5q0 26 -20 37.5t-53 11.5h-30l13 80h33z"/>
<glyph unicode="´" glyph-name="acute" horiz-adv-x="300" d="M246 572h-122l129 144h163z"/>
<glyph unicode="µ" glyph-name="mu" horiz-adv-x="666" d="M306 498l-52 -248q-4 -17 -5.5 -31.5t-1.5 -21.5q0 -14 3.5 -29.5t16 -28.5t37.5 -13t44.5 9t33.5 24t23 35t14 43l55 261h162l-105 -498h-155l12 57h-1q-21 -26 -50.5 -45t-74.5 -19q-18 0 -34 5t-25 15l-51 -239h-162l154 724h162z"/>
<glyph unicode="¶" glyph-name="paragraph" horiz-adv-x="617" d="M360 -129l131 739h-87l-131 -739h-113l81 463q-88 2 -136.5 42.5t-48.5 107.5q0 43 15 83t48 71.5t86.5 50.5t130.5 19h285l-147 -837h-114z"/>
<glyph unicode="·" glyph-name="periodcentered" horiz-adv-x="300" d="M245 301q0 -21 -7.5 -39t-20.5 -32t-31.5 -22t-39.5 -8q-41 0 -66.5 23.5t-25.5 61.5q0 44 29 73t72 29q39 0 64.5 -24.5t25.5 -61.5z"/>
<glyph unicode="¸" glyph-name="cedilla" horiz-adv-x="300" d="M200 -135q0 -30 -14 -50t-36.5 -32t-49.5 -17.5t-52 -5.5q-31 0 -65 7t-55 18l32 59q17 -9 39 -13.5t42 -4.5q9 0 18.5 1t17.5 5t13.5 10t5.5 17q0 18 -13.5 23.5t-28.5 5.5q-9 0 -20 -1.5t-21 -4.5l-25 29l82 89h80l-58 -61q6 2 10 2h9q13 0 28.5 -3.5t29 -12.5 t22.5 -23.5t9 -36.5z"/>
<glyph unicode="¹" glyph-name="onesuperior" horiz-adv-x="420" d="M171 273l55 308l-84 -55l-42 81l160 101h102l-77 -435h-114z"/>
<glyph unicode="º" glyph-name="ordmasculine" horiz-adv-x="380" d="M294 589q0 23 -14 37.5t-40 14.5q-32 0 -51 -24t-19 -56q0 -23 13.5 -38t39.5 -15q32 0 51.5 24t19.5 57zM390 599q0 -39 -13 -71t-36 -55t-55 -35.5t-69 -12.5q-64 0 -103.5 34.5t-39.5 90.5q0 38 12.5 70t35.5 55t54.5 36t69.5 13q63 0 103.5 -33t40.5 -92z"/>
<glyph unicode="»" glyph-name="guillemotright" horiz-adv-x="544" d="M80 25l-85 64l150 173l-84 166l101 55l119 -228zM305 20l-85 64l150 174l-85 170l100 55l121 -233z"/>
<glyph unicode="¼" glyph-name="onequarter" horiz-adv-x="940" d="M285 273h-114l55 308l-84 -55l-42 81l160 101h102zM240 -34l-72 45l522 729l72 -45zM713 316l-112 -141h90l26 141h-4zM838 85h-58l-14 -85h-104l15 85h-200l16 90l213 260h133l-45 -260h60z"/>
<glyph unicode="½" glyph-name="onehalf" horiz-adv-x="940" d="M285 273h-114l55 308l-84 -55l-42 81l160 101h102zM240 -34l-72 45l522 729l72 -45zM884 322q0 -27 -7.5 -48t-21 -38.5t-32 -33t-41.5 -32.5l-101 -73h166l-17 -97h-314l16 92l191 147q50 37 50 69q0 41 -47 41q-25 0 -40 -15.5t-23 -41.5l-101 22q20 61 65.5 95 t108.5 34q31 0 58 -8t47 -23t31.5 -37.5t11.5 -52.5z"/>
<glyph unicode="¾" glyph-name="threequarters" horiz-adv-x="940" d="M394 604q0 -41 -24.5 -67t-56.5 -34q29 -11 45.5 -33.5t16.5 -53.5q0 -38 -14.5 -65.5t-38.5 -45.5t-55 -27t-63 -9q-62 0 -104.5 29t-57.5 83l101 27q6 -24 23 -35t40 -11q27 0 43.5 13.5t16.5 36.5q0 26 -20 37.5t-53 11.5h-30l13 80h33q36 0 56.5 13t20.5 41 q0 19 -12 27.5t-30 8.5q-42 0 -62 -41l-90 36q25 50 67 72t92 22q30 0 56 -8t45.5 -23t30.5 -36.5t11 -48.5zM240 -34l-72 45l522 729l72 -45zM712 315l-112 -140h90l25 140h-3zM836 85h-57l-14 -85h-105l15 85h-201l16 90l218 260h131l-45 -260h58z"/>
<glyph unicode="¿" glyph-name="questiondown" horiz-adv-x="543" d="M187 417q0 41 27.5 70t69.5 29q40 0 65.5 -23.5t25.5 -60.5q0 -42 -28.5 -70.5t-70.5 -28.5q-39 0 -64 24t-25 60zM115 164q18 12 31 22.5t21.5 21t13 22.5t7.5 28l4 26h152l-6 -38q-4 -27 -12.5 -47.5t-21.5 -38t-31 -33t-40 -32.5l-40 -30q-23 -17 -40 -36.5t-17 -48.5 q0 -31 18.5 -46t51.5 -15q43 0 67.5 28.5t32.5 66.5l148 -26q-11 -48 -35.5 -86t-59.5 -65t-79.5 -41t-93.5 -14q-43 0 -82 9.5t-69 30.5t-47.5 55.5t-17.5 85.5q0 34 9.5 61.5t28 51t45.5 44.5t62 44z"/>
<glyph unicode="À" glyph-name="Agrave" horiz-adv-x="710" d="M524 764h-120l-152 144h163zM411 526l-148 -251h185zM489 0l-24 141h-273l-85 -141h-190l451 708h162l134 -708h-175z"/>
<glyph unicode="Á" glyph-name="Aacute" horiz-adv-x="710" d="M508 764h-122l129 144h163zM411 526l-148 -251h185zM489 0l-24 141h-273l-85 -141h-190l451 708h162l134 -708h-175z"/>
<glyph unicode="Â" glyph-name="Acircumflex" horiz-adv-x="710" d="M525 764l-55 82l-83 -82h-127l148 144h146l96 -144h-125zM411 526l-148 -251h185zM489 0l-24 141h-273l-85 -141h-190l451 708h162l134 -708h-175z"/>
<glyph unicode="Ã" glyph-name="Atilde" horiz-adv-x="710" d="M656 900q-8 -26 -20 -50t-29 -42t-38.5 -28.5t-48.5 -10.5q-37 0 -72 19q-20 11 -35 16.5t-30 5.5q-18 0 -30 -12.5t-20 -29.5h-71q7 26 19 49.5t29 41t39 28t49 10.5q21 0 39.5 -5.5t36.5 -14.5q19 -10 33.5 -15t28.5 -5q19 0 30 12.5t19 30.5h71zM411 526l-148 -251 h185zM489 0l-24 141h-273l-85 -141h-190l451 708h162l134 -708h-175z"/>
<glyph unicode="Ä" glyph-name="Adieresis" horiz-adv-x="710" d="M658 856q0 -35 -23.5 -60.5t-60.5 -25.5q-34 0 -56 20.5t-22 52.5q0 37 24.5 61.5t61.5 24.5q33 0 54.5 -20.5t21.5 -52.5zM439 856q0 -35 -23.5 -60.5t-60.5 -25.5q-35 0 -56.5 20.5t-21.5 52.5q0 37 24.5 61.5t60.5 24.5q34 0 55.5 -20.5t21.5 -52.5zM411 526 l-148 -251h185zM489 0l-24 141h-273l-85 -141h-190l451 708h162l134 -708h-175z"/>
<glyph unicode="Å" glyph-name="Aring" horiz-adv-x="710" d="M526 866q0 20 -13 35t-36 15q-29 0 -47 -21t-18 -51q0 -21 12.5 -35.5t35.5 -14.5q29 0 47.5 21t18.5 51zM456 749q-42 0 -67.5 25.5t-25.5 63.5q0 25 9 47.5t24.5 39.5t37.5 26.5t48 9.5q42 0 67.5 -25t25.5 -63q0 -26 -9 -48.5t-24.5 -39.5t-37.5 -26.5t-48 -9.5z M411 526l-148 -251h185zM489 0l-24 141h-273l-85 -141h-190l451 708h162l134 -708h-175z"/>
<glyph unicode="Æ" glyph-name="AE" horiz-adv-x="1025" d="M558 566h-11l-200 -278h162zM1008 566h-294l-24 -137h281l-25 -134h-279l-27 -152h322l-25 -143h-478l26 156h-224l-114 -156h-189l525 708h550z"/>
<glyph unicode="Ç" glyph-name="Ccedilla" horiz-adv-x="684" d="M448 -135q0 -30 -14 -50t-36.5 -32t-49.5 -17.5t-52 -5.5q-31 0 -65 7t-55 18l32 59q17 -9 39 -13.5t42 -4.5q9 0 18.5 1t17.5 5t13.5 10t5.5 17q0 18 -13.5 23.5t-28.5 5.5q-9 0 -20 -1.5t-21 -4.5l-25 29l68 74q-61 9 -110 34t-83 64.5t-52 91.5t-18 114q0 91 32 171 t88.5 139.5t133.5 93.5t167 34q84 0 151 -29.5t101 -75.5l-123 -110q-17 26 -50.5 46t-83.5 20q-53 0 -96.5 -22.5t-75 -60t-49 -86t-17.5 -100.5q0 -36 11.5 -68.5t33.5 -56.5t54.5 -38t74.5 -14q47 0 89 20t74 57l93 -110q-20 -23 -46.5 -43.5t-60 -36.5t-74 -26.5 t-88.5 -11.5l-40 -42q6 2 10 2h9q13 0 28.5 -3.5t29 -12.5t22.5 -23.5t9 -36.5z"/>
<glyph unicode="È" glyph-name="Egrave" d="M477 764h-120l-152 144h163zM18 0l125 708h453l-25 -142h-294l-24 -137h280l-24 -134h-280l-26 -152h322l-25 -143h-482z"/>
<glyph unicode="É" glyph-name="Eacute" d="M406 764h-122l129 144h163zM18 0l125 708h453l-25 -142h-294l-24 -137h280l-24 -134h-280l-26 -152h322l-25 -143h-482z"/>
<glyph unicode="Ê" glyph-name="Ecircumflex" d="M447 764l-55 82l-83 -82h-127l148 144h146l96 -144h-125zM18 0l125 708h453l-25 -142h-294l-24 -137h280l-24 -134h-280l-26 -152h322l-25 -143h-482z"/>
<glyph unicode="Ë" glyph-name="Edieresis" d="M581 856q0 -35 -23.5 -60.5t-60.5 -25.5q-34 0 -56 20.5t-22 52.5q0 37 24.5 61.5t61.5 24.5q33 0 54.5 -20.5t21.5 -52.5zM362 856q0 -35 -23.5 -60.5t-60.5 -25.5q-35 0 -56.5 20.5t-21.5 52.5q0 37 24.5 61.5t60.5 24.5q34 0 55.5 -20.5t21.5 -52.5zM18 0l125 708h453 l-25 -142h-294l-24 -137h280l-24 -134h-280l-26 -152h322l-25 -143h-482z"/>
<glyph unicode="Ì" glyph-name="Igrave" horiz-adv-x="315" d="M304 764h-120l-152 144h163zM18 0l125 708h167l-125 -708h-167z"/>
<glyph unicode="Í" glyph-name="Iacute" horiz-adv-x="315" d="M272 764h-122l129 144h163zM18 0l125 708h167l-125 -708h-167z"/>
<glyph unicode="Î" glyph-name="Icircumflex" horiz-adv-x="315" d="M299 764l-55 82l-83 -82h-127l148 144h146l96 -144h-125zM18 0l125 708h167l-125 -708h-167z"/>
<glyph unicode="Ï" glyph-name="Idieresis" horiz-adv-x="315" d="M430 856q0 -35 -23.5 -60.5t-60.5 -25.5q-34 0 -56 20.5t-22 52.5q0 37 24.5 61.5t61.5 24.5q33 0 54.5 -20.5t21.5 -52.5zM211 856q0 -35 -23.5 -60.5t-60.5 -25.5q-35 0 -56.5 20.5t-21.5 52.5q0 37 24.5 61.5t60.5 24.5q34 0 55.5 -20.5t21.5 -52.5zM18 0l125 708h167 l-125 -708h-167z"/>
<glyph unicode="Ð" glyph-name="Eth" horiz-adv-x="769" d="M426 416l-19 -107h-171l-29 -165h107q62 0 109.5 20.5t79 55t47.5 79t16 91.5q0 36 -11.5 68.5t-35.5 56.5t-60.5 38t-86.5 14h-91l-26 -151h171zM15 309l19 107h57l52 292h262q60 0 119.5 -16.5t107 -52.5t77.5 -92.5t30 -136.5q0 -93 -32.5 -169t-90.5 -129.5 t-137 -82.5t-172 -29h-289l54 309h-57z"/>
<glyph unicode="Ñ" glyph-name="Ntilde" horiz-adv-x="789" d="M669 900q-8 -26 -20 -50t-29 -42t-38.5 -28.5t-48.5 -10.5q-37 0 -72 19q-20 11 -35 16.5t-30 5.5q-18 0 -30 -12.5t-20 -29.5h-71q7 26 19 49.5t29 41t39 28t49 10.5q21 0 39.5 -5.5t36.5 -14.5q19 -10 33.5 -15t28.5 -5q19 0 30 12.5t19 30.5h71zM460 0l-195 470h-3 l-80 -470h-164l125 708h187l194 -467h2l80 467h164l-125 -708h-185z"/>
<glyph unicode="Ò" glyph-name="Ograve" horiz-adv-x="831" d="M591 764h-120l-152 144h163zM395 132q55 0 98.5 22.5t73.5 60t46 86t16 99.5q0 37 -12 69.5t-34.5 56.5t-56.5 38t-77 14q-54 0 -97.5 -23t-74 -60.5t-47 -85.5t-16.5 -99q0 -37 12 -69.5t35 -56.5t56.5 -38t77.5 -14zM460 726q80 0 143.5 -22t107.5 -63t67.5 -99 t23.5 -129q0 -90 -30.5 -168.5t-85.5 -137t-131.5 -92t-168.5 -33.5q-81 0 -145 22t-108.5 63t-68 99t-23.5 129q0 90 31 168.5t87 137t132.5 92t168.5 33.5z"/>
<glyph unicode="Ó" glyph-name="Oacute" horiz-adv-x="831" d="M511 764h-122l129 144h163zM395 132q55 0 98.5 22.5t73.5 60t46 86t16 99.5q0 37 -12 69.5t-34.5 56.5t-56.5 38t-77 14q-54 0 -97.5 -23t-74 -60.5t-47 -85.5t-16.5 -99q0 -37 12 -69.5t35 -56.5t56.5 -38t77.5 -14zM460 726q80 0 143.5 -22t107.5 -63t67.5 -99 t23.5 -129q0 -90 -30.5 -168.5t-85.5 -137t-131.5 -92t-168.5 -33.5q-81 0 -145 22t-108.5 63t-68 99t-23.5 129q0 90 31 168.5t87 137t132.5 92t168.5 33.5z"/>
<glyph unicode="Ô" glyph-name="Ocircumflex" horiz-adv-x="831" d="M564 764l-55 82l-83 -82h-127l148 144h146l96 -144h-125zM395 132q55 0 98.5 22.5t73.5 60t46 86t16 99.5q0 37 -12 69.5t-34.5 56.5t-56.5 38t-77 14q-54 0 -97.5 -23t-74 -60.5t-47 -85.5t-16.5 -99q0 -37 12 -69.5t35 -56.5t56.5 -38t77.5 -14zM460 726 q80 0 143.5 -22t107.5 -63t67.5 -99t23.5 -129q0 -90 -30.5 -168.5t-85.5 -137t-131.5 -92t-168.5 -33.5q-81 0 -145 22t-108.5 63t-68 99t-23.5 129q0 90 31 168.5t87 137t132.5 92t168.5 33.5z"/>
<glyph unicode="Õ" glyph-name="Otilde" horiz-adv-x="831" d="M695 900q-8 -26 -20 -50t-29 -42t-38.5 -28.5t-48.5 -10.5q-37 0 -72 19q-20 11 -35 16.5t-30 5.5q-18 0 -30 -12.5t-20 -29.5h-71q7 26 19 49.5t29 41t39 28t49 10.5q21 0 39.5 -5.5t36.5 -14.5q19 -10 33.5 -15t28.5 -5q19 0 30 12.5t19 30.5h71zM395 132 q55 0 98.5 22.5t73.5 60t46 86t16 99.5q0 37 -12 69.5t-34.5 56.5t-56.5 38t-77 14q-54 0 -97.5 -23t-74 -60.5t-47 -85.5t-16.5 -99q0 -37 12 -69.5t35 -56.5t56.5 -38t77.5 -14zM460 726q80 0 143.5 -22t107.5 -63t67.5 -99t23.5 -129q0 -90 -30.5 -168.5t-85.5 -137 t-131.5 -92t-168.5 -33.5q-81 0 -145 22t-108.5 63t-68 99t-23.5 129q0 90 31 168.5t87 137t132.5 92t168.5 33.5z"/>
<glyph unicode="Ö" glyph-name="Odieresis" horiz-adv-x="831" d="M692 856q0 -35 -23.5 -60.5t-60.5 -25.5q-34 0 -56 20.5t-22 52.5q0 37 24.5 61.5t61.5 24.5q33 0 54.5 -20.5t21.5 -52.5zM473 856q0 -35 -23.5 -60.5t-60.5 -25.5q-35 0 -56.5 20.5t-21.5 52.5q0 37 24.5 61.5t60.5 24.5q34 0 55.5 -20.5t21.5 -52.5zM395 132 q55 0 98.5 22.5t73.5 60t46 86t16 99.5q0 37 -12 69.5t-34.5 56.5t-56.5 38t-77 14q-54 0 -97.5 -23t-74 -60.5t-47 -85.5t-16.5 -99q0 -37 12 -69.5t35 -56.5t56.5 -38t77.5 -14zM460 726q80 0 143.5 -22t107.5 -63t67.5 -99t23.5 -129q0 -90 -30.5 -168.5t-85.5 -137 t-131.5 -92t-168.5 -33.5q-81 0 -145 22t-108.5 63t-68 99t-23.5 129q0 90 31 168.5t87 137t132.5 92t168.5 33.5z"/>
<glyph unicode="×" glyph-name="multiply" horiz-adv-x="666" d="M510 37l-177 173l-176 -173l-93 89l177 175l-178 174l94 91l177 -173l174 172l91 -87l-174 -173l179 -175z"/>
<glyph unicode="Ø" glyph-name="Oslash" horiz-adv-x="831" d="M633 401q0 43 -19 83l-344 -315q20 -20 51 -31t69 -11q60 0 105 23.5t76 62t46.5 88t15.5 100.5zM564 549q-21 16 -49 25t-63 9q-59 0 -104.5 -23.5t-76.5 -62.5t-47.5 -88.5t-16.5 -101.5q0 -38 14 -71zM742 605q60 -78 60 -192q0 -90 -30.5 -168.5t-85.5 -137 t-131.5 -92t-168.5 -33.5q-75 0 -135.5 19.5t-105.5 56.5l-100 -91l-57 58l101 93q-48 74 -48 177q0 90 31 168.5t87 137t132.5 92t168.5 33.5q69 0 125 -16.5t101 -48.5l97 91l58 -58z"/>
<glyph unicode="Ù" glyph-name="Ugrave" horiz-adv-x="737" d="M522 764h-120l-152 144h163zM658 260q-11 -63 -36 -114.5t-65.5 -87.5t-96.5 -56t-129 -20q-64 0 -115.5 15.5t-88 44t-56 69.5t-19.5 92q0 14 1.5 30t3.5 31l78 444h165l-76 -429q-2 -10 -2.5 -21t-0.5 -20q0 -22 6.5 -42t20.5 -35.5t37 -24.5t55 -9q42 0 69.5 13.5 t45 35t26.5 48t14 53.5l77 431h164z"/>
<glyph unicode="Ú" glyph-name="Uacute" horiz-adv-x="737" d="M471 764h-122l129 144h163zM658 260q-11 -63 -36 -114.5t-65.5 -87.5t-96.5 -56t-129 -20q-64 0 -115.5 15.5t-88 44t-56 69.5t-19.5 92q0 14 1.5 30t3.5 31l78 444h165l-76 -429q-2 -10 -2.5 -21t-0.5 -20q0 -22 6.5 -42t20.5 -35.5t37 -24.5t55 -9q42 0 69.5 13.5 t45 35t26.5 48t14 53.5l77 431h164z"/>
<glyph unicode="Û" glyph-name="Ucircumflex" horiz-adv-x="737" d="M514 764l-55 82l-83 -82h-127l148 144h146l96 -144h-125zM658 260q-11 -63 -36 -114.5t-65.5 -87.5t-96.5 -56t-129 -20q-64 0 -115.5 15.5t-88 44t-56 69.5t-19.5 92q0 14 1.5 30t3.5 31l78 444h165l-76 -429q-2 -10 -2.5 -21t-0.5 -20q0 -22 6.5 -42t20.5 -35.5 t37 -24.5t55 -9q42 0 69.5 13.5t45 35t26.5 48t14 53.5l77 431h164z"/>
<glyph unicode="Ü" glyph-name="Udieresis" horiz-adv-x="737" d="M648 856q0 -35 -23.5 -60.5t-60.5 -25.5q-34 0 -56 20.5t-22 52.5q0 37 24.5 61.5t61.5 24.5q33 0 54.5 -20.5t21.5 -52.5zM429 856q0 -35 -23.5 -60.5t-60.5 -25.5q-35 0 -56.5 20.5t-21.5 52.5q0 37 24.5 61.5t60.5 24.5q34 0 55.5 -20.5t21.5 -52.5zM658 260 q-11 -63 -36 -114.5t-65.5 -87.5t-96.5 -56t-129 -20q-64 0 -115.5 15.5t-88 44t-56 69.5t-19.5 92q0 14 1.5 30t3.5 31l78 444h165l-76 -429q-2 -10 -2.5 -21t-0.5 -20q0 -22 6.5 -42t20.5 -35.5t37 -24.5t55 -9q42 0 69.5 13.5t45 35t26.5 48t14 53.5l77 431h164z"/>
<glyph unicode="Ý" glyph-name="Yacute" horiz-adv-x="613" d="M432 764h-122l129 144h163zM383 301l-54 -301h-166l53 301l-181 407h186l101 -268l203 268h202z"/>
<glyph unicode="Þ" glyph-name="Thorn" horiz-adv-x="637" d="M303 277q68 0 105.5 22.5t37.5 70.5q0 45 -31 62t-84 17h-68l-31 -172h71zM355 584q125 0 191 -52.5t66 -145.5q0 -61 -22 -106.5t-62.5 -75.5t-98 -44.5t-128.5 -14.5h-92l-26 -145h-165l125 708h165l-21 -124h68z"/>
<glyph unicode="ß" glyph-name="germandbls" horiz-adv-x="661" d="M317 -12q-22 0 -46.5 2.5t-47.5 8.5l22 125q11 -4 29 -6.5t32 -2.5q64 0 101.5 35t37.5 96q0 24 -9.5 42.5t-25.5 31t-37 19.5t-45 7h-11l21 125h13q19 0 38 5t34 16.5t24.5 29.5t9.5 44q0 32 -21.5 53t-58.5 21q-30 0 -50.5 -12.5t-34 -32.5t-21 -44t-11.5 -48l-89 -503 h-162l90 509q9 51 27.5 98t51.5 82.5t83.5 57t124.5 21.5q43 0 83.5 -11t72.5 -33t51.5 -56.5t19.5 -80.5q0 -36 -11 -65t-30 -50t-44 -34.5t-52 -20.5v-2q27 -7 51 -22.5t42 -37.5t28 -50.5t10 -61.5q0 -58 -20 -105t-57.5 -80.5t-91.5 -51.5t-121 -18z"/>
<glyph unicode="à" glyph-name="agrave" horiz-adv-x="559" d="M393 572h-120l-152 144h163zM326 218q-30 0 -61 -2.5t-55.5 -10.5t-40.5 -22t-16 -37q0 -30 20.5 -40.5t45.5 -10.5q46 0 77 28.5t39 70.5l5 24h-14zM503 352q0 -14 -1.5 -30t-4.5 -31l-34 -194q-5 -26 -7.5 -53t-2.5 -44h-142q0 11 1 25.5t3 27.5h-2q-55 -65 -152 -65 q-26 0 -53.5 6.5t-50 22t-36.5 41t-14 62.5q0 60 30 98t78.5 59t110 29t123.5 8q2 9 2 14v9q0 29 -20.5 42.5t-57.5 13.5q-34 0 -68.5 -13t-62.5 -34l-66 92q45 36 103.5 55.5t115.5 19.5q45 0 83 -9.5t65.5 -29.5t43.5 -50t16 -72z"/>
<glyph unicode="á" glyph-name="aacute" horiz-adv-x="559" d="M363 572h-122l129 144h163zM326 218q-30 0 -61 -2.5t-55.5 -10.5t-40.5 -22t-16 -37q0 -30 20.5 -40.5t45.5 -10.5q46 0 77 28.5t39 70.5l5 24h-14zM503 352q0 -14 -1.5 -30t-4.5 -31l-34 -194q-5 -26 -7.5 -53t-2.5 -44h-142q0 11 1 25.5t3 27.5h-2q-55 -65 -152 -65 q-26 0 -53.5 6.5t-50 22t-36.5 41t-14 62.5q0 60 30 98t78.5 59t110 29t123.5 8q2 9 2 14v9q0 29 -20.5 42.5t-57.5 13.5q-34 0 -68.5 -13t-62.5 -34l-66 92q45 36 103.5 55.5t115.5 19.5q45 0 83 -9.5t65.5 -29.5t43.5 -50t16 -72z"/>
<glyph unicode="â" glyph-name="acircumflex" horiz-adv-x="559" d="M392 572l-55 82l-83 -82h-127l148 144h146l96 -144h-125zM326 218q-30 0 -61 -2.5t-55.5 -10.5t-40.5 -22t-16 -37q0 -30 20.5 -40.5t45.5 -10.5q46 0 77 28.5t39 70.5l5 24h-14zM503 352q0 -14 -1.5 -30t-4.5 -31l-34 -194q-5 -26 -7.5 -53t-2.5 -44h-142q0 11 1 25.5 t3 27.5h-2q-55 -65 -152 -65q-26 0 -53.5 6.5t-50 22t-36.5 41t-14 62.5q0 60 30 98t78.5 59t110 29t123.5 8q2 9 2 14v9q0 29 -20.5 42.5t-57.5 13.5q-34 0 -68.5 -13t-62.5 -34l-66 92q45 36 103.5 55.5t115.5 19.5q45 0 83 -9.5t65.5 -29.5t43.5 -50t16 -72z"/>
<glyph unicode="ã" glyph-name="atilde" horiz-adv-x="559" d="M529 708q-8 -26 -20 -50t-29 -42t-38.5 -28.5t-48.5 -10.5q-37 0 -72 19q-20 11 -35 16.5t-30 5.5q-18 0 -30 -12.5t-20 -29.5h-71q7 26 19 49.5t29 41t39 28t49 10.5q21 0 39.5 -5.5t36.5 -14.5q19 -10 33.5 -15t28.5 -5q19 0 30 12.5t19 30.5h71zM326 218 q-30 0 -61 -2.5t-55.5 -10.5t-40.5 -22t-16 -37q0 -30 20.5 -40.5t45.5 -10.5q46 0 77 28.5t39 70.5l5 24h-14zM503 352q0 -14 -1.5 -30t-4.5 -31l-34 -194q-5 -26 -7.5 -53t-2.5 -44h-142q0 11 1 25.5t3 27.5h-2q-55 -65 -152 -65q-26 0 -53.5 6.5t-50 22t-36.5 41 t-14 62.5q0 60 30 98t78.5 59t110 29t123.5 8q2 9 2 14v9q0 29 -20.5 42.5t-57.5 13.5q-34 0 -68.5 -13t-62.5 -34l-66 92q45 36 103.5 55.5t115.5 19.5q45 0 83 -9.5t65.5 -29.5t43.5 -50t16 -72z"/>
<glyph unicode="ä" glyph-name="adieresis" horiz-adv-x="559" d="M527 664q0 -35 -23.5 -60.5t-60.5 -25.5q-34 0 -56 20.5t-22 52.5q0 37 24.5 61.5t61.5 24.5q33 0 54.5 -20.5t21.5 -52.5zM308 664q0 -35 -23.5 -60.5t-60.5 -25.5q-35 0 -56.5 20.5t-21.5 52.5q0 37 24.5 61.5t60.5 24.5q34 0 55.5 -20.5t21.5 -52.5zM326 218 q-30 0 -61 -2.5t-55.5 -10.5t-40.5 -22t-16 -37q0 -30 20.5 -40.5t45.5 -10.5q46 0 77 28.5t39 70.5l5 24h-14zM503 352q0 -14 -1.5 -30t-4.5 -31l-34 -194q-5 -26 -7.5 -53t-2.5 -44h-142q0 11 1 25.5t3 27.5h-2q-55 -65 -152 -65q-26 0 -53.5 6.5t-50 22t-36.5 41 t-14 62.5q0 60 30 98t78.5 59t110 29t123.5 8q2 9 2 14v9q0 29 -20.5 42.5t-57.5 13.5q-34 0 -68.5 -13t-62.5 -34l-66 92q45 36 103.5 55.5t115.5 19.5q45 0 83 -9.5t65.5 -29.5t43.5 -50t16 -72z"/>
<glyph unicode="å" glyph-name="aring" horiz-adv-x="559" d="M392 674q0 20 -13 35t-36 15q-29 0 -47 -21t-18 -51q0 -21 12.5 -35.5t35.5 -14.5q29 0 47.5 21t18.5 51zM322 557q-42 0 -67.5 25.5t-25.5 63.5q0 25 9 47.5t24.5 39.5t37.5 26.5t48 9.5q42 0 67.5 -25t25.5 -63q0 -26 -9 -48.5t-24.5 -39.5t-37.5 -26.5t-48 -9.5z M326 218q-30 0 -61 -2.5t-55.5 -10.5t-40.5 -22t-16 -37q0 -30 20.5 -40.5t45.5 -10.5q46 0 77 28.5t39 70.5l5 24h-14zM503 352q0 -14 -1.5 -30t-4.5 -31l-34 -194q-5 -26 -7.5 -53t-2.5 -44h-142q0 11 1 25.5t3 27.5h-2q-55 -65 -152 -65q-26 0 -53.5 6.5t-50 22t-36.5 41 t-14 62.5q0 60 30 98t78.5 59t110 29t123.5 8q2 9 2 14v9q0 29 -20.5 42.5t-57.5 13.5q-34 0 -68.5 -13t-62.5 -34l-66 92q45 36 103.5 55.5t115.5 19.5q45 0 83 -9.5t65.5 -29.5t43.5 -50t16 -72z"/>
<glyph unicode="æ" glyph-name="ae" horiz-adv-x="897" d="M315 208q-36 0 -66 -3t-51.5 -10t-34 -19t-12.5 -31q0 -14 5.5 -23.5t15 -15t21.5 -8t25 -2.5q51 0 81 25.5t38 69.5l3 17h-25zM708 324q0 33 -24 55t-67 22q-27 0 -48.5 -9.5t-37.5 -23.5t-26 -31t-14 -33h216q1 5 1 10v10zM849 303q0 -18 -3 -45.5t-9 -51.5h-357 q-1 -4 -1 -9q0 -21 9.5 -37.5t24.5 -28t35 -17.5t41 -6q38 0 67 14t52 38l100 -79q-48 -51 -106.5 -73.5t-126.5 -22.5q-61 0 -112.5 22t-75.5 69q-24 -35 -72.5 -61.5t-127.5 -26.5q-32 0 -64.5 6.5t-59 22t-43 41t-16.5 64.5q0 59 30 95t78.5 55.5t110.5 25.5t127 6 q2 9 3 18.5t1 13.5q0 32 -22 44.5t-56 12.5t-68.5 -13t-61.5 -34l-67 92q45 36 103.5 55.5t115.5 19.5q70 0 106.5 -20.5t50.5 -53.5q26 31 70 52.5t105 21.5q49 0 89 -14t69 -40.5t45 -65.5t16 -90z"/>
<glyph unicode="ç" glyph-name="ccedilla" horiz-adv-x="500" d="M344 -135q0 -30 -14 -50t-36.5 -32t-49.5 -17.5t-52 -5.5q-31 0 -65 7t-55 18l32 59q17 -9 39 -13.5t42 -4.5q9 0 18.5 1t17.5 5t13.5 10t5.5 17q0 18 -13.5 23.5t-28.5 5.5q-9 0 -20 -1.5t-21 -4.5l-25 29l73 80q-42 7 -76.5 25.5t-58.5 46t-37 63.5t-13 79 q0 61 22 116.5t62 98t96.5 68t125.5 25.5q57 0 106.5 -19t77.5 -58l-101 -96q-11 17 -34.5 30t-52.5 13q-32 0 -59 -12.5t-46.5 -34.5t-30.5 -50.5t-11 -59.5q0 -21 6.5 -40.5t19.5 -34t33.5 -23.5t48.5 -9q36 0 61 13t43 32l76 -102q-36 -32 -80.5 -52t-101.5 -23l-45 -48 q6 2 10 2h9q13 0 28.5 -3.5t29 -12.5t22.5 -23.5t9 -36.5z"/>
<glyph unicode="è" glyph-name="egrave" d="M397 572h-120l-152 144h163zM397 304q1 5 1 10v10q0 33 -23.5 55t-67.5 22q-27 0 -48.5 -9.5t-37.5 -23.5t-26 -31t-14 -33h216zM170 206q-1 -4 -1 -9q0 -21 9.5 -37.5t25 -28t35 -17.5t40.5 -6q38 0 67 14t52 38l101 -79q-48 -51 -107 -73.5t-127 -22.5 q-52 0 -96.5 14.5t-77.5 43t-52 70.5t-19 96q0 64 22.5 119.5t62 96.5t94.5 64.5t121 23.5q49 0 89.5 -14t69.5 -40.5t45 -65.5t16 -90q0 -18 -3.5 -45.5t-9.5 -51.5h-357z"/>
<glyph unicode="é" glyph-name="eacute" d="M366 572h-122l129 144h163zM397 304q1 5 1 10v10q0 33 -23.5 55t-67.5 22q-27 0 -48.5 -9.5t-37.5 -23.5t-26 -31t-14 -33h216zM170 206q-1 -4 -1 -9q0 -21 9.5 -37.5t25 -28t35 -17.5t40.5 -6q38 0 67 14t52 38l101 -79q-48 -51 -107 -73.5t-127 -22.5q-52 0 -96.5 14.5 t-77.5 43t-52 70.5t-19 96q0 64 22.5 119.5t62 96.5t94.5 64.5t121 23.5q49 0 89.5 -14t69.5 -40.5t45 -65.5t16 -90q0 -18 -3.5 -45.5t-9.5 -51.5h-357z"/>
<glyph unicode="ê" glyph-name="ecircumflex" d="M415 572l-55 82l-83 -82h-127l148 144h146l96 -144h-125zM397 304q1 5 1 10v10q0 33 -23.5 55t-67.5 22q-27 0 -48.5 -9.5t-37.5 -23.5t-26 -31t-14 -33h216zM170 206q-1 -4 -1 -9q0 -21 9.5 -37.5t25 -28t35 -17.5t40.5 -6q38 0 67 14t52 38l101 -79q-48 -51 -107 -73.5 t-127 -22.5q-52 0 -96.5 14.5t-77.5 43t-52 70.5t-19 96q0 64 22.5 119.5t62 96.5t94.5 64.5t121 23.5q49 0 89.5 -14t69.5 -40.5t45 -65.5t16 -90q0 -18 -3.5 -45.5t-9.5 -51.5h-357z"/>
<glyph unicode="ë" glyph-name="edieresis" d="M548 664q0 -35 -23.5 -60.5t-60.5 -25.5q-34 0 -56 20.5t-22 52.5q0 37 24.5 61.5t61.5 24.5q33 0 54.5 -20.5t21.5 -52.5zM329 664q0 -35 -23.5 -60.5t-60.5 -25.5q-35 0 -56.5 20.5t-21.5 52.5q0 37 24.5 61.5t60.5 24.5q34 0 55.5 -20.5t21.5 -52.5zM397 304q1 5 1 10 v10q0 33 -23.5 55t-67.5 22q-27 0 -48.5 -9.5t-37.5 -23.5t-26 -31t-14 -33h216zM170 206q-1 -4 -1 -9q0 -21 9.5 -37.5t25 -28t35 -17.5t40.5 -6q38 0 67 14t52 38l101 -79q-48 -51 -107 -73.5t-127 -22.5q-52 0 -96.5 14.5t-77.5 43t-52 70.5t-19 96q0 64 22.5 119.5 t62 96.5t94.5 64.5t121 23.5q49 0 89.5 -14t69.5 -40.5t45 -65.5t16 -90q0 -18 -3.5 -45.5t-9.5 -51.5h-357z"/>
<glyph unicode="ì" glyph-name="igrave" horiz-adv-x="294" d="M261 572h-120l-152 144h163zM11 0l87 498h161l-89 -498h-159z"/>
<glyph unicode="í" glyph-name="iacute" horiz-adv-x="294" d="M229 572h-122l129 144h163zM11 0l87 498h161l-89 -498h-159z"/>
<glyph unicode="î" glyph-name="icircumflex" horiz-adv-x="294" d="M264 572l-55 82l-83 -82h-127l148 144h146l96 -144h-125zM11 0l87 498h161l-89 -498h-159z"/>
<glyph unicode="ï" glyph-name="idieresis" horiz-adv-x="294" d="M391 664q0 -35 -23.5 -60.5t-60.5 -25.5q-34 0 -56 20.5t-22 52.5q0 37 24.5 61.5t61.5 24.5q33 0 54.5 -20.5t21.5 -52.5zM172 664q0 -35 -23.5 -60.5t-60.5 -25.5q-35 0 -56.5 20.5t-21.5 52.5q0 37 24.5 61.5t60.5 24.5q34 0 55.5 -20.5t21.5 -52.5zM11 0l87 498h161 l-89 -498h-159z"/>
<glyph unicode="ð" glyph-name="eth" horiz-adv-x="626" d="M422 277q0 45 -27.5 75t-77.5 30q-32 0 -58 -13t-44 -35t-28 -51t-10 -61q0 -45 27 -74.5t77 -29.5q32 0 58 12.5t44.5 34.5t28.5 51t10 61zM582 316q0 -65 -19 -124.5t-57.5 -105.5t-96.5 -73t-136 -27q-54 0 -100.5 15t-80 43.5t-53 69t-19.5 91.5q0 60 19.5 115 t57.5 97t93.5 67t127.5 25q24 0 46 -5t37 -16l2 2q-14 28 -32.5 57.5t-43.5 52.5l-116 -48l-67 70l117 47q-10 12 -28 28.5t-36 30.5l139 69q23 -20 41.5 -39t29.5 -32l119 49l74 -71l-130 -52q51 -63 81.5 -148t30.5 -188z"/>
<glyph unicode="ñ" glyph-name="ntilde" horiz-adv-x="615" d="M553 708q-8 -26 -20 -50t-29 -42t-38.5 -28.5t-48.5 -10.5q-37 0 -72 19q-20 11 -35 16.5t-30 5.5q-18 0 -30 -12.5t-20 -29.5h-71q7 26 19 49.5t29 41t39 28t49 10.5q21 0 39.5 -5.5t36.5 -14.5q19 -10 33.5 -15t28.5 -5q19 0 30 12.5t19 30.5h71zM241 426q24 37 64 61 t92 24q42 0 72 -12t49.5 -33t28.5 -48.5t9 -57.5q0 -14 -1 -27.5t-4 -26.5l-54 -306h-160l47 270q5 23 5 42q0 28 -14.5 47.5t-51.5 19.5q-22 0 -39.5 -8.5t-31 -23.5t-22 -35t-12.5 -42l-48 -270h-160l69 395q4 19 8.5 49t6.5 54h153q-1 -12 -3.5 -34t-4.5 -38h2z"/>
<glyph unicode="ò" glyph-name="ograve" horiz-adv-x="626" d="M435 572h-120l-152 144h163zM422 277q0 45 -27.5 75t-77.5 30q-32 0 -58 -13t-44 -35t-28 -51t-10 -61q0 -45 27 -74.5t77 -29.5q32 0 58 12.5t44.5 34.5t28.5 51t10 61zM273 -14q-54 0 -100.5 15t-80 43.5t-53 69t-19.5 91.5q0 62 21 118t60.5 98t95.5 67t127 25 q55 0 102 -15t81 -43.5t53.5 -69t19.5 -91.5q0 -63 -21 -119t-61 -98t-96.5 -66.5t-128.5 -24.5z"/>
<glyph unicode="ó" glyph-name="oacute" horiz-adv-x="626" d="M373 572h-122l129 144h163zM422 277q0 45 -27.5 75t-77.5 30q-32 0 -58 -13t-44 -35t-28 -51t-10 -61q0 -45 27 -74.5t77 -29.5q32 0 58 12.5t44.5 34.5t28.5 51t10 61zM273 -14q-54 0 -100.5 15t-80 43.5t-53 69t-19.5 91.5q0 62 21 118t60.5 98t95.5 67t127 25 q55 0 102 -15t81 -43.5t53.5 -69t19.5 -91.5q0 -63 -21 -119t-61 -98t-96.5 -66.5t-128.5 -24.5z"/>
<glyph unicode="ô" glyph-name="ocircumflex" horiz-adv-x="626" d="M429 572l-55 82l-83 -82h-127l148 144h146l96 -144h-125zM422 277q0 45 -27.5 75t-77.5 30q-32 0 -58 -13t-44 -35t-28 -51t-10 -61q0 -45 27 -74.5t77 -29.5q32 0 58 12.5t44.5 34.5t28.5 51t10 61zM273 -14q-54 0 -100.5 15t-80 43.5t-53 69t-19.5 91.5q0 62 21 118 t60.5 98t95.5 67t127 25q55 0 102 -15t81 -43.5t53.5 -69t19.5 -91.5q0 -63 -21 -119t-61 -98t-96.5 -66.5t-128.5 -24.5z"/>
<glyph unicode="õ" glyph-name="otilde" horiz-adv-x="626" d="M560 708q-8 -26 -20 -50t-29 -42t-38.5 -28.5t-48.5 -10.5q-37 0 -72 19q-20 11 -35 16.5t-30 5.5q-18 0 -30 -12.5t-20 -29.5h-71q7 26 19 49.5t29 41t39 28t49 10.5q21 0 39.5 -5.5t36.5 -14.5q19 -10 33.5 -15t28.5 -5q19 0 30 12.5t19 30.5h71zM422 277 q0 45 -27.5 75t-77.5 30q-32 0 -58 -13t-44 -35t-28 -51t-10 -61q0 -45 27 -74.5t77 -29.5q32 0 58 12.5t44.5 34.5t28.5 51t10 61zM273 -14q-54 0 -100.5 15t-80 43.5t-53 69t-19.5 91.5q0 62 21 118t60.5 98t95.5 67t127 25q55 0 102 -15t81 -43.5t53.5 -69t19.5 -91.5 q0 -63 -21 -119t-61 -98t-96.5 -66.5t-128.5 -24.5z"/>
<glyph unicode="ö" glyph-name="odieresis" horiz-adv-x="626" d="M558 664q0 -35 -23.5 -60.5t-60.5 -25.5q-34 0 -56 20.5t-22 52.5q0 37 24.5 61.5t61.5 24.5q33 0 54.5 -20.5t21.5 -52.5zM339 664q0 -35 -23.5 -60.5t-60.5 -25.5q-35 0 -56.5 20.5t-21.5 52.5q0 37 24.5 61.5t60.5 24.5q34 0 55.5 -20.5t21.5 -52.5zM422 277 q0 45 -27.5 75t-77.5 30q-32 0 -58 -13t-44 -35t-28 -51t-10 -61q0 -45 27 -74.5t77 -29.5q32 0 58 12.5t44.5 34.5t28.5 51t10 61zM273 -14q-54 0 -100.5 15t-80 43.5t-53 69t-19.5 91.5q0 62 21 118t60.5 98t95.5 67t127 25q55 0 102 -15t81 -43.5t53.5 -69t19.5 -91.5 q0 -63 -21 -119t-61 -98t-96.5 -66.5t-128.5 -24.5z"/>
<glyph unicode="÷" glyph-name="divide" horiz-adv-x="666" d="M79 240v127h507v-127h-507zM246 117q0 17 7 32.5t19 27t27.5 18t33.5 6.5t33.5 -6.5t27 -18t18.5 -27t7 -32.5t-7 -32.5t-18.5 -27t-27 -18.5t-33.5 -7t-33.5 7t-27.5 18.5t-19 27t-7 32.5zM246 489q0 17 7 32.5t19 27t27.5 18t33.5 6.5t33.5 -6.5t27 -18t18.5 -27 t7 -32.5q0 -18 -7 -33.5t-18.5 -27t-27 -18t-33.5 -6.5t-33.5 6.5t-27.5 18t-19 27t-7 33.5z"/>
<glyph unicode="ø" glyph-name="oslash" horiz-adv-x="626" d="M424 271q0 22 -6 37l-199 -171q11 -10 27.5 -16t36.5 -6q33 0 59.5 13t44.5 34.5t27.5 49.5t9.5 59zM378 366q-24 19 -61 19q-33 0 -59.5 -13t-44.5 -34.5t-28 -49.5t-10 -58q0 -9 1 -18.5t4 -17.5zM544 411q36 -50 36 -117q0 -63 -21 -119t-61 -98t-96.5 -66.5 t-128.5 -24.5q-48 0 -90.5 12.5t-74.5 36.5l-85 -73l-47 58l80 68q-17 24 -26.5 55t-9.5 64q0 60 21 115.5t60.5 98t95.5 67.5t127 25q51 0 93 -13t74 -36l81 69l49 -56z"/>
<glyph unicode="ù" glyph-name="ugrave" horiz-adv-x="614" d="M401 572h-120l-152 144h163zM342 72q-23 -36 -63.5 -60.5t-92.5 -24.5q-41 0 -71 12.5t-49.5 33.5t-28.5 48.5t-9 57.5q0 13 1 26.5t4 27.5l53 305h161l-48 -270q-2 -11 -3 -21.5t-1 -20.5q0 -27 14.5 -47t51.5 -20q22 0 39.5 9t30.5 24t22 35t13 42l48 269h160l-70 -395 q-4 -19 -8.5 -49t-6.5 -54h-152q1 12 3.5 34.5t4.5 37.5h-3z"/>
<glyph unicode="ú" glyph-name="uacute" horiz-adv-x="614" d="M375 572h-122l129 144h163zM342 72q-23 -36 -63.5 -60.5t-92.5 -24.5q-41 0 -71 12.5t-49.5 33.5t-28.5 48.5t-9 57.5q0 13 1 26.5t4 27.5l53 305h161l-48 -270q-2 -11 -3 -21.5t-1 -20.5q0 -27 14.5 -47t51.5 -20q22 0 39.5 9t30.5 24t22 35t13 42l48 269h160l-70 -395 q-4 -19 -8.5 -49t-6.5 -54h-152q1 12 3.5 34.5t4.5 37.5h-3z"/>
<glyph unicode="û" glyph-name="ucircumflex" horiz-adv-x="614" d="M413 572l-55 82l-83 -82h-127l148 144h146l96 -144h-125zM342 72q-23 -36 -63.5 -60.5t-92.5 -24.5q-41 0 -71 12.5t-49.5 33.5t-28.5 48.5t-9 57.5q0 13 1 26.5t4 27.5l53 305h161l-48 -270q-2 -11 -3 -21.5t-1 -20.5q0 -27 14.5 -47t51.5 -20q22 0 39.5 9t30.5 24 t22 35t13 42l48 269h160l-70 -395q-4 -19 -8.5 -49t-6.5 -54h-152q1 12 3.5 34.5t4.5 37.5h-3z"/>
<glyph unicode="ü" glyph-name="udieresis" horiz-adv-x="614" d="M545 664q0 -35 -23.5 -60.5t-60.5 -25.5q-34 0 -56 20.5t-22 52.5q0 37 24.5 61.5t61.5 24.5q33 0 54.5 -20.5t21.5 -52.5zM326 664q0 -35 -23.5 -60.5t-60.5 -25.5q-35 0 -56.5 20.5t-21.5 52.5q0 37 24.5 61.5t60.5 24.5q34 0 55.5 -20.5t21.5 -52.5zM342 72 q-23 -36 -63.5 -60.5t-92.5 -24.5q-41 0 -71 12.5t-49.5 33.5t-28.5 48.5t-9 57.5q0 13 1 26.5t4 27.5l53 305h161l-48 -270q-2 -11 -3 -21.5t-1 -20.5q0 -27 14.5 -47t51.5 -20q22 0 39.5 9t30.5 24t22 35t13 42l48 269h160l-70 -395q-4 -19 -8.5 -49t-6.5 -54h-152 q1 12 3.5 34.5t4.5 37.5h-3z"/>
<glyph unicode="ý" glyph-name="yacute" horiz-adv-x="556" d="M370 572h-122l129 144h163zM268 -75q-22 -39 -43.5 -70t-47 -52t-58.5 -32t-77 -11q-47 0 -82 11l24 132q22 -9 47 -9q35 0 54.5 17.5t37.5 49.5l24 41l-115 496h175l50 -326h2l165 326h170z"/>
<glyph unicode="þ" glyph-name="thorn" horiz-adv-x="659" d="M451 275q0 45 -26 75.5t-76 30.5q-30 0 -56 -13t-45 -35t-30 -51t-11 -61q0 -46 28 -75.5t77 -29.5q32 0 57.5 12.5t43.5 34t28 50.5t10 62zM611 296q0 -64 -20.5 -120.5t-57.5 -98.5t-87.5 -66.5t-110.5 -24.5q-55 0 -95 20.5t-60 55.5h-2l-52 -302h-160l176 996h160 l-58 -322h2q26 35 68 55.5t90 20.5t86.5 -16t65.5 -44.5t41 -68t14 -85.5z"/>
<glyph unicode="ÿ" glyph-name="ydieresis" horiz-adv-x="556" d="M528 664q0 -35 -23.5 -60.5t-60.5 -25.5q-34 0 -56 20.5t-22 52.5q0 37 24.5 61.5t61.5 24.5q33 0 54.5 -20.5t21.5 -52.5zM309 664q0 -35 -23.5 -60.5t-60.5 -25.5q-35 0 -56.5 20.5t-21.5 52.5q0 37 24.5 61.5t60.5 24.5q34 0 55.5 -20.5t21.5 -52.5zM268 -75 q-22 -39 -43.5 -70t-47 -52t-58.5 -32t-77 -11q-47 0 -82 11l24 132q22 -9 47 -9q35 0 54.5 17.5t37.5 49.5l24 41l-115 496h175l50 -326h2l165 326h170z"/>
<glyph unicode="Ā" glyph-name="Amacron" horiz-adv-x="710" d="M292 793l14 84h334l-15 -84h-333zM411 526l-148 -251h185zM489 0l-24 141h-273l-85 -141h-190l451 708h162l134 -708h-175z"/>
<glyph unicode="ā" glyph-name="amacron" horiz-adv-x="559" d="M158 601l14 84h334l-15 -84h-333zM326 218q-30 0 -61 -2.5t-55.5 -10.5t-40.5 -22t-16 -37q0 -30 20.5 -40.5t45.5 -10.5q46 0 77 28.5t39 70.5l5 24h-14zM503 352q0 -14 -1.5 -30t-4.5 -31l-34 -194q-5 -26 -7.5 -53t-2.5 -44h-142q0 11 1 25.5t3 27.5h-2 q-55 -65 -152 -65q-26 0 -53.5 6.5t-50 22t-36.5 41t-14 62.5q0 60 30 98t78.5 59t110 29t123.5 8q2 9 2 14v9q0 29 -20.5 42.5t-57.5 13.5q-34 0 -68.5 -13t-62.5 -34l-66 92q45 36 103.5 55.5t115.5 19.5q45 0 83 -9.5t65.5 -29.5t43.5 -50t16 -72z"/>
<glyph unicode="Ă" glyph-name="Abreve" horiz-adv-x="710" d="M642 908q-9 -39 -27 -66t-42.5 -44.5t-55 -25.5t-64.5 -8q-35 0 -63.5 7.5t-49.5 25t-32.5 45t-11.5 66.5h82q0 -32 24.5 -44.5t55.5 -12.5q36 0 64 11t38 46h82zM411 526l-148 -251h185zM489 0l-24 141h-273l-85 -141h-190l451 708h162l134 -708h-175z"/>
<glyph unicode="ă" glyph-name="abreve" horiz-adv-x="559" d="M505 716q-9 -39 -27 -66t-42.5 -44.5t-55 -25.5t-64.5 -8q-35 0 -63.5 7.5t-49.5 25t-32.5 45t-11.5 66.5h82q0 -16 7 -27t18 -18q11 -6 25.5 -9t29.5 -3q36 0 64 11t38 46h82zM326 218q-30 0 -61 -2.5t-55.5 -10.5t-40.5 -22t-16 -37q0 -30 20.5 -40.5t45.5 -10.5 q46 0 77 28.5t39 70.5l5 24h-14zM503 352q0 -14 -1.5 -30t-4.5 -31l-34 -194q-5 -26 -7.5 -53t-2.5 -44h-142q0 11 1 25.5t3 27.5h-2q-55 -65 -152 -65q-26 0 -53.5 6.5t-50 22t-36.5 41t-14 62.5q0 60 30 98t78.5 59t110 29t123.5 8q2 9 2 14v9q0 29 -20.5 42.5t-57.5 13.5 q-34 0 -68.5 -13t-62.5 -34l-66 92q45 36 103.5 55.5t115.5 19.5q45 0 83 -9.5t65.5 -29.5t43.5 -50t16 -72z"/>
<glyph unicode="Ą" glyph-name="Aogonek" horiz-adv-x="710" d="M411 526l-148 -251h185zM578 -196q-26 -18 -56 -29t-63 -11q-40 0 -68 18.5t-28 64.5q0 23 11.5 44.5t30 41t41 36.5t43.5 31l-24 141h-273l-85 -141h-190l451 708h162l134 -708h-87q-46 -33 -78 -65.5t-32 -61.5q0 -14 9 -20.5t24 -6.5q28 0 57 19z"/>
<glyph unicode="ą" glyph-name="aogonek" horiz-adv-x="559" d="M326 218q-30 0 -61 -2.5t-55.5 -10.5t-40.5 -22t-16 -37q0 -30 20.5 -40.5t45.5 -10.5q46 0 77 28.5t39 70.5l5 24h-14zM398 -196q-26 -18 -56 -29t-63 -11q-40 0 -68 18.5t-28 64.5q0 24 12 45.5t30.5 41t41.5 37t44 31.5q0 11 1 24.5t3 26.5h-2q-55 -65 -152 -65 q-26 0 -53.5 6.5t-50 22t-36.5 41t-14 62.5q0 60 30 98t78.5 59t110 29t123.5 8q2 9 2 14v9q0 29 -20.5 42.5t-57.5 13.5q-34 0 -68.5 -13t-62.5 -34l-66 92q45 36 103.5 55.5t115.5 19.5q45 0 83 -9.5t65.5 -29.5t43.5 -50t16 -72q0 -14 -1.5 -30t-4.5 -31l-34 -194 q-5 -26 -7.5 -53t-2.5 -44h-56q-46 -33 -78 -65.5t-32 -61.5q0 -14 9 -20.5t24 -6.5q28 0 57 19z"/>
<glyph unicode="Ć" glyph-name="Cacute" horiz-adv-x="684" d="M504 764h-122l129 144h163zM649 99q-21 -23 -48.5 -44.5t-63 -38t-78 -26t-93.5 -9.5q-75 0 -135 22t-102 62.5t-65 97.5t-23 126q0 91 32 171t88.5 139.5t133.5 93.5t167 34q84 0 151 -29.5t101 -75.5l-123 -110q-17 26 -50.5 46t-83.5 20q-53 0 -96.5 -22.5t-75 -60 t-49 -86t-17.5 -100.5q0 -36 11.5 -68.5t33.5 -56.5t54.5 -38t74.5 -14q47 0 89 20t74 57z"/>
<glyph unicode="ć" glyph-name="cacute" horiz-adv-x="500" d="M367 572h-122l129 144h163zM409 340q-11 17 -34.5 30t-52.5 13q-32 0 -59 -12.5t-46.5 -34.5t-30.5 -50.5t-11 -59.5q0 -21 6.5 -40.5t19.5 -34t33.5 -23.5t48.5 -9q36 0 61 13t43 32l76 -102q-39 -35 -88 -55.5t-113 -20.5q-54 0 -99 15.5t-76.5 44.5t-49 69t-17.5 90 q0 61 22 116.5t62 98t96.5 68t125.5 25.5q57 0 106.5 -19t77.5 -58z"/>
<glyph unicode="Ĉ" glyph-name="Ccircumflex" horiz-adv-x="684" d="M557 764l-55 82l-83 -82h-127l148 144h146l96 -144h-125zM649 99q-21 -23 -48.5 -44.5t-63 -38t-78 -26t-93.5 -9.5q-75 0 -135 22t-102 62.5t-65 97.5t-23 126q0 91 32 171t88.5 139.5t133.5 93.5t167 34q84 0 151 -29.5t101 -75.5l-123 -110q-17 26 -50.5 46t-83.5 20 q-53 0 -96.5 -22.5t-75 -60t-49 -86t-17.5 -100.5q0 -36 11.5 -68.5t33.5 -56.5t54.5 -38t74.5 -14q47 0 89 20t74 57z"/>
<glyph unicode="ĉ" glyph-name="ccircumflex" horiz-adv-x="500" d="M416 572l-55 82l-83 -82h-127l148 144h146l96 -144h-125zM409 340q-11 17 -34.5 30t-52.5 13q-32 0 -59 -12.5t-46.5 -34.5t-30.5 -50.5t-11 -59.5q0 -21 6.5 -40.5t19.5 -34t33.5 -23.5t48.5 -9q36 0 61 13t43 32l76 -102q-39 -35 -88 -55.5t-113 -20.5q-54 0 -99 15.5 t-76.5 44.5t-49 69t-17.5 90q0 61 22 116.5t62 98t96.5 68t125.5 25.5q57 0 106.5 -19t77.5 -58z"/>
<glyph unicode="Ċ" glyph-name="Cdotaccent" horiz-adv-x="684" d="M576 856q0 -18 -6.5 -34.5t-18.5 -29t-28 -19.5t-35 -7q-35 0 -58.5 21t-23.5 55q0 19 7 35.5t19 28.5t28.5 19t35.5 7q35 0 57.5 -22t22.5 -54zM649 99q-21 -23 -48.5 -44.5t-63 -38t-78 -26t-93.5 -9.5q-75 0 -135 22t-102 62.5t-65 97.5t-23 126q0 91 32 171 t88.5 139.5t133.5 93.5t167 34q84 0 151 -29.5t101 -75.5l-123 -110q-17 26 -50.5 46t-83.5 20q-53 0 -96.5 -22.5t-75 -60t-49 -86t-17.5 -100.5q0 -36 11.5 -68.5t33.5 -56.5t54.5 -38t74.5 -14q47 0 89 20t74 57z"/>
<glyph unicode="ċ" glyph-name="cdotaccent" horiz-adv-x="500" d="M439 664q0 -18 -6.5 -34.5t-18.5 -29t-28 -19.5t-35 -7q-35 0 -58.5 21t-23.5 55q0 19 7 35.5t19 28.5t28.5 19t35.5 7q35 0 57.5 -22t22.5 -54zM409 340q-11 17 -34.5 30t-52.5 13q-32 0 -59 -12.5t-46.5 -34.5t-30.5 -50.5t-11 -59.5q0 -21 6.5 -40.5t19.5 -34 t33.5 -23.5t48.5 -9q36 0 61 13t43 32l76 -102q-39 -35 -88 -55.5t-113 -20.5q-54 0 -99 15.5t-76.5 44.5t-49 69t-17.5 90q0 61 22 116.5t62 98t96.5 68t125.5 25.5q57 0 106.5 -19t77.5 -58z"/>
<glyph unicode="Č" glyph-name="Ccaron" horiz-adv-x="684" d="M552 764h-145l-98 144h126l54 -83l83 83h127zM649 99q-21 -23 -48.5 -44.5t-63 -38t-78 -26t-93.5 -9.5q-75 0 -135 22t-102 62.5t-65 97.5t-23 126q0 91 32 171t88.5 139.5t133.5 93.5t167 34q84 0 151 -29.5t101 -75.5l-123 -110q-17 26 -50.5 46t-83.5 20 q-53 0 -96.5 -22.5t-75 -60t-49 -86t-17.5 -100.5q0 -36 11.5 -68.5t33.5 -56.5t54.5 -38t74.5 -14q47 0 89 20t74 57z"/>
<glyph unicode="č" glyph-name="ccaron" horiz-adv-x="500" d="M410 572h-145l-98 144h126l54 -83l83 83h127zM409 340q-11 17 -34.5 30t-52.5 13q-32 0 -59 -12.5t-46.5 -34.5t-30.5 -50.5t-11 -59.5q0 -21 6.5 -40.5t19.5 -34t33.5 -23.5t48.5 -9q36 0 61 13t43 32l76 -102q-39 -35 -88 -55.5t-113 -20.5q-54 0 -99 15.5t-76.5 44.5 t-49 69t-17.5 90q0 61 22 116.5t62 98t96.5 68t125.5 25.5q57 0 106.5 -19t77.5 -58z"/>
<glyph unicode="Ď" glyph-name="Dcaron" horiz-adv-x="769" d="M492 764h-145l-98 144h126l54 -83l83 83h127zM207 144h107q62 0 109.5 20.5t79 55t47.5 79t16 91.5q0 36 -11.5 68.5t-35.5 56.5t-60.5 38t-86.5 14h-91zM143 708h262q60 0 119.5 -16.5t107 -52.5t77.5 -92.5t30 -136.5q0 -93 -32.5 -169t-90.5 -129.5t-137 -82.5 t-172 -29h-289z"/>
<glyph unicode="ď" glyph-name="dcaron" horiz-adv-x="656" d="M773 513h-123l111 195h142zM179 223q0 -45 26 -75t77 -30q30 0 56 12.5t45 34.5t29.5 51t10.5 61q0 46 -28 75.5t-76 29.5q-32 0 -58 -12.5t-44 -34t-28 -50.5t-10 -62zM507 756h160l-134 -756h-147l12 68h-3q-26 -38 -70 -59t-99 -21q-48 0 -86.5 16t-65 44.5 t-40.5 67.5t-14 86q0 64 20.5 120t57 98t87 66.5t110.5 24.5q55 0 95 -21t60 -56h2z"/>
<glyph unicode="Đ" glyph-name="Dcroat" horiz-adv-x="769" d="M426 416l-19 -107h-171l-29 -165h107q62 0 109.5 20.5t79 55t47.5 79t16 91.5q0 36 -11.5 68.5t-35.5 56.5t-60.5 38t-86.5 14h-91l-26 -151h171zM15 309l19 107h57l52 292h262q60 0 119.5 -16.5t107 -52.5t77.5 -92.5t30 -136.5q0 -93 -32.5 -169t-90.5 -129.5 t-137 -82.5t-172 -29h-289l54 309h-57z"/>
<glyph unicode="đ" glyph-name="dcroat" horiz-adv-x="656" d="M179 223q0 -45 26 -75t77 -30q30 0 56 12.5t45 34.5t29.5 51t10.5 61q0 46 -28 75.5t-76 29.5q-32 0 -58 -12.5t-44 -34t-28 -50.5t-10 -62zM634 570l-101 -570h-147l12 68h-3q-26 -38 -70 -59t-99 -21q-48 0 -86.5 16t-65 44.5t-40.5 67.5t-14 86q0 64 20.5 120t57 98 t87 66.5t110.5 24.5q55 0 95 -21t60 -56h2l23 136h-148l16 89h147l17 97h160l-17 -97h52l-16 -89h-52z"/>
<glyph unicode="Ē" glyph-name="Emacron" d="M214 793l14 84h334l-15 -84h-333zM18 0l125 708h453l-25 -142h-294l-24 -137h280l-24 -134h-280l-26 -152h322l-25 -143h-482z"/>
<glyph unicode="ē" glyph-name="emacron" d="M181 601l14 84h334l-15 -84h-333zM397 304q1 5 1 10v10q0 33 -23.5 55t-67.5 22q-27 0 -48.5 -9.5t-37.5 -23.5t-26 -31t-14 -33h216zM170 206q-1 -4 -1 -9q0 -21 9.5 -37.5t25 -28t35 -17.5t40.5 -6q38 0 67 14t52 38l101 -79q-48 -51 -107 -73.5t-127 -22.5 q-52 0 -96.5 14.5t-77.5 43t-52 70.5t-19 96q0 64 22.5 119.5t62 96.5t94.5 64.5t121 23.5q49 0 89.5 -14t69.5 -40.5t45 -65.5t16 -90q0 -18 -3.5 -45.5t-9.5 -51.5h-357z"/>
<glyph unicode="Ĕ" glyph-name="Ebreve" d="M565 908q-9 -39 -27 -66t-42.5 -44.5t-55 -25.5t-64.5 -8q-35 0 -63.5 7.5t-49.5 25t-32.5 45t-11.5 66.5h82q0 -32 24.5 -44.5t55.5 -12.5q36 0 64 11t38 46h82zM18 0l125 708h453l-25 -142h-294l-24 -137h280l-24 -134h-280l-26 -152h322l-25 -143h-482z"/>
<glyph unicode="ĕ" glyph-name="ebreve" d="M527 716q-9 -39 -27 -66t-42.5 -44.5t-55 -25.5t-64.5 -8q-35 0 -63.5 7.5t-49.5 25t-32.5 45t-11.5 66.5h82q0 -16 7 -27t18 -18q11 -6 25.5 -9t29.5 -3q36 0 64 11t38 46h82zM397 304q1 5 1 10v10q0 33 -23.5 55t-67.5 22q-27 0 -48.5 -9.5t-37.5 -23.5t-26 -31 t-14 -33h216zM170 206q-1 -4 -1 -9q0 -21 9.5 -37.5t25 -28t35 -17.5t40.5 -6q38 0 67 14t52 38l101 -79q-48 -51 -107 -73.5t-127 -22.5q-52 0 -96.5 14.5t-77.5 43t-52 70.5t-19 96q0 64 22.5 119.5t62 96.5t94.5 64.5t121 23.5q49 0 89.5 -14t69.5 -40.5t45 -65.5t16 -90 q0 -18 -3.5 -45.5t-9.5 -51.5h-357z"/>
<glyph unicode="Ė" glyph-name="Edotaccent" d="M474 856q0 -18 -6.5 -34.5t-18.5 -29t-28 -19.5t-35 -7q-35 0 -58.5 21t-23.5 55q0 19 7 35.5t19 28.5t28.5 19t35.5 7q35 0 57.5 -22t22.5 -54zM18 0l125 708h453l-25 -142h-294l-24 -137h280l-24 -134h-280l-26 -152h322l-25 -143h-482z"/>
<glyph unicode="ė" glyph-name="edotaccent" d="M440 664q0 -18 -6.5 -34.5t-18.5 -29t-28 -19.5t-35 -7q-35 0 -58.5 21t-23.5 55q0 19 7 35.5t19 28.5t28.5 19t35.5 7q35 0 57.5 -22t22.5 -54zM397 304q1 5 1 10v10q0 33 -23.5 55t-67.5 22q-27 0 -48.5 -9.5t-37.5 -23.5t-26 -31t-14 -33h216zM170 206q-1 -4 -1 -9 q0 -21 9.5 -37.5t25 -28t35 -17.5t40.5 -6q38 0 67 14t52 38l101 -79q-48 -51 -107 -73.5t-127 -22.5q-52 0 -96.5 14.5t-77.5 43t-52 70.5t-19 96q0 64 22.5 119.5t62 96.5t94.5 64.5t121 23.5q49 0 89.5 -14t69.5 -40.5t45 -65.5t16 -90q0 -18 -3.5 -45.5t-9.5 -51.5h-357 z"/>
<glyph unicode="Ę" glyph-name="Eogonek" d="M472 -196q-26 -18 -56 -29t-63 -11q-40 0 -68 18.5t-28 64.5q0 23 11.5 44.5t30 41t40.5 36.5t43 31h-364l125 708h453l-25 -142h-294l-24 -137h280l-24 -134h-280l-26 -152h322l-25 -143h-29q-46 -33 -78 -65.5t-32 -61.5q0 -14 9 -20.5t24 -6.5q28 0 57 19z"/>
<glyph unicode="ę" glyph-name="eogonek" d="M397 304q1 5 1 10v10q0 33 -23.5 55t-67.5 22q-27 0 -48.5 -9.5t-37.5 -23.5t-26 -31t-14 -33h216zM349 -196q-26 -18 -56 -29t-63 -11q-40 0 -68 18.5t-28 64.5q0 21 9 40t24 36.5t33.5 33t37.5 29.5q-47 4 -87 20t-69 44t-45.5 68t-16.5 91q0 64 22.5 119.5t62 96.5 t94.5 64.5t121 23.5q49 0 89.5 -14t69.5 -40.5t45 -65.5t16 -90q0 -18 -3.5 -45.5t-9.5 -51.5h-357q-1 -4 -1 -9q0 -21 9.5 -37.5t25 -28t35 -17.5t40.5 -6q38 0 67 14t52 38l101 -79q-35 -37 -75.5 -58.5t-86.5 -30.5q-42 -31 -70.5 -61t-28.5 -58q0 -14 9 -20.5t24 -6.5 q28 0 57 19z"/>
<glyph unicode="Ě" glyph-name="Ecaron" d="M445 764h-145l-98 144h126l54 -83l83 83h127zM18 0l125 708h453l-25 -142h-294l-24 -137h280l-24 -134h-280l-26 -152h322l-25 -143h-482z"/>
<glyph unicode="ě" glyph-name="ecaron" d="M415 572h-145l-98 144h126l54 -83l83 83h127zM397 304q1 5 1 10v10q0 33 -23.5 55t-67.5 22q-27 0 -48.5 -9.5t-37.5 -23.5t-26 -31t-14 -33h216zM170 206q-1 -4 -1 -9q0 -21 9.5 -37.5t25 -28t35 -17.5t40.5 -6q38 0 67 14t52 38l101 -79q-48 -51 -107 -73.5t-127 -22.5 q-52 0 -96.5 14.5t-77.5 43t-52 70.5t-19 96q0 64 22.5 119.5t62 96.5t94.5 64.5t121 23.5q49 0 89.5 -14t69.5 -40.5t45 -65.5t16 -90q0 -18 -3.5 -45.5t-9.5 -51.5h-357z"/>
<glyph unicode="Ĝ" glyph-name="Gcircumflex" horiz-adv-x="749" d="M541 764l-55 82l-83 -82h-127l148 144h146l96 -144h-125zM401 126q30 1 55.5 5.5t47.5 15.5l23 133h-138l25 137h291l-65 -374q-54 -28 -121.5 -45t-139.5 -17q-76 0 -138.5 21.5t-106.5 61.5t-68.5 97t-24.5 128q0 91 31.5 171t88 139.5t133 93.5t166.5 34 q84 0 152.5 -26.5t107.5 -78.5l-121 -109q-20 29 -54.5 48.5t-87.5 19.5q-52 0 -96.5 -22t-77 -59.5t-51 -87t-18.5 -104.5q0 -39 12 -72.5t36 -58t59 -38t80 -13.5z"/>
<glyph unicode="ĝ" glyph-name="gcircumflex" horiz-adv-x="656" d="M443 572l-55 82l-83 -82h-127l148 144h146l96 -144h-125zM182 223q0 -21 6 -40t19 -33.5t32 -23t46 -8.5q31 0 57.5 13t45.5 35.5t29.5 51t10.5 60.5q0 48 -28.5 76.5t-76.5 28.5q-33 0 -59 -13t-44 -35t-28 -51t-10 -61zM459 432l11 66h151l-79 -452q-12 -69 -36 -122.5 t-62 -89.5t-93 -55t-128 -19q-33 0 -67.5 5.5t-67.5 16t-62.5 26t-50.5 36.5l90 113q29 -32 71.5 -49.5t85.5 -17.5q40 0 67.5 10.5t46.5 29.5t30 44t17 55l7 33h-3q-21 -27 -61.5 -47t-91.5 -20q-50 0 -89 15.5t-66 43t-41 65.5t-14 84q0 64 20.5 120t57 98t87 66t111.5 24 q54 0 94.5 -20.5t61.5 -58.5h3z"/>
<glyph unicode="Ğ" glyph-name="Gbreve" horiz-adv-x="749" d="M657 908q-9 -39 -27 -66t-42.5 -44.5t-55 -25.5t-64.5 -8q-35 0 -63.5 7.5t-49.5 25t-32.5 45t-11.5 66.5h82q0 -32 24.5 -44.5t55.5 -12.5q36 0 64 11t38 46h82zM401 126q30 1 55.5 5.5t47.5 15.5l23 133h-138l25 137h291l-65 -374q-54 -28 -121.5 -45t-139.5 -17 q-76 0 -138.5 21.5t-106.5 61.5t-68.5 97t-24.5 128q0 91 31.5 171t88 139.5t133 93.5t166.5 34q84 0 152.5 -26.5t107.5 -78.5l-121 -109q-20 29 -54.5 48.5t-87.5 19.5q-52 0 -96.5 -22t-77 -59.5t-51 -87t-18.5 -104.5q0 -39 12 -72.5t36 -58t59 -38t80 -13.5z"/>
<glyph unicode="ğ" glyph-name="gbreve" horiz-adv-x="656" d="M560 716q-9 -39 -27 -66t-42.5 -44.5t-55 -25.5t-64.5 -8q-35 0 -63.5 7.5t-49.5 25t-32.5 45t-11.5 66.5h82q0 -16 7 -27t18 -18q11 -6 25.5 -9t29.5 -3q36 0 64 11t38 46h82zM182 223q0 -21 6 -40t19 -33.5t32 -23t46 -8.5q31 0 57.5 13t45.5 35.5t29.5 51t10.5 60.5 q0 48 -28.5 76.5t-76.5 28.5q-33 0 -59 -13t-44 -35t-28 -51t-10 -61zM459 432l11 66h151l-79 -452q-12 -69 -36 -122.5t-62 -89.5t-93 -55t-128 -19q-33 0 -67.5 5.5t-67.5 16t-62.5 26t-50.5 36.5l90 113q29 -32 71.5 -49.5t85.5 -17.5q40 0 67.5 10.5t46.5 29.5t30 44 t17 55l7 33h-3q-21 -27 -61.5 -47t-91.5 -20q-50 0 -89 15.5t-66 43t-41 65.5t-14 84q0 64 20.5 120t57 98t87 66t111.5 24q54 0 94.5 -20.5t61.5 -58.5h3z"/>
<glyph unicode="Ġ" glyph-name="Gdotaccent" horiz-adv-x="749" d="M574 856q0 -18 -6.5 -34.5t-18.5 -29t-28 -19.5t-35 -7q-35 0 -58.5 21t-23.5 55q0 19 7 35.5t19 28.5t28.5 19t35.5 7q35 0 57.5 -22t22.5 -54zM401 126q30 1 55.5 5.5t47.5 15.5l23 133h-138l25 137h291l-65 -374q-54 -28 -121.5 -45t-139.5 -17q-76 0 -138.5 21.5 t-106.5 61.5t-68.5 97t-24.5 128q0 91 31.5 171t88 139.5t133 93.5t166.5 34q84 0 152.5 -26.5t107.5 -78.5l-121 -109q-20 29 -54.5 48.5t-87.5 19.5q-52 0 -96.5 -22t-77 -59.5t-51 -87t-18.5 -104.5q0 -39 12 -72.5t36 -58t59 -38t80 -13.5z"/>
<glyph unicode="ġ" glyph-name="gdotaccent" horiz-adv-x="656" d="M467 664q0 -18 -6.5 -34.5t-18.5 -29t-28 -19.5t-35 -7q-35 0 -58.5 21t-23.5 55q0 19 7 35.5t19 28.5t28.5 19t35.5 7q35 0 57.5 -22t22.5 -54zM182 223q0 -21 6 -40t19 -33.5t32 -23t46 -8.5q31 0 57.5 13t45.5 35.5t29.5 51t10.5 60.5q0 48 -28.5 76.5t-76.5 28.5 q-33 0 -59 -13t-44 -35t-28 -51t-10 -61zM459 432l11 66h151l-79 -452q-12 -69 -36 -122.5t-62 -89.5t-93 -55t-128 -19q-33 0 -67.5 5.5t-67.5 16t-62.5 26t-50.5 36.5l90 113q29 -32 71.5 -49.5t85.5 -17.5q40 0 67.5 10.5t46.5 29.5t30 44t17 55l7 33h-3 q-21 -27 -61.5 -47t-91.5 -20q-50 0 -89 15.5t-66 43t-41 65.5t-14 84q0 64 20.5 120t57 98t87 66t111.5 24q54 0 94.5 -20.5t61.5 -58.5h3z"/>
<glyph unicode="Ģ" glyph-name="Gcommaaccent" horiz-adv-x="749" d="M307 -240h-123l111 195h142zM401 126q30 1 55.5 5.5t47.5 15.5l23 133h-138l25 137h291l-65 -374q-54 -28 -121.5 -45t-139.5 -17q-76 0 -138.5 21.5t-106.5 61.5t-68.5 97t-24.5 128q0 91 31.5 171t88 139.5t133 93.5t166.5 34q84 0 152.5 -26.5t107.5 -78.5l-121 -109 q-20 29 -54.5 48.5t-87.5 19.5q-52 0 -96.5 -22t-77 -59.5t-51 -87t-18.5 -104.5q0 -39 12 -72.5t36 -58t59 -38t80 -13.5z"/>
<glyph unicode="ģ" glyph-name="gcommaaccent" horiz-adv-x="656" d="M420 767h123l-111 -195h-142zM182 223q0 -21 6 -40t19 -33.5t32 -23t46 -8.5q31 0 57.5 13t45.5 35.5t29.5 51t10.5 60.5q0 48 -28.5 76.5t-76.5 28.5q-33 0 -59 -13t-44 -35t-28 -51t-10 -61zM459 432l11 66h151l-79 -452q-12 -69 -36 -122.5t-62 -89.5t-93 -55 t-128 -19q-33 0 -67.5 5.5t-67.5 16t-62.5 26t-50.5 36.5l90 113q29 -32 71.5 -49.5t85.5 -17.5q40 0 67.5 10.5t46.5 29.5t30 44t17 55l7 33h-3q-21 -27 -61.5 -47t-91.5 -20q-50 0 -89 15.5t-66 43t-41 65.5t-14 84q0 64 20.5 120t57 98t87 66t111.5 24q54 0 94.5 -20.5 t61.5 -58.5h3z"/>
<glyph unicode="Ĥ" glyph-name="Hcircumflex" horiz-adv-x="757" d="M524 764l-55 82l-83 -82h-127l148 144h146l96 -144h-125zM460 0l52 298h-275l-53 -298h-166l125 708h166l-48 -269h276l47 269h167l-125 -708h-166z"/>
<glyph unicode="ĥ" glyph-name="hcircumflex" horiz-adv-x="615" d="M300 796l-55 82l-83 -82h-127l148 144h146l96 -144h-125zM337 0l47 270q5 23 5 42q0 28 -14.5 47.5t-51.5 19.5q-44 0 -70.5 -32.5t-34.5 -78.5l-48 -268h-160l133 756h161l-57 -323h2q21 31 59 54.5t89 23.5q42 0 72 -12t49.5 -33t28.5 -48.5t9 -57.5q0 -14 -1 -27.5 t-4 -26.5l-54 -306h-160z"/>
<glyph unicode="Ħ" glyph-name="Hbar" horiz-adv-x="757" d="M537 439l10 61h-275l-11 -61h276zM460 0l52 298h-275l-53 -298h-166l125 708h166l-21 -119h275l21 119h167l-125 -708h-166z"/>
<glyph unicode="ħ" glyph-name="hbar" horiz-adv-x="615" d="M271 570l-24 -137h2q21 31 59 54.5t89 23.5q42 0 72 -12t49.5 -33t28.5 -48.5t9 -57.5q0 -14 -1 -27.5t-4 -26.5l-54 -306h-160l47 270q5 23 5 42q0 28 -14.5 47.5t-51.5 19.5q-44 0 -70.5 -32.5t-34.5 -78.5l-48 -268h-160l100 570h-59l16 89h59l17 97h161l-17 -97h139 l-16 -89h-139z"/>
<glyph unicode="Ĩ" glyph-name="Itilde" horiz-adv-x="315" d="M441 900q-8 -26 -20 -50t-29 -42t-38.5 -28.5t-48.5 -10.5q-37 0 -72 19q-20 11 -35 16.5t-30 5.5q-18 0 -30 -12.5t-20 -29.5h-71q7 26 19 49.5t29 41t39 28t49 10.5q21 0 39.5 -5.5t36.5 -14.5q19 -10 33.5 -15t28.5 -5q19 0 30 12.5t19 30.5h71zM18 0l125 708h167 l-125 -708h-167z"/>
<glyph unicode="ĩ" glyph-name="itilde" horiz-adv-x="294" d="M396 708q-8 -26 -20 -50t-29 -42t-38.5 -28.5t-48.5 -10.5q-37 0 -72 19q-20 11 -35 16.5t-30 5.5q-18 0 -30 -12.5t-20 -29.5h-71q7 26 19 49.5t29 41t39 28t49 10.5q21 0 39.5 -5.5t36.5 -14.5q19 -10 33.5 -15t28.5 -5q19 0 30 12.5t19 30.5h71zM11 0l87 498h161 l-89 -498h-159z"/>
<glyph unicode="Ī" glyph-name="Imacron" horiz-adv-x="315" d="M69 793l14 84h334l-15 -84h-333zM18 0l125 708h167l-125 -708h-167z"/>
<glyph unicode="ī" glyph-name="imacron" horiz-adv-x="294" d="M25 601l14 84h334l-15 -84h-333zM11 0l87 498h161l-89 -498h-159z"/>
<glyph unicode="Ĭ" glyph-name="Ibreve" horiz-adv-x="315" d="M431 927q-9 -39 -27 -66t-42.5 -44.5t-55 -25.5t-64.5 -8q-35 0 -63.5 7.5t-49.5 25t-32.5 45t-11.5 66.5h82q0 -16 7 -27t18 -18q11 -6 25.5 -9t29.5 -3q36 0 64 11t38 46h82zM18 0l125 708h167l-125 -708h-167z"/>
<glyph unicode="ĭ" glyph-name="ibreve" horiz-adv-x="294" d="M378 717q-9 -39 -27 -66t-42.5 -44.5t-55 -25.5t-64.5 -8q-35 0 -63.5 7.5t-49.5 25t-32.5 45t-11.5 66.5h82q0 -16 7 -27t18 -18q11 -6 25.5 -9t29.5 -3q36 0 64 11t38 46h82zM11 0l87 498h161l-89 -498h-159z"/>
<glyph unicode="Į" glyph-name="Iogonek" horiz-adv-x="315" d="M178 -196q-26 -18 -56 -29t-63 -11q-40 0 -68 18.5t-28 64.5q0 23 11.5 44.5t30 41t40.5 36.5t43 31h-70l125 708h167l-125 -708h-8q-46 -33 -78 -65.5t-32 -61.5q0 -14 9 -20.5t24 -6.5q28 0 57 19z"/>
<glyph unicode="į" glyph-name="iogonek" horiz-adv-x="294" d="M293 665q0 -20 -7 -37t-19.5 -30.5t-29.5 -21t-37 -7.5q-38 0 -62.5 22.5t-24.5 57.5q0 41 27.5 68.5t67.5 27.5q37 0 61 -23t24 -57zM161 -196q-26 -18 -56 -29t-63 -11q-40 0 -68 18.5t-28 64.5q0 23 11.5 44.5t30 41t40.5 36.5t43 31h-60l87 498h161l-89 -498h-10 q-46 -33 -78 -65.5t-32 -61.5q0 -14 9 -20.5t24 -6.5q28 0 57 19z"/>
<glyph unicode="İ" glyph-name="Idotaccent" horiz-adv-x="315" d="M330 856q0 -18 -6.5 -34.5t-18.5 -29t-28 -19.5t-35 -7q-35 0 -58.5 21t-23.5 55q0 19 7 35.5t19 28.5t28.5 19t35.5 7q35 0 57.5 -22t22.5 -54zM18 0l125 708h167l-125 -708h-167z"/>
<glyph unicode="ı" glyph-name="dotlessi" horiz-adv-x="294" d="M11 0l87 498h161l-89 -498h-159z"/>
<glyph unicode="Ĵ" glyph-name="Jcircumflex" horiz-adv-x="525" d="M515 764l-55 82l-83 -82h-127l148 144h146l96 -144h-125zM442 239q-8 -43 -22 -89t-42 -83.5t-74 -61.5t-117 -24q-91 0 -148 44.5t-73 120.5l154 50q4 -27 21 -46t45 -19q44 0 63 31t27 78l82 468h168z"/>
<glyph unicode="ĵ" glyph-name="jcircumflex" horiz-adv-x="297" d="M268 572l-55 82l-83 -82h-127l148 144h146l96 -144h-125zM171 -19q-8 -45 -22.5 -86t-40 -72t-66 -49t-101.5 -18q-17 0 -36 2.5t-33 6.5l29 133q9 -3 18 -4t16 -1q37 0 52.5 24.5t22.5 63.5l91 517h161z"/>
<glyph unicode="Ķ" glyph-name="Kcommaaccent" horiz-adv-x="679" d="M240 -240h-123l111 195h142zM447 0l-205 333h-3l-58 -333h-163l125 708h163l-53 -297h3l281 297h212l-347 -337l252 -371h-207z"/>
<glyph unicode="ķ" glyph-name="kcommaaccent" horiz-adv-x="572" d="M186 -240h-123l111 195h142zM342 0l-127 239h-3l-42 -239h-160l133 756h161l-82 -460h3l189 202h202l-240 -233l157 -265h-191z"/>
<glyph unicode="Ĺ" glyph-name="Lacute" horiz-adv-x="525" d="M291 764h-122l129 144h163zM18 0l125 708h167l-100 -563h278l-26 -145h-444z"/>
<glyph unicode="ĺ" glyph-name="lacute" horiz-adv-x="295" d="M271 792h-122l129 144h163zM10 0l133 756h163l-134 -756h-162z"/>
<glyph unicode="Ļ" glyph-name="Lcommaaccent" horiz-adv-x="525" d="M173 -240h-123l111 195h142zM18 0l125 708h167l-100 -563h278l-26 -145h-444z"/>
<glyph unicode="ļ" glyph-name="lcommaaccent" horiz-adv-x="295" d="M28 -241h-123l111 195h142zM10 0l133 756h163l-134 -756h-162z"/>
<glyph unicode="Ľ" glyph-name="Lcaron" horiz-adv-x="525" d="M438 513h-123l111 195h142zM18 0l125 708h167l-100 -563h278l-26 -145h-444z"/>
<glyph unicode="ľ" glyph-name="lcaron" horiz-adv-x="295" d="M417 513h-123l111 195h142zM10 0l133 756h163l-134 -756h-162z"/>
<glyph unicode="Ŀ" glyph-name="Ldot" horiz-adv-x="525" d="M508 354q0 -18 -6.5 -34.5t-18.5 -29t-28 -19.5t-35 -7q-35 0 -58.5 21t-23.5 55q0 19 7 35.5t19 28.5t28.5 19t35.5 7q35 0 57.5 -22t22.5 -54zM18 0l125 708h167l-100 -563h278l-26 -145h-444z"/>
<glyph unicode="ŀ" glyph-name="ldot" horiz-adv-x="448" d="M459 344q0 -18 -6.5 -34.5t-18.5 -29t-28 -19.5t-35 -7q-35 0 -58.5 21t-23.5 55q0 19 7 35.5t19 28.5t28.5 19t35.5 7q35 0 57.5 -22t22.5 -54zM10 0l133 756h163l-134 -756h-162z"/>
<glyph unicode="Ł" glyph-name="Lslash" horiz-adv-x="525" d="M17 0l32 179l-74 -57l24 141l75 56l68 389h168l-46 -263l221 167l-25 -140l-221 -167l-29 -159h278l-26 -146h-445z"/>
<glyph unicode="ł" glyph-name="lslash" horiz-adv-x="295" d="M245 398l-71 -398h-164l47 268l-68 -57l25 142l68 58l61 345h165l-39 -218l69 57l-25 -141z"/>
<glyph unicode="Ń" glyph-name="Nacute" horiz-adv-x="789" d="M488 764h-122l129 144h163zM460 0l-195 470h-3l-80 -470h-164l125 708h187l194 -467h2l80 467h164l-125 -708h-185z"/>
<glyph unicode="ń" glyph-name="nacute" horiz-adv-x="615" d="M369 572h-122l129 144h163zM241 426q24 37 64 61t92 24q42 0 72 -12t49.5 -33t28.5 -48.5t9 -57.5q0 -14 -1 -27.5t-4 -26.5l-54 -306h-160l47 270q5 23 5 42q0 28 -14.5 47.5t-51.5 19.5q-22 0 -39.5 -8.5t-31 -23.5t-22 -35t-12.5 -42l-48 -270h-160l69 395 q4 19 8.5 49t6.5 54h153q-1 -12 -3.5 -34t-4.5 -38h2z"/>
<glyph unicode="Ņ" glyph-name="Ncommaaccent" horiz-adv-x="789" d="M278 -240h-123l111 195h142zM460 0l-195 470h-3l-80 -470h-164l125 708h187l194 -467h2l80 467h164l-125 -708h-185z"/>
<glyph unicode="ņ" glyph-name="ncommaaccent" horiz-adv-x="615" d="M187 -240h-123l111 195h142zM241 426q24 37 64 61t92 24q42 0 72 -12t49.5 -33t28.5 -48.5t9 -57.5q0 -14 -1 -27.5t-4 -26.5l-54 -306h-160l47 270q5 23 5 42q0 28 -14.5 47.5t-51.5 19.5q-22 0 -39.5 -8.5t-31 -23.5t-22 -35t-12.5 -42l-48 -270h-160l69 395 q4 19 8.5 49t6.5 54h153q-1 -12 -3.5 -34t-4.5 -38h2z"/>
<glyph unicode="Ň" glyph-name="Ncaron" horiz-adv-x="789" d="M530 764h-145l-98 144h126l54 -83l83 83h127zM460 0l-195 470h-3l-80 -470h-164l125 708h187l194 -467h2l80 467h164l-125 -708h-185z"/>
<glyph unicode="ň" glyph-name="ncaron" horiz-adv-x="615" d="M413 572h-145l-98 144h126l54 -83l83 83h127zM241 426q24 37 64 61t92 24q42 0 72 -12t49.5 -33t28.5 -48.5t9 -57.5q0 -14 -1 -27.5t-4 -26.5l-54 -306h-160l47 270q5 23 5 42q0 28 -14.5 47.5t-51.5 19.5q-22 0 -39.5 -8.5t-31 -23.5t-22 -35t-12.5 -42l-48 -270h-160 l69 395q4 19 8.5 49t6.5 54h153q-1 -12 -3.5 -34t-4.5 -38h2z"/>
<glyph unicode="Ō" glyph-name="Omacron" horiz-adv-x="831" d="M328 793l14 84h334l-15 -84h-333zM395 132q55 0 98.5 22.5t73.5 60t46 86t16 99.5q0 37 -12 69.5t-34.5 56.5t-56.5 38t-77 14q-54 0 -97.5 -23t-74 -60.5t-47 -85.5t-16.5 -99q0 -37 12 -69.5t35 -56.5t56.5 -38t77.5 -14zM460 726q80 0 143.5 -22t107.5 -63t67.5 -99 t23.5 -129q0 -90 -30.5 -168.5t-85.5 -137t-131.5 -92t-168.5 -33.5q-81 0 -145 22t-108.5 63t-68 99t-23.5 129q0 90 31 168.5t87 137t132.5 92t168.5 33.5z"/>
<glyph unicode="ō" glyph-name="omacron" horiz-adv-x="626" d="M192 601l14 84h334l-15 -84h-333zM422 277q0 45 -27.5 75t-77.5 30q-32 0 -58 -13t-44 -35t-28 -51t-10 -61q0 -45 27 -74.5t77 -29.5q32 0 58 12.5t44.5 34.5t28.5 51t10 61zM273 -14q-54 0 -100.5 15t-80 43.5t-53 69t-19.5 91.5q0 62 21 118t60.5 98t95.5 67t127 25 q55 0 102 -15t81 -43.5t53.5 -69t19.5 -91.5q0 -63 -21 -119t-61 -98t-96.5 -66.5t-128.5 -24.5z"/>
<glyph unicode="Ŏ" glyph-name="Obreve" horiz-adv-x="831" d="M675 908q-9 -39 -27 -66t-42.5 -44.5t-55 -25.5t-64.5 -8q-35 0 -63.5 7.5t-49.5 25t-32.5 45t-11.5 66.5h82q0 -32 24.5 -44.5t55.5 -12.5q36 0 64 11t38 46h82zM395 132q55 0 98.5 22.5t73.5 60t46 86t16 99.5q0 37 -12 69.5t-34.5 56.5t-56.5 38t-77 14 q-54 0 -97.5 -23t-74 -60.5t-47 -85.5t-16.5 -99q0 -37 12 -69.5t35 -56.5t56.5 -38t77.5 -14zM460 726q80 0 143.5 -22t107.5 -63t67.5 -99t23.5 -129q0 -90 -30.5 -168.5t-85.5 -137t-131.5 -92t-168.5 -33.5q-81 0 -145 22t-108.5 63t-68 99t-23.5 129q0 90 31 168.5 t87 137t132.5 92t168.5 33.5z"/>
<glyph unicode="ŏ" glyph-name="obreve" horiz-adv-x="626" d="M540 716q-9 -39 -27 -66t-42.5 -44.5t-55 -25.5t-64.5 -8q-35 0 -63.5 7.5t-49.5 25t-32.5 45t-11.5 66.5h82q0 -16 7 -27t18 -18q11 -6 25.5 -9t29.5 -3q36 0 64 11t38 46h82zM422 277q0 45 -27.5 75t-77.5 30q-32 0 -58 -13t-44 -35t-28 -51t-10 -61q0 -45 27 -74.5 t77 -29.5q32 0 58 12.5t44.5 34.5t28.5 51t10 61zM273 -14q-54 0 -100.5 15t-80 43.5t-53 69t-19.5 91.5q0 62 21 118t60.5 98t95.5 67t127 25q55 0 102 -15t81 -43.5t53.5 -69t19.5 -91.5q0 -63 -21 -119t-61 -98t-96.5 -66.5t-128.5 -24.5z"/>
<glyph unicode="Ő" glyph-name="Ohungarumlaut" horiz-adv-x="831" d="M437 764h-121l128 144h164zM656 764h-121l129 144h163zM395 132q55 0 98.5 22.5t73.5 60t46 86t16 99.5q0 37 -12 69.5t-34.5 56.5t-56.5 38t-77 14q-54 0 -97.5 -23t-74 -60.5t-47 -85.5t-16.5 -99q0 -37 12 -69.5t35 -56.5t56.5 -38t77.5 -14zM460 726q80 0 143.5 -22 t107.5 -63t67.5 -99t23.5 -129q0 -90 -30.5 -168.5t-85.5 -137t-131.5 -92t-168.5 -33.5q-81 0 -145 22t-108.5 63t-68 99t-23.5 129q0 90 31 168.5t87 137t132.5 92t168.5 33.5z"/>
<glyph unicode="ő" glyph-name="ohungarumlaut" horiz-adv-x="626" d="M300 572h-121l128 144h164zM519 572h-121l129 144h163zM422 277q0 45 -27.5 75t-77.5 30q-32 0 -58 -13t-44 -35t-28 -51t-10 -61q0 -45 27 -74.5t77 -29.5q32 0 58 12.5t44.5 34.5t28.5 51t10 61zM273 -14q-54 0 -100.5 15t-80 43.5t-53 69t-19.5 91.5q0 62 21 118 t60.5 98t95.5 67t127 25q55 0 102 -15t81 -43.5t53.5 -69t19.5 -91.5q0 -63 -21 -119t-61 -98t-96.5 -66.5t-128.5 -24.5z"/>
<glyph unicode="Œ" glyph-name="OE" horiz-adv-x="1000" d="M466 565q-62 0 -109.5 -20.5t-79 -55t-47.5 -78.5t-16 -91q0 -36 11.5 -68.5t35.5 -56.5t60.5 -38t87.5 -14h51l74 422h-68zM984 566h-294l-24 -137h280l-24 -134h-280l-26 -152h322l-25 -143h-538q-60 0 -119.5 16.5t-107 52.5t-77.5 92.5t-30 136.5q0 93 32.5 169 t90.5 129.5t137 82.5t172 29h536z"/>
<glyph unicode="œ" glyph-name="oe" horiz-adv-x="978" d="M422 277q0 45 -27.5 75t-77.5 30q-31 0 -56.5 -13t-44 -35t-29 -51t-10.5 -61q0 -45 27 -74.5t77 -29.5q31 0 57 12.5t45 34.5t29 51t10 61zM789 324q0 33 -23.5 55t-67.5 22q-27 0 -48.5 -9.5t-37.5 -23.5t-26 -31t-14 -33h216q1 5 1 10v10zM931 303q0 -18 -3.5 -45.5 t-9.5 -51.5h-357q-1 -4 -1 -9q0 -21 9.5 -37.5t25 -28t35 -17.5t40.5 -6q38 0 67 14t52 38l101 -79q-48 -51 -107 -73.5t-127 -22.5q-60 0 -111 20.5t-78 62.5q-30 -39 -80 -60.5t-116 -21.5q-54 0 -100 15t-79.5 43.5t-52.5 69t-19 91.5q0 63 22 119t62 98t96.5 66.5 t126.5 24.5q129 0 185 -87q33 42 85 64.5t114 22.5q49 0 89.5 -14t69.5 -40.5t45 -65.5t16 -90z"/>
<glyph unicode="Ŕ" glyph-name="Racute" horiz-adv-x="656" d="M400 764h-122l129 144h163zM324 404q67 0 104 22t37 70q0 44 -31 60t-83 16h-71l-30 -168h74zM603 0h-188l-119 285h-68l-48 -285h-162l125 708h242q117 0 182.5 -49.5t65.5 -138.5q0 -86 -47 -140.5t-127 -74.5z"/>
<glyph unicode="ŕ" glyph-name="racute" horiz-adv-x="379" d="M263 572h-122l129 144h163zM239 425q24 38 57.5 62t80.5 24q9 0 18.5 -1t15.5 -3l-26 -142q-11 3 -21 4t-19 1q-35 0 -59 -12t-39.5 -29.5t-23 -37.5t-10.5 -35l-45 -256h-160l71 395q4 19 8.5 49t6.5 54h152q0 -5 -1 -14.5t-2.5 -20l-3 -21l-2.5 -17.5h2z"/>
<glyph unicode="Ŗ" glyph-name="Rcommaaccent" horiz-adv-x="656" d="M226 -240h-123l111 195h142zM324 404q67 0 104 22t37 70q0 44 -31 60t-83 16h-71l-30 -168h74zM603 0h-188l-119 285h-68l-48 -285h-162l125 708h242q117 0 182.5 -49.5t65.5 -138.5q0 -86 -47 -140.5t-127 -74.5z"/>
<glyph unicode="ŗ" glyph-name="rcommaaccent" horiz-adv-x="379" d="M25 -241h-123l111 195h142zM239 425q24 38 57.5 62t80.5 24q9 0 18.5 -1t15.5 -3l-26 -142q-11 3 -21 4t-19 1q-35 0 -59 -12t-39.5 -29.5t-23 -37.5t-10.5 -35l-45 -256h-160l71 395q4 19 8.5 49t6.5 54h152q0 -5 -1 -14.5t-2.5 -20l-3 -21l-2.5 -17.5h2z"/>
<glyph unicode="Ř" glyph-name="Rcaron" horiz-adv-x="656" d="M440 764h-145l-98 144h126l54 -83l83 83h127zM324 404q67 0 104 22t37 70q0 44 -31 60t-83 16h-71l-30 -168h74zM603 0h-188l-119 285h-68l-48 -285h-162l125 708h242q117 0 182.5 -49.5t65.5 -138.5q0 -86 -47 -140.5t-127 -74.5z"/>
<glyph unicode="ř" glyph-name="rcaron" horiz-adv-x="379" d="M329 572h-145l-98 144h126l54 -83l83 83h127zM239 425q24 38 57.5 62t80.5 24q9 0 18.5 -1t15.5 -3l-26 -142q-11 3 -21 4t-19 1q-35 0 -59 -12t-39.5 -29.5t-23 -37.5t-10.5 -35l-45 -256h-160l71 395q4 19 8.5 49t6.5 54h152q0 -5 -1 -14.5t-2.5 -20l-3 -21l-2.5 -17.5 h2z"/>
<glyph unicode="Ś" glyph-name="Sacute" horiz-adv-x="585" d="M399 764h-122l129 144h163zM472 536q-20 27 -50 41t-67 14q-17 0 -36 -4.5t-34.5 -15t-26 -26.5t-10.5 -39q0 -30 23.5 -47.5t65.5 -32.5q46 -16 82 -35.5t61 -44.5t38 -56.5t13 -71.5q0 -64 -26.5 -109t-68.5 -73.5t-94 -41.5t-103 -13q-38 0 -76 7t-73 20.5t-65 34.5 t-51 48l123 100q21 -32 62 -52t83 -20q22 0 42.5 4.5t36.5 15t25.5 27t9.5 39.5q0 37 -30 58.5t-80 38.5q-35 12 -65.5 27t-53 37t-36 52.5t-13.5 73.5q0 54 22.5 97.5t61.5 74t91 47t111 16.5q31 0 63 -6t61.5 -17.5t54.5 -28.5t42 -39z"/>
<glyph unicode="ś" glyph-name="sacute" horiz-adv-x="464" d="M307 572h-122l129 144h163zM68 159q19 -28 50.5 -42.5t64.5 -14.5q32 0 51.5 12t19.5 33q0 20 -18 31t-53 22q-35 10 -61.5 22.5t-44.5 29t-27 38t-9 50.5q0 41 18.5 73t49 54.5t71.5 34t86 11.5q58 0 108.5 -19.5t80.5 -57.5l-101 -85q-14 20 -38.5 33t-58.5 13 q-26 0 -47.5 -10t-21.5 -34q0 -17 16 -26.5t49 -18.5q70 -19 110.5 -52.5t40.5 -97.5q0 -45 -19.5 -78.5t-51 -55t-72 -32t-82.5 -10.5q-69 0 -123 23t-88 63z"/>
<glyph unicode="Ŝ" glyph-name="Scircumflex" horiz-adv-x="585" d="M447 764l-55 82l-83 -82h-127l148 144h146l96 -144h-125zM472 536q-20 27 -50 41t-67 14q-17 0 -36 -4.5t-34.5 -15t-26 -26.5t-10.5 -39q0 -30 23.5 -47.5t65.5 -32.5q46 -16 82 -35.5t61 -44.5t38 -56.5t13 -71.5q0 -64 -26.5 -109t-68.5 -73.5t-94 -41.5t-103 -13 q-38 0 -76 7t-73 20.5t-65 34.5t-51 48l123 100q21 -32 62 -52t83 -20q22 0 42.5 4.5t36.5 15t25.5 27t9.5 39.5q0 37 -30 58.5t-80 38.5q-35 12 -65.5 27t-53 37t-36 52.5t-13.5 73.5q0 54 22.5 97.5t61.5 74t91 47t111 16.5q31 0 63 -6t61.5 -17.5t54.5 -28.5t42 -39z"/>
<glyph unicode="ŝ" glyph-name="scircumflex" horiz-adv-x="464" d="M360 572l-55 82l-83 -82h-127l148 144h146l96 -144h-125zM68 159q19 -28 50.5 -42.5t64.5 -14.5q32 0 51.5 12t19.5 33q0 20 -18 31t-53 22q-35 10 -61.5 22.5t-44.5 29t-27 38t-9 50.5q0 41 18.5 73t49 54.5t71.5 34t86 11.5q58 0 108.5 -19.5t80.5 -57.5l-101 -85 q-14 20 -38.5 33t-58.5 13q-26 0 -47.5 -10t-21.5 -34q0 -17 16 -26.5t49 -18.5q70 -19 110.5 -52.5t40.5 -97.5q0 -45 -19.5 -78.5t-51 -55t-72 -32t-82.5 -10.5q-69 0 -123 23t-88 63z"/>
<glyph unicode="Ş" glyph-name="Scedilla" horiz-adv-x="585" d="M335 -135q0 -30 -14 -50t-36.5 -32t-49.5 -17.5t-52 -5.5q-31 0 -65 7t-55 18l32 59q17 -9 39 -13.5t42 -4.5q9 0 18.5 1t17.5 5t13.5 10t5.5 17q0 18 -13.5 23.5t-28.5 5.5q-9 0 -20 -1.5t-21 -4.5l-25 29l67 73q-64 8 -122 34.5t-94 72.5l123 100q21 -32 62 -52t83 -20 q22 0 42.5 4.5t36.5 15t25.5 27t9.5 39.5q0 37 -30 58.5t-80 38.5q-35 12 -65.5 27t-53 37t-36 52.5t-13.5 73.5q0 54 22.5 97.5t61.5 74t91 47t111 16.5q31 0 63 -6t61.5 -17.5t54.5 -28.5t42 -39l-113 -100q-20 27 -50 41t-67 14q-17 0 -36 -4.5t-34.5 -15t-26 -26.5 t-10.5 -39q0 -30 23.5 -47.5t65.5 -32.5q46 -16 82 -35.5t61 -44.5t38 -56.5t13 -71.5q0 -59 -23 -102t-60.5 -71.5t-84.5 -44t-95 -18.5l-41 -43q6 2 10 2h9q13 0 28.5 -3.5t29 -12.5t22.5 -23.5t9 -36.5z"/>
<glyph unicode="ş" glyph-name="scedilla" horiz-adv-x="464" d="M287 -135q0 -30 -14 -50t-36.5 -32t-49.5 -17.5t-52 -5.5q-31 0 -65 7t-55 18l32 59q17 -9 39 -13.5t42 -4.5q9 0 18.5 1t17.5 5t13.5 10t5.5 17q0 18 -13.5 23.5t-28.5 5.5q-9 0 -20 -1.5t-21 -4.5l-25 29l67 73q-57 6 -101 27.5t-73 56.5l100 91q19 -28 50.5 -42.5 t64.5 -14.5q32 0 51.5 12t19.5 33q0 20 -18 31t-53 22q-35 10 -61.5 22.5t-44.5 29t-27 38t-9 50.5q0 41 18.5 73t49 54.5t71.5 34t86 11.5q58 0 108.5 -19.5t80.5 -57.5l-101 -85q-14 20 -38.5 33t-58.5 13q-26 0 -47.5 -10t-21.5 -34q0 -17 16 -26.5t49 -18.5 q70 -19 110.5 -52.5t40.5 -97.5q0 -40 -15 -70t-40 -51.5t-58 -34.5t-69 -17l-43 -46q6 2 10 2h9q13 0 28.5 -3.5t29 -12.5t22.5 -23.5t9 -36.5z"/>
<glyph unicode="Š" glyph-name="Scaron" horiz-adv-x="585" d="M434 764h-145l-98 144h126l54 -83l83 83h127zM472 536q-20 27 -50 41t-67 14q-17 0 -36 -4.5t-34.5 -15t-26 -26.5t-10.5 -39q0 -30 23.5 -47.5t65.5 -32.5q46 -16 82 -35.5t61 -44.5t38 -56.5t13 -71.5q0 -64 -26.5 -109t-68.5 -73.5t-94 -41.5t-103 -13q-38 0 -76 7 t-73 20.5t-65 34.5t-51 48l123 100q21 -32 62 -52t83 -20q22 0 42.5 4.5t36.5 15t25.5 27t9.5 39.5q0 37 -30 58.5t-80 38.5q-35 12 -65.5 27t-53 37t-36 52.5t-13.5 73.5q0 54 22.5 97.5t61.5 74t91 47t111 16.5q31 0 63 -6t61.5 -17.5t54.5 -28.5t42 -39z"/>
<glyph unicode="š" glyph-name="scaron" horiz-adv-x="464" d="M345 572h-145l-98 144h126l54 -83l83 83h127zM68 159q19 -28 50.5 -42.5t64.5 -14.5q32 0 51.5 12t19.5 33q0 20 -18 31t-53 22q-35 10 -61.5 22.5t-44.5 29t-27 38t-9 50.5q0 41 18.5 73t49 54.5t71.5 34t86 11.5q58 0 108.5 -19.5t80.5 -57.5l-101 -85q-14 20 -38.5 33 t-58.5 13q-26 0 -47.5 -10t-21.5 -34q0 -17 16 -26.5t49 -18.5q70 -19 110.5 -52.5t40.5 -97.5q0 -45 -19.5 -78.5t-51 -55t-72 -32t-82.5 -10.5q-69 0 -123 23t-88 63z"/>
<glyph unicode="Ţ" glyph-name="Tcommaaccent" horiz-adv-x="553" d="M320 -135q0 -30 -14 -50t-36.5 -32t-49.5 -17.5t-52 -5.5q-31 0 -65 7t-55 18l32 59q17 -9 39 -13.5t42 -4.5q9 0 18.5 1t17.5 5t13.5 10t5.5 17q0 18 -13.5 23.5t-28.5 5.5q-9 0 -20 -1.5t-21 -4.5l-25 29l82 89h-52l99 565h-198l26 143h558l-25 -143h-194l-100 -565 h-34l-58 -61q6 2 10 2h9q13 0 28.5 -3.5t29 -12.5t22.5 -23.5t9 -36.5z"/>
<glyph unicode="ţ" glyph-name="tcommaaccent" horiz-adv-x="364" d="M290 -135q0 -30 -14 -50t-36.5 -32t-49.5 -17.5t-52 -5.5q-31 0 -65 7t-55 18l32 59q17 -9 39 -13.5t42 -4.5q9 0 18.5 1t17.5 5t13.5 10t5.5 17q0 18 -13.5 23.5t-28.5 5.5q-9 0 -20 -1.5t-21 -4.5l-25 29l74 81q-50 9 -77 37.5t-27 79.5q0 12 1.5 27.5t4.5 29.5l38 211 h-82l22 121h79l23 132h156l-23 -132h106l-22 -121h-103l-36 -195q-1 -7 -1.5 -14.5t-0.5 -12.5q0 -25 14 -34t38 -9q12 0 23.5 2t20.5 4l-15 -115q-11 -5 -27.5 -8t-33.5 -5l-48 -51q6 2 10 2h9q13 0 28.5 -3.5t29 -12.5t22.5 -23.5t9 -36.5z"/>
<glyph unicode="Ť" glyph-name="Tcaron" horiz-adv-x="553" d="M421 764h-145l-98 144h126l54 -83l83 83h127zM404 565l-100 -565h-166l99 565h-198l26 143h558l-25 -143h-194z"/>
<glyph unicode="ť" glyph-name="tcaron" horiz-adv-x="364" d="M427 536h-123l111 195h142zM10 377l22 121h79l23 132h156l-23 -132h106l-22 -121h-103l-36 -195q-1 -7 -1.5 -14.5t-0.5 -12.5q0 -25 14 -34t38 -9q12 0 23.5 2t20.5 4l-15 -115q-14 -6 -39.5 -10.5t-48.5 -4.5q-72 0 -113.5 29t-41.5 92q0 12 1.5 27.5t4.5 29.5l38 211 h-82z"/>
<glyph unicode="Ŧ" glyph-name="Tbar" horiz-adv-x="553" d="M372 388l-68 -388h-166l68 388h-140l16 89h139l16 88h-198l26 143h558l-25 -143h-194l-16 -88h132l-16 -89h-132z"/>
<glyph unicode="ŧ" glyph-name="tbar" horiz-adv-x="364" d="M218 215l-6 -33q-1 -7 -1.5 -14.5t-0.5 -12.5q0 -25 14 -34t38 -9q12 0 23.5 2t20.5 4l-15 -115q-14 -6 -39.5 -10.5t-48.5 -4.5q-72 0 -113.5 29t-41.5 92q0 12 1.5 27.5t4.5 29.5l9 49h-60l16 89h60l13 73h-82l22 121h79l23 132h156l-23 -132h106l-22 -121h-103 l-14 -73h85l-16 -89h-85z"/>
<glyph unicode="Ũ" glyph-name="Utilde" horiz-adv-x="737" d="M651 900q-8 -26 -20 -50t-29 -42t-38.5 -28.5t-48.5 -10.5q-37 0 -72 19q-20 11 -35 16.5t-30 5.5q-18 0 -30 -12.5t-20 -29.5h-71q7 26 19 49.5t29 41t39 28t49 10.5q21 0 39.5 -5.5t36.5 -14.5q19 -10 33.5 -15t28.5 -5q19 0 30 12.5t19 30.5h71zM658 260 q-11 -63 -36 -114.5t-65.5 -87.5t-96.5 -56t-129 -20q-64 0 -115.5 15.5t-88 44t-56 69.5t-19.5 92q0 14 1.5 30t3.5 31l78 444h165l-76 -429q-2 -10 -2.5 -21t-0.5 -20q0 -22 6.5 -42t20.5 -35.5t37 -24.5t55 -9q42 0 69.5 13.5t45 35t26.5 48t14 53.5l77 431h164z"/>
<glyph unicode="ũ" glyph-name="utilde" horiz-adv-x="614" d="M554 708q-8 -26 -20 -50t-29 -42t-38.5 -28.5t-48.5 -10.5q-37 0 -72 19q-20 11 -35 16.5t-30 5.5q-18 0 -30 -12.5t-20 -29.5h-71q7 26 19 49.5t29 41t39 28t49 10.5q21 0 39.5 -5.5t36.5 -14.5q19 -10 33.5 -15t28.5 -5q19 0 30 12.5t19 30.5h71zM342 72 q-23 -36 -63.5 -60.5t-92.5 -24.5q-41 0 -71 12.5t-49.5 33.5t-28.5 48.5t-9 57.5q0 13 1 26.5t4 27.5l53 305h161l-48 -270q-2 -11 -3 -21.5t-1 -20.5q0 -27 14.5 -47t51.5 -20q22 0 39.5 9t30.5 24t22 35t13 42l48 269h160l-70 -395q-4 -19 -8.5 -49t-6.5 -54h-152 q1 12 3.5 34.5t4.5 37.5h-3z"/>
<glyph unicode="Ū" glyph-name="Umacron" horiz-adv-x="737" d="M282 793l14 84h334l-15 -84h-333zM658 260q-11 -63 -36 -114.5t-65.5 -87.5t-96.5 -56t-129 -20q-64 0 -115.5 15.5t-88 44t-56 69.5t-19.5 92q0 14 1.5 30t3.5 31l78 444h165l-76 -429q-2 -10 -2.5 -21t-0.5 -20q0 -22 6.5 -42t20.5 -35.5t37 -24.5t55 -9 q42 0 69.5 13.5t45 35t26.5 48t14 53.5l77 431h164z"/>
<glyph unicode="ū" glyph-name="umacron" horiz-adv-x="614" d="M179 601l14 84h334l-15 -84h-333zM342 72q-23 -36 -63.5 -60.5t-92.5 -24.5q-41 0 -71 12.5t-49.5 33.5t-28.5 48.5t-9 57.5q0 13 1 26.5t4 27.5l53 305h161l-48 -270q-2 -11 -3 -21.5t-1 -20.5q0 -27 14.5 -47t51.5 -20q22 0 39.5 9t30.5 24t22 35t13 42l48 269h160 l-70 -395q-4 -19 -8.5 -49t-6.5 -54h-152q1 12 3.5 34.5t4.5 37.5h-3z"/>
<glyph unicode="Ŭ" glyph-name="Ubreve" horiz-adv-x="737" d="M627 908q-9 -39 -27 -66t-42.5 -44.5t-55 -25.5t-64.5 -8q-35 0 -63.5 7.5t-49.5 25t-32.5 45t-11.5 66.5h82q0 -32 24.5 -44.5t55.5 -12.5q36 0 64 11t38 46h82zM658 260q-11 -63 -36 -114.5t-65.5 -87.5t-96.5 -56t-129 -20q-64 0 -115.5 15.5t-88 44t-56 69.5 t-19.5 92q0 14 1.5 30t3.5 31l78 444h165l-76 -429q-2 -10 -2.5 -21t-0.5 -20q0 -22 6.5 -42t20.5 -35.5t37 -24.5t55 -9q42 0 69.5 13.5t45 35t26.5 48t14 53.5l77 431h164z"/>
<glyph unicode="ŭ" glyph-name="ubreve" horiz-adv-x="614" d="M528 716q-9 -39 -27 -66t-42.5 -44.5t-55 -25.5t-64.5 -8q-35 0 -63.5 7.5t-49.5 25t-32.5 45t-11.5 66.5h82q0 -16 7 -27t18 -18q11 -6 25.5 -9t29.5 -3q36 0 64 11t38 46h82zM342 72q-23 -36 -63.5 -60.5t-92.5 -24.5q-41 0 -71 12.5t-49.5 33.5t-28.5 48.5t-9 57.5 q0 13 1 26.5t4 27.5l53 305h161l-48 -270q-2 -11 -3 -21.5t-1 -20.5q0 -27 14.5 -47t51.5 -20q22 0 39.5 9t30.5 24t22 35t13 42l48 269h160l-70 -395q-4 -19 -8.5 -49t-6.5 -54h-152q1 12 3.5 34.5t4.5 37.5h-3z"/>
<glyph unicode="Ů" glyph-name="Uring" horiz-adv-x="737" d="M511 866q0 20 -13 35t-36 15q-29 0 -47 -21t-18 -51q0 -21 12.5 -35.5t35.5 -14.5q29 0 47.5 21t18.5 51zM441 749q-42 0 -67.5 25.5t-25.5 63.5q0 25 9 47.5t24.5 39.5t37.5 26.5t48 9.5q42 0 67.5 -25t25.5 -63q0 -26 -9 -48.5t-24.5 -39.5t-37.5 -26.5t-48 -9.5z M658 260q-11 -63 -36 -114.5t-65.5 -87.5t-96.5 -56t-129 -20q-64 0 -115.5 15.5t-88 44t-56 69.5t-19.5 92q0 14 1.5 30t3.5 31l78 444h165l-76 -429q-2 -10 -2.5 -21t-0.5 -20q0 -22 6.5 -42t20.5 -35.5t37 -24.5t55 -9q42 0 69.5 13.5t45 35t26.5 48t14 53.5l77 431h164z "/>
<glyph unicode="ů" glyph-name="uring" horiz-adv-x="614" d="M416 674q0 20 -13 35t-36 15q-29 0 -47 -21t-18 -51q0 -21 12.5 -35.5t35.5 -14.5q29 0 47.5 21t18.5 51zM346 557q-42 0 -67.5 25.5t-25.5 63.5q0 25 9 47.5t24.5 39.5t37.5 26.5t48 9.5q42 0 67.5 -25t25.5 -63q0 -26 -9 -48.5t-24.5 -39.5t-37.5 -26.5t-48 -9.5z M342 72q-23 -36 -63.5 -60.5t-92.5 -24.5q-41 0 -71 12.5t-49.5 33.5t-28.5 48.5t-9 57.5q0 13 1 26.5t4 27.5l53 305h161l-48 -270q-2 -11 -3 -21.5t-1 -20.5q0 -27 14.5 -47t51.5 -20q22 0 39.5 9t30.5 24t22 35t13 42l48 269h160l-70 -395q-4 -19 -8.5 -49t-6.5 -54h-152 q1 12 3.5 34.5t4.5 37.5h-3z"/>
<glyph unicode="Ű" glyph-name="Uhungarumlaut" horiz-adv-x="737" d="M392 764h-121l128 144h164zM611 764h-121l129 144h163zM658 260q-11 -63 -36 -114.5t-65.5 -87.5t-96.5 -56t-129 -20q-64 0 -115.5 15.5t-88 44t-56 69.5t-19.5 92q0 14 1.5 30t3.5 31l78 444h165l-76 -429q-2 -10 -2.5 -21t-0.5 -20q0 -22 6.5 -42t20.5 -35.5t37 -24.5 t55 -9q42 0 69.5 13.5t45 35t26.5 48t14 53.5l77 431h164z"/>
<glyph unicode="ű" glyph-name="uhungarumlaut" horiz-adv-x="614" d="M293 572h-121l128 144h164zM512 572h-121l129 144h163zM342 72q-23 -36 -63.5 -60.5t-92.5 -24.5q-41 0 -71 12.5t-49.5 33.5t-28.5 48.5t-9 57.5q0 13 1 26.5t4 27.5l53 305h161l-48 -270q-2 -11 -3 -21.5t-1 -20.5q0 -27 14.5 -47t51.5 -20q22 0 39.5 9t30.5 24t22 35 t13 42l48 269h160l-70 -395q-4 -19 -8.5 -49t-6.5 -54h-152q1 12 3.5 34.5t4.5 37.5h-3z"/>
<glyph unicode="Ų" glyph-name="Uogonek" horiz-adv-x="737" d="M421 -196q-26 -18 -56 -29t-63 -11q-40 0 -68 18.5t-28 64.5q0 20 8.5 38.5t22.5 36t32 32.5t37 29q-59 3 -106 19.5t-80 45t-50.5 68t-17.5 87.5q0 14 1.5 30t3.5 31l78 444h165l-76 -429q-2 -10 -2.5 -21t-0.5 -20q0 -22 6.5 -42t20.5 -35.5t37 -24.5t55 -9 q42 0 69.5 13.5t45 35t26.5 48t14 53.5l77 431h164l-78 -448q-19 -110 -81.5 -182t-173.5 -90q-40 -30 -66.5 -59.5t-26.5 -55.5q0 -14 9 -20.5t24 -6.5q28 0 57 19z"/>
<glyph unicode="ų" glyph-name="uogonek" horiz-adv-x="614" d="M427 -196q-26 -18 -56 -29t-63 -11q-40 0 -68 18.5t-28 64.5q0 23 11.5 44.5t30 41t40.5 36.5t43 31q1 12 3.5 34.5t4.5 37.5h-3q-23 -36 -63.5 -60.5t-92.5 -24.5q-41 0 -71 12.5t-49.5 33.5t-28.5 48.5t-9 57.5q0 13 1 26.5t4 27.5l53 305h161l-48 -270 q-2 -11 -3 -21.5t-1 -20.5q0 -27 14.5 -47t51.5 -20q22 0 39.5 9t30.5 24t22 35t13 42l48 269h160l-70 -395q-4 -19 -8.5 -49t-6.5 -54h-63q-46 -33 -78 -65.5t-32 -61.5q0 -14 9 -20.5t24 -6.5q28 0 57 19z"/>
<glyph unicode="Ŵ" glyph-name="Wcircumflex" horiz-adv-x="1014" d="M657 764l-55 82l-83 -82h-127l148 144h146l96 -144h-125zM750 0h-166l-48 484h-3l-235 -484h-165l-62 708h176l21 -476h3l220 476h172l38 -476h3l211 476h175z"/>
<glyph unicode="ŵ" glyph-name="wcircumflex" horiz-adv-x="856" d="M540 572l-55 82l-83 -82h-127l148 144h146l96 -144h-125zM620 0h-161l-37 313h-2l-162 -313h-161l-68 498h167l24 -318h3l154 318h161l30 -318h3l153 318h168z"/>
<glyph unicode="Ŷ" glyph-name="Ycircumflex" horiz-adv-x="613" d="M452 764l-55 82l-83 -82h-127l148 144h146l96 -144h-125zM383 301l-54 -301h-166l53 301l-181 407h186l101 -268l203 268h202z"/>
<glyph unicode="ŷ" glyph-name="ycircumflex" horiz-adv-x="556" d="M397 572l-55 82l-83 -82h-127l148 144h146l96 -144h-125zM268 -75q-22 -39 -43.5 -70t-47 -52t-58.5 -32t-77 -11q-47 0 -82 11l24 132q22 -9 47 -9q35 0 54.5 17.5t37.5 49.5l24 41l-115 496h175l50 -326h2l165 326h170z"/>
<glyph unicode="Ÿ" glyph-name="Ydieresis" horiz-adv-x="613" d="M584 856q0 -35 -23.5 -60.5t-60.5 -25.5q-34 0 -56 20.5t-22 52.5q0 37 24.5 61.5t61.5 24.5q33 0 54.5 -20.5t21.5 -52.5zM365 856q0 -35 -23.5 -60.5t-60.5 -25.5q-35 0 -56.5 20.5t-21.5 52.5q0 37 24.5 61.5t60.5 24.5q34 0 55.5 -20.5t21.5 -52.5zM383 301l-54 -301 h-166l53 301l-181 407h186l101 -268l203 268h202z"/>
<glyph unicode="Ź" glyph-name="Zacute" horiz-adv-x="620" d="M421 764h-122l129 144h163zM-31 0l25 144l412 422h-307l25 142h524l-24 -134l-417 -429h351l-26 -145h-563z"/>
<glyph unicode="ź" glyph-name="zacute" horiz-adv-x="509" d="M333 572h-122l129 144h163zM-23 0l22 125l283 251h-225l21 122h422l-21 -120l-288 -254h249l-22 -124h-441z"/>
<glyph unicode="Ż" glyph-name="Zdotaccent" horiz-adv-x="620" d="M485 856q0 -18 -6.5 -34.5t-18.5 -29t-28 -19.5t-35 -7q-35 0 -58.5 21t-23.5 55q0 19 7 35.5t19 28.5t28.5 19t35.5 7q35 0 57.5 -22t22.5 -54zM-31 0l25 144l412 422h-307l25 142h524l-24 -134l-417 -429h351l-26 -145h-563z"/>
<glyph unicode="ż" glyph-name="zdotaccent" horiz-adv-x="509" d="M398 664q0 -18 -6.5 -34.5t-18.5 -29t-28 -19.5t-35 -7q-35 0 -58.5 21t-23.5 55q0 19 7 35.5t19 28.5t28.5 19t35.5 7q35 0 57.5 -22t22.5 -54zM-23 0l22 125l283 251h-225l21 122h422l-21 -120l-288 -254h249l-22 -124h-441z"/>
<glyph unicode="Ž" glyph-name="Zcaron" horiz-adv-x="620" d="M455 764h-145l-98 144h126l54 -83l83 83h127zM-31 0l25 144l412 422h-307l25 142h524l-24 -134l-417 -429h351l-26 -145h-563z"/>
<glyph unicode="ž" glyph-name="zcaron" horiz-adv-x="509" d="M366 572h-145l-98 144h126l54 -83l83 83h127zM-23 0l22 125l283 251h-225l21 122h422l-21 -120l-288 -254h249l-22 -124h-441z"/>
<glyph unicode="ƒ" glyph-name="florin" horiz-adv-x="644" d="M520 323h-148l-103 -274q-17 -45 -38 -80t-48.5 -59t-62.5 -36.5t-80 -12.5q-63 0 -113 28l66 120q11 -8 23.5 -12t23.5 -4q33 0 52 24.5t33 64.5l92 241h-114l20 113h134l30 78q15 39 33.5 77t45.5 67t65 47t93 18q42 0 74.5 -9t56.5 -25l-73 -119q-14 9 -28 12.5 t-27 3.5q-35 0 -54.5 -24.5t-33.5 -60.5l-25 -65h126z"/>
<glyph unicode="Ơ" glyph-name="Ohorn" horiz-adv-x="835" d="M629 400q0 37 -12 69.5t-34.5 56.5t-56.5 38t-77 14q-54 0 -97.5 -23t-74 -60.5t-47 -85.5t-16.5 -99q0 -37 12 -69.5t35 -56.5t56.5 -38t77.5 -14q55 0 98.5 22.5t73.5 60t46 86t16 99.5zM912 783q0 -79 -42.5 -127t-124.5 -55q57 -77 57 -188q0 -90 -30.5 -168.5 t-85.5 -137t-131.5 -92t-168.5 -33.5q-81 0 -145 22t-108.5 63t-68 99t-23.5 129q0 90 31 168.5t87 137t132.5 92t168.5 33.5q52 0 87.5 -7.5t61.5 -17t46 -17t41 -7.5q46 0 69 26.5t23 69.5q0 11 -2.5 23t-6.5 20l124 28q9 -26 9 -61z"/>
<glyph unicode="ơ" glyph-name="ohorn" horiz-adv-x="636" d="M422 277q0 45 -27.5 75t-77.5 30q-32 0 -58 -13t-44 -35t-28 -51t-10 -61q0 -45 27 -74.5t77 -29.5q32 0 58 12.5t44.5 34.5t28.5 51t10 61zM703 591q0 -77 -39.5 -124.5t-116.5 -56.5q16 -25 24.5 -54t8.5 -62q0 -63 -21 -119t-61 -98t-96.5 -66.5t-128.5 -24.5 q-54 0 -100.5 15t-80 43.5t-53 69t-19.5 91.5q0 62 21 118t60.5 98t95.5 67t127 25q33 0 56 -4.5t41 -9.5t33.5 -9.5t33.5 -4.5q45 0 68 26.5t23 69.5q0 25 -8 43l123 28q9 -26 9 -61z"/>
<glyph unicode="Ư" glyph-name="Uhorn" horiz-adv-x="737" d="M658 260q-11 -63 -36 -114.5t-65.5 -87.5t-96.5 -56t-129 -20q-64 0 -115.5 15.5t-88 44t-56 69.5t-19.5 92q0 14 1.5 30t3.5 31l78 444h165l-76 -429q-2 -10 -2.5 -21t-0.5 -20q0 -22 6.5 -42t20.5 -35.5t37 -24.5t55 -9q42 0 69.5 13.5t45 35t26.5 48t14 53.5l77 431 h100q46 0 69 26t23 69q0 12 -2.5 23.5t-6.5 20.5l124 28q9 -26 9 -62q0 -37 -10 -69t-30.5 -56t-51.5 -39t-73 -18z"/>
<glyph unicode="ư" glyph-name="uhorn" horiz-adv-x="624" d="M504 103q-4 -19 -8.5 -49t-6.5 -54h-152q1 12 3.5 34.5t4.5 37.5h-3q-23 -36 -63.5 -60.5t-92.5 -24.5q-41 0 -71 12.5t-49.5 33.5t-28.5 48.5t-9 57.5q0 13 1 26.5t4 27.5l53 305h161l-48 -270q-2 -11 -3 -21.5t-1 -20.5q0 -27 14.5 -47t51.5 -20q22 0 39.5 9t30.5 24 t22 35t13 42l48 269h96q45 0 68 26.5t23 69.5q0 11 -2.5 23t-5.5 20l123 28q9 -26 9 -61q0 -37 -10 -69t-30.5 -56t-51.5 -39t-73 -18z"/>
<glyph unicode="ǀ" glyph-name="clickdental" horiz-adv-x="241" d="M56 -250l-1 1000h131v-1000h-130z"/>
<glyph unicode="ǁ" glyph-name="clicklateral" horiz-adv-x="482" d="M297 -250l-1 1000h131v-1000h-130zM56 -250l-1 1000h131v-1000h-130z"/>
<glyph unicode="ǃ" glyph-name="clickretroflex" horiz-adv-x="353" d="M236 92q0 -21 -7.5 -39t-20 -31.5t-30.5 -21.5t-39 -8q-40 0 -65 23.5t-25 60.5q0 21 7.5 39t21 31.5t31 21.5t38.5 8q39 0 64 -24t25 -60zM80 236l83 472h164l-84 -472h-163z"/>
<glyph unicode="Ǆ" glyph-name="DZcaron" horiz-adv-x="1689" d="M1215 783h-145l-98 144h126l54 -83l83 83h127zM738 0l25 144l412 422h-307l25 142h524l-24 -134l-417 -429h351l-26 -145h-563zM207 144h107q62 0 109.5 20.5t79 55t47.5 79t16 91.5q0 36 -11.5 68.5t-35.5 56.5t-60.5 38t-86.5 14h-91zM143 708h262q60 0 119.5 -16.5 t107 -52.5t77.5 -92.5t30 -136.5q0 -93 -32.5 -169t-90.5 -129.5t-137 -82.5t-172 -29h-289z"/>
<glyph unicode="ǅ" glyph-name="Dzcaron" horiz-adv-x="1578" d="M1105 573h-145l-98 144h126l54 -83l83 83h127zM746 0l22 125l283 251h-225l21 122h422l-21 -120l-288 -254h249l-22 -124h-441zM207 144h107q62 0 109.5 20.5t79 55t47.5 79t16 91.5q0 36 -11.5 68.5t-35.5 56.5t-60.5 38t-86.5 14h-91zM143 708h262q60 0 119.5 -16.5 t107 -52.5t77.5 -92.5t30 -136.5q0 -93 -32.5 -169t-90.5 -129.5t-137 -82.5t-172 -29h-289z"/>
<glyph unicode="ǆ" glyph-name="dzcaron" horiz-adv-x="1465" d="M1002 573h-145l-98 144h126l54 -83l83 83h127zM633 0l22 125l283 251h-225l21 122h422l-21 -120l-288 -254h249l-22 -124h-441zM179 223q0 -45 26 -75t77 -30q30 0 56 12.5t45 34.5t29.5 51t10.5 61q0 46 -28 75.5t-76 29.5q-32 0 -58 -12.5t-44 -34t-28 -50.5t-10 -62z M507 756h160l-134 -756h-147l12 68h-3q-26 -38 -70 -59t-99 -21q-48 0 -86.5 16t-65 44.5t-40.5 67.5t-14 86q0 64 20.5 120t57 98t87 66.5t110.5 24.5q55 0 95 -21t60 -56h2z"/>
<glyph unicode="Ǉ" glyph-name="LJ" horiz-adv-x="1050" d="M967 239q-8 -43 -22 -89t-42 -83.5t-74 -61.5t-117 -24q-91 0 -148 44.5t-73 120.5l154 50q4 -27 21 -46t45 -19q44 0 63 31t27 78l82 468h168zM18 0l125 708h167l-100 -563h278l-26 -145h-444z"/>
<glyph unicode="ǈ" glyph-name="Lj" horiz-adv-x="822" d="M821 665q0 -20 -7 -37t-19.5 -30.5t-29.5 -21t-37 -7.5q-38 0 -62.5 22.5t-24.5 57.5q0 41 27.5 68.5t67.5 27.5q37 0 61 -23t24 -57zM696 -19q-8 -45 -22.5 -86t-40 -72t-66 -49t-101.5 -18q-17 0 -36 2.5t-33 6.5l29 133q9 -3 18 -4t16 -1q37 0 52.5 24.5t22.5 63.5 l91 517h161zM18 0l125 708h167l-100 -563h278l-26 -145h-444z"/>
<glyph unicode="ǉ" glyph-name="lj" horiz-adv-x="592" d="M591 665q0 -20 -7 -37t-19.5 -30.5t-29.5 -21t-37 -7.5q-38 0 -62.5 22.5t-24.5 57.5q0 41 27.5 68.5t67.5 27.5q37 0 61 -23t24 -57zM466 -19q-8 -45 -22.5 -86t-40 -72t-66 -49t-101.5 -18q-17 0 -36 2.5t-33 6.5l29 133q9 -3 18 -4t16 -1q37 0 52.5 24.5t22.5 63.5 l91 517h161zM10 0l133 756h163l-134 -756h-162z"/>
<glyph unicode="Ǌ" glyph-name="NJ" horiz-adv-x="1314" d="M1231 239q-8 -43 -22 -89t-42 -83.5t-74 -61.5t-117 -24q-91 0 -148 44.5t-73 120.5l154 50q4 -27 21 -46t45 -19q44 0 63 31t27 78l82 468h168zM460 0l-195 470h-3l-80 -470h-164l125 708h187l194 -467h2l80 467h164l-125 -708h-185z"/>
<glyph unicode="ǋ" glyph-name="Nj" horiz-adv-x="1086" d="M1085 665q0 -20 -7 -37t-19.5 -30.5t-29.5 -21t-37 -7.5q-38 0 -62.5 22.5t-24.5 57.5q0 41 27.5 68.5t67.5 27.5q37 0 61 -23t24 -57zM960 -19q-8 -45 -22.5 -86t-40 -72t-66 -49t-101.5 -18q-17 0 -36 2.5t-33 6.5l29 133q9 -3 18 -4t16 -1q37 0 52.5 24.5t22.5 63.5 l91 517h161zM460 0l-195 470h-3l-80 -470h-164l125 708h187l194 -467h2l80 467h164l-125 -708h-185z"/>
<glyph unicode="ǌ" glyph-name="nj" horiz-adv-x="912" d="M911 665q0 -20 -7 -37t-19.5 -30.5t-29.5 -21t-37 -7.5q-38 0 -62.5 22.5t-24.5 57.5q0 41 27.5 68.5t67.5 27.5q37 0 61 -23t24 -57zM786 -19q-8 -45 -22.5 -86t-40 -72t-66 -49t-101.5 -18q-17 0 -36 2.5t-33 6.5l29 133q9 -3 18 -4t16 -1q37 0 52.5 24.5t22.5 63.5 l91 517h161zM241 426q24 37 64 61t92 24q42 0 72 -12t49.5 -33t28.5 -48.5t9 -57.5q0 -14 -1 -27.5t-4 -26.5l-54 -306h-160l47 270q5 23 5 42q0 28 -14.5 47.5t-51.5 19.5q-22 0 -39.5 -8.5t-31 -23.5t-22 -35t-12.5 -42l-48 -270h-160l69 395q4 19 8.5 49t6.5 54h153 q-1 -12 -3.5 -34t-4.5 -38h2z"/>
<glyph unicode="Ǎ" glyph-name="Acaron" horiz-adv-x="710" d="M528 783h-145l-98 144h126l54 -83l83 83h127zM411 526l-148 -251h185zM489 0l-24 141h-273l-85 -141h-190l451 708h162l134 -708h-175z"/>
<glyph unicode="ǎ" glyph-name="acaron" horiz-adv-x="559" d="M383 588h-145l-98 144h126l54 -83l83 83h127zM326 218q-30 0 -61 -2.5t-55.5 -10.5t-40.5 -22t-16 -37q0 -30 20.5 -40.5t45.5 -10.5q46 0 77 28.5t39 70.5l5 24h-14zM503 352q0 -14 -1.5 -30t-4.5 -31l-34 -194q-5 -26 -7.5 -53t-2.5 -44h-142q0 11 1 25.5t3 27.5h-2 q-55 -65 -152 -65q-26 0 -53.5 6.5t-50 22t-36.5 41t-14 62.5q0 60 30 98t78.5 59t110 29t123.5 8q2 9 2 14v9q0 29 -20.5 42.5t-57.5 13.5q-34 0 -68.5 -13t-62.5 -34l-66 92q45 36 103.5 55.5t115.5 19.5q45 0 83 -9.5t65.5 -29.5t43.5 -50t16 -72z"/>
<glyph unicode="Ǐ" glyph-name="Icaron" horiz-adv-x="315" d="M312 783h-145l-98 144h126l54 -83l83 83h127zM18 0l125 708h167l-125 -708h-167z"/>
<glyph unicode="ǐ" glyph-name="icaron" horiz-adv-x="294" d="M263 573h-145l-98 144h126l54 -83l83 83h127zM11 0l87 498h161l-89 -498h-159z"/>
<glyph unicode="Ǒ" glyph-name="Ocaron" horiz-adv-x="831" d="M569 801h-145l-98 144h126l54 -83l83 83h127zM395 132q55 0 98.5 22.5t73.5 60t46 86t16 99.5q0 37 -12 69.5t-34.5 56.5t-56.5 38t-77 14q-54 0 -97.5 -23t-74 -60.5t-47 -85.5t-16.5 -99q0 -37 12 -69.5t35 -56.5t56.5 -38t77.5 -14zM460 726q80 0 143.5 -22t107.5 -63 t67.5 -99t23.5 -129q0 -90 -30.5 -168.5t-85.5 -137t-131.5 -92t-168.5 -33.5q-81 0 -145 22t-108.5 63t-68 99t-23.5 129q0 90 31 168.5t87 137t132.5 92t168.5 33.5z"/>
<glyph unicode="ǒ" glyph-name="ocaron" horiz-adv-x="626" d="M424 588h-145l-98 144h126l54 -83l83 83h127zM422 277q0 45 -27.5 75t-77.5 30q-32 0 -58 -13t-44 -35t-28 -51t-10 -61q0 -45 27 -74.5t77 -29.5q32 0 58 12.5t44.5 34.5t28.5 51t10 61zM273 -14q-54 0 -100.5 15t-80 43.5t-53 69t-19.5 91.5q0 62 21 118t60.5 98 t95.5 67t127 25q55 0 102 -15t81 -43.5t53.5 -69t19.5 -91.5q0 -63 -21 -119t-61 -98t-96.5 -66.5t-128.5 -24.5z"/>
<glyph unicode="Ǔ" glyph-name="Ucaron" horiz-adv-x="737" d="M512 783h-145l-98 144h126l54 -83l83 83h127zM658 260q-11 -63 -36 -114.5t-65.5 -87.5t-96.5 -56t-129 -20q-64 0 -115.5 15.5t-88 44t-56 69.5t-19.5 92q0 14 1.5 30t3.5 31l78 444h165l-76 -429q-2 -10 -2.5 -21t-0.5 -20q0 -22 6.5 -42t20.5 -35.5t37 -24.5t55 -9 q42 0 69.5 13.5t45 35t26.5 48t14 53.5l77 431h164z"/>
<glyph unicode="ǔ" glyph-name="ucaron" horiz-adv-x="614" d="M414 573h-145l-98 144h126l54 -83l83 83h127zM342 72q-23 -36 -63.5 -60.5t-92.5 -24.5q-41 0 -71 12.5t-49.5 33.5t-28.5 48.5t-9 57.5q0 13 1 26.5t4 27.5l53 305h161l-48 -270q-2 -11 -3 -21.5t-1 -20.5q0 -27 14.5 -47t51.5 -20q22 0 39.5 9t30.5 24t22 35t13 42 l48 269h160l-70 -395q-4 -19 -8.5 -49t-6.5 -54h-152q1 12 3.5 34.5t4.5 37.5h-3z"/>
<glyph unicode="Ǖ" glyph-name="Udieresismacron" horiz-adv-x="737" d="M307 1017l14 84h334l-15 -84h-333zM645 869q0 -35 -23.5 -60.5t-60.5 -25.5q-34 0 -56 20.5t-22 52.5q0 37 24.5 61.5t61.5 24.5q33 0 54.5 -20.5t21.5 -52.5zM426 869q0 -35 -23.5 -60.5t-60.5 -25.5q-35 0 -56.5 20.5t-21.5 52.5q0 37 24.5 61.5t60.5 24.5 q34 0 55.5 -20.5t21.5 -52.5zM658 260q-11 -63 -36 -114.5t-65.5 -87.5t-96.5 -56t-129 -20q-64 0 -115.5 15.5t-88 44t-56 69.5t-19.5 92q0 14 1.5 30t3.5 31l78 444h165l-76 -429q-2 -10 -2.5 -21t-0.5 -20q0 -22 6.5 -42t20.5 -35.5t37 -24.5t55 -9q42 0 69.5 13.5t45 35 t26.5 48t14 53.5l77 431h164z"/>
<glyph unicode="ǖ" glyph-name="udieresismacron" horiz-adv-x="614" d="M183 807l14 84h334l-15 -84h-333zM522 659q0 -35 -23.5 -60.5t-60.5 -25.5q-34 0 -56 20.5t-22 52.5q0 37 24.5 61.5t61.5 24.5q33 0 54.5 -20.5t21.5 -52.5zM303 659q0 -35 -23.5 -60.5t-60.5 -25.5q-35 0 -56.5 20.5t-21.5 52.5q0 37 24.5 61.5t60.5 24.5 q34 0 55.5 -20.5t21.5 -52.5zM342 72q-23 -36 -63.5 -60.5t-92.5 -24.5q-41 0 -71 12.5t-49.5 33.5t-28.5 48.5t-9 57.5q0 13 1 26.5t4 27.5l53 305h161l-48 -270q-2 -11 -3 -21.5t-1 -20.5q0 -27 14.5 -47t51.5 -20q22 0 39.5 9t30.5 24t22 35t13 42l48 269h160l-70 -395 q-4 -19 -8.5 -49t-6.5 -54h-152q1 12 3.5 34.5t4.5 37.5h-3z"/>
<glyph unicode="Ǘ" glyph-name="Udieresisacute" horiz-adv-x="737" d="M490 1017h-122l129 144h163zM635 869q0 -35 -23.5 -60.5t-60.5 -25.5q-34 0 -56 20.5t-22 52.5q0 37 24.5 61.5t61.5 24.5q33 0 54.5 -20.5t21.5 -52.5zM416 869q0 -35 -23.5 -60.5t-60.5 -25.5q-35 0 -56.5 20.5t-21.5 52.5q0 37 24.5 61.5t60.5 24.5q34 0 55.5 -20.5 t21.5 -52.5zM658 260q-11 -63 -36 -114.5t-65.5 -87.5t-96.5 -56t-129 -20q-64 0 -115.5 15.5t-88 44t-56 69.5t-19.5 92q0 14 1.5 30t3.5 31l78 444h165l-76 -429q-2 -10 -2.5 -21t-0.5 -20q0 -22 6.5 -42t20.5 -35.5t37 -24.5t55 -9q42 0 69.5 13.5t45 35t26.5 48t14 53.5 l77 431h164z"/>
<glyph unicode="ǘ" glyph-name="udieresisacute" horiz-adv-x="614" d="M377 807h-122l129 144h163zM532 659q0 -35 -23.5 -60.5t-60.5 -25.5q-34 0 -56 20.5t-22 52.5q0 37 24.5 61.5t61.5 24.5q33 0 54.5 -20.5t21.5 -52.5zM313 659q0 -35 -23.5 -60.5t-60.5 -25.5q-35 0 -56.5 20.5t-21.5 52.5q0 37 24.5 61.5t60.5 24.5q34 0 55.5 -20.5 t21.5 -52.5zM342 72q-23 -36 -63.5 -60.5t-92.5 -24.5q-41 0 -71 12.5t-49.5 33.5t-28.5 48.5t-9 57.5q0 13 1 26.5t4 27.5l53 305h161l-48 -270q-2 -11 -3 -21.5t-1 -20.5q0 -27 14.5 -47t51.5 -20q22 0 39.5 9t30.5 24t22 35t13 42l48 269h160l-70 -395q-4 -19 -8.5 -49 t-6.5 -54h-152q1 12 3.5 34.5t4.5 37.5h-3z"/>
<glyph unicode="Ǚ" glyph-name="Udieresiscaron" horiz-adv-x="737" d="M552 1017h-145l-98 144h126l54 -83l83 83h127zM635 869q0 -35 -23.5 -60.5t-60.5 -25.5q-34 0 -56 20.5t-22 52.5q0 37 24.5 61.5t61.5 24.5q33 0 54.5 -20.5t21.5 -52.5zM416 869q0 -35 -23.5 -60.5t-60.5 -25.5q-35 0 -56.5 20.5t-21.5 52.5q0 37 24.5 61.5t60.5 24.5 q34 0 55.5 -20.5t21.5 -52.5zM658 260q-11 -63 -36 -114.5t-65.5 -87.5t-96.5 -56t-129 -20q-64 0 -115.5 15.5t-88 44t-56 69.5t-19.5 92q0 14 1.5 30t3.5 31l78 444h165l-76 -429q-2 -10 -2.5 -21t-0.5 -20q0 -22 6.5 -42t20.5 -35.5t37 -24.5t55 -9q42 0 69.5 13.5t45 35 t26.5 48t14 53.5l77 431h164z"/>
<glyph unicode="ǚ" glyph-name="udieresiscaron" horiz-adv-x="614" d="M449 807h-145l-98 144h126l54 -83l83 83h127zM540 659q0 -35 -23.5 -60.5t-60.5 -25.5q-34 0 -56 20.5t-22 52.5q0 37 24.5 61.5t61.5 24.5q33 0 54.5 -20.5t21.5 -52.5zM321 659q0 -35 -23.5 -60.5t-60.5 -25.5q-35 0 -56.5 20.5t-21.5 52.5q0 37 24.5 61.5t60.5 24.5 q34 0 55.5 -20.5t21.5 -52.5zM342 72q-23 -36 -63.5 -60.5t-92.5 -24.5q-41 0 -71 12.5t-49.5 33.5t-28.5 48.5t-9 57.5q0 13 1 26.5t4 27.5l53 305h161l-48 -270q-2 -11 -3 -21.5t-1 -20.5q0 -27 14.5 -47t51.5 -20q22 0 39.5 9t30.5 24t22 35t13 42l48 269h160l-70 -395 q-4 -19 -8.5 -49t-6.5 -54h-152q1 12 3.5 34.5t4.5 37.5h-3z"/>
<glyph unicode="Ǜ" glyph-name="Udieresisgrave" horiz-adv-x="737" d="M522 1017h-120l-152 144h163zM635 869q0 -35 -23.5 -60.5t-60.5 -25.5q-34 0 -56 20.5t-22 52.5q0 37 24.5 61.5t61.5 24.5q33 0 54.5 -20.5t21.5 -52.5zM416 869q0 -35 -23.5 -60.5t-60.5 -25.5q-35 0 -56.5 20.5t-21.5 52.5q0 37 24.5 61.5t60.5 24.5q34 0 55.5 -20.5 t21.5 -52.5zM658 260q-11 -63 -36 -114.5t-65.5 -87.5t-96.5 -56t-129 -20q-64 0 -115.5 15.5t-88 44t-56 69.5t-19.5 92q0 14 1.5 30t3.5 31l78 444h165l-76 -429q-2 -10 -2.5 -21t-0.5 -20q0 -22 6.5 -42t20.5 -35.5t37 -24.5t55 -9q42 0 69.5 13.5t45 35t26.5 48t14 53.5 l77 431h164z"/>
<glyph unicode="ǜ" glyph-name="udieresisgrave" horiz-adv-x="614" d="M420 807h-120l-152 144h163zM532 659q0 -35 -23.5 -60.5t-60.5 -25.5q-34 0 -56 20.5t-22 52.5q0 37 24.5 61.5t61.5 24.5q33 0 54.5 -20.5t21.5 -52.5zM313 659q0 -35 -23.5 -60.5t-60.5 -25.5q-35 0 -56.5 20.5t-21.5 52.5q0 37 24.5 61.5t60.5 24.5q34 0 55.5 -20.5 t21.5 -52.5zM342 72q-23 -36 -63.5 -60.5t-92.5 -24.5q-41 0 -71 12.5t-49.5 33.5t-28.5 48.5t-9 57.5q0 13 1 26.5t4 27.5l53 305h161l-48 -270q-2 -11 -3 -21.5t-1 -20.5q0 -27 14.5 -47t51.5 -20q22 0 39.5 9t30.5 24t22 35t13 42l48 269h160l-70 -395q-4 -19 -8.5 -49 t-6.5 -54h-152q1 12 3.5 34.5t4.5 37.5h-3z"/>
<glyph unicode="Ǟ" glyph-name="Adieresismacron" horiz-adv-x="710" d="M316 1017l14 84h334l-15 -84h-333zM655 869q0 -35 -23.5 -60.5t-60.5 -25.5q-34 0 -56 20.5t-22 52.5q0 37 24.5 61.5t61.5 24.5q33 0 54.5 -20.5t21.5 -52.5zM436 869q0 -35 -23.5 -60.5t-60.5 -25.5q-35 0 -56.5 20.5t-21.5 52.5q0 37 24.5 61.5t60.5 24.5 q34 0 55.5 -20.5t21.5 -52.5zM411 526l-148 -251h185zM489 0l-24 141h-273l-85 -141h-190l451 708h162l134 -708h-175z"/>
<glyph unicode="ǟ" glyph-name="adieresismacron" horiz-adv-x="559" d="M161 822l14 84h334l-15 -84h-333zM506 674q0 -35 -23.5 -60.5t-60.5 -25.5q-34 0 -56 20.5t-22 52.5q0 37 24.5 61.5t61.5 24.5q33 0 54.5 -20.5t21.5 -52.5zM287 674q0 -35 -23.5 -60.5t-60.5 -25.5q-35 0 -56.5 20.5t-21.5 52.5q0 37 24.5 61.5t60.5 24.5 q34 0 55.5 -20.5t21.5 -52.5zM326 218q-30 0 -61 -2.5t-55.5 -10.5t-40.5 -22t-16 -37q0 -30 20.5 -40.5t45.5 -10.5q46 0 77 28.5t39 70.5l5 24h-14zM503 352q0 -14 -1.5 -30t-4.5 -31l-34 -194q-5 -26 -7.5 -53t-2.5 -44h-142q0 11 1 25.5t3 27.5h-2q-55 -65 -152 -65 q-26 0 -53.5 6.5t-50 22t-36.5 41t-14 62.5q0 60 30 98t78.5 59t110 29t123.5 8q2 9 2 14v9q0 29 -20.5 42.5t-57.5 13.5q-34 0 -68.5 -13t-62.5 -34l-66 92q45 36 103.5 55.5t115.5 19.5q45 0 83 -9.5t65.5 -29.5t43.5 -50t16 -72z"/>
<glyph unicode="Ǡ" glyph-name="Adotmacron" horiz-adv-x="710" d="M350 1024l14 84h334l-15 -84h-333zM565 873q0 -18 -6.5 -34.5t-18.5 -29t-28 -19.5t-35 -7q-35 0 -58.5 21t-23.5 55q0 19 7 35.5t19 28.5t28.5 19t35.5 7q35 0 57.5 -22t22.5 -54zM411 526l-148 -251h185zM489 0l-24 141h-273l-85 -141h-190l451 708h162l134 -708h-175z "/>
<glyph unicode="ǡ" glyph-name="adotmacron" horiz-adv-x="559" d="M181 829l14 84h334l-15 -84h-333zM430 678q0 -18 -6.5 -34.5t-18.5 -29t-28 -19.5t-35 -7q-35 0 -58.5 21t-23.5 55q0 19 7 35.5t19 28.5t28.5 19t35.5 7q35 0 57.5 -22t22.5 -54zM326 218q-30 0 -61 -2.5t-55.5 -10.5t-40.5 -22t-16 -37q0 -30 20.5 -40.5t45.5 -10.5 q46 0 77 28.5t39 70.5l5 24h-14zM503 352q0 -14 -1.5 -30t-4.5 -31l-34 -194q-5 -26 -7.5 -53t-2.5 -44h-142q0 11 1 25.5t3 27.5h-2q-55 -65 -152 -65q-26 0 -53.5 6.5t-50 22t-36.5 41t-14 62.5q0 60 30 98t78.5 59t110 29t123.5 8q2 9 2 14v9q0 29 -20.5 42.5t-57.5 13.5 q-34 0 -68.5 -13t-62.5 -34l-66 92q45 36 103.5 55.5t115.5 19.5q45 0 83 -9.5t65.5 -29.5t43.5 -50t16 -72z"/>
<glyph unicode="Ǣ" glyph-name="AEmacron" horiz-adv-x="1025" d="M601 783l14 84h334l-15 -84h-333zM558 566h-11l-200 -278h162zM1008 566h-294l-24 -137h281l-25 -134h-279l-27 -152h322l-25 -143h-478l26 156h-224l-114 -156h-189l525 708h550z"/>
<glyph unicode="ǣ" glyph-name="aemacron" horiz-adv-x="897" d="M312 588l14 84h334l-15 -84h-333zM315 208q-36 0 -66 -3t-51.5 -10t-34 -19t-12.5 -31q0 -14 5.5 -23.5t15 -15t21.5 -8t25 -2.5q51 0 81 25.5t38 69.5l3 17h-25zM708 324q0 33 -24 55t-67 22q-27 0 -48.5 -9.5t-37.5 -23.5t-26 -31t-14 -33h216q1 5 1 10v10zM849 303 q0 -18 -3 -45.5t-9 -51.5h-357q-1 -4 -1 -9q0 -21 9.5 -37.5t24.5 -28t35 -17.5t41 -6q38 0 67 14t52 38l100 -79q-48 -51 -106.5 -73.5t-126.5 -22.5q-61 0 -112.5 22t-75.5 69q-24 -35 -72.5 -61.5t-127.5 -26.5q-32 0 -64.5 6.5t-59 22t-43 41t-16.5 64.5q0 59 30 95 t78.5 55.5t110.5 25.5t127 6q2 9 3 18.5t1 13.5q0 32 -22 44.5t-56 12.5t-68.5 -13t-61.5 -34l-67 92q45 36 103.5 55.5t115.5 19.5q70 0 106.5 -20.5t50.5 -53.5q26 31 70 52.5t105 21.5q49 0 89 -14t69 -40.5t45 -65.5t16 -90z"/>
<glyph unicode="Ǧ" glyph-name="Gcaron" horiz-adv-x="749" d="M538 802h-145l-98 144h126l54 -83l83 83h127zM401 126q30 1 55.5 5.5t47.5 15.5l23 133h-138l25 137h291l-65 -374q-54 -28 -121.5 -45t-139.5 -17q-76 0 -138.5 21.5t-106.5 61.5t-68.5 97t-24.5 128q0 91 31.5 171t88 139.5t133 93.5t166.5 34q84 0 152.5 -26.5 t107.5 -78.5l-121 -109q-20 29 -54.5 48.5t-87.5 19.5q-52 0 -96.5 -22t-77 -59.5t-51 -87t-18.5 -104.5q0 -39 12 -72.5t36 -58t59 -38t80 -13.5z"/>
<glyph unicode="ǧ" glyph-name="gcaron" horiz-adv-x="656" d="M516 586h-145l-98 144h126l54 -83l83 83h127zM182 223q0 -21 6 -40t19 -33.5t32 -23t46 -8.5q31 0 57.5 13t45.5 35.5t29.5 51t10.5 60.5q0 48 -28.5 76.5t-76.5 28.5q-33 0 -59 -13t-44 -35t-28 -51t-10 -61zM459 432l11 66h151l-79 -452q-12 -69 -36 -122.5t-62 -89.5 t-93 -55t-128 -19q-33 0 -67.5 5.5t-67.5 16t-62.5 26t-50.5 36.5l90 113q29 -32 71.5 -49.5t85.5 -17.5q40 0 67.5 10.5t46.5 29.5t30 44t17 55l7 33h-3q-21 -27 -61.5 -47t-91.5 -20q-50 0 -89 15.5t-66 43t-41 65.5t-14 84q0 64 20.5 120t57 98t87 66t111.5 24 q54 0 94.5 -20.5t61.5 -58.5h3z"/>
<glyph unicode="Ǩ" glyph-name="Kcaron" horiz-adv-x="679" d="M491 783h-145l-98 144h126l54 -83l83 83h127zM447 0l-205 333h-3l-58 -333h-163l125 708h163l-53 -297h3l281 297h212l-347 -337l252 -371h-207z"/>
<glyph unicode="ǩ" glyph-name="kcaron" horiz-adv-x="572" d="M304 831h-145l-98 144h126l54 -83l83 83h127zM342 0l-127 239h-3l-42 -239h-160l133 756h161l-82 -460h3l189 202h202l-240 -233l157 -265h-191z"/>
<glyph unicode="Ǫ" glyph-name="Oogonek" horiz-adv-x="831" d="M395 132q55 0 98.5 22.5t73.5 60t46 86t16 99.5q0 37 -12 69.5t-34.5 56.5t-56.5 38t-77 14q-54 0 -97.5 -23t-74 -60.5t-47 -85.5t-16.5 -99q0 -37 12 -69.5t35 -56.5t56.5 -38t77.5 -14zM460 726q80 0 143.5 -22t107.5 -63t67.5 -99t23.5 -129q0 -63 -12 -115 t-34.5 -95.5t-54.5 -80t-72 -67.5q-32 -25 -69.5 -47.5t-69.5 -46t-53.5 -50t-21.5 -60.5q0 -14 9 -20.5t24 -6.5q28 0 57 19l21 -61q-26 -18 -56 -29t-63 -11q-40 0 -68 18.5t-28 64.5q0 22 9 43.5t23.5 42t32.5 39t37 33.5q-7 0 -13.5 -0.5t-13.5 -0.5q-81 0 -145 22 t-108.5 63t-68 99t-23.5 129q0 90 31 168.5t87 137t132.5 92t168.5 33.5z"/>
<glyph unicode="ǫ" glyph-name="oogonek" horiz-adv-x="626" d="M422 277q0 45 -27.5 75t-77.5 30q-32 0 -58 -13t-44 -35t-28 -51t-10 -61q0 -45 27 -74.5t77 -29.5q32 0 58 12.5t44.5 34.5t28.5 51t10 61zM273 -14q-54 0 -100.5 15t-80 43.5t-53 69t-19.5 91.5q0 62 21 118t60.5 98t95.5 67t127 25q55 0 102 -15t81 -43.5t53.5 -69 t19.5 -91.5q0 -45 -12 -82t-33.5 -69.5t-51.5 -63t-65 -61.5q-23 -20 -45 -39.5t-39 -39.5t-27.5 -41t-10.5 -43q0 -14 9 -20.5t24 -6.5q28 0 57 19l21 -61q-26 -18 -56 -29t-63 -11q-40 0 -68 18.5t-28 64.5q0 24 8 46t21.5 42t30 37.5t34.5 32.5q-3 0 -6.5 -0.5t-6.5 -0.5 z"/>
<glyph unicode="Ǭ" glyph-name="Oogonekmacron" horiz-adv-x="831" d="M327 801l14 84h334l-15 -84h-333zM395 132q55 0 98.5 22.5t73.5 60t46 86t16 99.5q0 37 -12 69.5t-34.5 56.5t-56.5 38t-77 14q-54 0 -97.5 -23t-74 -60.5t-47 -85.5t-16.5 -99q0 -37 12 -69.5t35 -56.5t56.5 -38t77.5 -14zM460 726q80 0 143.5 -22t107.5 -63t67.5 -99 t23.5 -129q0 -63 -12 -115t-34.5 -95.5t-54.5 -80t-72 -67.5q-32 -25 -69.5 -47.5t-69.5 -46t-53.5 -50t-21.5 -60.5q0 -14 9 -20.5t24 -6.5q28 0 57 19l21 -61q-26 -18 -56 -29t-63 -11q-40 0 -68 18.5t-28 64.5q0 22 9 43.5t23.5 42t32.5 39t37 33.5q-7 0 -13.5 -0.5 t-13.5 -0.5q-81 0 -145 22t-108.5 63t-68 99t-23.5 129q0 90 31 168.5t87 137t132.5 92t168.5 33.5z"/>
<glyph unicode="ǭ" glyph-name="oogonekmacron" horiz-adv-x="626" d="M176 588l14 84h334l-15 -84h-333zM422 277q0 45 -27.5 75t-77.5 30q-32 0 -58 -13t-44 -35t-28 -51t-10 -61q0 -45 27 -74.5t77 -29.5q32 0 58 12.5t44.5 34.5t28.5 51t10 61zM273 -14q-54 0 -100.5 15t-80 43.5t-53 69t-19.5 91.5q0 62 21 118t60.5 98t95.5 67t127 25 q55 0 102 -15t81 -43.5t53.5 -69t19.5 -91.5q0 -45 -12 -82t-33.5 -69.5t-51.5 -63t-65 -61.5q-23 -20 -45 -39.5t-39 -39.5t-27.5 -41t-10.5 -43q0 -14 9 -20.5t24 -6.5q28 0 57 19l21 -61q-26 -18 -56 -29t-63 -11q-40 0 -68 18.5t-28 64.5q0 24 8 46t21.5 42t30 37.5 t34.5 32.5q-3 0 -6.5 -0.5t-6.5 -0.5z"/>
<glyph unicode="Ǳ" glyph-name="DZ" horiz-adv-x="1389" d="M738 0l25 144l412 422h-307l25 142h524l-24 -134l-417 -429h351l-26 -145h-563zM207 144h107q62 0 109.5 20.5t79 55t47.5 79t16 91.5q0 36 -11.5 68.5t-35.5 56.5t-60.5 38t-86.5 14h-91zM143 708h262q60 0 119.5 -16.5t107 -52.5t77.5 -92.5t30 -136.5 q0 -93 -32.5 -169t-90.5 -129.5t-137 -82.5t-172 -29h-289z"/>
<glyph unicode="ǲ" glyph-name="Dz" horiz-adv-x="1278" d="M746 0l22 125l283 251h-225l21 122h422l-21 -120l-288 -254h249l-22 -124h-441zM207 144h107q62 0 109.5 20.5t79 55t47.5 79t16 91.5q0 36 -11.5 68.5t-35.5 56.5t-60.5 38t-86.5 14h-91zM143 708h262q60 0 119.5 -16.5t107 -52.5t77.5 -92.5t30 -136.5 q0 -93 -32.5 -169t-90.5 -129.5t-137 -82.5t-172 -29h-289z"/>
<glyph unicode="ǳ" glyph-name="dz" horiz-adv-x="1165" d="M633 0l22 125l283 251h-225l21 122h422l-21 -120l-288 -254h249l-22 -124h-441zM179 223q0 -45 26 -75t77 -30q30 0 56 12.5t45 34.5t29.5 51t10.5 61q0 46 -28 75.5t-76 29.5q-32 0 -58 -12.5t-44 -34t-28 -50.5t-10 -62zM507 756h160l-134 -756h-147l12 68h-3 q-26 -38 -70 -59t-99 -21q-48 0 -86.5 16t-65 44.5t-40.5 67.5t-14 86q0 64 20.5 120t57 98t87 66.5t110.5 24.5q55 0 95 -21t60 -56h2z"/>
<glyph unicode="Ǵ" glyph-name="Gacute" horiz-adv-x="749" d="M516 802h-122l129 144h163zM401 126q30 1 55.5 5.5t47.5 15.5l23 133h-138l25 137h291l-65 -374q-54 -28 -121.5 -45t-139.5 -17q-76 0 -138.5 21.5t-106.5 61.5t-68.5 97t-24.5 128q0 91 31.5 171t88 139.5t133 93.5t166.5 34q84 0 152.5 -26.5t107.5 -78.5l-121 -109 q-20 29 -54.5 48.5t-87.5 19.5q-52 0 -96.5 -22t-77 -59.5t-51 -87t-18.5 -104.5q0 -39 12 -72.5t36 -58t59 -38t80 -13.5z"/>
<glyph unicode="ǵ" glyph-name="gacute" horiz-adv-x="656" d="M434 586h-122l129 144h163zM182 223q0 -21 6 -40t19 -33.5t32 -23t46 -8.5q31 0 57.5 13t45.5 35.5t29.5 51t10.5 60.5q0 48 -28.5 76.5t-76.5 28.5q-33 0 -59 -13t-44 -35t-28 -51t-10 -61zM459 432l11 66h151l-79 -452q-12 -69 -36 -122.5t-62 -89.5t-93 -55t-128 -19 q-33 0 -67.5 5.5t-67.5 16t-62.5 26t-50.5 36.5l90 113q29 -32 71.5 -49.5t85.5 -17.5q40 0 67.5 10.5t46.5 29.5t30 44t17 55l7 33h-3q-21 -27 -61.5 -47t-91.5 -20q-50 0 -89 15.5t-66 43t-41 65.5t-14 84q0 64 20.5 120t57 98t87 66t111.5 24q54 0 94.5 -20.5t61.5 -58.5 h3z"/>
<glyph unicode="Ǹ" glyph-name="Ngrave" horiz-adv-x="789" d="M516 783h-120l-152 144h163zM460 0l-195 470h-3l-80 -470h-164l125 708h187l194 -467h2l80 467h164l-125 -708h-185z"/>
<glyph unicode="ǹ" glyph-name="ngrave" horiz-adv-x="615" d="M389 586h-120l-152 144h163zM241 426q24 37 64 61t92 24q42 0 72 -12t49.5 -33t28.5 -48.5t9 -57.5q0 -14 -1 -27.5t-4 -26.5l-54 -306h-160l47 270q5 23 5 42q0 28 -14.5 47.5t-51.5 19.5q-22 0 -39.5 -8.5t-31 -23.5t-22 -35t-12.5 -42l-48 -270h-160l69 395 q4 19 8.5 49t6.5 54h153q-1 -12 -3.5 -34t-4.5 -38h2z"/>
<glyph unicode="Ǻ" glyph-name="Aringacute" horiz-adv-x="710" d="M536 1070h-122l129 144h163zM547 900q0 20 -13 35t-36 15q-29 0 -47 -21t-18 -51q0 -21 12.5 -35.5t35.5 -14.5q29 0 47.5 21t18.5 51zM477 783q-42 0 -67.5 25.5t-25.5 63.5q0 25 9 47.5t24.5 39.5t37.5 26.5t48 9.5q42 0 67.5 -25t25.5 -63q0 -26 -9 -48.5t-24.5 -39.5 t-37.5 -26.5t-48 -9.5zM411 526l-148 -251h185zM489 0l-24 141h-273l-85 -141h-190l451 708h162l134 -708h-175z"/>
<glyph unicode="ǻ" glyph-name="aringacute" horiz-adv-x="559" d="M371 875h-122l129 144h163zM392 705q0 20 -13 35t-36 15q-29 0 -47 -21t-18 -51q0 -21 12.5 -35.5t35.5 -14.5q29 0 47.5 21t18.5 51zM322 588q-42 0 -67.5 25.5t-25.5 63.5q0 25 9 47.5t24.5 39.5t37.5 26.5t48 9.5q42 0 67.5 -25t25.5 -63q0 -26 -9 -48.5t-24.5 -39.5 t-37.5 -26.5t-48 -9.5zM326 218q-30 0 -61 -2.5t-55.5 -10.5t-40.5 -22t-16 -37q0 -30 20.5 -40.5t45.5 -10.5q46 0 77 28.5t39 70.5l5 24h-14zM503 352q0 -14 -1.5 -30t-4.5 -31l-34 -194q-5 -26 -7.5 -53t-2.5 -44h-142q0 11 1 25.5t3 27.5h-2q-55 -65 -152 -65 q-26 0 -53.5 6.5t-50 22t-36.5 41t-14 62.5q0 60 30 98t78.5 59t110 29t123.5 8q2 9 2 14v9q0 29 -20.5 42.5t-57.5 13.5q-34 0 -68.5 -13t-62.5 -34l-66 92q45 36 103.5 55.5t115.5 19.5q45 0 83 -9.5t65.5 -29.5t43.5 -50t16 -72z"/>
<glyph unicode="Ǽ" glyph-name="AEacute" horiz-adv-x="1025" d="M771 783h-122l129 144h163zM558 566h-11l-200 -278h162zM1008 566h-294l-24 -137h281l-25 -134h-279l-27 -152h322l-25 -143h-478l26 156h-224l-114 -156h-189l525 708h550z"/>
<glyph unicode="ǽ" glyph-name="aeacute" horiz-adv-x="897" d="M532 588h-122l129 144h163zM315 208q-36 0 -66 -3t-51.5 -10t-34 -19t-12.5 -31q0 -14 5.5 -23.5t15 -15t21.5 -8t25 -2.5q51 0 81 25.5t38 69.5l3 17h-25zM708 324q0 33 -24 55t-67 22q-27 0 -48.5 -9.5t-37.5 -23.5t-26 -31t-14 -33h216q1 5 1 10v10zM849 303 q0 -18 -3 -45.5t-9 -51.5h-357q-1 -4 -1 -9q0 -21 9.5 -37.5t24.5 -28t35 -17.5t41 -6q38 0 67 14t52 38l100 -79q-48 -51 -106.5 -73.5t-126.5 -22.5q-61 0 -112.5 22t-75.5 69q-24 -35 -72.5 -61.5t-127.5 -26.5q-32 0 -64.5 6.5t-59 22t-43 41t-16.5 64.5q0 59 30 95 t78.5 55.5t110.5 25.5t127 6q2 9 3 18.5t1 13.5q0 32 -22 44.5t-56 12.5t-68.5 -13t-61.5 -34l-67 92q45 36 103.5 55.5t115.5 19.5q70 0 106.5 -20.5t50.5 -53.5q26 31 70 52.5t105 21.5q49 0 89 -14t69 -40.5t45 -65.5t16 -90z"/>
<glyph unicode="Ǿ" glyph-name="Oslashacute" horiz-adv-x="831" d="M490 827h-122l129 144h163zM633 401q0 43 -19 83l-344 -315q20 -20 51 -31t69 -11q60 0 105 23.5t76 62t46.5 88t15.5 100.5zM564 549q-21 16 -49 25t-63 9q-59 0 -104.5 -23.5t-76.5 -62.5t-47.5 -88.5t-16.5 -101.5q0 -38 14 -71zM742 605q60 -78 60 -192 q0 -90 -30.5 -168.5t-85.5 -137t-131.5 -92t-168.5 -33.5q-75 0 -135.5 19.5t-105.5 56.5l-100 -91l-57 58l101 93q-48 74 -48 177q0 90 31 168.5t87 137t132.5 92t168.5 33.5q69 0 125 -16.5t101 -48.5l97 91l58 -58z"/>
<glyph unicode="ǿ" glyph-name="oslashacute" horiz-adv-x="626" d="M404 608h-122l129 144h163zM424 271q0 22 -6 37l-199 -171q11 -10 27.5 -16t36.5 -6q33 0 59.5 13t44.5 34.5t27.5 49.5t9.5 59zM378 366q-24 19 -61 19q-33 0 -59.5 -13t-44.5 -34.5t-28 -49.5t-10 -58q0 -9 1 -18.5t4 -17.5zM544 411q36 -50 36 -117q0 -63 -21 -119 t-61 -98t-96.5 -66.5t-128.5 -24.5q-48 0 -90.5 12.5t-74.5 36.5l-85 -73l-47 58l80 68q-17 24 -26.5 55t-9.5 64q0 60 21 115.5t60.5 98t95.5 67.5t127 25q51 0 93 -13t74 -36l81 69l49 -56z"/>
<glyph unicode="Ȁ" glyph-name="Adblgrave" horiz-adv-x="710" d="M413 783h-120l-152 144h163zM640 783h-120l-152 144h163zM411 526l-148 -251h185zM489 0l-24 141h-273l-85 -141h-190l451 708h162l134 -708h-175z"/>
<glyph unicode="ȁ" glyph-name="adblgrave" horiz-adv-x="559" d="M248 588h-120l-152 144h163zM475 588h-120l-152 144h163zM326 218q-30 0 -61 -2.5t-55.5 -10.5t-40.5 -22t-16 -37q0 -30 20.5 -40.5t45.5 -10.5q46 0 77 28.5t39 70.5l5 24h-14zM503 352q0 -14 -1.5 -30t-4.5 -31l-34 -194q-5 -26 -7.5 -53t-2.5 -44h-142q0 11 1 25.5 t3 27.5h-2q-55 -65 -152 -65q-26 0 -53.5 6.5t-50 22t-36.5 41t-14 62.5q0 60 30 98t78.5 59t110 29t123.5 8q2 9 2 14v9q0 29 -20.5 42.5t-57.5 13.5q-34 0 -68.5 -13t-62.5 -34l-66 92q45 36 103.5 55.5t115.5 19.5q45 0 83 -9.5t65.5 -29.5t43.5 -50t16 -72z"/>
<glyph unicode="Ȃ" glyph-name="Ainvertedbreve" horiz-adv-x="710" d="M307 783q9 39 27 66t42.5 44.5t55 25.5t64.5 8t63 -7.5t50 -25t32.5 -45t11.5 -66.5h-82q0 16 -7 27t-18 18q-23 12 -55 12q-36 0 -64 -11t-38 -46h-82zM411 526l-148 -251h185zM489 0l-24 141h-273l-85 -141h-190l451 708h162l134 -708h-175z"/>
<glyph unicode="ȃ" glyph-name="ainvertedbreve" horiz-adv-x="559" d="M172 588q9 39 27 66t42.5 44.5t55 25.5t64.5 8t63 -7.5t50 -25t32.5 -45t11.5 -66.5h-82q0 16 -7 27t-18 18q-23 12 -55 12q-36 0 -64 -11t-38 -46h-82zM326 218q-30 0 -61 -2.5t-55.5 -10.5t-40.5 -22t-16 -37q0 -30 20.5 -40.5t45.5 -10.5q46 0 77 28.5t39 70.5l5 24 h-14zM503 352q0 -14 -1.5 -30t-4.5 -31l-34 -194q-5 -26 -7.5 -53t-2.5 -44h-142q0 11 1 25.5t3 27.5h-2q-55 -65 -152 -65q-26 0 -53.5 6.5t-50 22t-36.5 41t-14 62.5q0 60 30 98t78.5 59t110 29t123.5 8q2 9 2 14v9q0 29 -20.5 42.5t-57.5 13.5q-34 0 -68.5 -13t-62.5 -34 l-66 92q45 36 103.5 55.5t115.5 19.5q45 0 83 -9.5t65.5 -29.5t43.5 -50t16 -72z"/>
<glyph unicode="Ȅ" glyph-name="Edblgrave" d="M320 783h-120l-152 144h163zM547 783h-120l-152 144h163zM18 0l125 708h453l-25 -142h-294l-24 -137h280l-24 -134h-280l-26 -152h322l-25 -143h-482z"/>
<glyph unicode="ȅ" glyph-name="edblgrave" d="M283 588h-120l-152 144h163zM510 588h-120l-152 144h163zM397 304q1 5 1 10v10q0 33 -23.5 55t-67.5 22q-27 0 -48.5 -9.5t-37.5 -23.5t-26 -31t-14 -33h216zM170 206q-1 -4 -1 -9q0 -21 9.5 -37.5t25 -28t35 -17.5t40.5 -6q38 0 67 14t52 38l101 -79q-48 -51 -107 -73.5 t-127 -22.5q-52 0 -96.5 14.5t-77.5 43t-52 70.5t-19 96q0 64 22.5 119.5t62 96.5t94.5 64.5t121 23.5q49 0 89.5 -14t69.5 -40.5t45 -65.5t16 -90q0 -18 -3.5 -45.5t-9.5 -51.5h-357z"/>
<glyph unicode="Ȇ" glyph-name="Einvertedbreve" d="M224 783q9 39 27 66t42.5 44.5t55 25.5t64.5 8t63 -7.5t50 -25t32.5 -45t11.5 -66.5h-82q0 16 -7 27t-18 18q-23 12 -55 12q-36 0 -64 -11t-38 -46h-82zM18 0l125 708h453l-25 -142h-294l-24 -137h280l-24 -134h-280l-26 -152h322l-25 -143h-482z"/>
<glyph unicode="ȇ" glyph-name="einvertedbreve" d="M207 588q9 39 27 66t42.5 44.5t55 25.5t64.5 8t63 -7.5t50 -25t32.5 -45t11.5 -66.5h-82q0 16 -7 27t-18 18q-23 12 -55 12q-36 0 -64 -11t-38 -46h-82zM397 304q1 5 1 10v10q0 33 -23.5 55t-67.5 22q-27 0 -48.5 -9.5t-37.5 -23.5t-26 -31t-14 -33h216zM170 206 q-1 -4 -1 -9q0 -21 9.5 -37.5t25 -28t35 -17.5t40.5 -6q38 0 67 14t52 38l101 -79q-48 -51 -107 -73.5t-127 -22.5q-52 0 -96.5 14.5t-77.5 43t-52 70.5t-19 96q0 64 22.5 119.5t62 96.5t94.5 64.5t121 23.5q49 0 89.5 -14t69.5 -40.5t45 -65.5t16 -90q0 -18 -3.5 -45.5 t-9.5 -51.5h-357z"/>
<glyph unicode="Ȉ" glyph-name="Idblgrave" horiz-adv-x="315" d="M187 783h-120l-152 144h163zM414 783h-120l-152 144h163zM18 0l125 708h167l-125 -708h-167z"/>
<glyph unicode="ȉ" glyph-name="idblgrave" horiz-adv-x="294" d="M148 573h-120l-152 144h163zM375 573h-120l-152 144h163zM11 0l87 498h161l-89 -498h-159z"/>
<glyph unicode="Ȋ" glyph-name="Iinvertedbreve" horiz-adv-x="315" d="M86 783q9 39 27 66t42.5 44.5t55 25.5t64.5 8t63 -7.5t50 -25t32.5 -45t11.5 -66.5h-82q0 16 -7 27t-18 18q-23 12 -55 12q-36 0 -64 -11t-38 -46h-82zM18 0l125 708h167l-125 -708h-167z"/>
<glyph unicode="ȋ" glyph-name="iinvertedbreve" horiz-adv-x="294" d="M32 573q9 39 27 66t42.5 44.5t55 25.5t64.5 8t63 -7.5t50 -25t32.5 -45t11.5 -66.5h-82q0 16 -7 27t-18 18q-23 12 -55 12q-36 0 -64 -11t-38 -46h-82zM11 0l87 498h161l-89 -498h-159z"/>
<glyph unicode="Ȍ" glyph-name="Odblgrave" horiz-adv-x="831" d="M454 801h-120l-152 144h163zM681 801h-120l-152 144h163zM395 132q55 0 98.5 22.5t73.5 60t46 86t16 99.5q0 37 -12 69.5t-34.5 56.5t-56.5 38t-77 14q-54 0 -97.5 -23t-74 -60.5t-47 -85.5t-16.5 -99q0 -37 12 -69.5t35 -56.5t56.5 -38t77.5 -14zM460 726 q80 0 143.5 -22t107.5 -63t67.5 -99t23.5 -129q0 -90 -30.5 -168.5t-85.5 -137t-131.5 -92t-168.5 -33.5q-81 0 -145 22t-108.5 63t-68 99t-23.5 129q0 90 31 168.5t87 137t132.5 92t168.5 33.5z"/>
<glyph unicode="ȍ" glyph-name="odblgrave" horiz-adv-x="626" d="M293 588h-120l-152 144h163zM520 588h-120l-152 144h163zM422 277q0 45 -27.5 75t-77.5 30q-32 0 -58 -13t-44 -35t-28 -51t-10 -61q0 -45 27 -74.5t77 -29.5q32 0 58 12.5t44.5 34.5t28.5 51t10 61zM273 -14q-54 0 -100.5 15t-80 43.5t-53 69t-19.5 91.5q0 62 21 118 t60.5 98t95.5 67t127 25q55 0 102 -15t81 -43.5t53.5 -69t19.5 -91.5q0 -63 -21 -119t-61 -98t-96.5 -66.5t-128.5 -24.5z"/>
<glyph unicode="Ȏ" glyph-name="Oinvertedbreve" horiz-adv-x="831" d="M328 801q9 39 27 66t42.5 44.5t55 25.5t64.5 8t63 -7.5t50 -25t32.5 -45t11.5 -66.5h-82q0 16 -7 27t-18 18q-23 12 -55 12q-36 0 -64 -11t-38 -46h-82zM395 132q55 0 98.5 22.5t73.5 60t46 86t16 99.5q0 37 -12 69.5t-34.5 56.5t-56.5 38t-77 14q-54 0 -97.5 -23 t-74 -60.5t-47 -85.5t-16.5 -99q0 -37 12 -69.5t35 -56.5t56.5 -38t77.5 -14zM460 726q80 0 143.5 -22t107.5 -63t67.5 -99t23.5 -129q0 -90 -30.5 -168.5t-85.5 -137t-131.5 -92t-168.5 -33.5q-81 0 -145 22t-108.5 63t-68 99t-23.5 129q0 90 31 168.5t87 137t132.5 92 t168.5 33.5z"/>
<glyph unicode="ȏ" glyph-name="oinvertedbreve" horiz-adv-x="626" d="M207 588q9 39 27 66t42.5 44.5t55 25.5t64.5 8t63 -7.5t50 -25t32.5 -45t11.5 -66.5h-82q0 16 -7 27t-18 18q-23 12 -55 12q-36 0 -64 -11t-38 -46h-82zM422 277q0 45 -27.5 75t-77.5 30q-32 0 -58 -13t-44 -35t-28 -51t-10 -61q0 -45 27 -74.5t77 -29.5q32 0 58 12.5 t44.5 34.5t28.5 51t10 61zM273 -14q-54 0 -100.5 15t-80 43.5t-53 69t-19.5 91.5q0 62 21 118t60.5 98t95.5 67t127 25q55 0 102 -15t81 -43.5t53.5 -69t19.5 -91.5q0 -63 -21 -119t-61 -98t-96.5 -66.5t-128.5 -24.5z"/>
<glyph unicode="Ȑ" glyph-name="Rdblgrave" horiz-adv-x="656" d="M318 783h-120l-152 144h163zM545 783h-120l-152 144h163zM324 404q67 0 104 22t37 70q0 44 -31 60t-83 16h-71l-30 -168h74zM603 0h-188l-119 285h-68l-48 -285h-162l125 708h242q117 0 182.5 -49.5t65.5 -138.5q0 -86 -47 -140.5t-127 -74.5z"/>
<glyph unicode="ȑ" glyph-name="rdblgrave" horiz-adv-x="379" d="M202 586h-120l-152 144h163zM429 586h-120l-152 144h163zM239 425q24 38 57.5 62t80.5 24q9 0 18.5 -1t15.5 -3l-26 -142q-11 3 -21 4t-19 1q-35 0 -59 -12t-39.5 -29.5t-23 -37.5t-10.5 -35l-45 -256h-160l71 395q4 19 8.5 49t6.5 54h152q0 -5 -1 -14.5t-2.5 -20l-3 -21 l-2.5 -17.5h2z"/>
<glyph unicode="Ȓ" glyph-name="Rinvertedbreve" horiz-adv-x="656" d="M202 783q9 39 27 66t42.5 44.5t55 25.5t64.5 8t63 -7.5t50 -25t32.5 -45t11.5 -66.5h-82q0 16 -7 27t-18 18q-23 12 -55 12q-36 0 -64 -11t-38 -46h-82zM324 404q67 0 104 22t37 70q0 44 -31 60t-83 16h-71l-30 -168h74zM603 0h-188l-119 285h-68l-48 -285h-162l125 708 h242q117 0 182.5 -49.5t65.5 -138.5q0 -86 -47 -140.5t-127 -74.5z"/>
<glyph unicode="ȓ" glyph-name="rinvertedbreve" horiz-adv-x="379" d="M90 586q9 39 27 66t42.5 44.5t55 25.5t64.5 8t63 -7.5t50 -25t32.5 -45t11.5 -66.5h-82q0 16 -7 27t-18 18q-23 12 -55 12q-36 0 -64 -11t-38 -46h-82zM239 425q24 38 57.5 62t80.5 24q9 0 18.5 -1t15.5 -3l-26 -142q-11 3 -21 4t-19 1q-35 0 -59 -12t-39.5 -29.5 t-23 -37.5t-10.5 -35l-45 -256h-160l71 395q4 19 8.5 49t6.5 54h152q0 -5 -1 -14.5t-2.5 -20l-3 -21l-2.5 -17.5h2z"/>
<glyph unicode="Ȕ" glyph-name="Udblgrave" horiz-adv-x="737" d="M377 783h-120l-152 144h163zM604 783h-120l-152 144h163zM658 260q-11 -63 -36 -114.5t-65.5 -87.5t-96.5 -56t-129 -20q-64 0 -115.5 15.5t-88 44t-56 69.5t-19.5 92q0 14 1.5 30t3.5 31l78 444h165l-76 -429q-2 -10 -2.5 -21t-0.5 -20q0 -22 6.5 -42t20.5 -35.5 t37 -24.5t55 -9q42 0 69.5 13.5t45 35t26.5 48t14 53.5l77 431h164z"/>
<glyph unicode="ȕ" glyph-name="udblgrave" horiz-adv-x="614" d="M284 573h-120l-152 144h163zM511 573h-120l-152 144h163zM342 72q-23 -36 -63.5 -60.5t-92.5 -24.5q-41 0 -71 12.5t-49.5 33.5t-28.5 48.5t-9 57.5q0 13 1 26.5t4 27.5l53 305h161l-48 -270q-2 -11 -3 -21.5t-1 -20.5q0 -27 14.5 -47t51.5 -20q22 0 39.5 9t30.5 24 t22 35t13 42l48 269h160l-70 -395q-4 -19 -8.5 -49t-6.5 -54h-152q1 12 3.5 34.5t4.5 37.5h-3z"/>
<glyph unicode="Ȗ" glyph-name="Uinvertedbreve" horiz-adv-x="737" d="M281 783q9 39 27 66t42.5 44.5t55 25.5t64.5 8t63 -7.5t50 -25t32.5 -45t11.5 -66.5h-82q0 16 -7 27t-18 18q-23 12 -55 12q-36 0 -64 -11t-38 -46h-82zM658 260q-11 -63 -36 -114.5t-65.5 -87.5t-96.5 -56t-129 -20q-64 0 -115.5 15.5t-88 44t-56 69.5t-19.5 92 q0 14 1.5 30t3.5 31l78 444h165l-76 -429q-2 -10 -2.5 -21t-0.5 -20q0 -22 6.5 -42t20.5 -35.5t37 -24.5t55 -9q42 0 69.5 13.5t45 35t26.5 48t14 53.5l77 431h164z"/>
<glyph unicode="ȗ" glyph-name="uinvertedbreve" horiz-adv-x="614" d="M188 573q9 39 27 66t42.5 44.5t55 25.5t64.5 8t63 -7.5t50 -25t32.5 -45t11.5 -66.5h-82q0 16 -7 27t-18 18q-23 12 -55 12q-36 0 -64 -11t-38 -46h-82zM342 72q-23 -36 -63.5 -60.5t-92.5 -24.5q-41 0 -71 12.5t-49.5 33.5t-28.5 48.5t-9 57.5q0 13 1 26.5t4 27.5 l53 305h161l-48 -270q-2 -11 -3 -21.5t-1 -20.5q0 -27 14.5 -47t51.5 -20q22 0 39.5 9t30.5 24t22 35t13 42l48 269h160l-70 -395q-4 -19 -8.5 -49t-6.5 -54h-152q1 12 3.5 34.5t4.5 37.5h-3z"/>
<glyph unicode="Ș" glyph-name="Scommaaccent" horiz-adv-x="585" d="M162 -240h-123l111 195h142zM472 536q-20 27 -50 41t-67 14q-17 0 -36 -4.5t-34.5 -15t-26 -26.5t-10.5 -39q0 -30 23.5 -47.5t65.5 -32.5q46 -16 82 -35.5t61 -44.5t38 -56.5t13 -71.5q0 -64 -26.5 -109t-68.5 -73.5t-94 -41.5t-103 -13q-38 0 -76 7t-73 20.5t-65 34.5 t-51 48l123 100q21 -32 62 -52t83 -20q22 0 42.5 4.5t36.5 15t25.5 27t9.5 39.5q0 37 -30 58.5t-80 38.5q-35 12 -65.5 27t-53 37t-36 52.5t-13.5 73.5q0 54 22.5 97.5t61.5 74t91 47t111 16.5q31 0 63 -6t61.5 -17.5t54.5 -28.5t42 -39z"/>
<glyph unicode="ș" glyph-name="scommaaccent" horiz-adv-x="464" d="M94 -240h-123l111 195h142zM68 159q19 -28 50.5 -42.5t64.5 -14.5q32 0 51.5 12t19.5 33q0 20 -18 31t-53 22q-35 10 -61.5 22.5t-44.5 29t-27 38t-9 50.5q0 41 18.5 73t49 54.5t71.5 34t86 11.5q58 0 108.5 -19.5t80.5 -57.5l-101 -85q-14 20 -38.5 33t-58.5 13 q-26 0 -47.5 -10t-21.5 -34q0 -17 16 -26.5t49 -18.5q70 -19 110.5 -52.5t40.5 -97.5q0 -45 -19.5 -78.5t-51 -55t-72 -32t-82.5 -10.5q-69 0 -123 23t-88 63z"/>
<glyph unicode="Ț" glyph-name="uni021A" horiz-adv-x="553" d="M156 -240h-123l111 195h142zM404 565l-100 -565h-166l99 565h-198l26 143h558l-25 -143h-194z"/>
<glyph unicode="ț" glyph-name="uni021B" horiz-adv-x="364" d="M88 -240h-123l111 195h142zM10 377l22 121h79l23 132h156l-23 -132h106l-22 -121h-103l-36 -195q-1 -7 -1.5 -14.5t-0.5 -12.5q0 -25 14 -34t38 -9q12 0 23.5 2t20.5 4l-15 -115q-14 -6 -39.5 -10.5t-48.5 -4.5q-72 0 -113.5 29t-41.5 92q0 12 1.5 27.5t4.5 29.5l38 211 h-82z"/>
<glyph unicode="Ȟ" glyph-name="Hcaron" horiz-adv-x="757" d="M522 783h-145l-98 144h126l54 -83l83 83h127zM460 0l52 298h-275l-53 -298h-166l125 708h166l-48 -269h276l47 269h167l-125 -708h-166z"/>
<glyph unicode="ȟ" glyph-name="hcaron" horiz-adv-x="615" d="M300 831h-145l-98 144h126l54 -83l83 83h127zM337 0l47 270q5 23 5 42q0 28 -14.5 47.5t-51.5 19.5q-44 0 -70.5 -32.5t-34.5 -78.5l-48 -268h-160l133 756h161l-57 -323h2q21 31 59 54.5t89 23.5q42 0 72 -12t49.5 -33t28.5 -48.5t9 -57.5q0 -14 -1 -27.5t-4 -26.5 l-54 -306h-160z"/>
<glyph unicode="Ȧ" glyph-name="Adotaccent" horiz-adv-x="710" d="M552 873q0 -18 -6.5 -34.5t-18.5 -29t-28 -19.5t-35 -7q-35 0 -58.5 21t-23.5 55q0 19 7 35.5t19 28.5t28.5 19t35.5 7q35 0 57.5 -22t22.5 -54zM411 526l-148 -251h185zM489 0l-24 141h-273l-85 -141h-190l451 708h162l134 -708h-175z"/>
<glyph unicode="ȧ" glyph-name="adotaccent" horiz-adv-x="559" d="M410 678q0 -18 -6.5 -34.5t-18.5 -29t-28 -19.5t-35 -7q-35 0 -58.5 21t-23.5 55q0 19 7 35.5t19 28.5t28.5 19t35.5 7q35 0 57.5 -22t22.5 -54zM326 218q-30 0 -61 -2.5t-55.5 -10.5t-40.5 -22t-16 -37q0 -30 20.5 -40.5t45.5 -10.5q46 0 77 28.5t39 70.5l5 24h-14z M503 352q0 -14 -1.5 -30t-4.5 -31l-34 -194q-5 -26 -7.5 -53t-2.5 -44h-142q0 11 1 25.5t3 27.5h-2q-55 -65 -152 -65q-26 0 -53.5 6.5t-50 22t-36.5 41t-14 62.5q0 60 30 98t78.5 59t110 29t123.5 8q2 9 2 14v9q0 29 -20.5 42.5t-57.5 13.5q-34 0 -68.5 -13t-62.5 -34 l-66 92q45 36 103.5 55.5t115.5 19.5q45 0 83 -9.5t65.5 -29.5t43.5 -50t16 -72z"/>
<glyph unicode="Ȩ" glyph-name="Ecedilla" d="M383 -135q0 -30 -14 -50t-36.5 -32t-49.5 -17.5t-52 -5.5q-31 0 -65 7t-55 18l32 59q17 -9 39 -13.5t42 -4.5q9 0 18.5 1t17.5 5t13.5 10t5.5 17q0 18 -13.5 23.5t-28.5 5.5q-9 0 -20 -1.5t-21 -4.5l-25 29l82 89h-235l125 708h453l-25 -142h-294l-24 -137h280l-24 -134 h-280l-26 -152h322l-25 -143h-167l-58 -61q6 2 10 2h9q13 0 28.5 -3.5t29 -12.5t22.5 -23.5t9 -36.5z"/>
<glyph unicode="ȩ" glyph-name="ecedilla" d="M397 304q1 5 1 10v10q0 33 -23.5 55t-67.5 22q-27 0 -48.5 -9.5t-37.5 -23.5t-26 -31t-14 -33h216zM170 206q-1 -4 -1 -9q0 -21 9.5 -37.5t25 -28t35 -17.5t40.5 -6q38 0 67 14t52 38l101 -79q-43 -45 -94.5 -67.5t-111.5 -27.5l-55 -62q6 2 10 2h9q13 0 28.5 -3.5 t29 -12.5t22.5 -23.5t9 -36.5q0 -30 -14 -50t-36.5 -32t-49.5 -17.5t-52 -5.5q-31 0 -65 7t-55 18l32 59q17 -9 39 -13.5t42 -4.5q9 0 18.5 1t17.5 5t13.5 10t5.5 17q0 18 -13.5 23.5t-28.5 5.5q-9 0 -20 -1.5t-21 -4.5l-25 29l81 93q-42 6 -78 23.5t-62 45t-40.5 65.5 t-14.5 86q0 64 22.5 119.5t62 96.5t94.5 64.5t121 23.5q49 0 89.5 -14t69.5 -40.5t45 -65.5t16 -90q0 -18 -3.5 -45.5t-9.5 -51.5h-357z"/>
<glyph unicode="Ȫ" glyph-name="Odieresismacron" horiz-adv-x="831" d="M341 1035l14 84h334l-15 -84h-333zM672 887q0 -35 -23.5 -60.5t-60.5 -25.5q-34 0 -56 20.5t-22 52.5q0 37 24.5 61.5t61.5 24.5q33 0 54.5 -20.5t21.5 -52.5zM453 887q0 -35 -23.5 -60.5t-60.5 -25.5q-35 0 -56.5 20.5t-21.5 52.5q0 37 24.5 61.5t60.5 24.5 q34 0 55.5 -20.5t21.5 -52.5zM395 132q55 0 98.5 22.5t73.5 60t46 86t16 99.5q0 37 -12 69.5t-34.5 56.5t-56.5 38t-77 14q-54 0 -97.5 -23t-74 -60.5t-47 -85.5t-16.5 -99q0 -37 12 -69.5t35 -56.5t56.5 -38t77.5 -14zM460 726q80 0 143.5 -22t107.5 -63t67.5 -99 t23.5 -129q0 -90 -30.5 -168.5t-85.5 -137t-131.5 -92t-168.5 -33.5q-81 0 -145 22t-108.5 63t-68 99t-23.5 129q0 90 31 168.5t87 137t132.5 92t168.5 33.5z"/>
<glyph unicode="ȫ" glyph-name="odieresismacron" horiz-adv-x="626" d="M176 822l14 84h334l-15 -84h-333zM531 674q0 -35 -23.5 -60.5t-60.5 -25.5q-34 0 -56 20.5t-22 52.5q0 37 24.5 61.5t61.5 24.5q33 0 54.5 -20.5t21.5 -52.5zM312 674q0 -35 -23.5 -60.5t-60.5 -25.5q-35 0 -56.5 20.5t-21.5 52.5q0 37 24.5 61.5t60.5 24.5 q34 0 55.5 -20.5t21.5 -52.5zM422 277q0 45 -27.5 75t-77.5 30q-32 0 -58 -13t-44 -35t-28 -51t-10 -61q0 -45 27 -74.5t77 -29.5q32 0 58 12.5t44.5 34.5t28.5 51t10 61zM273 -14q-54 0 -100.5 15t-80 43.5t-53 69t-19.5 91.5q0 62 21 118t60.5 98t95.5 67t127 25 q55 0 102 -15t81 -43.5t53.5 -69t19.5 -91.5q0 -63 -21 -119t-61 -98t-96.5 -66.5t-128.5 -24.5z"/>
<glyph unicode="Ȭ" glyph-name="Otildemacron" horiz-adv-x="831" d="M317 1008l14 84h334l-15 -84h-333zM668 933q-8 -26 -20 -50t-29 -42t-38.5 -28.5t-48.5 -10.5q-37 0 -72 19q-20 11 -35 16.5t-30 5.5q-18 0 -30 -12.5t-20 -29.5h-71q7 26 19 49.5t29 41t39 28t49 10.5q21 0 39.5 -5.5t36.5 -14.5q19 -10 33.5 -15t28.5 -5q19 0 30 12.5 t19 30.5h71zM395 132q55 0 98.5 22.5t73.5 60t46 86t16 99.5q0 37 -12 69.5t-34.5 56.5t-56.5 38t-77 14q-54 0 -97.5 -23t-74 -60.5t-47 -85.5t-16.5 -99q0 -37 12 -69.5t35 -56.5t56.5 -38t77.5 -14zM460 726q80 0 143.5 -22t107.5 -63t67.5 -99t23.5 -129 q0 -90 -30.5 -168.5t-85.5 -137t-131.5 -92t-168.5 -33.5q-81 0 -145 22t-108.5 63t-68 99t-23.5 129q0 90 31 168.5t87 137t132.5 92t168.5 33.5z"/>
<glyph unicode="ȭ" glyph-name="otildemacron" horiz-adv-x="626" d="M176 795l14 84h334l-15 -84h-333zM537 720q-8 -26 -20 -50t-29 -42t-38.5 -28.5t-48.5 -10.5q-37 0 -72 19q-20 11 -35 16.5t-30 5.5q-18 0 -30 -12.5t-20 -29.5h-71q7 26 19 49.5t29 41t39 28t49 10.5q21 0 39.5 -5.5t36.5 -14.5q19 -10 33.5 -15t28.5 -5q19 0 30 12.5 t19 30.5h71zM422 277q0 45 -27.5 75t-77.5 30q-32 0 -58 -13t-44 -35t-28 -51t-10 -61q0 -45 27 -74.5t77 -29.5q32 0 58 12.5t44.5 34.5t28.5 51t10 61zM273 -14q-54 0 -100.5 15t-80 43.5t-53 69t-19.5 91.5q0 62 21 118t60.5 98t95.5 67t127 25q55 0 102 -15t81 -43.5 t53.5 -69t19.5 -91.5q0 -63 -21 -119t-61 -98t-96.5 -66.5t-128.5 -24.5z"/>
<glyph unicode="Ȯ" glyph-name="Odotaccent" horiz-adv-x="831" d="M566 891q0 -18 -6.5 -34.5t-18.5 -29t-28 -19.5t-35 -7q-35 0 -58.5 21t-23.5 55q0 19 7 35.5t19 28.5t28.5 19t35.5 7q35 0 57.5 -22t22.5 -54zM395 132q55 0 98.5 22.5t73.5 60t46 86t16 99.5q0 37 -12 69.5t-34.5 56.5t-56.5 38t-77 14q-54 0 -97.5 -23t-74 -60.5 t-47 -85.5t-16.5 -99q0 -37 12 -69.5t35 -56.5t56.5 -38t77.5 -14zM460 726q80 0 143.5 -22t107.5 -63t67.5 -99t23.5 -129q0 -90 -30.5 -168.5t-85.5 -137t-131.5 -92t-168.5 -33.5q-81 0 -145 22t-108.5 63t-68 99t-23.5 129q0 90 31 168.5t87 137t132.5 92t168.5 33.5z "/>
<glyph unicode="ȯ" glyph-name="odotaccent" horiz-adv-x="626" d="M447 678q0 -18 -6.5 -34.5t-18.5 -29t-28 -19.5t-35 -7q-35 0 -58.5 21t-23.5 55q0 19 7 35.5t19 28.5t28.5 19t35.5 7q35 0 57.5 -22t22.5 -54zM422 277q0 45 -27.5 75t-77.5 30q-32 0 -58 -13t-44 -35t-28 -51t-10 -61q0 -45 27 -74.5t77 -29.5q32 0 58 12.5t44.5 34.5 t28.5 51t10 61zM273 -14q-54 0 -100.5 15t-80 43.5t-53 69t-19.5 91.5q0 62 21 118t60.5 98t95.5 67t127 25q55 0 102 -15t81 -43.5t53.5 -69t19.5 -91.5q0 -63 -21 -119t-61 -98t-96.5 -66.5t-128.5 -24.5z"/>
<glyph unicode="Ȱ" glyph-name="Odotaccentmacron" horiz-adv-x="831" d="M337 1042l14 84h334l-15 -84h-333zM576 891q0 -18 -6.5 -34.5t-18.5 -29t-28 -19.5t-35 -7q-35 0 -58.5 21t-23.5 55q0 19 7 35.5t19 28.5t28.5 19t35.5 7q35 0 57.5 -22t22.5 -54zM395 132q55 0 98.5 22.5t73.5 60t46 86t16 99.5q0 37 -12 69.5t-34.5 56.5t-56.5 38 t-77 14q-54 0 -97.5 -23t-74 -60.5t-47 -85.5t-16.5 -99q0 -37 12 -69.5t35 -56.5t56.5 -38t77.5 -14zM460 726q80 0 143.5 -22t107.5 -63t67.5 -99t23.5 -129q0 -90 -30.5 -168.5t-85.5 -137t-131.5 -92t-168.5 -33.5q-81 0 -145 22t-108.5 63t-68 99t-23.5 129 q0 90 31 168.5t87 137t132.5 92t168.5 33.5z"/>
<glyph unicode="ȱ" glyph-name="odotaccentmacron" horiz-adv-x="626" d="M176 829l14 84h334l-15 -84h-333zM415 678q0 -18 -6.5 -34.5t-18.5 -29t-28 -19.5t-35 -7q-35 0 -58.5 21t-23.5 55q0 19 7 35.5t19 28.5t28.5 19t35.5 7q35 0 57.5 -22t22.5 -54zM422 277q0 45 -27.5 75t-77.5 30q-32 0 -58 -13t-44 -35t-28 -51t-10 -61q0 -45 27 -74.5 t77 -29.5q32 0 58 12.5t44.5 34.5t28.5 51t10 61zM273 -14q-54 0 -100.5 15t-80 43.5t-53 69t-19.5 91.5q0 62 21 118t60.5 98t95.5 67t127 25q55 0 102 -15t81 -43.5t53.5 -69t19.5 -91.5q0 -63 -21 -119t-61 -98t-96.5 -66.5t-128.5 -24.5z"/>
<glyph unicode="Ȳ" glyph-name="Ymacron" horiz-adv-x="613" d="M207 783l14 84h334l-15 -84h-333zM383 301l-54 -301h-166l53 301l-181 407h186l101 -268l203 268h202z"/>
<glyph unicode="ȳ" glyph-name="ymacron" horiz-adv-x="556" d="M143 573l14 84h334l-15 -84h-333zM268 -75q-22 -39 -43.5 -70t-47 -52t-58.5 -32t-77 -11q-47 0 -82 11l24 132q22 -9 47 -9q35 0 54.5 17.5t37.5 49.5l24 41l-115 496h175l50 -326h2l165 326h170z"/>
<glyph unicode="ȷ" glyph-name="dotlessj" horiz-adv-x="297" d="M171 -19q-8 -45 -22.5 -86t-40 -72t-66 -49t-101.5 -18q-17 0 -36 2.5t-33 6.5l29 133q9 -3 18 -4t16 -1q37 0 52.5 24.5t22.5 63.5l91 517h161z"/>
<glyph unicode="ʻ" glyph-name="commaturnedmod" horiz-adv-x="294" d="M205 438h-142l138 270h123z"/>
<glyph unicode="ʼ" glyph-name="afii57929" horiz-adv-x="294" d="M186 438h-123l119 270h142z"/>
<glyph unicode="ˆ" glyph-name="circumflex" horiz-adv-x="300" d="M263 572l-55 82l-83 -82h-127l148 144h146l96 -144h-125z"/>
<glyph unicode="ˇ" glyph-name="caron" horiz-adv-x="300" d="M266 572h-145l-98 144h126l54 -83l83 83h127z"/>
<glyph unicode="ˉ" glyph-name="uni02C9" horiz-adv-x="300" d="M32 793l14 84h334l-15 -84h-333z"/>
<glyph unicode="˘" glyph-name="breve" horiz-adv-x="300" d="M391 716q-9 -39 -27 -66t-42.5 -44.5t-55 -25.5t-64.5 -8q-35 0 -63.5 7.5t-49.5 25t-32.5 45t-11.5 66.5h82q0 -16 7 -27t18 -18q11 -6 25.5 -9t29.5 -3q36 0 64 11t38 46h82z"/>
<glyph unicode="˙" glyph-name="dotaccent" horiz-adv-x="300" d="M292 664q0 -18 -6.5 -34.5t-18.5 -29t-28 -19.5t-35 -7q-35 0 -58.5 21t-23.5 55q0 19 7 35.5t19 28.5t28.5 19t35.5 7q35 0 57.5 -22t22.5 -54z"/>
<glyph unicode="˚" glyph-name="ring" horiz-adv-x="300" d="M267 674q0 20 -13 35t-36 15q-29 0 -47 -21t-18 -51q0 -21 12.5 -35.5t35.5 -14.5q29 0 47.5 21t18.5 51zM197 557q-42 0 -67.5 25.5t-25.5 63.5q0 25 9 47.5t24.5 39.5t37.5 26.5t48 9.5q42 0 67.5 -25t25.5 -63q0 -26 -9 -48.5t-24.5 -39.5t-37.5 -26.5t-48 -9.5z"/>
<glyph unicode="˛" glyph-name="ogonek" horiz-adv-x="300" d="M147 -196q-26 -18 -56 -29t-63 -11q-40 0 -68 18.5t-28 64.5q0 24 12.5 46t31.5 42t42.5 37.5t44.5 31.5h89q-48 -35 -82 -68t-34 -63q0 -14 9 -20.5t24 -6.5q28 0 57 19z"/>
<glyph unicode="˜" glyph-name="tilde" horiz-adv-x="300" d="M403 708q-8 -26 -20 -50t-29 -42t-38.5 -28.5t-48.5 -10.5q-37 0 -72 19q-20 11 -35 16.5t-30 5.5q-18 0 -30 -12.5t-20 -29.5h-71q7 26 19 49.5t29 41t39 28t49 10.5q21 0 39.5 -5.5t36.5 -14.5q19 -10 33.5 -15t28.5 -5q19 0 30 12.5t19 30.5h71z"/>
<glyph unicode="˝" glyph-name="hungarumlaut" horiz-adv-x="300" d="M131 572h-121l128 144h164zM350 572h-121l129 144h163z"/>
<glyph unicode="ˮ" glyph-name="uni02EE" horiz-adv-x="500" d="M186 438h-123l120 270h139zM392 438h-123l121 270h140z"/>
<glyph unicode="̀" glyph-name="gravecmb" horiz-adv-x="0" d="M-28 572h-120l-152 144h163z"/>
<glyph unicode="́" glyph-name="acutecmb" horiz-adv-x="0" d="M-178 572h-122l129 144h163z"/>
<glyph unicode="̂" glyph-name="circumflexcmb" horiz-adv-x="0" d="M-35 572l-55 82l-83 -82h-127l148 144h146l96 -144h-125z"/>
<glyph unicode="̃" glyph-name="tildecmb" horiz-adv-x="0" d="M94 708q-8 -26 -20 -50t-29 -42t-38.5 -28.5t-48.5 -10.5q-37 0 -72 19q-20 11 -35 16.5t-30 5.5q-18 0 -30 -12.5t-20 -29.5h-71q7 26 19 49.5t29 41t39 28t49 10.5q21 0 39.5 -5.5t36.5 -14.5q19 -10 33.5 -15t28.5 -5q19 0 30 12.5t19 30.5h71z"/>
<glyph unicode="̄" glyph-name="macroncmb" horiz-adv-x="0" d="M-300 601l14 84h334l-15 -84h-333z"/>
<glyph unicode="̆" glyph-name="brevecmb" horiz-adv-x="0" d="M46 716q-9 -39 -27 -66t-42.5 -44.5t-55 -25.5t-64.5 -8q-35 0 -63.5 7.5t-49.5 25t-32.5 45t-11.5 66.5h82q0 -16 7 -27t18 -18q11 -6 25.5 -9t29.5 -3q36 0 64 11t38 46h82z"/>
<glyph unicode="̇" glyph-name="dotaccentcmb" horiz-adv-x="0" d="M-130 664q0 -18 -6.5 -34.5t-18.5 -29t-28 -19.5t-35 -7q-35 0 -58.5 21t-23.5 55q0 19 7 35.5t19 28.5t28.5 19t35.5 7q35 0 57.5 -22t22.5 -54z"/>
<glyph unicode="̈" glyph-name="dieresiscmb" horiz-adv-x="0" d="M81 664q0 -35 -23.5 -60.5t-60.5 -25.5q-34 0 -56 20.5t-22 52.5q0 37 24.5 61.5t61.5 24.5q33 0 54.5 -20.5t21.5 -52.5zM-138 664q0 -35 -23.5 -60.5t-60.5 -25.5q-35 0 -56.5 20.5t-21.5 52.5q0 37 24.5 61.5t60.5 24.5q34 0 55.5 -20.5t21.5 -52.5z"/>
<glyph unicode="̉" glyph-name="hookabovecomb" horiz-adv-x="300" d="M88 562q5 26 17 43t44 33q36 18 36 44q0 24 -27 24q-18 0 -29 -11t-19 -37l-98 11q17 55 55.5 82t93.5 27q63 0 93.5 -25.5t30.5 -64.5q0 -32 -19 -54.5t-51 -34.5q-32 -14 -36 -37h-91z"/>
<glyph unicode="̊" glyph-name="ringcmb" horiz-adv-x="0" d="M-137 674q0 20 -13 35t-36 15q-29 0 -47 -21t-18 -51q0 -21 12.5 -35.5t35.5 -14.5q29 0 47.5 21t18.5 51zM-207 557q-42 0 -67.5 25.5t-25.5 63.5q0 25 9 47.5t24.5 39.5t37.5 26.5t48 9.5q42 0 67.5 -25t25.5 -63q0 -26 -9 -48.5t-24.5 -39.5t-37.5 -26.5t-48 -9.5z "/>
<glyph unicode="̋" glyph-name="hungarumlautcmb" horiz-adv-x="0" d="M-179 572h-121l128 144h164zM40 572h-121l129 144h163z"/>
<glyph unicode="̌" glyph-name="caroncmb" horiz-adv-x="0" d="M-57 572h-145l-98 144h126l54 -83l83 83h127z"/>
<glyph unicode="̏" glyph-name="doublegravecmb" horiz-adv-x="0" d="M-255 572h-120l-152 144h163zM-28 572h-120l-152 144h163z"/>
<glyph unicode="̑" glyph-name="invertedbrevecmb" horiz-adv-x="0" d="M-346 572q9 39 27 66t42.5 44.5t55 25.5t64.5 8t63 -7.5t50 -25t32.5 -45t11.5 -66.5h-82q0 16 -7 27t-18 18q-23 12 -55 12q-36 0 -64 -11t-38 -46h-82z"/>
<glyph unicode="̛" glyph-name="horncmb" horiz-adv-x="0" d="M-246 498q45 0 68 26t23 70q-1 11 -3 23t-5 20l123 28q9 -26 9 -61q0 -37 -10 -70q-11 -33 -31 -58q-20 -26 -51 -40t-73 -14q-60 0 -100 12t-62 26q-27 17 -42 38h154z"/>
<glyph unicode="̣" glyph-name="dotbelowcmb" horiz-adv-x="0" d="M-109 -156q0 -21 -7.5 -39t-20.5 -32t-31.5 -22t-39.5 -8q-41 0 -66.5 23.5t-25.5 61.5q0 44 29 73t72 29q39 0 64.5 -24.5t25.5 -61.5z"/>
<glyph unicode="̤" glyph-name="dieresisbelowcmb" horiz-adv-x="0" d="M81 -143q0 -35 -23.5 -60.5t-60.5 -25.5q-34 0 -56 20.5t-22 52.5q0 37 24.5 61.5t61.5 24.5q33 0 54.5 -20.5t21.5 -52.5zM-138 -143q0 -35 -23.5 -60.5t-60.5 -25.5q-35 0 -56.5 20.5t-21.5 52.5q0 37 24.5 61.5t60.5 24.5q34 0 55.5 -20.5t21.5 -52.5z"/>
<glyph unicode="̥" glyph-name="ringbelowcmb" horiz-adv-x="0" d="M-137 -165q0 20 -13 35t-36 15q-29 0 -47 -21t-18 -51q0 -21 12.5 -35.5t35.5 -14.5q29 0 47.5 21t18.5 51zM-207 -282q-42 0 -67.5 25.5t-25.5 63.5q0 25 9 47.5t24.5 39.5t37.5 26.5t48 9.5q42 0 67.5 -25t25.5 -63q0 -26 -9 -48.5t-24.5 -39.5t-37.5 -26.5t-48 -9.5z "/>
<glyph unicode="̦" glyph-name="commabelowcmb" horiz-adv-x="0" d="M-169 -352h-131l124 282h153z"/>
<glyph unicode="̧" glyph-name="cedillacmb" horiz-adv-x="0" d="M-28 -135q0 -30 -14 -50t-36.5 -32t-49.5 -17.5t-52 -5.5q-31 0 -65 7t-55 18l32 59q17 -9 39 -13.5t42 -4.5q9 0 18.5 1t17.5 5t13.5 10t5.5 17q0 18 -13.5 23.5t-28.5 5.5q-9 0 -20 -1.5t-21 -4.5l-25 29l82 89h80l-58 -61q6 2 10 2h9q13 0 28.5 -3.5t29 -12.5 t22.5 -23.5t9 -36.5z"/>
<glyph unicode="̨" glyph-name="ogonekcmb" horiz-adv-x="0" d="M-85 -196q-26 -18 -56 -29t-63 -11q-40 0 -68 18.5t-28 64.5q0 24 12.5 46t31.5 42t42.5 37.5t44.5 31.5h89q-48 -35 -82 -68t-34 -63q0 -14 9 -20.5t24 -6.5q28 0 57 19z"/>
<glyph unicode="̭" glyph-name="circumflexbelowcmb" horiz-adv-x="0" d="M-35 -214l-55 82l-83 -82h-127l148 144h146l96 -144h-125z"/>
<glyph unicode="̮" glyph-name="brevebelowcmb" horiz-adv-x="0" d="M46 -70q-9 -39 -27 -66t-42.5 -44.5t-55 -25.5t-64.5 -8q-35 0 -63.5 7.5t-49.5 25t-32.5 45t-11.5 66.5h82q0 -16 7 -27t18 -18q11 -6 25.5 -9t29.5 -3q36 0 64 11t38 46h82z"/>
<glyph unicode="̰" glyph-name="tildebelowcmb" horiz-adv-x="0" d="M94 -70q-8 -26 -20 -50t-29 -42t-38.5 -28.5t-48.5 -10.5q-37 0 -72 19q-20 11 -35 16.5t-30 5.5q-18 0 -30 -12.5t-20 -29.5h-71q7 26 19 49.5t29 41t39 28t49 10.5q21 0 39.5 -5.5t36.5 -14.5q19 -10 33.5 -15t28.5 -5q19 0 30 12.5t19 30.5h71z"/>
<glyph unicode="̱" glyph-name="macronbelowcmb" horiz-adv-x="0" d="M-300 -154l14 84h334l-15 -84h-333z"/>
<glyph unicode="̀" glyph-name="gravetonecmb" horiz-adv-x="0" d="M-28 572h-120l-152 144h163z"/>
<glyph unicode="́" glyph-name="acutetonecmb" horiz-adv-x="0" d="M-178 572h-122l129 144h163z"/>
<glyph unicode="̈́" glyph-name="dialytikatonoscmb" horiz-adv-x="0" d="M-24 812h-122l129 144h163zM81 664q0 -35 -23.5 -60.5t-60.5 -25.5q-34 0 -56 20.5t-22 52.5q0 37 24.5 61.5t61.5 24.5q33 0 54.5 -20.5t21.5 -52.5zM-138 664q0 -35 -23.5 -60.5t-60.5 -25.5q-35 0 -56.5 20.5t-21.5 52.5q0 37 24.5 61.5t60.5 24.5q34 0 55.5 -20.5 t21.5 -52.5z"/>
<glyph unicode="͏" glyph-name="combininggraphemejoiner" horiz-adv-x="0"/>
<glyph unicode=";" glyph-name="uni037E" horiz-adv-x="330" d="M272 419q0 -41 -27 -70t-69 -29q-39 0 -64 23.5t-25 59.5q0 21 7.5 39t20.5 31t31 20.5t38 7.5q38 0 63 -23.5t25 -58.5zM95 -124h-135l124 282h156z"/>
<glyph unicode="΄" glyph-name="u0384" horiz-adv-x="260" d="M190 775h127l-49 -223h-106z"/>
<glyph unicode="΅" glyph-name="u0385" horiz-adv-x="240" d="M192 775h107l-50 -223h-86zM318 622q3 15 24 34.5t48 19.5t40 -17t13 -34q0 -6 -3 -21t-24 -34.5t-48 -19.5t-40 17t-13 34q0 6 3 21zM-11 622q3 15 23.5 34.5t47.5 19.5t40 -17t13 -34q0 -6 -3 -21t-24 -34.5t-48 -19.5t-39.5 17t-12.5 34q0 6 3 21z"/>
<glyph unicode="Ά" glyph-name="u0386" horiz-adv-x="729" d="M118 775h127l-49 -223h-106zM411 526l-148 -251h185zM489 0l-24 141h-273l-85 -141h-190l451 708h162l134 -708h-175z"/>
<glyph unicode="·" glyph-name="anoteleia" horiz-adv-x="300" d="M245 301q0 -21 -7.5 -39t-20.5 -32t-31.5 -22t-39.5 -8q-41 0 -66.5 23.5t-25.5 61.5q0 44 29 73t72 29q39 0 64.5 -24.5t25.5 -61.5z"/>
<glyph unicode="Έ" glyph-name="u0388" horiz-adv-x="720" d="M76 775h127l-49 -223h-106zM131 0l125 708h453l-25 -142h-294l-24 -137h280l-24 -134h-280l-26 -152h322l-25 -143h-482z"/>
<glyph unicode="Ή" glyph-name="u0389" horiz-adv-x="876" d="M74 775h127l-49 -223h-106zM572 0l52 298h-275l-53 -298h-166l125 708h166l-48 -269h276l47 269h167l-125 -708h-166z"/>
<glyph unicode="Ί" glyph-name="u038A" horiz-adv-x="430" d="M75 775h127l-49 -223h-106zM130 0l125 708h167l-125 -708h-167z"/>
<glyph unicode="Ό" glyph-name="u038C" horiz-adv-x="951" d="M78 775h127l-49 -223h-106zM515 132q55 0 98.5 22.5t73.5 60t46 86t16 99.5q0 37 -12 69.5t-34.5 56.5t-56.5 38t-77 14q-54 0 -97.5 -23t-74 -60.5t-47 -85.5t-16.5 -99q0 -37 12 -69.5t35 -56.5t56.5 -38t77.5 -14zM580 726q80 0 143.5 -22t107.5 -63t67.5 -99 t23.5 -129q0 -90 -30.5 -168.5t-85.5 -137t-131.5 -92t-168.5 -33.5q-81 0 -145 22t-108.5 63t-68 99t-23.5 129q0 90 31 168.5t87 137t132.5 92t168.5 33.5z"/>
<glyph unicode="Ύ" glyph-name="u038E" horiz-adv-x="807" d="M69 775h127l-49 -223h-106zM577 301l-54 -301h-166l53 301l-181 407h186l101 -268l203 268h202z"/>
<glyph unicode="Ώ" glyph-name="u038F" horiz-adv-x="967" d="M77 775h127l-49 -223h-106zM535 0l34 196q71 22 117.5 67t60.5 128q5 25 5 48q0 55 -34.5 96.5t-122.5 41.5q-44 0 -82 -12.5t-68.5 -36.5t-51 -58.5t-28.5 -78.5q-4 -22 -4 -41q0 -18 5 -43.5t22 -50t42.5 -40t55.5 -19.5l-34 -197h-313l22 125h179l1 7 q-32 5 -64.5 26.5t-56 56.5t-32.5 71t-9 64q0 24 5 50q13 75 53.5 136.5t99.5 104.5t133 66.5t154 23.5q78 0 141 -25t104 -69t55 -91.5t14 -86.5q0 -29 -6 -59q-10 -56 -40 -102.5t-67.5 -82t-77 -57t-68.5 -26.5l-1 -7h191l-22 -125h-312z"/>
<glyph unicode="ΐ" glyph-name="u0390" horiz-adv-x="282" d="M172 775h107l-50 -223h-86zM298 622q3 15 24 34.5t48 19.5t40 -17t13 -34q0 -6 -3 -21t-24 -34.5t-48 -19.5t-40 17t-13 34q0 6 3 21zM-31 622q3 15 23.5 34.5t47.5 19.5t40 -17t13 -34q0 -6 -3 -21t-24 -34.5t-48 -19.5t-39.5 17t-12.5 34q0 6 3 21zM11 0l87 498h161 l-89 -498h-159z"/>
<glyph unicode="Α" glyph-name="u0391" horiz-adv-x="729" d="M411 526l-148 -251h185zM489 0l-24 141h-273l-85 -141h-190l451 708h162l134 -708h-175z"/>
<glyph unicode="Β" glyph-name="u0392" horiz-adv-x="665" d="M229 303l-29 -169h97q28 0 53 5t44.5 16t31 30t11.5 46q0 34 -26 53t-74 19h-108zM277 575l-26 -152h102q18 0 37.5 4t35.5 14t26.5 27t10.5 42q0 35 -27 50t-68 15h-91zM420 708q37 0 74 -8t66.5 -26.5t48 -48t18.5 -72.5q0 -72 -42 -118t-109 -63v-2q54 -9 90.5 -48.5 t36.5 -102.5q0 -54 -22.5 -95t-62.5 -68.5t-96 -41.5t-122 -14h-282l125 708h277z"/>
<glyph unicode="Γ" glyph-name="u0393" horiz-adv-x="518" d="M190 0h-172l124 708h446l-26 -149h-274z"/>
<glyph unicode="Δ" glyph-name="u0394" horiz-adv-x="743" d="M414 524l-241 -379h345zM-34 0l25 147l364 561h166l165 -559l-26 -149h-694z"/>
<glyph unicode="Ε" glyph-name="u0395" horiz-adv-x="607" d="M18 0l125 708h453l-25 -142h-294l-24 -137h280l-24 -134h-280l-26 -152h322l-25 -143h-482z"/>
<glyph unicode="Ζ" glyph-name="u0396" horiz-adv-x="635" d="M-31 0l25 144l412 422h-307l25 142h524l-24 -134l-417 -429h351l-26 -145h-563z"/>
<glyph unicode="Η" glyph-name="u0397" horiz-adv-x="764" d="M460 0l52 298h-275l-53 -298h-166l125 708h166l-48 -269h276l47 269h167l-125 -708h-166z"/>
<glyph unicode="Θ" glyph-name="u0398" horiz-adv-x="831" d="M449 578q-39 0 -73 -12.5t-61.5 -34t-48 -50.5t-33.5 -63h395q-3 33 -16 62.5t-36 51t-55 34t-72 12.5zM395 132q42 0 76.5 13t62.5 36t47.5 53.5t31.5 66.5h-399q1 -35 13.5 -66t35.5 -54t56 -36t76 -13zM460 726q80 0 143.5 -22t107.5 -63t67.5 -99t23.5 -129 q0 -90 -30.5 -168.5t-85.5 -137t-131.5 -92t-168.5 -33.5q-81 0 -145 22t-108.5 63t-68 99t-23.5 129q0 90 31 168.5t87 137t132.5 92t168.5 33.5z"/>
<glyph unicode="Ι" glyph-name="u0399" horiz-adv-x="318" d="M18 0l125 708h167l-125 -708h-167z"/>
<glyph unicode="Κ" glyph-name="u039A" horiz-adv-x="711" d="M447 0l-205 333h-3l-58 -333h-163l125 708h163l-53 -297h3l281 297h212l-347 -337l252 -371h-207z"/>
<glyph unicode="Λ" glyph-name="u039B" horiz-adv-x="694" d="M100 0h-183l399 708h175l157 -708h-187l-97 472z"/>
<glyph unicode="Μ" glyph-name="u039C" horiz-adv-x="955" d="M660 0l93 507h-4l-275 -507h-117l-94 507h-4l-85 -507h-156l125 708h233l82 -459h4l239 459h247l-125 -708h-163z"/>
<glyph unicode="Ν" glyph-name="u039D" horiz-adv-x="790" d="M460 0l-195 470h-3l-80 -470h-164l125 708h187l194 -467h2l80 467h164l-125 -708h-185z"/>
<glyph unicode="Ξ" glyph-name="u039E" horiz-adv-x="647" d="M559 144l-25 -144h-514l25 144h514zM557 423l-23 -130h-417l23 130h417zM656 708l-25 -144h-512l25 144h512z"/>
<glyph unicode="Ο" glyph-name="u039F" horiz-adv-x="851" d="M395 132q55 0 98.5 22.5t73.5 60t46 86t16 99.5q0 37 -12 69.5t-34.5 56.5t-56.5 38t-77 14q-54 0 -97.5 -23t-74 -60.5t-47 -85.5t-16.5 -99q0 -37 12 -69.5t35 -56.5t56.5 -38t77.5 -14zM460 726q80 0 143.5 -22t107.5 -63t67.5 -99t23.5 -129q0 -90 -30.5 -168.5 t-85.5 -137t-131.5 -92t-168.5 -33.5q-81 0 -145 22t-108.5 63t-68 99t-23.5 129q0 90 31 168.5t87 137t132.5 92t168.5 33.5z"/>
<glyph unicode="Π" glyph-name="u03A0" horiz-adv-x="748" d="M742 708l-124 -708h-170l99 564h-260l-99 -564h-170l124 708h600z"/>
<glyph unicode="Ρ" glyph-name="u03A1" horiz-adv-x="640" d="M325 401q65 0 103.5 20.5t38.5 72.5q0 23 -8.5 38.5t-23.5 24.5t-36 12.5t-46 3.5h-68l-31 -172h71zM376 708q125 0 191.5 -52t66.5 -145q0 -63 -22 -109t-63 -75.5t-98.5 -43.5t-128.5 -14h-91l-48 -269h-165l125 708h233z"/>
<glyph unicode="Σ" glyph-name="u03A3" horiz-adv-x="574" d="M20 0l21 120l267 233l1 6l-186 228l21 121h509l-24 -139h-299l181 -204l-3 -15l-233 -211h283l-24 -139h-514z"/>
<glyph unicode="Τ" glyph-name="u03A4" horiz-adv-x="581" d="M404 565l-100 -565h-166l99 565h-198l26 143h558l-25 -143h-194z"/>
<glyph unicode="Υ" glyph-name="u03A5" horiz-adv-x="669" d="M383 301l-54 -301h-166l53 301l-181 407h186l101 -268l203 268h202z"/>
<glyph unicode="Φ" glyph-name="u03A6" horiz-adv-x="952" d="M734 354q4 21 4 40q0 49 -28.5 95t-111.5 65l-71 -400q90 18 141.5 72.5t65.5 127.5zM230 354q-4 -22 -4 -42q0 -48 29 -94.5t112 -64.5l71 401q-90 -18 -142.5 -72t-65.5 -128zM626 710q75 -11 134.5 -40.5t98.5 -76t51 -94t12 -84.5q0 -29 -5 -61q-13 -72 -50 -133 t-92.5 -107.5t-126 -77t-149.5 -40.5l-11 -67h-160l11 67q-76 10 -136 40t-99 76.5t-51 94t-12 84.5q0 31 9.5 83t46.5 113t92.5 107t126 76t150.5 40l11 62h160z"/>
<glyph unicode="Χ" glyph-name="u03A7" horiz-adv-x="703" d="M439 0l-105 253l-206 -253h-206l332 374l-156 334h187l89 -224l180 224h201l-300 -338l175 -370h-191z"/>
<glyph unicode="Ψ" glyph-name="u03A8" horiz-adv-x="863" d="M477 269h15q63 0 96.5 39t44.5 98l53 302h170q-8 -43 -17 -96q-8 -45 -18.5 -106.5t-23.5 -133.5q-11 -64 -42 -112t-75 -80t-98 -48t-112 -16h-20l-20 -116h-170l20 116h-20q-58 0 -106.5 16t-81 48t-43.5 69.5t-11 69.5q0 25 5 53l59 336h170q-8 -46 -17 -96 q-8 -43 -17 -97t-19 -109q-4 -21 -4 -39q0 -7 1.5 -23.5t12.5 -35t31 -29t52 -10.5h15l77 439h170z"/>
<glyph unicode="Ω" glyph-name="u03A9" horiz-adv-x="869" d="M437 0l34 196q71 22 117.5 67t60.5 128q5 25 5 48q0 55 -34.5 96.5t-122.5 41.5q-44 0 -82 -12.5t-68.5 -36.5t-51 -58.5t-28.5 -78.5q-4 -22 -4 -41q0 -18 5 -43.5t22 -50t42.5 -40t55.5 -19.5l-34 -197h-313l22 125h179l1 7q-32 5 -64.5 26.5t-56 56.5t-32.5 71t-9 64 q0 24 5 50q13 75 53.5 136.5t99.5 104.5t133 66.5t154 23.5q78 0 141 -25t104 -69t55 -91.5t14 -86.5q0 -29 -6 -59q-10 -56 -40 -102.5t-67.5 -82t-77 -57t-68.5 -26.5l-1 -7h191l-22 -125h-312z"/>
<glyph unicode="Ϊ" glyph-name="u03AA" horiz-adv-x="318" d="M430 856q0 -35 -23.5 -60.5t-60.5 -25.5q-34 0 -56 20.5t-22 52.5q0 37 24.5 61.5t61.5 24.5q33 0 54.5 -20.5t21.5 -52.5zM211 856q0 -35 -23.5 -60.5t-60.5 -25.5q-35 0 -56.5 20.5t-21.5 52.5q0 37 24.5 61.5t60.5 24.5q34 0 55.5 -20.5t21.5 -52.5zM18 0l125 708h167 l-125 -708h-167z"/>
<glyph unicode="Ϋ" glyph-name="u03AB" horiz-adv-x="669" d="M653 856q0 -35 -23.5 -60.5t-60.5 -25.5q-34 0 -56 20.5t-22 52.5q0 37 24.5 61.5t61.5 24.5q33 0 54.5 -20.5t21.5 -52.5zM434 856q0 -35 -23.5 -60.5t-60.5 -25.5q-35 0 -56.5 20.5t-21.5 52.5q0 37 24.5 61.5t60.5 24.5q34 0 55.5 -20.5t21.5 -52.5zM452 301l-54 -301 h-166l53 301l-181 407h186l101 -268l203 268h202z"/>
<glyph unicode="ά" glyph-name="u03AC" horiz-adv-x="650" d="M380 775h127l-49 -223h-106zM171 251q-3 -14 -3 -28q0 -10 2.5 -26.5t14 -34.5t32 -29t49.5 -11q28 0 52 11t42.5 29t31 41t17.5 47q2 11 2 22q0 12 -3.5 30t-16 36t-32.5 29t-48 11q-29 0 -53 -11t-42 -28.5t-29.5 -40.5t-15.5 -47zM380 65q-31 -38 -79 -58.5t-98 -20.5 q-56 0 -96.5 22t-64.5 58.5t-29 71t-5 56.5q0 28 7 68.5t31.5 88t61.5 83.5t84.5 57t101.5 21q55 0 89 -21t51 -46h2l10 55h164l-88 -500h-151l11 65h-2z"/>
<glyph unicode="έ" glyph-name="u03AD" horiz-adv-x="550" d="M300 775h127l-49 -223h-106zM430 338q-12 11 -30 21q-16 8 -41 14.5t-60 6.5q-42 0 -70 -9.5t-31 -26.5q-2 -12 7 -20t24.5 -12.5t36.5 -6t42 -1.5h73l-19 -111h-73q-55 0 -90 -7.5t-39 -29.5q-2 -12 6 -19t22.5 -10.5t32 -4.5t33.5 -1q42 0 72 5.5t50 13.5q23 9 39 20 l61 -98q-10 -10 -31 -23.5t-53 -25.5t-75 -20.5t-98 -8.5q-49 0 -93 8t-76 25.5t-45.5 41t-13.5 49.5q0 11 2 23q5 30 21 52t36 37t41 22.5t36 9.5v3q-14 5 -29 14t-27.5 22.5t-18 29t-5.5 29.5q0 9 2 18q6 35 29.5 62t59.5 45t83 27.5t100 9.5q47 0 83 -7t61.5 -18.5 t41.5 -27t24 -31.5z"/>
<glyph unicode="ή" glyph-name="u03AE" horiz-adv-x="613" d="M280 775h127l-49 -223h-106zM256 498l-12 -69h2q12 16 29.5 31.5t39.5 26.5t47 18t51 7q50 0 82 -18t49.5 -46.5t20 -54t2.5 -38.5q0 -23 -4 -47l-97 -548h-163l90 512q3 17 3 32q0 4 -0.5 15.5t-7 26t-20.5 23t-36 8.5t-40.5 -8.5t-32.5 -23.5t-23.5 -34.5t-13.5 -40.5 l-47 -270h-165l65 373l22 125h159z"/>
<glyph unicode="ί" glyph-name="u03AF" horiz-adv-x="383" d="M160 775h127l-49 -223h-106zM10 0l87 498h161l-89 -498h-159z"/>
<glyph unicode="ΰ" glyph-name="u03B0" horiz-adv-x="604" d="M312 775h107l-50 -223h-86zM438 622q3 15 24 34.5t48 19.5t40 -17t13 -34q0 -6 -3 -21t-24 -34.5t-48 -19.5t-40 17t-13 34q0 6 3 21zM109 622q3 15 23.5 34.5t47.5 19.5t40 -17t13 -34q0 -6 -3 -21t-24 -34.5t-48 -19.5t-39.5 17t-12.5 34q0 6 3 21zM223 -15 q-70 0 -114 18.5t-67.5 48.5t-27 57.5t-3.5 43.5q0 23 4 46l52 299h164l-46 -263q-4 -24 -4 -44.5t6.5 -35.5t21 -23.5t39.5 -8.5q50 0 73.5 31.5t32.5 80.5l46 263h164l-52 -299q-7 -40 -27 -78.5t-54.5 -68.5t-86 -48.5t-121.5 -18.5z"/>
<glyph unicode="α" glyph-name="u03B1" horiz-adv-x="650" d="M171 251q-3 -14 -3 -28q0 -10 2.5 -26.5t14 -34.5t32 -29t49.5 -11q28 0 52 11t42.5 29t31 41t17.5 47q2 11 2 22q0 12 -3.5 30t-16 36t-32.5 29t-48 11q-29 0 -53 -11t-42 -28.5t-29.5 -40.5t-15.5 -47zM380 65q-31 -38 -79 -58.5t-98 -20.5q-56 0 -96.5 22t-64.5 58.5 t-29 71t-5 56.5q0 28 7 68.5t31.5 88t61.5 83.5t84.5 57t101.5 21q55 0 89 -21t51 -46h2l10 55h164l-88 -500h-151l11 65h-2z"/>
<glyph unicode="β" glyph-name="u03B2" horiz-adv-x="663" d="M273 519l-38 -218q-6 -29 -6 -51q-1 -10 -1 -19q0 -45 18.5 -72.5t72.5 -27.5q46 0 81 23.5t44 73.5q2 11 2 21q0 29 -20.5 54.5t-84.5 25.5h-40l23 134h30q33 0 60.5 19.5t34.5 57.5q2 9 2 18q0 27 -20 44.5t-54 17.5q-35 0 -64.5 -22.5t-39.5 -78.5zM-25 -240l137 776 q9 54 35 95.5t65 70t88.5 43t106.5 14.5q51 0 93.5 -12.5t72 -37t40 -53.5t10.5 -55q0 -16 -3 -34q-6 -33 -20.5 -61.5t-34.5 -49.5t-43 -34.5t-45 -16.5l-1 -3q24 -1 53 -11.5t51.5 -32.5t32 -49.5t9.5 -52.5q0 -19 -4 -41q-9 -52 -33.5 -93.5t-60.5 -71t-81 -45t-94 -15.5 q-50 0 -80 14t-46 31.5t-21.5 32t-5.5 16.5l-57 -324h-164z"/>
<glyph unicode="γ" glyph-name="u03B3" horiz-adv-x="620" d="M305 -240h-165l46 258l-147 480h182l74 -333l183 333h177l-304 -480z"/>
<glyph unicode="δ" glyph-name="u03B4" horiz-adv-x="634" d="M412 251q3 15 3 29q0 36 -22.5 67t-76.5 31q-27 0 -51 -10t-42 -27t-30.5 -40.5t-16.5 -50.5q-3 -15 -3 -29q0 -36 22.5 -67.5t75.5 -31.5q27 0 51 10t42 27.5t30.5 41t17.5 50.5zM116 623q6 31 29.5 56.5t61.5 42.5t87.5 26.5t107.5 9.5q53 0 94.5 -7t70.5 -15 q34 -10 61 -21l-56 -136q-24 12 -53 23q-25 8 -59 15.5t-74 7.5q-39 0 -57 -8.5t-18 -21.5q0 -15 20 -25t62 -27q36 -14 72 -39.5t63 -62t36.5 -74t9.5 -67.5q0 -24 -4 -50q-9 -53 -36 -101.5t-69 -85t-97 -58t-121 -21.5q-62 0 -109 20t-77.5 55t-40 73t-9.5 67q0 24 5 50 q7 40 24 74t40 61t49 47.5t51 34t45.5 20t33.5 6.5l6 8q-8 2 -19 5q-9 2 -20.5 6t-25.5 9q-15 6 -31.5 13.5t-29.5 19.5t-18.5 26t-5.5 27q0 8 1 17z"/>
<glyph unicode="ε" glyph-name="u03B5" horiz-adv-x="550" d="M430 338q-12 11 -30 21q-16 8 -41 14.5t-60 6.5q-42 0 -70 -9.5t-31 -26.5q-2 -12 7 -20t24.5 -12.5t36.5 -6t42 -1.5h73l-19 -111h-73q-55 0 -90 -7.5t-39 -29.5q-2 -12 6 -19t22.5 -10.5t32 -4.5t33.5 -1q42 0 72 5.5t50 13.5q23 9 39 20l61 -98q-10 -10 -31 -23.5 t-53 -25.5t-75 -20.5t-98 -8.5q-49 0 -93 8t-76 25.5t-45.5 41t-13.5 49.5q0 11 2 23q5 30 21 52t36 37t41 22.5t36 9.5v3q-14 5 -29 14t-27.5 22.5t-18 29t-5.5 29.5q0 9 2 18q6 35 29.5 62t59.5 45t83 27.5t100 9.5q47 0 83 -7t61.5 -18.5t41.5 -27t24 -31.5z"/>
<glyph unicode="ζ" glyph-name="u03B6" horiz-adv-x="574" d="M224 0q-38 14 -76 35t-66.5 53.5t-39 68t-10.5 65.5q0 26 6 57q13 71 43.5 126t70.5 96t84 70t83 48h-206l24 137h464l-19 -106q-74 -40 -139 -78t-115.5 -80t-84 -90.5t-44.5 -109.5q-3 -19 -3 -36q0 -39 21 -74t93 -61q27 -10 57 -24t54 -34t34.5 -43t10.5 -46 q0 -12 -2 -26q-8 -44 -28.5 -78t-47.5 -59t-57 -41.5t-56 -25.5l-108 70q25 12 48 23.5t41.5 25t31 29.5t15.5 35q3 16 -3 26.5t-17 19t-26.5 14.5t-32.5 13z"/>
<glyph unicode="η" glyph-name="u03B7" horiz-adv-x="613" d="M256 498l-12 -69h2q12 16 29.5 31.5t39.5 26.5t47 18t51 7q50 0 82 -18t49.5 -46.5t20 -54t2.5 -38.5q0 -23 -4 -47l-97 -548h-163l90 512q3 17 3 32q0 4 -0.5 15.5t-7 26t-20.5 23t-36 8.5t-40.5 -8.5t-32.5 -23.5t-23.5 -34.5t-13.5 -40.5l-47 -270h-165l65 373l22 125 h159z"/>
<glyph unicode="θ" glyph-name="u03B8" horiz-adv-x="657" d="M195 314q-4 -31 -4 -58q0 -11 1.5 -34t11.5 -48.5t29 -40t49 -14.5q29 0 53 14.5t43.5 40.5t34 61.5t25.5 78.5h-243zM372 625q-30 0 -54 -14.5t-43 -40t-34 -60.5t-25 -77h242q3 28 3 53q0 12 -1.5 35.5t-11.5 49t-28.5 40t-47.5 14.5zM396 760q68 0 116 -29.5t75 -82 t31.5 -99.5t4.5 -70q0 -51 -12.5 -121t-42 -141t-74 -122.5t-103.5 -81t-132 -29.5t-122 29t-75 81t-29 96.5t-3 62.5q0 56 13 128.5t44.5 144t77.5 123.5t104.5 81.5t126.5 29.5z"/>
<glyph unicode="ι" glyph-name="u03B9" horiz-adv-x="298" d="M10 0l87 498h161l-89 -498h-159z"/>
<glyph unicode="κ" glyph-name="u03BA" horiz-adv-x="557" d="M225 296h3l194 202h189l-231 -225l152 -273h-193l-121 239h-3l-42 -239h-163l87 498h163z"/>
<glyph unicode="λ" glyph-name="u03BB" horiz-adv-x="596" d="M123 0h-173l308 538l-1 7q-3 13 -6.5 25.5t-10 22t-18 15t-30.5 5.5q-24 0 -46.5 -10t-32.5 -21l4 131q17 14 55 29.5t91 15.5q43 0 71 -11t45.5 -32t27.5 -52t18 -70l121 -593h-173l-64 346h-2z"/>
<glyph unicode="μ" glyph-name="u03BC" horiz-adv-x="630" d="M86 498h164l-41 -237q-6 -32 -6 -56q0 -30 14 -53.5t64 -23.5t77.5 30t41.5 103l41 237h163l-69 -395q-5 -26 -8 -51.5t-5 -51.5h-162l5 66h-2q-20 -41 -46.5 -59.5t-63.5 -18.5q-76 0 -82 76h-2l-54 -304h-159z"/>
<glyph unicode="ν" glyph-name="u03BD" horiz-adv-x="567" d="M293 0h-174l-92 498h169l41 -327h3l173 327h174z"/>
<glyph unicode="ξ" glyph-name="u03BE" horiz-adv-x="558" d="M13 175q8 45 33 78.5t61.5 57t81.5 37.5t94 19q-44 5 -83.5 13.5t-68.5 24.5t-41 36.5t-12 43.5q0 11 2 23q6 33 23 54.5t41.5 34.5t54 20t61.5 13v5q-6 -1 -24 -1h-129l21 120h417l-22 -127q-70 0 -118 -4t-78.5 -14.5t-46 -29t-20.5 -46.5q-2 -9 -2 -18q0 -35 30.5 -54 t91.5 -19h108l-27 -157h-131q-65 0 -100 -25t-41 -57q-2 -12 -2 -22q0 -31 21.5 -49t76.5 -28q58 -11 92 -28t50.5 -37.5t18.5 -36t2 -25.5q0 -12 -2 -24q-8 -43 -29 -75.5t-49 -56.5t-59.5 -40t-60.5 -25l-124 52q14 5 36 14t44 22t39 30t21 38q1 4 2.5 14.5t-7 23 t-33.5 26t-77 23.5q-18 3 -44.5 11.5t-50 28t-34.5 45.5t-11 53q0 17 4 38z"/>
<glyph unicode="ο" glyph-name="u03BF" horiz-adv-x="633" d="M422 277q0 45 -27.5 75t-77.5 30q-32 0 -58 -13t-44 -35t-28 -51t-10 -61q0 -45 27 -74.5t77 -29.5q32 0 58 12.5t44.5 34.5t28.5 51t10 61zM273 -14q-54 0 -100.5 15t-80 43.5t-53 69t-19.5 91.5q0 62 21 118t60.5 98t95.5 67t127 25q55 0 102 -15t81 -43.5t53.5 -69 t19.5 -91.5q0 -63 -21 -119t-61 -98t-96.5 -66.5t-128.5 -24.5z"/>
<glyph unicode="π" glyph-name="u03C0" horiz-adv-x="632" d="M174 0h-164l87 498h495l-87 -498h-164l65 371h-167z"/>
<glyph unicode="ρ" glyph-name="u03C1" horiz-adv-x="644" d="M442 249q3 17 3 32q0 35 -20 65.5t-79 30.5q-27 0 -51 -9.5t-43 -26.5t-32 -40.5t-18 -51.5q-3 -15 -3 -29q0 -39 25 -69.5t78 -30.5q59 0 95 37.5t45 91.5zM118 -240h-158l84 474q11 64 40 116t72.5 88.5t99.5 56t121 19.5q55 0 100 -19.5t75.5 -54.5t40 -73.5 t9.5 -69.5q0 -25 -4 -51q-11 -60 -40.5 -108t-72 -82t-94.5 -52t-107 -18q-43 0 -73 10.5t-44 21.5h-3z"/>
<glyph unicode="ς" glyph-name="u03C2" horiz-adv-x="542" d="M286 121q28 -8 58.5 -20.5t54 -32.5t34 -44t10.5 -48q0 -13 -3 -28q-8 -44 -28.5 -78t-47.5 -59t-57 -41.5t-56 -25.5l-108 70q25 12 48 23.5t41.5 25t31 29.5t14.5 28.5t2 17.5q0 12 -5.5 22.5t-17 18t-25.5 11.5t-26 7q-17 4 -39.5 10.5t-45 17.5t-43.5 28.5 t-35.5 43.5t-18.5 50t-4 39q0 25 6 55q12 67 44.5 118t77 85.5t97 52t104.5 17.5q28 0 57 -5t55.5 -15t47 -25t32.5 -35l-112 -110q-11 22 -36 38t-64 16q-50 0 -91 -31t-52 -95q-3 -17 -3 -31q0 -15 5 -32t20 -31.5t35.5 -22.5t42.5 -14z"/>
<glyph unicode="σ" glyph-name="u03C3" horiz-adv-x="620" d="M414 242.5q4 20.5 4 33.5q0 12 -3.5 29.5t-16 35t-33 27.5t-48.5 10t-52 -10t-43 -27.5t-31.5 -41t-16.5 -44t-4 -33.5q0 -12 3.5 -29t16.5 -34.5t33.5 -27.5t48.5 -10t52 10t42.5 27.5t31 40.5t16.5 43.5zM553 369l-1 -4q7 -15 11 -34q4 -17 4.5 -30t0.5 -17 q0 -19 -4 -41q-9 -55 -37.5 -102.5t-70.5 -82.5t-95.5 -55t-112.5 -20t-105 20t-75.5 56t-38.5 73t-9 66q0 25 7.5 66.5t36 90.5t70.5 85t95 56t112 20q28 0 47.5 -2t38 -5t40.5 -5t54 -2h164l-23 -133h-109z"/>
<glyph unicode="τ" glyph-name="u03C4" horiz-adv-x="433" d="M37 498h461l-22 -127h-149l-65 -371h-164l65 371h-148z"/>
<glyph unicode="υ" glyph-name="u03C5" horiz-adv-x="604" d="M223 -15q-70 0 -114 18.5t-67.5 48.5t-27 57.5t-3.5 43.5q0 23 4 46l52 299h164l-46 -263q-4 -24 -4 -44.5t6.5 -35.5t21 -23.5t39.5 -8.5q50 0 73.5 31.5t32.5 80.5l46 263h164l-52 -299q-7 -40 -27 -78.5t-54.5 -68.5t-86 -48.5t-121.5 -18.5z"/>
<glyph unicode="φ" glyph-name="u03C6" horiz-adv-x="834" d="M630 245q3 15 3 28q0 14 -5 31.5t-19.5 32t-33 20.5t-37.5 6h-6h-26l-42 -237q78 1 117 34t49 85zM15 247q10 58 35 102t58 75.5t72 52t78 32.5l54 -115q-49 -14 -88.5 -49.5t-49.5 -90.5q-3 -14 -3 -27q0 -17 6.5 -35t25.5 -33.5t47.5 -23.5t64.5 -9l66 373h180 q55 0 101.5 -16t78 -47.5t42.5 -68t11 -66.5q0 -24 -5 -52q-12 -68 -47 -117t-83.5 -81t-105.5 -47.5t-114 -15.5l-40 -228h-148l40 228q-66 1 -122 15t-94 45t-51.5 70t-13.5 75q0 25 5 54z"/>
<glyph unicode="χ" glyph-name="u03C7" horiz-adv-x="614" d="M219 498l77 -227l156 227h174l-246 -347l136 -390h-177l-87 273l-183 -273h-176l272 392l-123 345h177z"/>
<glyph unicode="ψ" glyph-name="u03C8" horiz-adv-x="852" d="M465 125q37 3 63 14.5t45 33.5t31 55t20 80l33 190h164l-43 -244q-13 -73 -46.5 -125.5t-80 -86.5t-102 -50t-110.5 -17l-38 -215h-164l38 215q-56 1 -105 17t-83.5 50t-46.5 74.5t-12 75.5q0 29 6 62l43 244h164l-33 -190q-8 -47 -8 -80t11 -55t33 -33.5t57 -14.5 l66 373h164z"/>
<glyph unicode="ω" glyph-name="u03C9" horiz-adv-x="818" d="M316 417q-33 -15 -57.5 -30.5t-41.5 -34.5t-27.5 -43.5t-16.5 -58.5q-5 -29 -5 -50q0 -28 12 -49.5t41 -21.5q13 0 24.5 5.5t22 19.5t19 39t15.5 63l15 89h164l-15 -89q-8 -44 -8 -71q0 -18 6.5 -37t34.5 -19q32 0 57 27.5t37 93.5q5 25 5 44q0 7 -1.5 22t-11.5 34.5 t-28.5 35.5t-46.5 31l122 93q33 -17 58.5 -43.5t41 -62t19 -65.5t3.5 -46q0 -30 -6 -64q-20 -115 -83 -177t-165 -62q-59 0 -96 26.5t-46 80.5h-4q-17 -31 -38 -51.5t-44.5 -33t-49 -17.5t-50.5 -5q-97 0 -133 49.5t-36 117.5q0 33 7 72q10 58 30.5 103t48 78.5t62 58 t73.5 41.5z"/>
<glyph unicode="ϊ" glyph-name="u03CA" horiz-adv-x="296" d="M391 664q0 -35 -23.5 -60.5t-60.5 -25.5q-34 0 -56 20.5t-22 52.5q0 37 24.5 61.5t61.5 24.5q33 0 54.5 -20.5t21.5 -52.5zM172 664q0 -35 -23.5 -60.5t-60.5 -25.5q-35 0 -56.5 20.5t-21.5 52.5q0 37 24.5 61.5t60.5 24.5q34 0 55.5 -20.5t21.5 -52.5zM11 0l87 498h161 l-89 -498h-159z"/>
<glyph unicode="ϋ" glyph-name="u03CB" horiz-adv-x="604" d="M223 -15q-70 0 -114 18.5t-67.5 48.5t-27 57.5t-3.5 43.5q0 23 4 46l52 299h164l-46 -263q-4 -24 -4 -44.5t6.5 -35.5t21 -23.5t39.5 -8.5q50 0 73.5 31.5t32.5 80.5l46 263h164l-52 -299q-7 -40 -27 -78.5t-54.5 -68.5t-86 -48.5t-121.5 -18.5zM367 658q3 16 11.5 30.5 t22 26t29.5 18t34 6.5q34 0 52 -21t18 -47q0 -6 -1 -13q-7 -35 -35.5 -58.5t-62.5 -23.5q-35 0 -52 21t-17 46q0 7 1 15zM149 658q3 16 12 30.5t22 26t29.5 18t33.5 6.5q35 0 53 -21t18 -47q0 -6 -1 -13q-7 -35 -35.5 -58.5t-63.5 -23.5t-52 21t-17 46q0 7 1 15z"/>
<glyph unicode="ό" glyph-name="u03CC" horiz-adv-x="633" d="M320 775h127l-49 -223h-106zM422 277q0 45 -27.5 75t-77.5 30q-32 0 -58 -13t-44 -35t-28 -51t-10 -61q0 -45 27 -74.5t77 -29.5q32 0 58 12.5t44.5 34.5t28.5 51t10 61zM273 -14q-54 0 -100.5 15t-80 43.5t-53 69t-19.5 91.5q0 62 21 118t60.5 98t95.5 67t127 25 q55 0 102 -15t81 -43.5t53.5 -69t19.5 -91.5q0 -63 -21 -119t-61 -98t-96.5 -66.5t-128.5 -24.5z"/>
<glyph unicode="ύ" glyph-name="u03CD" horiz-adv-x="604" d="M296 775h127l-49 -223h-106zM223 -15q-70 0 -114 18.5t-67.5 48.5t-27 57.5t-3.5 43.5q0 23 4 46l52 299h164l-46 -263q-4 -24 -4 -44.5t6.5 -35.5t21 -23.5t39.5 -8.5q50 0 73.5 31.5t32.5 80.5l46 263h164l-52 -299q-7 -40 -27 -78.5t-54.5 -68.5t-86 -48.5 t-121.5 -18.5z"/>
<glyph unicode="ώ" glyph-name="u03CE" horiz-adv-x="818" d="M396 775h127l-49 -223h-106zM316 417q-33 -15 -57.5 -30.5t-41.5 -34.5t-27.5 -43.5t-16.5 -58.5q-5 -29 -5 -50q0 -28 12 -49.5t41 -21.5q13 0 24.5 5.5t22 19.5t19 39t15.5 63l15 89h164l-15 -89q-8 -44 -8 -71q0 -18 6.5 -37t34.5 -19q32 0 57 27.5t37 93.5q5 25 5 44 q0 7 -1.5 22t-11.5 34.5t-28.5 35.5t-46.5 31l122 93q33 -17 58.5 -43.5t41 -62t19 -65.5t3.5 -46q0 -30 -6 -64q-20 -115 -83 -177t-165 -62q-59 0 -96 26.5t-46 80.5h-4q-17 -31 -38 -51.5t-44.5 -33t-49 -17.5t-50.5 -5q-97 0 -133 49.5t-36 117.5q0 33 7 72 q10 58 30.5 103t48 78.5t62 58t73.5 41.5z"/>
<glyph unicode="Ё" glyph-name="u0401" horiz-adv-x="607" d="M581 856q0 -35 -23.5 -60.5t-60.5 -25.5q-34 0 -56 20.5t-22 52.5q0 37 24.5 61.5t61.5 24.5q33 0 54.5 -20.5t21.5 -52.5zM362 856q0 -35 -23.5 -60.5t-60.5 -25.5q-35 0 -56.5 20.5t-21.5 52.5q0 37 24.5 61.5t60.5 24.5q34 0 55.5 -20.5t21.5 -52.5zM18 0l125 708h453 l-25 -142h-294l-24 -137h280l-24 -134h-280l-26 -152h322l-25 -143h-482z"/>
<glyph unicode="Ђ" glyph-name="u0402" horiz-adv-x="715" d="M44 564l25 144h535l-25 -144h-207l-17 -94h86q131 0 181.5 -53t50.5 -129q0 -28 -6 -60q-9 -48 -33 -89.5t-63 -72.5t-91.5 -48.5t-117.5 -17.5h-27l24 138h19q48 0 79.5 25.5t38.5 63.5q2 14 2 27q0 32 -20.5 51.5t-89.5 19.5h-58l-57 -325h-170l99 564h-158z"/>
<glyph unicode="Ѓ" glyph-name="u0403" horiz-adv-x="518" d="M393 764h-122l129 144h163zM190 0h-172l124 708h446l-26 -149h-274z"/>
<glyph unicode="Є" glyph-name="u0404" horiz-adv-x="694" d="M660 105q-50 -54 -123.5 -88.5t-169.5 -34.5q-86 0 -152 28t-108 77.5t-54 101.5t-12 91q0 36 10.5 95.5t51 127.5t100 117.5t135.5 77.5t161 28q185 0 245 -103l-131 -125q-17 35 -50.5 54.5t-90.5 19.5q-32 0 -63.5 -9t-60 -27t-53 -45.5t-40.5 -65.5h324l-23 -133 h-327q2 -42 17.5 -71.5t39 -47.5t52.5 -26.5t58 -8.5q51 0 92.5 18.5t83.5 55.5z"/>
<glyph unicode="Ѕ" glyph-name="u0405" horiz-adv-x="591" d="M472 536q-20 27 -50 41t-67 14q-17 0 -36 -4.5t-34.5 -15t-26 -26.5t-10.5 -39q0 -30 23.5 -47.5t65.5 -32.5q46 -16 82 -35.5t61 -44.5t38 -56.5t13 -71.5q0 -64 -26.5 -109t-68.5 -73.5t-94 -41.5t-103 -13q-38 0 -76 7t-73 20.5t-65 34.5t-51 48l123 100 q21 -32 62 -52t83 -20q22 0 42.5 4.5t36.5 15t25.5 27t9.5 39.5q0 37 -30 58.5t-80 38.5q-35 12 -65.5 27t-53 37t-36 52.5t-13.5 73.5q0 54 22.5 97.5t61.5 74t91 47t111 16.5q31 0 63 -6t61.5 -17.5t54.5 -28.5t42 -39z"/>
<glyph unicode="І" glyph-name="u0406" horiz-adv-x="318" d="M18 0l125 708h167l-125 -708h-167z"/>
<glyph unicode="Ї" glyph-name="u0407" horiz-adv-x="300" d="M377 856q0 -35 -23.5 -60.5t-60.5 -25.5q-34 0 -56 20.5t-22 52.5q0 37 24.5 61.5t61.5 24.5q33 0 54.5 -20.5t21.5 -52.5zM158 856q0 -35 -23.5 -60.5t-60.5 -25.5q-35 0 -56.5 20.5t-21.5 52.5q0 37 24.5 61.5t60.5 24.5q34 0 55.5 -20.5t21.5 -52.5zM-35 0l125 708 h167l-125 -708h-167z"/>
<glyph unicode="Ј" glyph-name="u0408" horiz-adv-x="529" d="M442 239q-8 -43 -22 -89t-42 -83.5t-74 -61.5t-117 -24q-91 0 -148 44.5t-73 120.5l154 50q4 -27 21 -46t45 -19q44 0 63 31t27 78l82 468h168z"/>
<glyph unicode="Љ" glyph-name="u0409" horiz-adv-x="998" d="M595 310l37 -168q21 0 45.5 2t46.5 10.5t38.5 26.5t22.5 50q2 10 2 18q0 16 -8 28.5t-28 20.5t-48 10t-59 2h-49zM109 0h-183l412 708h166l60 -258h107q69 0 127 -10.5t97 -36.5t53 -60.5t14 -68.5q0 -23 -5 -50q-10 -58 -39.5 -100t-76 -69.5t-107.5 -41t-134 -13.5 h-124l-91 518z"/>
<glyph unicode="Њ" glyph-name="u040A" horiz-adv-x="1047" d="M643 306l-28 -160h70q23 0 45 3t40 11.5t31 24t17 39.5q1 9 1 17q0 14 -5.5 27t-21 22t-37 12.5t-45.5 3.5h-67zM312 708l-45 -258h232l45 258h170l-45 -258h80q55 0 104 -12.5t83 -39.5t46.5 -61.5t12.5 -65.5q0 -22 -8 -65.5t-37 -86t-71 -69t-94.5 -38.5t-110.5 -12 h-254l53 306h-232l-53 -306h-170l124 708h170z"/>
<glyph unicode="Ћ" glyph-name="u040B" horiz-adv-x="744" d="M324 326l-57 -326h-170l99 564h-158l25 144h535l-25 -144h-207l-17 -94h105q73 0 117.5 -21.5t67 -60.5t24.5 -72t2 -45q0 -44 -9 -95q-5 -30 -10.5 -61t-10.5 -57q-5 -30 -10 -58h-172l23 131q9 49 10 70t1 26q0 30 -10.5 52.5t-38.5 34.5t-79 12h-35z"/>
<glyph unicode="Ќ" glyph-name="u040C" horiz-adv-x="698" d="M431 764h-122l129 144h163zM18 0l124 708h170l-45 -257q13 0 25.5 -0.5t25.5 -1.5l245 259h206l-296 -306q80 -48 124 -145t46 -257h-186q-1 73 -14.5 131t-40 98t-64.5 59t-86 19h-10l-54 -307h-170z"/>
<glyph unicode="Ў" glyph-name="u040E" horiz-adv-x="656" d="M101 708h175l91 -356l201 356h186l-333 -554q-23 -37 -49 -69t-61 -55q-34 -22 -76 -36t-95 -14q-40 0 -68 8t-48 18t-32 22t-19 21l127 119q11 -14 28 -27t43 -13q27 0 45 9t33 27zM437 762q-37 0 -71 9t-60 25t-42 36t-21 43l96 48q9 -31 33 -51t65 -19q41 -1 65 19 t33 51l96 -48q-5 -23 -22 -43t-43 -36t-58 -25q-33 -9 -71 -9z"/>
<glyph unicode="Џ" glyph-name="u040F" horiz-adv-x="758" d="M483 144l99 564h170l-124 -708h-228l-24 -139h-140l24 139h-242l124 708h170l-99 -564h270z"/>
<glyph unicode="А" glyph-name="u0410" horiz-adv-x="710" d="M411 526l-148 -251h185zM489 0l-24 141h-273l-85 -141h-190l451 708h162l134 -708h-175z"/>
<glyph unicode="Б" glyph-name="u0411" horiz-adv-x="661" d="M293 144q24 0 47 4.5t41.5 14.5t31 25.5t16.5 37.5q1 8 1 15q0 13 -6 26t-21 22t-35.5 12.5t-43.5 3.5h-83l-28 -161h80zM18 0l124 708h506l-25 -144h-336l-20 -115h97q58 0 106.5 -12t81 -38.5t43.5 -59.5t11 -64q0 -22 -4 -48q-11 -62 -41.5 -105t-74 -70t-97 -39.5 t-108.5 -12.5h-263z"/>
<glyph unicode="В" glyph-name="u0412" horiz-adv-x="664" d="M229 303l-29 -169h97q28 0 53 5t44.5 16t31 30t11.5 46q0 34 -26 53t-74 19h-108zM277 575l-26 -152h102q18 0 37.5 4t35.5 14t26.5 27t10.5 42q0 35 -27 50t-68 15h-91zM420 708q37 0 74 -8t66.5 -26.5t48 -48t18.5 -72.5q0 -72 -42 -118t-109 -63v-2q54 -9 90.5 -48.5 t36.5 -102.5q0 -54 -22.5 -95t-62.5 -68.5t-96 -41.5t-122 -14h-282l125 708h277z"/>
<glyph unicode="Г" glyph-name="u0413" horiz-adv-x="546" d="M190 0h-172l124 708h446l-26 -149h-274z"/>
<glyph unicode="Д" glyph-name="u0414" horiz-adv-x="830" d="M272 144h238l-40 367zM85 0l-25 -139h-139l49 283h119l336 564h162l91 -564h132l-50 -283h-140l25 139h-560z"/>
<glyph unicode="Е" glyph-name="u0415" horiz-adv-x="607" d="M18 0l125 708h453l-25 -142h-294l-24 -137h280l-24 -134h-280l-26 -152h322l-25 -143h-482z"/>
<glyph unicode="Ж" glyph-name="u0416" horiz-adv-x="992" d="M421 302q-52 0 -96 -27t-79.5 -70t-62 -97t-42.5 -108h-186q46 154 112.5 251.5t158.5 145.5l-142 311h179l122 -266q15 2 30 3t31 1l46 262h170l-46 -262q25 0 51 -3l224 265h188l-261 -321q72 -53 103 -141.5t31 -198.5q0 -23 -1 -47h-186q1 16 1 31q0 39 -4.5 85.5 t-23.5 89.5t-54 69.5t-93 26.5l-53 -302h-170z"/>
<glyph unicode="З" glyph-name="u0417" horiz-adv-x="621" d="M168 424l107 1q21 0 45 3t44 12t33.5 26t13.5 46q-1 30 -26 52.5t-66 22.5q-67 -1 -99 -77l-142 61q37 72 104 113.5t156 41.5q39 0 84.5 -10.5t84 -33t64.5 -58.5t26 -87q0 -36 -13 -66t-35.5 -52.5t-53 -37.5t-66.5 -19v-2q22 -4 45 -14.5t42 -28t31 -43t12 -59.5 q0 -56 -25 -99.5t-65.5 -73t-92.5 -45t-107 -15.5q-49 0 -94 12t-80.5 37.5t-59.5 65t-31 94.5l161 33q8 -53 40 -77.5t78 -24.5q52 0 76.5 28t24.5 72q-1 17 -8 32.5t-23.5 27.5t-42.5 18.5t-65 6.5l-98 -1z"/>
<glyph unicode="И" glyph-name="u0418" horiz-adv-x="808" d="M232 236l362 472h208l-124 -708h-170l82 466h-3l-362 -466h-207l124 708h170l-83 -472h3z"/>
<glyph unicode="Й" glyph-name="u0419" horiz-adv-x="806" d="M457 762q-38 0 -71.5 9t-59 24.5t-42 36t-21.5 43.5l96 48q10 -31 33.5 -50.5t64.5 -19.5t64.5 19.5t33.5 50.5l96 -48q-5 -23 -22 -43.5t-42.5 -36t-58.5 -24.5t-71 -9zM598 708h202l-124 -708h-170l82 463h-3l-366 -463h-201l124 708h170l-82 -462h3z"/>
<glyph unicode="К" glyph-name="u041A" horiz-adv-x="698" d="M18 0l124 708h170l-45 -257q13 0 25.5 -0.5t25.5 -1.5l245 259h206l-296 -306q80 -48 124 -145t46 -257h-186q-1 73 -14.5 131t-40 98t-64.5 59t-86 19h-10l-54 -307h-170z"/>
<glyph unicode="Л" glyph-name="u041B" horiz-adv-x="694" d="M105 0h-190l451 708h162l134 -708h-175l-76 511z"/>
<glyph unicode="М" glyph-name="u041C" horiz-adv-x="955" d="M660 0l93 507h-4l-275 -507h-117l-94 507h-4l-85 -507h-156l125 708h233l82 -459h4l239 459h247l-125 -708h-163z"/>
<glyph unicode="Н" glyph-name="u041D" horiz-adv-x="764" d="M460 0l52 298h-275l-53 -298h-166l125 708h166l-48 -269h276l47 269h167l-125 -708h-166z"/>
<glyph unicode="О" glyph-name="u041E" horiz-adv-x="851" d="M395 132q55 0 98.5 22.5t73.5 60t46 86t16 99.5q0 37 -12 69.5t-34.5 56.5t-56.5 38t-77 14q-54 0 -97.5 -23t-74 -60.5t-47 -85.5t-16.5 -99q0 -37 12 -69.5t35 -56.5t56.5 -38t77.5 -14zM460 726q80 0 143.5 -22t107.5 -63t67.5 -99t23.5 -129q0 -90 -30.5 -168.5 t-85.5 -137t-131.5 -92t-168.5 -33.5q-81 0 -145 22t-108.5 63t-68 99t-23.5 129q0 90 31 168.5t87 137t132.5 92t168.5 33.5z"/>
<glyph unicode="П" glyph-name="u041F" horiz-adv-x="748" d="M742 708l-124 -708h-170l99 564h-260l-99 -564h-170l124 708h600z"/>
<glyph unicode="Р" glyph-name="u0420" horiz-adv-x="640" d="M325 401q65 0 103.5 20.5t38.5 72.5q0 23 -8.5 38.5t-23.5 24.5t-36 12.5t-46 3.5h-68l-31 -172h71zM376 708q125 0 191.5 -52t66.5 -145q0 -63 -22 -109t-63 -75.5t-98.5 -43.5t-128.5 -14h-91l-48 -269h-165l125 708h233z"/>
<glyph unicode="С" glyph-name="u0421" horiz-adv-x="696" d="M649 99q-21 -23 -48.5 -44.5t-63 -38t-78 -26t-93.5 -9.5q-75 0 -135 22t-102 62.5t-65 97.5t-23 126q0 91 32 171t88.5 139.5t133.5 93.5t167 34q84 0 151 -29.5t101 -75.5l-123 -110q-17 26 -50.5 46t-83.5 20q-53 0 -96.5 -22.5t-75 -60t-49 -86t-17.5 -100.5 q0 -36 11.5 -68.5t33.5 -56.5t54.5 -38t74.5 -14q47 0 89 20t74 57z"/>
<glyph unicode="Т" glyph-name="u0422" horiz-adv-x="581" d="M404 565l-100 -565h-166l99 565h-198l26 143h558l-25 -143h-194z"/>
<glyph unicode="У" glyph-name="u0423" horiz-adv-x="656" d="M276 708l91 -356l201 356h186l-333 -554q-23 -37 -49.5 -69t-60.5 -55t-76 -36.5t-95 -13.5q-39 0 -67.5 7.5t-48 18t-32 22.5t-19.5 21l127 119q11 -14 28 -27t43 -13q28 0 45.5 9t32.5 27l-148 544h175z"/>
<glyph unicode="Ф" glyph-name="u0424" horiz-adv-x="952" d="M227 315q0 -26 6.5 -51t21.5 -46.5t41 -38.5t65 -27l71 403q-43 -10 -80.5 -31.5t-65 -53t-43.5 -71t-16 -84.5zM737 391q0 26 -7 51t-23.5 46.5t-44.5 38t-70 25.5l-72 -405q46 9 86 31t69 54t45.5 72.5t16.5 86.5zM619 708q72 -11 129 -39t96 -69.5t60 -94t21 -113.5 q0 -90 -36 -161t-96 -121.5t-138 -80t-162 -36.5l-11 -64h-160l12 70q-70 12 -124.5 40.5t-92.5 69.5t-58 93t-20 112q0 88 34.5 158t92.5 120.5t134.5 80.5t159.5 39l11 60h160z"/>
<glyph unicode="Х" glyph-name="u0425" horiz-adv-x="703" d="M439 0l-105 253l-206 -253h-206l332 374l-156 334h187l89 -224l180 224h201l-300 -338l175 -370h-191z"/>
<glyph unicode="Ц" glyph-name="u0426" horiz-adv-x="801" d="M18 0l124 708h170l-99 -564h269l100 564h170l-100 -564h77l-50 -283h-140l25 139h-546z"/>
<glyph unicode="Ч" glyph-name="u0427" horiz-adv-x="676" d="M501 708h169l-124 -708h-168l46 263h-128q-138 0 -179.5 62t-41.5 140q0 36 7 78l29 165h170l-22 -129q-8 -45 -9 -63.5t-1 -23.5q0 -26 8.5 -45.5t30 -29.5t59.5 -10h101z"/>
<glyph unicode="Ш" glyph-name="u0428" horiz-adv-x="1009" d="M392 144l99 564h170l-99 -564h172l99 564h170l-124 -708h-861l124 708h170l-99 -564h179z"/>
<glyph unicode="Щ" glyph-name="u0429" horiz-adv-x="1093" d="M18 0l124 708h170l-99 -564h179l99 564h170l-99 -564h177l100 564h170l-100 -564h117l-50 -283h-140l25 139h-843z"/>
<glyph unicode="Ъ" glyph-name="u042A" horiz-adv-x="698" d="M288 144h55q64 0 92 24.5t35 60.5q1 8 1 15q0 25 -18 43.5t-82 18.5h-55zM387 708l-45 -258h42q61 0 113.5 -10t88.5 -34.5t48.5 -57t12.5 -64.5q0 -22 -7.5 -64.5t-38.5 -87.5t-77 -74t-103 -43.5t-119 -14.5h-209l99 564h-164l25 144h334z"/>
<glyph unicode="Ы" glyph-name="u042B" horiz-adv-x="873" d="M867 708l-124 -708h-170l124 708h170zM213 144h57q64 0 91.5 23t34.5 61q3 17 0 31t-14 24.5t-31.5 16.5t-52.5 6h-57zM312 708l-45 -258h44q61 0 113.5 -10t88.5 -34.5t48.5 -57t12.5 -64.5q0 -22 -7.5 -64.5t-38.5 -87.5t-77 -74t-103 -43.5t-119 -14.5h-211l124 708 h170z"/>
<glyph unicode="Ь" glyph-name="u042C" horiz-adv-x="640" d="M142 708h170l-45 -258h64q61 0 113.5 -11t88.5 -35.5t48.5 -57t12.5 -62.5q0 -21 -4 -46q-11 -61 -42 -106t-77 -74t-103 -43.5t-119 -14.5h-231zM241 306l-28 -162h77q64 0 92 22.5t35 60.5q1 9 1 16q0 26 -18 44.5t-82 18.5h-77z"/>
<glyph unicode="Э" glyph-name="u042D" horiz-adv-x="701" d="M-24 96l122 104q31 -29 73 -48.5t92 -19.5q46 0 83 12.5t65.5 34t48.5 50.5t32 63h-341l23 133h334q-4 32 -17.5 60t-36 48.5t-54 32.5t-71.5 12q-36 0 -63.5 -8t-48.5 -20t-36.5 -25t-27.5 -23l-91 120q47 43 116 73.5t162 30.5q80 0 143.5 -22t107.5 -63t67.5 -99 t23.5 -129q0 -90 -30.5 -168.5t-85.5 -137t-131.5 -92t-168.5 -33.5q-55 0 -99 10t-79 26t-62.5 36.5t-49.5 41.5z"/>
<glyph unicode="Ю" glyph-name="u042E" horiz-adv-x="1165" d="M715 132q55 0 98.5 22.5t73.5 60t46 86t16 99.5q0 37 -12 69.5t-34.5 56.5t-56.5 38t-77 14q-54 0 -97.5 -23t-74 -60.5t-47 -85.5t-16.5 -99q0 -37 12 -69.5t35 -56.5t56.5 -38t77.5 -14zM18 0l125 708h167l-50 -280h120q19 65 56 119.5t89 94.5t116.5 62t138.5 22 q80 0 143.5 -22t107.5 -63t67.5 -99t23.5 -129q0 -90 -30.5 -168.5t-85.5 -137t-131.5 -92t-168.5 -33.5q-79 0 -142 21.5t-107.5 60.5t-69 95t-26.5 125h-126l-50 -284h-167z"/>
<glyph unicode="Я" glyph-name="u042F" horiz-adv-x="748" d="M547 564h-74q-80 0 -119 -21t-47 -63q-3 -16 2 -30.5t21 -25t44 -17t72 -6.5h72zM256 321q-69 12 -101 49t-32 84q0 17 3 35q18 104 108.5 161.5t248.5 57.5h259l-124 -708h-170l45 257h-61q-75 0 -138.5 -66t-102.5 -191h-186q15 63 41.5 114t60 90t72 67.5t77.5 47.5v2 z"/>
<glyph unicode="а" glyph-name="u0430" horiz-adv-x="566" d="M326 218q-30 0 -61 -2.5t-55.5 -10.5t-40.5 -22t-16 -37q0 -30 20.5 -40.5t45.5 -10.5q46 0 77 28.5t39 70.5l5 24h-14zM503 352q0 -14 -1.5 -30t-4.5 -31l-34 -194q-5 -26 -7.5 -53t-2.5 -44h-142q0 11 1 25.5t3 27.5h-2q-55 -65 -152 -65q-26 0 -53.5 6.5t-50 22 t-36.5 41t-14 62.5q0 60 30 98t78.5 59t110 29t123.5 8q2 9 2 14v9q0 29 -20.5 42.5t-57.5 13.5q-34 0 -68.5 -13t-62.5 -34l-66 92q45 36 103.5 55.5t115.5 19.5q45 0 83 -9.5t65.5 -29.5t43.5 -50t16 -72z"/>
<glyph unicode="б" glyph-name="u0431" horiz-adv-x="607" d="M358 498q52 0 94.5 -17.5t70.5 -50t36.5 -68.5t8.5 -64q0 -25 -5 -53q-11 -59 -39.5 -107.5t-71.5 -82.5t-97 -52.5t-114 -18.5q-46 0 -85.5 13.5t-69 40.5t-46.5 68t-19 95v8q0 38 8 88q19 112 55 190t88.5 127t123 71t160.5 22h162l-22 -123h-164q-75 0 -124.5 -27.5 t-68.5 -84.5q28 17 60.5 21.5t58.5 4.5zM408 242q3 15 3 29q0 34 -21.5 64t-72.5 30q-50 0 -89.5 -30.5t-50.5 -91.5q-3 -16 -3 -30q0 -36 22.5 -65t74.5 -29q26 0 49 9.5t41 26t30 39t17 48.5z"/>
<glyph unicode="в" glyph-name="u0432" horiz-adv-x="597" d="M292 299q16 0 31 1.5t27 6t20 13t11 22.5q1 4 1 8q0 21 -21.5 28.5t-54.5 7.5h-64l-16 -87h66zM193 112h62q20 0 39.5 0.5t35 4.5t26.5 13t14 26t-4.5 27t-21.5 14.5t-33 5.5t-39 1h-63zM298 0h-288l87 498h275q95 0 136 -33t41 -78q0 -11 -2 -23q-5 -28 -17.5 -46.5 t-29.5 -31t-38.5 -20t-45.5 -13.5q27 -2 50.5 -9.5t39.5 -21.5t21.5 -31.5t5.5 -33.5q0 -11 -2 -24q-11 -60 -73 -96.5t-160 -36.5z"/>
<glyph unicode="г" glyph-name="u0433" horiz-adv-x="382" d="M174 0h-164l87 498h350l-22 -126h-186z"/>
<glyph unicode="д" glyph-name="u0434" horiz-adv-x="650" d="M231 127h138l-24 188h-20zM66 -139h-133l46 266h82l205 371h200l67 -371h86l-47 -266h-134l25 139h-372z"/>
<glyph unicode="е" glyph-name="u0435" horiz-adv-x="596" d="M397 304q1 5 1 10v10q0 33 -23.5 55t-67.5 22q-27 0 -48.5 -9.5t-37.5 -23.5t-26 -31t-14 -33h216zM170 206q-1 -4 -1 -9q0 -21 9.5 -37.5t25 -28t35 -17.5t40.5 -6q38 0 67 14t52 38l101 -79q-48 -51 -107 -73.5t-127 -22.5q-52 0 -96.5 14.5t-77.5 43t-52 70.5t-19 96 q0 64 22.5 119.5t62 96.5t94.5 64.5t121 23.5q49 0 89.5 -14t69.5 -40.5t45 -65.5t16 -90q0 -18 -3.5 -45.5t-9.5 -51.5h-357z"/>
<glyph unicode="ж" glyph-name="u0436" horiz-adv-x="838" d="M327 196q-29 -5 -55.5 -17t-50.5 -35t-45.5 -58t-41.5 -86h-181q35 82 87 146t119 107l-104 245h181l68 -184q11 3 22.5 4.5t22.5 3.5l31 176h164l-31 -176q11 -2 21 -3.5t21 -4.5l133 184h181l-190 -244q52 -43 82 -107.5t36 -146.5h-181q-2 51 -11.5 86.5t-25.5 58 t-38.5 34.5t-49.5 17l-34 -196h-164z"/>
<glyph unicode="з" glyph-name="u0437" horiz-adv-x="496" d="M116 338l-81 70q12 17 32 36t49.5 35.5t69.5 27t92 10.5q107 0 155 -34t48 -85q0 -11 -2 -23q-5 -27 -17 -47t-28 -34t-33.5 -23.5t-33.5 -15.5v-3q15 -2 33 -10.5t32.5 -24t21 -33.5t6.5 -35q0 -10 -2 -22q-8 -41 -32 -69.5t-60.5 -45.5t-83 -24.5t-98.5 -7.5 q-47 0 -82 8.5t-60.5 20t-41.5 24t-26 21.5l88 98q8 -7 21.5 -15.5t31 -15.5t38 -12t41.5 -5q45 0 73.5 11.5t33.5 37.5q3 14 -5.5 23.5t-23.5 15t-35 7.5t-41 2h-82l18 102h82q43 0 72.5 6.5t34.5 32.5q1 4 1 7q0 19 -20.5 34.5t-68.5 15.5q-29 0 -50.5 -10t-36.5 -21 q-18 -13 -30 -30z"/>
<glyph unicode="и" glyph-name="u0438" horiz-adv-x="684" d="M443 288l-269 -288h-164l87 498h164l-50 -286l269 286h164l-87 -498h-164z"/>
<glyph unicode="й" glyph-name="u0439" horiz-adv-x="684" d="M255 692l113 19q0 -25 14 -38t35 -13t39 14t28 37l107 -19q-30 -66 -79 -98t-112 -32q-67 0 -104 34t-41 96zM393 0l50 288l-269 -288h-164l87 498h164l-50 -286l269 286h164l-87 -498h-164z"/>
<glyph unicode="к" glyph-name="u043A" horiz-adv-x="557" d="M229 317q22 -2 42 -6l147 187h181l-199 -241q56 -42 81.5 -107t32.5 -150h-181q-2 52 -11 87t-24.5 56.5t-38 32.5t-52.5 15l-33 -191h-164l87 498h164z"/>
<glyph unicode="л" glyph-name="u043B" horiz-adv-x="560" d="M335 0l-52 303l-166 -303h-177l280 498h196l96 -498h-177z"/>
<glyph unicode="м" glyph-name="u043C" horiz-adv-x="752" d="M241 498l130 -201l197 201h144l-87 -498h-164l47 271l-160 -176h-28l-99 174l-47 -269h-164l87 498h144z"/>
<glyph unicode="н" glyph-name="u043D" horiz-adv-x="632" d="M174 0h-164l87 498h164l-32 -184h167l32 184h164l-87 -498h-164l33 188h-167z"/>
<glyph unicode="о" glyph-name="u043E" horiz-adv-x="633" d="M422 277q0 45 -27.5 75t-77.5 30q-32 0 -58 -13t-44 -35t-28 -51t-10 -61q0 -45 27 -74.5t77 -29.5q32 0 58 12.5t44.5 34.5t28.5 51t10 61zM273 -14q-54 0 -100.5 15t-80 43.5t-53 69t-19.5 91.5q0 62 21 118t60.5 98t95.5 67t127 25q55 0 102 -15t81 -43.5t53.5 -69 t19.5 -91.5q0 -63 -21 -119t-61 -98t-96.5 -66.5t-128.5 -24.5z"/>
<glyph unicode="п" glyph-name="u043F" horiz-adv-x="624" d="M174 0h-164l87 498h487l-87 -498h-164l65 371h-159z"/>
<glyph unicode="р" glyph-name="u0440" horiz-adv-x="657" d="M451 275q0 45 -26 75.5t-76 30.5q-30 0 -56 -13t-45 -35t-30 -51t-11 -61q0 -46 28 -75.5t77 -29.5q32 0 57.5 12.5t43.5 34t28 50.5t10 62zM126 -240h-160l130 738h152l-12 -69h3q28 38 70.5 59.5t92.5 21.5q49 0 88 -16t66 -44.5t41 -68t14 -85.5q0 -64 -20.5 -120.5 t-57.5 -98.5t-87.5 -66.5t-110.5 -24.5q-55 0 -95 20.5t-60 55.5h-2z"/>
</font>
</defs>
</svg>
