<?xml version="1.0" encoding="UTF-8" standalone="no"?>
<!DOCTYPE svg  PUBLIC '-//W3C//DTD SVG 1.1//EN'  'http://www.w3.org/Graphics/SVG/1.1/DTD/svg11.dtd'>
<svg xmlns="http://www.w3.org/2000/svg" version="1.1">
<defs>
<font id="AvenirNext-HeavyItalic" horiz-adv-x="360">
<font-face x-height="526" units-per-em="1000" unicode-range="U+000D-FB02" panose-1="2 11 9 3 2 2 2 9 2 4" font-family="Avenir Next Heavy" underline-thickness="50" bbox="-230 -250 1228 969" slope="-12" descent="-200" font-style="italic" font-weight="900" cap-height="708" ascent="800" underline-position="-150"/>
<missing-glyph d="M512 718v-718h-512v718h512zM462 50v617h-412v-617h412zM225 234l-2 17q0 56 13 81q7 13 18 27.5t28 31.5q16 15 26 26.5t15 21t7 18t2 17.5q0 36 -22.5 60.5t-53.5 24.5t-53.5 -22t-28.5 -73l-50 8q7 72 44 104.5t91 32.5t89 -35.5t35 -95.5q0 -32 -12.5 -58.5 t-50.5 -61.5q-37 -33 -43 -52q-6 -20 -6 -72h-46zM222 117v67h56v-67h-56z" horiz-adv-x="512"/>
<glyph d="M856 255q-8 -47 -23.5 -95.5t-46 -88.5t-82 -65.5t-131.5 -25.5q-99 0 -164 47t-90 132l212 75q3 -17 14 -30t31 -13q23 0 33 17t15 43l81 457h232zM7 0l125 708h233l-125 -708h-233z" horiz-adv-x="929" glyph-name="IJ" unicode="IJ"/>
<glyph d="M542 565q-26 0 -46.5 8t-34.5 21.5t-22 31t-8 36.5q0 27 9 50.5t26 41t40 27.5t52 10q24 0 44.5 -8t35 -21.5t22.5 -31t8 -36.5q0 -27 -9 -50.5t-25.5 -41t-40 -27.5t-51.5 -10zM549 1q-9 -50 -25.5 -95t-47 -79.5t-78.5 -55t-120 -20.5q-20 0 -46.5 3t-45.5 9l38 182 q11 -3 20 -4t16 -1q27 0 43.5 16t22.5 51l92 519h224zM213 565q-26 0 -46.5 8t-34.5 21.5t-22 31t-8 36.5q0 27 9 50.5t26 41t40 27.5t52 10q24 0 44.5 -8t35 -21.5t22.5 -31t8 -36.5q0 -27 -9 -50.5t-25.5 -41t-40 -27.5t-51.5 -10zM-5 0l93 526h224l-93 -526h-224z" horiz-adv-x="663" glyph-name="ij" unicode="ij"/>
<glyph d="M182 526h-161l107 182h185zM207 423q4 19 8.5 49t6.5 54h216q-1 -15 -3 -34.5t-4 -33.5h4q23 32 64.5 56t91.5 24q44 0 74.5 -13t50 -34.5t28 -49.5t8.5 -58q0 -16 -1.5 -33.5t-4.5 -33.5l-55 -316h-225l49 279q2 9 2.5 18.5t0.5 15.5q0 20 -11 32.5t-35 12.5 q-23 0 -40.5 -20.5t-24.5 -59.5l-50 -278h-224z" horiz-adv-x="800" glyph-name="napostrophe" unicode='&quot;n'/>
<glyph d="M625 565q-26 0 -46.5 8t-34.5 21.5t-22 31t-8 36.5q0 27 9 50.5t26 41t40 27.5t52 10q24 0 44.5 -8t35 -21.5t22.5 -31t8 -36.5q0 -27 -9 -50.5t-25.5 -41t-40 -27.5t-51.5 -10zM407 0l93 526h224l-93 -526h-224zM457 602q-8 4 -19.5 6.5t-23.5 2.5q-35 0 -49 -20.5 t-20 -52.5l-2 -12h111l-28 -161h-108l-65 -365h-223l65 365h-90l28 161h87l3 16q9 49 25.5 93t47 77.5t78.5 53t119 19.5q23 0 52 -3.5t48 -11.5z" horiz-adv-x="747" glyph-name="fi" unicode="fi"/>
<glyph d="M457 602q-8 4 -19.5 6.5t-23.5 2.5q-35 0 -49 -20.5t-20 -52.5l-2 -12h111l-28 -161h-108l-65 -365h-223l65 365h-90l28 161h87l3 16q9 49 25.5 93t47 77.5t78.5 53t119 19.5q23 0 52 -3.5t48 -11.5zM406 0l133 756h229l-133 -756h-229z" horiz-adv-x="750" glyph-name="fl" unicode="fl"/>
<glyph d="M512 718v-718h-512v718h512zM462 50v617h-412v-617h412zM225 234l-2 17q0 56 13 81q7 13 18 27.5t28 31.5q16 15 26 26.5t15 21t7 18t2 17.5q0 36 -22.5 60.5t-53.5 24.5t-53.5 -22t-28.5 -73l-50 8q7 72 44 104.5t91 32.5t89 -35.5t35 -95.5q0 -32 -12.5 -58.5 t-50.5 -61.5q-37 -33 -43 -52q-6 -20 -6 -72h-46zM222 117v67h56v-67h-56z" horiz-adv-x="512" glyph-name=".notdef"/>
<glyph horiz-adv-x="500" glyph-name=".null"/>
<glyph horiz-adv-x="500" glyph-name=".null"/>
<glyph horiz-adv-x="0" glyph-name="nonmarkingreturn" unicode=""/>
<glyph horiz-adv-x="250" glyph-name="space" unicode=" "/>
<glyph d="M179 -13q-27 0 -48.5 8.5t-36.5 22.5t-23 32.5t-8 38.5q0 27 9.5 51.5t27 43t42 29t54.5 10.5q26 0 47 -8.5t36 -22.5t23.5 -32.5t8.5 -38.5q0 -28 -9.5 -52.5t-27 -42.5t-42 -28.5t-53.5 -10.5zM88 258l80 450h233l-80 -450h-233z" horiz-adv-x="439" glyph-name="exclam" unicode="!"/>
<glyph d="M93 427l50 281h169l-50 -281h-169zM313 427l49 281h168l-50 -281h-167z" horiz-adv-x="550" glyph-name="quotedbl" unicode='&quot;'/>
<glyph d="M300 389l-22 -70h45l23 70h-46zM487 389l-23 -70h78l-23 -131h-95l-61 -188h-141l59 188h-44l-60 -188h-141l59 188h-77l23 131h95l24 70h-78l23 131h95l60 188h142l-60 -188h45l60 188h141l-60 -188h77l-23 -131h-95z" horiz-adv-x="618" glyph-name="numbersign" unicode="#"/>
<glyph d="M354 786h103l-14 -70q61 -5 116.5 -27t87.5 -55l-145 -140q-17 20 -43 32t-61 12q-27 0 -49.5 -11.5t-22.5 -35.5q0 -20 19 -31t55 -22q90 -29 140 -76.5t50 -126.5q0 -58 -23 -101.5t-59.5 -73t-83 -46t-93.5 -20.5l-14 -77h-102l14 76q-69 5 -133 30t-106 66l155 143 q23 -27 62.5 -43t71.5 -16q33 0 54 11.5t21 32.5q0 17 -17.5 31t-63.5 29q-38 12 -70.5 27t-56.5 37.5t-37.5 53t-13.5 74.5q0 48 17.5 90t50 74.5t77.5 54t100 28.5z" horiz-adv-x="695" glyph-name="dollar" unicode="$"/>
<glyph d="M235 -39l-86 58l546 720l87 -56zM752 191q0 21 -13 35.5t-38 14.5q-30 0 -48 -22.5t-18 -54.5q0 -23 13 -37t37 -14q31 0 49 23t18 55zM677 -11q-39 0 -72.5 10.5t-58 31t-38 50.5t-13.5 69q0 45 15.5 84t43.5 68.5t67.5 46t86.5 16.5q40 0 73.5 -11t58 -31.5t38.5 -50.5 t14 -69q0 -45 -16 -84t-44.5 -68t-68 -45.5t-86.5 -16.5zM309 546q0 21 -13 35.5t-38 14.5q-30 0 -48 -22.5t-18 -54.5q0 -23 13 -37t37 -14q31 0 49 23t18 55zM234 344q-39 0 -72.5 10.5t-58 31t-38 50.5t-13.5 69q0 45 15.5 84t43.5 68.5t67.5 46t86.5 16.5q40 0 73.5 -11 t58 -31.5t38.5 -50.5t14 -69q0 -45 -16 -84t-45 -68t-68.5 -45.5t-85.5 -16.5z" horiz-adv-x="915" glyph-name="percent" unicode="%"/>
<glyph d="M193 399q-26 29 -36.5 61.5t-10.5 61.5q0 41 18 78t51 65.5t79.5 45.5t103.5 17q50 0 92 -11.5t72 -34t47 -57t17 -79.5q0 -71 -45 -117t-121 -75l41 -46l62 79h244l-181 -205l158 -182h-276l-38 47q-42 -30 -91.5 -46t-103.5 -16q-51 0 -99 10.5t-85 34.5t-59 62t-22 92 q0 77 48 131t135 84zM440 535q0 20 -12 32.5t-34 12.5q-25 0 -40 -16t-15 -39q0 -17 8 -34t21 -28q32 11 52 30t20 42zM285 276q-23 -7 -40.5 -23.5t-17.5 -45.5q0 -25 19.5 -39t42.5 -14q21 0 39.5 6.5t32.5 20.5z" horiz-adv-x="834" glyph-name="ampersand" unicode="&amp;"/>
<glyph d="M93 427l49 281h168l-50 -281h-167z" horiz-adv-x="330" glyph-name="quotesingle" unicode="&apos;"/>
<glyph d="M83 -180q-21 36 -37.5 77.5t-27.5 86t-16.5 90t-5.5 89.5q0 84 17.5 165.5t49.5 157t77 144t99 126.5l135 -71q-106 -120 -161 -253.5t-55 -268.5q0 -36 4.5 -75t14 -78t23.5 -75.5t33 -68.5z" glyph-name="parenleft" unicode="("/>
<glyph d="M253 756q21 -36 37.5 -77.5t27.5 -86t16.5 -90t5.5 -89.5q0 -84 -17.5 -165.5t-49.5 -157t-77 -144t-99 -126.5l-135 71q106 120 161 253.5t55 268.5q0 36 -4.5 75t-14 78t-23.5 75.5t-33 68.5z" glyph-name="parenright" unicode=")"/>
<glyph d="M496 374l-121 -83l-74 95l-71 -90l-120 83l74 89l-117 37l48 130l114 -38v111h149v-112l116 35l44 -130l-114 -34z" horiz-adv-x="523" glyph-name="asterisk" unicode="*"/>
<glyph d="M253 378v198h158v-198h206v-150h-204v-198h-158v198h-206v150h204z" horiz-adv-x="666" glyph-name="plus" unicode="+"/>
<glyph d="M114 -120h-180l136 310h212z" horiz-adv-x="354" glyph-name="comma" unicode=","/>
<glyph d="M6 199l30 168h273l-30 -168h-273z" horiz-adv-x="335" glyph-name="hyphen" unicode="-"/>
<glyph d="M132 -12q-28 0 -50.5 8.5t-38 23.5t-24 34t-8.5 40q0 29 10 54.5t28.5 44.5t44 30t56.5 11q27 0 49 -8.5t37.5 -23.5t24.5 -34t9 -40q0 -29 -10 -54.5t-28 -44.5t-43.5 -30t-56.5 -11z" horiz-adv-x="354" glyph-name="period" unicode="."/>
<glyph d="M79 -58l-144 47l440 777l146 -47z" horiz-adv-x="451" glyph-name="slash" unicode="/"/>
<glyph d="M379 534q-29 0 -52 -24.5t-39 -62t-24 -81.5t-8 -83q0 -44 16.5 -74.5t51.5 -30.5q28 0 50.5 23.5t38.5 60t24 81t8 86.5q0 44 -15 74.5t-51 30.5zM398 726q79 0 133 -24t87.5 -62.5t48 -87.5t14.5 -98q0 -50 -8.5 -104t-26.5 -106.5t-47 -100t-69.5 -83.5t-94 -57 t-121.5 -21q-80 0 -135 24t-89 62.5t-48.5 87t-14.5 98.5t8.5 104t27 106.5t47.5 100t70 83.5t95 57t123 21z" horiz-adv-x="695" glyph-name="zero" unicode="0"/>
<glyph d="M227 0l82 465l-134 -72l-68 175l265 140h213l-125 -708h-233z" horiz-adv-x="695" glyph-name="one" unicode="1"/>
<glyph d="M6 0l33 183l322 226q18 13 37 31.5t19 37.5q0 21 -12 35t-41 14q-35 0 -56.5 -23t-30.5 -61l-213 31q13 58 42 105t70 80t94 51t116 18q50 0 99 -12t88 -37.5t63 -66t24 -96.5q0 -49 -15.5 -85.5t-39.5 -64.5t-54 -50t-59 -41l-121 -81h252l-34 -194h-583z" horiz-adv-x="695" glyph-name="two" unicode="2"/>
<glyph d="M626 227q0 -65 -28.5 -112t-73.5 -77t-100 -44t-108 -14q-56 0 -106.5 13t-90.5 39t-68 66.5t-40 96.5l212 51q9 -34 34 -53t63 -19q12 0 25 3t23.5 9.5t17.5 16t7 23.5q0 35 -27 46t-75 11h-66l27 158h76q19 0 38 3t33 9.5t23 17t9 26.5q0 25 -16.5 34.5t-39.5 9.5 q-29 0 -53 -15t-33 -40l-203 54q19 49 51 84.5t72 58.5t86.5 34t95.5 11q47 0 95.5 -9t87.5 -32t63.5 -61.5t24.5 -96.5q0 -33 -13 -59.5t-32.5 -46t-43 -31.5t-45.5 -17l-1 -4q47 -17 73 -54.5t26 -89.5z" horiz-adv-x="695" glyph-name="three" unicode="3"/>
<glyph d="M400 495h-4l-153 -188h124zM546 126l-22 -126h-210l22 126h-335l34 189l322 393h288l-71 -401h101l-32 -181h-97z" horiz-adv-x="695" glyph-name="four" unicode="4"/>
<glyph d="M627 255q0 -73 -28.5 -125t-72.5 -85.5t-98.5 -49t-105.5 -15.5q-58 0 -108 13.5t-90 40.5t-68 66.5t-41 90.5l215 58q8 -33 33 -53t59 -20q12 0 24.5 3t23 10t17.5 18.5t7 28.5q0 39 -30 51.5t-77 12.5q-42 0 -96 -6.5t-101 -15.5l100 430h477l-34 -193h-281l-14 -57 q12 2 27.5 3.5t26.5 1.5q43 0 85.5 -10t75.5 -34t53.5 -64t20.5 -100z" horiz-adv-x="695" glyph-name="five" unicode="5"/>
<glyph d="M249 236q0 -32 22 -50.5t50 -18.5q42 0 66 26t24 68q0 33 -21.5 51t-47.5 18q-44 0 -68.5 -27t-24.5 -67zM422 479q5 1 10 1h9q49 0 87 -17.5t64.5 -46t40 -65t13.5 -74.5q0 -59 -22 -112.5t-65 -94t-105 -64.5t-141 -24q-60 0 -113 13.5t-93 43t-63.5 76t-23.5 112.5 q0 61 26.5 121t89.5 130l208 230h301l-207 -212z" horiz-adv-x="695" glyph-name="six" unicode="6"/>
<glyph d="M319 0h-276l366 515h-299l34 193h559l-29 -165z" horiz-adv-x="695" glyph-name="seven" unicode="7"/>
<glyph d="M311 495q0 -20 14 -37t41 -17q30 0 48.5 18t18.5 45q0 26 -14.5 41t-39.5 15q-31 0 -49.5 -18t-18.5 -47zM505 368q18 -8 37 -21.5t34.5 -33t25.5 -44t10 -52.5q0 -59 -22 -103t-62 -73.5t-96.5 -44t-126.5 -14.5q-45 0 -93 9.5t-87 33t-64.5 61.5t-25.5 95q0 42 14.5 75 t37.5 57.5t51.5 40.5t56.5 23v4q-42 18 -64.5 52.5t-22.5 78.5q0 54 26 94.5t67.5 67t93.5 39.5t105 13q49 0 94 -10.5t79.5 -32.5t55.5 -56t21 -82q0 -39 -13.5 -69t-34.5 -51t-46.5 -34.5t-50.5 -19.5v-3zM255 215q0 -29 17.5 -44t39.5 -15q40 0 59 20t19 49 q0 23 -16.5 41.5t-42.5 18.5q-34 0 -55 -20t-21 -50z" horiz-adv-x="695" glyph-name="eight" unicode="8"/>
<glyph d="M442 472q0 32 -22 50.5t-50 18.5q-42 0 -66 -26t-24 -68q0 -33 21.5 -51t47.5 -18q44 0 68.5 27t24.5 67zM269 229q-5 -1 -10 -1h-9q-49 0 -87 17.5t-64.5 46t-40 65t-13.5 74.5q0 59 22 112.5t65 94t104.5 64.5t141.5 24q60 0 113 -13.5t93 -43t63.5 -76t23.5 -112.5 q0 -61 -26.5 -121t-89.5 -130l-208 -230h-301l207 212z" horiz-adv-x="695" glyph-name="nine" unicode="9"/>
<glyph d="M192 295q-52 0 -82.5 30t-30.5 70q0 27 9.5 51t26.5 41.5t41 28t53 10.5q25 0 46 -8t36 -22t23 -32t8 -37q0 -27 -9.5 -51t-26.5 -42t-41 -28.5t-53 -10.5zM136 -5q-52 0 -82.5 30t-30.5 70q0 27 9.5 51t26.5 41.5t41 28t53 10.5q25 0 46 -8t36 -22t23 -32t8 -37 q0 -27 -9.5 -51t-26.5 -42t-41 -28.5t-53 -10.5z" horiz-adv-x="375" glyph-name="colon" unicode=":"/>
<glyph d="M192 295q-52 0 -82.5 30t-30.5 70q0 27 9.5 51t26.5 41.5t41 28t53 10.5q25 0 46 -8t36 -22t23 -32t8 -37q0 -27 -9.5 -51t-26.5 -42t-41 -28.5t-53 -10.5zM137 -120h-182l137 310h212z" horiz-adv-x="375" glyph-name="semicolon" unicode=";"/>
<glyph d="M588 32q-128 51 -255 101.5t-255 101.5v134q128 51 255 101.5t255 101.5v-162q-69 -29 -137 -55.5t-137 -55.5q69 -26 137 -51.5t137 -51.5v-164z" horiz-adv-x="666" glyph-name="less" unicode="&lt;"/>
<glyph d="M610 282v-144h-554v144h554zM610 472v-144h-554v144h554z" horiz-adv-x="666" glyph-name="equal" unicode="="/>
<glyph d="M78 572q128 -51 255 -101.5t255 -101.5v-134q-128 -51 -255 -101.5t-255 -101.5v164q69 26 137 51.5t137 51.5q-69 29 -137 55.5t-137 55.5v162z" horiz-adv-x="666" glyph-name="greater" unicode="&gt;"/>
<glyph d="M267 -13q-27 0 -48.5 8.5t-36.5 22.5t-23 32.5t-8 38.5q0 27 9.5 51.5t27 43t42 29t54.5 10.5q26 0 47 -8.5t36 -22.5t23.5 -32.5t8.5 -38.5q0 -28 -9.5 -52.5t-27 -42.5t-42 -28.5t-53.5 -10.5zM441 330q-25 -14 -35 -27t-13 -28l-4 -26h-207l6 37q5 30 16.5 52t27.5 40 t36 33.5t44 31.5l21 14q26 17 34.5 28t8.5 27q0 18 -12.5 25.5t-28.5 7.5q-34 0 -52 -24t-23 -56l-202 36q14 60 44 103t71 70.5t89.5 40.5t99.5 13q49 0 93.5 -9.5t78.5 -31.5t53.5 -57.5t19.5 -87.5q0 -40 -11 -70t-32 -54t-52 -45t-71 -43z" horiz-adv-x="583" glyph-name="question" unicode="?"/>
<glyph d="M457 406q0 17 -10.5 28t-28.5 11q-15 0 -28.5 -12.5t-24.5 -31t-17.5 -40t-6.5 -39.5q0 -41 38 -41q16 0 30.5 12.5t25 31t16.5 40.5t6 41zM546 160q-40 0 -70 15.5t-35 44.5h-2q-14 -22 -45.5 -41t-67.5 -19q-67 0 -99.5 39.5t-32.5 99.5q0 45 15 92t44.5 84.5t72 61.5 t96.5 24q42 0 61.5 -17t22.5 -35h2l9 25h133l-40 -113q-14 -39 -25.5 -74.5t-11.5 -50.5q0 -16 22 -16q37 0 61.5 39t24.5 108q0 53 -16.5 90t-46 60.5t-70.5 34t-90 10.5q-63 0 -119 -20.5t-98 -59.5t-67 -95t-25 -126q0 -56 18.5 -99.5t52.5 -72.5t82.5 -44t107.5 -15 q54 0 106 18t98 52l60 -83q-50 -41 -120.5 -68t-154.5 -27q-82 0 -151.5 21.5t-119.5 63t-78.5 102.5t-28.5 140q0 97 36.5 174.5t97.5 131.5t141 82.5t167 28.5q65 0 125 -18.5t106.5 -54t74.5 -88t28 -120.5q0 -50 -14 -101t-44.5 -92t-78 -66.5t-114.5 -25.5z" horiz-adv-x="800" glyph-name="at" unicode="@"/>
<glyph d="M424 467l-101 -182h122zM480 0l-16 108h-230l-59 -108h-258l435 708h244l124 -708h-240z" horiz-adv-x="775" glyph-name="A" unicode="A"/>
<glyph d="M273 287l-19 -107h59q19 0 37 2.5t31.5 9t21.5 18t8 29.5q0 23 -18 35.5t-52 12.5h-68zM314 529l-16 -97h64q13 0 26.5 2t24.5 8t18 16.5t7 27.5q0 23 -18.5 33t-47.5 10h-58zM456 708q37 0 74 -8t67 -26.5t48.5 -48t18.5 -72.5q0 -73 -40.5 -118.5t-102.5 -62.5v-2 q24 -5 45.5 -17t38 -31.5t26 -45.5t9.5 -57q0 -54 -22.5 -95t-63 -68.5t-96.5 -41.5t-122 -14h-329l125 708h324z" horiz-adv-x="690" glyph-name="B" unicode="B"/>
<glyph d="M655 81q-21 -18 -48.5 -36.5t-62.5 -32.5t-78.5 -23t-96.5 -9q-80 0 -142.5 22t-106 63t-66.5 99t-23 129q0 91 31.5 170t88.5 138t135 93t171 34q92 0 162 -28.5t107 -70.5l-161 -166q-18 26 -47.5 38.5t-66.5 12.5q-38 0 -69 -15.5t-53 -42t-34 -61.5t-12 -75 q0 -52 32.5 -88t97.5 -36q38 0 71 16t57 39z" horiz-adv-x="686" glyph-name="C" unicode="C"/>
<glyph d="M268 199h75q45 0 79 15.5t57 41t34.5 58t11.5 67.5q0 27 -8 51t-25 41.5t-43.5 28t-62.5 10.5h-62zM132 708h293q60 0 120.5 -16.5t109 -52.5t79.5 -93.5t31 -139.5q0 -93 -32.5 -168.5t-90.5 -128t-137 -81t-172 -28.5h-326z" horiz-adv-x="787" glyph-name="D" unicode="D"/>
<glyph d="M7 0l125 708h463l-34 -193h-245l-12 -68h234l-32 -180h-234l-13 -74h274l-34 -193h-492z" horiz-adv-x="592" glyph-name="E" unicode="E"/>
<glyph d="M324 514l-15 -82h218l-33 -188h-217l-43 -244h-227l125 708h456l-34 -194h-230z" horiz-adv-x="569" glyph-name="F" unicode="F"/>
<glyph d="M570 465q-17 26 -45.5 42t-73.5 16q-35 0 -67.5 -14.5t-57 -41t-39.5 -64.5t-15 -86q0 -59 34 -97.5t108 -38.5q17 0 34.5 3t28.5 8l11 62h-116l32 182h321l-68 -386q-55 -29 -124.5 -49.5t-147.5 -20.5q-80 0 -145 20.5t-111.5 60.5t-72 98.5t-25.5 133.5q0 91 31 170 t86.5 138t133 93t170.5 34q92 0 164 -26.5t110 -72.5z" horiz-adv-x="763" glyph-name="G" unicode="G"/>
<glyph d="M440 0l48 272h-202l-48 -272h-231l125 708h230l-43 -243h202l43 243h232l-125 -708h-231z" horiz-adv-x="798" glyph-name="H" unicode="H"/>
<glyph d="M7 0l125 708h233l-125 -708h-233z" horiz-adv-x="367" glyph-name="I" unicode="I"/>
<glyph d="M489 255q-8 -47 -23.5 -95.5t-46 -88.5t-82 -65.5t-131.5 -25.5q-99 0 -164 47t-90 132l212 75q3 -17 14 -30t31 -13q23 0 33 17t15 43l81 457h232z" horiz-adv-x="562" glyph-name="J" unicode="J"/>
<glyph d="M441 0l-155 298h-2l-52 -298h-225l125 708h224l-48 -271h3l224 271h282l-318 -342l219 -366h-277z" horiz-adv-x="740" glyph-name="K" unicode="K"/>
<glyph d="M7 0l125 708h233l-90 -510h239l-35 -198h-472z" horiz-adv-x="547" glyph-name="L" unicode="L"/>
<glyph d="M651 0l79 410h-6l-209 -410h-163l-63 410h-5l-61 -410h-216l125 708h295l62 -388h5l184 388h323l-125 -708h-225z" horiz-adv-x="1003" glyph-name="M" unicode="M"/>
<glyph d="M431 0l-140 351h-4l-55 -351h-225l125 708h227l143 -369h4l58 369h225l-125 -708h-233z" horiz-adv-x="791" glyph-name="N" unicode="N"/>
<glyph d="M572 387q0 27 -8.5 50.5t-25 41t-41 27.5t-55.5 10q-39 0 -70.5 -16.5t-53.5 -43.5t-34 -62t-12 -71q0 -27 8.5 -50.5t25 -41t41 -27.5t56.5 -10q39 0 70 16t53 43t34 62t12 72zM382 -18q-85 0 -150.5 23.5t-110 66.5t-67.5 102t-23 130q0 88 31 165t87 134t135.5 90 t176.5 33q86 0 151.5 -23.5t110 -66.5t67.5 -102t23 -130q0 -88 -30.5 -165t-87 -134t-136 -90t-177.5 -33z" horiz-adv-x="833" glyph-name="O" unicode="O"/>
<glyph d="M346 405q48 0 75 16t27 50q0 32 -22 44t-60 12h-35l-22 -122h37zM237 0h-230l125 708h264q137 0 209.5 -57t72.5 -157q0 -68 -22.5 -118t-65.5 -82t-104 -47.5t-139 -15.5h-68z" horiz-adv-x="680" glyph-name="P" unicode="P"/>
<glyph d="M572 391q0 26 -8.5 49t-25 40t-41 27t-55.5 10q-39 0 -70.5 -16t-53.5 -42.5t-34 -60.5t-12 -70q0 -26 8 -49.5t24.5 -41t41 -28t57.5 -10.5q40 0 71.5 16.5t53.5 43.5t33 61.5t11 70.5zM813 423q0 -45 -10.5 -84.5t-26 -71t-34 -54.5t-34.5 -34l-1 -4l116 7l-32 -182 h-409q-80 0 -144.5 20.5t-110.5 59.5t-71 94.5t-25 125.5q0 88 31.5 166t88 135.5t135.5 91t175 33.5q81 0 146 -21.5t110.5 -61t70.5 -95.5t25 -125z" horiz-adv-x="863" glyph-name="Q" unicode="Q"/>
<glyph d="M348 406q46 0 72 15.5t26 49.5q0 31 -21.5 42.5t-58.5 11.5h-43l-21 -119h46zM399 0l-97 259h-28l-44 -259h-223l125 708h291q58 0 105 -13t80 -38t50.5 -61.5t17.5 -83.5q0 -88 -41.5 -145t-113.5 -78l138 -289h-260z" horiz-adv-x="704" glyph-name="R" unicode="R"/>
<glyph d="M473 497q-17 20 -44 32.5t-63 12.5q-28 0 -50.5 -12t-22.5 -37q0 -20 19 -31t56 -23q46 -15 82 -34t61 -44t38.5 -57t13.5 -72q0 -68 -30 -116t-76.5 -78t-102.5 -44t-109 -14q-42 0 -84 7t-80.5 20t-72.5 32t-59 43l158 146q12 -14 29 -25t35.5 -18.5t37.5 -12t35 -4.5 q35 0 56 11.5t21 33.5q0 18 -17.5 32t-65.5 29q-38 12 -71.5 28t-58 38.5t-38.5 54t-14 76.5q0 55 22.5 102t64 81.5t99 54t126.5 19.5q38 0 75 -6.5t70 -18t61 -27.5t47 -36z" horiz-adv-x="601" glyph-name="S" unicode="S"/>
<glyph d="M440 513l-90 -513h-232l90 513h-179l35 195h584l-35 -195h-173z" horiz-adv-x="583" glyph-name="T" unicode="T"/>
<glyph d="M696 260q-11 -63 -37.5 -114.5t-70 -87.5t-104.5 -56t-140 -20q-68 0 -124 15t-96 43.5t-62 69.5t-22 93q0 14 2 32.5t4 33.5l75 439h229l-73 -409q-2 -8 -2 -17v-16q0 -33 20 -58t68 -25q31 0 50.5 10t31.5 26t18 36t10 40l75 413h225z" horiz-adv-x="771" glyph-name="U" unicode="U"/>
<glyph d="M415 0h-258l-102 708h249l32 -444h4l213 444h267z" horiz-adv-x="720" glyph-name="V" unicode="V"/>
<glyph d="M802 0h-238l-20 408h-4l-186 -408h-235l-55 708h245v-405h4l166 405h238l8 -405h4l166 405h241z" horiz-adv-x="1050" glyph-name="W" unicode="W"/>
<glyph d="M453 0l-89 211l-168 -211h-284l331 369l-173 339h263l77 -189l146 189h280l-306 -336l190 -372h-267z" horiz-adv-x="766" glyph-name="X" unicode="X"/>
<glyph d="M440 291l-51 -291h-231l51 291l-187 417h258l76 -219l151 219h282z" horiz-adv-x="677" glyph-name="Y" unicode="Y"/>
<glyph d="M-17 0l34 194l330 322h-262l34 192h563l-30 -168l-348 -343h296l-35 -197h-582z" horiz-adv-x="668" glyph-name="Z" unicode="Z"/>
<glyph d="M-46 -156l157 888h249l-23 -133h-87l-110 -622h87l-24 -133h-249z" glyph-name="bracketleft" unicode="["/>
<glyph d="M-3 719l158 48l303 -778l-157 -48z" horiz-adv-x="455" glyph-name="backslash" unicode="\"/>
<glyph d="M-21 -156l24 133h87l110 622h-87l23 133h248l-157 -888h-248z" glyph-name="bracketright" unicode="]"/>
<glyph d="M77 343q51 92 101.5 182.5t101.5 182.5h154q51 -92 100.5 -182.5t100.5 -182.5h-178q-25 47 -50.5 93.5t-50.5 93.5q-26 -47 -50.5 -93.5t-50.5 -93.5h-178z" horiz-adv-x="714" glyph-name="asciicircum" unicode="^"/>
<glyph d="M0 -75h500v-110h-500v110z" horiz-adv-x="500" glyph-name="underscore" unicode="_"/>
<glyph d="M211 728l126 -144h-165l-169 144h208z" glyph-name="grave" unicode="`"/>
<glyph d="M504 81q-4 -22 -5.5 -45t-1.5 -36h-192q0 7 0.5 22.5t1.5 25.5h-2q-29 -33 -66 -47.5t-82 -14.5q-28 0 -56 8t-50.5 24.5t-36.5 43t-14 63.5q0 61 27.5 100.5t74 62.5t107.5 32.5t128 9.5q1 4 1 6.5v4.5q0 20 -17.5 30.5t-45.5 10.5q-32 0 -62 -12.5t-55 -33.5l-98 112 q24 23 54.5 40.5t62.5 29.5t65 18t63 6q120 0 180.5 -48.5t60.5 -136.5q0 -37 -8 -83zM331 216h-13q-25 0 -47 -3t-38.5 -9.5t-26.5 -17t-10 -26.5q0 -23 14.5 -29.5t31.5 -6.5q33 0 56.5 21t29.5 54z" horiz-adv-x="588" glyph-name="a" unicode="a"/>
<glyph d="M437 283q0 32 -20.5 54t-59.5 22q-23 0 -41.5 -9.5t-32 -25t-21 -36.5t-7.5 -44q0 -33 20.5 -54.5t58.5 -21.5q24 0 43 9t32.5 25t20.5 36.5t7 44.5zM443 538q52 0 91.5 -17.5t66.5 -48t40.5 -71.5t13.5 -88q0 -67 -22 -126.5t-61.5 -103.5t-93 -70t-116.5 -26 q-51 0 -92 19t-62 50h-2l-10 -56h-202l133 756h224l-48 -276h2q24 26 61.5 42t76.5 16z" horiz-adv-x="690" glyph-name="b" unicode="b"/>
<glyph d="M402 333q-7 10 -24.5 19t-42.5 9q-51 0 -81 -33t-30 -79q0 -30 20.5 -53.5t64.5 -23.5q25 0 45.5 9.5t31.5 20.5l89 -151q-40 -32 -90.5 -49.5t-116.5 -17.5q-58 0 -106 16.5t-82 47.5t-52.5 74t-18.5 97q0 65 23.5 123.5t66.5 103t103 70.5t132 26q60 0 113 -17.5 t82 -52.5z" horiz-adv-x="504" glyph-name="c" unicode="c"/>
<glyph d="M227 244q0 -32 20.5 -54t59.5 -22q23 0 41.5 9t32 25t21 37t7.5 44q0 33 -20.5 54.5t-58.5 21.5q-24 0 -43 -9t-32.5 -25t-20.5 -36.5t-7 -44.5zM221 -13q-52 0 -91.5 17.5t-66.5 48t-40.5 71.5t-13.5 88q0 67 22 126.5t61 103.5t93 70t117 26q19 0 39 -4t38 -11.5 t33 -18.5t24 -24h2l48 276h223l-133 -756h-201l10 56h-2q-23 -30 -64.5 -49.5t-97.5 -19.5z" horiz-adv-x="690" glyph-name="d" unicode="d"/>
<glyph d="M392 330q1 3 1 6.5v5.5q0 25 -18.5 40t-51.5 15q-21 0 -37.5 -7t-28.5 -17t-19.5 -21.5t-10.5 -21.5h165zM215 211q-1 -3 -1 -7q0 -17 9 -27.5t22 -17t28 -9t27 -2.5q25 0 49 8.5t43 26.5l151 -104q-52 -53 -119 -74t-139 -21q-56 0 -106.5 15t-88 45t-59.5 74.5 t-22 104.5q0 67 24 125.5t67.5 101.5t104 67.5t133.5 24.5q58 0 104 -16.5t78 -47t49.5 -74t17.5 -97.5q0 -22 -3.5 -48t-10.5 -48h-358z" horiz-adv-x="622" glyph-name="e" unicode="e"/>
<glyph d="M457 602q-8 4 -19.5 6.5t-23.5 2.5q-35 0 -49 -20.5t-20 -52.5l-2 -12h111l-28 -161h-108l-65 -365h-223l65 365h-90l28 161h87l3 16q9 49 25.5 93t47 77.5t78.5 53t119 19.5q23 0 52 -3.5t48 -11.5z" horiz-adv-x="418" glyph-name="f" unicode="f"/>
<glyph d="M224 242q0 -12 3.5 -26t12.5 -25t25 -18.5t40 -7.5t43.5 10.5t33 27t21 38t7.5 44.5q0 35 -21.5 55t-58.5 20q-26 0 -45.5 -10.5t-33 -27.5t-20.5 -38t-7 -42zM230 0q-55 0 -96.5 16t-69 44.5t-41.5 67.5t-14 85q0 67 21.5 126t60 103.5t92.5 70t119 25.5 q38 0 78.5 -16.5t64.5 -52.5h3l9 57h211l-83 -473q-28 -155 -114 -224t-234 -69q-37 0 -75.5 5t-74.5 15.5t-67.5 26t-55.5 35.5l106 154q32 -31 77 -47t83 -16q34 0 57.5 8t39.5 21.5t24.5 31t11.5 37.5l5 26h-3q-8 -9 -21 -19t-30 -18.5t-38.5 -14t-45.5 -5.5z" horiz-adv-x="693" glyph-name="g" unicode="g"/>
<glyph d="M327 0l49 279q2 9 2.5 18.5t0.5 15.5q0 20 -11 32.5t-35 12.5q-23 0 -40.5 -20.5t-24.5 -59.5l-49 -278h-225l133 756h225l-51 -291h2q24 29 63.5 51t85.5 22q44 0 74.5 -13t50 -34.5t28 -49.5t8.5 -58q0 -16 -1.5 -33.5t-4.5 -33.5l-55 -316h-225z" horiz-adv-x="661" glyph-name="h" unicode="h"/>
<glyph d="M213 565q-26 0 -46.5 8t-34.5 21.5t-22 31t-8 36.5q0 27 9 50.5t26 41t40 27.5t52 10q24 0 44.5 -8t35 -21.5t22.5 -31t8 -36.5q0 -27 -9 -50.5t-25.5 -41t-40 -27.5t-51.5 -10zM-5 0l93 526h224l-93 -526h-224z" horiz-adv-x="335" glyph-name="i" unicode="i"/>
<glyph d="M220 565q-26 0 -46.5 8t-34.5 21.5t-22 31t-8 36.5q0 27 9 50.5t26 41t40 27.5t52 10q24 0 44.5 -8t35 -21.5t22.5 -31t8 -36.5q0 -27 -9 -50.5t-25.5 -41t-40 -27.5t-51.5 -10zM227 1q-9 -50 -25.5 -95t-47 -79.5t-78.5 -55t-120 -20.5q-20 0 -46.5 3t-45.5 9l38 182 q11 -3 20 -4t16 -1q27 0 43.5 16t22.5 51l92 519h224z" horiz-adv-x="341" glyph-name="j" unicode="j"/>
<glyph d="M257 229l-39 -229h-224l133 756h225l-78 -431h3l148 201h273l-216 -250l130 -276h-262l-90 229h-3z" horiz-adv-x="650" glyph-name="k" unicode="k"/>
<glyph d="M-6 0l133 756h229l-133 -756h-229z" horiz-adv-x="338" glyph-name="l" unicode="l"/>
<glyph d="M68 423q4 19 8.5 49t6.5 54h216q-1 -15 -3 -34.5t-4 -33.5h4q22 30 61 55t93 25q58 0 92.5 -21t51.5 -57q26 32 63.5 55t94.5 23q46 0 78.5 -15t53 -39t30 -54t9.5 -60q0 -14 -1.5 -26.5t-3.5 -24.5l-56 -319h-225l49 279q2 8 2.5 17.5t0.5 15.5q0 46 -41 46 q-22 0 -37.5 -21.5t-22.5 -58.5l-49 -278h-224l49 277q2 8 2.5 16.5t0.5 13.5q0 23 -10.5 37t-30.5 14q-19 0 -35 -19t-24 -61l-49 -278h-224z" horiz-adv-x="971" glyph-name="m" unicode="m"/>
<glyph d="M68 423q4 19 8.5 49t6.5 54h216q-1 -15 -3 -34.5t-4 -33.5h4q23 32 64.5 56t91.5 24q44 0 74.5 -13t50 -34.5t28 -49.5t8.5 -58q0 -16 -1.5 -33.5t-4.5 -33.5l-55 -316h-225l49 279q2 9 2.5 18.5t0.5 15.5q0 20 -11 32.5t-35 12.5q-23 0 -40.5 -20.5t-24.5 -59.5 l-50 -278h-224z" horiz-adv-x="661" glyph-name="n" unicode="n"/>
<glyph d="M407 283q0 32 -20 54t-59 22q-23 0 -41.5 -9.5t-32 -25t-20.5 -36.5t-7 -44q0 -33 20 -54.5t58 -21.5q24 0 43 9t32 25t20 36.5t7 44.5zM295 -16q-60 0 -112 15t-91 45t-61 74t-22 101q0 66 22 125t63.5 103t102 69.5t138.5 25.5q61 0 114 -15t92 -45t61.5 -74t22.5 -101 q0 -66 -22 -125t-64 -103t-103.5 -69.5t-140.5 -25.5z" horiz-adv-x="660" glyph-name="o" unicode="o"/>
<glyph d="M437 283q0 32 -20.5 54t-59.5 22q-23 0 -41.5 -9.5t-32 -25t-21 -36.5t-7.5 -44q0 -33 20.5 -54.5t58.5 -21.5q24 0 43 9t32.5 25t20.5 36.5t7 44.5zM439 538q53 0 93.5 -17.5t67.5 -48t41 -71.5t14 -88q0 -67 -22 -126.5t-61.5 -103.5t-93 -70t-116.5 -26 q-39 0 -78 14.5t-58 40.5h-2l-51 -282h-223l136 766h212l-10 -57h2q26 32 65 50.5t84 18.5z" horiz-adv-x="690" glyph-name="p" unicode="p"/>
<glyph d="M225 244q0 -32 20.5 -54t59.5 -22q23 0 41.5 9t32 25t21 37t7.5 44q0 33 -20.5 54.5t-58.5 21.5q-24 0 -43 -9t-32.5 -25t-20.5 -36.5t-7 -44.5zM222 -13q-52 0 -92 17.5t-67 48t-41 71.5t-14 88q0 67 22 126.5t61.5 103.5t93.5 70t117 26q43 0 81.5 -17t58.5 -52h4 l11 57h211l-134 -766h-222l49 282h-2q-22 -25 -56.5 -40t-80.5 -15z" horiz-adv-x="690" glyph-name="q" unicode="q"/>
<glyph d="M69 423q4 19 8.5 49t6.5 54h215q0 -5 -1 -13t-2.5 -17.5t-3 -18.5l-2.5 -15h3q23 32 56 53.5t78 21.5q27 0 42 -5l-42 -190q-10 3 -23 4t-24 1q-52 0 -81 -27.5t-36 -64.5l-45 -255h-224z" horiz-adv-x="440" glyph-name="r" unicode="r"/>
<glyph d="M69 190q26 -26 60 -39t63 -13q20 0 31.5 5.5t11.5 17.5t-15.5 20t-39.5 15q-35 10 -62.5 23t-47 31t-30 42t-10.5 56q0 49 21.5 86t57 61t80 36t89.5 12q62 0 119.5 -17.5t93.5 -49.5l-115 -132q-17 18 -47 30.5t-59 12.5q-20 0 -32.5 -5.5t-12.5 -17.5q0 -10 10.5 -15.5 t36.5 -12.5q37 -9 67.5 -22.5t52.5 -32.5t34 -45t12 -61q0 -53 -23.5 -90t-60 -60t-81 -33t-87.5 -10q-57 0 -120 16t-111 56z" horiz-adv-x="494" glyph-name="s" unicode="s"/>
<glyph d="M291 365l-27 -148q-1 -6 -1.5 -14t-0.5 -13q0 -23 11.5 -30.5t32.5 -7.5q12 0 24 2t20 4l-27 -154q-13 -8 -46 -13t-64 -5q-33 0 -65 6t-57 21t-40.5 41t-15.5 67q0 11 1.5 25t3.5 26l35 193h-78l28 161h74l21 119h217l-21 -119h101l-28 -161h-98z" horiz-adv-x="401" glyph-name="t" unicode="t"/>
<glyph d="M562 103q-4 -19 -8.5 -49t-6.5 -54h-216q1 15 3 34.5t4 33.5h-4q-23 -32 -64.5 -56t-91.5 -24q-44 0 -74.5 13t-50 34.5t-28 49.5t-8.5 58q0 16 1.5 33.5t4.5 33.5l55 316h225l-49 -279q-2 -9 -2.5 -18.5t-0.5 -15.5q0 -20 11 -32.5t35 -12.5q23 0 40.5 20.5t24.5 59.5 l50 278h224z" horiz-adv-x="658" glyph-name="u" unicode="u"/>
<glyph d="M358 0h-244l-89 526h236l20 -291h4l133 291h248z" horiz-adv-x="622" glyph-name="v" unicode="v"/>
<glyph d="M711 0h-223l-27 274h-2l-137 -274h-222l-72 526h234l11 -279h4l127 279h217l18 -279h3l123 279h235z" horiz-adv-x="963" glyph-name="w" unicode="w"/>
<glyph d="M335 0l-61 125l-111 -125h-259l260 271l-139 255h244l55 -116l99 116h252l-243 -255l148 -271h-245z" horiz-adv-x="620" glyph-name="x" unicode="x"/>
<glyph d="M150 7l-126 519h248l32 -288h4l123 288h240l-305 -558q-27 -50 -53.5 -88.5t-59.5 -65t-75.5 -40.5t-100.5 -14q-36 0 -66 5t-49 11l38 177q12 -5 25 -8.5t28 -3.5q37 0 57.5 15.5t33.5 39.5z" horiz-adv-x="631" glyph-name="y" unicode="y"/>
<glyph d="M-27 0l28 158l237 202h-196l29 166h474l-26 -147l-254 -212h222l-29 -167h-485z" horiz-adv-x="552" glyph-name="z" unicode="z"/>
<glyph d="M125 -156q-33 0 -56 9.5t-37.5 26.5t-21.5 40t-7 49q0 11 1 22t3 22l24 135q2 6 2 12v11q0 29 -14.5 38.5t-39.5 9.5l24 138q29 0 49 13.5t28 56.5l24 136q6 34 20 64.5t36 53.5t52.5 37t69.5 14h95l-24 -134h-36q-29 0 -42 -19t-17 -41l-24 -138q-5 -29 -17.5 -49.5 t-28 -33.5t-32 -20t-28.5 -8v-2q10 -2 22 -7t22 -15.5t17 -26t7 -36.5q0 -11 -3 -30l-23 -133q-3 -14 -3 -25q0 -36 41 -36h36l-24 -134h-95z" glyph-name="braceleft" unicode="{"/>
<glyph d="M49 750h172v-1000h-172v1000z" horiz-adv-x="269" glyph-name="bar" unicode="|"/>
<glyph d="M214 732q33 0 56 -9.5t37.5 -26.5t21.5 -40t7 -49q0 -11 -1 -22t-3 -22l-24 -135q-2 -6 -2 -12v-11q0 -29 14.5 -38.5t39.5 -9.5l-24 -138q-29 0 -49 -13.5t-28 -56.5l-24 -136q-6 -34 -20 -64.5t-36 -54t-52.5 -37t-69.5 -13.5h-95l24 134h36q29 0 42 19t17 41l24 138 q5 29 17.5 49.5t28 33.5t32 19.5t28.5 8.5v2q-10 1 -22 6.5t-22 16t-17 26t-7 36.5q0 10 3 30l23 133q3 13 3 25q0 36 -41 36h-36l24 134h95z" glyph-name="braceright" unicode="}"/>
<glyph d="M355 384q21 -14 34.5 -21t23 -10t17.5 -3.5t19 -0.5q24 0 46 18.5t38 48.5l74 -135q-35 -58 -77 -82t-82 -24q-32 0 -60 8.5t-61 29.5q-20 12 -34 19t-24.5 10.5t-18.5 4t-16 0.5q-11 0 -24.5 -3.5t-27.5 -11.5t-27 -20.5t-22 -30.5l-74 135q18 30 40.5 50.5t46 33 t46.5 17.5t43 5q37 0 63 -9t57 -29z" horiz-adv-x="666" glyph-name="asciitilde" unicode="~"/>
<glyph horiz-adv-x="250" glyph-name="uni00A0" unicode=" "/>
<glyph d="M234 542q27 0 48.5 -8.5t36.5 -22.5t23 -32.5t8 -38.5q0 -27 -9.5 -51.5t-27 -43t-42 -29t-54.5 -10.5q-26 0 -47 8.5t-36 22.5t-23.5 32.5t-8.5 38.5q0 28 9.5 52.5t27 42.5t42 28.5t53.5 10.5zM325 271l-80 -450h-233l80 450h233z" horiz-adv-x="439" glyph-name="exclamdown" unicode="¡"/>
<glyph d="M487 535q38 -6 72 -22t54 -41l-127 -139q-7 10 -24.5 19t-42.5 9q-51 0 -81 -33t-30 -79q0 -30 20.5 -53.5t64.5 -23.5q25 0 45.5 9.5t31.5 20.5l89 -151q-34 -26 -75 -43.5t-92 -21.5l-11 -59h-106l12 63q-89 17 -141.5 77t-52.5 152q0 61 21 116t59 98.5t91.5 72 t118.5 34.5l11 59h106z" horiz-adv-x="695" glyph-name="cent" unicode="¢"/>
<glyph d="M569 504q-11 12 -27.5 20.5t-39.5 8.5t-39.5 -8t-27 -20t-16.5 -26t-8 -26l-3 -14h149l-27 -157h-146l-17 -94h252l-33 -188h-567l33 188h92l17 94h-92l27 157h89l8 35q10 44 29.5 89t53.5 82t85 60t125 23q33 0 65 -6t60 -16t50.5 -24t36.5 -29z" horiz-adv-x="695" glyph-name="sterling" unicode="£"/>
<glyph d="M352 385q-18 1 -34 -7t-27 -20t-17 -28t-7 -33q0 -39 24 -65t61 -26q36 0 60 26t24 65q0 17 -6 33t-18 28q-10 12 -26 20t-34 7zM575 424q15 -26 23 -58t9 -69q0 -75 -34 -132l81 -81l-94 -95l-85 85q-56 -28 -123 -28q-30 0 -60 6t-65 24l-87 -87l-94 95l83 83 q-31 56 -31 130q0 70 30 124l-82 82l95 94l84 -83q58 29 127 29q70 0 125 -28l82 82l95 -94z" horiz-adv-x="695" glyph-name="currency" unicode="¤"/>
<glyph d="M558 454h100l-24 -137h-184l-9 -48h184l-24 -137h-184l-23 -132h-210l23 132h-181l24 137h181l9 48h-181l24 137h112l-110 254h229l62 -221l140 221h247z" horiz-adv-x="695" glyph-name="yen" unicode="¥"/>
<glyph d="M221 200v-406h-172v406h172zM221 718v-406h-172v406h172z" horiz-adv-x="269" glyph-name="brokenbar" unicode="¦"/>
<glyph d="M389 261q0 23 -17.5 34.5t-46.5 22.5l-78 30q-11 -4 -17 -13.5t-6 -19.5q0 -17 14.5 -28t53.5 -25l77 -29q20 8 20 28zM585 300q0 -57 -27.5 -91t-63.5 -53q12 -12 22.5 -36t10.5 -53q0 -45 -13.5 -79t-36 -58.5t-51 -40.5t-59.5 -25.5t-61 -13t-55 -3.5q-41 0 -82.5 8 t-79.5 23.5t-71 39t-57 54.5l156 123q13 -20 31 -33t37.5 -20.5t38.5 -11t35 -3.5q15 0 30 5.5t15 20.5q0 7 -4 13t-14.5 12.5t-29.5 13.5t-49 17q-35 11 -67.5 24.5t-57 33.5t-39 47.5t-14.5 67.5q0 27 8.5 50t22 41.5t31.5 32.5t37 24q-11 13 -17.5 32.5t-6.5 43.5 q0 63 28 105.5t70 68t90 36.5t88 11q94 0 159 -33.5t91 -81.5l-168 -109q-12 23 -39.5 34t-51.5 11q-18 0 -32 -6t-14 -19q0 -7 3.5 -12.5t13.5 -11t27.5 -12.5t46.5 -16q33 -11 63.5 -25t54 -33.5t37.5 -46.5t14 -66z" horiz-adv-x="625" glyph-name="section" unicode="§"/>
<glyph d="M345 583q-43 0 -68 25t-25 57q0 22 7.5 41.5t22 34.5t34 23.5t43.5 8.5q20 0 37 -7t29 -18t19 -26t7 -31q0 -22 -7.5 -41.5t-21.5 -34.5t-33.5 -23.5t-43.5 -8.5zM94 583q-43 0 -68 25t-25 57q0 22 7.5 41.5t22 34.5t34 23.5t43.5 8.5q20 0 37 -7t29 -18t19 -26t7 -31 q0 -22 -7.5 -41.5t-21.5 -34.5t-33.5 -23.5t-43.5 -8.5z" glyph-name="dieresis" unicode="¨"/>
<glyph d="M80 353q0 -66 24 -124q24 -57 68 -101q43 -44 101 -69t124 -25q67 0 125 25t102 69t70 101q26 58 26 124q0 67 -25 125t-69 102t-101 68q-58 26 -124 26q-67 0 -125 -26t-102 -68q-44 -44 -68 -102q-26 -58 -26 -125zM20 353q0 79 30 147t82 120q52 50 120 80 q70 30 149 30q78 0 147 -30q68 -30 120 -80q52 -52 82 -120t30 -147t-30 -147t-82 -119t-120 -80q-69 -29 -147 -29q-79 0 -149 29t-120 80q-52 51 -82 119t-30 147zM596 515l-98 -80q-14 19 -35 27t-46 9q-24 0 -42 -10q-19 -11 -31 -27t-18 -37t-7 -43q1 -22 7 -43t19 -37 t33 -28q20 -10 45 -10q23 0 45 8t35 25l92 -88q-32 -31 -77 -49t-97 -18q-51 0 -96 16t-79 46t-54 76q-20 44 -19 101q0 55 20 99q19 44 53 75t79 47t96 17q52 0 99 -20t76 -56z" horiz-adv-x="800" glyph-name="copyright" unicode="©"/>
<glyph d="M358 474q-2 -12 -3 -24.5t-1 -19.5h-104v12.5t1 13.5h-1q-30 -33 -80 -33q-15 0 -30 4.5t-27.5 13.5t-20 23t-7.5 34q0 33 15 54.5t40 34t58.5 17.5t69.5 5v6q0 11 -9.5 16.5t-24.5 5.5q-17 0 -33.5 -7t-29.5 -18l-54 61q27 25 64 38t69 13q66 0 98.5 -26.5t32.5 -73.5 q0 -11 -1.5 -22t-3.5 -23zM264 547h-7q-27 0 -46.5 -6.5t-19.5 -23.5q0 -12 8 -16t17 -4q18 0 30.5 11.5t15.5 29.5z" horiz-adv-x="390" glyph-name="ordfeminine" unicode="ª"/>
<glyph d="M456 513l112 -81l-151 -171l83 -154l-133 -72l-128 235zM223 525l110 -81l-151 -171l86 -166l-131 -72l-131 247z" horiz-adv-x="583" glyph-name="guillemotleft" unicode="«"/>
<glyph d="M447 314h-410v144h568v-315h-158v171z" horiz-adv-x="666" glyph-name="logicalnot" unicode="¬"/>
<glyph d="M6 199l30 168h273l-30 -168h-273z" horiz-adv-x="335" glyph-name="uni00AD" unicode="­"/>
<glyph d="M148 492q0 -39 15 -74t41.5 -61.5t61.5 -41.5t75 -15t74.5 15t60.5 41.5t41 61.5t15 74q0 40 -15 75t-41 61t-60.5 41t-74.5 15t-75 -15t-61.5 -41t-41.5 -61t-15 -75zM112 492q0 47 18 88.5t49 72t73 48.5t89 18t88.5 -18t72 -48.5t48.5 -72t18 -88.5t-18 -88 t-48.5 -71.5t-72 -48t-88.5 -17.5t-89 17.5t-73 48t-49 71.5t-18 88zM379 365l-44 94h-16v-94h-88v266h114q21 0 43 -4t39 -14t28 -26.5t11 -41.5q0 -55 -48 -74l61 -106h-100zM345 521q12 0 20 6.5t8 16.5q0 8 -8.5 13t-19.5 5h-26v-41h26z" horiz-adv-x="600" glyph-name="registered" unicode="®"/>
<glyph d="M46 611l16 95h358l-16 -95h-358z" glyph-name="macron" unicode="¯"/>
<glyph d="M357 554q0 41 -28 69t-69 28t-69 -28t-28 -69t28 -69t69 -28t69 28t28 69zM439 554q0 -39 -13.5 -71.5t-37.5 -56.5t-56.5 -37.5t-71.5 -13.5t-71.5 13.5t-56.5 37.5t-37.5 56.5t-13.5 71.5t13.5 71.5t37.5 56.5t56.5 37.5t71.5 13.5t71.5 -13.5t56.5 -37.5t37.5 -56.5 t13.5 -71.5z" horiz-adv-x="440" glyph-name="degree" unicode="°"/>
<glyph d="M31 182h604v-152h-604v152zM251 606h164v-121h220v-152h-220v-121h-164v121h-220v152h220v121z" horiz-adv-x="666" glyph-name="plusminus" unicode="±"/>
<glyph d="M30 263l20 114l202 141q13 9 25 21.5t12 23.5q0 14 -7.5 22.5t-26.5 8.5q-22 0 -35.5 -14.5t-18.5 -38.5l-134 20q17 71 71.5 115t135.5 44q33 0 63 -8t53.5 -24t37 -40.5t13.5 -58.5q0 -31 -10 -54t-25.5 -41t-34.5 -32t-38 -26l-81 -50h166l-21 -123h-367z" horiz-adv-x="450" glyph-name="twosuperior" unicode="²"/>
<glyph d="M410 409q0 -41 -17.5 -69.5t-45.5 -47.5t-62 -27.5t-67 -8.5q-35 0 -66 8t-56 24.5t-42.5 41.5t-24.5 59l131 32q5 -21 21 -33t39 -12q15 0 30 8t15 25q0 21 -17 28t-46 7h-41l17 98h47q24 0 44 7t20 27q0 16 -10.5 22t-24.5 6q-18 0 -33 -9.5t-20 -24.5l-126 33 q12 30 32 52t44.5 36.5t53.5 21t59 6.5q29 0 59 -5.5t54 -19.5t39.5 -38t15.5 -60q0 -20 -7.5 -36.5t-19.5 -28.5t-26.5 -20.5t-28.5 -12.5q28 -11 44 -34t16 -55z" horiz-adv-x="450" glyph-name="threesuperior" unicode="³"/>
<glyph d="M285 584h-165l135 144h208z" glyph-name="acute" unicode="´"/>
<glyph d="M375 526l-56 -263q-2 -8 -3.5 -21t-1.5 -22q0 -26 10.5 -45t38.5 -19q41 0 62.5 29t30.5 71l57 270h234l-111 -526h-226l7 37q-17 -17 -39.5 -28t-53.5 -11q-37 0 -58 16l-50 -238h-234l159 750h234z" horiz-adv-x="758" glyph-name="mu" unicode="µ"/>
<glyph d="M350 -133l124 703h-56l-124 -703h-150l81 463q-88 5 -135.5 43t-47.5 106q0 60 21 103t60 71t93.5 41.5t120.5 13.5h312l-148 -841h-151z" horiz-adv-x="643" glyph-name="paragraph" unicode="¶"/>
<glyph d="M158 168q-28 0 -50.5 8.5t-38 23.5t-24 34t-8.5 40q0 29 10 54.5t28.5 44.5t44 30t56.5 11q27 0 49 -8.5t37.5 -23.5t24.5 -34t9 -40q0 -29 -10 -54.5t-28 -44.5t-43.5 -30t-56.5 -11z" horiz-adv-x="354" glyph-name="periodcentered" unicode="·"/>
<glyph d="M235 -130q0 -30 -14.5 -51t-37.5 -34t-52.5 -18.5t-59.5 -5.5q-16 0 -34.5 2t-37 5t-35.5 7t-29 9l41 76q17 -8 41.5 -12t43.5 -4q15 0 27 4.5t12 17.5q0 11 -10 15t-24 4q-10 0 -21.5 -1.5t-21.5 -4.5l-36 34l90 88h113l-59 -54q5 1 8.5 1h8.5q11 0 26 -3.5t28.5 -12 t23 -23.5t9.5 -39z" glyph-name="cedilla" unicode="¸"/>
<glyph d="M182 263l52 292l-84 -45l-43 110l167 88h134l-79 -445h-147z" horiz-adv-x="450" glyph-name="onesuperior" unicode="¹"/>
<glyph d="M282 586q0 17 -11 29t-32 12q-25 0 -40 -18.5t-15 -43.5q0 -18 11.5 -30t31.5 -12q26 0 40.5 18.5t14.5 44.5zM221 424q-32 0 -60.5 8t-49.5 24t-33 40t-12 55q0 36 12 68t34.5 55.5t55.5 37.5t75 14q33 0 62 -8t50 -24t33 -40t12 -55q0 -36 -12 -68t-34.5 -55.5 t-56 -37.5t-76.5 -14z" horiz-adv-x="390" glyph-name="ordmasculine" unicode="º"/>
<glyph d="M112 39l-112 81l151 171l-83 154l133 72l128 -235zM345 27l-110 81l151 171l-86 166l131 72l131 -247z" horiz-adv-x="583" glyph-name="guillemotright" unicode="»"/>
<glyph d="M305 -35l-85 54l484 720l86 -52zM182 263l52 292l-84 -45l-43 110l167 88h134l-79 -445h-147zM764 311h-2l-96 -118h78zM856 80l-14 -80h-132l14 80h-210l21 118l202 247h181l-44 -252h63l-20 -113h-61z" horiz-adv-x="1000" glyph-name="onequarter" unicode="¼"/>
<glyph d="M305 -35l-85 54l484 720l86 -52zM182 263l52 292l-84 -45l-43 110l167 88h134l-79 -445h-147zM547 0l20 114l202 141q13 9 25 21.5t12 23.5q0 14 -7.5 22.5t-26.5 8.5q-22 0 -35.5 -14.5t-18.5 -38.5l-134 20q17 71 71.5 115t135.5 44q33 0 63 -8t53.5 -24t37 -40.5 t13.5 -58.5q0 -31 -10 -54t-25.5 -41t-34.5 -32t-38 -26l-81 -50h166l-21 -123h-367z" horiz-adv-x="1000" glyph-name="onehalf" unicode="½"/>
<glyph d="M305 -35l-85 54l484 720l86 -52zM410 409q0 -41 -17.5 -69.5t-45.5 -47.5t-62 -27.5t-67 -8.5q-35 0 -66 8t-56 24.5t-42.5 41.5t-24.5 59l131 32q5 -21 21 -33t39 -12q15 0 30 8t15 25q0 21 -17 28t-46 7h-41l17 98h47q24 0 44 7t20 27q0 16 -10.5 22t-24.5 6 q-18 0 -33 -9.5t-20 -24.5l-126 33q12 30 32 52t44.5 36.5t53.5 21t59 6.5q29 0 59 -5.5t54 -19.5t39.5 -38t15.5 -60q0 -20 -7.5 -36.5t-19.5 -28.5t-26.5 -20.5t-28.5 -12.5q28 -11 44 -34t16 -55zM761 309h-1l-97 -115h78zM853 79l-14 -79h-133l14 79h-214l21 119 l213 247h177l-44 -251h59l-20 -115h-59z" horiz-adv-x="1000" glyph-name="threequarters" unicode="¾"/>
<glyph d="M300 542q27 0 48.5 -8.5t36.5 -22.5t23 -32.5t8 -38.5q0 -27 -9.5 -51.5t-27 -43t-42 -29t-54.5 -10.5q-26 0 -47 8.5t-36 22.5t-23.5 32.5t-8.5 38.5q0 28 9.5 52.5t27 42.5t42 28.5t53.5 10.5zM126 199q25 14 35 27t13 28l4 26h207l-6 -37q-5 -30 -16.5 -52t-27.5 -40 t-36 -33.5t-44 -31.5l-21 -14q-26 -17 -34.5 -28t-8.5 -27q0 -18 12.5 -25.5t28.5 -7.5q34 0 52 24t23 56l202 -36q-14 -60 -44 -103t-71 -70.5t-89.5 -40.5t-99.5 -13q-50 0 -94 9.5t-78 31.5t-53.5 57.5t-19.5 87.5q0 40 11 70t32 54t52 45t71 43z" horiz-adv-x="583" glyph-name="questiondown" unicode="¿"/>
<glyph d="M465 908l126 -144h-165l-169 144h208zM424 467l-101 -182h122zM480 0l-16 108h-230l-59 -108h-258l435 708h244l124 -708h-240z" horiz-adv-x="775" glyph-name="Agrave" unicode="À"/>
<glyph d="M539 764h-165l135 144h208zM424 467l-101 -182h122zM480 0l-16 108h-230l-59 -108h-258l435 708h244l124 -708h-240z" horiz-adv-x="775" glyph-name="Aacute" unicode="Á"/>
<glyph d="M545 764l-55 69l-79 -69h-150l161 144h167l108 -144h-152zM424 467l-101 -182h122zM480 0l-16 108h-230l-59 -108h-258l435 708h244l124 -708h-240z" horiz-adv-x="775" glyph-name="Acircumflex" unicode="Â"/>
<glyph d="M688 900q-7 -29 -20 -54.5t-31 -44.5t-40 -29.5t-48 -10.5q-21 0 -39.5 6t-37.5 17q-22 13 -33 17.5t-26 4.5q-16 0 -27.5 -10.5t-16.5 -25.5h-79q7 28 19.5 52.5t30 43t39.5 29t48 10.5q23 0 40.5 -6.5t37.5 -17.5q22 -11 34 -16t28 -5t25.5 10t17.5 30h78zM424 467 l-101 -182h122zM480 0l-16 108h-230l-59 -108h-258l435 708h244l124 -708h-240z" horiz-adv-x="775" glyph-name="Atilde" unicode="Ã"/>
<glyph d="M610 763q-43 0 -68 25t-25 57q0 22 7.5 41.5t22 34.5t34 23.5t43.5 8.5q20 0 37 -7t29 -18t19 -26t7 -31q0 -22 -7.5 -41.5t-21.5 -34.5t-33.5 -23.5t-43.5 -8.5zM359 763q-43 0 -68 25t-25 57q0 22 7.5 41.5t22 34.5t34 23.5t43.5 8.5q20 0 37 -7t29 -18t19 -26t7 -31 q0 -22 -7.5 -41.5t-21.5 -34.5t-33.5 -23.5t-43.5 -8.5zM424 467l-101 -182h122zM480 0l-16 108h-230l-59 -108h-258l435 708h244l124 -708h-240z" horiz-adv-x="775" glyph-name="Adieresis" unicode="Ä"/>
<glyph d="M554 872q0 22 -14 37t-39 15q-31 0 -51 -24t-20 -57q0 -23 14 -37.5t38 -14.5q32 0 52 24t20 57zM478 745q-44 0 -71.5 25.5t-27.5 66.5q0 27 9.5 51t26 42t40 28.5t50.5 10.5q45 0 72.5 -25t27.5 -67q0 -27 -9.5 -51t-26.5 -42t-40 -28.5t-51 -10.5zM424 467l-101 -182 h122zM480 0l-16 108h-230l-59 -108h-258l435 708h244l124 -708h-240z" horiz-adv-x="775" glyph-name="Aring" unicode="Å"/>
<glyph d="M525 515h-4l-148 -228h112zM981 515h-245l-12 -68h234l-32 -180h-234l-13 -74h274l-34 -193h-485l19 109h-179l-72 -109h-260l483 708h590z" horiz-adv-x="1012" glyph-name="AE" unicode="Æ"/>
<glyph d="M477 -130q0 -30 -14.5 -51t-37.5 -34t-52.5 -18.5t-59.5 -5.5q-16 0 -34.5 2t-37 5t-35.5 7t-29 9l41 76q17 -8 41.5 -12t43.5 -4q15 0 27 4.5t12 17.5q0 11 -10 15t-24 4q-10 0 -21.5 -1.5t-21.5 -4.5l-36 34l73 72q-65 9 -115 34t-85 65t-53 93t-18 116q0 91 31.5 170 t88.5 138t135 93t171 34q92 0 162 -28.5t107 -70.5l-161 -166q-18 26 -47.5 38.5t-66.5 12.5q-38 0 -69 -15.5t-53 -42t-34 -61.5t-12 -75q0 -52 32.5 -88t97.5 -36q38 0 71 16t57 39l114 -170q-19 -17 -43 -33t-54 -29.5t-66.5 -23.5t-80.5 -13l-38 -35q5 1 8.5 1h8.5 q11 0 26 -3.5t28.5 -12t23 -23.5t9.5 -39z" horiz-adv-x="686" glyph-name="Ccedilla" unicode="Ç"/>
<glyph d="M362 908l126 -144h-165l-169 144h208zM7 0l125 708h463l-34 -193h-245l-12 -68h234l-32 -180h-234l-13 -74h274l-34 -193h-492z" horiz-adv-x="592" glyph-name="Egrave" unicode="È"/>
<glyph d="M439 764h-165l135 144h208zM7 0l125 708h463l-34 -193h-245l-12 -68h234l-32 -180h-234l-13 -74h274l-34 -193h-492z" horiz-adv-x="592" glyph-name="Eacute" unicode="É"/>
<glyph d="M444 764l-55 69l-79 -69h-150l161 144h167l108 -144h-152zM7 0l125 708h463l-34 -193h-245l-12 -68h234l-32 -180h-234l-13 -74h274l-34 -193h-492z" horiz-adv-x="592" glyph-name="Ecircumflex" unicode="Ê"/>
<glyph d="M510 763q-43 0 -68 25t-25 57q0 22 7.5 41.5t22 34.5t34 23.5t43.5 8.5q20 0 37 -7t29 -18t19 -26t7 -31q0 -22 -7.5 -41.5t-21.5 -34.5t-33.5 -23.5t-43.5 -8.5zM259 763q-43 0 -68 25t-25 57q0 22 7.5 41.5t22 34.5t34 23.5t43.5 8.5q20 0 37 -7t29 -18t19 -26t7 -31 q0 -22 -7.5 -41.5t-21.5 -34.5t-33.5 -23.5t-43.5 -8.5zM7 0l125 708h463l-34 -193h-245l-12 -68h234l-32 -180h-234l-13 -74h274l-34 -193h-492z" horiz-adv-x="592" glyph-name="Edieresis" unicode="Ë"/>
<glyph d="M240 908l126 -144h-165l-169 144h208zM7 0l125 708h233l-125 -708h-233z" horiz-adv-x="367" glyph-name="Igrave" unicode="Ì"/>
<glyph d="M302 764h-165l135 144h208zM7 0l125 708h233l-125 -708h-233z" horiz-adv-x="367" glyph-name="Iacute" unicode="Í"/>
<glyph d="M324 764l-55 69l-79 -69h-150l161 144h167l108 -144h-152zM7 0l125 708h233l-125 -708h-233z" horiz-adv-x="367" glyph-name="Icircumflex" unicode="Î"/>
<glyph d="M385 763q-43 0 -68 25t-25 57q0 22 7.5 41.5t22 34.5t34 23.5t43.5 8.5q20 0 37 -7t29 -18t19 -26t7 -31q0 -22 -7.5 -41.5t-21.5 -34.5t-33.5 -23.5t-43.5 -8.5zM134 763q-43 0 -68 25t-25 57q0 22 7.5 41.5t22 34.5t34 23.5t43.5 8.5q20 0 37 -7t29 -18t19 -26t7 -31 q0 -22 -7.5 -41.5t-21.5 -34.5t-33.5 -23.5t-43.5 -8.5zM7 0l125 708h233l-125 -708h-233z" horiz-adv-x="367" glyph-name="Idieresis" unicode="Ï"/>
<glyph d="M422 428l-25 -142h-113l-16 -87h75q45 0 79 15.5t57 41t34.5 58t11.5 67.5q0 27 -8 51t-25 41.5t-43.5 28t-62.5 10.5h-62l-15 -84h113zM11 286l25 142h47l49 280h293q60 0 120.5 -16.5t109 -52.5t79.5 -93.5t31 -139.5q0 -93 -32.5 -168.5t-90.5 -128t-137 -81 t-172 -28.5h-326l50 286h-46z" horiz-adv-x="787" glyph-name="Eth" unicode="Ð"/>
<glyph d="M680 900q-7 -29 -20 -54.5t-31 -44.5t-40 -29.5t-48 -10.5q-21 0 -39.5 6t-37.5 17q-22 13 -33 17.5t-26 4.5q-16 0 -27.5 -10.5t-16.5 -25.5h-79q7 28 19.5 52.5t30 43t39.5 29t48 10.5q23 0 40.5 -6.5t37.5 -17.5q22 -11 34 -16t28 -5t25.5 10t17.5 30h78zM431 0 l-140 351h-4l-55 -351h-225l125 708h227l143 -369h4l58 369h225l-125 -708h-233z" horiz-adv-x="791" glyph-name="Ntilde" unicode="Ñ"/>
<glyph d="M479 908l126 -144h-165l-169 144h208zM572 387q0 27 -8.5 50.5t-25 41t-41 27.5t-55.5 10q-39 0 -70.5 -16.5t-53.5 -43.5t-34 -62t-12 -71q0 -27 8.5 -50.5t25 -41t41 -27.5t56.5 -10q39 0 70 16t53 43t34 62t12 72zM382 -18q-85 0 -150.5 23.5t-110 66.5t-67.5 102 t-23 130q0 88 31 165t87 134t135.5 90t176.5 33q86 0 151.5 -23.5t110 -66.5t67.5 -102t23 -130q0 -88 -30.5 -165t-87 -134t-136 -90t-177.5 -33z" horiz-adv-x="833" glyph-name="Ograve" unicode="Ò"/>
<glyph d="M552 764h-165l135 144h208zM572 387q0 27 -8.5 50.5t-25 41t-41 27.5t-55.5 10q-39 0 -70.5 -16.5t-53.5 -43.5t-34 -62t-12 -71q0 -27 8.5 -50.5t25 -41t41 -27.5t56.5 -10q39 0 70 16t53 43t34 62t12 72zM382 -18q-85 0 -150.5 23.5t-110 66.5t-67.5 102t-23 130 q0 88 31 165t87 134t135.5 90t176.5 33q86 0 151.5 -23.5t110 -66.5t67.5 -102t23 -130q0 -88 -30.5 -165t-87 -134t-136 -90t-177.5 -33z" horiz-adv-x="833" glyph-name="Oacute" unicode="Ó"/>
<glyph d="M559 764l-55 69l-79 -69h-150l161 144h167l108 -144h-152zM572 387q0 27 -8.5 50.5t-25 41t-41 27.5t-55.5 10q-39 0 -70.5 -16.5t-53.5 -43.5t-34 -62t-12 -71q0 -27 8.5 -50.5t25 -41t41 -27.5t56.5 -10q39 0 70 16t53 43t34 62t12 72zM382 -18q-85 0 -150.5 23.5 t-110 66.5t-67.5 102t-23 130q0 88 31 165t87 134t135.5 90t176.5 33q86 0 151.5 -23.5t110 -66.5t67.5 -102t23 -130q0 -88 -30.5 -165t-87 -134t-136 -90t-177.5 -33z" horiz-adv-x="833" glyph-name="Ocircumflex" unicode="Ô"/>
<glyph d="M702 900q-7 -29 -20 -54.5t-31 -44.5t-40 -29.5t-48 -10.5q-21 0 -39.5 6t-37.5 17q-22 13 -33 17.5t-26 4.5q-16 0 -27.5 -10.5t-16.5 -25.5h-79q7 28 19.5 52.5t30 43t39.5 29t48 10.5q23 0 40.5 -6.5t37.5 -17.5q22 -11 34 -16t28 -5t25.5 10t17.5 30h78zM572 387 q0 27 -8.5 50.5t-25 41t-41 27.5t-55.5 10q-39 0 -70.5 -16.5t-53.5 -43.5t-34 -62t-12 -71q0 -27 8.5 -50.5t25 -41t41 -27.5t56.5 -10q39 0 70 16t53 43t34 62t12 72zM382 -18q-85 0 -150.5 23.5t-110 66.5t-67.5 102t-23 130q0 88 31 165t87 134t135.5 90t176.5 33 q86 0 151.5 -23.5t110 -66.5t67.5 -102t23 -130q0 -88 -30.5 -165t-87 -134t-136 -90t-177.5 -33z" horiz-adv-x="833" glyph-name="Otilde" unicode="Õ"/>
<glyph d="M626 763q-43 0 -68 25t-25 57q0 22 7.5 41.5t22 34.5t34 23.5t43.5 8.5q20 0 37 -7t29 -18t19 -26t7 -31q0 -22 -7.5 -41.5t-21.5 -34.5t-33.5 -23.5t-43.5 -8.5zM375 763q-43 0 -68 25t-25 57q0 22 7.5 41.5t22 34.5t34 23.5t43.5 8.5q20 0 37 -7t29 -18t19 -26t7 -31 q0 -22 -7.5 -41.5t-21.5 -34.5t-33.5 -23.5t-43.5 -8.5zM572 387q0 27 -8.5 50.5t-25 41t-41 27.5t-55.5 10q-39 0 -70.5 -16.5t-53.5 -43.5t-34 -62t-12 -71q0 -27 8.5 -50.5t25 -41t41 -27.5t56.5 -10q39 0 70 16t53 43t34 62t12 72zM382 -18q-85 0 -150.5 23.5t-110 66.5 t-67.5 102t-23 130q0 88 31 165t87 134t135.5 90t176.5 33q86 0 151.5 -23.5t110 -66.5t67.5 -102t23 -130q0 -88 -30.5 -165t-87 -134t-136 -90t-177.5 -33z" horiz-adv-x="833" glyph-name="Odieresis" unicode="Ö"/>
<glyph d="M164 575q43 -42 85.5 -81.5t85.5 -81.5q42 40 83 81t83 81l56 -52l56 -52q-42 -42 -83.5 -82.5t-83.5 -82.5q44 -41 86.5 -82t86.5 -82q-28 -28 -57 -56t-57 -56q-43 42 -85.5 82.5t-85.5 82.5q-44 -42 -85.5 -82.5t-85.5 -82.5q-28 27 -56 52.5t-56 52.5q42 42 84.5 84 t84.5 84q-43 41 -86 81t-86 81q29 27 58 55.5t58 55.5z" horiz-adv-x="666" glyph-name="multiply" unicode="×"/>
<glyph d="M449 519q-48 0 -83 -17.5t-58 -46t-34 -64.5t-11 -73q0 -13 3 -28l240 220q-11 5 -26 7t-31 2zM392 188q48 0 83 17.5t58 45.5t34 64t11 73q0 7 -1 14.5t-3 15.5l-240 -220q11 -5 26.5 -7.5t31.5 -2.5zM49 -55l-80 80l109 99q-23 37 -35 82.5t-12 97.5q0 88 31 165 t87 134t135.5 90t176.5 33q67 0 122 -15t99 -42l102 96l80 -81l-103 -93q52 -78 52 -187q0 -88 -30.5 -165t-87 -134t-136 -90t-177.5 -33q-69 0 -125 16t-100 45z" horiz-adv-x="833" glyph-name="Oslash" unicode="Ø"/>
<glyph d="M441 908l126 -144h-165l-169 144h208zM696 260q-11 -63 -37.5 -114.5t-70 -87.5t-104.5 -56t-140 -20q-68 0 -124 15t-96 43.5t-62 69.5t-22 93q0 14 2 32.5t4 33.5l75 439h229l-73 -409q-2 -8 -2 -17v-16q0 -33 20 -58t68 -25q31 0 50.5 10t31.5 26t18 36t10 40l75 413 h225z" horiz-adv-x="771" glyph-name="Ugrave" unicode="Ù"/>
<glyph d="M524 764h-165l135 144h208zM696 260q-11 -63 -37.5 -114.5t-70 -87.5t-104.5 -56t-140 -20q-68 0 -124 15t-96 43.5t-62 69.5t-22 93q0 14 2 32.5t4 33.5l75 439h229l-73 -409q-2 -8 -2 -17v-16q0 -33 20 -58t68 -25q31 0 50.5 10t31.5 26t18 36t10 40l75 413h225z" horiz-adv-x="771" glyph-name="Uacute" unicode="Ú"/>
<glyph d="M526 764l-55 69l-79 -69h-150l161 144h167l108 -144h-152zM696 260q-11 -63 -37.5 -114.5t-70 -87.5t-104.5 -56t-140 -20q-68 0 -124 15t-96 43.5t-62 69.5t-22 93q0 14 2 32.5t4 33.5l75 439h229l-73 -409q-2 -8 -2 -17v-16q0 -33 20 -58t68 -25q31 0 50.5 10t31.5 26 t18 36t10 40l75 413h225z" horiz-adv-x="771" glyph-name="Ucircumflex" unicode="Û"/>
<glyph d="M594 763q-43 0 -68 25t-25 57q0 22 7.5 41.5t22 34.5t34 23.5t43.5 8.5q20 0 37 -7t29 -18t19 -26t7 -31q0 -22 -7.5 -41.5t-21.5 -34.5t-33.5 -23.5t-43.5 -8.5zM343 763q-43 0 -68 25t-25 57q0 22 7.5 41.5t22 34.5t34 23.5t43.5 8.5q20 0 37 -7t29 -18t19 -26t7 -31 q0 -22 -7.5 -41.5t-21.5 -34.5t-33.5 -23.5t-43.5 -8.5zM696 260q-11 -63 -37.5 -114.5t-70 -87.5t-104.5 -56t-140 -20q-68 0 -124 15t-96 43.5t-62 69.5t-22 93q0 14 2 32.5t4 33.5l75 439h229l-73 -409q-2 -8 -2 -17v-16q0 -33 20 -58t68 -25q31 0 50.5 10t31.5 26t18 36 t10 40l75 413h225z" horiz-adv-x="771" glyph-name="Udieresis" unicode="Ü"/>
<glyph d="M490 764h-165l135 144h208zM440 291l-51 -291h-231l51 291l-187 417h258l76 -219l151 219h282z" horiz-adv-x="677" glyph-name="Yacute" unicode="Ý"/>
<glyph d="M328 301q48 0 75 16t27 50q0 32 -22 44t-60 12h-35l-22 -122h37zM237 0h-230l125 708h231l-18 -104h33q137 0 209.5 -57t72.5 -157q0 -68 -22.5 -118t-65.5 -82t-104 -47.5t-139 -15.5h-68z" horiz-adv-x="690" glyph-name="Thorn" unicode="Þ"/>
<glyph d="M354 -12q-22 0 -47.5 2.5t-48.5 8.5l28 164q8 -3 22.5 -5t25.5 -2q51 0 73 24t22 66q0 35 -26 53t-64 18h-9l27 161h10q15 0 30 3.5t27.5 11.5t20.5 22t8 34q0 29 -17.5 41.5t-41.5 12.5q-21 0 -35.5 -8.5t-24.5 -22.5t-16 -32t-9 -36l-89 -504h-227l90 509q9 51 28 98 t56 82.5t94.5 57t144.5 21.5q43 0 90 -9t85 -30t63 -56.5t25 -89.5q0 -40 -12 -70t-31.5 -51.5t-46 -35t-54.5 -19.5v-2q23 -6 46 -19.5t41.5 -34.5t30 -50t11.5 -65q0 -121 -77 -184.5t-223 -63.5z" horiz-adv-x="712" glyph-name="germandbls" unicode="ß"/>
<glyph d="M327 728l126 -144h-165l-169 144h208zM505 81q-4 -22 -5.5 -45t-1.5 -36h-192q0 7 0.5 22.5t1.5 25.5h-2q-29 -33 -66 -47.5t-82 -14.5q-28 0 -56 8t-50.5 24.5t-36.5 43t-14 63.5q0 61 27.5 100.5t74 62.5t107.5 32.5t128 9.5q1 4 1 6.5v4.5q0 20 -17.5 30.5t-45.5 10.5 q-32 0 -62 -12.5t-55 -33.5l-98 112q24 23 54.5 40.5t62.5 29.5t65 18t63 6q120 0 180.5 -48.5t60.5 -136.5q0 -37 -8 -83zM332 216h-13q-25 0 -47 -3t-38.5 -9.5t-26.5 -17t-10 -26.5q0 -23 14.5 -29.5t31.5 -6.5q33 0 56.5 21t29.5 54z" horiz-adv-x="588" glyph-name="agrave" unicode="à"/>
<glyph d="M397 584h-165l135 144h208zM504 81q-4 -22 -5.5 -45t-1.5 -36h-192q0 7 0.5 22.5t1.5 25.5h-2q-29 -33 -66 -47.5t-82 -14.5q-28 0 -56 8t-50.5 24.5t-36.5 43t-14 63.5q0 61 27.5 100.5t74 62.5t107.5 32.5t128 9.5q1 4 1 6.5v4.5q0 20 -17.5 30.5t-45.5 10.5 q-32 0 -62 -12.5t-55 -33.5l-98 112q24 23 54.5 40.5t62.5 29.5t65 18t63 6q120 0 180.5 -48.5t60.5 -136.5q0 -37 -8 -83zM331 216h-13q-25 0 -47 -3t-38.5 -9.5t-26.5 -17t-10 -26.5q0 -23 14.5 -29.5t31.5 -6.5q33 0 56.5 21t29.5 54z" horiz-adv-x="588" glyph-name="aacute" unicode="á"/>
<glyph d="M399 584l-55 69l-79 -69h-150l161 144h167l108 -144h-152zM504 81q-4 -22 -5.5 -45t-1.5 -36h-192q0 7 0.5 22.5t1.5 25.5h-2q-29 -33 -66 -47.5t-82 -14.5q-28 0 -56 8t-50.5 24.5t-36.5 43t-14 63.5q0 61 27.5 100.5t74 62.5t107.5 32.5t128 9.5q1 4 1 6.5v4.5 q0 20 -17.5 30.5t-45.5 10.5q-32 0 -62 -12.5t-55 -33.5l-98 112q24 23 54.5 40.5t62.5 29.5t65 18t63 6q120 0 180.5 -48.5t60.5 -136.5q0 -37 -8 -83zM331 216h-13q-25 0 -47 -3t-38.5 -9.5t-26.5 -17t-10 -26.5q0 -23 14.5 -29.5t31.5 -6.5q33 0 56.5 21t29.5 54z" horiz-adv-x="588" glyph-name="acircumflex" unicode="â"/>
<glyph d="M541 720q-7 -29 -20 -54.5t-31 -44.5t-40 -29.5t-48 -10.5q-21 0 -39.5 6t-37.5 17q-22 13 -33 17.5t-26 4.5q-16 0 -27.5 -10.5t-16.5 -25.5h-79q7 28 19.5 52.5t30 43t39.5 29t48 10.5q23 0 40.5 -6.5t37.5 -17.5q22 -11 34 -16t28 -5t25.5 10t17.5 30h78zM504 81 q-4 -22 -5.5 -45t-1.5 -36h-192q0 7 0.5 22.5t1.5 25.5h-2q-29 -33 -66 -47.5t-82 -14.5q-28 0 -56 8t-50.5 24.5t-36.5 43t-14 63.5q0 61 27.5 100.5t74 62.5t107.5 32.5t128 9.5q1 4 1 6.5v4.5q0 20 -17.5 30.5t-45.5 10.5q-32 0 -62 -12.5t-55 -33.5l-98 112 q24 23 54.5 40.5t62.5 29.5t65 18t63 6q120 0 180.5 -48.5t60.5 -136.5q0 -37 -8 -83zM331 216h-13q-25 0 -47 -3t-38.5 -9.5t-26.5 -17t-10 -26.5q0 -23 14.5 -29.5t31.5 -6.5q33 0 56.5 21t29.5 54z" horiz-adv-x="588" glyph-name="atilde" unicode="ã"/>
<glyph d="M466 583q-43 0 -68 25t-25 57q0 22 7.5 41.5t22 34.5t34 23.5t43.5 8.5q20 0 37 -7t29 -18t19 -26t7 -31q0 -22 -7.5 -41.5t-21.5 -34.5t-33.5 -23.5t-43.5 -8.5zM215 583q-43 0 -68 25t-25 57q0 22 7.5 41.5t22 34.5t34 23.5t43.5 8.5q20 0 37 -7t29 -18t19 -26t7 -31 q0 -22 -7.5 -41.5t-21.5 -34.5t-33.5 -23.5t-43.5 -8.5zM504 81q-4 -22 -5.5 -45t-1.5 -36h-192q0 7 0.5 22.5t1.5 25.5h-2q-29 -33 -66 -47.5t-82 -14.5q-28 0 -56 8t-50.5 24.5t-36.5 43t-14 63.5q0 61 27.5 100.5t74 62.5t107.5 32.5t128 9.5q1 4 1 6.5v4.5 q0 20 -17.5 30.5t-45.5 10.5q-32 0 -62 -12.5t-55 -33.5l-98 112q24 23 54.5 40.5t62.5 29.5t65 18t63 6q120 0 180.5 -48.5t60.5 -136.5q0 -37 -8 -83zM331 216h-13q-25 0 -47 -3t-38.5 -9.5t-26.5 -17t-10 -26.5q0 -23 14.5 -29.5t31.5 -6.5q33 0 56.5 21t29.5 54z" horiz-adv-x="588" glyph-name="adieresis" unicode="ä"/>
<glyph d="M409 692q0 22 -14 37t-39 15q-31 0 -51 -24t-20 -57q0 -23 14 -37.5t38 -14.5q32 0 52 24t20 57zM333 565q-44 0 -71.5 25.5t-27.5 66.5q0 27 9.5 51t26 42t40 28.5t50.5 10.5q45 0 72.5 -25t27.5 -67q0 -27 -9.5 -51t-26.5 -42t-40 -28.5t-51 -10.5zM504 81 q-4 -22 -5.5 -45t-1.5 -36h-192q0 7 0.5 22.5t1.5 25.5h-2q-29 -33 -66 -47.5t-82 -14.5q-28 0 -56 8t-50.5 24.5t-36.5 43t-14 63.5q0 61 27.5 100.5t74 62.5t107.5 32.5t128 9.5q1 4 1 6.5v4.5q0 20 -17.5 30.5t-45.5 10.5q-32 0 -62 -12.5t-55 -33.5l-98 112 q24 23 54.5 40.5t62.5 29.5t65 18t63 6q120 0 180.5 -48.5t60.5 -136.5q0 -37 -8 -83zM331 216h-13q-25 0 -47 -3t-38.5 -9.5t-26.5 -17t-10 -26.5q0 -23 14.5 -29.5t31.5 -6.5q33 0 56.5 21t29.5 54z" horiz-adv-x="588" glyph-name="aring" unicode="å"/>
<glyph d="M692 330q1 3 1 6.5v5.5q0 25 -18.5 40t-51.5 15q-21 0 -37.5 -7t-28.5 -17t-19.5 -21.5t-10.5 -21.5h165zM638 542q58 0 104 -16.5t78 -47t49.5 -74t17.5 -97.5q0 -22 -3.5 -48t-10.5 -48h-358q-1 -3 -1 -7q0 -17 9 -27.5t22 -17t28 -9t27 -2.5q25 0 49 8.5t43 26.5 l151 -104q-52 -53 -119 -74t-139 -21q-27 0 -55 4t-53.5 13.5t-46.5 24.5t-35 37q-27 -36 -75.5 -56.5t-120.5 -20.5q-40 0 -76 7.5t-63.5 24t-43.5 43t-16 64.5q0 61 27.5 100.5t74 62.5t107.5 32.5t128 9.5q1 4 1 6.5v4.5q0 20 -17.5 30.5t-45.5 10.5q-32 0 -62 -12.5 t-55 -33.5l-98 112q24 23 54.5 40.5t62.5 29.5t65 18t63 6q36 0 63.5 -5t47 -13t32.5 -19.5t22 -23.5q26 27 68.5 44t99.5 17zM331 216h-13q-25 0 -47 -3t-38.5 -9.5t-26.5 -17t-10 -26.5q0 -23 14.5 -29.5t31.5 -6.5q33 0 56.5 21t29.5 54z" horiz-adv-x="922" glyph-name="ae" unicode="æ"/>
<glyph d="M367 -130q0 -30 -14.5 -51t-37.5 -34t-52.5 -18.5t-59.5 -5.5q-16 0 -34.5 2t-37 5t-35.5 7t-29 9l41 76q17 -8 41.5 -12t43.5 -4q15 0 27 4.5t12 17.5q0 11 -10 15t-24 4q-10 0 -21.5 -1.5t-21.5 -4.5l-36 34l79 78q-88 17 -138.5 77t-50.5 151q0 65 23.5 123.5 t66.5 103t103 70.5t132 26q60 0 113 -17.5t82 -52.5l-127 -139q-7 10 -24.5 19t-42.5 9q-51 0 -81 -33t-30 -79q0 -30 20.5 -53.5t64.5 -23.5q25 0 45.5 9.5t31.5 20.5l89 -151q-35 -27 -76 -43.5t-94 -21.5l-42 -39q5 1 8.5 1h8.5q11 0 26 -3.5t28.5 -12t23 -23.5t9.5 -39z " horiz-adv-x="504" glyph-name="ccedilla" unicode="ç"/>
<glyph d="M343 728l126 -144h-165l-169 144h208zM392 330q1 3 1 6.5v5.5q0 25 -18.5 40t-51.5 15q-21 0 -37.5 -7t-28.5 -17t-19.5 -21.5t-10.5 -21.5h165zM215 211q-1 -3 -1 -7q0 -17 9 -27.5t22 -17t28 -9t27 -2.5q25 0 49 8.5t43 26.5l151 -104q-52 -53 -119 -74t-139 -21 q-56 0 -106.5 15t-88 45t-59.5 74.5t-22 104.5q0 67 24 125.5t67.5 101.5t104 67.5t133.5 24.5q58 0 104 -16.5t78 -47t49.5 -74t17.5 -97.5q0 -22 -3.5 -48t-10.5 -48h-358z" horiz-adv-x="622" glyph-name="egrave" unicode="è"/>
<glyph d="M423 584h-165l135 144h208zM392 330q1 3 1 6.5v5.5q0 25 -18.5 40t-51.5 15q-21 0 -37.5 -7t-28.5 -17t-19.5 -21.5t-10.5 -21.5h165zM215 211q-1 -3 -1 -7q0 -17 9 -27.5t22 -17t28 -9t27 -2.5q25 0 49 8.5t43 26.5l151 -104q-52 -53 -119 -74t-139 -21q-56 0 -106.5 15 t-88 45t-59.5 74.5t-22 104.5q0 67 24 125.5t67.5 101.5t104 67.5t133.5 24.5q58 0 104 -16.5t78 -47t49.5 -74t17.5 -97.5q0 -22 -3.5 -48t-10.5 -48h-358z" horiz-adv-x="622" glyph-name="eacute" unicode="é"/>
<glyph d="M429 584l-55 69l-79 -69h-150l161 144h167l108 -144h-152zM392 330q1 3 1 6.5v5.5q0 25 -18.5 40t-51.5 15q-21 0 -37.5 -7t-28.5 -17t-19.5 -21.5t-10.5 -21.5h165zM215 211q-1 -3 -1 -7q0 -17 9 -27.5t22 -17t28 -9t27 -2.5q25 0 49 8.5t43 26.5l151 -104 q-52 -53 -119 -74t-139 -21q-56 0 -106.5 15t-88 45t-59.5 74.5t-22 104.5q0 67 24 125.5t67.5 101.5t104 67.5t133.5 24.5q58 0 104 -16.5t78 -47t49.5 -74t17.5 -97.5q0 -22 -3.5 -48t-10.5 -48h-358z" horiz-adv-x="622" glyph-name="ecircumflex" unicode="ê"/>
<glyph d="M494 583q-43 0 -68 25t-25 57q0 22 7.5 41.5t22 34.5t34 23.5t43.5 8.5q20 0 37 -7t29 -18t19 -26t7 -31q0 -22 -7.5 -41.5t-21.5 -34.5t-33.5 -23.5t-43.5 -8.5zM243 583q-43 0 -68 25t-25 57q0 22 7.5 41.5t22 34.5t34 23.5t43.5 8.5q20 0 37 -7t29 -18t19 -26t7 -31 q0 -22 -7.5 -41.5t-21.5 -34.5t-33.5 -23.5t-43.5 -8.5zM392 330q1 3 1 6.5v5.5q0 25 -18.5 40t-51.5 15q-21 0 -37.5 -7t-28.5 -17t-19.5 -21.5t-10.5 -21.5h165zM215 211q-1 -3 -1 -7q0 -17 9 -27.5t22 -17t28 -9t27 -2.5q25 0 49 8.5t43 26.5l151 -104q-52 -53 -119 -74 t-139 -21q-56 0 -106.5 15t-88 45t-59.5 74.5t-22 104.5q0 67 24 125.5t67.5 101.5t104 67.5t133.5 24.5q58 0 104 -16.5t78 -47t49.5 -74t17.5 -97.5q0 -22 -3.5 -48t-10.5 -48h-358z" horiz-adv-x="622" glyph-name="edieresis" unicode="ë"/>
<glyph d="M187 728l126 -144h-165l-169 144h208zM-5 0l93 526h224l-93 -526h-224z" horiz-adv-x="335" glyph-name="igrave" unicode="ì"/>
<glyph d="M256 584h-165l135 144h208zM-5 0l93 526h224l-93 -526h-224z" horiz-adv-x="335" glyph-name="iacute" unicode="í"/>
<glyph d="M275 584l-55 69l-79 -69h-150l161 144h167l108 -144h-152zM-5 0l93 526h224l-93 -526h-224z" horiz-adv-x="335" glyph-name="icircumflex" unicode="î"/>
<glyph d="M340 583q-43 0 -68 25t-25 57q0 22 7.5 41.5t22 34.5t34 23.5t43.5 8.5q20 0 37 -7t29 -18t19 -26t7 -31q0 -22 -7.5 -41.5t-21.5 -34.5t-33.5 -23.5t-43.5 -8.5zM89 583q-43 0 -68 25t-25 57q0 22 7.5 41.5t22 34.5t34 23.5t43.5 8.5q20 0 37 -7t29 -18t19 -26t7 -31 q0 -22 -7.5 -41.5t-21.5 -34.5t-33.5 -23.5t-43.5 -8.5zM-5 0l93 526h224l-93 -526h-224z" horiz-adv-x="335" glyph-name="idieresis" unicode="ï"/>
<glyph d="M407 283q0 32 -20 54t-59 22q-23 0 -41.5 -9.5t-32 -25t-20.5 -36.5t-7 -44q0 -33 20 -54.5t58 -21.5q24 0 43 9t32 25t20 36.5t7 44.5zM332 534q6 0 15 -0.5t21 -2.5l2 1q-11 15 -21.5 27t-21.5 22l-114 -43l-94 89l114 43q-7 7 -25 21.5t-36 27.5l205 94q23 -20 38 -35 t27 -30l115 42l105 -94l-136 -49q47 -63 73 -144.5t26 -180.5q0 -72 -22 -134t-64 -107t-103.5 -71t-140.5 -26q-60 0 -112 15t-91 45t-61 74t-22 101q0 66 20 123.5t60 100t101 67t142 24.5z" horiz-adv-x="660" glyph-name="eth" unicode="ð"/>
<glyph d="M580 720q-7 -29 -20 -54.5t-31 -44.5t-40 -29.5t-48 -10.5q-21 0 -39.5 6t-37.5 17q-22 13 -33 17.5t-26 4.5q-16 0 -27.5 -10.5t-16.5 -25.5h-79q7 28 19.5 52.5t30 43t39.5 29t48 10.5q23 0 40.5 -6.5t37.5 -17.5q22 -11 34 -16t28 -5t25.5 10t17.5 30h78zM68 423 q4 19 8.5 49t6.5 54h216q-1 -15 -3 -34.5t-4 -33.5h4q23 32 64.5 56t91.5 24q44 0 74.5 -13t50 -34.5t28 -49.5t8.5 -58q0 -16 -1.5 -33.5t-4.5 -33.5l-55 -316h-225l49 279q2 9 2.5 18.5t0.5 15.5q0 20 -11 32.5t-35 12.5q-23 0 -40.5 -20.5t-24.5 -59.5l-50 -278h-224z " horiz-adv-x="661" glyph-name="ntilde" unicode="ñ"/>
<glyph d="M336 728l126 -144h-165l-169 144h208zM407 283q0 32 -20 54t-59 22q-23 0 -41.5 -9.5t-32 -25t-20.5 -36.5t-7 -44q0 -33 20 -54.5t58 -21.5q24 0 43 9t32 25t20 36.5t7 44.5zM295 -16q-60 0 -112 15t-91 45t-61 74t-22 101q0 66 22 125t63.5 103t102 69.5t138.5 25.5 q61 0 114 -15t92 -45t61.5 -74t22.5 -101q0 -66 -22 -125t-64 -103t-103.5 -69.5t-140.5 -25.5z" horiz-adv-x="660" glyph-name="ograve" unicode="ò"/>
<glyph d="M432 584h-165l135 144h208zM407 283q0 32 -20 54t-59 22q-23 0 -41.5 -9.5t-32 -25t-20.5 -36.5t-7 -44q0 -33 20 -54.5t58 -21.5q24 0 43 9t32 25t20 36.5t7 44.5zM295 -16q-60 0 -112 15t-91 45t-61 74t-22 101q0 66 22 125t63.5 103t102 69.5t138.5 25.5q61 0 114 -15 t92 -45t61.5 -74t22.5 -101q0 -66 -22 -125t-64 -103t-103.5 -69.5t-140.5 -25.5z" horiz-adv-x="660" glyph-name="oacute" unicode="ó"/>
<glyph d="M440 584l-55 69l-79 -69h-150l161 144h167l108 -144h-152zM407 283q0 32 -20 54t-59 22q-23 0 -41.5 -9.5t-32 -25t-20.5 -36.5t-7 -44q0 -33 20 -54.5t58 -21.5q24 0 43 9t32 25t20 36.5t7 44.5zM295 -16q-60 0 -112 15t-91 45t-61 74t-22 101q0 66 22 125t63.5 103 t102 69.5t138.5 25.5q61 0 114 -15t92 -45t61.5 -74t22.5 -101q0 -66 -22 -125t-64 -103t-103.5 -69.5t-140.5 -25.5z" horiz-adv-x="660" glyph-name="ocircumflex" unicode="ô"/>
<glyph d="M582 720q-7 -29 -20 -54.5t-31 -44.5t-40 -29.5t-48 -10.5q-21 0 -39.5 6t-37.5 17q-22 13 -33 17.5t-26 4.5q-16 0 -27.5 -10.5t-16.5 -25.5h-79q7 28 19.5 52.5t30 43t39.5 29t48 10.5q23 0 40.5 -6.5t37.5 -17.5q22 -11 34 -16t28 -5t25.5 10t17.5 30h78zM407 283 q0 32 -20 54t-59 22q-23 0 -41.5 -9.5t-32 -25t-20.5 -36.5t-7 -44q0 -33 20 -54.5t58 -21.5q24 0 43 9t32 25t20 36.5t7 44.5zM295 -16q-60 0 -112 15t-91 45t-61 74t-22 101q0 66 22 125t63.5 103t102 69.5t138.5 25.5q61 0 114 -15t92 -45t61.5 -74t22.5 -101 q0 -66 -22 -125t-64 -103t-103.5 -69.5t-140.5 -25.5z" horiz-adv-x="660" glyph-name="otilde" unicode="õ"/>
<glyph d="M508 583q-43 0 -68 25t-25 57q0 22 7.5 41.5t22 34.5t34 23.5t43.5 8.5q20 0 37 -7t29 -18t19 -26t7 -31q0 -22 -7.5 -41.5t-21.5 -34.5t-33.5 -23.5t-43.5 -8.5zM257 583q-43 0 -68 25t-25 57q0 22 7.5 41.5t22 34.5t34 23.5t43.5 8.5q20 0 37 -7t29 -18t19 -26t7 -31 q0 -22 -7.5 -41.5t-21.5 -34.5t-33.5 -23.5t-43.5 -8.5zM407 283q0 32 -20 54t-59 22q-23 0 -41.5 -9.5t-32 -25t-20.5 -36.5t-7 -44q0 -33 20 -54.5t58 -21.5q24 0 43 9t32 25t20 36.5t7 44.5zM295 -16q-60 0 -112 15t-91 45t-61 74t-22 101q0 66 22 125t63.5 103t102 69.5 t138.5 25.5q61 0 114 -15t92 -45t61.5 -74t22.5 -101q0 -66 -22 -125t-64 -103t-103.5 -69.5t-140.5 -25.5z" horiz-adv-x="660" glyph-name="odieresis" unicode="ö"/>
<glyph d="M79 230v147h508v-147h-508zM235 111q0 19 8 36t21.5 29.5t31.5 20t38 7.5t37.5 -7.5t31 -20t21 -29.5t7.5 -36t-7.5 -36.5t-21 -30.5t-31 -20.5t-37.5 -7.5t-38 7.5t-31.5 20.5t-21.5 30.5t-8 36.5zM235 495q0 19 8 36t21.5 29.5t31.5 20t38 7.5t37.5 -7.5t31 -20 t21 -29.5t7.5 -36q0 -40 -28.5 -67.5t-68.5 -27.5q-20 0 -38 7.5t-31.5 20t-21.5 30t-8 37.5z" horiz-adv-x="666" glyph-name="divide" unicode="÷"/>
<glyph d="M222 263v-7.5t1 -6.5l132 115q-8 4 -25 4q-26 0 -46.5 -9t-34 -24t-20.5 -34t-7 -38zM413 268q0 3 -0.5 8t-1.5 7l-132 -114q3 -2 13 -4.5t18 -2.5q27 0 46 9.5t32 24.5t19 34t6 38zM589 423q17 -23 26.5 -52t9.5 -64q0 -66 -22 -125t-64 -103t-103.5 -69.5t-140.5 -25.5 q-50 0 -94 10.5t-77 33.5l-94 -82l-69 82l87 72q-20 23 -29.5 57.5t-9.5 65.5q0 63 22 120.5t63.5 102t102 70.5t138.5 26q109 0 177 -45l84 71l70 -81z" horiz-adv-x="660" glyph-name="oslash" unicode="ø"/>
<glyph d="M330 728l126 -144h-165l-169 144h208zM562 103q-4 -19 -8.5 -49t-6.5 -54h-216q1 15 3 34.5t4 33.5h-4q-23 -32 -64.5 -56t-91.5 -24q-44 0 -74.5 13t-50 34.5t-28 49.5t-8.5 58q0 16 1.5 33.5t4.5 33.5l55 316h225l-49 -279q-2 -9 -2.5 -18.5t-0.5 -15.5q0 -20 11 -32.5 t35 -12.5q23 0 40.5 20.5t24.5 59.5l50 278h224z" horiz-adv-x="658" glyph-name="ugrave" unicode="ù"/>
<glyph d="M440 584h-165l135 144h208zM562 103q-4 -19 -8.5 -49t-6.5 -54h-216q1 15 3 34.5t4 33.5h-4q-23 -32 -64.5 -56t-91.5 -24q-44 0 -74.5 13t-50 34.5t-28 49.5t-8.5 58q0 16 1.5 33.5t4.5 33.5l55 316h225l-49 -279q-2 -9 -2.5 -18.5t-0.5 -15.5q0 -20 11 -32.5t35 -12.5 q23 0 40.5 20.5t24.5 59.5l50 278h224z" horiz-adv-x="658" glyph-name="uacute" unicode="ú"/>
<glyph d="M437 584l-55 69l-79 -69h-150l161 144h167l108 -144h-152zM562 103q-4 -19 -8.5 -49t-6.5 -54h-216q1 15 3 34.5t4 33.5h-4q-23 -32 -64.5 -56t-91.5 -24q-44 0 -74.5 13t-50 34.5t-28 49.5t-8.5 58q0 16 1.5 33.5t4.5 33.5l55 316h225l-49 -279q-2 -9 -2.5 -18.5 t-0.5 -15.5q0 -20 11 -32.5t35 -12.5q23 0 40.5 20.5t24.5 59.5l50 278h224z" horiz-adv-x="658" glyph-name="ucircumflex" unicode="û"/>
<glyph d="M503 583q-43 0 -68 25t-25 57q0 22 7.5 41.5t22 34.5t34 23.5t43.5 8.5q20 0 37 -7t29 -18t19 -26t7 -31q0 -22 -7.5 -41.5t-21.5 -34.5t-33.5 -23.5t-43.5 -8.5zM252 583q-43 0 -68 25t-25 57q0 22 7.5 41.5t22 34.5t34 23.5t43.5 8.5q20 0 37 -7t29 -18t19 -26t7 -31 q0 -22 -7.5 -41.5t-21.5 -34.5t-33.5 -23.5t-43.5 -8.5zM562 103q-4 -19 -8.5 -49t-6.5 -54h-216q1 15 3 34.5t4 33.5h-4q-23 -32 -64.5 -56t-91.5 -24q-44 0 -74.5 13t-50 34.5t-28 49.5t-8.5 58q0 16 1.5 33.5t4.5 33.5l55 316h225l-49 -279q-2 -9 -2.5 -18.5t-0.5 -15.5 q0 -20 11 -32.5t35 -12.5q23 0 40.5 20.5t24.5 59.5l50 278h224z" horiz-adv-x="658" glyph-name="udieresis" unicode="ü"/>
<glyph d="M434 584h-165l135 144h208zM150 7l-126 519h248l32 -288h4l123 288h240l-305 -558q-27 -50 -53.5 -88.5t-59.5 -65t-75.5 -40.5t-100.5 -14q-36 0 -66 5t-49 11l38 177q12 -5 25 -8.5t28 -3.5q37 0 57.5 15.5t33.5 39.5z" horiz-adv-x="631" glyph-name="yacute" unicode="ý"/>
<glyph d="M-49 -240l176 996h224l-48 -276h2q24 26 61.5 42t76.5 16q52 0 91.5 -17.5t66.5 -48t40.5 -71.5t13.5 -88q0 -67 -22 -126.5t-61.5 -103.5t-93 -70t-116.5 -26q-39 0 -78 14.5t-58 40.5h-2l-51 -282h-222zM437 283q0 32 -20.5 54t-59.5 22q-23 0 -41.5 -9.5t-32 -25 t-21 -36.5t-7.5 -44q0 -33 20.5 -54.5t58.5 -21.5q24 0 43 9t32.5 25t20.5 36.5t7 44.5z" horiz-adv-x="690" glyph-name="thorn" unicode="þ"/>
<glyph d="M499 583q-43 0 -68 25t-25 57q0 22 7.5 41.5t22 34.5t34 23.5t43.5 8.5q20 0 37 -7t29 -18t19 -26t7 -31q0 -22 -7.5 -41.5t-21.5 -34.5t-33.5 -23.5t-43.5 -8.5zM248 583q-43 0 -68 25t-25 57q0 22 7.5 41.5t22 34.5t34 23.5t43.5 8.5q20 0 37 -7t29 -18t19 -26t7 -31 q0 -22 -7.5 -41.5t-21.5 -34.5t-33.5 -23.5t-43.5 -8.5zM150 7l-126 519h248l32 -288h4l123 288h240l-305 -558q-27 -50 -53.5 -88.5t-59.5 -65t-75.5 -40.5t-100.5 -14q-36 0 -66 5t-49 11l38 177q12 -5 25 -8.5t28 -3.5q37 0 57.5 15.5t33.5 39.5z" horiz-adv-x="631" glyph-name="ydieresis" unicode="ÿ"/>
<glyph d="M302 791l16 95h358l-16 -95h-358zM424 467l-101 -182h122zM480 0l-16 108h-230l-59 -108h-258l435 708h244l124 -708h-240z" horiz-adv-x="775" glyph-name="Amacron" unicode="Ā"/>
<glyph d="M152 611l16 95h358l-16 -95h-358zM504 81q-4 -22 -5.5 -45t-1.5 -36h-192q0 7 0.5 22.5t1.5 25.5h-2q-29 -33 -66 -47.5t-82 -14.5q-28 0 -56 8t-50.5 24.5t-36.5 43t-14 63.5q0 61 27.5 100.5t74 62.5t107.5 32.5t128 9.5q1 4 1 6.5v4.5q0 20 -17.5 30.5t-45.5 10.5 q-32 0 -62 -12.5t-55 -33.5l-98 112q24 23 54.5 40.5t62.5 29.5t65 18t63 6q120 0 180.5 -48.5t60.5 -136.5q0 -37 -8 -83zM331 216h-13q-25 0 -47 -3t-38.5 -9.5t-26.5 -17t-10 -26.5q0 -23 14.5 -29.5t31.5 -6.5q33 0 56.5 21t29.5 54z" horiz-adv-x="588" glyph-name="amacron" unicode="ā"/>
<glyph d="M668 908q-8 -42 -27.5 -70t-45.5 -44.5t-57 -23t-63 -6.5q-33 0 -62.5 6.5t-52.5 23t-36.5 44.5t-13.5 70h107q0 -24 20.5 -32.5t41.5 -8.5q13 0 27 2t25.5 6.5t19.5 12.5t10 20h107zM424 467l-101 -182h122zM480 0l-16 108h-230l-59 -108h-258l435 708h244l124 -708 h-240z" horiz-adv-x="775" glyph-name="Abreve" unicode="Ă"/>
<glyph d="M520 728q-8 -42 -27.5 -70t-45.5 -44.5t-57 -23t-63 -6.5q-33 0 -62.5 6.5t-52.5 23t-36.5 44.5t-13.5 70h107q0 -24 20.5 -32.5t41.5 -8.5q13 0 27 2t25.5 6.5t19.5 12.5t10 20h107zM504 81q-4 -22 -5.5 -45t-1.5 -36h-192q0 7 0.5 22.5t1.5 25.5h-2q-29 -33 -66 -47.5 t-82 -14.5q-28 0 -56 8t-50.5 24.5t-36.5 43t-14 63.5q0 61 27.5 100.5t74 62.5t107.5 32.5t128 9.5q1 4 1 6.5v4.5q0 20 -17.5 30.5t-45.5 10.5q-32 0 -62 -12.5t-55 -33.5l-98 112q24 23 54.5 40.5t62.5 29.5t65 18t63 6q120 0 180.5 -48.5t60.5 -136.5q0 -37 -8 -83z M331 216h-13q-25 0 -47 -3t-38.5 -9.5t-26.5 -17t-10 -26.5q0 -23 14.5 -29.5t31.5 -6.5q33 0 56.5 21t29.5 54z" horiz-adv-x="588" glyph-name="abreve" unicode="ă"/>
<glyph d="M424 467l-101 -182h122zM590 -196q-30 -20 -65.5 -31.5t-73.5 -11.5q-20 0 -40 3.5t-35.5 13.5t-25 26.5t-9.5 43.5q0 25 13.5 47t33.5 41t44.5 35t47.5 29l-16 108h-230l-59 -108h-258l435 708h244l124 -708h-109q-68 -43 -99 -69.5t-31 -46.5q0 -8 6.5 -12.5t14.5 -4.5 q27 0 60 18z" horiz-adv-x="775" glyph-name="Aogonek" unicode="Ą"/>
<glyph d="M331 216h-13q-25 0 -47 -3t-38.5 -9.5t-26.5 -17t-10 -26.5q0 -23 14.5 -29.5t31.5 -6.5q33 0 56.5 21t29.5 54zM415 -196q-30 -20 -65.5 -31.5t-73.5 -11.5q-20 0 -40 3.5t-35.5 13.5t-25 26.5t-9.5 43.5q0 25 13.5 47t33.5 41t44.5 35t47.5 29q0 8 0.5 23t1.5 25h-2 q-29 -33 -66 -47.5t-82 -14.5q-28 0 -56 8t-50.5 24.5t-36.5 43t-14 63.5q0 61 27.5 100.5t74 62.5t107.5 32.5t128 9.5q1 4 1 6.5v4.5q0 20 -17.5 30.5t-45.5 10.5q-32 0 -62 -12.5t-55 -33.5l-98 112q24 23 54.5 40.5t62.5 29.5t65 18t63 6q120 0 180.5 -48.5t60.5 -136.5 q0 -37 -8 -83l-34 -193q-4 -22 -5.5 -45t-1.5 -36h-61q-68 -43 -99 -69.5t-31 -46.5q0 -8 6.5 -12.5t14.5 -4.5q27 0 60 18z" horiz-adv-x="588" glyph-name="aogonek" unicode="ą"/>
<glyph d="M526 764h-165l135 144h208zM655 81q-21 -18 -48.5 -36.5t-62.5 -32.5t-78.5 -23t-96.5 -9q-80 0 -142.5 22t-106 63t-66.5 99t-23 129q0 91 31.5 170t88.5 138t135 93t171 34q92 0 162 -28.5t107 -70.5l-161 -166q-18 26 -47.5 38.5t-66.5 12.5q-38 0 -69 -15.5t-53 -42 t-34 -61.5t-12 -75q0 -52 32.5 -88t97.5 -36q38 0 71 16t57 39z" horiz-adv-x="686" glyph-name="Cacute" unicode="Ć"/>
<glyph d="M414 584h-165l135 144h208zM402 333q-7 10 -24.5 19t-42.5 9q-51 0 -81 -33t-30 -79q0 -30 20.5 -53.5t64.5 -23.5q25 0 45.5 9.5t31.5 20.5l89 -151q-40 -32 -90.5 -49.5t-116.5 -17.5q-58 0 -106 16.5t-82 47.5t-52.5 74t-18.5 97q0 65 23.5 123.5t66.5 103t103 70.5 t132 26q60 0 113 -17.5t82 -52.5z" horiz-adv-x="504" glyph-name="cacute" unicode="ć"/>
<glyph d="M545 764l-55 69l-79 -69h-150l161 144h167l108 -144h-152zM655 81q-21 -18 -48.5 -36.5t-62.5 -32.5t-78.5 -23t-96.5 -9q-80 0 -142.5 22t-106 63t-66.5 99t-23 129q0 91 31.5 170t88.5 138t135 93t171 34q92 0 162 -28.5t107 -70.5l-161 -166q-18 26 -47.5 38.5 t-66.5 12.5q-38 0 -69 -15.5t-53 -42t-34 -61.5t-12 -75q0 -52 32.5 -88t97.5 -36q38 0 71 16t57 39z" horiz-adv-x="686" glyph-name="Ccircumflex" unicode="Ĉ"/>
<glyph d="M419 584l-55 69l-79 -69h-150l161 144h167l108 -144h-152zM402 333q-7 10 -24.5 19t-42.5 9q-51 0 -81 -33t-30 -79q0 -30 20.5 -53.5t64.5 -23.5q25 0 45.5 9.5t31.5 20.5l89 -151q-40 -32 -90.5 -49.5t-116.5 -17.5q-58 0 -106 16.5t-82 47.5t-52.5 74t-18.5 97 q0 65 23.5 123.5t66.5 103t103 70.5t132 26q60 0 113 -17.5t82 -52.5z" horiz-adv-x="504" glyph-name="ccircumflex" unicode="ĉ"/>
<glyph d="M483 757q-46 0 -73 26.5t-27 61.5q0 24 8 45t23 37t36 25t47 9q45 0 72 -26.5t27 -61.5q0 -24 -8 -45t-23 -37t-36 -25t-46 -9zM655 81q-21 -18 -48.5 -36.5t-62.5 -32.5t-78.5 -23t-96.5 -9q-80 0 -142.5 22t-106 63t-66.5 99t-23 129q0 91 31.5 170t88.5 138t135 93 t171 34q92 0 162 -28.5t107 -70.5l-161 -166q-18 26 -47.5 38.5t-66.5 12.5q-38 0 -69 -15.5t-53 -42t-34 -61.5t-12 -75q0 -52 32.5 -88t97.5 -36q38 0 71 16t57 39z" horiz-adv-x="686" glyph-name="Cdotaccent" unicode="Ċ"/>
<glyph d="M349 577q-46 0 -73 26.5t-27 61.5q0 24 8 45t23 37t36 25t47 9q45 0 72 -26.5t27 -61.5q0 -24 -8 -45t-23 -37t-36 -25t-46 -9zM402 333q-7 10 -24.5 19t-42.5 9q-51 0 -81 -33t-30 -79q0 -30 20.5 -53.5t64.5 -23.5q25 0 45.5 9.5t31.5 20.5l89 -151 q-40 -32 -90.5 -49.5t-116.5 -17.5q-58 0 -106 16.5t-82 47.5t-52.5 74t-18.5 97q0 65 23.5 123.5t66.5 103t103 70.5t132 26q60 0 113 -17.5t82 -52.5z" horiz-adv-x="504" glyph-name="cdotaccent" unicode="ċ"/>
<glyph d="M558 764h-167l-111 144h150l55 -70l79 70h152zM655 81q-21 -18 -48.5 -36.5t-62.5 -32.5t-78.5 -23t-96.5 -9q-80 0 -142.5 22t-106 63t-66.5 99t-23 129q0 91 31.5 170t88.5 138t135 93t171 34q92 0 162 -28.5t107 -70.5l-161 -166q-18 26 -47.5 38.5t-66.5 12.5 q-38 0 -69 -15.5t-53 -42t-34 -61.5t-12 -75q0 -52 32.5 -88t97.5 -36q38 0 71 16t57 39z" horiz-adv-x="686" glyph-name="Ccaron" unicode="Č"/>
<glyph d="M422 584h-167l-111 144h150l55 -70l79 70h152zM402 333q-7 10 -24.5 19t-42.5 9q-51 0 -81 -33t-30 -79q0 -30 20.5 -53.5t64.5 -23.5q25 0 45.5 9.5t31.5 20.5l89 -151q-40 -32 -90.5 -49.5t-116.5 -17.5q-58 0 -106 16.5t-82 47.5t-52.5 74t-18.5 97q0 65 23.5 123.5 t66.5 103t103 70.5t132 26q60 0 113 -17.5t82 -52.5z" horiz-adv-x="504" glyph-name="ccaron" unicode="č"/>
<glyph d="M503 764h-167l-111 144h150l55 -70l79 70h152zM268 199h75q45 0 79 15.5t57 41t34.5 58t11.5 67.5q0 27 -8 51t-25 41.5t-43.5 28t-62.5 10.5h-62zM132 708h293q60 0 120.5 -16.5t109 -52.5t79.5 -93.5t31 -139.5q0 -93 -32.5 -168.5t-90.5 -128t-137 -81t-172 -28.5 h-326z" horiz-adv-x="787" glyph-name="Dcaron" unicode="Ď"/>
<glyph d="M847 526h-161l107 182h185zM227 244q0 -32 20.5 -54t59.5 -22q23 0 41.5 9t32 25t21 37t7.5 44q0 33 -20.5 54.5t-58.5 21.5q-24 0 -43 -9t-32.5 -25t-20.5 -36.5t-7 -44.5zM221 -13q-52 0 -91.5 17.5t-66.5 48t-40.5 71.5t-13.5 88q0 67 22 126.5t61 103.5t93 70t117 26 q19 0 39 -4t38 -11.5t33 -18.5t24 -24h2l48 276h223l-133 -756h-201l10 56h-2q-23 -30 -64.5 -49.5t-97.5 -19.5z" horiz-adv-x="690" glyph-name="dcaron" unicode="ď"/>
<glyph d="M422 428l-25 -142h-113l-16 -87h75q45 0 79 15.5t57 41t34.5 58t11.5 67.5q0 27 -8 51t-25 41.5t-43.5 28t-62.5 10.5h-62l-15 -84h113zM11 286l25 142h47l49 280h293q60 0 120.5 -16.5t109 -52.5t79.5 -93.5t31 -139.5q0 -93 -32.5 -168.5t-90.5 -128t-137 -81 t-172 -28.5h-326l50 286h-46z" horiz-adv-x="787" glyph-name="Dcroat" unicode="Đ"/>
<glyph d="M227 244q0 -32 20.5 -54t59.5 -22q23 0 41.5 9t32 25t21 37t7.5 44q0 33 -20.5 54.5t-58.5 21.5q-24 0 -43 -9t-32.5 -25t-20.5 -36.5t-7 -44.5zM367 680h105l14 76h223l-14 -76h53l-20 -110h-52l-100 -570h-201l10 56h-2q-23 -30 -64.5 -49.5t-97.5 -19.5 q-52 0 -91.5 17.5t-66.5 48t-40.5 71.5t-13.5 88q0 67 22 126.5t61 103.5t93 70t117 26q19 0 39 -4t38 -11.5t33 -18.5t24 -24h2l15 90h-106z" horiz-adv-x="690" glyph-name="dcroat" unicode="đ"/>
<glyph d="M189 791l16 95h358l-16 -95h-358zM7 0l125 708h463l-34 -193h-245l-12 -68h234l-32 -180h-234l-13 -74h274l-34 -193h-492z" horiz-adv-x="592" glyph-name="Emacron" unicode="Ē"/>
<glyph d="M189 611l16 95h358l-16 -95h-358zM392 330q1 3 1 6.5v5.5q0 25 -18.5 40t-51.5 15q-21 0 -37.5 -7t-28.5 -17t-19.5 -21.5t-10.5 -21.5h165zM215 211q-1 -3 -1 -7q0 -17 9 -27.5t22 -17t28 -9t27 -2.5q25 0 49 8.5t43 26.5l151 -104q-52 -53 -119 -74t-139 -21 q-56 0 -106.5 15t-88 45t-59.5 74.5t-22 104.5q0 67 24 125.5t67.5 101.5t104 67.5t133.5 24.5q58 0 104 -16.5t78 -47t49.5 -74t17.5 -97.5q0 -22 -3.5 -48t-10.5 -48h-358z" horiz-adv-x="622" glyph-name="emacron" unicode="ē"/>
<glyph d="M565 908q-8 -42 -27.5 -70t-45.5 -44.5t-57 -23t-63 -6.5q-33 0 -62.5 6.5t-52.5 23t-36.5 44.5t-13.5 70h107q0 -24 20.5 -32.5t41.5 -8.5q13 0 27 2t25.5 6.5t19.5 12.5t10 20h107zM7 0l125 708h463l-34 -193h-245l-12 -68h234l-32 -180h-234l-13 -74h274l-34 -193 h-492z" horiz-adv-x="592" glyph-name="Ebreve" unicode="Ĕ"/>
<glyph d="M561 728q-8 -42 -27.5 -70t-45.5 -44.5t-57 -23t-63 -6.5q-33 0 -62.5 6.5t-52.5 23t-36.5 44.5t-13.5 70h107q0 -24 20.5 -32.5t41.5 -8.5q13 0 27 2t25.5 6.5t19.5 12.5t10 20h107zM392 330q1 3 1 6.5v5.5q0 25 -18.5 40t-51.5 15q-21 0 -37.5 -7t-28.5 -17 t-19.5 -21.5t-10.5 -21.5h165zM215 211q-1 -3 -1 -7q0 -17 9 -27.5t22 -17t28 -9t27 -2.5q25 0 49 8.5t43 26.5l151 -104q-52 -53 -119 -74t-139 -21q-56 0 -106.5 15t-88 45t-59.5 74.5t-22 104.5q0 67 24 125.5t67.5 101.5t104 67.5t133.5 24.5q58 0 104 -16.5t78 -47 t49.5 -74t17.5 -97.5q0 -22 -3.5 -48t-10.5 -48h-358z" horiz-adv-x="622" glyph-name="ebreve" unicode="ĕ"/>
<glyph d="M376 757q-46 0 -73 26.5t-27 61.5q0 24 8 45t23 37t36 25t47 9q45 0 72 -26.5t27 -61.5q0 -24 -8 -45t-23 -37t-36 -25t-46 -9zM7 0l125 708h463l-34 -193h-245l-12 -68h234l-32 -180h-234l-13 -74h274l-34 -193h-492z" horiz-adv-x="592" glyph-name="Edotaccent" unicode="Ė"/>
<glyph d="M368 577q-46 0 -73 26.5t-27 61.5q0 24 8 45t23 37t36 25t47 9q45 0 72 -26.5t27 -61.5q0 -24 -8 -45t-23 -37t-36 -25t-46 -9zM392 330q1 3 1 6.5v5.5q0 25 -18.5 40t-51.5 15q-21 0 -37.5 -7t-28.5 -17t-19.5 -21.5t-10.5 -21.5h165zM215 211q-1 -3 -1 -7 q0 -17 9 -27.5t22 -17t28 -9t27 -2.5q25 0 49 8.5t43 26.5l151 -104q-52 -53 -119 -74t-139 -21q-56 0 -106.5 15t-88 45t-59.5 74.5t-22 104.5q0 67 24 125.5t67.5 101.5t104 67.5t133.5 24.5q58 0 104 -16.5t78 -47t49.5 -74t17.5 -97.5q0 -22 -3.5 -48t-10.5 -48h-358z " horiz-adv-x="622" glyph-name="edotaccent" unicode="ė"/>
<glyph d="M432 -196q-30 -20 -65.5 -31.5t-73.5 -11.5q-20 0 -40 3.5t-35.5 13.5t-25 26.5t-9.5 43.5q0 25 13 47t33.5 41t44.5 35t47 29h-314l125 708h463l-34 -193h-245l-12 -68h234l-32 -180h-234l-13 -74h274l-34 -193h-46q-68 -43 -99 -69.5t-31 -46.5q0 -8 6.5 -12.5 t14.5 -4.5q27 0 60 18z" horiz-adv-x="592" glyph-name="Eogonek" unicode="Ę"/>
<glyph d="M392 330q1 3 1 6.5v5.5q0 25 -18.5 40t-51.5 15q-21 0 -37.5 -7t-28.5 -17t-19.5 -21.5t-10.5 -21.5h165zM361 -196q-30 -20 -65.5 -31.5t-73.5 -11.5q-20 0 -40 3.5t-35.5 13.5t-25 26.5t-9.5 43.5q0 22 10.5 41.5t27 37t37.5 33t42 28.5q-47 6 -87 24t-69.5 47.5 t-46.5 70.5t-17 93q0 67 24 125.5t67.5 101.5t104 67.5t133.5 24.5q58 0 104 -16.5t78 -47t49.5 -74t17.5 -97.5q0 -22 -3.5 -48t-10.5 -48h-358q-1 -3 -1 -7q0 -17 9 -27.5t22 -17t28 -9t27 -2.5q25 0 49 8.5t43 26.5l151 -104q-37 -38 -81.5 -59t-93.5 -29 q-60 -39 -88 -63.5t-28 -43.5q0 -8 6.5 -12.5t14.5 -4.5q27 0 60 18z" horiz-adv-x="622" glyph-name="eogonek" unicode="ę"/>
<glyph d="M450 764h-167l-111 144h150l55 -70l79 70h152zM7 0l125 708h463l-34 -193h-245l-12 -68h234l-32 -180h-234l-13 -74h274l-34 -193h-492z" horiz-adv-x="592" glyph-name="Ecaron" unicode="Ě"/>
<glyph d="M443 584h-167l-111 144h150l55 -70l79 70h152zM392 330q1 3 1 6.5v5.5q0 25 -18.5 40t-51.5 15q-21 0 -37.5 -7t-28.5 -17t-19.5 -21.5t-10.5 -21.5h165zM215 211q-1 -3 -1 -7q0 -17 9 -27.5t22 -17t28 -9t27 -2.5q25 0 49 8.5t43 26.5l151 -104q-52 -53 -119 -74 t-139 -21q-56 0 -106.5 15t-88 45t-59.5 74.5t-22 104.5q0 67 24 125.5t67.5 101.5t104 67.5t133.5 24.5q58 0 104 -16.5t78 -47t49.5 -74t17.5 -97.5q0 -22 -3.5 -48t-10.5 -48h-358z" horiz-adv-x="622" glyph-name="ecaron" unicode="ě"/>
<glyph d="M548 764l-55 69l-79 -69h-150l161 144h167l108 -144h-152zM570 465q-17 26 -45.5 42t-73.5 16q-35 0 -67.5 -14.5t-57 -41t-39.5 -64.5t-15 -86q0 -59 34 -97.5t108 -38.5q17 0 34.5 3t28.5 8l11 62h-116l32 182h321l-68 -386q-55 -29 -124.5 -49.5t-147.5 -20.5 q-80 0 -145 20.5t-111.5 60.5t-72 98.5t-25.5 133.5q0 91 31 170t86.5 138t133 93t170.5 34q92 0 164 -26.5t110 -72.5z" horiz-adv-x="763" glyph-name="Gcircumflex" unicode="Ĝ"/>
<glyph d="M454 584l-55 69l-79 -69h-150l161 144h167l108 -144h-152zM224 242q0 -12 3.5 -26t12.5 -25t25 -18.5t40 -7.5t43.5 10.5t33 27t21 38t7.5 44.5q0 35 -21.5 55t-58.5 20q-26 0 -45.5 -10.5t-33 -27.5t-20.5 -38t-7 -42zM230 0q-55 0 -96.5 16t-69 44.5t-41.5 67.5t-14 85 q0 67 21.5 126t60 103.5t92.5 70t119 25.5q38 0 78.5 -16.5t64.5 -52.5h3l9 57h211l-83 -473q-28 -155 -114 -224t-234 -69q-37 0 -75.5 5t-74.5 15.5t-67.5 26t-55.5 35.5l106 154q32 -31 77 -47t83 -16q34 0 57.5 8t39.5 21.5t24.5 31t11.5 37.5l5 26h-3q-8 -9 -21 -19 t-30 -18.5t-38.5 -14t-45.5 -5.5z" horiz-adv-x="693" glyph-name="gcircumflex" unicode="ĝ"/>
<glyph d="M672 908q-8 -42 -27.5 -70t-45.5 -44.5t-57 -23t-63 -6.5q-33 0 -62.5 6.5t-52.5 23t-36.5 44.5t-13.5 70h107q0 -24 20.5 -32.5t41.5 -8.5q13 0 27 2t25.5 6.5t19.5 12.5t10 20h107zM570 465q-17 26 -45.5 42t-73.5 16q-35 0 -67.5 -14.5t-57 -41t-39.5 -64.5t-15 -86 q0 -59 34 -97.5t108 -38.5q17 0 34.5 3t28.5 8l11 62h-116l32 182h321l-68 -386q-55 -29 -124.5 -49.5t-147.5 -20.5q-80 0 -145 20.5t-111.5 60.5t-72 98.5t-25.5 133.5q0 91 31 170t86.5 138t133 93t170.5 34q92 0 164 -26.5t110 -72.5z" horiz-adv-x="763" glyph-name="Gbreve" unicode="Ğ"/>
<glyph d="M591 728q-8 -42 -27.5 -70t-45.5 -44.5t-57 -23t-63 -6.5q-33 0 -62.5 6.5t-52.5 23t-36.5 44.5t-13.5 70h107q0 -24 20.5 -32.5t41.5 -8.5q13 0 27 2t25.5 6.5t19.5 12.5t10 20h107zM224 242q0 -12 3.5 -26t12.5 -25t25 -18.5t40 -7.5t43.5 10.5t33 27t21 38t7.5 44.5 q0 35 -21.5 55t-58.5 20q-26 0 -45.5 -10.5t-33 -27.5t-20.5 -38t-7 -42zM230 0q-55 0 -96.5 16t-69 44.5t-41.5 67.5t-14 85q0 67 21.5 126t60 103.5t92.5 70t119 25.5q38 0 78.5 -16.5t64.5 -52.5h3l9 57h211l-83 -473q-28 -155 -114 -224t-234 -69q-37 0 -75.5 5 t-74.5 15.5t-67.5 26t-55.5 35.5l106 154q32 -31 77 -47t83 -16q34 0 57.5 8t39.5 21.5t24.5 31t11.5 37.5l5 26h-3q-8 -9 -21 -19t-30 -18.5t-38.5 -14t-45.5 -5.5z" horiz-adv-x="693" glyph-name="gbreve" unicode="ğ"/>
<glyph d="M482 757q-46 0 -73 26.5t-27 61.5q0 24 8 45t23 37t36 25t47 9q45 0 72 -26.5t27 -61.5q0 -24 -8 -45t-23 -37t-36 -25t-46 -9zM570 465q-17 26 -45.5 42t-73.5 16q-35 0 -67.5 -14.5t-57 -41t-39.5 -64.5t-15 -86q0 -59 34 -97.5t108 -38.5q17 0 34.5 3t28.5 8l11 62 h-116l32 182h321l-68 -386q-55 -29 -124.5 -49.5t-147.5 -20.5q-80 0 -145 20.5t-111.5 60.5t-72 98.5t-25.5 133.5q0 91 31 170t86.5 138t133 93t170.5 34q92 0 164 -26.5t110 -72.5z" horiz-adv-x="763" glyph-name="Gdotaccent" unicode="Ġ"/>
<glyph d="M390 577q-46 0 -73 26.5t-27 61.5q0 24 8 45t23 37t36 25t47 9q45 0 72 -26.5t27 -61.5q0 -24 -8 -45t-23 -37t-36 -25t-46 -9zM224 242q0 -12 3.5 -26t12.5 -25t25 -18.5t40 -7.5t43.5 10.5t33 27t21 38t7.5 44.5q0 35 -21.5 55t-58.5 20q-26 0 -45.5 -10.5t-33 -27.5 t-20.5 -38t-7 -42zM230 0q-55 0 -96.5 16t-69 44.5t-41.5 67.5t-14 85q0 67 21.5 126t60 103.5t92.5 70t119 25.5q38 0 78.5 -16.5t64.5 -52.5h3l9 57h211l-83 -473q-28 -155 -114 -224t-234 -69q-37 0 -75.5 5t-74.5 15.5t-67.5 26t-55.5 35.5l106 154q32 -31 77 -47 t83 -16q34 0 57.5 8t39.5 21.5t24.5 31t11.5 37.5l5 26h-3q-8 -9 -21 -19t-30 -18.5t-38.5 -14t-45.5 -5.5z" horiz-adv-x="693" glyph-name="gdotaccent" unicode="ġ"/>
<glyph d="M314 -240h-161l113 195h185zM570 465q-17 26 -45.5 42t-73.5 16q-35 0 -67.5 -14.5t-57 -41t-39.5 -64.5t-15 -86q0 -59 34 -97.5t108 -38.5q17 0 34.5 3t28.5 8l11 62h-116l32 182h321l-68 -386q-55 -29 -124.5 -49.5t-147.5 -20.5q-80 0 -145 20.5t-111.5 60.5 t-72 98.5t-25.5 133.5q0 91 31 170t86.5 138t133 93t170.5 34q92 0 164 -26.5t110 -72.5z" horiz-adv-x="763" glyph-name="Gcommaaccent" unicode="Ģ"/>
<glyph d="M390 779h161l-113 -195h-185zM224 242q0 -12 3.5 -26t12.5 -25t25 -18.5t40 -7.5t43.5 10.5t33 27t21 38t7.5 44.5q0 35 -21.5 55t-58.5 20q-26 0 -45.5 -10.5t-33 -27.5t-20.5 -38t-7 -42zM230 0q-55 0 -96.5 16t-69 44.5t-41.5 67.5t-14 85q0 67 21.5 126t60 103.5 t92.5 70t119 25.5q38 0 78.5 -16.5t64.5 -52.5h3l9 57h211l-83 -473q-28 -155 -114 -224t-234 -69q-37 0 -75.5 5t-74.5 15.5t-67.5 26t-55.5 35.5l106 154q32 -31 77 -47t83 -16q34 0 57.5 8t39.5 21.5t24.5 31t11.5 37.5l5 26h-3q-8 -9 -21 -19t-30 -18.5t-38.5 -14 t-45.5 -5.5z" horiz-adv-x="693" glyph-name="gcommaaccent" unicode="ģ"/>
<glyph d="M540 764l-55 69l-79 -69h-150l161 144h167l108 -144h-152zM440 0l48 272h-202l-48 -272h-231l125 708h230l-43 -243h202l43 243h232l-125 -708h-231z" horiz-adv-x="798" glyph-name="Hcircumflex" unicode="Ĥ"/>
<glyph d="M482 796l-55 69l-79 -69h-150l161 144h167l108 -144h-152zM327 0l49 279q2 9 2.5 18.5t0.5 15.5q0 20 -11 32.5t-35 12.5q-23 0 -40.5 -20.5t-24.5 -59.5l-49 -278h-225l133 756h225l-51 -291h2q24 29 63.5 51t85.5 22q44 0 74.5 -13t50 -34.5t28 -49.5t8.5 -58 q0 -16 -1.5 -33.5t-4.5 -33.5l-55 -316h-225z" horiz-adv-x="661" glyph-name="hcircumflex" unicode="ĥ"/>
<glyph d="M521 465l9 55h-202l-9 -55h202zM440 0l48 272h-202l-48 -272h-231l125 708h230l-14 -78h202l14 78h232l-125 -708h-231z" horiz-adv-x="798" glyph-name="Hbar" unicode="Ħ"/>
<glyph d="M65 680h48l14 76h225l-14 -76h108l-20 -110h-107l-18 -105h2q24 29 63.5 51t85.5 22q44 0 74.5 -13t50 -34.5t28 -49.5t8.5 -58q0 -16 -1.5 -33.5t-4.5 -33.5l-55 -316h-225l49 279q2 9 2.5 18.5t0.5 15.5q0 20 -11 32.5t-35 12.5q-23 0 -40.5 -20.5t-24.5 -59.5 l-49 -278h-225l100 570h-49z" horiz-adv-x="661" glyph-name="hbar" unicode="ħ"/>
<glyph d="M460 900q-7 -29 -20 -54.5t-31 -44.5t-40 -29.5t-48 -10.5q-21 0 -39.5 6t-37.5 17q-22 13 -33 17.5t-26 4.5q-16 0 -27.5 -10.5t-16.5 -25.5h-79q7 28 19.5 52.5t30 43t39.5 29t48 10.5q23 0 40.5 -6.5t37.5 -17.5q22 -11 34 -16t28 -5t25.5 10t17.5 30h78zM7 0l125 708 h233l-125 -708h-233z" horiz-adv-x="367" glyph-name="Itilde" unicode="Ĩ"/>
<glyph d="M414 720q-7 -29 -20 -54.5t-31 -44.5t-40 -29.5t-48 -10.5q-21 0 -39.5 6t-37.5 17q-22 13 -33 17.5t-26 4.5q-16 0 -27.5 -10.5t-16.5 -25.5h-79q7 28 19.5 52.5t30 43t39.5 29t48 10.5q23 0 40.5 -6.5t37.5 -17.5q22 -11 34 -16t28 -5t25.5 10t17.5 30h78zM-5 0l93 526 h224l-93 -526h-224z" horiz-adv-x="335" glyph-name="itilde" unicode="ĩ"/>
<glyph d="M79 791l16 95h358l-16 -95h-358zM7 0l125 708h233l-125 -708h-233z" horiz-adv-x="367" glyph-name="Imacron" unicode="Ī"/>
<glyph d="M29 611l16 95h358l-16 -95h-358zM-5 0l93 526h224l-93 -526h-224z" horiz-adv-x="335" glyph-name="imacron" unicode="ī"/>
<glyph d="M214 -196q-30 -20 -65.5 -31.5t-73.5 -11.5q-20 0 -40 3.5t-35.5 13.5t-25 26.5t-9.5 43.5q0 25 13 47t33.5 41t44.5 35t47 29h-96l125 708h233l-125 -708h-5q-68 -43 -99 -69.5t-31 -46.5q0 -8 6.5 -12.5t14.5 -4.5q27 0 60 18z" horiz-adv-x="367" glyph-name="Iogonek" unicode="Į"/>
<glyph d="M213 565q-26 0 -46.5 8t-34.5 21.5t-22 31t-8 36.5q0 27 9 50.5t26 41t40 27.5t52 10q24 0 44.5 -8t35 -21.5t22.5 -31t8 -36.5q0 -27 -9 -50.5t-25.5 -41t-40 -27.5t-51.5 -10zM195 -196q-30 -20 -65.5 -31.5t-73.5 -11.5q-20 0 -40 3.5t-35.5 13.5t-25 26.5t-9.5 43.5 q0 25 13 47t33.5 41t44.5 35t47 29h-89l93 526h224l-93 -526h-3q-68 -43 -99 -69.5t-31 -46.5q0 -8 6.5 -12.5t14.5 -4.5q27 0 60 18z" horiz-adv-x="335" glyph-name="iogonek" unicode="į"/>
<glyph d="M258 757q-46 0 -73 26.5t-27 61.5q0 24 8 45t23 37t36 25t47 9q45 0 72 -26.5t27 -61.5q0 -24 -8 -45t-23 -37t-36 -25t-46 -9zM7 0l125 708h233l-125 -708h-233z" horiz-adv-x="367" glyph-name="Idotaccent" unicode="İ"/>
<glyph d="M-5 0l93 526h224l-93 -526h-224z" horiz-adv-x="335" glyph-name="dotlessi" unicode="ı"/>
<glyph d="M525 758l-55 69l-79 -69h-150l161 144h167l108 -144h-152zM489 255q-8 -47 -23.5 -95.5t-46 -88.5t-82 -65.5t-131.5 -25.5q-99 0 -164 47t-90 132l212 75q3 -17 14 -30t31 -13q23 0 33 17t15 43l81 457h232z" horiz-adv-x="562" glyph-name="Jcircumflex" unicode="Ĵ"/>
<glyph d="M280 584l-55 69l-79 -69h-150l161 144h167l108 -144h-152zM227 1q-9 -50 -25.5 -95t-47 -79.5t-78.5 -55t-120 -20.5q-20 0 -46.5 3t-45.5 9l38 182q11 -3 20 -4t16 -1q27 0 43.5 16t22.5 51l92 519h224z" horiz-adv-x="341" glyph-name="jcircumflex" unicode="ĵ"/>
<glyph d="M290 -240h-161l113 195h185zM441 0l-155 298h-2l-52 -298h-225l125 708h224l-48 -271h3l224 271h282l-318 -342l219 -366h-277z" horiz-adv-x="740" glyph-name="Kcommaaccent" unicode="Ķ"/>
<glyph d="M244 -240h-161l113 195h185zM257 229l-39 -229h-224l133 756h225l-78 -431h3l148 201h273l-216 -250l130 -276h-262l-90 229h-3z" horiz-adv-x="650" glyph-name="kcommaaccent" unicode="ķ"/>
<glyph d="M334 764h-165l135 144h208zM7 0l125 708h233l-90 -510h239l-35 -198h-472z" horiz-adv-x="547" glyph-name="Lacute" unicode="Ĺ"/>
<glyph d="M297 792h-165l135 144h208zM-6 0l133 756h229l-133 -756h-229z" horiz-adv-x="338" glyph-name="lacute" unicode="ĺ"/>
<glyph d="M199 -240h-161l113 195h185zM7 0l125 708h233l-90 -510h239l-35 -198h-472z" horiz-adv-x="547" glyph-name="Lcommaaccent" unicode="Ļ"/>
<glyph d="M65 -241h-161l113 195h185zM-6 0l133 756h229l-133 -756h-229z" horiz-adv-x="338" glyph-name="lcommaaccent" unicode="ļ"/>
<glyph d="M521 526h-161l107 182h185zM7 0l125 708h233l-90 -510h239l-35 -198h-472z" horiz-adv-x="547" glyph-name="Lcaron" unicode="Ľ"/>
<glyph d="M497 526h-161l107 182h185zM-6 0l133 756h229l-133 -756h-229z" horiz-adv-x="338" glyph-name="lcaron" unicode="ľ"/>
<glyph d="M459 287q-46 0 -73 26.5t-27 61.5q0 24 8 45t23 37t36 25t47 9q45 0 72 -26.5t27 -61.5q0 -24 -8 -45t-23 -37t-36 -25t-46 -9zM7 0l125 708h233l-90 -510h239l-35 -198h-472z" horiz-adv-x="547" glyph-name="Ldot" unicode="Ŀ"/>
<glyph d="M431 287q-46 0 -73 26.5t-27 61.5q0 24 8 45t23 37t36 25t47 9q45 0 72 -26.5t27 -61.5q0 -24 -8 -45t-23 -37t-36 -25t-46 -9zM-6 0l133 756h229l-133 -756h-229z" horiz-adv-x="524" glyph-name="ldot" unicode="ŀ"/>
<glyph d="M-32 94l33 190l64 48l66 376h234l-36 -204l196 146l-34 -189l-195 -145l-22 -117h240l-35 -199h-473l25 142z" horiz-adv-x="547" glyph-name="Lslash" unicode="Ł"/>
<glyph d="M229 0h-236l39 221l-48 -38l34 194l48 39l60 340h236l-28 -159l48 38l-34 -194l-48 -39z" horiz-adv-x="338" glyph-name="lslash" unicode="ł"/>
<glyph d="M518 764h-165l135 144h208zM431 0l-140 351h-4l-55 -351h-225l125 708h227l143 -369h4l58 369h225l-125 -708h-233z" horiz-adv-x="791" glyph-name="Nacute" unicode="Ń"/>
<glyph d="M411 584h-165l135 144h208zM68 423q4 19 8.5 49t6.5 54h216q-1 -15 -3 -34.5t-4 -33.5h4q23 32 64.5 56t91.5 24q44 0 74.5 -13t50 -34.5t28 -49.5t8.5 -58q0 -16 -1.5 -33.5t-4.5 -33.5l-55 -316h-225l49 279q2 9 2.5 18.5t0.5 15.5q0 20 -11 32.5t-35 12.5 q-23 0 -40.5 -20.5t-24.5 -59.5l-50 -278h-224z" horiz-adv-x="661" glyph-name="nacute" unicode="ń"/>
<glyph d="M302 -240h-161l113 195h185zM431 0l-140 351h-4l-55 -351h-225l125 708h227l143 -369h4l58 369h225l-125 -708h-233z" horiz-adv-x="791" glyph-name="Ncommaaccent" unicode="Ņ"/>
<glyph d="M229 -240h-161l113 195h185zM68 423q4 19 8.5 49t6.5 54h216q-1 -15 -3 -34.5t-4 -33.5h4q23 32 64.5 56t91.5 24q44 0 74.5 -13t50 -34.5t28 -49.5t8.5 -58q0 -16 -1.5 -33.5t-4.5 -33.5l-55 -316h-225l49 279q2 9 2.5 18.5t0.5 15.5q0 20 -11 32.5t-35 12.5 q-23 0 -40.5 -20.5t-24.5 -59.5l-50 -278h-224z" horiz-adv-x="661" glyph-name="ncommaaccent" unicode="ņ"/>
<glyph d="M539 764h-167l-111 144h150l55 -70l79 70h152zM431 0l-140 351h-4l-55 -351h-225l125 708h227l143 -369h4l58 369h225l-125 -708h-233z" horiz-adv-x="791" glyph-name="Ncaron" unicode="Ň"/>
<glyph d="M448 584h-167l-111 144h150l55 -70l79 70h152zM68 423q4 19 8.5 49t6.5 54h216q-1 -15 -3 -34.5t-4 -33.5h4q23 32 64.5 56t91.5 24q44 0 74.5 -13t50 -34.5t28 -49.5t8.5 -58q0 -16 -1.5 -33.5t-4.5 -33.5l-55 -316h-225l49 279q2 9 2.5 18.5t0.5 15.5q0 20 -11 32.5 t-35 12.5q-23 0 -40.5 -20.5t-24.5 -59.5l-50 -278h-224z" horiz-adv-x="661" glyph-name="ncaron" unicode="ň"/>
<glyph d="M317 791l16 95h358l-16 -95h-358zM572 387q0 27 -8.5 50.5t-25 41t-41 27.5t-55.5 10q-39 0 -70.5 -16.5t-53.5 -43.5t-34 -62t-12 -71q0 -27 8.5 -50.5t25 -41t41 -27.5t56.5 -10q39 0 70 16t53 43t34 62t12 72zM382 -18q-85 0 -150.5 23.5t-110 66.5t-67.5 102t-23 130 q0 88 31 165t87 134t135.5 90t176.5 33q86 0 151.5 -23.5t110 -66.5t67.5 -102t23 -130q0 -88 -30.5 -165t-87 -134t-136 -90t-177.5 -33z" horiz-adv-x="833" glyph-name="Omacron" unicode="Ō"/>
<glyph d="M197 611l16 95h358l-16 -95h-358zM407 283q0 32 -20 54t-59 22q-23 0 -41.5 -9.5t-32 -25t-20.5 -36.5t-7 -44q0 -33 20 -54.5t58 -21.5q24 0 43 9t32 25t20 36.5t7 44.5zM295 -16q-60 0 -112 15t-91 45t-61 74t-22 101q0 66 22 125t63.5 103t102 69.5t138.5 25.5 q61 0 114 -15t92 -45t61.5 -74t22.5 -101q0 -66 -22 -125t-64 -103t-103.5 -69.5t-140.5 -25.5z" horiz-adv-x="660" glyph-name="omacron" unicode="ō"/>
<glyph d="M681 908q-8 -42 -27.5 -70t-45.5 -44.5t-57 -23t-63 -6.5q-33 0 -62.5 6.5t-52.5 23t-36.5 44.5t-13.5 70h107q0 -24 20.5 -32.5t41.5 -8.5q13 0 27 2t25.5 6.5t19.5 12.5t10 20h107zM572 387q0 27 -8.5 50.5t-25 41t-41 27.5t-55.5 10q-39 0 -70.5 -16.5t-53.5 -43.5 t-34 -62t-12 -71q0 -27 8.5 -50.5t25 -41t41 -27.5t56.5 -10q39 0 70 16t53 43t34 62t12 72zM382 -18q-85 0 -150.5 23.5t-110 66.5t-67.5 102t-23 130q0 88 31 165t87 134t135.5 90t176.5 33q86 0 151.5 -23.5t110 -66.5t67.5 -102t23 -130q0 -88 -30.5 -165t-87 -134 t-136 -90t-177.5 -33z" horiz-adv-x="833" glyph-name="Obreve" unicode="Ŏ"/>
<glyph d="M562 728q-8 -42 -27.5 -70t-45.5 -44.5t-57 -23t-63 -6.5q-33 0 -62.5 6.5t-52.5 23t-36.5 44.5t-13.5 70h107q0 -24 20.5 -32.5t41.5 -8.5q13 0 27 2t25.5 6.5t19.5 12.5t10 20h107zM407 283q0 32 -20 54t-59 22q-23 0 -41.5 -9.5t-32 -25t-20.5 -36.5t-7 -44 q0 -33 20 -54.5t58 -21.5q24 0 43 9t32 25t20 36.5t7 44.5zM295 -16q-60 0 -112 15t-91 45t-61 74t-22 101q0 66 22 125t63.5 103t102 69.5t138.5 25.5q61 0 114 -15t92 -45t61.5 -74t22.5 -101q0 -66 -22 -125t-64 -103t-103.5 -69.5t-140.5 -25.5z" horiz-adv-x="660" glyph-name="obreve" unicode="ŏ"/>
<glyph d="M450 764h-165l135 144h208zM690 764h-164l135 144h207zM572 387q0 27 -8.5 50.5t-25 41t-41 27.5t-55.5 10q-39 0 -70.5 -16.5t-53.5 -43.5t-34 -62t-12 -71q0 -27 8.5 -50.5t25 -41t41 -27.5t56.5 -10q39 0 70 16t53 43t34 62t12 72zM382 -18q-85 0 -150.5 23.5 t-110 66.5t-67.5 102t-23 130q0 88 31 165t87 134t135.5 90t176.5 33q86 0 151.5 -23.5t110 -66.5t67.5 -102t23 -130q0 -88 -30.5 -165t-87 -134t-136 -90t-177.5 -33z" horiz-adv-x="833" glyph-name="Ohungarumlaut" unicode="Ő"/>
<glyph d="M327 584h-165l135 144h208zM567 584h-164l135 144h207zM407 283q0 32 -20 54t-59 22q-23 0 -41.5 -9.5t-32 -25t-20.5 -36.5t-7 -44q0 -33 20 -54.5t58 -21.5q24 0 43 9t32 25t20 36.5t7 44.5zM295 -16q-60 0 -112 15t-91 45t-61 74t-22 101q0 66 22 125t63.5 103 t102 69.5t138.5 25.5q61 0 114 -15t92 -45t61.5 -74t22.5 -101q0 -66 -22 -125t-64 -103t-103.5 -69.5t-140.5 -25.5z" horiz-adv-x="660" glyph-name="ohungarumlaut" unicode="ő"/>
<glyph d="M505 509h-52q-45 0 -79 -15.5t-57 -41t-34.5 -58.5t-11.5 -67q0 -27 8 -51t25 -41.5t43.5 -28t62.5 -10.5h39zM995 708l-34 -193h-245l-12 -68h234l-32 -180h-234l-13 -74h274l-34 -193h-528q-60 0 -120.5 16.5t-109 52.5t-79.5 93.5t-31 139.5q0 93 32.5 168.5t90.5 128 t137 81t172 28.5h532z" horiz-adv-x="992" glyph-name="OE" unicode="Œ"/>
<glyph d="M777 330q1 3 1 6.5v5.5q0 25 -18.5 40t-51.5 15q-21 0 -37.5 -7t-28.5 -17t-19.5 -21.5t-10.5 -21.5h165zM407 283q0 32 -20 54t-59 22q-23 0 -41.5 -9.5t-32 -25t-20.5 -36.5t-7 -44q0 -33 20 -54.5t58 -21.5q24 0 43 9t32 25t20 36.5t7 44.5zM483 54q-29 -33 -78 -51.5 t-110 -18.5q-60 0 -112 15t-91 45t-61 74t-22 101q0 66 22 125t63.5 103t102 69.5t138.5 25.5q60 0 108 -17t83 -58q31 37 83 56t114 19q58 0 104 -16.5t78 -47t49.5 -74t17.5 -97.5q0 -22 -3.5 -48t-10.5 -48h-358q-1 -3 -1 -7q0 -17 9 -27.5t22 -17t28 -9t27 -2.5 q25 0 49 8.5t43 26.5l151 -104q-52 -53 -119 -74t-139 -21q-26 0 -53.5 4t-52.5 12.5t-46 21.5t-35 32z" horiz-adv-x="1007" glyph-name="oe" unicode="œ"/>
<glyph d="M448 764h-165l135 144h208zM348 406q46 0 72 15.5t26 49.5q0 31 -21.5 42.5t-58.5 11.5h-43l-21 -119h46zM399 0l-97 259h-28l-44 -259h-223l125 708h291q58 0 105 -13t80 -38t50.5 -61.5t17.5 -83.5q0 -88 -41.5 -145t-113.5 -78l138 -289h-260z" horiz-adv-x="704" glyph-name="Racute" unicode="Ŕ"/>
<glyph d="M304 584h-165l135 144h208zM69 423q4 19 8.5 49t6.5 54h215q0 -5 -1 -13t-2.5 -17.5t-3 -18.5l-2.5 -15h3q23 32 56 53.5t78 21.5q27 0 42 -5l-42 -190q-10 3 -23 4t-24 1q-52 0 -81 -27.5t-36 -64.5l-45 -255h-224z" horiz-adv-x="440" glyph-name="racute" unicode="ŕ"/>
<glyph d="M274 -240h-161l113 195h185zM348 406q46 0 72 15.5t26 49.5q0 31 -21.5 42.5t-58.5 11.5h-43l-21 -119h46zM399 0l-97 259h-28l-44 -259h-223l125 708h291q58 0 105 -13t80 -38t50.5 -61.5t17.5 -83.5q0 -88 -41.5 -145t-113.5 -78l138 -289h-260z" horiz-adv-x="704" glyph-name="Rcommaaccent" unicode="Ŗ"/>
<glyph d="M64 -241h-161l113 195h185zM69 423q4 19 8.5 49t6.5 54h215q0 -5 -1 -13t-2.5 -17.5t-3 -18.5l-2.5 -15h3q23 32 56 53.5t78 21.5q27 0 42 -5l-42 -190q-10 3 -23 4t-24 1q-52 0 -81 -27.5t-36 -64.5l-45 -255h-224z" horiz-adv-x="440" glyph-name="rcommaaccent" unicode="ŗ"/>
<glyph d="M473 764h-167l-111 144h150l55 -70l79 70h152zM348 406q46 0 72 15.5t26 49.5q0 31 -21.5 42.5t-58.5 11.5h-43l-21 -119h46zM399 0l-97 259h-28l-44 -259h-223l125 708h291q58 0 105 -13t80 -38t50.5 -61.5t17.5 -83.5q0 -88 -41.5 -145t-113.5 -78l138 -289h-260z" horiz-adv-x="704" glyph-name="Rcaron" unicode="Ř"/>
<glyph d="M359 584h-167l-111 144h150l55 -70l79 70h152zM69 423q4 19 8.5 49t6.5 54h215q0 -5 -1 -13t-2.5 -17.5t-3 -18.5l-2.5 -15h3q23 32 56 53.5t78 21.5q27 0 42 -5l-42 -190q-10 3 -23 4t-24 1q-52 0 -81 -27.5t-36 -64.5l-45 -255h-224z" horiz-adv-x="440" glyph-name="rcaron" unicode="ř"/>
<glyph d="M444 764h-165l135 144h208zM473 497q-17 20 -44 32.5t-63 12.5q-28 0 -50.5 -12t-22.5 -37q0 -20 19 -31t56 -23q46 -15 82 -34t61 -44t38.5 -57t13.5 -72q0 -68 -30 -116t-76.5 -78t-102.5 -44t-109 -14q-42 0 -84 7t-80.5 20t-72.5 32t-59 43l158 146q12 -14 29 -25 t35.5 -18.5t37.5 -12t35 -4.5q35 0 56 11.5t21 33.5q0 18 -17.5 32t-65.5 29q-38 12 -71.5 28t-58 38.5t-38.5 54t-14 76.5q0 55 22.5 102t64 81.5t99 54t126.5 19.5q38 0 75 -6.5t70 -18t61 -27.5t47 -36z" horiz-adv-x="601" glyph-name="Sacute" unicode="Ś"/>
<glyph d="M349 584h-165l135 144h208zM69 190q26 -26 60 -39t63 -13q20 0 31.5 5.5t11.5 17.5t-15.5 20t-39.5 15q-35 10 -62.5 23t-47 31t-30 42t-10.5 56q0 49 21.5 86t57 61t80 36t89.5 12q62 0 119.5 -17.5t93.5 -49.5l-115 -132q-17 18 -47 30.5t-59 12.5q-20 0 -32.5 -5.5 t-12.5 -17.5q0 -10 10.5 -15.5t36.5 -12.5q37 -9 67.5 -22.5t52.5 -32.5t34 -45t12 -61q0 -53 -23.5 -90t-60 -60t-81 -33t-87.5 -10q-57 0 -120 16t-111 56z" horiz-adv-x="494" glyph-name="sacute" unicode="ś"/>
<glyph d="M462 764l-55 69l-79 -69h-150l161 144h167l108 -144h-152zM473 497q-17 20 -44 32.5t-63 12.5q-28 0 -50.5 -12t-22.5 -37q0 -20 19 -31t56 -23q46 -15 82 -34t61 -44t38.5 -57t13.5 -72q0 -68 -30 -116t-76.5 -78t-102.5 -44t-109 -14q-42 0 -84 7t-80.5 20t-72.5 32 t-59 43l158 146q12 -14 29 -25t35.5 -18.5t37.5 -12t35 -4.5q35 0 56 11.5t21 33.5q0 18 -17.5 32t-65.5 29q-38 12 -71.5 28t-58 38.5t-38.5 54t-14 76.5q0 55 22.5 102t64 81.5t99 54t126.5 19.5q38 0 75 -6.5t70 -18t61 -27.5t47 -36z" horiz-adv-x="601" glyph-name="Scircumflex" unicode="Ŝ"/>
<glyph d="M356 584l-55 69l-79 -69h-150l161 144h167l108 -144h-152zM69 190q26 -26 60 -39t63 -13q20 0 31.5 5.5t11.5 17.5t-15.5 20t-39.5 15q-35 10 -62.5 23t-47 31t-30 42t-10.5 56q0 49 21.5 86t57 61t80 36t89.5 12q62 0 119.5 -17.5t93.5 -49.5l-115 -132q-17 18 -47 30.5 t-59 12.5q-20 0 -32.5 -5.5t-12.5 -17.5q0 -10 10.5 -15.5t36.5 -12.5q37 -9 67.5 -22.5t52.5 -32.5t34 -45t12 -61q0 -53 -23.5 -90t-60 -60t-81 -33t-87.5 -10q-57 0 -120 16t-111 56z" horiz-adv-x="494" glyph-name="scircumflex" unicode="ŝ"/>
<glyph d="M354 -130q0 -30 -14.5 -51t-37.5 -34t-52.5 -18.5t-59.5 -5.5q-16 0 -34.5 2t-37 5t-35.5 7t-29 9l41 76q17 -8 41.5 -12t43.5 -4q15 0 27 4.5t12 17.5q0 11 -10 15t-24 4q-10 0 -21.5 -1.5t-21.5 -4.5l-36 34l73 72q-68 8 -128.5 33t-101.5 64l158 146q12 -14 29 -25 t35.5 -18.5t37.5 -12t35 -4.5q35 0 56 11.5t21 33.5q0 18 -17.5 32t-65.5 29q-38 12 -71.5 28t-58 38.5t-38.5 54t-14 76.5q0 55 22.5 102t64 81.5t99 54t126.5 19.5q38 0 75 -6.5t70 -18t61 -27.5t47 -36l-148 -143q-17 20 -44 32.5t-63 12.5q-28 0 -50.5 -12t-22.5 -37 q0 -20 19 -31t56 -23q46 -15 82 -34t61 -44t38.5 -57t13.5 -72q0 -62 -24.5 -106.5t-63.5 -75t-88.5 -47t-98.5 -21.5l-38 -35q5 1 8.5 1h8.5q11 0 26 -3.5t28.5 -12t23 -23.5t9.5 -39z" horiz-adv-x="601" glyph-name="Scedilla" unicode="Ş"/>
<glyph d="M310 -130q0 -30 -14.5 -51t-37.5 -34t-52.5 -18.5t-59.5 -5.5q-16 0 -34.5 2t-37 5t-35.5 7t-29 9l41 76q17 -8 41.5 -12t43.5 -4q15 0 27 4.5t12 17.5q0 11 -10 15t-24 4q-10 0 -21.5 -1.5t-21.5 -4.5l-36 34l73 72q-48 5 -95.5 21t-84.5 48l114 136q26 -26 60 -39 t63 -13q20 0 31.5 5.5t11.5 17.5t-15.5 20t-39.5 15q-35 10 -62.5 23t-47 31t-30 42t-10.5 56q0 49 21.5 86t57 61t80 36t89.5 12q62 0 119.5 -17.5t93.5 -49.5l-115 -132q-17 18 -47 30.5t-59 12.5q-20 0 -32.5 -5.5t-12.5 -17.5q0 -10 10.5 -15.5t36.5 -12.5 q37 -9 67.5 -22.5t52.5 -32.5t34 -45t12 -61q0 -44 -16 -76t-42 -55t-60 -36.5t-70 -19.5l-44 -41q5 1 8.5 1h8.5q11 0 26 -3.5t28.5 -12t23 -23.5t9.5 -39z" horiz-adv-x="494" glyph-name="scedilla" unicode="ş"/>
<glyph d="M456 764h-167l-111 144h150l55 -70l79 70h152zM473 497q-17 20 -44 32.5t-63 12.5q-28 0 -50.5 -12t-22.5 -37q0 -20 19 -31t56 -23q46 -15 82 -34t61 -44t38.5 -57t13.5 -72q0 -68 -30 -116t-76.5 -78t-102.5 -44t-109 -14q-42 0 -84 7t-80.5 20t-72.5 32t-59 43 l158 146q12 -14 29 -25t35.5 -18.5t37.5 -12t35 -4.5q35 0 56 11.5t21 33.5q0 18 -17.5 32t-65.5 29q-38 12 -71.5 28t-58 38.5t-38.5 54t-14 76.5q0 55 22.5 102t64 81.5t99 54t126.5 19.5q38 0 75 -6.5t70 -18t61 -27.5t47 -36z" horiz-adv-x="601" glyph-name="Scaron" unicode="Š"/>
<glyph d="M362 584h-167l-111 144h150l55 -70l79 70h152zM69 190q26 -26 60 -39t63 -13q20 0 31.5 5.5t11.5 17.5t-15.5 20t-39.5 15q-35 10 -62.5 23t-47 31t-30 42t-10.5 56q0 49 21.5 86t57 61t80 36t89.5 12q62 0 119.5 -17.5t93.5 -49.5l-115 -132q-17 18 -47 30.5t-59 12.5 q-20 0 -32.5 -5.5t-12.5 -17.5q0 -10 10.5 -15.5t36.5 -12.5q37 -9 67.5 -22.5t52.5 -32.5t34 -45t12 -61q0 -53 -23.5 -90t-60 -60t-81 -33t-87.5 -10q-57 0 -120 16t-111 56z" horiz-adv-x="494" glyph-name="scaron" unicode="š"/>
<glyph d="M193 -240h-161l113 195h185zM440 513l-90 -513h-232l90 513h-179l35 195h584l-35 -195h-173z" horiz-adv-x="583" glyph-name="Tcommaaccent" unicode="Ţ"/>
<glyph d="M131 -240h-161l113 195h185zM291 365l-27 -148q-1 -6 -1.5 -14t-0.5 -13q0 -23 11.5 -30.5t32.5 -7.5q12 0 24 2t20 4l-27 -154q-13 -8 -46 -13t-64 -5q-33 0 -65 6t-57 21t-40.5 41t-15.5 67q0 11 1.5 25t3.5 26l35 193h-78l28 161h74l21 119h217l-21 -119h101l-28 -161 h-98z" horiz-adv-x="401" glyph-name="tcommaaccent" unicode="ţ"/>
<glyph d="M443 764h-167l-111 144h150l55 -70l79 70h152zM440 513l-90 -513h-232l90 513h-179l35 195h584l-35 -195h-173z" horiz-adv-x="583" glyph-name="Tcaron" unicode="Ť"/>
<glyph d="M505 549h-161l107 182h185zM291 365l-27 -148q-1 -6 -1.5 -14t-0.5 -13q0 -23 11.5 -30.5t32.5 -7.5q12 0 24 2t20 4l-27 -154q-13 -8 -46 -13t-64 -5q-33 0 -65 6t-57 21t-40.5 41t-15.5 67q0 11 1.5 25t3.5 26l35 193h-78l28 161h74l21 119h217l-21 -119h101l-28 -161 h-98z" horiz-adv-x="401" glyph-name="tcaron" unicode="ť"/>
<glyph d="M86 431h107l15 82h-179l35 195h584l-35 -195h-173l-15 -82h107l-20 -110h-106l-56 -321h-232l56 321h-108z" horiz-adv-x="583" glyph-name="Tbar" unicode="Ŧ"/>
<glyph d="M9 319h57l9 46h-78l28 161h74l21 119h217l-21 -119h101l-28 -161h-98l-9 -46h76l-20 -110h-75q-1 -5 -1 -10.5v-8.5q0 -23 11.5 -30.5t32.5 -7.5q12 0 24 2t20 4l-27 -154q-13 -8 -46 -13t-64 -5q-33 0 -65 6t-57 21t-40.5 41t-15.5 67q0 11 1.5 25t3.5 26l6 37h-57z" horiz-adv-x="401" glyph-name="tbar" unicode="ŧ"/>
<glyph d="M668 900q-7 -29 -20 -54.5t-31 -44.5t-40 -29.5t-48 -10.5q-21 0 -39.5 6t-37.5 17q-22 13 -33 17.5t-26 4.5q-16 0 -27.5 -10.5t-16.5 -25.5h-79q7 28 19.5 52.5t30 43t39.5 29t48 10.5q23 0 40.5 -6.5t37.5 -17.5q22 -11 34 -16t28 -5t25.5 10t17.5 30h78zM696 260 q-11 -63 -37.5 -114.5t-70 -87.5t-104.5 -56t-140 -20q-68 0 -124 15t-96 43.5t-62 69.5t-22 93q0 14 2 32.5t4 33.5l75 439h229l-73 -409q-2 -8 -2 -17v-16q0 -33 20 -58t68 -25q31 0 50.5 10t31.5 26t18 36t10 40l75 413h225z" horiz-adv-x="771" glyph-name="Utilde" unicode="Ũ"/>
<glyph d="M578 720q-7 -29 -20 -54.5t-31 -44.5t-40 -29.5t-48 -10.5q-21 0 -39.5 6t-37.5 17q-22 13 -33 17.5t-26 4.5q-16 0 -27.5 -10.5t-16.5 -25.5h-79q7 28 19.5 52.5t30 43t39.5 29t48 10.5q23 0 40.5 -6.5t37.5 -17.5q22 -11 34 -16t28 -5t25.5 10t17.5 30h78zM562 103 q-4 -19 -8.5 -49t-6.5 -54h-216q1 15 3 34.5t4 33.5h-4q-23 -32 -64.5 -56t-91.5 -24q-44 0 -74.5 13t-50 34.5t-28 49.5t-8.5 58q0 16 1.5 33.5t4.5 33.5l55 316h225l-49 -279q-2 -9 -2.5 -18.5t-0.5 -15.5q0 -20 11 -32.5t35 -12.5q23 0 40.5 20.5t24.5 59.5l50 278h224z " horiz-adv-x="658" glyph-name="utilde" unicode="ũ"/>
<glyph d="M282 791l16 95h358l-16 -95h-358zM696 260q-11 -63 -37.5 -114.5t-70 -87.5t-104.5 -56t-140 -20q-68 0 -124 15t-96 43.5t-62 69.5t-22 93q0 14 2 32.5t4 33.5l75 439h229l-73 -409q-2 -8 -2 -17v-16q0 -33 20 -58t68 -25q31 0 50.5 10t31.5 26t18 36t10 40l75 413h225z " horiz-adv-x="771" glyph-name="Umacron" unicode="Ū"/>
<glyph d="M194 611l16 95h358l-16 -95h-358zM562 103q-4 -19 -8.5 -49t-6.5 -54h-216q1 15 3 34.5t4 33.5h-4q-23 -32 -64.5 -56t-91.5 -24q-44 0 -74.5 13t-50 34.5t-28 49.5t-8.5 58q0 16 1.5 33.5t4.5 33.5l55 316h225l-49 -279q-2 -9 -2.5 -18.5t-0.5 -15.5q0 -20 11 -32.5 t35 -12.5q23 0 40.5 20.5t24.5 59.5l50 278h224z" horiz-adv-x="658" glyph-name="umacron" unicode="ū"/>
<glyph d="M651 908q-8 -42 -27.5 -70t-45.5 -44.5t-57 -23t-63 -6.5q-33 0 -62.5 6.5t-52.5 23t-36.5 44.5t-13.5 70h107q0 -24 20.5 -32.5t41.5 -8.5q13 0 27 2t25.5 6.5t19.5 12.5t10 20h107zM696 260q-11 -63 -37.5 -114.5t-70 -87.5t-104.5 -56t-140 -20q-68 0 -124 15 t-96 43.5t-62 69.5t-22 93q0 14 2 32.5t4 33.5l75 439h229l-73 -409q-2 -8 -2 -17v-16q0 -33 20 -58t68 -25q31 0 50.5 10t31.5 26t18 36t10 40l75 413h225z" horiz-adv-x="771" glyph-name="Ubreve" unicode="Ŭ"/>
<glyph d="M556 728q-8 -42 -27.5 -70t-45.5 -44.5t-57 -23t-63 -6.5q-33 0 -62.5 6.5t-52.5 23t-36.5 44.5t-13.5 70h107q0 -24 20.5 -32.5t41.5 -8.5q13 0 27 2t25.5 6.5t19.5 12.5t10 20h107zM562 103q-4 -19 -8.5 -49t-6.5 -54h-216q1 15 3 34.5t4 33.5h-4q-23 -32 -64.5 -56 t-91.5 -24q-44 0 -74.5 13t-50 34.5t-28 49.5t-8.5 58q0 16 1.5 33.5t4.5 33.5l55 316h225l-49 -279q-2 -9 -2.5 -18.5t-0.5 -15.5q0 -20 11 -32.5t35 -12.5q23 0 40.5 20.5t24.5 59.5l50 278h224z" horiz-adv-x="658" glyph-name="ubreve" unicode="ŭ"/>
<glyph d="M530 872q0 22 -14 37t-39 15q-31 0 -51 -24t-20 -57q0 -23 14 -37.5t38 -14.5q32 0 52 24t20 57zM454 745q-44 0 -71.5 25.5t-27.5 66.5q0 27 9.5 51t26 42t40 28.5t50.5 10.5q45 0 72.5 -25t27.5 -67q0 -27 -9.5 -51t-26.5 -42t-40 -28.5t-51 -10.5zM696 260 q-11 -63 -37.5 -114.5t-70 -87.5t-104.5 -56t-140 -20q-68 0 -124 15t-96 43.5t-62 69.5t-22 93q0 14 2 32.5t4 33.5l75 439h229l-73 -409q-2 -8 -2 -17v-16q0 -33 20 -58t68 -25q31 0 50.5 10t31.5 26t18 36t10 40l75 413h225z" horiz-adv-x="771" glyph-name="Uring" unicode="Ů"/>
<glyph d="M444 692q0 22 -14 37t-39 15q-31 0 -51 -24t-20 -57q0 -23 14 -37.5t38 -14.5q32 0 52 24t20 57zM368 565q-44 0 -71.5 25.5t-27.5 66.5q0 27 9.5 51t26 42t40 28.5t50.5 10.5q45 0 72.5 -25t27.5 -67q0 -27 -9.5 -51t-26.5 -42t-40 -28.5t-51 -10.5zM562 103 q-4 -19 -8.5 -49t-6.5 -54h-216q1 15 3 34.5t4 33.5h-4q-23 -32 -64.5 -56t-91.5 -24q-44 0 -74.5 13t-50 34.5t-28 49.5t-8.5 58q0 16 1.5 33.5t4.5 33.5l55 316h225l-49 -279q-2 -9 -2.5 -18.5t-0.5 -15.5q0 -20 11 -32.5t35 -12.5q23 0 40.5 20.5t24.5 59.5l50 278h224z " horiz-adv-x="658" glyph-name="uring" unicode="ů"/>
<glyph d="M413 764h-165l135 144h208zM653 764h-164l135 144h207zM696 260q-11 -63 -37.5 -114.5t-70 -87.5t-104.5 -56t-140 -20q-68 0 -124 15t-96 43.5t-62 69.5t-22 93q0 14 2 32.5t4 33.5l75 439h229l-73 -409q-2 -8 -2 -17v-16q0 -33 20 -58t68 -25q31 0 50.5 10t31.5 26 t18 36t10 40l75 413h225z" horiz-adv-x="771" glyph-name="Uhungarumlaut" unicode="Ű"/>
<glyph d="M325 584h-165l135 144h208zM565 584h-164l135 144h207zM562 103q-4 -19 -8.5 -49t-6.5 -54h-216q1 15 3 34.5t4 33.5h-4q-23 -32 -64.5 -56t-91.5 -24q-44 0 -74.5 13t-50 34.5t-28 49.5t-8.5 58q0 16 1.5 33.5t4.5 33.5l55 316h225l-49 -279q-2 -9 -2.5 -18.5 t-0.5 -15.5q0 -20 11 -32.5t35 -12.5q23 0 40.5 20.5t24.5 59.5l50 278h224z" horiz-adv-x="658" glyph-name="uhungarumlaut" unicode="ű"/>
<glyph d="M418 -196q-30 -20 -65.5 -31.5t-73.5 -11.5q-20 0 -40 3.5t-35.5 13.5t-25 26.5t-9.5 43.5q0 21 10 40.5t26.5 37t36.5 32.5t41 28q-56 6 -100.5 23.5t-76.5 45t-49 65t-17 83.5q0 14 2 32.5t4 33.5l75 439h229l-73 -409q-2 -8 -2 -17v-16q0 -33 20 -58t68 -25 q31 0 50.5 10t31.5 26t18 36t10 40l75 413h225l-77 -448q-10 -55 -31.5 -101.5t-55.5 -81.5t-81.5 -58t-108.5 -32q-57 -37 -83.5 -61t-26.5 -42q0 -8 6.5 -12.5t14.5 -4.5q27 0 60 18z" horiz-adv-x="771" glyph-name="Uogonek" unicode="Ų"/>
<glyph d="M441 -196q-30 -20 -65.5 -31.5t-73.5 -11.5q-20 0 -40 3.5t-35.5 13.5t-25 26.5t-9.5 43.5q0 25 13.5 47t33.5 41t44.5 35t47.5 29q1 15 3 34.5t4 33.5h-4q-23 -32 -64.5 -56t-91.5 -24q-44 0 -74.5 13t-50 34.5t-28 49.5t-8.5 58q0 16 1.5 33.5t4.5 33.5l55 316h225 l-49 -279q-2 -9 -2.5 -18.5t-0.5 -15.5q0 -20 11 -32.5t35 -12.5q23 0 40.5 20.5t24.5 59.5l50 278h224l-74 -423q-4 -19 -8.5 -49t-6.5 -54h-85q-68 -43 -99 -69.5t-31 -46.5q0 -8 6.5 -12.5t14.5 -4.5q27 0 60 18z" horiz-adv-x="658" glyph-name="uogonek" unicode="ų"/>
<glyph d="M673 764l-55 69l-79 -69h-150l161 144h167l108 -144h-152zM802 0h-238l-20 408h-4l-186 -408h-235l-55 708h245v-405h4l166 405h238l8 -405h4l166 405h241z" horiz-adv-x="1050" glyph-name="Wcircumflex" unicode="Ŵ"/>
<glyph d="M581 584l-55 69l-79 -69h-150l161 144h167l108 -144h-152zM711 0h-223l-27 274h-2l-137 -274h-222l-72 526h234l11 -279h4l127 279h217l18 -279h3l123 279h235z" horiz-adv-x="963" glyph-name="wcircumflex" unicode="ŵ"/>
<glyph d="M473 764l-55 69l-79 -69h-150l161 144h167l108 -144h-152zM440 291l-51 -291h-231l51 291l-187 417h258l76 -219l151 219h282z" horiz-adv-x="677" glyph-name="Ycircumflex" unicode="Ŷ"/>
<glyph d="M431 584l-55 69l-79 -69h-150l161 144h167l108 -144h-152zM150 7l-126 519h248l32 -288h4l123 288h240l-305 -558q-27 -50 -53.5 -88.5t-59.5 -65t-75.5 -40.5t-100.5 -14q-36 0 -66 5t-49 11l38 177q12 -5 25 -8.5t28 -3.5q37 0 57.5 15.5t33.5 39.5z" horiz-adv-x="631" glyph-name="ycircumflex" unicode="ŷ"/>
<glyph d="M537 763q-43 0 -68 25t-25 57q0 22 7.5 41.5t22 34.5t34 23.5t43.5 8.5q20 0 37 -7t29 -18t19 -26t7 -31q0 -22 -7.5 -41.5t-21.5 -34.5t-33.5 -23.5t-43.5 -8.5zM286 763q-43 0 -68 25t-25 57q0 22 7.5 41.5t22 34.5t34 23.5t43.5 8.5q20 0 37 -7t29 -18t19 -26t7 -31 q0 -22 -7.5 -41.5t-21.5 -34.5t-33.5 -23.5t-43.5 -8.5zM440 291l-51 -291h-231l51 291l-187 417h258l76 -219l151 219h282z" horiz-adv-x="677" glyph-name="Ydieresis" unicode="Ÿ"/>
<glyph d="M468 764h-165l135 144h208zM-17 0l34 194l330 322h-262l34 192h563l-30 -168l-348 -343h296l-35 -197h-582z" horiz-adv-x="668" glyph-name="Zacute" unicode="Ź"/>
<glyph d="M380 584h-165l135 144h208zM-27 0l28 158l237 202h-196l29 166h474l-26 -147l-254 -212h222l-29 -167h-485z" horiz-adv-x="552" glyph-name="zacute" unicode="ź"/>
<glyph d="M412 757q-46 0 -73 26.5t-27 61.5q0 24 8 45t23 37t36 25t47 9q45 0 72 -26.5t27 -61.5q0 -24 -8 -45t-23 -37t-36 -25t-46 -9zM-17 0l34 194l330 322h-262l34 192h563l-30 -168l-348 -343h296l-35 -197h-582z" horiz-adv-x="668" glyph-name="Zdotaccent" unicode="Ż"/>
<glyph d="M326 577q-46 0 -73 26.5t-27 61.5q0 24 8 45t23 37t36 25t47 9q45 0 72 -26.5t27 -61.5q0 -24 -8 -45t-23 -37t-36 -25t-46 -9zM-27 0l28 158l237 202h-196l29 166h474l-26 -147l-254 -212h222l-29 -167h-485z" horiz-adv-x="552" glyph-name="zdotaccent" unicode="ż"/>
<glyph d="M491 764h-167l-111 144h150l55 -70l79 70h152zM-17 0l34 194l330 322h-262l34 192h563l-30 -168l-348 -343h296l-35 -197h-582z" horiz-adv-x="668" glyph-name="Zcaron" unicode="Ž"/>
<glyph d="M394 584h-167l-111 144h150l55 -70l79 70h152zM-27 0l28 158l237 202h-196l29 166h474l-26 -147l-254 -212h222l-29 -167h-485z" horiz-adv-x="552" glyph-name="zcaron" unicode="ž"/>
<glyph d="M631 530q-17 11 -32 14t-26 3q-23 0 -39.5 -11t-32.5 -49l-13 -36h132l-26 -147h-162l-97 -254q-16 -42 -37 -76.5t-51 -59.5t-70.5 -39t-95.5 -14q-38 0 -77 9t-66 26l89 160q14 -11 28.5 -14.5t24.5 -3.5q24 0 39.5 17.5t28.5 49.5l76 199h-114l26 147h139 q20 54 42 104t54 88.5t79.5 61.5t118.5 23q54 0 95.5 -11.5t65.5 -28.5z" horiz-adv-x="695" glyph-name="florin" unicode="ƒ"/>
<glyph d="M194 -240h-161l113 195h185zM473 497q-17 20 -44 32.5t-63 12.5q-28 0 -50.5 -12t-22.5 -37q0 -20 19 -31t56 -23q46 -15 82 -34t61 -44t38.5 -57t13.5 -72q0 -68 -30 -116t-76.5 -78t-102.5 -44t-109 -14q-42 0 -84 7t-80.5 20t-72.5 32t-59 43l158 146q12 -14 29 -25 t35.5 -18.5t37.5 -12t35 -4.5q35 0 56 11.5t21 33.5q0 18 -17.5 32t-65.5 29q-38 12 -71.5 28t-58 38.5t-38.5 54t-14 76.5q0 55 22.5 102t64 81.5t99 54t126.5 19.5q38 0 75 -6.5t70 -18t61 -27.5t47 -36z" horiz-adv-x="601" glyph-name="Scommaaccent" unicode="Ș"/>
<glyph d="M135 -240h-161l113 195h185zM69 190q26 -26 60 -39t63 -13q20 0 31.5 5.5t11.5 17.5t-15.5 20t-39.5 15q-35 10 -62.5 23t-47 31t-30 42t-10.5 56q0 49 21.5 86t57 61t80 36t89.5 12q62 0 119.5 -17.5t93.5 -49.5l-115 -132q-17 18 -47 30.5t-59 12.5q-20 0 -32.5 -5.5 t-12.5 -17.5q0 -10 10.5 -15.5t36.5 -12.5q37 -9 67.5 -22.5t52.5 -32.5t34 -45t12 -61q0 -53 -23.5 -90t-60 -60t-81 -33t-87.5 -10q-57 0 -120 16t-111 56z" horiz-adv-x="494" glyph-name="scommaaccent" unicode="ș"/>
<glyph d="M193 -240h-161l113 195h185zM440 513l-90 -513h-232l90 513h-179l35 195h584l-35 -195h-173z" horiz-adv-x="583" glyph-name="uni021A" unicode="Ț"/>
<glyph d="M131 -240h-161l113 195h185zM291 365l-27 -148q-1 -6 -1.5 -14t-0.5 -13q0 -23 11.5 -30.5t32.5 -7.5q12 0 24 2t20 4l-27 -154q-13 -8 -46 -13t-64 -5q-33 0 -65 6t-57 21t-40.5 41t-15.5 67q0 11 1.5 25t3.5 26l35 193h-78l28 161h74l21 119h217l-21 -119h101l-28 -161 h-98z" horiz-adv-x="401" glyph-name="uni021B" unicode="ț"/>
<glyph d="M286 584l-55 69l-79 -69h-150l161 144h167l108 -144h-152z" glyph-name="circumflex" unicode="ˆ"/>
<glyph d="M305 584h-167l-111 144h150l55 -70l79 70h152z" glyph-name="caron" unicode="ˇ"/>
<glyph d="M46 791l16 95h358l-16 -95h-358z" glyph-name="uni02C9" unicode="ˉ"/>
<glyph d="M424 728q-8 -42 -27.5 -70t-45.5 -44.5t-57 -23t-63 -6.5q-33 0 -62.5 6.5t-52.5 23t-36.5 44.5t-13.5 70h107q0 -24 20.5 -32.5t41.5 -8.5q13 0 27 2t25.5 6.5t19.5 12.5t10 20h107z" glyph-name="breve" unicode="˘"/>
<glyph d="M224 577q-46 0 -73 26.5t-27 61.5q0 24 8 45t23 37t36 25t47 9q45 0 72 -26.5t27 -61.5q0 -24 -8 -45t-23 -37t-36 -25t-46 -9z" glyph-name="dotaccent" unicode="˙"/>
<glyph d="M299 692q0 22 -14 37t-39 15q-31 0 -51 -24t-20 -57q0 -23 14 -37.5t38 -14.5q32 0 52 24t20 57zM223 565q-44 0 -71.5 25.5t-27.5 66.5q0 27 9.5 51t26 42t40 28.5t50.5 10.5q45 0 72.5 -25t27.5 -67q0 -27 -9.5 -51t-26.5 -42t-40 -28.5t-51 -10.5z" glyph-name="ring" unicode="˚"/>
<glyph d="M197 -196q-30 -20 -65.5 -31.5t-73.5 -11.5q-20 0 -40 3.5t-35.5 13.5t-25 26.5t-9.5 43.5q0 25 13.5 47t34 41t45 35.5t47.5 29.5h132q-69 -44 -100.5 -70.5t-31.5 -46.5q0 -8 6.5 -12.5t14.5 -4.5q27 0 60 18z" glyph-name="ogonek" unicode="˛"/>
<glyph d="M431 720q-7 -29 -20 -54.5t-31 -44.5t-40 -29.5t-48 -10.5q-21 0 -39.5 6t-37.5 17q-22 13 -33 17.5t-26 4.5q-16 0 -27.5 -10.5t-16.5 -25.5h-79q7 28 19.5 52.5t30 43t39.5 29t48 10.5q23 0 40.5 -6.5t37.5 -17.5q22 -11 34 -16t28 -5t25.5 10t17.5 30h78z" glyph-name="tilde" unicode="˜"/>
<glyph d="M155 584h-165l135 144h208zM395 584h-164l135 144h207z" glyph-name="hungarumlaut" unicode="˝"/>
<glyph horiz-adv-x="0" glyph-name="uni034F" unicode="͏"/>
<glyph d="M422 189q-7 58 -13.5 115t-14.5 115q-62 -117 -121 -230h149zM-40 0q104 179 208 354t208 354h165q34 -179 67 -354t67 -354h-715z" horiz-adv-x="735" glyph-name="uni0394" unicode="Δ"/>
<glyph d="M369 0l59 279q54 12 82 48t39 86q3 15 3 28q0 41 -26.5 66.5t-71.5 25.5q-26 0 -50 -9t-44.5 -25.5t-34.5 -38.5t-20 -48q-5 -25 -5 -42q0 -34 16.5 -58t55.5 -33l-59 -279h-313l38 181h142l2 11q-48 16 -74 59.5t-26 105.5q0 31 8 69q15 72 54 127.5t94 92.5t121 56 t135 19q61 0 113.5 -14.5t90.5 -43t60 -71t22 -98.5q0 -33 -7 -67q-9 -44 -27.5 -82.5t-44 -69t-56 -52t-63.5 -31.5l-2 -11h141l-38 -181h-314z" horiz-adv-x="783" glyph-name="uni03A9" unicode="Ω"/>
<glyph d="M375 526l-56 -263q-2 -8 -3.5 -21t-1.5 -22q0 -26 10.5 -45t38.5 -19q41 0 62.5 29t30.5 71l57 270h234l-111 -526h-226l7 37q-17 -17 -39.5 -28t-53.5 -11q-37 0 -58 16l-50 -238h-234l159 750h234z" horiz-adv-x="758" glyph-name="uni03BC" unicode="μ"/>
<glyph d="M640 23q-26 -17 -60.5 -26t-63.5 -9q-68 0 -104.5 24t-36.5 80q0 11 1 22t4 24l43 202h-84l-72 -340h-223l72 340h-53l39 186h644l-39 -186h-67l-31 -146q-2 -8 -2 -13q0 -19 24 -19q10 0 18.5 3t23.5 11z" horiz-adv-x="739" glyph-name="pi" unicode="π"/>
<glyph horiz-adv-x="0" glyph-name="uni200B" unicode="​"/>
<glyph horiz-adv-x="0" glyph-name="uni200C" unicode="‌"/>
<glyph horiz-adv-x="0" glyph-name="uni200D" unicode="‍"/>
<glyph d="M41 345h340l-22 -120h-340z" horiz-adv-x="400" glyph-name="endash" unicode="–"/>
<glyph d="M41 345h540l-22 -120h-540z" horiz-adv-x="600" glyph-name="emdash" unicode="—"/>
<glyph d="M249 427h-185l149 281h160z" horiz-adv-x="350" glyph-name="quoteleft" unicode="‘"/>
<glyph d="M226 427h-161l124 281h185z" horiz-adv-x="350" glyph-name="quoteright" unicode="’"/>
<glyph d="M129 -126h-161l123 281h185z" horiz-adv-x="350" glyph-name="quotesinglbase" unicode="‚"/>
<glyph d="M237 427h-180l148 281h160zM466 427h-180l143 281h160z" horiz-adv-x="562" glyph-name="quotedblleft" unicode="“"/>
<glyph d="M218 427h-160l124 281h180zM442 427h-160l128 281h180z" horiz-adv-x="562" glyph-name="quotedblright" unicode="”"/>
<glyph d="M121 -126h-160l123 281h180zM345 -126h-160l127 281h180z" horiz-adv-x="562" glyph-name="quotedblbase" unicode="„"/>
<glyph d="M397 345l-84 -478h-180l84 478h-182l29 166h181l35 197h180l-35 -197h188l-29 -166h-187z" horiz-adv-x="617" glyph-name="dagger" unicode="†"/>
<glyph d="M345 37l-30 -170h-179l30 170h-184l28 160h184l32 181h-184l28 160h183l30 170h179l-30 -170h186l-28 -160h-186l-32 -181h186l-28 -160h-185z" horiz-adv-x="617" glyph-name="daggerdbl" unicode="‡"/>
<glyph d="M73 354q0 37 14 69t38 56t56 38t69 14t69 -14t56 -38t38 -56t14 -69t-14 -69t-38 -56t-56 -38t-69 -14t-69 14t-56 38t-38 56t-14 69z" horiz-adv-x="500" glyph-name="bullet" unicode="•"/>
<glyph d="M795 -12q-28 0 -50.5 8.5t-38 23.5t-24 34t-8.5 40q0 29 10 54.5t28.5 44.5t44 30t56.5 11q27 0 49 -8.5t37.5 -23.5t24.5 -34t9 -40q0 -29 -10 -54.5t-28 -44.5t-43.5 -30t-56.5 -11zM461 -12q-28 0 -50.5 8.5t-38 23.5t-24 34t-8.5 40q0 29 10 54.5t28.5 44.5t44 30 t56.5 11q27 0 49 -8.5t37.5 -23.5t24.5 -34t9 -40q0 -29 -10 -54.5t-28 -44.5t-43.5 -30t-56.5 -11zM127 -12q-28 0 -50.5 8.5t-38 23.5t-24 34t-8.5 40q0 29 10 54.5t28.5 44.5t44 30t56.5 11q27 0 49 -8.5t37.5 -23.5t24.5 -34t9 -40q0 -29 -10 -54.5t-28 -44.5t-43.5 -30 t-56.5 -11z" horiz-adv-x="1000" glyph-name="ellipsis" unicode="…"/>
<glyph d="M197 -39l-86 58l546 720l87 -56zM1095 181q0 20 -12.5 34t-36.5 14q-29 0 -46 -22t-17 -52q0 -21 12.5 -34.5t35.5 -13.5q29 0 46.5 21.5t17.5 52.5zM1023 -12q-38 0 -69.5 10t-54.5 29.5t-36 48.5t-13 66q0 43 15 80t41.5 65t64 44t82.5 16q38 0 70 -10.5t55.5 -30 t36.5 -48t13 -65.5q0 -43 -15.5 -80.5t-42.5 -65t-64.5 -43.5t-82.5 -16zM689 181q0 20 -12.5 34t-36.5 14q-29 0 -46 -22t-17 -52q0 -21 12.5 -34.5t35.5 -13.5q29 0 46.5 21.5t17.5 52.5zM617 -12q-38 0 -69.5 10t-54.5 29.5t-36 48.5t-13 66q0 43 15 80t41.5 65t64 44 t82.5 16q38 0 70 -10.5t55.5 -30t36.5 -48t13 -65.5q0 -43 -15.5 -80.5t-42.5 -65t-64.5 -43.5t-82.5 -16zM297 554q0 20 -12.5 34t-36.5 14q-29 0 -46 -22t-17 -52q0 -21 12.5 -34.5t35.5 -13.5q29 0 46.5 21.5t17.5 52.5zM225 361q-38 0 -69.5 10t-54.5 29.5t-36 48.5 t-13 66q0 43 15 80t41.5 65t64 44t82.5 16q38 0 70 -10.5t55.5 -30t36.5 -48t13 -65.5q0 -43 -15.5 -80.5t-42.5 -65t-64.5 -43.5t-82.5 -16z" horiz-adv-x="1262" glyph-name="perthousand" unicode="‰"/>
<glyph d="M223 525l110 -81l-151 -171l86 -166l-131 -72l-131 247z" horiz-adv-x="348" glyph-name="guilsinglleft" unicode="‹"/>
<glyph d="M110 35l-110 81l151 171l-86 167l131 71l131 -247z" horiz-adv-x="348" glyph-name="guilsinglright" unicode="›"/>
<glyph d="M-145 -35l-85 54l484 720l86 -52z" horiz-adv-x="100" glyph-name="fraction" unicode="⁄"/>
<glyph d="M123 335q0 5 2.5 19t4.5 22h-87l70 131h53q48 103 141.5 162t230.5 59q18 0 39 -1.5t42.5 -4.5t41.5 -7.5t36 -10.5l-78 -163q-41 17 -95 17q-37 0 -72 -14t-52 -37h206l-64 -131h-201q-2 -8 -4 -19t-3 -22h197l-63 -129h-131q4 -13 14.5 -22.5t25.5 -16t33 -10t37 -3.5 q35 0 68.5 7.5t56.5 19.5l16 -168q-26 -14 -74.5 -23.5t-105.5 -9.5q-62 0 -112 16t-87 46t-60 71.5t-30 92.5h-108l65 129h47z" horiz-adv-x="695" glyph-name="Euro" unicode="€"/>
<glyph d="M384 579q0 17 -7.5 28.5t-20.5 11.5q-30 0 -43 -59l-35 -162q46 38 76 86t30 95zM513 586q0 -41 -15 -80t-47 -78t-82 -79.5t-120 -85.5q-9 -36 -14 -58t-7.5 -35t-3 -19.5t-0.5 -10.5q0 -21 11.5 -31t28.5 -10q18 0 40 8.5t57 30.5h2l38 -90q-48 -32 -92 -47t-93 -15 q-73 0 -110.5 35.5t-37.5 90.5q0 7 1.5 18t5.5 32l-58 -40h-2l-41 88l128 82l48 229q20 92 79 146t144 54q31 0 57 -10.5t44.5 -29t28.5 -43t10 -52.5z" horiz-adv-x="500" glyph-name="afii61289" unicode="ℓ"/>
<glyph d="M506 708h164l89 -248l83 248h163v-412h-112v245h-2l-92 -245h-91l-89 245h-2v-245h-111v412zM212 605h-112v103h346v-103h-112v-309h-122v309z" horiz-adv-x="1000" glyph-name="trademark" unicode="™"/>
<glyph d="M369 0l59 279q54 12 82 48t39 86q3 15 3 28q0 41 -26.5 66.5t-71.5 25.5q-26 0 -50 -9t-44.5 -25.5t-34.5 -38.5t-20 -48q-5 -25 -5 -42q0 -34 16.5 -58t55.5 -33l-59 -279h-313l38 181h142l2 11q-48 16 -74 59.5t-26 105.5q0 31 8 69q15 72 54 127.5t94 92.5t121 56 t135 19q61 0 113.5 -14.5t90.5 -43t60 -71t22 -98.5q0 -33 -7 -67q-9 -44 -27.5 -82.5t-44 -69t-56 -52t-63.5 -31.5l-2 -11h141l-38 -181h-314z" horiz-adv-x="783" glyph-name="Omega" unicode="Ω"/>
<glyph d="M210 355v-240q76 -78 192 -78q83 0 144 37.5t112 121.5l46 -28q-30 -48 -61.5 -82t-67.5 -55.5t-78.5 -32t-94.5 -10.5q-78 0 -141 28.5t-108 78.5t-69 116.5t-24 143.5t24 143.5t69 116t108 77.5t141 28q76 0 139.5 -27t108.5 -75.5t70 -115.5t25 -147h-535zM595 402 v193q-82 79 -194 79t-191 -79v-193h385z" horiz-adv-x="800" glyph-name="estimated" unicode="℮"/>
<glyph d="M456 305q-15 9 -33.5 12.5t-33.5 3.5q-35 0 -55 -19t-20 -56q0 -21 6.5 -35.5t16.5 -24t20.5 -13.5t19.5 -4q45 0 61 34t18 100v2zM664 360q0 -36 -4.5 -78t-16 -83.5t-32 -79.5t-53 -67.5t-78 -47t-107.5 -17.5q-59 0 -109.5 17t-87.5 49.5t-57.5 78.5t-20.5 104 q0 49 16.5 92t49 74.5t81.5 50t114 18.5q21 0 44.5 -4.5t42.5 -12.5q-4 32 -27 55.5t-76 23.5q-31 0 -71 -13.5t-84 -49.5q-24 38 -47.5 77t-47.5 77q57 50 125.5 73.5t137.5 23.5q90 0 149 -34t94.5 -86.5t50 -116.5t14.5 -124z" horiz-adv-x="776" glyph-name="partialdiff" unicode="∂"/>
<glyph d="M422 189q-7 58 -13.5 115t-14.5 115q-62 -117 -121 -230h149zM-40 0q104 179 208 354t208 354h165q34 -179 67 -354t67 -354h-715z" horiz-adv-x="735" glyph-name="Delta" unicode="∆"/>
<glyph d="M521 -214v837h-277v-837h-188v1000h655v-1000h-190z" horiz-adv-x="765" glyph-name="product" unicode="∏"/>
<glyph d="M27 -214v133q70 94 140.5 186.5t140.5 186.5q-67 91 -135 180.5t-135 180.5v133h615v-163h-382q59 -83 118.5 -165t118.5 -165q-63 -87 -126.5 -172t-126.5 -172h409v-163h-637z" horiz-adv-x="684" glyph-name="summation" unicode="∑"/>
<glyph d="M592 376v-144h-518v144h518z" horiz-adv-x="666" glyph-name="minus" unicode="−"/>
<glyph d="M-145 -35l-85 54l484 720l86 -52z" horiz-adv-x="100" glyph-name="uni2215" unicode="∕"/>
<glyph d="M158 168q-28 0 -50.5 8.5t-38 23.5t-24 34t-8.5 40q0 29 10 54.5t28.5 44.5t44 30t56.5 11q27 0 49 -8.5t37.5 -23.5t24.5 -34t9 -40q0 -29 -10 -54.5t-28 -44.5t-43.5 -30t-56.5 -11z" horiz-adv-x="354" glyph-name="uni2219" unicode="∙"/>
<glyph d="M609 786q-54 -251 -108.5 -500t-108.5 -500h-146q-34 71 -69 141.5t-69 141.5q-13 -6 -25.5 -11.5t-25.5 -11.5q-17 35 -33.5 69t-33.5 69q51 22 101 45t101 45q23 -52 47.5 -102.5t47.5 -102.5q38 181 74 358.5t74 358.5h174z" horiz-adv-x="601" glyph-name="radical" unicode="√"/>
<glyph d="M338 265q-22 20 -47.5 38t-48.5 18q-22 0 -36.5 -16t-14.5 -39q0 -25 14.5 -39.5t39.5 -14.5t48.5 16t44.5 37zM668 266q0 26 -14.5 41t-39.5 15q-26 0 -50 -18.5t-43 -38.5q20 -22 44.5 -38t51.5 -16q23 0 37 15.5t14 39.5zM814 269q0 -41 -13 -77.5t-38 -63.5t-62 -43 t-84 -16q-61 0 -106.5 28t-80.5 66q-18 -19 -37 -36t-41 -29.5t-48.5 -20t-57.5 -7.5q-46 0 -83 15t-63.5 42t-40.5 63t-14 78q0 40 13.5 76t38.5 62t61.5 41.5t83.5 15.5q33 0 60 -8t49.5 -22t42 -32t36.5 -37q17 20 36.5 38t42.5 32t50 22t59 8q46 0 82.5 -15.5t62 -41.5 t38.5 -62t13 -76z" horiz-adv-x="859" glyph-name="infinity" unicode="∞"/>
<glyph d="M552 683q0 -33 -22 -57.5t-58 -24.5q-15 0 -26 5t-19 12.5t-13.5 15.5t-11.5 14q-4 -10 -6 -22q-1 -9 -1 -18v1v-7q0 -10 0.5 -18.5t0.5 -15.5v20q0 9 -1 20v-6v-10q0 -17 0.5 -34t0.5 -34v-409q0 -26 -0.5 -54t-3.5 -54q-3 -41 -12.5 -80.5t-30.5 -70.5t-56 -50t-89 -19 q-20 0 -44 6t-44.5 18.5t-34.5 33t-14 50.5q0 19 10 36q11 18 29.5 28.5t41.5 10.5q15 0 25 -5t17 -11.5t12.5 -14t11.5 -12.5q4 11 5.5 24t1.5 24q1 5 1 10v10q0 10 -0.5 19.5t-0.5 18.5v486q0 46 7.5 93t28.5 85.5t59 62.5t100 24q17 0 40.5 -5t44.5 -16.5t36 -31 t15 -48.5z" horiz-adv-x="655" glyph-name="integral" unicode="∫"/>
<glyph d="M619 251q-4 -32 -14 -66.5t-29.5 -63.5t-50.5 -47.5t-76 -18.5q-31 0 -64 9.5t-64.5 21t-60.5 21t-53 9.5q-14 0 -24.5 -13t-15.5 -43h-121q3 37 14 74.5t31 67.5t51 49t74 19q31 0 61.5 -9t60.5 -19.5t60.5 -19t61.5 -8.5q24 0 36 37h123zM619 485q-5 -59 -21 -99.5 t-40 -65.5t-53 -36t-59 -11t-61.5 9t-62.5 20.5t-60.5 20.5t-54.5 9q-14 0 -23.5 -11.5t-14.5 -29.5h-121q3 37 14 71.5t32 61.5t53.5 43.5t78.5 16.5q30 0 59 -8t58 -18t57.5 -18t57.5 -8q16 0 25.5 11t12.5 42h123z" horiz-adv-x="666" glyph-name="approxequal" unicode="≈"/>
<glyph d="M315 58l-74 -148q-35 17 -71 33.5t-71 33.5q11 20 22 40.5t22 40.5h-74v152h153q11 23 24 45t24 45h-201v152h280q20 36 39 73.5t39 73.5q35 -16 70 -33t70 -33q-11 -20 -21.5 -40.5t-21.5 -40.5h73v-152h-152q-11 -23 -24 -45t-24 -45h200v-152h-282z" horiz-adv-x="666" glyph-name="notequal" unicode="≠"/>
<glyph d="M588 163q-128 51 -255 101.5t-255 101.5v134q128 51 255 101.5t255 101.5v-162q-69 -29 -137 -55.5t-137 -55.5q69 -26 137 -51.5t137 -51.5v-164zM78 7v139h510v-139h-510z" horiz-adv-x="666" glyph-name="lessequal" unicode="≤"/>
<glyph d="M78 163v164q69 26 137 51.5t137 51.5q-69 29 -137 55.5t-137 55.5v162q128 -51 255 -101.5t255 -101.5v-134q-128 -51 -255 -101.5t-255 -101.5zM78 7v139h510v-139h-510z" horiz-adv-x="666" glyph-name="greaterequal" unicode="≥"/>
<glyph d="M395 356q-21 49 -43.5 98.5t-43.5 98.5q-22 -49 -42 -98.5t-42 -98.5q22 -49 42 -98t42 -98q21 49 43.5 98t43.5 98zM568 356q-48 -98 -95 -195.5t-95 -195.5h-140q-46 98 -92.5 195.5t-92.5 195.5q48 98 93.5 195.5t93.5 195.5h138q48 -98 95 -195.5t95 -195.5z" horiz-adv-x="619" glyph-name="lozenge" unicode="◊"/>
<glyph d="M227 1q-9 -50 -25.5 -95t-47 -79.5t-78.5 -55t-120 -20.5q-20 0 -46.5 3t-45.5 9l38 182q11 -3 20 -4t16 -1q27 0 43.5 16t22.5 51l92 519h224z" horiz-adv-x="341" glyph-name="dotlessj" unicode=""/>
<glyph d="M154 -240h-161l113 195h185z" glyph-name="commaaccent" unicode=""/>
<glyph d="M678 237q19 -29 44.5 -51.5t43.5 -27.5q-5 -14 -9 -25t-8 -19q-23 -50 -48 -78q-40 -44 -58 -57q-26 -17 -60 -17q-29 0 -69 17q-38 16 -59 16q-19 0 -75 -22q-30 -11 -48 -11q-49 0 -103 58q-22 23 -44 56q-41 60 -61 115.5t-20 127.5q0 88 54 159q58 76 146 76 q42 0 71 -12q63 -26 78 -26q27 0 57 12q66 26 90 26q58 0 90 -23q15 -12 60 -64q-42 -19 -67 -59.5t-25 -86.5q0 -55 20 -84zM484 664q24 29 55 43.5t52 14.5q0 -67 -46 -119t-110 -52q0 31 14 61q8 17 35 52z" horiz-adv-x="876" glyph-name="uniF8FF" unicode=""/>
<glyph d="M316 276q39 0 56.5 15.5t17.5 35.5q0 44 -58 44h-39l-16 -95h39zM228 0h-228l104 594h228l-12 -66h75q112 0 167 -47.5t55 -132.5q0 -110 -72 -173t-223 -63h-74z" horiz-adv-x="631" glyph-name="thorn.sc"/>
<glyph d="M467 535q38 -6 72 -22t54 -41l-127 -139q-7 10 -24.5 19t-42.5 9q-51 0 -81 -33t-30 -79q0 -30 20.5 -53.5t64.5 -23.5q25 0 45.5 9.5t31.5 20.5l89 -151q-34 -26 -75 -43.5t-92 -21.5l-11 -59h-106l12 63q-89 17 -141.5 77t-52.5 152q0 61 21 116t59 98.5t91.5 72 t118.5 34.5l11 59h106z" horiz-adv-x="640" glyph-name="cent.sc"/>
<glyph d="M251 632l-44 -82h53zM271 430l-5 43h-93l-23 -43h-143l183 291h159l51 -291h-129z" horiz-adv-x="390" glyph-name="ordfeminine.sc"/>
<glyph d="M561 425q-9 11 -21.5 15.5t-26.5 4.5q-20 0 -33 -12.5t-21 -32.5l-15 -41h141l-25 -138h-161l-53 -148q-16 -44 -36.5 -74.5t-47.5 -49t-61.5 -27t-78.5 -8.5q-38 0 -76.5 9t-67.5 26l78 158q11 -11 26 -15.5t26 -4.5q38 0 53 41l34 93h-116l25 138h135l27 72 q37 99 98 141t150 42q43 0 82.5 -9.5t62.5 -25.5z" horiz-adv-x="640" glyph-name="florin.sc"/>
<glyph d="M305 607q54 0 84 -29t30 -70q0 -27 -9.5 -51t-26.5 -42t-41 -28t-54 -10q-52 0 -82.5 29t-30.5 70q0 28 9.5 52t26.5 41.5t41 27.5t53 10zM122 290q33 16 44.5 26t13.5 19l2 11h205l-4 -28q-5 -35 -22.5 -58.5t-47.5 -38.5l-22 -11q-23 -11 -32.5 -20.5t-9.5 -21.5 q0 -10 5.5 -17t17.5 -7q29 0 40 41l200 -33q-10 -35 -32 -66.5t-55.5 -55t-77.5 -37t-99 -13.5q-59 0 -102.5 12.5t-72 33.5t-42.5 50t-14 62q0 49 23 86t82 66z" horiz-adv-x="550" glyph-name="questiondown.sc"/>
<glyph d="M417 450q0 14 -8.5 24.5t-25.5 10.5q-20 0 -31.5 -12t-11.5 -31q0 -13 7 -25t17 -20q25 8 39 22t14 31zM276 225q-19 -5 -32.5 -18.5t-13.5 -37.5q0 -20 16 -32.5t36 -12.5q34 0 55 22zM192 338q-19 21 -29 48t-10 55q0 33 16 64t45.5 55.5t72 39t96.5 14.5 q42 0 79.5 -10t66 -30t45.5 -49t17 -68q0 -54 -37 -93t-105 -71l34 -42l61 61h241l-186 -180l114 -132h-258l-21 26q-35 -23 -80 -34.5t-102 -11.5q-103 0 -161.5 45t-58.5 125q0 68 42.5 115.5t117.5 72.5z" horiz-adv-x="800" glyph-name="ampersand.sc"/>
<glyph d="M230 -39l-81 57l461 609l81 -58zM679 153q0 19 -12 34.5t-37 15.5t-40.5 -18.5t-15.5 -40.5q0 -19 12.5 -33t34.5 -14q25 0 41.5 16.5t16.5 39.5zM612 -14q-33 0 -62 10t-50.5 28.5t-34 45t-12.5 59.5q0 39 13.5 72t38 58t58.5 39t76 14q34 0 63 -10t51 -29t34.5 -45.5 t12.5 -59.5q0 -39 -14 -72.5t-39 -58t-59.5 -38t-75.5 -13.5zM273 450q0 19 -12 34.5t-37 15.5t-40.5 -18.5t-15.5 -40.5q0 -19 12.5 -33t34.5 -14q25 0 41.5 16.5t16.5 39.5zM206 283q-33 0 -62 10t-50.5 28.5t-34 45t-12.5 59.5q0 39 13.5 72t38 58t58.5 39t76 14 q34 0 63 -10t51 -29t34.5 -45.5t12.5 -59.5q0 -38 -14 -71t-39 -58t-59.5 -39t-75.5 -14z" horiz-adv-x="850" glyph-name="percent.sc"/>
<glyph d="M323 653h99l-11 -57q52 -4 98.5 -21t77.5 -46l-119 -143q-17 20 -46 33t-59 13q-22 0 -34.5 -6.5t-12.5 -19.5q0 -10 8.5 -16t36.5 -13q38 -10 69.5 -24.5t54 -35t34.5 -49t12 -65.5q0 -49 -18.5 -85.5t-49 -61t-69 -38.5t-77.5 -19l-11 -64h-98l11 63q-51 4 -101.5 21.5 t-90.5 52.5l118 147q26 -27 60.5 -42t64.5 -15q42 0 42 25q0 14 -16 22.5t-40 16.5q-72 21 -111.5 57t-39.5 106q0 46 17.5 81.5t46 61t66 41t77.5 21.5z" horiz-adv-x="640" glyph-name="dollar.sc"/>
<glyph d="M175 -13q-54 0 -84 29.5t-30 70.5q0 27 9.5 51t26.5 42t41 28.5t54 10.5q52 0 82.5 -29.5t30.5 -70.5q0 -28 -9.5 -52t-26.5 -42t-41 -28t-53 -10zM84 256l60 338h231l-60 -338h-231z" horiz-adv-x="420" glyph-name="exclam.sc"/>
<glyph d="M335 429q-19 0 -34.5 -19t-26.5 -48t-17 -63t-6 -65q0 -30 8.5 -48t31.5 -18q17 0 32 18t26 46t17 63t6 68q0 30 -8 48t-29 18zM351 614q67 0 115 -20.5t78.5 -54.5t44.5 -77.5t14 -88.5q0 -64 -16.5 -133.5t-54.5 -127t-99.5 -95t-151.5 -37.5q-68 0 -116.5 20.5 t-79.5 54t-45 76.5t-14 88q0 43 7 89t23 90t41.5 83t61.5 68.5t83.5 47t108.5 17.5z" horiz-adv-x="640" glyph-name="zero.sc"/>
<glyph d="M206 0l66 367l-124 -66l-70 172l238 121h225l-104 -594h-231z" horiz-adv-x="640" glyph-name="one.sc"/>
<glyph d="M22 0l29 167l266 175q24 16 36 29.5t12 30.5q0 15 -11 23t-24 8q-20 0 -36.5 -14t-24.5 -46l-211 33q15 52 44 91t67.5 65t85.5 39t99 13q51 0 96.5 -11t79 -34t53.5 -58.5t20 -84.5q0 -37 -10.5 -66t-30.5 -53t-48.5 -44.5t-64.5 -39.5l-85 -46h207l-30 -177h-519z" horiz-adv-x="640" glyph-name="two.sc"/>
<glyph d="M488 307q42 -15 61 -48t19 -67q0 -59 -25 -99.5t-64.5 -65.5t-89.5 -36t-100 -11q-48 0 -92 10t-79.5 31t-61 54t-36.5 80l210 50q3 -27 20.5 -40t37.5 -13t33 11t13 30q0 23 -14.5 34t-48.5 11h-51l23 132h62q32 0 48 14t16 31t-11 25t-26 8q-21 0 -35 -13t-18 -29 l-200 48q18 45 47 75.5t64 49.5t75.5 27t81.5 8q45 0 90 -8t80.5 -27.5t58 -53t22.5 -84.5q0 -28 -9 -50t-24 -38t-35 -27t-42 -16v-3z" horiz-adv-x="640" glyph-name="three.sc"/>
<glyph d="M348 409h-4l-118 -148h94zM497 105l-19 -105h-204l19 105h-298l29 163l269 326h290l-58 -333h79l-27 -156h-80z" horiz-adv-x="640" glyph-name="four.sc"/>
<glyph d="M561 212q0 -63 -24 -107.5t-62.5 -72t-86.5 -40t-97 -12.5q-51 0 -95 10t-79 31t-59.5 52.5t-35.5 75.5l208 58q2 -20 17 -33t36 -13q19 0 33 10t14 33q0 26 -20.5 35.5t-53.5 9.5q-32 0 -82.5 -6t-98.5 -17l85 368h428l-32 -170h-236l-9 -36q14 2 24.5 2h18.5 q37 0 74.5 -9t66.5 -29.5t47.5 -54.5t18.5 -85z" horiz-adv-x="640" glyph-name="five.sc"/>
<glyph d="M233 211q0 -30 19 -44t39 -14q35 0 53 21t18 51q0 27 -17 41.5t-39 14.5q-37 0 -55 -21.5t-18 -48.5zM396 412q42 0 75 -14t56.5 -38t35.5 -56t12 -69q0 -56 -21.5 -103t-60 -80.5t-92.5 -52.5t-118 -19q-118 0 -187.5 54.5t-69.5 158.5q0 63 26 113t75 104l170 184h279z " horiz-adv-x="640" glyph-name="six.sc"/>
<glyph d="M306 0h-255l297 418h-238l32 176h485l-28 -147z" horiz-adv-x="640" glyph-name="seven.sc"/>
<glyph d="M280 418q0 -16 12.5 -29.5t35.5 -13.5q26 0 41.5 14.5t15.5 36.5q0 20 -12.5 32t-33.5 12q-27 0 -43 -14.5t-16 -37.5zM466 310q15 -6 32 -18t30.5 -29t22.5 -38t9 -45q0 -50 -20 -87.5t-57.5 -62.5t-90 -37.5t-116.5 -12.5q-42 0 -87.5 8t-83 27.5t-61.5 52.5t-24 82 q0 36 12.5 64t33 49t45.5 34.5t49 19.5v4q-36 15 -56.5 44t-20.5 67q0 47 24 81t62 56.5t86.5 33.5t98.5 11q45 0 88 -8.5t76 -27.5t53 -48t20 -70q0 -34 -11.5 -59.5t-29.5 -43.5t-40 -29t-44 -16v-2zM230 179q0 -23 15.5 -35t34.5 -12q35 0 51 16t16 39q0 18 -13.5 33 t-35.5 15q-31 0 -49.5 -16.5t-18.5 -39.5z" horiz-adv-x="640" glyph-name="eight.sc"/>
<glyph d="M387 387q0 30 -19 44.5t-39 14.5q-35 0 -53 -21t-18 -51q0 -27 18 -41.5t40 -14.5q35 0 53 20t18 49zM224 185q-42 0 -75 14t-56.5 38t-35.5 56t-12 69q0 56 21.5 102.5t59.5 79.5t91.5 51.5t118.5 18.5q118 0 187.5 -54.5t69.5 -158.5q0 -63 -26 -113t-75 -104 l-170 -184h-279z" horiz-adv-x="640" glyph-name="nine.sc"/>
<glyph d="M320 -20q-73 0 -129 20t-94.5 56.5t-58 87t-19.5 111.5q0 75 26.5 140.5t74.5 114t116 76.5t151 28q73 0 129.5 -20t94.5 -56t57.5 -86.5t19.5 -110.5q0 -75 -26 -141t-74 -115t-116 -77t-152 -28zM457 318q0 39 -23 67t-69 28q-27 0 -48.5 -10.5t-36 -29t-22.5 -43 t-8 -52.5q0 -40 24 -67.5t67 -27.5q28 0 50 10.5t36.5 29t22 43t7.5 52.5z" horiz-adv-x="720" glyph-name="zero.onum"/>
<glyph d="M141 0l66 367l-124 -66l-70 172l238 121h225l-104 -594h-231z" horiz-adv-x="550" glyph-name="one.onum"/>
<glyph d="M86 192q82 35 138.5 60.5t91 46.5t49.5 39.5t15 38.5q0 29 -18 39t-36 10q-34 0 -54.5 -19t-29.5 -42l-185 59q15 37 41.5 71.5t64.5 60.5t86.5 42t108.5 16q39 0 84 -8t83.5 -29.5t63.5 -60t25 -99.5q0 -48 -18 -83.5t-46.5 -62t-63.5 -45t-68 -32.5l-40 -17v-2h211 l-31 -175h-556l30 169z" horiz-adv-x="660" glyph-name="two.onum"/>
<glyph d="M551 400q-26 -14 -54.5 -29t-56.5 -29.5t-53 -26.5t-43 -21l-1 -3q5 1 11 1.5t13 0.5q33 0 62.5 -13t52 -36t36 -56t13.5 -72q0 -78 -28 -132.5t-77.5 -88.5t-117.5 -49.5t-148 -15.5q-32 0 -77 4t-87 12l45 199q28 -5 59 -8t51 -3q22 0 46 2t44 9t33 18.5t13 31.5 q0 16 -9.5 26.5t-25 16.5t-35.5 8.5t-40 2.5t-52.5 -3t-67.5 -11l-11 158q22 9 51 21.5t61 27.5t64 30.5t59 29.5l1 4h-213l33 188h483z" horiz-adv-x="600" glyph-name="three.onum"/>
<glyph d="M251 186h113l29 165h212l-29 -165h88l-33 -186h-83l-30 -170h-216l30 170h-351l34 194l306 420h254z" horiz-adv-x="700" glyph-name="four.onum"/>
<glyph d="M148 -170q-31 0 -71 3t-91 12l40 198q27 -5 56.5 -6.5t46.5 -1.5q27 0 54.5 2.5t49 9.5t35.5 20t14 34q0 19 -8.5 31.5t-22.5 19.5t-32.5 9.5t-37.5 2.5q-58 0 -146 -17l93 447h456l-34 -198h-243l-20 -75q10 2 18 2.5t15 0.5q46 0 84 -13t65.5 -38.5t43 -62t15.5 -84.5 q0 -140 -97 -218t-283 -78z" horiz-adv-x="600" glyph-name="five.onum"/>
<glyph d="M260 236q0 -32 22 -50.5t50 -18.5q42 0 66 26t24 68q0 33 -21.5 51t-47.5 18q-44 0 -68.5 -27t-24.5 -67zM452 480q39 0 75.5 -11.5t64.5 -36.5t45 -63t17 -92q0 -59 -23 -112.5t-66.5 -94t-106.5 -64.5t-142 -24q-50 0 -100.5 11.5t-91 40.5t-66.5 79.5t-26 127.5 q0 54 18 105t48 97.5t70 89t84.5 81t90.5 71.5t89 61l222 -92q-34 -21 -69.5 -45t-68.5 -48t-61.5 -46t-49.5 -39l1 -2q30 6 46 6z" horiz-adv-x="700" glyph-name="six.onum"/>
<glyph d="M592 425q-53 -79 -107.5 -163t-105 -164.5t-94 -151.5t-74.5 -124l-237 48q34 53 80.5 123t95.5 142.5t95.5 141.5t81.5 119h-287l35 198h547z" horiz-adv-x="620" glyph-name="seven.onum"/>
<glyph d="M311 495q0 -20 14 -37t41 -17q30 0 48.5 18t18.5 45q0 26 -14.5 41t-39.5 15q-31 0 -49.5 -18t-18.5 -47zM505 368q18 -8 37 -21.5t34.5 -33t25.5 -44t10 -52.5q0 -59 -22 -103t-62 -73.5t-96.5 -44t-126.5 -14.5q-45 0 -93 9.5t-87 33t-64.5 61.5t-25.5 95q0 42 14.5 75 t37.5 57.5t51.5 40.5t56.5 23v4q-42 18 -64.5 52.5t-22.5 78.5q0 54 26 94.5t67.5 67t93.5 39.5t105 13q49 0 94 -10.5t79.5 -32.5t55.5 -56t21 -82q0 -39 -13.5 -69t-34.5 -51t-46.5 -34.5t-50.5 -19.5v-3zM255 215q0 -29 17.5 -44t39.5 -15q40 0 59 20t19 49 q0 23 -16.5 41.5t-42.5 18.5q-34 0 -55 -20t-21 -50z" horiz-adv-x="700" glyph-name="eight.onum"/>
<glyph d="M431 360q0 32 -22 50.5t-50 18.5q-42 0 -66 -26t-24 -68q0 -33 21.5 -51t47.5 -18q44 0 68.5 27t24.5 67zM241 118q-41 0 -78 11.5t-65 36t-44.5 62.5t-16.5 91q0 59 23 112.5t66.5 94t106 64.5t142.5 24q49 0 100 -11.5t91.5 -41t66.5 -79.5t26 -127q0 -81 -39 -155 t-101.5 -141t-141.5 -126.5t-158 -111.5l-200 113q34 21 72 45.5t74.5 49.5t68 49t54.5 44l-1 2q-30 -6 -46 -6z" horiz-adv-x="700" glyph-name="nine.onum"/>
<glyph d="M119 282q0 5 2 16t4 19h-77l53 100h50q18 43 46.5 79.5t68 62.5t90.5 40.5t115 14.5q34 0 71.5 -5.5t67.5 -16.5l-70 -146q-21 9 -41 12.5t-40 3.5q-24 0 -50 -9.5t-40 -35.5h156l-48 -100h-146q-2 -8 -4 -18t-2 -17h140l-47 -100h-86q6 -20 27 -30t50 -10q55 0 104 28 l16 -157q-26 -14 -68.5 -23.5t-84.5 -9.5q-62 0 -108 15.5t-78 43t-50 64.5t-25 79h-91l50 100h45z" horiz-adv-x="640" glyph-name="Euro.sc"/>
<glyph d="M487 422q-11 15 -26.5 22t-31.5 7q-25 0 -38.5 -16t-16.5 -35l-3 -18h125l-25 -138h-122l-14 -77h211l-30 -167h-485l30 167h77l14 77h-77l24 138h75l7 37q17 89 78 142t167 53q60 0 101 -18.5t70 -45.5z" horiz-adv-x="640" glyph-name="sterling.sc"/>
<glyph d="M480 367h82l-18 -99h-138l-10 -59h138l-18 -99h-139l-19 -110h-207l19 110h-136l18 99h137l9 59h-136l18 99h92l-105 227h212l53 -165l113 165h223z" horiz-adv-x="640" glyph-name="yen.sc"/>
<glyph d="M230 -39l-81 57l461 609l81 -58zM1056 153q0 19 -12 34.5t-37 15.5t-40.5 -18.5t-15.5 -40.5q0 -19 12.5 -33t34.5 -14q25 0 41.5 16.5t16.5 39.5zM989 -14q-33 0 -62 10t-50.5 28.5t-34 45t-12.5 59.5q0 39 13.5 72t38 58t58.5 39t76 14q34 0 63 -10t51 -29t34.5 -45.5 t12.5 -59.5q0 -39 -14 -72.5t-39 -58t-59.5 -38t-75.5 -13.5zM679 153q0 19 -12 34.5t-37 15.5t-40.5 -18.5t-15.5 -40.5q0 -19 12.5 -33t34.5 -14q25 0 41.5 16.5t16.5 39.5zM612 -14q-33 0 -62 10t-50.5 28.5t-34 45t-12.5 59.5q0 39 13.5 72t38 58t58.5 39t76 14 q34 0 63 -10t51 -29t34.5 -45.5t12.5 -59.5q0 -39 -14 -72.5t-39 -58t-59.5 -38t-75.5 -13.5zM273 450q0 19 -12 34.5t-37 15.5t-40.5 -18.5t-15.5 -40.5q0 -19 12.5 -33t34.5 -14q25 0 41.5 16.5t16.5 39.5zM206 283q-33 0 -62 10t-50.5 28.5t-34 45t-12.5 59.5 q0 39 13.5 72t38 58t58.5 39t76 14q34 0 63 -10t51 -29t34.5 -45.5t12.5 -59.5q0 -38 -14 -71t-39 -58t-59.5 -39t-75.5 -14z" horiz-adv-x="1200" glyph-name="perthousand.sc"/>
<glyph d="M253 -13q-54 0 -84 29t-30 70q0 27 9.5 51t26.5 42t41 28t54 10q52 0 82.5 -29t30.5 -70q0 -28 -9.5 -52t-26.5 -41.5t-41 -27.5t-53 -10zM436 304q-33 -16 -44.5 -26t-13.5 -19l-2 -11h-205l4 28q5 35 22.5 58.5t47.5 38.5l22 11q23 11 32.5 20.5t9.5 21.5q0 10 -5.5 17 t-17.5 7q-29 0 -40 -41l-200 33q10 35 32 66.5t55.5 55t77.5 37t99 13.5q59 0 102.5 -12.5t72 -33.5t42.5 -50t14 -62q0 -50 -23 -87t-82 -65z" horiz-adv-x="550" glyph-name="question.sc"/>
<glyph d="M231 607q54 0 84 -29.5t30 -70.5q0 -27 -9.5 -51t-26.5 -42t-41 -28.5t-54 -10.5q-52 0 -82.5 29.5t-30.5 70.5q0 28 9.5 52t26.5 42t41 28t53 10zM322 338l-60 -338h-231l60 338h231z" horiz-adv-x="420" glyph-name="exclamdown.sc"/>
<glyph d="M378 405l-90 -165h108zM417 0l-10 85h-186l-46 -85h-253l366 594h257l104 -594h-232z" horiz-adv-x="711" glyph-name="a.sc"/>
<glyph d="M275 361h50q24 0 41 9.5t17 30.5q0 22 -14.5 29.5t-33.5 7.5h-46zM239 155h55q33 0 48 14t15 37q0 14 -11 24.5t-36 10.5h-55zM400 594q90 0 140 -35.5t50 -104.5q0 -54 -25.5 -91t-84.5 -51v-3q51 -14 70.5 -45.5t19.5 -73.5q0 -47 -20 -82.5t-56 -59.5t-86 -36 t-110 -12h-298l105 594h295z" horiz-adv-x="630" glyph-name="b.sc"/>
<glyph d="M473 378q-8 12 -29.5 23.5t-53.5 11.5q-30 0 -55 -11t-42.5 -29.5t-27 -43t-9.5 -52.5q0 -18 6 -35t19 -30t32.5 -21t45.5 -8q30 0 55.5 11.5t39.5 25.5l94 -164q-46 -36 -103 -56t-132 -20q-66 0 -120 19t-92.5 54t-59.5 84.5t-21 110.5q0 73 26.5 139.5t75 117t116 80 t149.5 29.5q68 0 128.5 -20t93.5 -60z" horiz-adv-x="577" glyph-name="c.sc"/>
<glyph d="M255 179h43q32 0 56.5 11.5t41 30.5t25 44.5t8.5 53.5q0 46 -22 72t-72 26h-38zM105 594h257q58 0 112 -14t95.5 -45t66.5 -79t25 -117q0 -78 -27 -140.5t-75 -107t-115.5 -68t-148.5 -23.5h-295z" horiz-adv-x="688" glyph-name="d.sc"/>
<glyph d="M0 0l105 594h426l-30 -166h-209l-9 -52h197l-28 -155h-197l-9 -54h231l-30 -167h-447z" horiz-adv-x="541" glyph-name="e.sc"/>
<glyph d="M299 428l-12 -66h187l-28 -162h-186l-36 -200h-224l105 594h422l-29 -166h-199z" horiz-adv-x="511" glyph-name="f.sc"/>
<glyph d="M342 353h288l-55 -311q-48 -27 -111.5 -44.5t-128.5 -17.5q-68 0 -125.5 18t-99.5 52t-66 84t-24 115q0 78 28.5 145t78 115.5t117 76.5t145.5 28q86 0 146 -20.5t92 -55.5l-150 -156q-26 37 -89 37q-24 0 -47.5 -9.5t-42 -28t-30.5 -46t-12 -62.5q0 -45 25.5 -71.5 t72.5 -26.5q9 0 21 1.5t20 4.5l7 36h-85z" horiz-adv-x="670" glyph-name="g.sc"/>
<glyph d="M349 0l39 222h-121l-39 -222h-228l105 594h227l-36 -202h120l37 202h229l-104 -594h-229z" horiz-adv-x="700" glyph-name="h.sc"/>
<glyph d="M0 0l105 594h231l-105 -594h-231z" horiz-adv-x="354" glyph-name="i.sc"/>
<glyph d="M196 -20q-54 0 -95 13t-70 35t-46.5 51.5t-24.5 62.5l198 69q2 -15 10 -24.5t22 -9.5q15 0 22.5 12.5t10.5 29.5l65 375h231l-67 -377q-7 -41 -22 -83.5t-44 -76.5t-75 -55.5t-115 -21.5z" horiz-adv-x="531" glyph-name="j.sc"/>
<glyph d="M266 234h-1l-41 -234h-224l105 594h223l-38 -216h2l153 216h273l-251 -290l155 -304h-263z" horiz-adv-x="666" glyph-name="k.sc"/>
<glyph d="M0 0l105 594h231l-73 -417h196l-32 -177h-427z" horiz-adv-x="498" glyph-name="l.sc"/>
<glyph d="M529 0l53 282h-4l-130 -282h-153l-35 282h-4l-43 -282h-213l105 594h279l39 -312h4l139 312h290l-104 -594h-223z" horiz-adv-x="874" glyph-name="m.sc"/>
<glyph d="M359 0l-97 256h-3l-40 -256h-219l105 594h224l95 -270h4l41 270h217l-105 -594h-222z" horiz-adv-x="704" glyph-name="n.sc"/>
<glyph d="M321 -20q-73 0 -129 20t-94.5 56.5t-58 87t-19.5 111.5q0 75 26.5 140.5t74.5 114t116 76.5t151 28q73 0 129.5 -20t94.5 -56t57.5 -86.5t19.5 -110.5q0 -75 -26 -141t-74 -115t-116 -77t-152 -28zM458 318q0 39 -23 67t-69 28q-27 0 -48.5 -10.5t-36 -29t-22.5 -43 t-8 -52.5q0 -40 24 -67.5t67 -27.5q28 0 50 10.5t36.5 29t22 43t7.5 52.5z" horiz-adv-x="716" glyph-name="o.sc"/>
<glyph d="M314 334q32 0 49 15.5t17 41.5t-15.5 36.5t-39.5 10.5h-21l-18 -104h28zM228 0h-228l104 594h249q123 0 183.5 -52t60.5 -138q0 -60 -20.5 -102.5t-58 -70t-90.5 -40.5t-119 -13h-49z" horiz-adv-x="611" glyph-name="p.sc"/>
<glyph d="M458 318q0 39 -23 67t-69 28q-27 0 -48.5 -10.5t-36 -29t-22.5 -43t-8 -52.5q0 -40 24 -67.5t67 -27.5q28 0 50 10.5t36.5 29t22 43t7.5 52.5zM20 255q0 75 26.5 140.5t74.5 114t116 76.5t151 28q73 0 129 -20t94 -56t57 -86.5t19 -110.5q0 -26 -6.5 -53t-17.5 -51.5 t-24.5 -44t-28.5 -29.5l-1 -3l99 7l-29 -167h-362q-70 0 -125 17.5t-93.5 50.5t-58.5 80.5t-20 106.5z" horiz-adv-x="716" glyph-name="q.sc"/>
<glyph d="M283 343h42q29 0 46.5 15.5t17.5 35.5t-10.5 32t-32.5 12h-47zM351 0l-70 195h-27l-33 -195h-221l105 594h279q114 0 173.5 -44.5t59.5 -129.5q0 -70 -34 -116.5t-89 -66.5l113 -237h-256z" horiz-adv-x="649" glyph-name="r.sc"/>
<glyph d="M88 215q28 -29 63.5 -44.5t67.5 -15.5q44 0 44 27q0 14 -16.5 23t-42.5 17q-38 11 -67 25.5t-49.5 35t-31 47.5t-10.5 63q0 56 24.5 97.5t63.5 69t88 41t98 13.5q66 0 128.5 -19.5t101.5 -55.5l-124 -149q-18 20 -48 34t-62 14q-23 0 -36 -6.5t-13 -20.5q0 -11 9 -17 t38 -14q40 -11 73 -25.5t56 -36.5t36 -51.5t13 -68.5q0 -60 -26 -101.5t-66.5 -67.5t-89.5 -37.5t-95 -11.5q-31 0 -64 4.5t-66 14t-64 25t-56 37.5z" horiz-adv-x="550" glyph-name="s.sc"/>
<glyph d="M389 418l-74 -418h-229l74 418h-136l31 176h496l-30 -176h-132z" horiz-adv-x="524" glyph-name="t.sc"/>
<glyph d="M597 214q-9 -53 -32 -96t-61 -74t-91 -47.5t-122 -16.5q-57 0 -106 13t-84 37t-55 59t-20 80q0 12 1.5 28.5t3.5 28.5l63 368h226l-61 -349q-1 -6 -1.5 -13.5t-0.5 -12.5q0 -21 12 -33.5t38 -12.5q17 0 28.5 6.5t19.5 17t12.5 24t7.5 27.5l63 346h224z" horiz-adv-x="674" glyph-name="u.sc"/>
<glyph d="M366 0h-249l-86 594h245l19 -333h4l156 333h254z" horiz-adv-x="634" glyph-name="v.sc"/>
<glyph d="M715 0h-227l-24 310h-2l-144 -310h-225l-65 594h234l11 -315h4l127 315h217l18 -315h3l123 315h239z" horiz-adv-x="947" glyph-name="w.sc"/>
<glyph d="M370 0l-58 143l-114 -143h-282l281 312l-146 282h259l55 -123l95 123h269l-252 -287l153 -307h-260z" horiz-adv-x="679" glyph-name="x.sc"/>
<glyph d="M352 0h-231l37 208l-137 386h244l42 -198l119 198h257l-294 -386z" horiz-adv-x="602" glyph-name="y.sc"/>
<glyph d="M-24 0l30 165l261 253h-205l31 176h498l-27 -153l-271 -264h237l-33 -177h-521z" horiz-adv-x="599" glyph-name="z.sc"/>
<glyph d="M463 654h-165l135 144h208zM378 405l-90 -165h108zM417 0l-10 85h-186l-46 -85h-253l366 594h257l104 -594h-232z" horiz-adv-x="711" glyph-name="aacute.sc"/>
<glyph d="M487 654l-55 69l-79 -69h-150l161 144h167l108 -144h-152zM378 405l-90 -165h108zM417 0l-10 85h-186l-46 -85h-253l366 594h257l104 -594h-232z" horiz-adv-x="711" glyph-name="acircumflex.sc"/>
<glyph d="M556 653q-43 0 -68 25t-25 57q0 22 7.5 41.5t22 34.5t34 23.5t43.5 8.5q20 0 37 -7t29 -18t19 -26t7 -31q0 -22 -7.5 -41.5t-21.5 -34.5t-33.5 -23.5t-43.5 -8.5zM305 653q-43 0 -68 25t-25 57q0 22 7.5 41.5t22 34.5t34 23.5t43.5 8.5q20 0 37 -7t29 -18t19 -26t7 -31 q0 -22 -7.5 -41.5t-21.5 -34.5t-33.5 -23.5t-43.5 -8.5zM378 405l-90 -165h108zM417 0l-10 85h-186l-46 -85h-253l366 594h257l104 -594h-232z" horiz-adv-x="711" glyph-name="adieresis.sc"/>
<glyph d="M499 762q0 22 -14 37t-39 15q-31 0 -51 -24t-20 -57q0 -23 14 -37.5t38 -14.5q32 0 52 24t20 57zM423 635q-44 0 -71.5 25.5t-27.5 66.5q0 27 9.5 51t26 42t40 28.5t50.5 10.5q45 0 72.5 -25t27.5 -67q0 -27 -9.5 -51t-26.5 -42t-40 -28.5t-51 -10.5zM378 405l-90 -165 h108zM417 0l-10 85h-186l-46 -85h-253l366 594h257l104 -594h-232z" horiz-adv-x="711" glyph-name="aring.sc"/>
<glyph d="M247 681l16 95h358l-16 -95h-358zM378 405l-90 -165h108zM417 0l-10 85h-186l-46 -85h-253l366 594h257l104 -594h-232z" horiz-adv-x="711" glyph-name="amacron.sc"/>
<glyph d="M353 250h93l32 178h-10zM402 0l17 95h-152l-61 -95h-247l405 594h569l-30 -166h-209l-9 -52h197l-28 -155h-197l-9 -54h231l-30 -167h-447z" horiz-adv-x="943" glyph-name="ae.sc"/>
<glyph d="M405 798l126 -144h-165l-169 144h208zM378 405l-90 -165h108zM417 0l-10 85h-186l-46 -85h-253l366 594h257l104 -594h-232z" horiz-adv-x="711" glyph-name="agrave.sc"/>
<glyph d="M631 791q-7 -29 -20 -54.5t-31 -44.5t-40 -29.5t-48 -10.5q-21 0 -39.5 6t-37.5 17q-22 13 -33 17.5t-26 4.5q-16 0 -27.5 -10.5t-16.5 -25.5h-79q7 28 19.5 52.5t30 43t39.5 29t48 10.5q23 0 40.5 -6.5t37.5 -17.5q22 -11 34 -16t28 -5t25.5 10t17.5 30h78zM378 405 l-90 -165h108zM417 0l-10 85h-186l-46 -85h-253l366 594h257l104 -594h-232z" horiz-adv-x="711" glyph-name="atilde.sc"/>
<glyph d="M378 405l-90 -165h108zM526 -197q-30 -20 -65.5 -31.5t-73.5 -11.5q-20 0 -40 3.5t-35.5 13.5t-25 26.5t-9.5 43.5q0 25 13.5 47t34 41t45 35.5t47.5 29.5l-10 85h-186l-46 -85h-253l366 594h257l104 -594h-100q-69 -44 -100.5 -70.5t-31.5 -46.5q0 -8 6.5 -12.5 t14.5 -4.5q27 0 60 18z" horiz-adv-x="711" glyph-name="aogonek.sc"/>
<glyph d="M611 798q-8 -42 -27.5 -70t-45.5 -44.5t-57 -23t-63 -6.5q-33 0 -62.5 6.5t-52.5 23t-36.5 44.5t-13.5 70h107q0 -24 20.5 -32.5t41.5 -8.5q13 0 27 2t25.5 6.5t19.5 12.5t10 20h107zM378 405l-90 -165h108zM417 0l-10 85h-186l-46 -85h-253l366 594h257l104 -594h-232z " horiz-adv-x="711" glyph-name="abreve.sc"/>
<glyph d="M439 654h-165l135 144h208zM473 378q-8 12 -29.5 23.5t-53.5 11.5q-30 0 -55 -11t-42.5 -29.5t-27 -43t-9.5 -52.5q0 -18 6 -35t19 -30t32.5 -21t45.5 -8q30 0 55.5 11.5t39.5 25.5l94 -164q-46 -36 -103 -56t-132 -20q-66 0 -120 19t-92.5 54t-59.5 84.5t-21 110.5 q0 73 26.5 139.5t75 117t116 80t149.5 29.5q68 0 128.5 -20t93.5 -60z" horiz-adv-x="577" glyph-name="cacute.sc"/>
<glyph d="M480 654h-167l-111 144h150l55 -70l79 70h152zM473 378q-8 12 -29.5 23.5t-53.5 11.5q-30 0 -55 -11t-42.5 -29.5t-27 -43t-9.5 -52.5q0 -18 6 -35t19 -30t32.5 -21t45.5 -8q30 0 55.5 11.5t39.5 25.5l94 -164q-46 -36 -103 -56t-132 -20q-66 0 -120 19t-92.5 54 t-59.5 84.5t-21 110.5q0 73 26.5 139.5t75 117t116 80t149.5 29.5q68 0 128.5 -20t93.5 -60z" horiz-adv-x="577" glyph-name="ccaron.sc"/>
<glyph d="M403 646q-46 0 -73 26.5t-27 61.5q0 24 8 45t23 37t36 25t47 9q45 0 72 -26.5t27 -61.5q0 -24 -8 -45t-23 -37t-36 -25t-46 -9zM473 378q-8 12 -29.5 23.5t-53.5 11.5q-30 0 -55 -11t-42.5 -29.5t-27 -43t-9.5 -52.5q0 -18 6 -35t19 -30t32.5 -21t45.5 -8q30 0 55.5 11.5 t39.5 25.5l94 -164q-46 -36 -103 -56t-132 -20q-66 0 -120 19t-92.5 54t-59.5 84.5t-21 110.5q0 73 26.5 139.5t75 117t116 80t149.5 29.5q68 0 128.5 -20t93.5 -60z" horiz-adv-x="577" glyph-name="cdotaccent.sc"/>
<glyph d="M403 -131q0 -30 -14.5 -51t-37.5 -34t-52.5 -18.5t-59.5 -5.5q-16 0 -34.5 2t-37 5t-35.5 7t-29 9l41 76q17 -8 41.5 -12t43.5 -4q15 0 27 4.5t12 17.5q0 11 -10 15t-24 4q-10 0 -21.5 -1.5t-21.5 -4.5l-36 34l78 76q-49 10 -88.5 33t-67 56.5t-42.5 76.5t-15 94 q0 73 26.5 139.5t75 117t116 80t149.5 29.5q68 0 128.5 -20t93.5 -60l-136 -156q-8 12 -29.5 23.5t-53.5 11.5q-30 0 -55 -11t-42.5 -29.5t-27 -43t-9.5 -52.5q0 -18 6 -35t19 -30t32.5 -21t45.5 -8q30 0 55.5 11.5t39.5 25.5l94 -164q-42 -33 -93.5 -52.5t-117.5 -22.5 l-38 -35q5 1 8.5 1h8.5q11 0 26 -3.5t28.5 -12t23 -23.5t9.5 -39z" horiz-adv-x="577" glyph-name="ccedilla.sc"/>
<glyph d="M468 654l-55 69l-79 -69h-150l161 144h167l108 -144h-152zM473 378q-8 12 -29.5 23.5t-53.5 11.5q-30 0 -55 -11t-42.5 -29.5t-27 -43t-9.5 -52.5q0 -18 6 -35t19 -30t32.5 -21t45.5 -8q30 0 55.5 11.5t39.5 25.5l94 -164q-46 -36 -103 -56t-132 -20q-66 0 -120 19 t-92.5 54t-59.5 84.5t-21 110.5q0 73 26.5 139.5t75 117t116 80t149.5 29.5q68 0 128.5 -20t93.5 -60z" horiz-adv-x="577" glyph-name="ccircumflex.sc"/>
<glyph d="M450 654h-167l-111 144h150l55 -70l79 70h152zM255 179h43q32 0 56.5 11.5t41 30.5t25 44.5t8.5 53.5q0 46 -22 72t-72 26h-38zM105 594h257q58 0 112 -14t95.5 -45t66.5 -79t25 -117q0 -78 -27 -140.5t-75 -107t-115.5 -68t-148.5 -23.5h-295z" horiz-adv-x="688" glyph-name="dcaron.sc"/>
<glyph d="M288 369h71l-24 -138h-71l-9 -52h40q32 0 57 11.5t42 30.5t26 44.5t9 53.5q0 46 -22.5 72t-72.5 26h-37zM41 231h-46l24 138h46l40 225h257q58 0 112 -14t95.5 -45t66.5 -79t25 -117q0 -78 -27 -140.5t-75 -107t-115.5 -68t-148.5 -23.5h-295z" horiz-adv-x="688" glyph-name="dcroat.sc"/>
<glyph d="M300 798l126 -144h-165l-169 144h208zM0 0l105 594h426l-30 -166h-209l-9 -52h197l-28 -155h-197l-9 -54h231l-30 -167h-447z" horiz-adv-x="541" glyph-name="egrave.sc"/>
<glyph d="M387 654l-55 69l-79 -69h-150l161 144h167l108 -144h-152zM0 0l105 594h426l-30 -166h-209l-9 -52h197l-28 -155h-197l-9 -54h231l-30 -167h-447z" horiz-adv-x="541" glyph-name="ecircumflex.sc"/>
<glyph d="M406 654h-167l-111 144h150l55 -70l79 70h152zM0 0l105 594h426l-30 -166h-209l-9 -52h197l-28 -155h-197l-9 -54h231l-30 -167h-447z" horiz-adv-x="541" glyph-name="ecaron.sc"/>
<glyph d="M453 653q-43 0 -68 25t-25 57q0 22 7.5 41.5t22 34.5t34 23.5t43.5 8.5q20 0 37 -7t29 -18t19 -26t7 -31q0 -22 -7.5 -41.5t-21.5 -34.5t-33.5 -23.5t-43.5 -8.5zM202 653q-43 0 -68 25t-25 57q0 22 7.5 41.5t22 34.5t34 23.5t43.5 8.5q20 0 37 -7t29 -18t19 -26t7 -31 q0 -22 -7.5 -41.5t-21.5 -34.5t-33.5 -23.5t-43.5 -8.5zM0 0l105 594h426l-30 -166h-209l-9 -52h197l-28 -155h-197l-9 -54h231l-30 -167h-447z" horiz-adv-x="541" glyph-name="edieresis.sc"/>
<glyph d="M514 798q-8 -42 -27.5 -70t-45.5 -44.5t-57 -23t-63 -6.5q-33 0 -62.5 6.5t-52.5 23t-36.5 44.5t-13.5 70h107q0 -24 20.5 -32.5t41.5 -8.5q13 0 27 2t25.5 6.5t19.5 12.5t10 20h107zM0 0l105 594h426l-30 -166h-209l-9 -52h197l-28 -155h-197l-9 -54h231l-30 -167h-447z " horiz-adv-x="541" glyph-name="ebreve.sc"/>
<glyph d="M402 -197q-30 -20 -65.5 -31.5t-73.5 -11.5q-20 0 -40 3.5t-35.5 13.5t-25 26.5t-9.5 43.5q0 25 13.5 47t34 41t45 35.5t47.5 29.5h-293l105 594h426l-30 -166h-209l-9 -52h197l-28 -155h-197l-9 -54h231l-30 -167h-22q-69 -44 -100.5 -70.5t-31.5 -46.5q0 -8 6.5 -12.5 t14.5 -4.5q27 0 60 18z" horiz-adv-x="541" glyph-name="eogonek.sc"/>
<glyph d="M148 681l16 95h358l-16 -95h-358zM0 0l105 594h426l-30 -166h-209l-9 -52h197l-28 -155h-197l-9 -54h231l-30 -167h-447z" horiz-adv-x="541" glyph-name="emacron.sc"/>
<glyph d="M367 654h-165l135 144h208zM0 0l105 594h426l-30 -166h-209l-9 -52h197l-28 -155h-197l-9 -54h231l-30 -167h-447z" horiz-adv-x="541" glyph-name="eacute.sc"/>
<glyph d="M331 646q-46 0 -73 26.5t-27 61.5q0 24 8 45t23 37t36 25t47 9q45 0 72 -26.5t27 -61.5q0 -24 -8 -45t-23 -37t-36 -25t-46 -9zM0 0l105 594h426l-30 -166h-209l-9 -52h197l-28 -155h-197l-9 -54h231l-30 -167h-447z" horiz-adv-x="541" glyph-name="edotaccent.sc"/>
<glyph d="M408 646q-46 0 -73 26.5t-27 61.5q0 24 8 45t23 37t36 25t47 9q45 0 72 -26.5t27 -61.5q0 -24 -8 -45t-23 -37t-36 -25t-46 -9zM342 353h288l-55 -311q-48 -27 -111.5 -44.5t-128.5 -17.5q-68 0 -125.5 18t-99.5 52t-66 84t-24 115q0 78 28.5 145t78 115.5t117 76.5 t145.5 28q86 0 146 -20.5t92 -55.5l-150 -156q-26 37 -89 37q-24 0 -47.5 -9.5t-42 -28t-30.5 -46t-12 -62.5q0 -45 25.5 -71.5t72.5 -26.5q9 0 21 1.5t20 4.5l7 36h-85z" horiz-adv-x="670" glyph-name="gdotaccent.sc"/>
<glyph d="M596 798q-8 -42 -27.5 -70t-45.5 -44.5t-57 -23t-63 -6.5q-33 0 -62.5 6.5t-52.5 23t-36.5 44.5t-13.5 70h107q0 -24 20.5 -32.5t41.5 -8.5q13 0 27 2t25.5 6.5t19.5 12.5t10 20h107zM342 353h288l-55 -311q-48 -27 -111.5 -44.5t-128.5 -17.5q-68 0 -125.5 18t-99.5 52 t-66 84t-24 115q0 78 28.5 145t78 115.5t117 76.5t145.5 28q86 0 146 -20.5t92 -55.5l-150 -156q-26 37 -89 37q-24 0 -47.5 -9.5t-42 -28t-30.5 -46t-12 -62.5q0 -45 25.5 -71.5t72.5 -26.5q9 0 21 1.5t20 4.5l7 36h-85z" horiz-adv-x="670" glyph-name="gbreve.sc"/>
<glyph d="M266 -240h-161l113 195h185zM342 353h288l-55 -311q-48 -27 -111.5 -44.5t-128.5 -17.5q-68 0 -125.5 18t-99.5 52t-66 84t-24 115q0 78 28.5 145t78 115.5t117 76.5t145.5 28q86 0 146 -20.5t92 -55.5l-150 -156q-26 37 -89 37q-24 0 -47.5 -9.5t-42 -28t-30.5 -46 t-12 -62.5q0 -45 25.5 -71.5t72.5 -26.5q9 0 21 1.5t20 4.5l7 36h-85z" horiz-adv-x="670" glyph-name="gcommaaccent.sc"/>
<glyph d="M479 654l-55 69l-79 -69h-150l161 144h167l108 -144h-152zM342 353h288l-55 -311q-48 -27 -111.5 -44.5t-128.5 -17.5q-68 0 -125.5 18t-99.5 52t-66 84t-24 115q0 78 28.5 145t78 115.5t117 76.5t145.5 28q86 0 146 -20.5t92 -55.5l-150 -156q-26 37 -89 37 q-24 0 -47.5 -9.5t-42 -28t-30.5 -46t-12 -62.5q0 -45 25.5 -71.5t72.5 -26.5q9 0 21 1.5t20 4.5l7 36h-85z" horiz-adv-x="670" glyph-name="gcircumflex.sc"/>
<glyph d="M413 373l11 62h-120l-11 -62h120zM349 0l35 202h-121l-35 -202h-228l105 594h227l-12 -69h120l13 69h229l-104 -594h-229z" horiz-adv-x="700" glyph-name="hbar.sc"/>
<glyph d="M480 654l-55 69l-79 -69h-150l161 144h167l108 -144h-152zM349 0l39 222h-121l-39 -222h-228l105 594h227l-36 -202h120l37 202h229l-104 -594h-229z" horiz-adv-x="700" glyph-name="hcircumflex.sc"/>
<glyph d="M208 -197q-30 -20 -65.5 -31.5t-73.5 -11.5q-20 0 -40 3.5t-35.5 13.5t-25 26.5t-9.5 43.5q0 25 13.5 47t34 41t45 35.5t47.5 29.5h-99l105 594h231l-105 -594q-69 -44 -100.5 -70.5t-31.5 -46.5q0 -8 6.5 -12.5t14.5 -4.5q27 0 60 18z" horiz-adv-x="354" glyph-name="iogonek.sc"/>
<glyph d="M283 654h-165l135 144h208zM0 0l105 594h231l-105 -594h-231z" horiz-adv-x="354" glyph-name="iacute.sc"/>
<glyph d="M439 791q-7 -29 -20 -54.5t-31 -44.5t-40 -29.5t-48 -10.5q-21 0 -39.5 6t-37.5 17q-22 13 -33 17.5t-26 4.5q-16 0 -27.5 -10.5t-16.5 -25.5h-79q7 28 19.5 52.5t30 43t39.5 29t48 10.5q23 0 40.5 -6.5t37.5 -17.5q22 -11 34 -16t28 -5t25.5 10t17.5 30h78zM0 0l105 594 h231l-105 -594h-231z" horiz-adv-x="354" glyph-name="itilde.sc"/>
<glyph d="M224 646q-46 0 -73 26.5t-27 61.5q0 24 8 45t23 37t36 25t47 9q45 0 72 -26.5t27 -61.5q0 -24 -8 -45t-23 -37t-36 -25t-46 -9zM0 0l105 594h231l-105 -594h-231z" horiz-adv-x="354" glyph-name="idotaccent.sc"/>
<glyph d="M302 654l-55 69l-79 -69h-150l161 144h167l108 -144h-152zM0 0l105 594h231l-105 -594h-231z" horiz-adv-x="354" glyph-name="icircumflex.sc"/>
<glyph d="M361 653q-43 0 -68 25t-25 57q0 22 7.5 41.5t22 34.5t34 23.5t43.5 8.5q20 0 37 -7t29 -18t19 -26t7 -31q0 -22 -7.5 -41.5t-21.5 -34.5t-33.5 -23.5t-43.5 -8.5zM110 653q-43 0 -68 25t-25 57q0 22 7.5 41.5t22 34.5t34 23.5t43.5 8.5q20 0 37 -7t29 -18t19 -26t7 -31 q0 -22 -7.5 -41.5t-21.5 -34.5t-33.5 -23.5t-43.5 -8.5zM0 0l105 594h231l-105 -594h-231z" horiz-adv-x="354" glyph-name="idieresis.sc"/>
<glyph d="M54 681l16 95h358l-16 -95h-358zM0 0l105 594h231l-105 -594h-231z" horiz-adv-x="354" glyph-name="imacron.sc"/>
<glyph d="M212 798l126 -144h-165l-169 144h208zM0 0l105 594h231l-105 -594h-231z" horiz-adv-x="354" glyph-name="igrave.sc"/>
<glyph d="M482 654l-55 69l-79 -69h-150l161 144h167l108 -144h-152zM196 -20q-54 0 -95 13t-70 35t-46.5 51.5t-24.5 62.5l198 69q2 -15 10 -24.5t22 -9.5q15 0 22.5 12.5t10.5 29.5l65 375h231l-67 -377q-7 -41 -22 -83.5t-44 -76.5t-75 -55.5t-115 -21.5z" horiz-adv-x="531" glyph-name="jcircumflex.sc"/>
<glyph d="M243 -240h-161l113 195h185zM266 234h-1l-41 -234h-224l105 594h223l-38 -216h2l153 216h273l-251 -290l155 -304h-263z" horiz-adv-x="666" glyph-name="kcommaaccent.sc"/>
<glyph d="M0 0l24 137l-63 -43l33 190l63 43l48 267h231l-16 -89l109 74l-34 -189l-108 -74l-24 -139h196l-32 -177h-427z" horiz-adv-x="498" glyph-name="lslash.sc"/>
<glyph d="M309 654h-165l135 144h208zM0 0l105 594h231l-73 -417h196l-32 -177h-427z" horiz-adv-x="498" glyph-name="lacute.sc"/>
<glyph d="M497 412h-161l107 182h185zM0 0l105 594h231l-73 -417h196l-32 -177h-427z" horiz-adv-x="548" glyph-name="lcaron.sc"/>
<glyph d="M167 -240h-161l113 195h185zM0 0l105 594h231l-73 -417h196l-32 -177h-427z" horiz-adv-x="498" glyph-name="lcommaaccent.sc"/>
<glyph d="M433 246q-46 0 -73 26.5t-27 61.5q0 24 8 45t23 37t36 25t47 9q45 0 72 -26.5t27 -61.5q0 -24 -8 -45t-23 -37t-36 -25t-46 -9zM0 0l105 594h231l-73 -417h196l-32 -177h-427z" horiz-adv-x="530" glyph-name="ldot.sc"/>
<glyph d="M462 654h-165l135 144h208zM359 0l-97 256h-3l-40 -256h-219l105 594h224l95 -270h4l41 270h217l-105 -594h-222z" horiz-adv-x="704" glyph-name="nacute.sc"/>
<glyph d="M243 -240h-161l113 195h185zM359 0l-97 256h-3l-40 -256h-219l105 594h224l95 -270h4l41 270h217l-105 -594h-222z" horiz-adv-x="704" glyph-name="ncommaaccent.sc"/>
<glyph d="M485 654h-167l-111 144h150l55 -70l79 70h152zM359 0l-97 256h-3l-40 -256h-219l105 594h224l95 -270h4l41 270h217l-105 -594h-222z" horiz-adv-x="704" glyph-name="ncaron.sc"/>
<glyph d="M617 791q-7 -29 -20 -54.5t-31 -44.5t-40 -29.5t-48 -10.5q-21 0 -39.5 6t-37.5 17q-22 13 -33 17.5t-26 4.5q-16 0 -27.5 -10.5t-16.5 -25.5h-79q7 28 19.5 52.5t30 43t39.5 29t48 10.5q23 0 40.5 -6.5t37.5 -17.5q22 -11 34 -16t28 -5t25.5 10t17.5 30h78zM359 0 l-97 256h-3l-40 -256h-219l105 594h224l95 -270h4l41 270h217l-105 -594h-222z" horiz-adv-x="704" glyph-name="ntilde.sc"/>
<glyph d="M378 798l126 -144h-165l-169 144h208zM321 -20q-73 0 -129 20t-94.5 56.5t-58 87t-19.5 111.5q0 75 26.5 140.5t74.5 114t116 76.5t151 28q73 0 129.5 -20t94.5 -56t57.5 -86.5t19.5 -110.5q0 -75 -26 -141t-74 -115t-116 -77t-152 -28zM458 318q0 39 -23 67t-69 28 q-27 0 -48.5 -10.5t-36 -29t-22.5 -43t-8 -52.5q0 -40 24 -67.5t67 -27.5q28 0 50 10.5t36.5 29t22 43t7.5 52.5z" horiz-adv-x="716" glyph-name="ograve.sc"/>
<glyph d="M430 654h-165l135 144h208zM321 -20q-73 0 -129 20t-94.5 56.5t-58 87t-19.5 111.5q0 75 26.5 140.5t74.5 114t116 76.5t151 28q73 0 129.5 -20t94.5 -56t57.5 -86.5t19.5 -110.5q0 -75 -26 -141t-74 -115t-116 -77t-152 -28zM458 318q0 39 -23 67t-69 28 q-27 0 -48.5 -10.5t-36 -29t-22.5 -43t-8 -52.5q0 -40 24 -67.5t67 -27.5q28 0 50 10.5t36.5 29t22 43t7.5 52.5z" horiz-adv-x="716" glyph-name="oacute.sc"/>
<glyph d="M481 654l-55 69l-79 -69h-150l161 144h167l108 -144h-152zM321 -20q-73 0 -129 20t-94.5 56.5t-58 87t-19.5 111.5q0 75 26.5 140.5t74.5 114t116 76.5t151 28q73 0 129.5 -20t94.5 -56t57.5 -86.5t19.5 -110.5q0 -75 -26 -141t-74 -115t-116 -77t-152 -28zM458 318 q0 39 -23 67t-69 28q-27 0 -48.5 -10.5t-36 -29t-22.5 -43t-8 -52.5q0 -40 24 -67.5t67 -27.5q28 0 50 10.5t36.5 29t22 43t7.5 52.5z" horiz-adv-x="716" glyph-name="ocircumflex.sc"/>
<glyph d="M238 681l16 95h358l-16 -95h-358zM321 -20q-73 0 -129 20t-94.5 56.5t-58 87t-19.5 111.5q0 75 26.5 140.5t74.5 114t116 76.5t151 28q73 0 129.5 -20t94.5 -56t57.5 -86.5t19.5 -110.5q0 -75 -26 -141t-74 -115t-116 -77t-152 -28zM458 318q0 39 -23 67t-69 28 q-27 0 -48.5 -10.5t-36 -29t-22.5 -43t-8 -52.5q0 -40 24 -67.5t67 -27.5q28 0 50 10.5t36.5 29t22 43t7.5 52.5z" horiz-adv-x="716" glyph-name="omacron.sc"/>
<glyph d="M607 798q-8 -42 -27.5 -70t-45.5 -44.5t-57 -23t-63 -6.5q-33 0 -62.5 6.5t-52.5 23t-36.5 44.5t-13.5 70h107q0 -24 20.5 -32.5t41.5 -8.5q13 0 27 2t25.5 6.5t19.5 12.5t10 20h107zM321 -20q-73 0 -129 20t-94.5 56.5t-58 87t-19.5 111.5q0 75 26.5 140.5t74.5 114 t116 76.5t151 28q73 0 129.5 -20t94.5 -56t57.5 -86.5t19.5 -110.5q0 -75 -26 -141t-74 -115t-116 -77t-152 -28zM458 318q0 39 -23 67t-69 28q-27 0 -48.5 -10.5t-36 -29t-22.5 -43t-8 -52.5q0 -40 24 -67.5t67 -27.5q28 0 50 10.5t36.5 29t22 43t7.5 52.5z" horiz-adv-x="716" glyph-name="obreve.sc"/>
<glyph d="M230 274v-12t1 -11l184 174q-21 8 -45 8q-32 0 -58 -12.5t-44 -34.5t-28 -50.5t-10 -61.5zM479 321q0 6 -0.5 12t-1.5 12l-184 -175q17 -8 44 -8q34 0 60.5 12.5t44.5 34t27.5 50.5t9.5 62zM321 -20q-54 0 -98.5 11.5t-79.5 31.5l-79 -75l-78 78l77 73q-43 66 -43 156 q0 75 26.5 140.5t74.5 114t116 76.5t151 28q53 0 96.5 -10.5t78.5 -30.5l79 74l78 -78l-75 -71q44 -65 44 -157q0 -75 -26 -141t-74 -115t-116 -77t-152 -28z" horiz-adv-x="716" glyph-name="oslash.sc"/>
<glyph d="M546 653q-43 0 -68 25t-25 57q0 22 7.5 41.5t22 34.5t34 23.5t43.5 8.5q20 0 37 -7t29 -18t19 -26t7 -31q0 -22 -7.5 -41.5t-21.5 -34.5t-33.5 -23.5t-43.5 -8.5zM295 653q-43 0 -68 25t-25 57q0 22 7.5 41.5t22 34.5t34 23.5t43.5 8.5q20 0 37 -7t29 -18t19 -26t7 -31 q0 -22 -7.5 -41.5t-21.5 -34.5t-33.5 -23.5t-43.5 -8.5zM321 -20q-73 0 -129 20t-94.5 56.5t-58 87t-19.5 111.5q0 75 26.5 140.5t74.5 114t116 76.5t151 28q73 0 129.5 -20t94.5 -56t57.5 -86.5t19.5 -110.5q0 -75 -26 -141t-74 -115t-116 -77t-152 -28zM458 318 q0 39 -23 67t-69 28q-27 0 -48.5 -10.5t-36 -29t-22.5 -43t-8 -52.5q0 -40 24 -67.5t67 -27.5q28 0 50 10.5t36.5 29t22 43t7.5 52.5z" horiz-adv-x="716" glyph-name="odieresis.sc"/>
<glyph d="M617 791q-7 -29 -20 -54.5t-31 -44.5t-40 -29.5t-48 -10.5q-21 0 -39.5 6t-37.5 17q-22 13 -33 17.5t-26 4.5q-16 0 -27.5 -10.5t-16.5 -25.5h-79q7 28 19.5 52.5t30 43t39.5 29t48 10.5q23 0 40.5 -6.5t37.5 -17.5q22 -11 34 -16t28 -5t25.5 10t17.5 30h78zM321 -20 q-73 0 -129 20t-94.5 56.5t-58 87t-19.5 111.5q0 75 26.5 140.5t74.5 114t116 76.5t151 28q73 0 129.5 -20t94.5 -56t57.5 -86.5t19.5 -110.5q0 -75 -26 -141t-74 -115t-116 -77t-152 -28zM458 318q0 39 -23 67t-69 28q-27 0 -48.5 -10.5t-36 -29t-22.5 -43t-8 -52.5 q0 -40 24 -67.5t67 -27.5q28 0 50 10.5t36.5 29t22 43t7.5 52.5z" horiz-adv-x="716" glyph-name="otilde.sc"/>
<glyph d="M363 654h-165l135 144h208zM603 654h-164l135 144h207zM321 -20q-73 0 -129 20t-94.5 56.5t-58 87t-19.5 111.5q0 75 26.5 140.5t74.5 114t116 76.5t151 28q73 0 129.5 -20t94.5 -56t57.5 -86.5t19.5 -110.5q0 -75 -26 -141t-74 -115t-116 -77t-152 -28zM458 318 q0 39 -23 67t-69 28q-27 0 -48.5 -10.5t-36 -29t-22.5 -43t-8 -52.5q0 -40 24 -67.5t67 -27.5q28 0 50 10.5t36.5 29t22 43t7.5 52.5z" horiz-adv-x="716" glyph-name="ohungarumlaut.sc"/>
<glyph d="M405 654h-165l135 144h208zM283 343h42q29 0 46.5 15.5t17.5 35.5t-10.5 32t-32.5 12h-47zM351 0l-70 195h-27l-33 -195h-221l105 594h279q114 0 173.5 -44.5t59.5 -129.5q0 -70 -34 -116.5t-89 -66.5l113 -237h-256z" horiz-adv-x="649" glyph-name="racute.sc"/>
<glyph d="M242 -240h-161l113 195h185zM283 343h42q29 0 46.5 15.5t17.5 35.5t-10.5 32t-32.5 12h-47zM351 0l-70 195h-27l-33 -195h-221l105 594h279q114 0 173.5 -44.5t59.5 -129.5q0 -70 -34 -116.5t-89 -66.5l113 -237h-256z" horiz-adv-x="649" glyph-name="rcommaaccent.sc"/>
<glyph d="M441 654h-167l-111 144h150l55 -70l79 70h152zM283 343h42q29 0 46.5 15.5t17.5 35.5t-10.5 32t-32.5 12h-47zM351 0l-70 195h-27l-33 -195h-221l105 594h279q114 0 173.5 -44.5t59.5 -129.5q0 -70 -34 -116.5t-89 -66.5l113 -237h-256z" horiz-adv-x="649" glyph-name="rcaron.sc"/>
<glyph d="M370 654h-165l135 144h208zM88 215q28 -29 63.5 -44.5t67.5 -15.5q44 0 44 27q0 14 -16.5 23t-42.5 17q-38 11 -67 25.5t-49.5 35t-31 47.5t-10.5 63q0 56 24.5 97.5t63.5 69t88 41t98 13.5q66 0 128.5 -19.5t101.5 -55.5l-124 -149q-18 20 -48 34t-62 14q-23 0 -36 -6.5 t-13 -20.5q0 -11 9 -17t38 -14q40 -11 73 -25.5t56 -36.5t36 -51.5t13 -68.5q0 -60 -26 -101.5t-66.5 -67.5t-89.5 -37.5t-95 -11.5q-31 0 -64 4.5t-66 14t-64 25t-56 37.5z" horiz-adv-x="550" glyph-name="sacute.sc"/>
<glyph d="M423 654h-167l-111 144h150l55 -70l79 70h152zM88 215q28 -29 63.5 -44.5t67.5 -15.5q44 0 44 27q0 14 -16.5 23t-42.5 17q-38 11 -67 25.5t-49.5 35t-31 47.5t-10.5 63q0 56 24.5 97.5t63.5 69t88 41t98 13.5q66 0 128.5 -19.5t101.5 -55.5l-124 -149q-18 20 -48 34 t-62 14q-23 0 -36 -6.5t-13 -20.5q0 -11 9 -17t38 -14q40 -11 73 -25.5t56 -36.5t36 -51.5t13 -68.5q0 -60 -26 -101.5t-66.5 -67.5t-89.5 -37.5t-95 -11.5q-31 0 -64 4.5t-66 14t-64 25t-56 37.5z" horiz-adv-x="550" glyph-name="scaron.sc"/>
<glyph d="M187 -240h-161l113 195h185zM88 215q28 -29 63.5 -44.5t67.5 -15.5q44 0 44 27q0 14 -16.5 23t-42.5 17q-38 11 -67 25.5t-49.5 35t-31 47.5t-10.5 63q0 56 24.5 97.5t63.5 69t88 41t98 13.5q66 0 128.5 -19.5t101.5 -55.5l-124 -149q-18 20 -48 34t-62 14 q-23 0 -36 -6.5t-13 -20.5q0 -11 9 -17t38 -14q40 -11 73 -25.5t56 -36.5t36 -51.5t13 -68.5q0 -60 -26 -101.5t-66.5 -67.5t-89.5 -37.5t-95 -11.5q-31 0 -64 4.5t-66 14t-64 25t-56 37.5z" horiz-adv-x="550" glyph-name="scommaaccent.sc"/>
<glyph d="M329 -131q0 -30 -14.5 -51t-37.5 -34t-52.5 -18.5t-59.5 -5.5q-16 0 -34.5 2t-37 5t-35.5 7t-29 9l41 76q17 -8 41.5 -12t43.5 -4q15 0 27 4.5t12 17.5q0 11 -10 15t-24 4q-10 0 -21.5 -1.5t-21.5 -4.5l-36 34l73 72q-51 7 -100.5 25t-88.5 52l123 154q28 -29 63.5 -44.5 t67.5 -15.5q44 0 44 27q0 14 -16.5 23t-42.5 17q-38 11 -67 25.5t-49.5 35t-31 47.5t-10.5 63q0 56 24.5 97.5t63.5 69t88 41t98 13.5q66 0 128.5 -19.5t101.5 -55.5l-124 -149q-18 20 -48 34t-62 14q-23 0 -36 -6.5t-13 -20.5q0 -11 9 -17t38 -14q40 -11 73 -25.5t56 -36.5 t36 -51.5t13 -68.5q0 -52 -20 -90t-52 -64t-72.5 -40.5t-81.5 -19.5l-41 -38q5 1 8.5 1h8.5q11 0 26 -3.5t28.5 -12t23 -23.5t9.5 -39z" horiz-adv-x="550" glyph-name="scedilla.sc"/>
<glyph d="M408 654l-55 69l-79 -69h-150l161 144h167l108 -144h-152zM88 215q28 -29 63.5 -44.5t67.5 -15.5q44 0 44 27q0 14 -16.5 23t-42.5 17q-38 11 -67 25.5t-49.5 35t-31 47.5t-10.5 63q0 56 24.5 97.5t63.5 69t88 41t98 13.5q66 0 128.5 -19.5t101.5 -55.5l-124 -149 q-18 20 -48 34t-62 14q-23 0 -36 -6.5t-13 -20.5q0 -11 9 -17t38 -14q40 -11 73 -25.5t56 -36.5t36 -51.5t13 -68.5q0 -60 -26 -101.5t-66.5 -67.5t-89.5 -37.5t-95 -11.5q-31 0 -64 4.5t-66 14t-64 25t-56 37.5z" horiz-adv-x="550" glyph-name="scircumflex.sc"/>
<glyph d="M638 215q28 -29 63.5 -44.5t67.5 -15.5q44 0 44 27q0 14 -16.5 23t-42.5 17q-38 11 -67 25.5t-49.5 35t-31 47.5t-10.5 63q0 56 24.5 97.5t63.5 69t88 41t98 13.5q66 0 128.5 -19.5t101.5 -55.5l-124 -149q-18 20 -48 34t-62 14q-23 0 -36 -6.5t-13 -20.5q0 -11 9 -17 t38 -14q40 -11 73 -25.5t56 -36.5t36 -51.5t13 -68.5q0 -60 -26 -101.5t-66.5 -67.5t-89.5 -37.5t-95 -11.5q-31 0 -64 4.5t-66 14t-64 25t-56 37.5zM88 215q28 -29 63.5 -44.5t67.5 -15.5q44 0 44 27q0 14 -16.5 23t-42.5 17q-38 11 -67 25.5t-49.5 35t-31 47.5t-10.5 63 q0 56 24.5 97.5t63.5 69t88 41t98 13.5q66 0 128.5 -19.5t101.5 -55.5l-124 -149q-18 20 -48 34t-62 14q-23 0 -36 -6.5t-13 -20.5q0 -11 9 -17t38 -14q40 -11 73 -25.5t56 -36.5t36 -51.5t13 -68.5q0 -60 -26 -101.5t-66.5 -67.5t-89.5 -37.5t-95 -11.5q-31 0 -64 4.5 t-66 14t-64 25t-56 37.5z" horiz-adv-x="1100" glyph-name="germandbls.sc"/>
<glyph d="M160 -240h-161l113 195h185zM389 418l-74 -418h-229l74 418h-136l31 176h496l-30 -176h-132z" horiz-adv-x="524" glyph-name="tcommaaccent.sc"/>
<glyph d="M390 654h-167l-111 144h150l55 -70l79 70h152zM389 418l-74 -418h-229l74 418h-136l31 176h496l-30 -176h-132z" horiz-adv-x="524" glyph-name="tcaron.sc"/>
<glyph d="M58 335h87l15 83h-136l31 176h496l-30 -176h-132l-15 -83h82l-17 -100h-83l-41 -235h-229l41 235h-86z" horiz-adv-x="524" glyph-name="tbar.sc"/>
<glyph d="M385 -197q-30 -20 -65.5 -31.5t-73.5 -11.5q-20 0 -40 3.5t-35.5 13.5t-25 26.5t-9.5 43.5q0 21 9.5 40t25 36t35.5 31.5t40 27.5q-49 5 -89.5 19.5t-69.5 38.5t-45 56.5t-16 72.5q0 12 1.5 28.5t3.5 28.5l63 368h226l-61 -349q-1 -6 -1.5 -13.5t-0.5 -12.5 q0 -21 12 -33.5t38 -12.5q17 0 28.5 6.5t19.5 17t12.5 24t7.5 27.5l63 346h224l-65 -380q-14 -85 -64 -142.5t-138 -79.5q-62 -40 -90.5 -65t-28.5 -44q0 -8 6.5 -12.5t14.5 -4.5q27 0 60 18z" horiz-adv-x="674" glyph-name="uogonek.sc"/>
<glyph d="M446 654h-165l135 144h208zM597 214q-9 -53 -32 -96t-61 -74t-91 -47.5t-122 -16.5q-57 0 -106 13t-84 37t-55 59t-20 80q0 12 1.5 28.5t3.5 28.5l63 368h226l-61 -349q-1 -6 -1.5 -13.5t-0.5 -12.5q0 -21 12 -33.5t38 -12.5q17 0 28.5 6.5t19.5 17t12.5 24t7.5 27.5 l63 346h224z" horiz-adv-x="674" glyph-name="uacute.sc"/>
<glyph d="M351 798l126 -144h-165l-169 144h208zM597 214q-9 -53 -32 -96t-61 -74t-91 -47.5t-122 -16.5q-57 0 -106 13t-84 37t-55 59t-20 80q0 12 1.5 28.5t3.5 28.5l63 368h226l-61 -349q-1 -6 -1.5 -13.5t-0.5 -12.5q0 -21 12 -33.5t38 -12.5q17 0 28.5 6.5t19.5 17t12.5 24 t7.5 27.5l63 346h224z" horiz-adv-x="674" glyph-name="ugrave.sc"/>
<glyph d="M459 654l-55 69l-79 -69h-150l161 144h167l108 -144h-152zM597 214q-9 -53 -32 -96t-61 -74t-91 -47.5t-122 -16.5q-57 0 -106 13t-84 37t-55 59t-20 80q0 12 1.5 28.5t3.5 28.5l63 368h226l-61 -349q-1 -6 -1.5 -13.5t-0.5 -12.5q0 -21 12 -33.5t38 -12.5q17 0 28.5 6.5 t19.5 17t12.5 24t7.5 27.5l63 346h224z" horiz-adv-x="674" glyph-name="ucircumflex.sc"/>
<glyph d="M525 653q-43 0 -68 25t-25 57q0 22 7.5 41.5t22 34.5t34 23.5t43.5 8.5q20 0 37 -7t29 -18t19 -26t7 -31q0 -22 -7.5 -41.5t-21.5 -34.5t-33.5 -23.5t-43.5 -8.5zM274 653q-43 0 -68 25t-25 57q0 22 7.5 41.5t22 34.5t34 23.5t43.5 8.5q20 0 37 -7t29 -18t19 -26t7 -31 q0 -22 -7.5 -41.5t-21.5 -34.5t-33.5 -23.5t-43.5 -8.5zM597 214q-9 -53 -32 -96t-61 -74t-91 -47.5t-122 -16.5q-57 0 -106 13t-84 37t-55 59t-20 80q0 12 1.5 28.5t3.5 28.5l63 368h226l-61 -349q-1 -6 -1.5 -13.5t-0.5 -12.5q0 -21 12 -33.5t38 -12.5q17 0 28.5 6.5 t19.5 17t12.5 24t7.5 27.5l63 346h224z" horiz-adv-x="674" glyph-name="udieresis.sc"/>
<glyph d="M581 798q-8 -42 -27.5 -70t-45.5 -44.5t-57 -23t-63 -6.5q-33 0 -62.5 6.5t-52.5 23t-36.5 44.5t-13.5 70h107q0 -24 20.5 -32.5t41.5 -8.5q13 0 27 2t25.5 6.5t19.5 12.5t10 20h107zM597 214q-9 -53 -32 -96t-61 -74t-91 -47.5t-122 -16.5q-57 0 -106 13t-84 37t-55 59 t-20 80q0 12 1.5 28.5t3.5 28.5l63 368h226l-61 -349q-1 -6 -1.5 -13.5t-0.5 -12.5q0 -21 12 -33.5t38 -12.5q17 0 28.5 6.5t19.5 17t12.5 24t7.5 27.5l63 346h224z" horiz-adv-x="674" glyph-name="ubreve.sc"/>
<glyph d="M347 654h-165l135 144h208zM587 654h-164l135 144h207zM597 214q-9 -53 -32 -96t-61 -74t-91 -47.5t-122 -16.5q-57 0 -106 13t-84 37t-55 59t-20 80q0 12 1.5 28.5t3.5 28.5l63 368h226l-61 -349q-1 -6 -1.5 -13.5t-0.5 -12.5q0 -21 12 -33.5t38 -12.5q17 0 28.5 6.5 t19.5 17t12.5 24t7.5 27.5l63 346h224z" horiz-adv-x="674" glyph-name="uhungarumlaut.sc"/>
<glyph d="M215 681l16 95h358l-16 -95h-358zM597 214q-9 -53 -32 -96t-61 -74t-91 -47.5t-122 -16.5q-57 0 -106 13t-84 37t-55 59t-20 80q0 12 1.5 28.5t3.5 28.5l63 368h226l-61 -349q-1 -6 -1.5 -13.5t-0.5 -12.5q0 -21 12 -33.5t38 -12.5q17 0 28.5 6.5t19.5 17t12.5 24 t7.5 27.5l63 346h224z" horiz-adv-x="674" glyph-name="umacron.sc"/>
<glyph d="M598 791q-7 -29 -20 -54.5t-31 -44.5t-40 -29.5t-48 -10.5q-21 0 -39.5 6t-37.5 17q-22 13 -33 17.5t-26 4.5q-16 0 -27.5 -10.5t-16.5 -25.5h-79q7 28 19.5 52.5t30 43t39.5 29t48 10.5q23 0 40.5 -6.5t37.5 -17.5q22 -11 34 -16t28 -5t25.5 10t17.5 30h78zM597 214 q-9 -53 -32 -96t-61 -74t-91 -47.5t-122 -16.5q-57 0 -106 13t-84 37t-55 59t-20 80q0 12 1.5 28.5t3.5 28.5l63 368h226l-61 -349q-1 -6 -1.5 -13.5t-0.5 -12.5q0 -21 12 -33.5t38 -12.5q17 0 28.5 6.5t19.5 17t12.5 24t7.5 27.5l63 346h224z" horiz-adv-x="674" glyph-name="utilde.sc"/>
<glyph d="M465 762q0 22 -14 37t-39 15q-31 0 -51 -24t-20 -57q0 -23 14 -37.5t38 -14.5q32 0 52 24t20 57zM389 635q-44 0 -71.5 25.5t-27.5 66.5q0 27 9.5 51t26 42t40 28.5t50.5 10.5q45 0 72.5 -25t27.5 -67q0 -27 -9.5 -51t-26.5 -42t-40 -28.5t-51 -10.5zM597 214 q-9 -53 -32 -96t-61 -74t-91 -47.5t-122 -16.5q-57 0 -106 13t-84 37t-55 59t-20 80q0 12 1.5 28.5t3.5 28.5l63 368h226l-61 -349q-1 -6 -1.5 -13.5t-0.5 -12.5q0 -21 12 -33.5t38 -12.5q17 0 28.5 6.5t19.5 17t12.5 24t7.5 27.5l63 346h224z" horiz-adv-x="674" glyph-name="uring.sc"/>
<glyph d="M594 654l-55 69l-79 -69h-150l161 144h167l108 -144h-152zM715 0h-227l-24 310h-2l-144 -310h-225l-65 594h234l11 -315h4l127 315h217l18 -315h3l123 315h239z" horiz-adv-x="947" glyph-name="wcircumflex.sc"/>
<glyph d="M428 654l-55 69l-79 -69h-150l161 144h167l108 -144h-152zM352 0h-231l37 208l-137 386h244l42 -198l119 198h257l-294 -386z" horiz-adv-x="602" glyph-name="ycircumflex.sc"/>
<glyph d="M409 654h-165l135 144h208zM352 0h-231l37 208l-137 386h244l42 -198l119 198h257l-294 -386z" horiz-adv-x="602" glyph-name="yacute.sc"/>
<glyph d="M487 653q-43 0 -68 25t-25 57q0 22 7.5 41.5t22 34.5t34 23.5t43.5 8.5q20 0 37 -7t29 -18t19 -26t7 -31q0 -22 -7.5 -41.5t-21.5 -34.5t-33.5 -23.5t-43.5 -8.5zM236 653q-43 0 -68 25t-25 57q0 22 7.5 41.5t22 34.5t34 23.5t43.5 8.5q20 0 37 -7t29 -18t19 -26t7 -31 q0 -22 -7.5 -41.5t-21.5 -34.5t-33.5 -23.5t-43.5 -8.5zM352 0h-231l37 208l-137 386h244l42 -198l119 198h257l-294 -386z" horiz-adv-x="602" glyph-name="ydieresis.sc"/>
<glyph d="M397 654h-165l135 144h208zM-24 0l30 165l261 253h-205l31 176h498l-27 -153l-271 -264h237l-33 -177h-521z" horiz-adv-x="599" glyph-name="zacute.sc"/>
<glyph d="M358 646q-46 0 -73 26.5t-27 61.5q0 24 8 45t23 37t36 25t47 9q45 0 72 -26.5t27 -61.5q0 -24 -8 -45t-23 -37t-36 -25t-46 -9zM-24 0l30 165l261 253h-205l31 176h498l-27 -153l-271 -264h237l-33 -177h-521z" horiz-adv-x="599" glyph-name="zdotaccent.sc"/>
<glyph d="M438 654h-167l-111 144h150l55 -70l79 70h152zM-24 0l30 165l261 253h-205l31 176h498l-27 -153l-271 -264h237l-33 -177h-521z" horiz-adv-x="599" glyph-name="zcaron.sc"/>
<glyph d="M557 -20q-54 0 -95 13t-70 35t-46.5 51.5t-24.5 62.5l198 69q2 -15 10 -24.5t22 -9.5q15 0 22.5 12.5t10.5 29.5l65 375h231l-67 -377q-7 -41 -22 -83.5t-44 -76.5t-75 -55.5t-115 -21.5zM0 0l105 594h231l-105 -594h-231z" horiz-adv-x="892" glyph-name="ij.sc"/>
<glyph d="M288 272q0 -42 25 -62.5t68 -20.5h27l39 217h-35q-27 0 -50 -11t-39.5 -29.5t-25.5 -43t-9 -50.5zM362 0q-74 0 -132 17.5t-98.5 51t-61.5 81t-21 107.5q0 75 27.5 137t77 106.5t119 69t152.5 24.5h481l-30 -166h-209l-9 -52h197l-28 -155h-197l-9 -54h231l-30 -167h-460 z" horiz-adv-x="916" glyph-name="oe.sc"/>
<glyph d="M288 369h71l-24 -138h-71l-9 -52h40q32 0 57 11.5t42 30.5t26 44.5t9 53.5q0 46 -22.5 72t-72.5 26h-37zM41 231h-46l24 138h46l40 225h257q58 0 112 -14t95.5 -45t66.5 -79t25 -117q0 -78 -27 -140.5t-75 -107t-115.5 -68t-148.5 -23.5h-295z" horiz-adv-x="688" glyph-name="eth.sc"/>
</font>
</defs>
</svg>
