<?xml version="1.0" encoding="UTF-8" standalone="no"?>
<!DOCTYPE svg  PUBLIC '-//W3C//DTD SVG 1.1//EN'  'http://www.w3.org/Graphics/SVG/1.1/DTD/svg11.dtd'>
<svg xmlns="http://www.w3.org/2000/svg" version="1.1">
<defs>
<font id="AvenirNext-Italic" horiz-adv-x="580">
<font-face font-weight="400" slope="-10" unicode-range="U+000D-FE48" descent="-200" panose-1="2 11 5 3 2 2 2 9 2 4" underline-thickness="50" x-height="468" underline-position="-150" units-per-em="1000" font-style="italic" cap-height="708" ascent="800" bbox="-381 -409 1365 1194" font-family="Avenir Next"/>
<missing-glyph d="M512 718v-718h-512v718h512zM462 50v617h-412v-617h412zM225 234l-2 17q0 56 13 81q7 13 18 27.5t28 31.5q16 15 26 26.5t15 21t7 18t2 17.5q0 36 -22.5 60.5t-53.5 24.5t-53.5 -22t-28.5 -73l-50 8q7 72 44 104.5t91 32.5t89 -35.5t35 -95.5q0 -32 -12.5 -58.5 t-50.5 -61.5q-37 -33 -43 -52q-6 -20 -6 -72h-46zM222 117v67h56v-67h-56z" horiz-adv-x="512"/>
<glyph d="M306 140q7 -40 33 -68t74 -28q39 0 64 14t41.5 37t25 52.5t14.5 61.5l88 499h71l-89 -504q-6 -35 -17 -74t-34.5 -72t-61.5 -54.5t-98 -21.5q-39 0 -70 11t-52.5 30t-34.5 44t-17 53zM111 0h-71l125 708h71z" glyph-name="IJ" unicode="IJ" horiz-adv-x="735"/>
<glyph d="M493 649q0 -20 -13.5 -34t-33.5 -14q-19 0 -32.5 12t-13.5 33t14.5 35t33.5 14t32 -12.5t13 -33.5zM167 -176q9 -3 20.5 -4.5t21.5 -1.5q21 0 35 7.5t23 20.5t14 31.5t9 40.5l97 550h67l-99 -561q-5 -28 -13.5 -54.5t-24.5 -47t-42 -33t-66 -12.5q-11 0 -27.5 1.5 t-28.5 5.5zM227 649q0 -20 -13.5 -34t-33.5 -14q-19 0 -32.5 12t-13.5 33t14.5 35t33.5 14t32 -12.5t13 -33.5zM104 0h-67l83 468h67z" glyph-name="ij" unicode="ij" horiz-adv-x="517"/>
<glyph d="M126 523h-57l101 185h71zM180 468q-2 -19 -5 -42t-6 -38h2q27 43 69.5 67.5t90.5 24.5q76 0 118.5 -38.5t42.5 -104.5q0 -12 -1.5 -24t-3.5 -26l-51 -287h-67l46 259q6 31 6 59q0 49 -23 77.5t-81 28.5q-27 0 -54 -11t-50.5 -34t-41.5 -57.5t-26 -81.5l-42 -240h-67 l64 365q4 19 8.5 49t6.5 54h65z" glyph-name="napostrophe" unicode='&quot;n' horiz-adv-x="577"/>
<glyph d="M521 649q0 -20 -13.5 -34t-33.5 -14q-19 0 -32.5 12t-13.5 33t14.5 35t33.5 14t32 -12.5t13 -33.5zM398 0h-67l83 468h67zM306 412h-110l-72 -412h-67l72 412h-99l11 56h97l22 127q6 35 19 66.5t34.5 55t51.5 37.5t70 14q13 0 27 -1.5t28 -5.5l-16 -59q-21 6 -47 6 q-24 0 -41.5 -9t-29 -25.5t-19 -38.5t-11.5 -47l-21 -120h112z" glyph-name="fi" unicode="fi" horiz-adv-x="544"/>
<glyph d="M306 412h-110l-72 -412h-67l72 412h-99l11 56h97l22 127q6 35 19 66.5t34.5 55t51.5 37.5t70 14q13 0 27 -1.5t28 -5.5l-16 -59q-21 6 -47 6q-24 0 -41.5 -9t-29 -25.5t-19 -38.5t-11.5 -47l-21 -120h112zM398 0h-68l133 756h68z" glyph-name="fl" unicode="fl" horiz-adv-x="544"/>
<glyph d="M512 718v-718h-512v718h512zM462 50v617h-412v-617h412zM225 234l-2 17q0 56 13 81q7 13 18 27.5t28 31.5q16 15 26 26.5t15 21t7 18t2 17.5q0 36 -22.5 60.5t-53.5 24.5t-53.5 -22t-28.5 -73l-50 8q7 72 44 104.5t91 32.5t89 -35.5t35 -95.5q0 -32 -12.5 -58.5 t-50.5 -61.5q-37 -33 -43 -52q-6 -20 -6 -72h-46zM222 117v67h56v-67h-56z" glyph-name=".notdef" horiz-adv-x="512"/>
<glyph glyph-name=".null" horiz-adv-x="500"/>
<glyph glyph-name=".null" horiz-adv-x="500"/>
<glyph glyph-name="nonmarkingreturn" unicode="" horiz-adv-x="0"/>
<glyph glyph-name="space" unicode=" " horiz-adv-x="250"/>
<glyph d="M153 49q0 -22 -15.5 -38.5t-38.5 -16.5q-22 0 -37.5 14t-15.5 38t16.5 40t38.5 16t37 -14t15 -39zM155 192h-72l91 516h72z" glyph-name="exclam" unicode="!" horiz-adv-x="278"/>
<glyph d="M303 708h60l-42 -235h-60zM158 708h60l-42 -235h-60z" glyph-name="quotedbl" unicode='&quot;' horiz-adv-x="400"/>
<glyph d="M200 274h133l51 162h-133zM121 214h-102l10 60h110l51 162h-108l10 60h117l67 212h61l-67 -212h133l67 212h61l-67 -212h90l-10 -60h-99l-51 -162h95l-10 -60h-103l-68 -214h-61l68 214h-133l-68 -214h-61z" glyph-name="numbersign" unicode="#" horiz-adv-x="556"/>
<glyph d="M328 660q-28 -2 -55 -11t-48 -26t-34 -43t-13 -61q0 -48 28.5 -74t75.5 -45zM263 48q33 1 60.5 13t47.5 31.5t31.5 46t11.5 56.5q0 48 -31 76.5t-74 47.5zM239 -84h-42l13 72q-59 4 -111.5 29.5t-81.5 73.5l62 39q18 -32 54.5 -55.5t86.5 -26.5l50 285q-31 11 -60 26 t-52 36t-37 49.5t-14 66.5q0 42 15.5 79.5t45 65.5t72.5 45t99 20l12 71h42l-13 -72q57 -3 100 -26.5t68 -56.5l-60 -42q-15 24 -46 43t-72 21l-48 -274q30 -12 59 -27t52.5 -36.5t38 -50t14.5 -67.5q0 -34 -12 -71t-40 -68.5t-72.5 -53t-110.5 -24.5z" glyph-name="dollar" unicode="$"/>
<glyph d="M155 -31l-45 27l582 743l44 -27zM734 190q0 41 -25 68t-70 27q-28 0 -51.5 -11.5t-41 -31.5t-27 -46.5t-9.5 -56.5q0 -41 25 -67.5t69 -26.5q28 0 52 11.5t41.5 31.5t27 46t9.5 56zM600 -10q-33 0 -61.5 10.5t-48.5 29.5t-31.5 45t-11.5 58q0 42 14.5 79t40.5 64.5t62 44 t79 16.5q34 0 62 -10.5t48 -29t31 -45t11 -57.5q0 -42 -14.5 -79.5t-40.5 -65.5t-61.5 -44t-78.5 -16zM345 573q0 41 -25 68t-70 27q-28 0 -51.5 -11.5t-41 -31.5t-27 -46.5t-9.5 -56.5q0 -41 25 -67.5t69 -26.5q28 0 52 11.5t41.5 31.5t27 46t9.5 56zM211 373 q-33 0 -61.5 10.5t-48.5 29.5t-31.5 45t-11.5 58q0 42 14.5 79t40.5 64.5t62 44t79 16.5q34 0 62 -10.5t48 -29t31 -45t11 -57.5q0 -42 -14.5 -79.5t-40.5 -65.5t-61.5 -44t-78.5 -16z" glyph-name="percent" unicode="%" horiz-adv-x="833"/>
<glyph d="M441 571q0 44 -24 70.5t-67 26.5q-50 0 -80.5 -34t-30.5 -86q0 -37 16 -71t36 -56q31 13 58.5 28.5t47.5 33.5t32 40t12 48zM260 348q-31 -13 -60 -29.5t-51 -38.5t-35.5 -50t-13.5 -64q0 -56 38 -87t93 -31q54 0 96.5 26t85.5 78zM511 576q0 -35 -15 -64t-40.5 -53.5 t-60 -45t-73.5 -36.5l133 -168l125 174h83l-168 -221l130 -162h-91l-81 105q-52 -60 -106 -88.5t-120 -28.5q-45 0 -82 11t-64 33t-42 55t-15 77q0 46 19.5 83t49.5 65t66 48.5t69 34.5q-26 32 -40.5 71t-14.5 77q0 40 13 73.5t36.5 58t56 38t71.5 13.5q71 0 116 -39 t45 -111z" glyph-name="ampersand" unicode="&amp;" horiz-adv-x="704"/>
<glyph d="M158 708h60l-42 -235h-60z" glyph-name="quotesingle" unicode="&apos;" horiz-adv-x="255"/>
<glyph d="M83 167q0 -87 18 -162t51 -135l-52 -28q-38 61 -60.5 146.5t-22.5 178.5q0 83 18.5 162t50.5 152t75 137t93 117l46 -33q-46 -51 -85.5 -113t-69 -130.5t-46 -142.5t-16.5 -149z" glyph-name="parenleft" unicode="(" horiz-adv-x="300"/>
<glyph d="M211 409q0 87 -18 162t-51 135l52 28q38 -61 60.5 -146.5t22.5 -178.5q0 -83 -18.5 -162t-50.5 -152t-75.5 -137t-92.5 -117l-46 33q46 51 85.5 113t69 130.5t46 142.5t16.5 149z" glyph-name="parenright" unicode=")" horiz-adv-x="300"/>
<glyph d="M280 563l144 45l18 -50l-146 -45l93 -127l-42 -32l-95 130l-95 -130l-42 32l93 127l-146 45l18 50l144 -45v145h56v-145z" glyph-name="asterisk" unicode="*" horiz-adv-x="444"/>
<glyph d="M363 333h225v-60h-225v-225h-60v225h-225v60h225v225h60v-225z" glyph-name="plus" unicode="+" horiz-adv-x="666"/>
<glyph d="M23 -140h-57l109 235h71z" glyph-name="comma" unicode="," horiz-adv-x="260"/>
<glyph d="M256 214h-224l10 57h224z" glyph-name="hyphen" unicode="-" horiz-adv-x="320"/>
<glyph d="M131 49q0 -22 -15.5 -38.5t-38.5 -16.5q-22 0 -37.5 14t-15.5 38t16.5 40t38.5 16t37 -14t15 -39z" glyph-name="period" unicode="." horiz-adv-x="260"/>
<glyph d="M6 -18l-55 19l431 725l53 -20z" glyph-name="slash" unicode="/" horiz-adv-x="370"/>
<glyph d="M353 666q-50 0 -91.5 -38.5t-71.5 -101t-47 -141t-17 -158.5q0 -37 6 -70.5t19.5 -58.5t36.5 -40t56 -15q49 0 90.5 38t71.5 100t47 140t17 158q0 37 -6 71t-19.5 60t-36 41t-55.5 15zM358 726q50 0 85 -19t57.5 -52t32.5 -77t10 -93q0 -51 -7.5 -108t-23 -113 t-39.5 -107t-58 -90t-77.5 -62t-98.5 -23q-51 0 -86 19t-57 51t-32 75.5t-10 93.5q0 52 7 109.5t22.5 113.5t40 107t58 90t77.5 62t99 23z" glyph-name="zero" unicode="0"/>
<glyph d="M304 0h-70l109 621l-149 -111l-35 52l206 146h64z" glyph-name="one" unicode="1"/>
<glyph d="M454 0h-453l13 75l339 293q26 22 46.5 42.5t35 42t22.5 45.5t8 53q0 27 -10.5 48t-28 36t-40.5 22.5t-49 7.5q-65 0 -105 -36t-55 -88l-68 14q11 36 31.5 67.5t50 54.5t67 36t82.5 13q38 0 73.5 -10.5t63 -32t44 -53t16.5 -73.5q0 -43 -10 -74.5t-28.5 -58.5t-45 -52 t-60.5 -54l-299 -255h371z" glyph-name="two" unicode="2"/>
<glyph d="M231 401h31q90 0 140.5 38.5t50.5 117.5q0 52 -35 80t-85 28q-47 0 -85.5 -22t-61.5 -65l-58 33q75 115 208 115q38 0 72 -10.5t60 -32t41.5 -53t15.5 -73.5q0 -31 -9 -60t-28 -53.5t-48.5 -43t-69.5 -29.5v-2q24 -6 45 -19t37 -32.5t25 -44.5t9 -53q0 -51 -17.5 -95 t-50 -75.5t-78.5 -49.5t-103 -18q-39 0 -73.5 10t-62.5 28.5t-48.5 45.5t-30.5 61l71 25q5 -26 19 -46t34 -34t45 -21t52 -7q37 0 68 12t53.5 34t35 53t12.5 70q0 67 -44.5 97.5t-116.5 30.5h-31z" glyph-name="three" unicode="3"/>
<glyph d="M423 627h-2l-320 -393h252zM422 234h105l-11 -63h-105l-30 -171h-69l30 171h-324l12 73l380 464h96z" glyph-name="four" unicode="4"/>
<glyph d="M517 645h-278l-44 -220q44 16 91 16t85 -14.5t65 -40.5t42 -61t15 -75q0 -53 -16.5 -101.5t-49.5 -85.5t-83.5 -59t-118.5 -22q-77 0 -129.5 36.5t-72.5 92.5l66 29q14 -44 51.5 -70t85.5 -26q47 0 83 15t60 40.5t36.5 60.5t12.5 76q0 66 -41 107.5t-111 41.5 q-38 0 -80.5 -11t-72.5 -29l72 363h343z" glyph-name="five" unicode="5"/>
<glyph d="M110 182q0 -29 9.5 -54.5t27.5 -44.5t44 -30.5t58 -11.5q42 0 76 14.5t58.5 40t37.5 60t13 73.5q0 28 -9 53t-26 44t-42 30t-57 11q-41 0 -75.5 -14t-60 -39t-40 -59t-14.5 -73zM217 399l2 -2q19 12 43 19t51 7q42 0 77 -13.5t60.5 -38.5t40 -59.5t14.5 -76.5 q0 -56 -19 -102.5t-53.5 -80t-81.5 -52t-104 -18.5q-47 0 -85 15.5t-66 43t-43 64.5t-15 79q0 52 25 102.5t75 112.5l250 309h87z" glyph-name="six" unicode="6"/>
<glyph d="M557 642l-402 -642h-84l413 645h-346l11 63h420z" glyph-name="seven" unicode="7"/>
<glyph d="M112 170q0 -57 36 -92t98 -35q43 0 77 13.5t57 37.5t35.5 56t12.5 70q0 26 -9.5 49t-27 40t-42 26.5t-53.5 9.5q-39 0 -72.5 -13.5t-58.5 -37t-39 -55.5t-14 -69zM194 517q0 -23 7.5 -43t22.5 -36t36 -25t48 -9q35 0 63.5 14t48.5 35.5t30.5 46.5t10.5 48q0 58 -32.5 88 t-88.5 30q-32 0 -58.5 -12.5t-46 -33t-30.5 -47.5t-11 -56zM387 373q49 -14 81 -53t32 -96q0 -60 -21.5 -105.5t-57.5 -76t-82 -45.5t-94 -15q-42 0 -79.5 12t-65.5 35.5t-44.5 58t-16.5 78.5q0 42 14.5 77.5t39 62.5t56.5 45t67 26v2q-42 17 -66.5 52.5t-24.5 80.5t16.5 84 t46 68t70 45.5t87.5 16.5q40 0 74.5 -11t59 -32.5t38.5 -52.5t14 -71q0 -35 -11.5 -64.5t-31 -53t-45.5 -40.5t-56 -26v-2z" glyph-name="eight" unicode="8"/>
<glyph d="M495 526q0 28 -10 54t-28 45t-44 30.5t-58 11.5q-42 0 -76 -15t-58.5 -40.5t-37.5 -59.5t-13 -73q0 -28 9 -53t26 -43.5t42 -29.5t57 -11q40 0 75 14t61 38.5t40.5 58.5t14.5 73zM387 309l-2 2q-19 -12 -43 -19t-51 -7q-42 0 -77.5 13.5t-61 38.5t-39.5 59.5t-14 76.5 q0 56 19 102.5t53.5 80t81.5 52t104 18.5q46 0 84.5 -15.5t66.5 -43t43 -64.5t15 -79q0 -52 -25 -102.5t-75 -112.5l-250 -309h-87z" glyph-name="nine" unicode="9"/>
<glyph d="M215 421q0 -22 -15.5 -38.5t-38.5 -16.5q-22 0 -37.5 14t-15.5 38t16.5 40t38.5 16t37 -14t15 -39zM157 49q0 -22 -15.5 -38.5t-38.5 -16.5q-22 0 -37.5 14t-15.5 38t16.5 40t38.5 16t37 -14t15 -39z" glyph-name="colon" unicode=":" horiz-adv-x="300"/>
<glyph d="M215 421q0 -22 -15.5 -38.5t-38.5 -16.5q-22 0 -37.5 14t-15.5 38t16.5 40t38.5 16t37 -14t15 -39zM39 -140h-60l109 235h74z" glyph-name="semicolon" unicode=";" horiz-adv-x="300"/>
<glyph d="M588 504l-429 -201l429 -201v-60l-510 238v46l510 238v-60z" glyph-name="less" unicode="&lt;" horiz-adv-x="666"/>
<glyph d="M588 258v-60h-510v60h510zM588 408v-60h-510v60h510z" glyph-name="equal" unicode="=" horiz-adv-x="666"/>
<glyph d="M78 564l510 -238v-46l-510 -238v60l429 201l-429 201v60z" glyph-name="greater" unicode="&gt;" horiz-adv-x="666"/>
<glyph d="M262 49q0 -22 -15.5 -38.5t-38.5 -16.5q-22 0 -37.5 14t-15.5 38t16.5 40t38.5 16t37 -14t15 -39zM254 192h-68l10 60q10 57 37.5 91.5t62.5 61.5l33 25q37 29 60.5 57t23.5 72q0 45 -29 72t-75 27q-64 0 -100 -34t-47 -83l-65 12q9 39 29.5 69.5t48.5 52.5t62 33.5 t71 11.5t69 -9.5t56 -29.5t38 -50t14 -70q0 -32 -9 -58t-25 -47.5t-38 -40.5t-47 -37q-24 -17 -42 -31.5t-30.5 -31t-21 -36.5t-12.5 -47z" glyph-name="question" unicode="?" horiz-adv-x="482"/>
<glyph d="M702 99q-69 -60 -149.5 -88.5t-172.5 -28.5q-79 0 -142 23t-107 64.5t-67.5 98t-23.5 122.5q0 90 32 169t90 138.5t138 94t175 34.5q65 0 121.5 -18.5t98 -54t65.5 -87t24 -117.5q0 -52 -13 -103.5t-39.5 -93t-67 -67t-94.5 -25.5q-22 0 -39.5 6t-28.5 16.5t-15.5 23.5 t-0.5 28h-4q-8 -12 -21 -25t-30 -24t-37.5 -18t-43.5 -7q-67 0 -98 36t-31 93q0 36 13.5 81t42 85t72 67t102.5 27q38 0 66 -17.5t34 -42.5h4l18 45h62l-73 -186q-3 -7 -7 -18.5t-8 -24.5t-7 -25.5t-3 -19.5q0 -21 11 -32.5t37 -11.5q31 0 56 20.5t42.5 53t27 71.5t9.5 76 q0 54 -18 96.5t-51 72t-79 45t-101 15.5q-77 0 -142.5 -29t-114 -80t-76 -120t-27.5 -148q0 -56 19.5 -102t55.5 -78.5t87 -50.5t114 -18q88 0 157 27.5t129 77.5zM444 489q-29 0 -56 -15t-48 -41.5t-33.5 -62t-12.5 -77.5q0 -14 3 -27.5t10 -24t19.5 -17t32.5 -6.5 q33 0 61 18t48.5 47t32 64t11.5 70q0 29 -14.5 50.5t-53.5 21.5z" glyph-name="at" unicode="@" horiz-adv-x="800"/>
<glyph d="M188 252h310l-74 376zM31 0h-82l456 708h70l147 -708h-75l-38 186h-362z" glyph-name="A" unicode="A" horiz-adv-x="695"/>
<glyph d="M122 61h134q43 0 83.5 8.5t71 27.5t49 50t18.5 75q0 55 -41.5 86t-118.5 31h-147zM181 398h145q28 0 59 7t56.5 23.5t42 43t16.5 66.5q0 29 -11.5 49.5t-31.5 34t-47.5 19.5t-59.5 6h-125zM165 708h204q37 0 73.5 -8t66 -26.5t48 -48t18.5 -72.5q0 -71 -43 -117.5 t-113 -63.5v-2q58 -9 95 -48.5t37 -102.5q0 -54 -22.5 -95t-62.5 -68.5t-95.5 -41.5t-121.5 -14h-209z" glyph-name="B" unicode="B" horiz-adv-x="620"/>
<glyph d="M659 112q-21 -27 -49 -50.5t-63.5 -41t-78 -28t-92.5 -10.5q-71 0 -129.5 22t-100.5 62t-65 96t-23 124q0 92 33 172t90.5 139.5t134.5 94t165 34.5q39 0 75.5 -8t67.5 -22.5t55.5 -35.5t39.5 -47l-65 -43q-8 17 -23.5 34t-37.5 30.5t-50.5 21.5t-63.5 8 q-76 0 -139.5 -31.5t-109 -83t-71 -118.5t-25.5 -138q0 -52 16 -97.5t47.5 -79t77 -53t105.5 -19.5q64 0 122 25.5t104 80.5z" glyph-name="C" unicode="C" horiz-adv-x="720"/>
<glyph d="M122 63h160q86 0 151.5 29t110 76.5t67 109t22.5 126.5q0 49 -16 93t-49 77t-84 52t-121 19h-138zM165 708h214q60 0 119 -16.5t106 -52t76 -92t29 -135.5q0 -93 -32.5 -169t-90.5 -130t-137 -83.5t-172 -29.5h-237z" glyph-name="D" unicode="D" horiz-adv-x="757"/>
<glyph d="M122 63h380l-11 -63h-451l125 708h425l-11 -63h-354l-43 -246h338l-11 -61h-338z" glyph-name="E" unicode="E"/>
<glyph d="M111 0h-71l125 708h417l-11 -63h-346l-44 -247h321l-10 -61h-321z" glyph-name="F" unicode="F" horiz-adv-x="550"/>
<glyph d="M380 44q61 0 113 13t88 35l38 217h-167l11 61h237l-56 -319q-64 -37 -130 -53t-138 -16q-71 0 -129.5 22t-100.5 62t-65 96t-23 124q0 92 33 172t90.5 139.5t134.5 94t165 34.5q39 0 75.5 -8t67.5 -22.5t55.5 -35.5t39.5 -47l-65 -43q-8 17 -23.5 34t-37.5 30.5 t-50.5 21.5t-63.5 8q-76 0 -139.5 -31.5t-109 -83t-71 -118.5t-25.5 -138q0 -52 16 -97.5t47.5 -79t77 -53t105.5 -19.5z" glyph-name="G" unicode="G" horiz-adv-x="770"/>
<glyph d="M165 708h71l-55 -308h377l55 308h71l-125 -708h-71l59 336h-377l-59 -336h-71z" glyph-name="H" unicode="H" horiz-adv-x="708"/>
<glyph d="M111 0h-71l125 708h71z" glyph-name="I" unicode="I" horiz-adv-x="260"/>
<glyph d="M53 140q7 -40 33 -68t74 -28q39 0 64 14t41.5 37t25 52.5t14.5 61.5l88 499h71l-89 -504q-6 -35 -17 -74t-34.5 -72t-61.5 -54.5t-98 -21.5q-39 0 -70 11t-52.5 30t-34.5 44t-17 53z" glyph-name="J" unicode="J" horiz-adv-x="482"/>
<glyph d="M180 390h1l360 318h104l-387 -328l296 -380h-93l-283 377h-1l-66 -377h-71l125 708h71z" glyph-name="K" unicode="K" horiz-adv-x="585"/>
<glyph d="M121 63h331l-10 -63h-402l125 708h71z" glyph-name="L" unicode="L" horiz-adv-x="510"/>
<glyph d="M407 122h1l343 586h109l-125 -708h-71l108 612h-2l-364 -612h-38l-148 612h-2l-108 -612h-70l125 708h108z" glyph-name="M" unicode="M" horiz-adv-x="886"/>
<glyph d="M546 101h2l107 607h71l-125 -708h-89l-290 615h-2l-108 -615h-71l125 708h89z" glyph-name="N" unicode="N" horiz-adv-x="750"/>
<glyph d="M710 417q0 51 -16 96t-46.5 78.5t-76 53t-103.5 19.5q-75 0 -137 -31.5t-105.5 -83.5t-67.5 -119t-24 -138q0 -51 15.5 -96.5t46.5 -79t76 -53t104 -19.5q74 0 135.5 31t105.5 83t68.5 119.5t24.5 139.5zM373 -18q-69 0 -127 22t-100 62t-65 96t-23 124q0 91 32 171.5 t87.5 140t131 94t162.5 34.5q69 0 127 -21.5t99.5 -61.5t65 -95.5t23.5 -123.5q0 -91 -31 -171.5t-86 -140.5t-131 -95t-165 -35z" glyph-name="O" unicode="O" horiz-adv-x="834"/>
<glyph d="M179 388h130q90 0 140.5 36t50.5 106q0 65 -41 91t-111 26h-123zM165 708h189q104 0 161 -45t57 -125q0 -52 -20 -91t-55.5 -65.5t-85 -39.5t-108.5 -13h-134l-58 -329h-71z" glyph-name="P" unicode="P"/>
<glyph d="M785 424q0 -64 -16.5 -120.5t-46 -102.5t-68.5 -80.5t-84 -55.5l-1 -2h207l-11 -63h-375q-68 0 -128 18t-105 54t-71 91.5t-26 130.5q0 90 31 168.5t85.5 137t129.5 92.5t162 34q69 0 127 -21.5t100.5 -61.5t66 -95.5t23.5 -123.5zM709 411q0 54 -16 100t-47.5 80 t-77 53.5t-103.5 19.5q-75 0 -136.5 -31t-104.5 -82t-66.5 -115.5t-23.5 -131.5q0 -115 69.5 -179t190.5 -64q62 0 119 28t100.5 75.5t69.5 111t26 135.5z" glyph-name="Q" unicode="Q" horiz-adv-x="836"/>
<glyph d="M180 391h126q36 0 71 5.5t63 20.5t45.5 42.5t17.5 71.5q0 58 -42 87t-116 29h-120zM111 0h-71l125 708h191q47 0 87 -10t69.5 -31t46 -53t16.5 -75q0 -49 -16 -85t-44.5 -60.5t-66.5 -38.5t-81 -18l156 -337h-81l-148 331h-125z" glyph-name="R" unicode="R" horiz-adv-x="599"/>
<glyph d="M491 598q-19 28 -55 47t-84 19q-31 0 -62 -8.5t-56 -26t-40.5 -44t-15.5 -63.5q0 -28 10 -48t27.5 -35t41 -26t50.5 -21q31 -12 63 -27t58 -37t42 -51.5t16 -69.5q0 -36 -13 -75.5t-43 -73t-79 -55t-121 -21.5q-65 0 -125 26.5t-92 78.5l64 41q20 -35 60 -59.5t96 -24.5 q36 0 68.5 10.5t57 30t38.5 47.5t14 62q0 30 -12 52t-32.5 38t-47 28t-56.5 23t-59 26t-51 36t-35.5 49.5t-13.5 66.5q0 45 17 84t49 67.5t79 45t107 16.5q72 0 122.5 -23.5t73.5 -60.5z" glyph-name="S" unicode="S" horiz-adv-x="564"/>
<glyph d="M250 0h-71l114 645h-237l11 63h546l-11 -63h-238z" glyph-name="T" unicode="T" horiz-adv-x="547"/>
<glyph d="M311 -18q-64 0 -108.5 19t-72.5 49.5t-40.5 69t-12.5 77.5q0 35 6 67l78 444h71l-77 -436q-6 -32 -6 -61q0 -34 8.5 -64t28 -53t51 -36.5t78.5 -13.5q56 0 95.5 18.5t66 50t42 73t23.5 86.5l77 436h71l-78 -444q-8 -44 -26.5 -93.5t-53 -91.5t-88.5 -69.5t-133 -27.5z " glyph-name="U" unicode="U" horiz-adv-x="710"/>
<glyph d="M245 93h2l360 615h79l-421 -708h-74l-114 708h76z" glyph-name="V" unicode="V" horiz-adv-x="600"/>
<glyph d="M218 99h2l295 609h86l59 -609h2l291 609h76l-345 -708h-84l-57 610h-2l-299 -610h-84l-73 708h76z" glyph-name="W" unicode="W" horiz-adv-x="960"/>
<glyph d="M323 422l251 286h94l-309 -344l182 -364h-86l-149 313l-273 -313h-98l335 372l-169 336h86z" glyph-name="X" unicode="X" horiz-adv-x="618"/>
<glyph d="M247 0h-71l54 305l-180 403h84l141 -344l283 344h89l-346 -403z" glyph-name="Y" unicode="Y" horiz-adv-x="557"/>
<glyph d="M597 648l-518 -585h419l-11 -63h-512l11 60l519 585h-398l11 63h490z" glyph-name="Z" unicode="Z" horiz-adv-x="572"/>
<glyph d="M286 678h-96l-138 -780h96l-10 -54h-162l157 888h162z" glyph-name="bracketleft" unicode="[" horiz-adv-x="300"/>
<glyph d="M5 706l57 20l303 -725l-58 -19z" glyph-name="backslash" unicode="\" horiz-adv-x="370"/>
<glyph d="M8 -102h96l138 780h-96l9 54h162l-157 -888h-162z" glyph-name="bracketright" unicode="]" horiz-adv-x="300"/>
<glyph d="M309 708h48l229 -433h-62l-191 361l-191 -361h-62z" glyph-name="asciicircum" unicode="^" horiz-adv-x="666"/>
<glyph d="M0 -75h500v-50h-500v50z" glyph-name="underscore" unicode="_" horiz-adv-x="500"/>
<glyph d="M23 708h88l100 -144h-56z" glyph-name="grave" unicode="`" horiz-adv-x="240"/>
<glyph d="M358 236q-45 0 -92 -4.5t-85.5 -17t-63 -35t-24.5 -59.5q0 -22 8 -36.5t21.5 -23t31 -12t35.5 -3.5q36 0 66 12t53 33t38 48.5t21 58.5l7 39h-16zM383 287q3 17 4 26.5t1 17.5q0 51 -29 72t-81 21q-42 0 -81 -16.5t-65 -39.5l-30 45q34 30 84 48.5t99 18.5 q33 0 63.5 -7.5t53 -24t36 -42t13.5 -61.5q0 -9 -1 -24.5t-3 -25.5l-34 -190q-5 -27 -8 -56t-3 -49h-60q0 17 1.5 37t4.5 39h-2q-20 -23 -40 -39.5t-41.5 -26.5t-46 -14.5t-53.5 -4.5q-24 0 -49 6t-45.5 20.5t-34 37.5t-13.5 57q0 56 32 90.5t83.5 53t115.5 25t129 6.5z" glyph-name="a" unicode="a" horiz-adv-x="534"/>
<glyph d="M490 274q0 31 -9.5 58.5t-28.5 48t-46 32t-63 11.5q-44 0 -82 -18t-66 -49.5t-44 -73t-16 -87.5q0 -33 10.5 -60.5t30.5 -48t47.5 -31.5t62.5 -11q46 0 83.5 18t64.5 49t41.5 72.5t14.5 89.5zM120 79l-14 -79h-67l134 756h67l-65 -364h2q11 18 29 34t40.5 28t48.5 19 t54 7q48 0 86.5 -14.5t66.5 -41.5t43 -64t15 -82q0 -60 -21 -113t-57.5 -92t-87 -62t-109.5 -23q-25 0 -49.5 6t-46.5 17.5t-39.5 28.5t-27.5 39h-2z" glyph-name="b" unicode="b" horiz-adv-x="628"/>
<glyph d="M426 362q-12 27 -41.5 44.5t-67.5 17.5q-45 0 -83 -18t-65.5 -49.5t-43 -73t-15.5 -88.5q0 -32 10 -59.5t29.5 -47.5t47.5 -31.5t64 -11.5q45 0 79 17t59 44l43 -37q-36 -37 -81 -59t-105 -22q-50 0 -90 14.5t-68.5 41t-43.5 63.5t-15 82q0 60 20 113t56.5 92.5 t88.5 62.5t115 23q52 0 97.5 -19t68.5 -60z" glyph-name="c" unicode="c" horiz-adv-x="500"/>
<glyph d="M104 195q0 -32 9.5 -59t28.5 -47.5t46 -32t63 -11.5q44 0 82 18t66 49.5t44 72.5t16 88q0 33 -10.5 60.5t-30.5 48t-48 31.5t-62 11q-46 0 -83.5 -18t-64.5 -49t-41.5 -72.5t-14.5 -89.5zM34 190q0 60 20.5 113t57.5 92t87.5 62t109.5 23q51 0 95.5 -23t67.5 -68h2 l65 367h67l-134 -756h-67l14 77h-2q-23 -36 -69 -62.5t-103 -26.5q-48 0 -86.5 14.5t-66.5 41.5t-43 64t-15 82z" glyph-name="d" unicode="d" horiz-adv-x="622"/>
<glyph d="M431 266q1 8 1.5 17.5t0.5 17.5q0 54 -33 88.5t-97 34.5q-37 0 -68.5 -12.5t-56 -34.5t-41.5 -50.5t-24 -60.5h318zM104 216q-1 -6 -1.5 -11.5t-0.5 -10.5q0 -33 11.5 -60t32 -47t48 -31t59.5 -11q55 0 96 24.5t66 57.5l42 -40q-41 -49 -95 -74t-115 -25q-45 0 -84 14 t-67.5 40t-45 64.5t-16.5 87.5q0 57 21 109t57.5 91t86 62.5t106.5 23.5q96 0 145.5 -51t49.5 -132q0 -12 -2 -36.5t-7 -44.5h-387z" glyph-name="e" unicode="e" horiz-adv-x="566"/>
<glyph d="M306 412h-110l-72 -412h-67l72 412h-99l11 56h97l22 127q6 35 19 66.5t34.5 55t51.5 37.5t70 14q13 0 27 -1.5t28 -5.5l-16 -59q-21 6 -47 6q-24 0 -41.5 -9t-29 -25.5t-19 -38.5t-11.5 -47l-21 -120h112z" glyph-name="f" unicode="f" horiz-adv-x="295"/>
<glyph d="M114 204q0 -30 10 -57t29 -47.5t47 -32t64 -11.5q45 0 82.5 17.5t64.5 47.5t42 69.5t15 83.5q0 31 -10.5 58.5t-30 47.5t-47.5 32t-63 12q-45 0 -82.5 -16t-64 -44.5t-41.5 -69.5t-15 -90zM41 -98q25 -36 70.5 -59.5t99.5 -23.5q50 0 86 14.5t60 40t38 59t21 71.5l17 89 h-2q-32 -45 -78 -69t-100 -24q-48 0 -86.5 15.5t-65.5 43.5t-41.5 65t-14.5 81q0 57 20.5 107t57 87.5t86.5 59t109 21.5q25 0 50 -6t46.5 -18t38.5 -29.5t27 -39.5h2l15 81h66l-82 -464q-7 -38 -21 -81t-43.5 -79t-78.5 -60t-127 -24q-69 0 -125 25t-90 69z" glyph-name="g" unicode="g" horiz-adv-x="627"/>
<glyph d="M332 480q75 0 117.5 -38.5t42.5 -104.5q0 -12 -1.5 -24t-3.5 -26l-51 -287h-67l46 259q6 31 6 59q0 49 -23.5 77.5t-82.5 28.5q-27 0 -54 -11t-50 -34t-40.5 -57.5t-25.5 -81.5l-42 -240h-67l133 756h67l-64 -365h2q26 41 68 65t90 24z" glyph-name="h" unicode="h" horiz-adv-x="577"/>
<glyph d="M227 649q0 -20 -13.5 -34t-33.5 -14q-19 0 -32.5 12t-13.5 33t14.5 35t33.5 14t32 -12.5t13 -33.5zM104 0h-67l83 468h67z" glyph-name="i" unicode="i" horiz-adv-x="250"/>
<glyph d="M227 649q0 -20 -13.5 -34t-33.5 -14q-19 0 -32.5 12t-13.5 33t14.5 35t33.5 14t32 -12.5t13 -33.5zM-99 -176q9 -3 20.5 -4.5t21.5 -1.5q21 0 35 7.5t23 20.5t14 31.5t9 40.5l97 550h67l-99 -561q-5 -28 -13.5 -54.5t-24.5 -47t-42 -33t-66 -12.5q-11 0 -27.5 1.5 t-28.5 5.5z" glyph-name="j" unicode="j" horiz-adv-x="251"/>
<glyph d="M150 257h3l239 211h93l-257 -217l214 -251h-88l-203 246h-3l-42 -246h-68l133 756h67z" glyph-name="k" unicode="k" horiz-adv-x="487"/>
<glyph d="M106 0h-68l133 756h68z" glyph-name="l" unicode="l" horiz-adv-x="252"/>
<glyph d="M628 480q76 0 118.5 -38.5t42.5 -104.5q0 -12 -1.5 -24t-3.5 -26l-51 -287h-67l46 259q6 31 6 59q0 49 -23 77.5t-81 28.5q-37 0 -63.5 -15t-45 -40t-29 -56t-16.5 -64l-44 -249h-67l49 272q6 33 6 61q0 42 -20.5 66.5t-72.5 24.5q-24 0 -50 -11t-49 -34t-41 -57.5 t-26 -81.5l-42 -240h-67l64 365q4 19 8.5 49t6.5 54h64q-2 -19 -5 -42t-6 -38h2q29 43 70 67.5t92 24.5q19 0 39.5 -4t39 -15.5t32.5 -30.5t20 -49q27 48 69 73.5t96 25.5z" glyph-name="m" unicode="m" horiz-adv-x="874"/>
<glyph d="M180 468q-2 -19 -5 -42t-6 -38h2q27 43 69.5 67.5t90.5 24.5q76 0 118.5 -38.5t42.5 -104.5q0 -12 -1.5 -24t-3.5 -26l-51 -287h-67l46 259q6 31 6 59q0 49 -23 77.5t-81 28.5q-27 0 -54 -11t-50.5 -34t-41.5 -57.5t-26 -81.5l-42 -240h-67l64 365q4 19 8.5 49t6.5 54h65 z" glyph-name="n" unicode="n" horiz-adv-x="577"/>
<glyph d="M458 274q0 32 -10 59.5t-29.5 47.5t-47.5 31.5t-63 11.5q-44 0 -81 -18.5t-64 -50t-42.5 -73t-15.5 -87.5q0 -32 10 -59.5t29.5 -47.5t47 -31.5t62.5 -11.5q45 0 82.5 18.5t64.5 49.5t42 72.5t15 88.5zM250 -12q-47 0 -87 15t-68.5 41.5t-44.5 64t-16 82.5 q0 59 20.5 111.5t57.5 92t88 62.5t112 23q48 0 87.5 -14.5t68 -41.5t44.5 -64t16 -82q0 -60 -20.5 -113t-57.5 -92t-88 -62t-112 -23z" glyph-name="o" unicode="o" horiz-adv-x="596"/>
<glyph d="M490 274q0 31 -9.5 58.5t-28.5 48t-46 32t-63 11.5q-44 0 -82 -18t-66 -49.5t-44 -73t-16 -87.5q0 -33 10.5 -60.5t30.5 -48t47.5 -31.5t62.5 -11q46 0 83.5 18t64.5 49t41.5 72.5t14.5 89.5zM177 392q11 18 29 34t40.5 28t48.5 19t54 7q48 0 86.5 -14.5t66.5 -41.5 t43 -64t15 -82q0 -60 -21 -113t-57.5 -92t-87 -62t-109.5 -23q-51 0 -95.5 23t-67.5 68h-2l-57 -319h-67l126 708h67l-14 -76h2z" glyph-name="p" unicode="p" horiz-adv-x="628"/>
<glyph d="M104 195q0 -32 9.5 -59t28.5 -47.5t46 -32t63 -11.5q44 0 82 18t66 49.5t44 72.5t16 88q0 33 -10.5 60.5t-30.5 48t-48 31.5t-62 11q-46 0 -83.5 -18t-64.5 -49t-41.5 -72.5t-14.5 -89.5zM34 190q0 60 20.5 113t57.5 92t87.5 62t109.5 23q51 0 95.5 -23t67.5 -68h2l14 79 h67l-125 -708h-67l56 316h-2q-11 -18 -29 -34t-40.5 -28t-48.5 -19t-54 -7q-48 0 -86.5 14.5t-66.5 41.5t-43 64t-15 82z" glyph-name="q" unicode="q" horiz-adv-x="620"/>
<glyph d="M100 365q4 19 8.5 49t6.5 54h64q-2 -19 -5 -42t-6 -38h2q26 41 66 66.5t90 25.5q13 0 23 -1t21 -4l-16 -64q-5 2 -18.5 4t-27.5 2q-27 0 -53 -10t-47.5 -31.5t-38 -55t-24.5 -80.5l-42 -240h-67z" glyph-name="r" unicode="r" horiz-adv-x="348"/>
<glyph d="M354 365q-14 26 -42 42.5t-67 16.5q-18 0 -37.5 -4t-36 -13t-27 -23.5t-10.5 -35.5q0 -19 6.5 -31t18.5 -20.5t29 -15t39 -12.5q69 -20 105 -50.5t36 -86.5q0 -38 -17 -65.5t-43 -45t-58 -25.5t-63 -8q-59 0 -110.5 22t-80.5 67l58 38q17 -29 51 -49.5t79 -20.5 q22 0 43 4.5t37.5 14t26.5 25t10 36.5q0 37 -29.5 56.5t-84.5 37.5q-21 7 -42 16t-38 23.5t-27.5 35t-10.5 49.5q0 36 16.5 62t42 42.5t57.5 24.5t64 8q54 0 96.5 -21t61.5 -56z" glyph-name="s" unicode="s" horiz-adv-x="444"/>
<glyph d="M303 412h-127l-49 -274q-3 -18 -3 -32q0 -33 16 -44t42 -11q14 0 31 4t26 11l-8 -58q-13 -7 -33.5 -10.5t-43.5 -3.5q-17 0 -34.5 4t-32 14.5t-24 28.5t-9.5 46q0 14 3 32l52 293h-97l11 56h95l23 132h67l-23 -132h129z" glyph-name="t" unicode="t" horiz-adv-x="307"/>
<glyph d="M364 0q2 19 5 42t6 38h-2q-27 -43 -69.5 -67.5t-90.5 -24.5q-76 0 -118.5 38.5t-42.5 104.5q0 12 1.5 24t3.5 26l51 287h67l-46 -259q-6 -32 -6 -59q0 -49 23 -77t81 -28q27 0 54 11t50.5 33.5t41.5 57t26 81.5l42 240h67l-64 -365q-4 -19 -8.5 -49t-6.5 -54h-65z" glyph-name="u" unicode="u" horiz-adv-x="577"/>
<glyph d="M205 0h-72l-98 468h69l75 -396h2l233 396h73z" glyph-name="v" unicode="v" horiz-adv-x="478"/>
<glyph d="M122 468l32 -380h2l198 380h64l55 -380h3l187 380h72l-239 -468h-72l-53 379h-2l-195 -379h-71l-51 468h70z" glyph-name="w" unicode="w" horiz-adv-x="733"/>
<glyph d="M315 0l-100 199l-187 -199h-83l240 247l-117 221h72l91 -184l171 184h81l-222 -229l132 -239h-78z" glyph-name="x" unicode="x" horiz-adv-x="475"/>
<glyph d="M189 74h2l228 394h75l-354 -589q-33 -54 -68 -86.5t-87 -32.5q-29 0 -57 6l10 62q22 -8 44 -8q32 0 55.5 21.5t46.5 61.5l58 98l-98 467h70z" glyph-name="y" unicode="y" horiz-adv-x="483"/>
<glyph d="M421 420l-344 -361h290l-10 -59h-380l8 48l343 363h-265l11 57h356z" glyph-name="z" unicode="z" horiz-adv-x="442"/>
<glyph d="M2 318q39 0 64 29t35 82l31 178q6 35 19.5 59t30.5 38.5t38 21t42 6.5h63l-9 -54h-48q-18 0 -31 -7.5t-21 -19.5t-12.5 -27t-7.5 -29l-31 -178q-7 -36 -22 -60.5t-32 -39t-33 -21t-25 -7.5v-2q7 -1 18.5 -6t23 -16.5t19.5 -29t8 -44.5q0 -14 -3 -32l-31 -178 q-3 -15 -3 -32q0 -21 9 -36t36 -15h48l-10 -54h-63q-37 0 -63 19.5t-26 68.5q0 8 1 17t3 20l31 178q3 19 3 36q0 36 -15.5 55.5t-47.5 19.5z" glyph-name="braceleft" unicode="{" horiz-adv-x="300"/>
<glyph d="M141 750v-1000h-60v1000h60z" glyph-name="bar" unicode="|" horiz-adv-x="222"/>
<glyph d="M291 258q-39 0 -64 -29t-34 -82l-31 -178q-6 -35 -19.5 -59t-31 -38.5t-38.5 -21t-42 -6.5h-63l10 54h48q18 0 30.5 7.5t21 19.5t13 27t7.5 29l31 178q6 36 21 60.5t32.5 39t33.5 21t25 7.5v2q-8 1 -19.5 6t-22.5 16t-19 29t-8 44q0 15 3 33l31 178q3 15 3 32q0 21 -9 36 t-36 15h-48l9 54h63q37 0 63.5 -19.5t26.5 -68.5q0 -8 -1 -17.5t-3 -19.5l-31 -178q-4 -19 -4 -38q0 -73 63 -73z" glyph-name="braceright" unicode="}" horiz-adv-x="300"/>
<glyph d="M577 328q-10 -16 -23.5 -32.5t-30.5 -30t-37.5 -22t-44.5 -8.5q-14 0 -26.5 1.5t-25.5 5.5t-27 11t-32 18q-31 20 -54 30t-49 10q-17 0 -32 -7t-27 -17.5t-21 -23.5t-16 -25l-42 40q11 16 24.5 32.5t30 30t37 22t44.5 8.5q28 0 53.5 -7.5t56.5 -27.5q29 -19 54 -30 t49 -11q17 0 32 7t27 18t21.5 24t16.5 24z" glyph-name="asciitilde" unicode="~" horiz-adv-x="666"/>
<glyph glyph-name="uni00A0" unicode=" " horiz-adv-x="250"/>
<glyph d="M99 431q0 22 15.5 38.5t38.5 16.5q22 0 37.5 -14t15.5 -38t-16.5 -40t-38.5 -16t-37 14t-15 39zM97 288h72l-91 -516h-72z" glyph-name="exclamdown" unicode="¡" horiz-adv-x="278"/>
<glyph d="M319 422q-39 -5 -71 -25t-55 -51t-35.5 -70t-12.5 -81q0 -54 27.5 -94t81.5 -51zM242 -8q-78 13 -123 65.5t-45 131.5q0 57 18 107.5t51 89.5t80 63.5t105 29.5l11 61h48l-11 -61q46 -4 85 -23t59 -55l-59 -39q-11 24 -36 41t-58 20l-67 -378q43 1 76.5 18t57.5 43 l43 -37q-36 -37 -81.5 -59t-105.5 -22l-11 -60h-48z" glyph-name="cent" unicode="¢"/>
<glyph d="M406 337h-168l-48 -278h263l-11 -59h-436l11 59h102l48 278h-96l11 58h94l16 93q7 38 21.5 80t40.5 77t66.5 58t100.5 23q44 0 81.5 -14.5t62.5 -40.5l-43 -51q-17 20 -42.5 33t-60.5 13q-45 0 -73 -20t-45.5 -48.5t-26 -60t-12.5 -55.5l-15 -87h170z" glyph-name="sterling" unicode="£"/>
<glyph d="M289 457q-38 1 -69 -13t-53 -38q-21 -24 -33 -54q-12 -32 -12 -67t12 -67t33 -56q22 -24 53 -38t69 -13q38 -1 69 13q30 14 52 38t34 56t12 67t-12 67t-34 54q-22 24 -52 38q-31 14 -69 13zM477 431q23 -29 35 -65t12 -81t-13 -83t-37 -68l86 -86l-39 -40l-88 87 q-29 -23 -65 -35t-79 -12q-82 0 -145 49l-89 -89l-40 40l88 89q-48 57 -48 148q-1 43 11 79t34 65l-85 85l40 39l85 -84q30 23 67 37t82 13q44 0 81 -13t66 -37l84 84l40 -39z" glyph-name="currency" unicode="¤"/>
<glyph d="M241 223l20 107h-165l8 52h153l-159 326h77l134 -300l236 300h86l-272 -326h143l-8 -52h-167l-20 -107h167l-8 -52h-167l-31 -171h-66l31 171h-165l8 52h165z" glyph-name="yen" unicode="¥"/>
<glyph d="M141 175v-350h-60v350h60zM141 675v-350h-60v350h60z" glyph-name="brokenbar" unicode="¦" horiz-adv-x="222"/>
<glyph d="M201 441q-27 17 -40.5 43t-13.5 57q0 36 12.5 68t37.5 57t63 39.5t89 14.5q60 0 103 -21.5t61 -54.5l-57 -41q-18 30 -47 43t-61 13q-35 0 -59 -9t-40 -24t-23 -34.5t-7 -40.5q0 -40 23.5 -61.5t76.5 -43.5q79 -32 114 -66.5t35 -86.5q0 -60 -30.5 -97.5t-82.5 -57.5 q44 -41 44 -97q0 -39 -15 -72t-42 -57t-65 -37t-84 -13q-62 0 -110.5 30t-70.5 72l59 42q9 -21 23.5 -37t31 -26t34.5 -15t34 -5q57 0 95 28t38 83q0 36 -21.5 58.5t-78.5 44.5q-81 30 -115.5 65t-34.5 89q0 51 30 91.5t94 58.5zM257 404q-16 -2 -34.5 -9t-34.5 -19.5 t-27 -31t-11 -43.5q0 -40 23 -60t68 -39l61 -25q16 3 33 12t30.5 22t22 31t8.5 39q0 39 -23.5 61t-55.5 36z" glyph-name="section" unicode="§"/>
<glyph d="M326 649q0 -20 -14.5 -35t-34.5 -15t-33.5 12.5t-13.5 34.5t14.5 36.5t34.5 14.5t33.5 -13t13.5 -35zM128 649q0 -20 -14 -35t-34 -15t-34 12.5t-14 34.5t15 36.5t35 14.5t33 -13t13 -35z" glyph-name="dieresis" unicode="¨" horiz-adv-x="240"/>
<glyph d="M80 353q0 -66 25.5 -124t69 -101.5t102 -68.5t124.5 -25t124 25t101.5 68.5t68.5 101.5t25 124t-25 124.5t-68.5 102t-101.5 69t-124 25.5t-124.5 -25.5t-102 -69t-69 -102t-25.5 -124.5zM20 353q0 79 30 147.5t81.5 119.5t121 80.5t148.5 29.5q78 0 147 -29.5 t120.5 -80.5t81.5 -119.5t30 -147.5q0 -78 -30 -146.5t-81.5 -119.5t-120.5 -80t-147 -29q-79 0 -148.5 29t-121 80t-81.5 119.5t-30 146.5zM580 224q-24 -37 -67 -64t-103 -27q-49 0 -90.5 17t-71.5 47t-47 71.5t-17 90.5t17 90t47 71t71.5 47t90.5 17q48 0 92.5 -21 t69.5 -58l-52 -40q-14 22 -43.5 40.5t-64.5 18.5q-37 0 -66.5 -13.5t-50 -36.5t-31.5 -52.5t-11 -62.5t10.5 -63t31 -53t49.5 -36.5t66 -13.5q32 0 63 15t55 50z" glyph-name="copyright" unicode="©" horiz-adv-x="800"/>
<glyph d="M276 569q-24 0 -49.5 -2t-46.5 -9t-35 -19t-14 -32q0 -24 17.5 -32t36.5 -8q40 0 65 23.5t32 58.5l4 20h-10zM292 607q1 5 1.5 11t0.5 11q0 28 -17 38.5t-44 10.5q-23 0 -46.5 -10.5t-38.5 -23.5l-22 35q20 18 53.5 30t62.5 12q20 0 38.5 -4.5t33 -14.5t23 -25.5 t8.5 -37.5q0 -5 -0.5 -14.5t-1.5 -15.5l-21 -114l-4 -34t-2 -29h-43q0 11 1 23t3 23h-1q-39 -53 -105 -53q-14 0 -31 3.5t-31 12.5t-23.5 24t-9.5 37q0 35 19.5 56t50.5 32t69.5 14t76.5 3z" glyph-name="ordfeminine" unicode="ª" horiz-adv-x="350"/>
<glyph d="M383 64l-50 -33l-106 209l177 209l41 -37l-147 -177zM202 64l-50 -33l-106 209l177 209l41 -37l-147 -177z" glyph-name="guillemotleft" unicode="«" horiz-adv-x="496"/>
<glyph d="M588 130h-60v218h-450v60h510v-278z" glyph-name="logicalnot" unicode="¬" horiz-adv-x="666"/>
<glyph d="M256 214h-224l10 57h224z" glyph-name="uni00AD" unicode="­" horiz-adv-x="320"/>
<glyph d="M334 510q20 0 38 7.5t18 30.5q0 21 -16.5 28t-34.5 7h-42v-73h37zM251 622h90q18 0 35 -4t30.5 -13t21.5 -23t8 -35q0 -28 -16 -45.5t-43 -23.5l69 -112h-56l-60 107h-33v-107h-46v256zM148 493q0 -39 15 -74t41 -61.5t61 -41.5t75 -15t75 15t61 41.5t41 61.5t15 74 q0 40 -15 75t-41 61t-61 41t-75 15t-75 -15t-61 -41t-41 -61t-15 -75zM112 493q0 47 18 88.5t49 72t72.5 48.5t88.5 18t88.5 -18t72.5 -48.5t49 -72t18 -88.5t-18 -88t-49 -71.5t-72.5 -48t-88.5 -17.5t-88.5 17.5t-72.5 48t-49 71.5t-18 88z" glyph-name="registered" unicode="®" horiz-adv-x="600"/>
<glyph d="M307 600h-270l9 54h270z" glyph-name="macron" unicode="¯" horiz-adv-x="240"/>
<glyph d="M351 571q0 21 -8 39.5t-21.5 32t-32 21.5t-39.5 8t-39.5 -8t-32 -21.5t-21.5 -32t-8 -39.5t8 -39.5t21.5 -32t32 -21.5t39.5 -8t39.5 8t32 21.5t21.5 32t8 39.5zM399 571q0 -32 -11 -59.5t-31 -47.5t-47.5 -31t-59.5 -11t-59.5 11t-47.5 31t-31 47.5t-11 59.5t11 59.5 t31 47.5t47.5 31t59.5 11t59.5 -11t47.5 -31t31 -47.5t11 -59.5z" glyph-name="degree" unicode="°" horiz-adv-x="400"/>
<glyph d="M78 108h510v-60h-510v60zM78 407h225v156h60v-156h225v-60h-225v-151h-60v151h-225v60z" glyph-name="plusminus" unicode="±" horiz-adv-x="666"/>
<glyph d="M339 344l-11 -54h-281l10 60l187 157q37 31 52 54t15 46q0 26 -18.5 42.5t-50.5 16.5q-29 0 -49.5 -19t-31.5 -51l-55 15q17 50 54.5 78.5t85.5 28.5q60 0 91 -30.5t31 -77.5q0 -23 -6.5 -41.5t-19 -35.5t-30.5 -33.5t-41 -35.5l-146 -120h214z" glyph-name="twosuperior" unicode="²" horiz-adv-x="370"/>
<glyph d="M195 535q54 0 78.5 20.5t24.5 55.5q0 26 -17 41t-45 15q-29 0 -47 -13t-32 -37l-46 29q22 38 56 56t76 18q50 0 82.5 -27.5t32.5 -78.5q0 -23 -7.5 -41t-20 -30.5t-28 -21t-31.5 -12.5q30 -7 49 -32t19 -56q0 -66 -42 -101.5t-107 -35.5q-51 0 -86.5 24t-49.5 68l60 18 q15 -56 77 -56q42 0 65 21t23 56q0 20 -8 33.5t-21.5 21.5t-30.5 11.5t-35 3.5h-19l9 50h21z" glyph-name="threesuperior" unicode="³" horiz-adv-x="370"/>
<glyph d="M160 564h-56l126 144h88z" glyph-name="acute" unicode="´" horiz-adv-x="240"/>
<glyph d="M121 468h66l-55 -259q-5 -22 -7.5 -40t-2.5 -33q0 -47 24.5 -67.5t78.5 -20.5q30 0 58.5 12t52.5 35t42 56.5t27 76.5l51 240h66l-78 -365q-5 -26 -8.5 -51.5t-7.5 -51.5h-71l16 76h-2q-15 -18 -35.5 -34t-44 -28t-48.5 -19t-48 -7q-69 0 -104 29l-52 -245h-66z" glyph-name="mu" unicode="µ" horiz-adv-x="556"/>
<glyph d="M437 -126h-66l137 780h-124l-137 -780h-66l78 442q-41 0 -74 11.5t-56.5 32.5t-36 49t-12.5 61q0 49 19.5 92.5t54.5 76t84 51t109 18.5h237z" glyph-name="paragraph" unicode="¶" horiz-adv-x="600"/>
<glyph d="M184 315q0 -22 -15.5 -38.5t-38.5 -16.5q-22 0 -37.5 14t-15.5 38t16.5 40t38.5 16t37 -14t15 -39z" glyph-name="periodcentered" unicode="·" horiz-adv-x="260"/>
<glyph d="M42 -75q8 2 15.5 3t15.5 1q12 0 25.5 -3.5t24 -11.5t17.5 -20.5t7 -31.5q0 -26 -11.5 -43.5t-29.5 -28t-39 -15.5t-40 -5q-20 0 -48.5 5t-48.5 15l19 36q16 -8 35.5 -11t38.5 -3q11 0 22.5 2t21.5 7.5t16 14t6 21.5q0 20 -14.5 29t-35.5 9q-22 0 -44 -8l-15 15l79 98h43z " glyph-name="cedilla" unicode="¸" horiz-adv-x="240"/>
<glyph d="M228 286h-61l61 346l-74 -57l-30 41l128 92h51z" glyph-name="onesuperior" unicode="¹" horiz-adv-x="370"/>
<glyph d="M316 594q0 35 -22 58.5t-60 23.5q-24 0 -44.5 -10t-35.5 -27.5t-23.5 -40t-8.5 -47.5q0 -35 21.5 -58.5t59.5 -23.5q25 0 45.5 10t35.5 27.5t23.5 40t8.5 47.5zM199 424q-29 0 -53.5 9t-42 25t-27.5 38.5t-10 49.5q0 36 13 67.5t35.5 55t54 37.5t68.5 14q29 0 53.5 -9 t42.5 -24.5t28 -38t10 -49.5q0 -36 -12.5 -68t-35.5 -55.5t-54.5 -37.5t-69.5 -14z" glyph-name="ordmasculine" unicode="º" horiz-adv-x="350"/>
<glyph d="M92 416l50 33l106 -209l-177 -209l-41 37l147 177zM273 416l50 33l106 -209l-177 -209l-41 37l147 177z" glyph-name="guillemotright" unicode="»" horiz-adv-x="496"/>
<glyph d="M155 -31l-45 27l582 743l44 -27zM228 286h-61l61 346l-74 -57l-30 41l128 92h51zM671 340l-155 -188h125l33 188h-3zM696 152h66l-10 -54h-63l-17 -98h-55l17 98h-191l9 52l223 272h68z" glyph-name="onequarter" unicode="¼" horiz-adv-x="840"/>
<glyph d="M753 54l-11 -54h-281l10 60l187 157q37 31 52 54t15 46q0 26 -18.5 42.5t-50.5 16.5q-29 0 -49.5 -19t-31.5 -51l-55 15q17 50 54.5 78.5t85.5 28.5q60 0 91 -30.5t31 -77.5q0 -23 -6.5 -41.5t-19 -35.5t-30.5 -33.5t-41 -35.5l-146 -120h214zM228 286h-61l61 346 l-74 -57l-30 41l128 92h51zM155 -31l-45 27l582 743l44 -27z" glyph-name="onehalf" unicode="½" horiz-adv-x="840"/>
<glyph d="M155 -31l-45 27l582 743l44 -27zM195 535q54 0 78.5 20.5t24.5 55.5q0 26 -17 41t-45 15q-29 0 -47 -13t-32 -37l-46 29q22 38 56 56t76 18q50 0 82.5 -27.5t32.5 -78.5q0 -23 -7.5 -41t-20 -30.5t-28 -21t-31.5 -12.5q30 -7 49 -32t19 -56q0 -66 -42 -101.5t-107 -35.5 q-51 0 -86.5 24t-49.5 68l60 18q15 -56 77 -56q42 0 65 21t23 56q0 20 -8 33.5t-21.5 21.5t-30.5 11.5t-35 3.5h-19l9 50h21zM671 340l-155 -188h125l33 188h-3zM696 152h66l-10 -54h-63l-17 -98h-55l17 98h-191l9 52l223 272h68z" glyph-name="threequarters" unicode="¾" horiz-adv-x="840"/>
<glyph d="M195 431q0 22 15.5 38.5t38.5 16.5q22 0 37.5 -14t15.5 -38t-16.5 -40t-38.5 -16t-37 14t-15 39zM203 288h68l-10 -60q-5 -29 -15.5 -51t-24.5 -40t-30.5 -33t-34.5 -28l-33 -25q-18 -14 -33 -27.5t-25 -28.5t-15.5 -33t-5.5 -41q0 -45 29 -72t75 -27q59 0 97.5 34 t49.5 83l65 -12q-19 -78 -77.5 -122.5t-136.5 -44.5q-37 0 -68.5 9.5t-55 29.5t-37 49.5t-13.5 70.5q0 60 34.5 103t85.5 79q24 17 41.5 31.5t30.5 31t21 37t12 47.5z" glyph-name="questiondown" unicode="¿" horiz-adv-x="482"/>
<glyph d="M286 908h88l100 -144h-56zM188 252h310l-74 376zM31 0h-82l456 708h70l147 -708h-75l-38 186h-362z" glyph-name="Agrave" unicode="À" horiz-adv-x="695"/>
<glyph d="M460 764h-56l126 144h88zM188 252h310l-74 376zM31 0h-82l456 708h70l147 -708h-75l-38 186h-362z" glyph-name="Aacute" unicode="Á" horiz-adv-x="695"/>
<glyph d="M595 764h-63l-64 108l-102 -108h-69l135 144h80zM188 252h310l-74 376zM31 0h-82l456 708h70l147 -708h-75l-38 186h-362z" glyph-name="Acircumflex" unicode="Â" horiz-adv-x="695"/>
<glyph d="M290 776q7 19 16.5 38t23 33.5t30.5 23.5t40 9q18 0 35 -7t34 -16q17 -8 32.5 -15.5t30.5 -7.5q23 0 36.5 15.5t21.5 34.5h43q-7 -20 -17 -38.5t-23.5 -33t-31 -23.5t-39.5 -9q-18 0 -35 7.5t-34 15.5q-16 9 -31.5 16t-31.5 7q-23 0 -36 -15.5t-21 -34.5h-43zM188 252 h310l-74 376zM31 0h-82l456 708h70l147 -708h-75l-38 186h-362z" glyph-name="Atilde" unicode="Ã" horiz-adv-x="695"/>
<glyph d="M608 849q0 -20 -14.5 -35t-34.5 -15t-33.5 12.5t-13.5 34.5t14.5 36.5t34.5 14.5t33.5 -13t13.5 -35zM410 849q0 -20 -14 -35t-34 -15t-34 12.5t-14 34.5t15 36.5t35 14.5t33 -13t13 -35zM188 252h310l-74 376zM31 0h-82l456 708h70l147 -708h-75l-38 186h-362z" glyph-name="Adieresis" unicode="Ä" horiz-adv-x="695"/>
<glyph d="M525 865q0 22 -14 37t-39 15q-31 0 -51 -24t-20 -57q0 -23 14 -37.5t38 -14.5q32 0 52 24t20 57zM451 754q-38 0 -61.5 22t-23.5 57q0 23 8 43.5t22.5 36t34 24.5t43.5 9q38 0 61.5 -22t23.5 -57q0 -47 -30 -80t-78 -33zM188 252h310l-74 376zM31 0h-82l456 708h70 l147 -708h-75l-38 186h-362z" glyph-name="Aring" unicode="Å" horiz-adv-x="695"/>
<glyph d="M511 261l68 384h-8l-315 -384h255zM465 0l35 200h-291l-163 -200h-89l586 708h445l-11 -63h-328l-43 -246h312l-11 -61h-312l-49 -275h354l-11 -63h-424z" glyph-name="AE" unicode="Æ" horiz-adv-x="990"/>
<glyph d="M659 112q-41 -51 -106.5 -88t-158.5 -41l-46 -58q8 2 15.5 3t15.5 1q12 0 25.5 -3.5t24 -11.5t17.5 -20.5t7 -31.5q0 -26 -11.5 -43.5t-29.5 -28t-39 -15.5t-40 -5q-20 0 -48.5 5t-48.5 15l19 36q16 -8 35.5 -11t38.5 -3q11 0 22.5 2t21.5 7.5t16 14t6 21.5 q0 20 -14.5 29t-35.5 9q-22 0 -44 -8l-15 15l65 81q-66 4 -120 27.5t-92.5 63t-59.5 93.5t-21 119q0 92 33 172t90.5 139.5t134.5 94t165 34.5q39 0 75.5 -8t67.5 -22.5t55.5 -35.5t39.5 -47l-65 -43q-8 17 -23.5 34t-37.5 30.5t-50.5 21.5t-63.5 8q-76 0 -139.5 -31.5 t-109 -83t-71 -118.5t-25.5 -138q0 -52 16 -97.5t47.5 -79t77 -53t105.5 -19.5q64 0 122 25.5t104 80.5z" glyph-name="Ccedilla" unicode="Ç" horiz-adv-x="720"/>
<glyph d="M258 908h88l100 -144h-56zM122 63h380l-11 -63h-451l125 708h425l-11 -63h-354l-43 -246h338l-11 -61h-338z" glyph-name="Egrave" unicode="È"/>
<glyph d="M401 764h-56l126 144h88zM122 63h380l-11 -63h-451l125 708h425l-11 -63h-354l-43 -246h338l-11 -61h-338z" glyph-name="Eacute" unicode="É"/>
<glyph d="M535 764h-63l-64 108l-102 -108h-69l135 144h80zM122 63h380l-11 -63h-451l125 708h425l-11 -63h-354l-43 -246h338l-11 -61h-338z" glyph-name="Ecircumflex" unicode="Ê"/>
<glyph d="M546 849q0 -20 -14.5 -35t-34.5 -15t-33.5 12.5t-13.5 34.5t14.5 36.5t34.5 14.5t33.5 -13t13.5 -35zM348 849q0 -20 -14 -35t-34 -15t-34 12.5t-14 34.5t15 36.5t35 14.5t33 -13t13 -35zM122 63h380l-11 -63h-451l125 708h425l-11 -63h-354l-43 -246h338l-11 -61h-338z " glyph-name="Edieresis" unicode="Ë"/>
<glyph d="M50 908h88l100 -144h-56zM111 0h-71l125 708h71z" glyph-name="Igrave" unicode="Ì" horiz-adv-x="260"/>
<glyph d="M229 764h-56l126 144h88zM111 0h-71l125 708h71z" glyph-name="Iacute" unicode="Í" horiz-adv-x="260"/>
<glyph d="M357 764h-63l-64 108l-102 -108h-69l135 144h80zM111 0h-71l125 708h71z" glyph-name="Icircumflex" unicode="Î" horiz-adv-x="260"/>
<glyph d="M367 849q0 -20 -14.5 -35t-34.5 -15t-33.5 12.5t-13.5 34.5t14.5 36.5t34.5 14.5t33.5 -13t13.5 -35zM169 849q0 -20 -14 -35t-34 -15t-34 12.5t-14 34.5t15 36.5t35 14.5t33 -13t13 -35zM111 0h-71l125 708h71z" glyph-name="Idieresis" unicode="Ï" horiz-adv-x="260"/>
<glyph d="M433 401l-10 -54h-251l-50 -284h160q86 0 151.5 29t110 76.5t67 109t22.5 126.5q0 49 -16 93t-49 77t-84 52t-121 19h-138l-43 -244h251zM31 347l10 54h70l54 307h214q60 0 119 -16.5t106 -52t76 -92t29 -135.5q0 -93 -32.5 -169t-90.5 -130t-137 -83.5t-172 -29.5h-237 l61 347h-70z" glyph-name="Eth" unicode="Ð" horiz-adv-x="757"/>
<glyph d="M291 776q7 19 16.5 38t23 33.5t30.5 23.5t40 9q18 0 35 -7t34 -16q17 -8 32.5 -15.5t30.5 -7.5q23 0 36.5 15.5t21.5 34.5h43q-7 -20 -17 -38.5t-23.5 -33t-31 -23.5t-39.5 -9q-18 0 -35 7.5t-34 15.5q-16 9 -31.5 16t-31.5 7q-23 0 -36 -15.5t-21 -34.5h-43zM546 101h2 l107 607h71l-125 -708h-89l-290 615h-2l-108 -615h-71l125 708h89z" glyph-name="Ntilde" unicode="Ñ" horiz-adv-x="750"/>
<glyph d="M351 908h88l100 -144h-56zM710 417q0 51 -16 96t-46.5 78.5t-76 53t-103.5 19.5q-75 0 -137 -31.5t-105.5 -83.5t-67.5 -119t-24 -138q0 -51 15.5 -96.5t46.5 -79t76 -53t104 -19.5q74 0 135.5 31t105.5 83t68.5 119.5t24.5 139.5zM373 -18q-69 0 -127 22t-100 62t-65 96 t-23 124q0 91 32 171.5t87.5 140t131 94t162.5 34.5q69 0 127 -21.5t99.5 -61.5t65 -95.5t23.5 -123.5q0 -91 -31 -171.5t-86 -140.5t-131 -95t-165 -35z" glyph-name="Ograve" unicode="Ò" horiz-adv-x="834"/>
<glyph d="M496 764h-56l126 144h88zM710 417q0 51 -16 96t-46.5 78.5t-76 53t-103.5 19.5q-75 0 -137 -31.5t-105.5 -83.5t-67.5 -119t-24 -138q0 -51 15.5 -96.5t46.5 -79t76 -53t104 -19.5q74 0 135.5 31t105.5 83t68.5 119.5t24.5 139.5zM373 -18q-69 0 -127 22t-100 62t-65 96 t-23 124q0 91 32 171.5t87.5 140t131 94t162.5 34.5q69 0 127 -21.5t99.5 -61.5t65 -95.5t23.5 -123.5q0 -91 -31 -171.5t-86 -140.5t-131 -95t-165 -35z" glyph-name="Oacute" unicode="Ó" horiz-adv-x="834"/>
<glyph d="M644 764h-63l-64 108l-102 -108h-69l135 144h80zM710 417q0 51 -16 96t-46.5 78.5t-76 53t-103.5 19.5q-75 0 -137 -31.5t-105.5 -83.5t-67.5 -119t-24 -138q0 -51 15.5 -96.5t46.5 -79t76 -53t104 -19.5q74 0 135.5 31t105.5 83t68.5 119.5t24.5 139.5zM373 -18 q-69 0 -127 22t-100 62t-65 96t-23 124q0 91 32 171.5t87.5 140t131 94t162.5 34.5q69 0 127 -21.5t99.5 -61.5t65 -95.5t23.5 -123.5q0 -91 -31 -171.5t-86 -140.5t-131 -95t-165 -35z" glyph-name="Ocircumflex" unicode="Ô" horiz-adv-x="834"/>
<glyph d="M332 776q7 19 16.5 38t23 33.5t30.5 23.5t40 9q18 0 35 -7t34 -16q17 -8 32.5 -15.5t30.5 -7.5q23 0 36.5 15.5t21.5 34.5h43q-7 -20 -17 -38.5t-23.5 -33t-31 -23.5t-39.5 -9q-18 0 -35 7.5t-34 15.5q-16 9 -31.5 16t-31.5 7q-23 0 -36 -15.5t-21 -34.5h-43zM710 417 q0 51 -16 96t-46.5 78.5t-76 53t-103.5 19.5q-75 0 -137 -31.5t-105.5 -83.5t-67.5 -119t-24 -138q0 -51 15.5 -96.5t46.5 -79t76 -53t104 -19.5q74 0 135.5 31t105.5 83t68.5 119.5t24.5 139.5zM373 -18q-69 0 -127 22t-100 62t-65 96t-23 124q0 91 32 171.5t87.5 140 t131 94t162.5 34.5q69 0 127 -21.5t99.5 -61.5t65 -95.5t23.5 -123.5q0 -91 -31 -171.5t-86 -140.5t-131 -95t-165 -35z" glyph-name="Otilde" unicode="Õ" horiz-adv-x="834"/>
<glyph d="M653 849q0 -20 -14.5 -35t-34.5 -15t-33.5 12.5t-13.5 34.5t14.5 36.5t34.5 14.5t33.5 -13t13.5 -35zM455 849q0 -20 -14 -35t-34 -15t-34 12.5t-14 34.5t15 36.5t35 14.5t33 -13t13 -35zM710 417q0 51 -16 96t-46.5 78.5t-76 53t-103.5 19.5q-75 0 -137 -31.5 t-105.5 -83.5t-67.5 -119t-24 -138q0 -51 15.5 -96.5t46.5 -79t76 -53t104 -19.5q74 0 135.5 31t105.5 83t68.5 119.5t24.5 139.5zM373 -18q-69 0 -127 22t-100 62t-65 96t-23 124q0 91 32 171.5t87.5 140t131 94t162.5 34.5q69 0 127 -21.5t99.5 -61.5t65 -95.5 t23.5 -123.5q0 -91 -31 -171.5t-86 -140.5t-131 -95t-165 -35z" glyph-name="Odieresis" unicode="Ö" horiz-adv-x="834"/>
<glyph d="M333 346l158 159l43 -42l-159 -160l159 -159l-43 -43l-158 159l-159 -159l-42 43l159 159l-159 160l42 42z" glyph-name="multiply" unicode="×" horiz-adv-x="666"/>
<glyph d="M652 595q-31 32 -75 50.5t-102 18.5q-75 0 -138 -31.5t-108 -83.5t-70 -119t-25 -138q0 -81 38 -143zM198 115q30 -33 74.5 -52t103.5 -19q74 0 136.5 31t108 83t71 119.5t25.5 139.5q0 80 -37 141zM735 608q28 -37 43 -83t15 -101q0 -91 -32 -171.5t-88.5 -140.5 t-133.5 -95t-166 -35q-70 0 -128 22t-100 63l-90 -85l-30 34l91 84q-28 38 -43 84.5t-15 101.5q0 91 33 171.5t90 140t133.5 94t163.5 34.5q69 0 127 -22t100 -62l90 84l30 -34z" glyph-name="Oslash" unicode="Ø" horiz-adv-x="834"/>
<glyph d="M292 908h88l100 -144h-56zM311 -18q-64 0 -108.5 19t-72.5 49.5t-40.5 69t-12.5 77.5q0 35 6 67l78 444h71l-77 -436q-6 -32 -6 -61q0 -34 8.5 -64t28 -53t51 -36.5t78.5 -13.5q56 0 95.5 18.5t66 50t42 73t23.5 86.5l77 436h71l-78 -444q-8 -44 -26.5 -93.5t-53 -91.5 t-88.5 -69.5t-133 -27.5z" glyph-name="Ugrave" unicode="Ù" horiz-adv-x="710"/>
<glyph d="M438 764h-56l126 144h88zM311 -18q-64 0 -108.5 19t-72.5 49.5t-40.5 69t-12.5 77.5q0 35 6 67l78 444h71l-77 -436q-6 -32 -6 -61q0 -34 8.5 -64t28 -53t51 -36.5t78.5 -13.5q56 0 95.5 18.5t66 50t42 73t23.5 86.5l77 436h71l-78 -444q-8 -44 -26.5 -93.5t-53 -91.5 t-88.5 -69.5t-133 -27.5z" glyph-name="Uacute" unicode="Ú" horiz-adv-x="710"/>
<glyph d="M583 764h-63l-64 108l-102 -108h-69l135 144h80zM311 -18q-64 0 -108.5 19t-72.5 49.5t-40.5 69t-12.5 77.5q0 35 6 67l78 444h71l-77 -436q-6 -32 -6 -61q0 -34 8.5 -64t28 -53t51 -36.5t78.5 -13.5q56 0 95.5 18.5t66 50t42 73t23.5 86.5l77 436h71l-78 -444 q-8 -44 -26.5 -93.5t-53 -91.5t-88.5 -69.5t-133 -27.5z" glyph-name="Ucircumflex" unicode="Û" horiz-adv-x="710"/>
<glyph d="M593 849q0 -20 -14.5 -35t-34.5 -15t-33.5 12.5t-13.5 34.5t14.5 36.5t34.5 14.5t33.5 -13t13.5 -35zM395 849q0 -20 -14 -35t-34 -15t-34 12.5t-14 34.5t15 36.5t35 14.5t33 -13t13 -35zM311 -18q-64 0 -108.5 19t-72.5 49.5t-40.5 69t-12.5 77.5q0 35 6 67l78 444h71 l-77 -436q-6 -32 -6 -61q0 -34 8.5 -64t28 -53t51 -36.5t78.5 -13.5q56 0 95.5 18.5t66 50t42 73t23.5 86.5l77 436h71l-78 -444q-8 -44 -26.5 -93.5t-53 -91.5t-88.5 -69.5t-133 -27.5z" glyph-name="Udieresis" unicode="Ü" horiz-adv-x="710"/>
<glyph d="M369 764h-56l126 144h88zM247 0h-71l54 305l-180 403h84l141 -344l283 344h89l-346 -403z" glyph-name="Yacute" unicode="Ý" horiz-adv-x="557"/>
<glyph d="M153 233h130q90 0 140.5 36t50.5 106q0 65 -41 91t-111 26h-123zM112 0h-71l125 708h71l-27 -155h118q104 0 161 -45t57 -125q0 -52 -20 -91t-55.5 -65.5t-85 -39.5t-108.5 -13h-134z" glyph-name="Thorn" unicode="Þ"/>
<glyph d="M96 0h-66l96 544q7 39 22 79t42.5 72t68 52.5t98.5 20.5q42 0 75.5 -12t57.5 -33.5t36.5 -51.5t12.5 -65q0 -66 -40 -111.5t-107 -62.5v-2q64 -13 101 -62t37 -117q0 -62 -21 -111t-57.5 -82.5t-87.5 -51.5t-111 -18q-12 0 -31.5 1.5t-30.5 3.5l10 57q9 -2 24.5 -3 t26.5 -1q37 0 74 10t66.5 34t48 62.5t18.5 95.5q0 67 -44.5 109t-121.5 42h-9l11 60h8q33 0 63 9t53 27t36.5 44t13.5 60q0 54 -31.5 81.5t-82.5 27.5q-43 0 -72 -16t-48 -40.5t-29 -54t-14 -55.5z" glyph-name="germandbls" unicode="ß" horiz-adv-x="593"/>
<glyph d="M169 708h88l100 -144h-56zM358 236q-45 0 -92 -4.5t-85.5 -17t-63 -35t-24.5 -59.5q0 -22 8 -36.5t21.5 -23t31 -12t35.5 -3.5q36 0 66 12t53 33t38 48.5t21 58.5l7 39h-16zM383 287q3 17 4 26.5t1 17.5q0 51 -29 72t-81 21q-42 0 -81 -16.5t-65 -39.5l-30 45 q34 30 84 48.5t99 18.5q33 0 63.5 -7.5t53 -24t36 -42t13.5 -61.5q0 -9 -1 -24.5t-3 -25.5l-34 -190q-5 -27 -8 -56t-3 -49h-60q0 17 1.5 37t4.5 39h-2q-20 -23 -40 -39.5t-41.5 -26.5t-46 -14.5t-53.5 -4.5q-24 0 -49 6t-45.5 20.5t-34 37.5t-13.5 57q0 56 32 90.5t83.5 53 t115.5 25t129 6.5z" glyph-name="agrave" unicode="à" horiz-adv-x="534"/>
<glyph d="M314 564h-56l126 144h88zM358 236q-45 0 -92 -4.5t-85.5 -17t-63 -35t-24.5 -59.5q0 -22 8 -36.5t21.5 -23t31 -12t35.5 -3.5q36 0 66 12t53 33t38 48.5t21 58.5l7 39h-16zM383 287q3 17 4 26.5t1 17.5q0 51 -29 72t-81 21q-42 0 -81 -16.5t-65 -39.5l-30 45 q34 30 84 48.5t99 18.5q33 0 63.5 -7.5t53 -24t36 -42t13.5 -61.5q0 -9 -1 -24.5t-3 -25.5l-34 -190q-5 -27 -8 -56t-3 -49h-60q0 17 1.5 37t4.5 39h-2q-20 -23 -40 -39.5t-41.5 -26.5t-46 -14.5t-53.5 -4.5q-24 0 -49 6t-45.5 20.5t-34 37.5t-13.5 57q0 56 32 90.5t83.5 53 t115.5 25t129 6.5z" glyph-name="aacute" unicode="á" horiz-adv-x="534"/>
<glyph d="M462 564h-63l-64 108l-102 -108h-69l135 144h80zM358 236q-45 0 -92 -4.5t-85.5 -17t-63 -35t-24.5 -59.5q0 -22 8 -36.5t21.5 -23t31 -12t35.5 -3.5q36 0 66 12t53 33t38 48.5t21 58.5l7 39h-16zM383 287q3 17 4 26.5t1 17.5q0 51 -29 72t-81 21q-42 0 -81 -16.5 t-65 -39.5l-30 45q34 30 84 48.5t99 18.5q33 0 63.5 -7.5t53 -24t36 -42t13.5 -61.5q0 -9 -1 -24.5t-3 -25.5l-34 -190q-5 -27 -8 -56t-3 -49h-60q0 17 1.5 37t4.5 39h-2q-20 -23 -40 -39.5t-41.5 -26.5t-46 -14.5t-53.5 -4.5q-24 0 -49 6t-45.5 20.5t-34 37.5t-13.5 57 q0 56 32 90.5t83.5 53t115.5 25t129 6.5z" glyph-name="acircumflex" unicode="â" horiz-adv-x="534"/>
<glyph d="M150 576q7 19 16.5 38t23 33.5t30.5 23.5t40 9q18 0 35 -7t34 -16q17 -8 32.5 -15.5t30.5 -7.5q23 0 36.5 15.5t21.5 34.5h43q-7 -20 -17 -38.5t-23.5 -33t-31 -23.5t-39.5 -9q-18 0 -35 7.5t-34 15.5q-16 9 -31.5 16t-31.5 7q-23 0 -36 -15.5t-21 -34.5h-43zM358 236 q-45 0 -92 -4.5t-85.5 -17t-63 -35t-24.5 -59.5q0 -22 8 -36.5t21.5 -23t31 -12t35.5 -3.5q36 0 66 12t53 33t38 48.5t21 58.5l7 39h-16zM383 287q3 17 4 26.5t1 17.5q0 51 -29 72t-81 21q-42 0 -81 -16.5t-65 -39.5l-30 45q34 30 84 48.5t99 18.5q33 0 63.5 -7.5t53 -24 t36 -42t13.5 -61.5q0 -9 -1 -24.5t-3 -25.5l-34 -190q-5 -27 -8 -56t-3 -49h-60q0 17 1.5 37t4.5 39h-2q-20 -23 -40 -39.5t-41.5 -26.5t-46 -14.5t-53.5 -4.5q-24 0 -49 6t-45.5 20.5t-34 37.5t-13.5 57q0 56 32 90.5t83.5 53t115.5 25t129 6.5z" glyph-name="atilde" unicode="ã" horiz-adv-x="534"/>
<glyph d="M471 649q0 -20 -14.5 -35t-34.5 -15t-33.5 12.5t-13.5 34.5t14.5 36.5t34.5 14.5t33.5 -13t13.5 -35zM273 649q0 -20 -14 -35t-34 -15t-34 12.5t-14 34.5t15 36.5t35 14.5t33 -13t13 -35zM358 236q-45 0 -92 -4.5t-85.5 -17t-63 -35t-24.5 -59.5q0 -22 8 -36.5t21.5 -23 t31 -12t35.5 -3.5q36 0 66 12t53 33t38 48.5t21 58.5l7 39h-16zM383 287q3 17 4 26.5t1 17.5q0 51 -29 72t-81 21q-42 0 -81 -16.5t-65 -39.5l-30 45q34 30 84 48.5t99 18.5q33 0 63.5 -7.5t53 -24t36 -42t13.5 -61.5q0 -9 -1 -24.5t-3 -25.5l-34 -190q-5 -27 -8 -56t-3 -49 h-60q0 17 1.5 37t4.5 39h-2q-20 -23 -40 -39.5t-41.5 -26.5t-46 -14.5t-53.5 -4.5q-24 0 -49 6t-45.5 20.5t-34 37.5t-13.5 57q0 56 32 90.5t83.5 53t115.5 25t129 6.5z" glyph-name="adieresis" unicode="ä" horiz-adv-x="534"/>
<glyph d="M388 665q0 22 -14 37t-39 15q-31 0 -51 -24t-20 -57q0 -23 14 -37.5t38 -14.5q32 0 52 24t20 57zM314 554q-38 0 -61.5 22t-23.5 57q0 23 8 43.5t22.5 36t34 24.5t43.5 9q38 0 61.5 -22t23.5 -57q0 -47 -30 -80t-78 -33zM358 236q-45 0 -92 -4.5t-85.5 -17t-63 -35 t-24.5 -59.5q0 -22 8 -36.5t21.5 -23t31 -12t35.5 -3.5q36 0 66 12t53 33t38 48.5t21 58.5l7 39h-16zM383 287q3 17 4 26.5t1 17.5q0 51 -29 72t-81 21q-42 0 -81 -16.5t-65 -39.5l-30 45q34 30 84 48.5t99 18.5q33 0 63.5 -7.5t53 -24t36 -42t13.5 -61.5q0 -9 -1 -24.5 t-3 -25.5l-34 -190q-5 -27 -8 -56t-3 -49h-60q0 17 1.5 37t4.5 39h-2q-20 -23 -40 -39.5t-41.5 -26.5t-46 -14.5t-53.5 -4.5q-24 0 -49 6t-45.5 20.5t-34 37.5t-13.5 57q0 56 32 90.5t83.5 53t115.5 25t129 6.5z" glyph-name="aring" unicode="å" horiz-adv-x="534"/>
<glyph d="M749 266q1 8 1.5 17.5t0.5 17.5q0 54 -33 88.5t-97 34.5q-35 0 -64.5 -12.5t-53 -34.5t-39.5 -50.5t-23 -60.5h308zM354 216q-51 0 -98.5 -4t-83.5 -14.5t-57.5 -29t-21.5 -48.5q0 -22 8 -36.5t21.5 -23t31 -12t35.5 -3.5q36 0 66.5 11.5t53.5 32t38 48t20 60.5l3 19h-16 zM442 389q13 19 33.5 35.5t45 29t50.5 19.5t52 7q96 0 145.5 -51t49.5 -132q0 -12 -2 -36.5t-7 -44.5h-377q-1 -6 -1.5 -11.5t-0.5 -10.5q0 -33 10 -60t28.5 -47t44.5 -31t58 -11q55 0 96 24.5t66 57.5l42 -40q-41 -49 -95 -74t-115 -25q-31 0 -59 9t-51.5 25t-40 37.5 t-25.5 46.5q-29 -53 -80.5 -84t-128.5 -31q-28 0 -56 6t-50.5 20.5t-36.5 37.5t-14 57q0 52 31.5 82.5t81.5 46.5t113.5 20.5t128.5 4.5q4 17 7 37t3 28q0 51 -29 72t-81 21q-42 0 -81 -16.5t-65 -39.5l-30 45q34 30 84 48.5t99 18.5q54 0 97 -21.5t60 -69.5z" glyph-name="ae" unicode="æ" horiz-adv-x="884"/>
<glyph d="M426 362q-12 27 -41.5 44.5t-67.5 17.5q-45 0 -83 -18t-65.5 -49.5t-43 -73t-15.5 -88.5q0 -32 10 -59.5t29.5 -47.5t47.5 -31.5t64 -11.5q45 0 79 17t59 44l43 -37q-35 -35 -77.5 -57t-98.5 -24l-50 -63q8 2 15.5 3t15.5 1q12 0 25.5 -3.5t24 -11.5t17.5 -20.5t7 -31.5 q0 -26 -11.5 -43.5t-29.5 -28t-39 -15.5t-40 -5q-20 0 -48.5 5t-48.5 15l19 36q16 -8 35.5 -11t38.5 -3q11 0 22.5 2t21.5 7.5t16 14t6 21.5q0 20 -14.5 29t-35.5 9q-22 0 -44 -8l-15 15l70 88q-43 4 -77 20t-58 42t-37 61t-13 76q0 60 20 113t56.5 92.5t88.5 62.5t115 23 q52 0 97.5 -19t68.5 -60z" glyph-name="ccedilla" unicode="ç" horiz-adv-x="500"/>
<glyph d="M173 708h88l100 -144h-56zM431 266q1 8 1.5 17.5t0.5 17.5q0 54 -33 88.5t-97 34.5q-37 0 -68.5 -12.5t-56 -34.5t-41.5 -50.5t-24 -60.5h318zM104 216q-1 -6 -1.5 -11.5t-0.5 -10.5q0 -33 11.5 -60t32 -47t48 -31t59.5 -11q55 0 96 24.5t66 57.5l42 -40q-41 -49 -95 -74 t-115 -25q-45 0 -84 14t-67.5 40t-45 64.5t-16.5 87.5q0 57 21 109t57.5 91t86 62.5t106.5 23.5q96 0 145.5 -51t49.5 -132q0 -12 -2 -36.5t-7 -44.5h-387z" glyph-name="egrave" unicode="è" horiz-adv-x="566"/>
<glyph d="M324 564h-56l126 144h88zM431 266q1 8 1.5 17.5t0.5 17.5q0 54 -33 88.5t-97 34.5q-37 0 -68.5 -12.5t-56 -34.5t-41.5 -50.5t-24 -60.5h318zM104 216q-1 -6 -1.5 -11.5t-0.5 -10.5q0 -33 11.5 -60t32 -47t48 -31t59.5 -11q55 0 96 24.5t66 57.5l42 -40q-41 -49 -95 -74 t-115 -25q-45 0 -84 14t-67.5 40t-45 64.5t-16.5 87.5q0 57 21 109t57.5 91t86 62.5t106.5 23.5q96 0 145.5 -51t49.5 -132q0 -12 -2 -36.5t-7 -44.5h-387z" glyph-name="eacute" unicode="é" horiz-adv-x="566"/>
<glyph d="M483 564h-63l-64 108l-102 -108h-69l135 144h80zM431 266q1 8 1.5 17.5t0.5 17.5q0 54 -33 88.5t-97 34.5q-37 0 -68.5 -12.5t-56 -34.5t-41.5 -50.5t-24 -60.5h318zM104 216q-1 -6 -1.5 -11.5t-0.5 -10.5q0 -33 11.5 -60t32 -47t48 -31t59.5 -11q55 0 96 24.5t66 57.5 l42 -40q-41 -49 -95 -74t-115 -25q-45 0 -84 14t-67.5 40t-45 64.5t-16.5 87.5q0 57 21 109t57.5 91t86 62.5t106.5 23.5q96 0 145.5 -51t49.5 -132q0 -12 -2 -36.5t-7 -44.5h-387z" glyph-name="ecircumflex" unicode="ê" horiz-adv-x="566"/>
<glyph d="M490 649q0 -20 -14.5 -35t-34.5 -15t-33.5 12.5t-13.5 34.5t14.5 36.5t34.5 14.5t33.5 -13t13.5 -35zM292 649q0 -20 -14 -35t-34 -15t-34 12.5t-14 34.5t15 36.5t35 14.5t33 -13t13 -35zM431 266q1 8 1.5 17.5t0.5 17.5q0 54 -33 88.5t-97 34.5q-37 0 -68.5 -12.5 t-56 -34.5t-41.5 -50.5t-24 -60.5h318zM104 216q-1 -6 -1.5 -11.5t-0.5 -10.5q0 -33 11.5 -60t32 -47t48 -31t59.5 -11q55 0 96 24.5t66 57.5l42 -40q-41 -49 -95 -74t-115 -25q-45 0 -84 14t-67.5 40t-45 64.5t-16.5 87.5q0 57 21 109t57.5 91t86 62.5t106.5 23.5 q96 0 145.5 -51t49.5 -132q0 -12 -2 -36.5t-7 -44.5h-387z" glyph-name="edieresis" unicode="ë" horiz-adv-x="566"/>
<glyph d="M19 708h88l100 -144h-56zM104 0h-67l83 468h67z" glyph-name="igrave" unicode="ì" horiz-adv-x="250"/>
<glyph d="M188 564h-56l126 144h88zM104 0h-67l83 468h67z" glyph-name="iacute" unicode="í" horiz-adv-x="250"/>
<glyph d="M319 564h-63l-64 108l-102 -108h-69l135 144h80zM104 0h-67l83 468h67z" glyph-name="icircumflex" unicode="î" horiz-adv-x="250"/>
<glyph d="M327 649q0 -20 -14.5 -35t-34.5 -15t-33.5 12.5t-13.5 34.5t14.5 36.5t34.5 14.5t33.5 -13t13.5 -35zM129 649q0 -20 -14 -35t-34 -15t-34 12.5t-14 34.5t15 36.5t35 14.5t33 -13t13 -35zM104 0h-67l83 468h67z" glyph-name="idieresis" unicode="ï" horiz-adv-x="250"/>
<glyph d="M467 274q0 32 -10 59.5t-29.5 47.5t-47.5 31.5t-63 11.5q-44 0 -81 -18.5t-64 -50t-42.5 -73t-15.5 -87.5q0 -32 10 -59.5t29.5 -47.5t47 -31.5t62.5 -11.5q45 0 82.5 18.5t64.5 49.5t42 72.5t15 88.5zM321 480q48 0 81 -14t64 -44l3 2q-17 57 -48.5 110.5t-72.5 95.5 l-122 -57l-30 36l120 56q-20 23 -43.5 42t-42.5 34l61 37q23 -20 45 -40.5t41 -41.5l111 53l34 -35l-113 -54q61 -67 96.5 -153t35.5 -182q0 -60 -14.5 -120t-48 -108.5t-87.5 -78.5t-132 -30q-47 0 -87 15t-68.5 41.5t-44.5 64t-16 82.5q0 59 20.5 111.5t57.5 92t88 62.5 t112 23z" glyph-name="eth" unicode="ð" horiz-adv-x="596"/>
<glyph d="M168 576q7 19 16.5 38t23 33.5t30.5 23.5t40 9q18 0 35 -7t34 -16q17 -8 32.5 -15.5t30.5 -7.5q23 0 36.5 15.5t21.5 34.5h43q-7 -20 -17 -38.5t-23.5 -33t-31 -23.5t-39.5 -9q-18 0 -35 7.5t-34 15.5q-16 9 -31.5 16t-31.5 7q-23 0 -36 -15.5t-21 -34.5h-43zM180 468 q-2 -19 -5 -42t-6 -38h2q27 43 69.5 67.5t90.5 24.5q76 0 118.5 -38.5t42.5 -104.5q0 -12 -1.5 -24t-3.5 -26l-51 -287h-67l46 259q6 31 6 59q0 49 -23 77.5t-81 28.5q-27 0 -54 -11t-50.5 -34t-41.5 -57.5t-26 -81.5l-42 -240h-67l64 365q4 19 8.5 49t6.5 54h65z" glyph-name="ntilde" unicode="ñ" horiz-adv-x="577"/>
<glyph d="M185 708h88l100 -144h-56zM458 274q0 32 -10 59.5t-29.5 47.5t-47.5 31.5t-63 11.5q-44 0 -81 -18.5t-64 -50t-42.5 -73t-15.5 -87.5q0 -32 10 -59.5t29.5 -47.5t47 -31.5t62.5 -11.5q45 0 82.5 18.5t64.5 49.5t42 72.5t15 88.5zM250 -12q-47 0 -87 15t-68.5 41.5 t-44.5 64t-16 82.5q0 59 20.5 111.5t57.5 92t88 62.5t112 23q48 0 87.5 -14.5t68 -41.5t44.5 -64t16 -82q0 -60 -20.5 -113t-57.5 -92t-88 -62t-112 -23z" glyph-name="ograve" unicode="ò" horiz-adv-x="596"/>
<glyph d="M338 564h-56l126 144h88zM458 274q0 32 -10 59.5t-29.5 47.5t-47.5 31.5t-63 11.5q-44 0 -81 -18.5t-64 -50t-42.5 -73t-15.5 -87.5q0 -32 10 -59.5t29.5 -47.5t47 -31.5t62.5 -11.5q45 0 82.5 18.5t64.5 49.5t42 72.5t15 88.5zM250 -12q-47 0 -87 15t-68.5 41.5 t-44.5 64t-16 82.5q0 59 20.5 111.5t57.5 92t88 62.5t112 23q48 0 87.5 -14.5t68 -41.5t44.5 -64t16 -82q0 -60 -20.5 -113t-57.5 -92t-88 -62t-112 -23z" glyph-name="oacute" unicode="ó" horiz-adv-x="596"/>
<glyph d="M493 564h-63l-64 108l-102 -108h-69l135 144h80zM458 274q0 32 -10 59.5t-29.5 47.5t-47.5 31.5t-63 11.5q-44 0 -81 -18.5t-64 -50t-42.5 -73t-15.5 -87.5q0 -32 10 -59.5t29.5 -47.5t47 -31.5t62.5 -11.5q45 0 82.5 18.5t64.5 49.5t42 72.5t15 88.5zM250 -12 q-47 0 -87 15t-68.5 41.5t-44.5 64t-16 82.5q0 59 20.5 111.5t57.5 92t88 62.5t112 23q48 0 87.5 -14.5t68 -41.5t44.5 -64t16 -82q0 -60 -20.5 -113t-57.5 -92t-88 -62t-112 -23z" glyph-name="ocircumflex" unicode="ô" horiz-adv-x="596"/>
<glyph d="M174 576q7 19 16.5 38t23 33.5t30.5 23.5t40 9q18 0 35 -7t34 -16q17 -8 32.5 -15.5t30.5 -7.5q23 0 36.5 15.5t21.5 34.5h43q-7 -20 -17 -38.5t-23.5 -33t-31 -23.5t-39.5 -9q-18 0 -35 7.5t-34 15.5q-16 9 -31.5 16t-31.5 7q-23 0 -36 -15.5t-21 -34.5h-43zM458 274 q0 32 -10 59.5t-29.5 47.5t-47.5 31.5t-63 11.5q-44 0 -81 -18.5t-64 -50t-42.5 -73t-15.5 -87.5q0 -32 10 -59.5t29.5 -47.5t47 -31.5t62.5 -11.5q45 0 82.5 18.5t64.5 49.5t42 72.5t15 88.5zM250 -12q-47 0 -87 15t-68.5 41.5t-44.5 64t-16 82.5q0 59 20.5 111.5t57.5 92 t88 62.5t112 23q48 0 87.5 -14.5t68 -41.5t44.5 -64t16 -82q0 -60 -20.5 -113t-57.5 -92t-88 -62t-112 -23z" glyph-name="otilde" unicode="õ" horiz-adv-x="596"/>
<glyph d="M495 649q0 -20 -14.5 -35t-34.5 -15t-33.5 12.5t-13.5 34.5t14.5 36.5t34.5 14.5t33.5 -13t13.5 -35zM297 649q0 -20 -14 -35t-34 -15t-34 12.5t-14 34.5t15 36.5t35 14.5t33 -13t13 -35zM458 274q0 32 -10 59.5t-29.5 47.5t-47.5 31.5t-63 11.5q-44 0 -81 -18.5t-64 -50 t-42.5 -73t-15.5 -87.5q0 -32 10 -59.5t29.5 -47.5t47 -31.5t62.5 -11.5q45 0 82.5 18.5t64.5 49.5t42 72.5t15 88.5zM250 -12q-47 0 -87 15t-68.5 41.5t-44.5 64t-16 82.5q0 59 20.5 111.5t57.5 92t88 62.5t112 23q48 0 87.5 -14.5t68 -41.5t44.5 -64t16 -82 q0 -60 -20.5 -113t-57.5 -92t-88 -62t-112 -23z" glyph-name="odieresis" unicode="ö" horiz-adv-x="596"/>
<glyph d="M387 141q0 -21 -15 -37.5t-39 -16.5t-39 16.5t-15 37.5t15 37.5t39 16.5t39 -16.5t15 -37.5zM387 465q0 -21 -15 -37.5t-39 -16.5t-39 16.5t-15 37.5t15 37.5t39 16.5t39 -16.5t15 -37.5zM588 273h-510v60h510v-60z" glyph-name="divide" unicode="÷" horiz-adv-x="666"/>
<glyph d="M416 383q-20 20 -46.5 30.5t-61.5 10.5q-44 0 -81 -18.5t-64 -50t-42.5 -73t-15.5 -87.5q0 -44 18 -77zM146 87q19 -20 46 -31t62 -11q45 0 82.5 18.5t64.5 49.5t42 72.5t15 88.5q0 43 -18 76zM491 397q37 -49 37 -119q0 -60 -20.5 -113t-57.5 -92t-88 -62t-112 -23 q-92 0 -151 53l-79 -69l-25 31l77 67q-18 24 -28 55t-10 66q0 59 20.5 111.5t57.5 92t88 62.5t112 23q47 0 85.5 -13.5t67.5 -39.5l77 69l26 -31z" glyph-name="oslash" unicode="ø" horiz-adv-x="596"/>
<glyph d="M160 708h88l100 -144h-56zM364 0q2 19 5 42t6 38h-2q-27 -43 -69.5 -67.5t-90.5 -24.5q-76 0 -118.5 38.5t-42.5 104.5q0 12 1.5 24t3.5 26l51 287h67l-46 -259q-6 -32 -6 -59q0 -49 23 -77t81 -28q27 0 54 11t50.5 33.5t41.5 57t26 81.5l42 240h67l-64 -365 q-4 -19 -8.5 -49t-6.5 -54h-65z" glyph-name="ugrave" unicode="ù" horiz-adv-x="577"/>
<glyph d="M331 564h-56l126 144h88zM364 0q2 19 5 42t6 38h-2q-27 -43 -69.5 -67.5t-90.5 -24.5q-76 0 -118.5 38.5t-42.5 104.5q0 12 1.5 24t3.5 26l51 287h67l-46 -259q-6 -32 -6 -59q0 -49 23 -77t81 -28q27 0 54 11t50.5 33.5t41.5 57t26 81.5l42 240h67l-64 -365 q-4 -19 -8.5 -49t-6.5 -54h-65z" glyph-name="uacute" unicode="ú" horiz-adv-x="577"/>
<glyph d="M478 564h-63l-64 108l-102 -108h-69l135 144h80zM364 0q2 19 5 42t6 38h-2q-27 -43 -69.5 -67.5t-90.5 -24.5q-76 0 -118.5 38.5t-42.5 104.5q0 12 1.5 24t3.5 26l51 287h67l-46 -259q-6 -32 -6 -59q0 -49 23 -77t81 -28q27 0 54 11t50.5 33.5t41.5 57t26 81.5l42 240h67 l-64 -365q-4 -19 -8.5 -49t-6.5 -54h-65z" glyph-name="ucircumflex" unicode="û" horiz-adv-x="577"/>
<glyph d="M484 649q0 -20 -14.5 -35t-34.5 -15t-33.5 12.5t-13.5 34.5t14.5 36.5t34.5 14.5t33.5 -13t13.5 -35zM286 649q0 -20 -14 -35t-34 -15t-34 12.5t-14 34.5t15 36.5t35 14.5t33 -13t13 -35zM364 0q2 19 5 42t6 38h-2q-27 -43 -69.5 -67.5t-90.5 -24.5q-76 0 -118.5 38.5 t-42.5 104.5q0 12 1.5 24t3.5 26l51 287h67l-46 -259q-6 -32 -6 -59q0 -49 23 -77t81 -28q27 0 54 11t50.5 33.5t41.5 57t26 81.5l42 240h67l-64 -365q-4 -19 -8.5 -49t-6.5 -54h-65z" glyph-name="udieresis" unicode="ü" horiz-adv-x="577"/>
<glyph d="M295 564h-56l126 144h88zM189 74h2l228 394h75l-354 -589q-33 -54 -68 -86.5t-87 -32.5q-29 0 -57 6l10 62q22 -8 44 -8q32 0 55.5 21.5t46.5 61.5l58 98l-98 467h70z" glyph-name="yacute" unicode="ý" horiz-adv-x="483"/>
<glyph d="M490 274q0 31 -9.5 58.5t-28.5 48t-46 32t-63 11.5q-44 0 -82 -18t-66 -49.5t-44 -73t-16 -87.5q0 -33 10.5 -60.5t30.5 -48t47.5 -31.5t62.5 -11q46 0 83.5 18t64.5 49t41.5 72.5t14.5 89.5zM177 392q11 18 29 34t40.5 28t48.5 19t54 7q48 0 86.5 -14.5t66.5 -41.5 t43 -64t15 -82q0 -60 -21 -113t-57.5 -92t-87 -62t-109.5 -23q-51 0 -95.5 23t-67.5 68h-2l-57 -319h-67l175 996h67l-63 -364h2z" glyph-name="thorn" unicode="þ" horiz-adv-x="628"/>
<glyph d="M437 649q0 -20 -14.5 -35t-34.5 -15t-33.5 12.5t-13.5 34.5t14.5 36.5t34.5 14.5t33.5 -13t13.5 -35zM239 649q0 -20 -14 -35t-34 -15t-34 12.5t-14 34.5t15 36.5t35 14.5t33 -13t13 -35zM189 74h2l228 394h75l-354 -589q-33 -54 -68 -86.5t-87 -32.5q-29 0 -57 6l10 62 q22 -8 44 -8q32 0 55.5 21.5t46.5 61.5l58 98l-98 467h70z" glyph-name="ydieresis" unicode="ÿ" horiz-adv-x="483"/>
<glyph d="M584 800h-270l9 54h270zM188 252h310l-74 376zM31 0h-82l456 708h70l147 -708h-75l-38 186h-362z" glyph-name="Amacron" unicode="Ā" horiz-adv-x="695"/>
<glyph d="M447 600h-270l9 54h270zM358 236q-45 0 -92 -4.5t-85.5 -17t-63 -35t-24.5 -59.5q0 -22 8 -36.5t21.5 -23t31 -12t35.5 -3.5q36 0 66 12t53 33t38 48.5t21 58.5l7 39h-16zM383 287q3 17 4 26.5t1 17.5q0 51 -29 72t-81 21q-42 0 -81 -16.5t-65 -39.5l-30 45 q34 30 84 48.5t99 18.5q33 0 63.5 -7.5t53 -24t36 -42t13.5 -61.5q0 -9 -1 -24.5t-3 -25.5l-34 -190q-5 -27 -8 -56t-3 -49h-60q0 17 1.5 37t4.5 39h-2q-20 -23 -40 -39.5t-41.5 -26.5t-46 -14.5t-53.5 -4.5q-24 0 -49 6t-45.5 20.5t-34 37.5t-13.5 57q0 56 32 90.5t83.5 53 t115.5 25t129 6.5z" glyph-name="amacron" unicode="ā" horiz-adv-x="534"/>
<glyph d="M607 908q-5 -29 -19.5 -53.5t-36 -42t-49 -27t-57.5 -9.5q-62 0 -97 33t-35 99h44q0 -44 25.5 -61t63.5 -17q41 0 75 19.5t42 58.5h44zM188 252h310l-74 376zM31 0h-82l456 708h70l147 -708h-75l-38 186h-362z" glyph-name="Abreve" unicode="Ă" horiz-adv-x="695"/>
<glyph d="M471 708q-5 -29 -19.5 -53.5t-36 -42t-49 -27t-57.5 -9.5q-62 0 -97 33t-35 99h44q0 -44 25.5 -61t63.5 -17q41 0 75 19.5t42 58.5h44zM358 236q-45 0 -92 -4.5t-85.5 -17t-63 -35t-24.5 -59.5q0 -22 8 -36.5t21.5 -23t31 -12t35.5 -3.5q36 0 66 12t53 33t38 48.5 t21 58.5l7 39h-16zM383 287q3 17 4 26.5t1 17.5q0 51 -29 72t-81 21q-42 0 -81 -16.5t-65 -39.5l-30 45q34 30 84 48.5t99 18.5q33 0 63.5 -7.5t53 -24t36 -42t13.5 -61.5q0 -9 -1 -24.5t-3 -25.5l-34 -190q-5 -27 -8 -56t-3 -49h-60q0 17 1.5 37t4.5 39h-2 q-20 -23 -40 -39.5t-41.5 -26.5t-46 -14.5t-53.5 -4.5q-24 0 -49 6t-45.5 20.5t-34 37.5t-13.5 57q0 56 32 90.5t83.5 53t115.5 25t129 6.5z" glyph-name="abreve" unicode="ă" horiz-adv-x="534"/>
<glyph d="M188 252h310l-74 376zM605 -187q-20 -17 -44.5 -26.5t-47.5 -9.5q-30 0 -54.5 17t-24.5 52q0 25 11 47.5t28 42t36.5 36t37.5 28.5l-38 186h-362l-116 -186h-82l456 708h70l147 -708h-27q-44 -37 -72 -71t-28 -63q0 -21 13.5 -28t29.5 -7q14 0 29 5.5t26 16.5z" glyph-name="Aogonek" unicode="Ą" horiz-adv-x="695"/>
<glyph d="M358 236q-45 0 -92 -4.5t-85.5 -17t-63 -35t-24.5 -59.5q0 -22 8 -36.5t21.5 -23t31 -12t35.5 -3.5q36 0 66 12t53 33t38 48.5t21 58.5l7 39h-16zM400 -187q-20 -17 -44.5 -26.5t-47.5 -9.5q-30 0 -54.5 17t-24.5 52q0 25 11 47.5t28 42t36.5 36t37.5 28.5q0 17 1.5 37 t4.5 39h-2q-20 -23 -40 -39.5t-41.5 -26.5t-46 -14.5t-53.5 -4.5q-24 0 -49 6t-45.5 20.5t-34 37.5t-13.5 57q0 56 32 90.5t83.5 53t115.5 25t129 6.5q3 17 4 26.5t1 17.5q0 51 -29 72t-81 21q-42 0 -81 -16.5t-65 -39.5l-30 45q34 30 84 48.5t99 18.5q33 0 63.5 -7.5 t53 -24t36 -42t13.5 -61.5q0 -9 -1 -24.5t-3 -25.5l-34 -190q-5 -27 -8 -56t-3 -49h-12q-44 -37 -72 -71t-28 -63q0 -21 13.5 -28t29.5 -7q14 0 29 5.5t26 16.5z" glyph-name="aogonek" unicode="ą" horiz-adv-x="534"/>
<glyph d="M493 764h-56l126 144h88zM659 112q-21 -27 -49 -50.5t-63.5 -41t-78 -28t-92.5 -10.5q-71 0 -129.5 22t-100.5 62t-65 96t-23 124q0 92 33 172t90.5 139.5t134.5 94t165 34.5q39 0 75.5 -8t67.5 -22.5t55.5 -35.5t39.5 -47l-65 -43q-8 17 -23.5 34t-37.5 30.5t-50.5 21.5 t-63.5 8q-76 0 -139.5 -31.5t-109 -83t-71 -118.5t-25.5 -138q0 -52 16 -97.5t47.5 -79t77 -53t105.5 -19.5q64 0 122 25.5t104 80.5z" glyph-name="Cacute" unicode="Ć" horiz-adv-x="720"/>
<glyph d="M338 564h-56l126 144h88zM426 362q-12 27 -41.5 44.5t-67.5 17.5q-45 0 -83 -18t-65.5 -49.5t-43 -73t-15.5 -88.5q0 -32 10 -59.5t29.5 -47.5t47.5 -31.5t64 -11.5q45 0 79 17t59 44l43 -37q-36 -37 -81 -59t-105 -22q-50 0 -90 14.5t-68.5 41t-43.5 63.5t-15 82 q0 60 20 113t56.5 92.5t88.5 62.5t115 23q52 0 97.5 -19t68.5 -60z" glyph-name="cacute" unicode="ć" horiz-adv-x="500"/>
<glyph d="M636 764h-63l-64 108l-102 -108h-69l135 144h80zM659 112q-21 -27 -49 -50.5t-63.5 -41t-78 -28t-92.5 -10.5q-71 0 -129.5 22t-100.5 62t-65 96t-23 124q0 92 33 172t90.5 139.5t134.5 94t165 34.5q39 0 75.5 -8t67.5 -22.5t55.5 -35.5t39.5 -47l-65 -43q-8 17 -23.5 34 t-37.5 30.5t-50.5 21.5t-63.5 8q-76 0 -139.5 -31.5t-109 -83t-71 -118.5t-25.5 -138q0 -52 16 -97.5t47.5 -79t77 -53t105.5 -19.5q64 0 122 25.5t104 80.5z" glyph-name="Ccircumflex" unicode="Ĉ" horiz-adv-x="720"/>
<glyph d="M491 564h-63l-64 108l-102 -108h-69l135 144h80zM426 362q-12 27 -41.5 44.5t-67.5 17.5q-45 0 -83 -18t-65.5 -49.5t-43 -73t-15.5 -88.5q0 -32 10 -59.5t29.5 -47.5t47.5 -31.5t64 -11.5q45 0 79 17t59 44l43 -37q-36 -37 -81 -59t-105 -22q-50 0 -90 14.5t-68.5 41 t-43.5 63.5t-15 82q0 60 20 113t56.5 92.5t88.5 62.5t115 23q52 0 97.5 -19t68.5 -60z" glyph-name="ccircumflex" unicode="ĉ" horiz-adv-x="500"/>
<glyph d="M550 849q0 -20 -13.5 -34t-33.5 -14q-19 0 -32.5 12t-13.5 33t14.5 35t33.5 14t32 -12.5t13 -33.5zM659 112q-21 -27 -49 -50.5t-63.5 -41t-78 -28t-92.5 -10.5q-71 0 -129.5 22t-100.5 62t-65 96t-23 124q0 92 33 172t90.5 139.5t134.5 94t165 34.5q39 0 75.5 -8 t67.5 -22.5t55.5 -35.5t39.5 -47l-65 -43q-8 17 -23.5 34t-37.5 30.5t-50.5 21.5t-63.5 8q-76 0 -139.5 -31.5t-109 -83t-71 -118.5t-25.5 -138q0 -52 16 -97.5t47.5 -79t77 -53t105.5 -19.5q64 0 122 25.5t104 80.5z" glyph-name="Cdotaccent" unicode="Ċ" horiz-adv-x="720"/>
<glyph d="M398 649q0 -20 -13.5 -34t-33.5 -14q-19 0 -32.5 12t-13.5 33t14.5 35t33.5 14t32 -12.5t13 -33.5zM426 362q-12 27 -41.5 44.5t-67.5 17.5q-45 0 -83 -18t-65.5 -49.5t-43 -73t-15.5 -88.5q0 -32 10 -59.5t29.5 -47.5t47.5 -31.5t64 -11.5q45 0 79 17t59 44l43 -37 q-36 -37 -81 -59t-105 -22q-50 0 -90 14.5t-68.5 41t-43.5 63.5t-15 82q0 60 20 113t56.5 92.5t88.5 62.5t115 23q52 0 97.5 -19t68.5 -60z" glyph-name="cdotaccent" unicode="ċ" horiz-adv-x="500"/>
<glyph d="M531 764h-80l-83 144h63l64 -108l102 108h69zM659 112q-21 -27 -49 -50.5t-63.5 -41t-78 -28t-92.5 -10.5q-71 0 -129.5 22t-100.5 62t-65 96t-23 124q0 92 33 172t90.5 139.5t134.5 94t165 34.5q39 0 75.5 -8t67.5 -22.5t55.5 -35.5t39.5 -47l-65 -43q-8 17 -23.5 34 t-37.5 30.5t-50.5 21.5t-63.5 8q-76 0 -139.5 -31.5t-109 -83t-71 -118.5t-25.5 -138q0 -52 16 -97.5t47.5 -79t77 -53t105.5 -19.5q64 0 122 25.5t104 80.5z" glyph-name="Ccaron" unicode="Č" horiz-adv-x="720"/>
<glyph d="M374 564h-80l-83 144h63l64 -108l102 108h69zM426 362q-12 27 -41.5 44.5t-67.5 17.5q-45 0 -83 -18t-65.5 -49.5t-43 -73t-15.5 -88.5q0 -32 10 -59.5t29.5 -47.5t47.5 -31.5t64 -11.5q45 0 79 17t59 44l43 -37q-36 -37 -81 -59t-105 -22q-50 0 -90 14.5t-68.5 41 t-43.5 63.5t-15 82q0 60 20 113t56.5 92.5t88.5 62.5t115 23q52 0 97.5 -19t68.5 -60z" glyph-name="ccaron" unicode="č" horiz-adv-x="500"/>
<glyph d="M441 764h-80l-83 144h63l64 -108l102 108h69zM122 63h160q86 0 151.5 29t110 76.5t67 109t22.5 126.5q0 49 -16 93t-49 77t-84 52t-121 19h-138zM165 708h214q60 0 119 -16.5t106 -52t76 -92t29 -135.5q0 -93 -32.5 -169t-90.5 -130t-137 -83.5t-172 -29.5h-237z" glyph-name="Dcaron" unicode="Ď" horiz-adv-x="757"/>
<glyph d="M676 523h-57l101 185h71zM104 195q0 -32 9.5 -59t28.5 -47.5t46 -32t63 -11.5q44 0 82 18t66 49.5t44 72.5t16 88q0 33 -10.5 60.5t-30.5 48t-48 31.5t-62 11q-46 0 -83.5 -18t-64.5 -49t-41.5 -72.5t-14.5 -89.5zM34 190q0 60 20.5 113t57.5 92t87.5 62t109.5 23 q51 0 95.5 -23t67.5 -68h2l65 367h67l-134 -756h-67l14 77h-2q-23 -36 -69 -62.5t-103 -26.5q-48 0 -86.5 14.5t-66.5 41.5t-43 64t-15 82z" glyph-name="dcaron" unicode="ď" horiz-adv-x="622"/>
<glyph d="M433 401l-10 -54h-251l-50 -284h160q86 0 151.5 29t110 76.5t67 109t22.5 126.5q0 49 -16 93t-49 77t-84 52t-121 19h-138l-43 -244h251zM31 347l10 54h70l54 307h214q60 0 119 -16.5t106 -52t76 -92t29 -135.5q0 -93 -32.5 -169t-90.5 -130t-137 -83.5t-172 -29.5h-237 l61 347h-70z" glyph-name="Dcroat" unicode="Đ" horiz-adv-x="757"/>
<glyph d="M104 195q0 -32 9.5 -59t28.5 -47.5t46 -32t63 -11.5q44 0 82 18t66 49.5t44 72.5t16 88q0 33 -10.5 60.5t-30.5 48t-48 31.5t-62 11q-46 0 -83.5 -18t-64.5 -49t-41.5 -72.5t-14.5 -89.5zM515 620l24 136h67l-24 -136h51l-8 -50h-52l-101 -570h-67l14 77h-2 q-23 -36 -69 -62.5t-103 -26.5q-48 0 -86.5 14.5t-66.5 41.5t-43 64t-15 82q0 60 20.5 113t57.5 92t87.5 62t109.5 23q51 0 95.5 -23t67.5 -68h2l32 181h-161l8 50h162z" glyph-name="dcroat" unicode="đ" horiz-adv-x="622"/>
<glyph d="M527 800h-270l9 54h270zM122 63h380l-11 -63h-451l125 708h425l-11 -63h-354l-43 -246h338l-11 -61h-338z" glyph-name="Emacron" unicode="Ē"/>
<glyph d="M474 600h-270l9 54h270zM431 266q1 8 1.5 17.5t0.5 17.5q0 54 -33 88.5t-97 34.5q-37 0 -68.5 -12.5t-56 -34.5t-41.5 -50.5t-24 -60.5h318zM104 216q-1 -6 -1.5 -11.5t-0.5 -10.5q0 -33 11.5 -60t32 -47t48 -31t59.5 -11q55 0 96 24.5t66 57.5l42 -40q-41 -49 -95 -74 t-115 -25q-45 0 -84 14t-67.5 40t-45 64.5t-16.5 87.5q0 57 21 109t57.5 91t86 62.5t106.5 23.5q96 0 145.5 -51t49.5 -132q0 -12 -2 -36.5t-7 -44.5h-387z" glyph-name="emacron" unicode="ē" horiz-adv-x="566"/>
<glyph d="M550 908q-5 -29 -19.5 -53.5t-36 -42t-49 -27t-57.5 -9.5q-62 0 -97 33t-35 99h44q0 -44 25.5 -61t63.5 -17q41 0 75 19.5t42 58.5h44zM122 63h380l-11 -63h-451l125 708h425l-11 -63h-354l-43 -246h338l-11 -61h-338z" glyph-name="Ebreve" unicode="Ĕ"/>
<glyph d="M497 708q-5 -29 -19.5 -53.5t-36 -42t-49 -27t-57.5 -9.5q-62 0 -97 33t-35 99h44q0 -44 25.5 -61t63.5 -17q41 0 75 19.5t42 58.5h44zM431 266q1 8 1.5 17.5t0.5 17.5q0 54 -33 88.5t-97 34.5q-37 0 -68.5 -12.5t-56 -34.5t-41.5 -50.5t-24 -60.5h318zM104 216 q-1 -6 -1.5 -11.5t-0.5 -10.5q0 -33 11.5 -60t32 -47t48 -31t59.5 -11q55 0 96 24.5t66 57.5l42 -40q-41 -49 -95 -74t-115 -25q-45 0 -84 14t-67.5 40t-45 64.5t-16.5 87.5q0 57 21 109t57.5 91t86 62.5t106.5 23.5q96 0 145.5 -51t49.5 -132q0 -12 -2 -36.5t-7 -44.5h-387 z" glyph-name="ebreve" unicode="ĕ" horiz-adv-x="566"/>
<glyph d="M447 849q0 -20 -13.5 -34t-33.5 -14q-19 0 -32.5 12t-13.5 33t14.5 35t33.5 14t32 -12.5t13 -33.5zM122 63h380l-11 -63h-451l125 708h425l-11 -63h-354l-43 -246h338l-11 -61h-338z" glyph-name="Edotaccent" unicode="Ė"/>
<glyph d="M390 649q0 -20 -13.5 -34t-33.5 -14q-19 0 -32.5 12t-13.5 33t14.5 35t33.5 14t32 -12.5t13 -33.5zM431 266q1 8 1.5 17.5t0.5 17.5q0 54 -33 88.5t-97 34.5q-37 0 -68.5 -12.5t-56 -34.5t-41.5 -50.5t-24 -60.5h318zM104 216q-1 -6 -1.5 -11.5t-0.5 -10.5 q0 -33 11.5 -60t32 -47t48 -31t59.5 -11q55 0 96 24.5t66 57.5l42 -40q-41 -49 -95 -74t-115 -25q-45 0 -84 14t-67.5 40t-45 64.5t-16.5 87.5q0 57 21 109t57.5 91t86 62.5t106.5 23.5q96 0 145.5 -51t49.5 -132q0 -12 -2 -36.5t-7 -44.5h-387z" glyph-name="edotaccent" unicode="ė" horiz-adv-x="566"/>
<glyph d="M480 -187q-20 -17 -44.5 -26.5t-47.5 -9.5q-30 0 -54.5 17t-24.5 52q0 25 11 47.5t28 42t36.5 36t37.5 28.5h-382l125 708h425l-11 -63h-354l-43 -246h338l-11 -61h-338l-49 -275h380l-11 -63h-21q-44 -37 -72 -71t-28 -63q0 -21 13.5 -28t29.5 -7q14 0 29 5.5t26 16.5z " glyph-name="Eogonek" unicode="Ę"/>
<glyph d="M431 266q1 8 1.5 17.5t0.5 17.5q0 54 -33 88.5t-97 34.5q-37 0 -68.5 -12.5t-56 -34.5t-41.5 -50.5t-24 -60.5h318zM317 -187q-20 -17 -44.5 -26.5t-47.5 -9.5q-30 0 -54.5 17t-24.5 52q0 22 9 42.5t22.5 38.5t30.5 33.5t34 27.5q-44 1 -82 15t-66 40t-44 64t-16 87 q0 57 21 109t57.5 91t86 62.5t106.5 23.5q96 0 145.5 -51t49.5 -132q0 -12 -2 -36.5t-7 -44.5h-387q-1 -6 -1.5 -11.5t-0.5 -10.5q0 -33 11.5 -60t32 -47t48 -31t59.5 -11q55 0 96 24.5t66 57.5l42 -40q-65 -77 -159 -94q-41 -35 -66 -67t-25 -60q0 -21 13.5 -28t29.5 -7 q14 0 29 5.5t26 16.5z" glyph-name="eogonek" unicode="ę" horiz-adv-x="566"/>
<glyph d="M424 764h-80l-83 144h63l64 -108l102 108h69zM122 63h380l-11 -63h-451l125 708h425l-11 -63h-354l-43 -246h338l-11 -61h-338z" glyph-name="Ecaron" unicode="Ě"/>
<glyph d="M370 564h-80l-83 144h63l64 -108l102 108h69zM431 266q1 8 1.5 17.5t0.5 17.5q0 54 -33 88.5t-97 34.5q-37 0 -68.5 -12.5t-56 -34.5t-41.5 -50.5t-24 -60.5h318zM104 216q-1 -6 -1.5 -11.5t-0.5 -10.5q0 -33 11.5 -60t32 -47t48 -31t59.5 -11q55 0 96 24.5t66 57.5 l42 -40q-41 -49 -95 -74t-115 -25q-45 0 -84 14t-67.5 40t-45 64.5t-16.5 87.5q0 57 21 109t57.5 91t86 62.5t106.5 23.5q96 0 145.5 -51t49.5 -132q0 -12 -2 -36.5t-7 -44.5h-387z" glyph-name="ecaron" unicode="ě" horiz-adv-x="566"/>
<glyph d="M643 764h-63l-64 108l-102 -108h-69l135 144h80zM380 44q61 0 113 13t88 35l38 217h-167l11 61h237l-56 -319q-64 -37 -130 -53t-138 -16q-71 0 -129.5 22t-100.5 62t-65 96t-23 124q0 92 33 172t90.5 139.5t134.5 94t165 34.5q39 0 75.5 -8t67.5 -22.5t55.5 -35.5 t39.5 -47l-65 -43q-8 17 -23.5 34t-37.5 30.5t-50.5 21.5t-63.5 8q-76 0 -139.5 -31.5t-109 -83t-71 -118.5t-25.5 -138q0 -52 16 -97.5t47.5 -79t77 -53t105.5 -19.5z" glyph-name="Gcircumflex" unicode="Ĝ" horiz-adv-x="770"/>
<glyph d="M505 564h-63l-64 108l-102 -108h-69l135 144h80zM114 204q0 -30 10 -57t29 -47.5t47 -32t64 -11.5q45 0 82.5 17.5t64.5 47.5t42 69.5t15 83.5q0 31 -10.5 58.5t-30 47.5t-47.5 32t-63 12q-45 0 -82.5 -16t-64 -44.5t-41.5 -69.5t-15 -90zM41 -98q25 -36 70.5 -59.5 t99.5 -23.5q50 0 86 14.5t60 40t38 59t21 71.5l17 89h-2q-32 -45 -78 -69t-100 -24q-48 0 -86.5 15.5t-65.5 43.5t-41.5 65t-14.5 81q0 57 20.5 107t57 87.5t86.5 59t109 21.5q25 0 50 -6t46.5 -18t38.5 -29.5t27 -39.5h2l15 81h66l-82 -464q-7 -38 -21 -81t-43.5 -79 t-78.5 -60t-127 -24q-69 0 -125 25t-90 69z" glyph-name="gcircumflex" unicode="ĝ" horiz-adv-x="627"/>
<glyph d="M653 908q-5 -29 -19.5 -53.5t-36 -42t-49 -27t-57.5 -9.5q-62 0 -97 33t-35 99h44q0 -44 25.5 -61t63.5 -17q41 0 75 19.5t42 58.5h44zM380 44q61 0 113 13t88 35l38 217h-167l11 61h237l-56 -319q-64 -37 -130 -53t-138 -16q-71 0 -129.5 22t-100.5 62t-65 96t-23 124 q0 92 33 172t90.5 139.5t134.5 94t165 34.5q39 0 75.5 -8t67.5 -22.5t55.5 -35.5t39.5 -47l-65 -43q-8 17 -23.5 34t-37.5 30.5t-50.5 21.5t-63.5 8q-76 0 -139.5 -31.5t-109 -83t-71 -118.5t-25.5 -138q0 -52 16 -97.5t47.5 -79t77 -53t105.5 -19.5z" glyph-name="Gbreve" unicode="Ğ" horiz-adv-x="770"/>
<glyph d="M518 708q-5 -29 -19.5 -53.5t-36 -42t-49 -27t-57.5 -9.5q-62 0 -97 33t-35 99h44q0 -44 25.5 -61t63.5 -17q41 0 75 19.5t42 58.5h44zM114 204q0 -30 10 -57t29 -47.5t47 -32t64 -11.5q45 0 82.5 17.5t64.5 47.5t42 69.5t15 83.5q0 31 -10.5 58.5t-30 47.5t-47.5 32 t-63 12q-45 0 -82.5 -16t-64 -44.5t-41.5 -69.5t-15 -90zM41 -98q25 -36 70.5 -59.5t99.5 -23.5q50 0 86 14.5t60 40t38 59t21 71.5l17 89h-2q-32 -45 -78 -69t-100 -24q-48 0 -86.5 15.5t-65.5 43.5t-41.5 65t-14.5 81q0 57 20.5 107t57 87.5t86.5 59t109 21.5q25 0 50 -6 t46.5 -18t38.5 -29.5t27 -39.5h2l15 81h66l-82 -464q-7 -38 -21 -81t-43.5 -79t-78.5 -60t-127 -24q-69 0 -125 25t-90 69z" glyph-name="gbreve" unicode="ğ" horiz-adv-x="627"/>
<glyph d="M553 849q0 -20 -13.5 -34t-33.5 -14q-19 0 -32.5 12t-13.5 33t14.5 35t33.5 14t32 -12.5t13 -33.5zM380 44q61 0 113 13t88 35l38 217h-167l11 61h237l-56 -319q-64 -37 -130 -53t-138 -16q-71 0 -129.5 22t-100.5 62t-65 96t-23 124q0 92 33 172t90.5 139.5t134.5 94 t165 34.5q39 0 75.5 -8t67.5 -22.5t55.5 -35.5t39.5 -47l-65 -43q-8 17 -23.5 34t-37.5 30.5t-50.5 21.5t-63.5 8q-76 0 -139.5 -31.5t-109 -83t-71 -118.5t-25.5 -138q0 -52 16 -97.5t47.5 -79t77 -53t105.5 -19.5z" glyph-name="Gdotaccent" unicode="Ġ" horiz-adv-x="770"/>
<glyph d="M412 649q0 -20 -13.5 -34t-33.5 -14q-19 0 -32.5 12t-13.5 33t14.5 35t33.5 14t32 -12.5t13 -33.5zM114 204q0 -30 10 -57t29 -47.5t47 -32t64 -11.5q45 0 82.5 17.5t64.5 47.5t42 69.5t15 83.5q0 31 -10.5 58.5t-30 47.5t-47.5 32t-63 12q-45 0 -82.5 -16t-64 -44.5 t-41.5 -69.5t-15 -90zM41 -98q25 -36 70.5 -59.5t99.5 -23.5q50 0 86 14.5t60 40t38 59t21 71.5l17 89h-2q-32 -45 -78 -69t-100 -24q-48 0 -86.5 15.5t-65.5 43.5t-41.5 65t-14.5 81q0 57 20.5 107t57 87.5t86.5 59t109 21.5q25 0 50 -6t46.5 -18t38.5 -29.5t27 -39.5h2 l15 81h66l-82 -464q-7 -38 -21 -81t-43.5 -79t-78.5 -60t-127 -24q-69 0 -125 25t-90 69z" glyph-name="gdotaccent" unicode="ġ" horiz-adv-x="627"/>
<glyph d="M309 -230h-57l101 185h71zM380 44q61 0 113 13t88 35l38 217h-167l11 61h237l-56 -319q-64 -37 -130 -53t-138 -16q-71 0 -129.5 22t-100.5 62t-65 96t-23 124q0 92 33 172t90.5 139.5t134.5 94t165 34.5q39 0 75.5 -8t67.5 -22.5t55.5 -35.5t39.5 -47l-65 -43 q-8 17 -23.5 34t-37.5 30.5t-50.5 21.5t-63.5 8q-76 0 -139.5 -31.5t-109 -83t-71 -118.5t-25.5 -138q0 -52 16 -97.5t47.5 -79t77 -53t105.5 -19.5z" glyph-name="Gcommaaccent" unicode="Ģ" horiz-adv-x="770"/>
<glyph d="M410 749h57l-101 -185h-71zM114 204q0 -30 10 -57t29 -47.5t47 -32t64 -11.5q45 0 82.5 17.5t64.5 47.5t42 69.5t15 83.5q0 31 -10.5 58.5t-30 47.5t-47.5 32t-63 12q-45 0 -82.5 -16t-64 -44.5t-41.5 -69.5t-15 -90zM41 -98q25 -36 70.5 -59.5t99.5 -23.5q50 0 86 14.5 t60 40t38 59t21 71.5l17 89h-2q-32 -45 -78 -69t-100 -24q-48 0 -86.5 15.5t-65.5 43.5t-41.5 65t-14.5 81q0 57 20.5 107t57 87.5t86.5 59t109 21.5q25 0 50 -6t46.5 -18t38.5 -29.5t27 -39.5h2l15 81h66l-82 -464q-7 -38 -21 -81t-43.5 -79t-78.5 -60t-127 -24 q-69 0 -125 25t-90 69z" glyph-name="gcommaaccent" unicode="ģ" horiz-adv-x="627"/>
<glyph d="M583 764h-63l-64 108l-102 -108h-69l135 144h80zM165 708h71l-55 -308h377l55 308h71l-125 -708h-71l59 336h-377l-59 -336h-71z" glyph-name="Hcircumflex" unicode="Ĥ" horiz-adv-x="708"/>
<glyph d="M356 796h-63l-64 108l-102 -108h-69l135 144h80zM332 480q75 0 117.5 -38.5t42.5 -104.5q0 -12 -1.5 -24t-3.5 -26l-51 -287h-67l46 259q6 31 6 59q0 49 -23.5 77.5t-82.5 28.5q-27 0 -54 -11t-50 -34t-40.5 -57.5t-25.5 -81.5l-42 -240h-67l133 756h67l-64 -365h2 q26 41 68 65t90 24z" glyph-name="hcircumflex" unicode="ĥ" horiz-adv-x="577"/>
<glyph d="M558 400l18 100h-377l-18 -100h377zM165 708h71l-28 -158h377l28 158h71l-125 -708h-71l59 336h-377l-59 -336h-71z" glyph-name="Hbar" unicode="Ħ" horiz-adv-x="708"/>
<glyph d="M145 620l24 136h67l-24 -136h158l-8 -50h-159l-31 -179h2q26 41 68 65t90 24q75 0 117.5 -38.5t42.5 -104.5q0 -12 -1.5 -24t-3.5 -26l-51 -287h-67l46 259q6 31 6 59q0 49 -23.5 77.5t-82.5 28.5q-27 0 -54 -11t-50 -34t-40.5 -57.5t-25.5 -81.5l-42 -240h-67l100 570 h-54l8 50h55z" glyph-name="hbar" unicode="ħ" horiz-adv-x="577"/>
<glyph d="M48 776q7 19 16.5 38t23 33.5t30.5 23.5t40 9q18 0 35 -7t34 -16q17 -8 32.5 -15.5t30.5 -7.5q23 0 36.5 15.5t21.5 34.5h43q-7 -20 -17 -38.5t-23.5 -33t-31 -23.5t-39.5 -9q-18 0 -35 7.5t-34 15.5q-16 9 -31.5 16t-31.5 7q-23 0 -36 -15.5t-21 -34.5h-43zM111 0h-71 l125 708h71z" glyph-name="Itilde" unicode="Ĩ" horiz-adv-x="260"/>
<glyph d="M9 576q7 19 16.5 38t23 33.5t30.5 23.5t40 9q18 0 35 -7t34 -16q17 -8 32.5 -15.5t30.5 -7.5q23 0 36.5 15.5t21.5 34.5h43q-7 -20 -17 -38.5t-23.5 -33t-31 -23.5t-39.5 -9q-18 0 -35 7.5t-34 15.5q-16 9 -31.5 16t-31.5 7q-23 0 -36 -15.5t-21 -34.5h-43zM104 0h-67 l83 468h67z" glyph-name="itilde" unicode="ĩ" horiz-adv-x="250"/>
<glyph d="M348 800h-270l9 54h270zM111 0h-71l125 708h71z" glyph-name="Imacron" unicode="Ī" horiz-adv-x="260"/>
<glyph d="M308 600h-270l9 54h270zM104 0h-67l83 468h67z" glyph-name="imacron" unicode="ī" horiz-adv-x="250"/>
<glyph d="M373 915q-5 -29 -19.5 -53.5t-36 -42t-49 -27t-57.5 -9.5q-62 0 -97 33t-35 99h44q0 -44 25.5 -61t63.5 -17q41 0 75 19.5t42 58.5h44zM111 0h-71l125 708h71z" glyph-name="Ibreve" unicode="Ĭ" horiz-adv-x="260"/>
<glyph d="M324 675q-5 -29 -19.5 -53.5t-36 -42t-49 -27t-57.5 -9.5q-62 0 -97 33t-35 99h44q0 -44 25.5 -61t63.5 -17q41 0 75 19.5t42 58.5h44zM104 0h-67l83 468h67z" glyph-name="ibreve" unicode="ĭ" horiz-adv-x="250"/>
<glyph d="M120 -187q-20 -17 -44.5 -26.5t-47.5 -9.5q-30 0 -54.5 17t-24.5 52q0 25 11 47.5t28 42t36.5 36t37.5 28.5h-22l125 708h71l-125 -708h-1q-44 -37 -72 -71t-28 -63q0 -21 13.5 -28t29.5 -7q14 0 29 5.5t26 16.5z" glyph-name="Iogonek" unicode="Į" horiz-adv-x="260"/>
<glyph d="M227 649q0 -20 -13.5 -34t-33.5 -14q-19 0 -32.5 12t-13.5 33t14.5 35t33.5 14t32 -12.5t13 -33.5zM112 -187q-20 -17 -44.5 -26.5t-47.5 -9.5q-30 0 -54.5 17t-24.5 52q0 25 11 47.5t28 42t36.5 36t37.5 28.5h-17l83 468h67l-83 -468h-2q-44 -37 -72 -71t-28 -63 q0 -21 13.5 -28t29.5 -7q14 0 29 5.5t26 16.5z" glyph-name="iogonek" unicode="į" horiz-adv-x="250"/>
<glyph d="M267 849q0 -20 -13.5 -34t-33.5 -14q-19 0 -32.5 12t-13.5 33t14.5 35t33.5 14t32 -12.5t13 -33.5zM111 0h-71l125 708h71z" glyph-name="Idotaccent" unicode="İ" horiz-adv-x="260"/>
<glyph d="M104 0h-67l83 468h67z" glyph-name="dotlessi" unicode="ı" horiz-adv-x="250"/>
<glyph d="M584 764h-63l-64 108l-102 -108h-69l135 144h80zM53 140q7 -40 33 -68t74 -28q39 0 64 14t41.5 37t25 52.5t14.5 61.5l88 499h71l-89 -504q-6 -35 -17 -74t-34.5 -72t-61.5 -54.5t-98 -21.5q-39 0 -70 11t-52.5 30t-34.5 44t-17 53z" glyph-name="Jcircumflex" unicode="Ĵ" horiz-adv-x="482"/>
<glyph d="M314 564h-63l-64 108l-102 -108h-69l135 144h80zM-99 -176q9 -3 20.5 -4.5t21.5 -1.5q21 0 35 7.5t23 20.5t14 31.5t9 40.5l97 550h67l-99 -561q-5 -28 -13.5 -54.5t-24.5 -47t-42 -33t-66 -12.5q-11 0 -27.5 1.5t-28.5 5.5z" glyph-name="jcircumflex" unicode="ĵ" horiz-adv-x="251"/>
<glyph d="M209 -230h-57l101 185h71zM180 390h1l360 318h104l-387 -328l296 -380h-93l-283 377h-1l-66 -377h-71l125 708h71z" glyph-name="Kcommaaccent" unicode="Ķ" horiz-adv-x="585"/>
<glyph d="M158 -230h-57l101 185h71zM150 257h3l239 211h93l-257 -217l214 -251h-88l-203 246h-3l-42 -246h-68l133 756h67z" glyph-name="kcommaaccent" unicode="ķ" horiz-adv-x="487"/>
<glyph d="M229 764h-56l126 144h88zM121 63h331l-10 -63h-402l125 708h71z" glyph-name="Lacute" unicode="Ĺ" horiz-adv-x="510"/>
<glyph d="M231 792h-56l126 144h88zM106 0h-68l133 756h68z" glyph-name="lacute" unicode="ĺ" horiz-adv-x="252"/>
<glyph d="M174 -230h-57l101 185h71zM121 63h331l-10 -63h-402l125 708h71z" glyph-name="Lcommaaccent" unicode="Ļ" horiz-adv-x="510"/>
<glyph d="M11 -230h-57l101 185h71zM106 0h-68l133 756h68z" glyph-name="lcommaaccent" unicode="ļ" horiz-adv-x="252"/>
<glyph d="M355 523h-57l101 185h71zM121 63h331l-10 -63h-402l125 708h71z" glyph-name="Lcaron" unicode="Ľ" horiz-adv-x="510"/>
<glyph d="M320 523h-57l101 185h71zM106 0h-68l133 756h68z" glyph-name="lcaron" unicode="ľ" horiz-adv-x="252"/>
<glyph d="M425 329q0 -20 -13.5 -34t-33.5 -14q-19 0 -32.5 12t-13.5 33t14.5 35t33.5 14t32 -12.5t13 -33.5zM121 63h331l-10 -63h-402l125 708h71z" glyph-name="Ldot" unicode="Ŀ" horiz-adv-x="510"/>
<glyph d="M328 329q0 -20 -13.5 -34t-33.5 -14q-19 0 -32.5 12t-13.5 33t14.5 35t33.5 14t32 -12.5t13 -33.5zM106 0h-68l133 756h68z" glyph-name="ldot" unicode="ŀ" horiz-adv-x="312"/>
<glyph d="M176 362l249 186l-13 -70l-249 -186l-40 -228h330l-11 -64h-402l43 242l-95 -70l13 70l94 70l70 396h72z" glyph-name="Lslash" unicode="Ł" horiz-adv-x="510"/>
<glyph d="M185 458l96 84l-13 -73l-96 -83l-68 -386h-66l58 331l-95 -83l13 73l95 82l62 353h66z" glyph-name="lslash" unicode="ł" horiz-adv-x="252"/>
<glyph d="M452 764h-56l126 144h88zM546 101h2l107 607h71l-125 -708h-89l-290 615h-2l-108 -615h-71l125 708h89z" glyph-name="Nacute" unicode="Ń" horiz-adv-x="750"/>
<glyph d="M323 564h-56l126 144h88zM180 468q-2 -19 -5 -42t-6 -38h2q27 43 69.5 67.5t90.5 24.5q76 0 118.5 -38.5t42.5 -104.5q0 -12 -1.5 -24t-3.5 -26l-51 -287h-67l46 259q6 31 6 59q0 49 -23 77.5t-81 28.5q-27 0 -54 -11t-50.5 -34t-41.5 -57.5t-26 -81.5l-42 -240h-67 l64 365q4 19 8.5 49t6.5 54h65z" glyph-name="nacute" unicode="ń" horiz-adv-x="577"/>
<glyph d="M254 -230h-57l101 185h71zM546 101h2l107 607h71l-125 -708h-89l-290 615h-2l-108 -615h-71l125 708h89z" glyph-name="Ncommaaccent" unicode="Ņ" horiz-adv-x="750"/>
<glyph d="M169 -230h-57l101 185h71zM180 468q-2 -19 -5 -42t-6 -38h2q27 43 69.5 67.5t90.5 24.5q76 0 118.5 -38.5t42.5 -104.5q0 -12 -1.5 -24t-3.5 -26l-51 -287h-67l46 259q6 31 6 59q0 49 -23 77.5t-81 28.5q-27 0 -54 -11t-50.5 -34t-41.5 -57.5t-26 -81.5l-42 -240h-67 l64 365q4 19 8.5 49t6.5 54h65z" glyph-name="ncommaaccent" unicode="ņ" horiz-adv-x="577"/>
<glyph d="M487 764h-80l-83 144h63l64 -108l102 108h69zM546 101h2l107 607h71l-125 -708h-89l-290 615h-2l-108 -615h-71l125 708h89z" glyph-name="Ncaron" unicode="Ň" horiz-adv-x="750"/>
<glyph d="M361 564h-80l-83 144h63l64 -108l102 108h69zM180 468q-2 -19 -5 -42t-6 -38h2q27 43 69.5 67.5t90.5 24.5q76 0 118.5 -38.5t42.5 -104.5q0 -12 -1.5 -24t-3.5 -26l-51 -287h-67l46 259q6 31 6 59q0 49 -23 77.5t-81 28.5q-27 0 -54 -11t-50.5 -34t-41.5 -57.5 t-26 -81.5l-42 -240h-67l64 365q4 19 8.5 49t6.5 54h65z" glyph-name="ncaron" unicode="ň" horiz-adv-x="577"/>
<glyph d="M629 800h-270l9 54h270zM710 417q0 51 -16 96t-46.5 78.5t-76 53t-103.5 19.5q-75 0 -137 -31.5t-105.5 -83.5t-67.5 -119t-24 -138q0 -51 15.5 -96.5t46.5 -79t76 -53t104 -19.5q74 0 135.5 31t105.5 83t68.5 119.5t24.5 139.5zM373 -18q-69 0 -127 22t-100 62t-65 96 t-23 124q0 91 32 171.5t87.5 140t131 94t162.5 34.5q69 0 127 -21.5t99.5 -61.5t65 -95.5t23.5 -123.5q0 -91 -31 -171.5t-86 -140.5t-131 -95t-165 -35z" glyph-name="Omacron" unicode="Ō" horiz-adv-x="834"/>
<glyph d="M479 600h-270l9 54h270zM458 274q0 32 -10 59.5t-29.5 47.5t-47.5 31.5t-63 11.5q-44 0 -81 -18.5t-64 -50t-42.5 -73t-15.5 -87.5q0 -32 10 -59.5t29.5 -47.5t47 -31.5t62.5 -11.5q45 0 82.5 18.5t64.5 49.5t42 72.5t15 88.5zM250 -12q-47 0 -87 15t-68.5 41.5t-44.5 64 t-16 82.5q0 59 20.5 111.5t57.5 92t88 62.5t112 23q48 0 87.5 -14.5t68 -41.5t44.5 -64t16 -82q0 -60 -20.5 -113t-57.5 -92t-88 -62t-112 -23z" glyph-name="omacron" unicode="ō" horiz-adv-x="596"/>
<glyph d="M647 908q-5 -29 -19.5 -53.5t-36 -42t-49 -27t-57.5 -9.5q-62 0 -97 33t-35 99h44q0 -44 25.5 -61t63.5 -17q41 0 75 19.5t42 58.5h44zM710 417q0 51 -16 96t-46.5 78.5t-76 53t-103.5 19.5q-75 0 -137 -31.5t-105.5 -83.5t-67.5 -119t-24 -138q0 -51 15.5 -96.5 t46.5 -79t76 -53t104 -19.5q74 0 135.5 31t105.5 83t68.5 119.5t24.5 139.5zM373 -18q-69 0 -127 22t-100 62t-65 96t-23 124q0 91 32 171.5t87.5 140t131 94t162.5 34.5q69 0 127 -21.5t99.5 -61.5t65 -95.5t23.5 -123.5q0 -91 -31 -171.5t-86 -140.5t-131 -95t-165 -35z " glyph-name="Obreve" unicode="Ŏ" horiz-adv-x="834"/>
<glyph d="M496 708q-5 -29 -19.5 -53.5t-36 -42t-49 -27t-57.5 -9.5q-62 0 -97 33t-35 99h44q0 -44 25.5 -61t63.5 -17q41 0 75 19.5t42 58.5h44zM458 274q0 32 -10 59.5t-29.5 47.5t-47.5 31.5t-63 11.5q-44 0 -81 -18.5t-64 -50t-42.5 -73t-15.5 -87.5q0 -32 10 -59.5t29.5 -47.5 t47 -31.5t62.5 -11.5q45 0 82.5 18.5t64.5 49.5t42 72.5t15 88.5zM250 -12q-47 0 -87 15t-68.5 41.5t-44.5 64t-16 82.5q0 59 20.5 111.5t57.5 92t88 62.5t112 23q48 0 87.5 -14.5t68 -41.5t44.5 -64t16 -82q0 -60 -20.5 -113t-57.5 -92t-88 -62t-112 -23z" glyph-name="obreve" unicode="ŏ" horiz-adv-x="596"/>
<glyph d="M588 764h-59l126 144h91zM417 764h-59l127 144h91zM710 417q0 51 -16 96t-46.5 78.5t-76 53t-103.5 19.5q-75 0 -137 -31.5t-105.5 -83.5t-67.5 -119t-24 -138q0 -51 15.5 -96.5t46.5 -79t76 -53t104 -19.5q74 0 135.5 31t105.5 83t68.5 119.5t24.5 139.5zM373 -18 q-69 0 -127 22t-100 62t-65 96t-23 124q0 91 32 171.5t87.5 140t131 94t162.5 34.5q69 0 127 -21.5t99.5 -61.5t65 -95.5t23.5 -123.5q0 -91 -31 -171.5t-86 -140.5t-131 -95t-165 -35z" glyph-name="Ohungarumlaut" unicode="Ő" horiz-adv-x="834"/>
<glyph d="M437 564h-59l126 144h91zM266 564h-59l127 144h91zM458 274q0 32 -10 59.5t-29.5 47.5t-47.5 31.5t-63 11.5q-44 0 -81 -18.5t-64 -50t-42.5 -73t-15.5 -87.5q0 -32 10 -59.5t29.5 -47.5t47 -31.5t62.5 -11.5q45 0 82.5 18.5t64.5 49.5t42 72.5t15 88.5zM250 -12 q-47 0 -87 15t-68.5 41.5t-44.5 64t-16 82.5q0 59 20.5 111.5t57.5 92t88 62.5t112 23q48 0 87.5 -14.5t68 -41.5t44.5 -64t16 -82q0 -60 -20.5 -113t-57.5 -92t-88 -62t-112 -23z" glyph-name="ohungarumlaut" unicode="ő" horiz-adv-x="596"/>
<glyph d="M570 645h-85q-86 0 -152 -29t-110 -76.5t-66.5 -109t-22.5 -126.5q0 -50 16 -93.5t49 -76.5t84 -52t121 -19h63zM388 0q-60 0 -119 16.5t-106 52t-76 91.5t-29 136q0 93 32.5 169t90.5 130t137 83.5t172 29.5h490l-11 -63h-328l-43 -246h312l-11 -61h-312l-49 -275h354 l-11 -63h-493z" glyph-name="OE" unicode="Œ" horiz-adv-x="970"/>
<glyph d="M847 266q1 8 1.5 17.5t0.5 17.5q0 54 -33 88.5t-97 34.5q-37 0 -68.5 -12.5t-56 -34.5t-41.5 -50.5t-24 -60.5h318zM458 274q0 32 -10 59.5t-29.5 47.5t-47.5 31.5t-63 11.5q-44 0 -81 -18.5t-64 -50t-42.5 -73t-15.5 -87.5q0 -32 10 -59.5t29.5 -47.5t47 -31.5 t62.5 -11.5q45 0 82.5 18.5t64.5 49.5t42 72.5t15 88.5zM473 107q-16 -25 -37.5 -46.5t-49 -37.5t-61.5 -25.5t-75 -9.5q-47 0 -87 15t-68.5 41.5t-44.5 64t-16 82.5q0 59 20.5 111.5t57.5 92t88 62.5t112 23q69 0 120 -33t74 -87q16 27 39 49t51 38t60 24.5t65 8.5 q96 0 145.5 -51t49.5 -132q0 -12 -2 -36.5t-7 -44.5h-387q-1 -6 -1.5 -11.5t-0.5 -10.5q0 -33 11.5 -60t32 -47t48 -31t59.5 -11q55 0 96 24.5t66 57.5l42 -40q-41 -49 -95 -74t-115 -25q-39 0 -69.5 9.5t-53.5 25.5t-40 38t-27 46z" glyph-name="oe" unicode="œ" horiz-adv-x="982"/>
<glyph d="M363 764h-56l126 144h88zM180 391h126q36 0 71 5.5t63 20.5t45.5 42.5t17.5 71.5q0 58 -42 87t-116 29h-120zM111 0h-71l125 708h191q47 0 87 -10t69.5 -31t46 -53t16.5 -75q0 -49 -16 -85t-44.5 -60.5t-66.5 -38.5t-81 -18l156 -337h-81l-148 331h-125z" glyph-name="Racute" unicode="Ŕ" horiz-adv-x="599"/>
<glyph d="M204 564h-56l126 144h88zM100 365q4 19 8.5 49t6.5 54h64q-2 -19 -5 -42t-6 -38h2q26 41 66 66.5t90 25.5q13 0 23 -1t21 -4l-16 -64q-5 2 -18.5 4t-27.5 2q-27 0 -53 -10t-47.5 -31.5t-38 -55t-24.5 -80.5l-42 -240h-67z" glyph-name="racute" unicode="ŕ" horiz-adv-x="348"/>
<glyph d="M196 -230h-57l101 185h71zM180 391h126q36 0 71 5.5t63 20.5t45.5 42.5t17.5 71.5q0 58 -42 87t-116 29h-120zM111 0h-71l125 708h191q47 0 87 -10t69.5 -31t46 -53t16.5 -75q0 -49 -16 -85t-44.5 -60.5t-66.5 -38.5t-81 -18l156 -337h-81l-148 331h-125z" glyph-name="Rcommaaccent" unicode="Ŗ" horiz-adv-x="599"/>
<glyph d="M8 -231h-57l101 185h71zM100 365q4 19 8.5 49t6.5 54h64q-2 -19 -5 -42t-6 -38h2q26 41 66 66.5t90 25.5q13 0 23 -1t21 -4l-16 -64q-5 2 -18.5 4t-27.5 2q-27 0 -53 -10t-47.5 -31.5t-38 -55t-24.5 -80.5l-42 -240h-67z" glyph-name="rcommaaccent" unicode="ŗ" horiz-adv-x="348"/>
<glyph d="M394 764h-80l-83 144h63l64 -108l102 108h69zM180 391h126q36 0 71 5.5t63 20.5t45.5 42.5t17.5 71.5q0 58 -42 87t-116 29h-120zM111 0h-71l125 708h191q47 0 87 -10t69.5 -31t46 -53t16.5 -75q0 -49 -16 -85t-44.5 -60.5t-66.5 -38.5t-81 -18l156 -337h-81l-148 331 h-125z" glyph-name="Rcaron" unicode="Ř" horiz-adv-x="599"/>
<glyph d="M286 564h-80l-83 144h63l64 -108l102 108h69zM100 365q4 19 8.5 49t6.5 54h64q-2 -19 -5 -42t-6 -38h2q26 41 66 66.5t90 25.5q13 0 23 -1t21 -4l-16 -64q-5 2 -18.5 4t-27.5 2q-27 0 -53 -10t-47.5 -31.5t-38 -55t-24.5 -80.5l-42 -240h-67z" glyph-name="rcaron" unicode="ř" horiz-adv-x="348"/>
<glyph d="M359 764h-56l126 144h88zM491 598q-19 28 -55 47t-84 19q-31 0 -62 -8.5t-56 -26t-40.5 -44t-15.5 -63.5q0 -28 10 -48t27.5 -35t41 -26t50.5 -21q31 -12 63 -27t58 -37t42 -51.5t16 -69.5q0 -36 -13 -75.5t-43 -73t-79 -55t-121 -21.5q-65 0 -125 26.5t-92 78.5l64 41 q20 -35 60 -59.5t96 -24.5q36 0 68.5 10.5t57 30t38.5 47.5t14 62q0 30 -12 52t-32.5 38t-47 28t-56.5 23t-59 26t-51 36t-35.5 49.5t-13.5 66.5q0 45 17 84t49 67.5t79 45t107 16.5q72 0 122.5 -23.5t73.5 -60.5z" glyph-name="Sacute" unicode="Ś" horiz-adv-x="564"/>
<glyph d="M272 564h-56l126 144h88zM354 365q-14 26 -42 42.5t-67 16.5q-18 0 -37.5 -4t-36 -13t-27 -23.5t-10.5 -35.5q0 -19 6.5 -31t18.5 -20.5t29 -15t39 -12.5q69 -20 105 -50.5t36 -86.5q0 -38 -17 -65.5t-43 -45t-58 -25.5t-63 -8q-59 0 -110.5 22t-80.5 67l58 38 q17 -29 51 -49.5t79 -20.5q22 0 43 4.5t37.5 14t26.5 25t10 36.5q0 37 -29.5 56.5t-84.5 37.5q-21 7 -42 16t-38 23.5t-27.5 35t-10.5 49.5q0 36 16.5 62t42 42.5t57.5 24.5t64 8q54 0 96.5 -21t61.5 -56z" glyph-name="sacute" unicode="ś" horiz-adv-x="444"/>
<glyph d="M517 764h-63l-64 108l-102 -108h-69l135 144h80zM491 598q-19 28 -55 47t-84 19q-31 0 -62 -8.5t-56 -26t-40.5 -44t-15.5 -63.5q0 -28 10 -48t27.5 -35t41 -26t50.5 -21q31 -12 63 -27t58 -37t42 -51.5t16 -69.5q0 -36 -13 -75.5t-43 -73t-79 -55t-121 -21.5 q-65 0 -125 26.5t-92 78.5l64 41q20 -35 60 -59.5t96 -24.5q36 0 68.5 10.5t57 30t38.5 47.5t14 62q0 30 -12 52t-32.5 38t-47 28t-56.5 23t-59 26t-51 36t-35.5 49.5t-13.5 66.5q0 45 17 84t49 67.5t79 45t107 16.5q72 0 122.5 -23.5t73.5 -60.5z" glyph-name="Scircumflex" unicode="Ŝ" horiz-adv-x="564"/>
<glyph d="M423 564h-63l-64 108l-102 -108h-69l135 144h80zM354 365q-14 26 -42 42.5t-67 16.5q-18 0 -37.5 -4t-36 -13t-27 -23.5t-10.5 -35.5q0 -19 6.5 -31t18.5 -20.5t29 -15t39 -12.5q69 -20 105 -50.5t36 -86.5q0 -38 -17 -65.5t-43 -45t-58 -25.5t-63 -8q-59 0 -110.5 22 t-80.5 67l58 38q17 -29 51 -49.5t79 -20.5q22 0 43 4.5t37.5 14t26.5 25t10 36.5q0 37 -29.5 56.5t-84.5 37.5q-21 7 -42 16t-38 23.5t-27.5 35t-10.5 49.5q0 36 16.5 62t42 42.5t57.5 24.5t64 8q54 0 96.5 -21t61.5 -56z" glyph-name="scircumflex" unicode="ŝ" horiz-adv-x="444"/>
<glyph d="M491 598q-19 28 -55 47t-84 19q-31 0 -62 -8.5t-56 -26t-40.5 -44t-15.5 -63.5q0 -28 10 -48t27.5 -35t41 -26t50.5 -21q31 -12 63 -27t58 -37t42 -51.5t16 -69.5q0 -35 -11.5 -72.5t-38.5 -69.5t-71 -55t-109 -27l-46 -58q8 2 15.5 3t15.5 1q12 0 25.5 -3.5t24 -11.5 t17.5 -20.5t7 -31.5q0 -26 -11.5 -43.5t-29.5 -28t-39 -15.5t-40 -5q-20 0 -48.5 5t-48.5 15l19 36q16 -8 35.5 -11t38.5 -3q11 0 22.5 2t21.5 7.5t16 14t6 21.5q0 20 -14.5 29t-35.5 9q-22 0 -44 -8l-15 15l65 81q-30 1 -60 8.5t-56 20.5t-47.5 32t-36.5 43l64 41 q20 -35 60 -59.5t96 -24.5q36 0 68.5 10.5t57 30t38.5 47.5t14 62q0 30 -12 52t-32.5 38t-47 28t-56.5 23t-59 26t-51 36t-35.5 49.5t-13.5 66.5q0 45 17 84t49 67.5t79 45t107 16.5q72 0 122.5 -23.5t73.5 -60.5z" glyph-name="Scedilla" unicode="Ş" horiz-adv-x="564"/>
<glyph d="M354 365q-14 26 -42 42.5t-67 16.5q-18 0 -37.5 -4t-36 -13t-27 -23.5t-10.5 -35.5q0 -19 6.5 -31t18.5 -20.5t29 -15t39 -12.5q69 -20 105 -50.5t36 -86.5q0 -34 -13.5 -59.5t-35.5 -42.5t-50 -27t-56 -13l-51 -65q8 2 15.5 3t15.5 1q12 0 25.5 -3.5t24 -11.5 t17.5 -20.5t7 -31.5q0 -26 -11.5 -43.5t-29.5 -28t-39 -15.5t-40 -5q-20 0 -48.5 5t-48.5 15l19 36q16 -8 35.5 -11t38.5 -3q11 0 22.5 2t21.5 7.5t16 14t6 21.5q0 20 -14.5 29t-35.5 9q-22 0 -44 -8l-15 15l69 87q-54 3 -100 24.5t-73 63.5l58 38q17 -29 51 -49.5t79 -20.5 q22 0 43 4.5t37.5 14t26.5 25t10 36.5q0 37 -29.5 56.5t-84.5 37.5q-21 7 -42 16t-38 23.5t-27.5 35t-10.5 49.5q0 36 16.5 62t42 42.5t57.5 24.5t64 8q54 0 96.5 -21t61.5 -56z" glyph-name="scedilla" unicode="ş" horiz-adv-x="444"/>
<glyph d="M396 764h-80l-83 144h63l64 -108l102 108h69zM491 598q-19 28 -55 47t-84 19q-31 0 -62 -8.5t-56 -26t-40.5 -44t-15.5 -63.5q0 -28 10 -48t27.5 -35t41 -26t50.5 -21q31 -12 63 -27t58 -37t42 -51.5t16 -69.5q0 -36 -13 -75.5t-43 -73t-79 -55t-121 -21.5 q-65 0 -125 26.5t-92 78.5l64 41q20 -35 60 -59.5t96 -24.5q36 0 68.5 10.5t57 30t38.5 47.5t14 62q0 30 -12 52t-32.5 38t-47 28t-56.5 23t-59 26t-51 36t-35.5 49.5t-13.5 66.5q0 45 17 84t49 67.5t79 45t107 16.5q72 0 122.5 -23.5t73.5 -60.5z" glyph-name="Scaron" unicode="Š" horiz-adv-x="564"/>
<glyph d="M307 564h-80l-83 144h63l64 -108l102 108h69zM354 365q-14 26 -42 42.5t-67 16.5q-18 0 -37.5 -4t-36 -13t-27 -23.5t-10.5 -35.5q0 -19 6.5 -31t18.5 -20.5t29 -15t39 -12.5q69 -20 105 -50.5t36 -86.5q0 -38 -17 -65.5t-43 -45t-58 -25.5t-63 -8q-59 0 -110.5 22 t-80.5 67l58 38q17 -29 51 -49.5t79 -20.5q22 0 43 4.5t37.5 14t26.5 25t10 36.5q0 37 -29.5 56.5t-84.5 37.5q-21 7 -42 16t-38 23.5t-27.5 35t-10.5 49.5q0 36 16.5 62t42 42.5t57.5 24.5t64 8q54 0 96.5 -21t61.5 -56z" glyph-name="scaron" unicode="š" horiz-adv-x="444"/>
<glyph d="M250 0h-8l-60 -75q8 2 15.5 3t15.5 1q12 0 25.5 -3.5t24 -11.5t17.5 -20.5t7 -31.5q0 -26 -11.5 -43.5t-29.5 -28t-39 -15.5t-40 -5q-20 0 -48.5 5t-48.5 15l19 36q16 -8 35.5 -11t38.5 -3q11 0 22.5 2t21.5 7.5t16 14t6 21.5q0 20 -14.5 29t-35.5 9q-22 0 -44 -8l-15 15 l79 98h-20l114 645h-237l11 63h546l-11 -63h-238z" glyph-name="Tcommaaccent" unicode="Ţ" horiz-adv-x="547"/>
<glyph d="M303 412h-127l-49 -274q-3 -18 -3 -32q0 -33 16 -44t42 -11q14 0 31 4t26 11l-8 -58q-23 -12 -59 -13l-55 -70q8 2 15.5 3t15.5 1q12 0 25.5 -3.5t24 -11.5t17.5 -20.5t7 -31.5q0 -26 -11.5 -43.5t-29.5 -28t-39 -15.5t-40 -5q-20 0 -48.5 5t-48.5 15l19 36 q16 -8 35.5 -11t38.5 -3q11 0 22.5 2t21.5 7.5t16 14t6 21.5q0 20 -14.5 29t-35.5 9q-22 0 -44 -8l-15 15l75 94q-14 2 -28 8t-24.5 16.5t-17 27t-6.5 39.5q0 14 3 32l52 293h-97l11 56h95l23 132h67l-23 -132h129z" glyph-name="tcommaaccent" unicode="ţ" horiz-adv-x="307"/>
<glyph d="M387 764h-80l-83 144h63l64 -108l102 108h69zM250 0h-71l114 645h-237l11 63h546l-11 -63h-238z" glyph-name="Tcaron" unicode="Ť" horiz-adv-x="547"/>
<glyph d="M321 546h-57l101 185h71zM303 412h-127l-49 -274q-3 -18 -3 -32q0 -33 16 -44t42 -11q14 0 31 4t26 11l-8 -58q-13 -7 -33.5 -10.5t-43.5 -3.5q-17 0 -34.5 4t-32 14.5t-24 28.5t-9.5 46q0 14 3 32l52 293h-97l11 56h95l23 132h67l-23 -132h129z" glyph-name="tcaron" unicode="ť" horiz-adv-x="307"/>
<glyph d="M280 543l18 102h-237l11 63h546l-11 -63h-238l-18 -102h173l-8 -50h-174l-87 -493h-71l87 493h-169l8 50h170z" glyph-name="Tbar" unicode="Ŧ" horiz-adv-x="558"/>
<glyph d="M91 314l18 98h-97l11 56h95l23 132h67l-23 -132h129l-11 -56h-127l-18 -98h114l-8 -50h-115l-22 -126q-3 -18 -3 -32q0 -33 16 -44t42 -11q14 0 31 4t26 11l-8 -58q-13 -7 -33.5 -10.5t-43.5 -3.5q-17 0 -34.5 4t-32 14.5t-24 28.5t-9.5 46q0 14 3 32l25 145h-74l8 50h75 z" glyph-name="tbar" unicode="ŧ" horiz-adv-x="307"/>
<glyph d="M275 776q7 19 16.5 38t23 33.5t30.5 23.5t40 9q18 0 35 -7t34 -16q17 -8 32.5 -15.5t30.5 -7.5q23 0 36.5 15.5t21.5 34.5h43q-7 -20 -17 -38.5t-23.5 -33t-31 -23.5t-39.5 -9q-18 0 -35 7.5t-34 15.5q-16 9 -31.5 16t-31.5 7q-23 0 -36 -15.5t-21 -34.5h-43zM311 -18 q-64 0 -108.5 19t-72.5 49.5t-40.5 69t-12.5 77.5q0 35 6 67l78 444h71l-77 -436q-6 -32 -6 -61q0 -34 8.5 -64t28 -53t51 -36.5t78.5 -13.5q56 0 95.5 18.5t66 50t42 73t23.5 86.5l77 436h71l-78 -444q-8 -44 -26.5 -93.5t-53 -91.5t-88.5 -69.5t-133 -27.5z" glyph-name="Utilde" unicode="Ũ" horiz-adv-x="710"/>
<glyph d="M165 576q7 19 16.5 38t23 33.5t30.5 23.5t40 9q18 0 35 -7t34 -16q17 -8 32.5 -15.5t30.5 -7.5q23 0 36.5 15.5t21.5 34.5h43q-7 -20 -17 -38.5t-23.5 -33t-31 -23.5t-39.5 -9q-18 0 -35 7.5t-34 15.5q-16 9 -31.5 16t-31.5 7q-23 0 -36 -15.5t-21 -34.5h-43zM364 0 q2 19 5 42t6 38h-2q-27 -43 -69.5 -67.5t-90.5 -24.5q-76 0 -118.5 38.5t-42.5 104.5q0 12 1.5 24t3.5 26l51 287h67l-46 -259q-6 -32 -6 -59q0 -49 23 -77t81 -28q27 0 54 11t50.5 33.5t41.5 57t26 81.5l42 240h67l-64 -365q-4 -19 -8.5 -49t-6.5 -54h-65z" glyph-name="utilde" unicode="ũ" horiz-adv-x="577"/>
<glyph d="M576 800h-270l9 54h270zM311 -18q-64 0 -108.5 19t-72.5 49.5t-40.5 69t-12.5 77.5q0 35 6 67l78 444h71l-77 -436q-6 -32 -6 -61q0 -34 8.5 -64t28 -53t51 -36.5t78.5 -13.5q56 0 95.5 18.5t66 50t42 73t23.5 86.5l77 436h71l-78 -444q-8 -44 -26.5 -93.5t-53 -91.5 t-88.5 -69.5t-133 -27.5z" glyph-name="Umacron" unicode="Ū" horiz-adv-x="710"/>
<glyph d="M465 600h-270l9 54h270zM364 0q2 19 5 42t6 38h-2q-27 -43 -69.5 -67.5t-90.5 -24.5q-76 0 -118.5 38.5t-42.5 104.5q0 12 1.5 24t3.5 26l51 287h67l-46 -259q-6 -32 -6 -59q0 -49 23 -77t81 -28q27 0 54 11t50.5 33.5t41.5 57t26 81.5l42 240h67l-64 -365 q-4 -19 -8.5 -49t-6.5 -54h-65z" glyph-name="umacron" unicode="ū" horiz-adv-x="577"/>
<glyph d="M596 908q-5 -29 -19.5 -53.5t-36 -42t-49 -27t-57.5 -9.5q-62 0 -97 33t-35 99h44q0 -44 25.5 -61t63.5 -17q41 0 75 19.5t42 58.5h44zM311 -18q-64 0 -108.5 19t-72.5 49.5t-40.5 69t-12.5 77.5q0 35 6 67l78 444h71l-77 -436q-6 -32 -6 -61q0 -34 8.5 -64t28 -53 t51 -36.5t78.5 -13.5q56 0 95.5 18.5t66 50t42 73t23.5 86.5l77 436h71l-78 -444q-8 -44 -26.5 -93.5t-53 -91.5t-88.5 -69.5t-133 -27.5z" glyph-name="Ubreve" unicode="Ŭ" horiz-adv-x="710"/>
<glyph d="M484 708q-5 -29 -19.5 -53.5t-36 -42t-49 -27t-57.5 -9.5q-62 0 -97 33t-35 99h44q0 -44 25.5 -61t63.5 -17q41 0 75 19.5t42 58.5h44zM364 0q2 19 5 42t6 38h-2q-27 -43 -69.5 -67.5t-90.5 -24.5q-76 0 -118.5 38.5t-42.5 104.5q0 12 1.5 24t3.5 26l51 287h67l-46 -259 q-6 -32 -6 -59q0 -49 23 -77t81 -28q27 0 54 11t50.5 33.5t41.5 57t26 81.5l42 240h67l-64 -365q-4 -19 -8.5 -49t-6.5 -54h-65z" glyph-name="ubreve" unicode="ŭ" horiz-adv-x="577"/>
<glyph d="M509 865q0 22 -14 37t-39 15q-31 0 -51 -24t-20 -57q0 -23 14 -37.5t38 -14.5q32 0 52 24t20 57zM435 754q-38 0 -61.5 22t-23.5 57q0 23 8 43.5t22.5 36t34 24.5t43.5 9q38 0 61.5 -22t23.5 -57q0 -47 -30 -80t-78 -33zM311 -18q-64 0 -108.5 19t-72.5 49.5t-40.5 69 t-12.5 77.5q0 35 6 67l78 444h71l-77 -436q-6 -32 -6 -61q0 -34 8.5 -64t28 -53t51 -36.5t78.5 -13.5q56 0 95.5 18.5t66 50t42 73t23.5 86.5l77 436h71l-78 -444q-8 -44 -26.5 -93.5t-53 -91.5t-88.5 -69.5t-133 -27.5z" glyph-name="Uring" unicode="Ů" horiz-adv-x="710"/>
<glyph d="M401 665q0 22 -14 37t-39 15q-31 0 -51 -24t-20 -57q0 -23 14 -37.5t38 -14.5q32 0 52 24t20 57zM327 554q-38 0 -61.5 22t-23.5 57q0 23 8 43.5t22.5 36t34 24.5t43.5 9q38 0 61.5 -22t23.5 -57q0 -47 -30 -80t-78 -33zM364 0q2 19 5 42t6 38h-2q-27 -43 -69.5 -67.5 t-90.5 -24.5q-76 0 -118.5 38.5t-42.5 104.5q0 12 1.5 24t3.5 26l51 287h67l-46 -259q-6 -32 -6 -59q0 -49 23 -77t81 -28q27 0 54 11t50.5 33.5t41.5 57t26 81.5l42 240h67l-64 -365q-4 -19 -8.5 -49t-6.5 -54h-65z" glyph-name="uring" unicode="ů" horiz-adv-x="577"/>
<glyph d="M539 764h-59l126 144h91zM368 764h-59l127 144h91zM311 -18q-64 0 -108.5 19t-72.5 49.5t-40.5 69t-12.5 77.5q0 35 6 67l78 444h71l-77 -436q-6 -32 -6 -61q0 -34 8.5 -64t28 -53t51 -36.5t78.5 -13.5q56 0 95.5 18.5t66 50t42 73t23.5 86.5l77 436h71l-78 -444 q-8 -44 -26.5 -93.5t-53 -91.5t-88.5 -69.5t-133 -27.5z" glyph-name="Uhungarumlaut" unicode="Ű" horiz-adv-x="710"/>
<glyph d="M429 564h-59l126 144h91zM258 564h-59l127 144h91zM364 0q2 19 5 42t6 38h-2q-27 -43 -69.5 -67.5t-90.5 -24.5q-76 0 -118.5 38.5t-42.5 104.5q0 12 1.5 24t3.5 26l51 287h67l-46 -259q-6 -32 -6 -59q0 -49 23 -77t81 -28q27 0 54 11t50.5 33.5t41.5 57t26 81.5l42 240 h67l-64 -365q-4 -19 -8.5 -49t-6.5 -54h-65z" glyph-name="uhungarumlaut" unicode="ű" horiz-adv-x="577"/>
<glyph d="M311 -18q-64 0 -108.5 19t-72.5 49.5t-40.5 69t-12.5 77.5q0 35 6 67l78 444h71l-77 -436q-6 -32 -6 -61q0 -34 8.5 -64t28 -53t51 -36.5t78.5 -13.5q56 0 95.5 18.5t66 50t42 73t23.5 86.5l77 436h71l-78 -444q-7 -39 -22.5 -83t-43 -83.5t-69.5 -69t-102 -40.5 q-38 -34 -61.5 -64.5t-23.5 -57.5q0 -21 13.5 -28t29.5 -7q14 0 29 5.5t26 16.5l12 -40q-20 -17 -44.5 -26.5t-47.5 -9.5q-30 0 -54.5 17t-24.5 52q0 21 8 40t20.5 36.5t28 32.5t31.5 27h-6z" glyph-name="Uogonek" unicode="Ų" horiz-adv-x="710"/>
<glyph d="M421 -187q-20 -17 -44.5 -26.5t-47.5 -9.5q-30 0 -54.5 17t-24.5 52q0 25 11 47.5t28 42t36.5 36t37.5 28.5h1q2 19 5 42t6 38h-2q-27 -43 -69.5 -67.5t-90.5 -24.5q-76 0 -118.5 38.5t-42.5 104.5q0 12 1.5 24t3.5 26l51 287h67l-46 -259q-6 -32 -6 -59q0 -49 23 -77 t81 -28q27 0 54 11t50.5 33.5t41.5 57t26 81.5l42 240h67l-64 -365q-4 -19 -8.5 -49t-6.5 -54h-18q-44 -37 -72 -71t-28 -63q0 -21 13.5 -28t29.5 -7q14 0 29 5.5t26 16.5z" glyph-name="uogonek" unicode="ų" horiz-adv-x="577"/>
<glyph d="M716 764h-63l-64 108l-102 -108h-69l135 144h80zM218 99h2l295 609h86l59 -609h2l291 609h76l-345 -708h-84l-57 610h-2l-299 -610h-84l-73 708h76z" glyph-name="Wcircumflex" unicode="Ŵ" horiz-adv-x="960"/>
<glyph d="M549 564h-63l-64 108l-102 -108h-69l135 144h80zM122 468l32 -380h2l198 380h64l55 -380h3l187 380h72l-239 -468h-72l-53 379h-2l-195 -379h-71l-51 468h70z" glyph-name="wcircumflex" unicode="ŵ" horiz-adv-x="733"/>
<glyph d="M500 764h-63l-64 108l-102 -108h-69l135 144h80zM247 0h-71l54 305l-180 403h84l141 -344l283 344h89l-346 -403z" glyph-name="Ycircumflex" unicode="Ŷ" horiz-adv-x="557"/>
<glyph d="M430 564h-63l-64 108l-102 -108h-69l135 144h80zM189 74h2l228 394h75l-354 -589q-33 -54 -68 -86.5t-87 -32.5q-29 0 -57 6l10 62q22 -8 44 -8q32 0 55.5 21.5t46.5 61.5l58 98l-98 467h70z" glyph-name="ycircumflex" unicode="ŷ" horiz-adv-x="483"/>
<glyph d="M506 849q0 -20 -14.5 -35t-34.5 -15t-33.5 12.5t-13.5 34.5t14.5 36.5t34.5 14.5t33.5 -13t13.5 -35zM308 849q0 -20 -14 -35t-34 -15t-34 12.5t-14 34.5t15 36.5t35 14.5t33 -13t13 -35zM247 0h-71l54 305l-180 403h84l141 -344l283 344h89l-346 -403z" glyph-name="Ydieresis" unicode="Ÿ" horiz-adv-x="557"/>
<glyph d="M367 764h-56l126 144h88zM597 648l-518 -585h419l-11 -63h-512l11 60l519 585h-398l11 63h490z" glyph-name="Zacute" unicode="Ź" horiz-adv-x="572"/>
<glyph d="M263 564h-56l126 144h88zM421 420l-344 -361h290l-10 -59h-380l8 48l343 363h-265l11 57h356z" glyph-name="zacute" unicode="ź" horiz-adv-x="442"/>
<glyph d="M429 849q0 -20 -13.5 -34t-33.5 -14q-19 0 -32.5 12t-13.5 33t14.5 35t33.5 14t32 -12.5t13 -33.5zM597 648l-518 -585h419l-11 -63h-512l11 60l519 585h-398l11 63h490z" glyph-name="Zdotaccent" unicode="Ż" horiz-adv-x="572"/>
<glyph d="M324 649q0 -20 -13.5 -34t-33.5 -14q-19 0 -32.5 12t-13.5 33t14.5 35t33.5 14t32 -12.5t13 -33.5zM421 420l-344 -361h290l-10 -59h-380l8 48l343 363h-265l11 57h356z" glyph-name="zdotaccent" unicode="ż" horiz-adv-x="442"/>
<glyph d="M401 764h-80l-83 144h63l64 -108l102 108h69zM597 648l-518 -585h419l-11 -63h-512l11 60l519 585h-398l11 63h490z" glyph-name="Zcaron" unicode="Ž" horiz-adv-x="572"/>
<glyph d="M300 564h-80l-83 144h63l64 -108l102 108h69zM421 420l-344 -361h290l-10 -59h-380l8 48l343 363h-265l11 57h356z" glyph-name="zcaron" unicode="ž" horiz-adv-x="442"/>
<glyph d="M433 365h-119l-129 -352q-10 -27 -24.5 -54t-36 -49t-51.5 -35.5t-70 -13.5q-22 0 -42 5.5t-35 18.5l40 48q11 -6 24 -9t26 -3q23 0 40 9.5t29 24.5t20.5 34t15.5 38l122 338h-108l10 54h119l52 144q11 31 26.5 59t37 50t50 35t66.5 13q52 0 90 -29l-43 -48 q-11 8 -25 12.5t-29 4.5q-25 0 -43 -12t-31.5 -30t-22 -38t-13.5 -36l-44 -125h108z" glyph-name="florin" unicode="ƒ"/>
<glyph d="M710 417q0 51 -16 96t-46.5 78.5t-76 53t-103.5 19.5q-75 0 -137 -31.5t-105.5 -83.5t-67.5 -119t-24 -138q0 -51 15.5 -96.5t46.5 -79t76 -53t104 -19.5q74 0 135.5 31t105.5 83t68.5 119.5t24.5 139.5zM866 751q0 -27 -9 -51.5t-27 -42.5t-45 -28.5t-64 -10.5 q31 -38 48 -87.5t17 -106.5q0 -91 -31 -171.5t-86 -140.5t-131 -95t-165 -35q-69 0 -127 22t-100 62t-65 96t-23 124q0 91 32 171.5t87.5 140t131 94t162.5 34.5q50 0 86 -9.5t64 -21t51.5 -21t47.5 -9.5q35 0 61.5 21t26.5 63q0 24 -7 43l57 15q8 -22 8 -56z" glyph-name="Ohorn" unicode="Ơ" horiz-adv-x="834"/>
<glyph d="M458 274q0 32 -10 59.5t-29.5 47.5t-47.5 31.5t-63 11.5q-44 0 -81 -18.5t-64 -50t-42.5 -73t-15.5 -87.5q0 -32 10 -59.5t29.5 -47.5t47 -31.5t62.5 -11.5q45 0 82.5 18.5t64.5 49.5t42 72.5t15 88.5zM495 392q33 -50 33 -114q0 -60 -20.5 -113t-57.5 -92t-88 -62 t-112 -23q-47 0 -87 15t-68.5 41.5t-44.5 64t-16 82.5q0 59 20.5 111.5t57.5 92t88 62.5t112 23q35 0 59 -6.5t44.5 -14t39.5 -14t43 -6.5q35 0 61.5 21t26.5 63q0 24 -7 43l57 15q8 -22 8 -56q0 -27 -9 -51.5t-27 -42.5t-45 -28.5t-64 -10.5h-4z" glyph-name="ohorn" unicode="ơ" horiz-adv-x="596"/>
<glyph d="M311 -18q-64 0 -108.5 19t-72.5 49.5t-40.5 69t-12.5 77.5q0 35 6 67l78 444h71l-77 -436q-6 -32 -6 -61q0 -34 8.5 -64t28 -53t51 -36.5t78.5 -13.5q56 0 95.5 18.5t66 50t42 73t23.5 86.5l77 436h62q35 0 61.5 21t26.5 63q0 24 -7 43l57 15q8 -22 8 -56q0 -27 -9 -51.5 t-27 -42.5t-45 -28.5t-64 -10.5l-70 -397q-8 -44 -26.5 -93.5t-53 -91.5t-88.5 -69.5t-133 -27.5z" glyph-name="Uhorn" unicode="Ư" horiz-adv-x="720"/>
<glyph d="M364 0q2 19 5 42t6 38h-2q-27 -43 -69.5 -67.5t-90.5 -24.5q-76 0 -118.5 38.5t-42.5 104.5q0 12 1.5 24t3.5 26l51 287h67l-46 -259q-6 -32 -6 -59q0 -49 23 -77t81 -28q27 0 54 11t50.5 33.5t41.5 57t26 81.5l42 240h58q35 0 61.5 21t26.5 63q0 24 -7 43l57 15 q8 -22 8 -56q0 -27 -9 -51.5t-27 -42.5t-45 -28.5t-64 -10.5l-56 -318q-3 -19 -8 -49t-7 -54h-65z" glyph-name="uhorn" unicode="ư" horiz-adv-x="582"/>
<glyph d="M141 750v-1000h-60v1000h60z" glyph-name="clickdental" unicode="ǀ" horiz-adv-x="222"/>
<glyph d="M363 750v-1000h-60v1000h60zM141 750v-1000h-60v1000h60z" glyph-name="clicklateral" unicode="ǁ" horiz-adv-x="444"/>
<glyph d="M153 49q0 -22 -15.5 -38.5t-38.5 -16.5q-22 0 -37.5 14t-15.5 38t16.5 40t38.5 16t37 -14t15 -39zM155 192h-72l91 516h72z" glyph-name="clickretroflex" unicode="ǃ" horiz-adv-x="278"/>
<glyph d="M1165 783h-80l-83 144h63l64 -108l102 108h69zM1354 648l-518 -585h419l-11 -63h-512l11 60l519 585h-398l11 63h490zM122 63h160q86 0 151.5 29t110 76.5t67 109t22.5 126.5q0 49 -16 93t-49 77t-84 52t-121 19h-138zM165 708h214q60 0 119 -16.5t106 -52t76 -92 t29 -135.5q0 -93 -32.5 -169t-90.5 -130t-137 -83.5t-172 -29.5h-237z" glyph-name="DZcaron" unicode="Ǆ" horiz-adv-x="1569"/>
<glyph d="M1054 543h-80l-83 144h63l64 -108l102 108h69zM1178 420l-344 -361h290l-10 -59h-380l8 48l343 363h-265l11 57h356zM122 63h160q86 0 151.5 29t110 76.5t67 109t22.5 126.5q0 49 -16 93t-49 77t-84 52t-121 19h-138zM165 708h214q60 0 119 -16.5t106 -52t76 -92 t29 -135.5q0 -93 -32.5 -169t-90.5 -130t-137 -83.5t-172 -29.5h-237z" glyph-name="Dzcaron" unicode="ǅ" horiz-adv-x="1439"/>
<glyph d="M929 543h-80l-83 144h63l64 -108l102 108h69zM1043 420l-344 -361h290l-10 -59h-380l8 48l343 363h-265l11 57h356zM104 195q0 -32 9.5 -59t28.5 -47.5t46 -32t63 -11.5q44 0 82 18t66 49.5t44 72.5t16 88q0 33 -10.5 60.5t-30.5 48t-48 31.5t-62 11q-46 0 -83.5 -18 t-64.5 -49t-41.5 -72.5t-14.5 -89.5zM34 190q0 60 20.5 113t57.5 92t87.5 62t109.5 23q51 0 95.5 -23t67.5 -68h2l65 367h67l-134 -756h-67l14 77h-2q-23 -36 -69 -62.5t-103 -26.5q-48 0 -86.5 14.5t-66.5 41.5t-43 64t-15 82z" glyph-name="dzcaron" unicode="ǆ" horiz-adv-x="1304"/>
<glyph d="M563 140q7 -40 33 -68t74 -28q39 0 64 14t41.5 37t25 52.5t14.5 61.5l88 499h71l-89 -504q-6 -35 -17 -74t-34.5 -72t-61.5 -54.5t-98 -21.5q-39 0 -70 11t-52.5 30t-34.5 44t-17 53zM121 63h331l-10 -63h-402l125 708h71z" glyph-name="LJ" unicode="Ǉ" horiz-adv-x="992"/>
<glyph d="M737 649q0 -20 -13.5 -34t-33.5 -14q-19 0 -32.5 12t-13.5 33t14.5 35t33.5 14t32 -12.5t13 -33.5zM411 -176q9 -3 20.5 -4.5t21.5 -1.5q21 0 35 7.5t23 20.5t14 31.5t9 40.5l97 550h67l-99 -561q-5 -28 -13.5 -54.5t-24.5 -47t-42 -33t-66 -12.5q-11 0 -27.5 1.5 t-28.5 5.5zM121 63h331l-10 -63h-402l125 708h71z" glyph-name="Lj" unicode="ǈ" horiz-adv-x="761"/>
<glyph d="M479 649q0 -20 -13.5 -34t-33.5 -14q-19 0 -32.5 12t-13.5 33t14.5 35t33.5 14t32 -12.5t13 -33.5zM153 -176q9 -3 20.5 -4.5t21.5 -1.5q21 0 35 7.5t23 20.5t14 31.5t9 40.5l97 550h67l-99 -561q-5 -28 -13.5 -54.5t-24.5 -47t-42 -33t-66 -12.5q-11 0 -27.5 1.5 t-28.5 5.5zM106 0h-68l133 756h68z" glyph-name="lj" unicode="ǉ" horiz-adv-x="503"/>
<glyph d="M803 140q7 -40 33 -68t74 -28q39 0 64 14t41.5 37t25 52.5t14.5 61.5l88 499h71l-89 -504q-6 -35 -17 -74t-34.5 -72t-61.5 -54.5t-98 -21.5q-39 0 -70 11t-52.5 30t-34.5 44t-17 53zM546 101h2l107 607h71l-125 -708h-89l-290 615h-2l-108 -615h-71l125 708h89z" glyph-name="NJ" unicode="Ǌ" horiz-adv-x="1232"/>
<glyph d="M977 649q0 -20 -13.5 -34t-33.5 -14q-19 0 -32.5 12t-13.5 33t14.5 35t33.5 14t32 -12.5t13 -33.5zM651 -176q9 -3 20.5 -4.5t21.5 -1.5q21 0 35 7.5t23 20.5t14 31.5t9 40.5l97 550h67l-99 -561q-5 -28 -13.5 -54.5t-24.5 -47t-42 -33t-66 -12.5q-11 0 -27.5 1.5 t-28.5 5.5zM546 101h2l107 607h71l-125 -708h-89l-290 615h-2l-108 -615h-71l125 708h89z" glyph-name="Nj" unicode="ǋ" horiz-adv-x="1001"/>
<glyph d="M804 649q0 -20 -13.5 -34t-33.5 -14q-19 0 -32.5 12t-13.5 33t14.5 35t33.5 14t32 -12.5t13 -33.5zM478 -176q9 -3 20.5 -4.5t21.5 -1.5q21 0 35 7.5t23 20.5t14 31.5t9 40.5l97 550h67l-99 -561q-5 -28 -13.5 -54.5t-24.5 -47t-42 -33t-66 -12.5q-11 0 -27.5 1.5 t-28.5 5.5zM180 468q-2 -19 -5 -42t-6 -38h2q27 43 69.5 67.5t90.5 24.5q76 0 118.5 -38.5t42.5 -104.5q0 -12 -1.5 -24t-3.5 -26l-51 -287h-67l46 259q6 31 6 59q0 49 -23 77.5t-81 28.5q-27 0 -54 -11t-50.5 -34t-41.5 -57.5t-26 -81.5l-42 -240h-67l64 365q4 19 8.5 49 t6.5 54h65z" glyph-name="nj" unicode="ǌ" horiz-adv-x="828"/>
<glyph d="M494 783h-80l-83 144h63l64 -108l102 108h69zM188 252h310l-74 376zM31 0h-82l456 708h70l147 -708h-75l-38 186h-362z" glyph-name="Acaron" unicode="Ǎ" horiz-adv-x="695"/>
<glyph d="M355 555h-80l-83 144h63l64 -108l102 108h69zM358 236q-45 0 -92 -4.5t-85.5 -17t-63 -35t-24.5 -59.5q0 -22 8 -36.5t21.5 -23t31 -12t35.5 -3.5q36 0 66 12t53 33t38 48.5t21 58.5l7 39h-16zM383 287q3 17 4 26.5t1 17.5q0 51 -29 72t-81 21q-42 0 -81 -16.5t-65 -39.5 l-30 45q34 30 84 48.5t99 18.5q33 0 63.5 -7.5t53 -24t36 -42t13.5 -61.5q0 -9 -1 -24.5t-3 -25.5l-34 -190q-5 -27 -8 -56t-3 -49h-60q0 17 1.5 37t4.5 39h-2q-20 -23 -40 -39.5t-41.5 -26.5t-46 -14.5t-53.5 -4.5q-24 0 -49 6t-45.5 20.5t-34 37.5t-13.5 57q0 56 32 90.5 t83.5 53t115.5 25t129 6.5z" glyph-name="acaron" unicode="ǎ" horiz-adv-x="534"/>
<glyph d="M252 783h-80l-83 144h63l64 -108l102 108h69zM111 0h-71l125 708h71z" glyph-name="Icaron" unicode="Ǐ" horiz-adv-x="260"/>
<glyph d="M205 543h-80l-83 144h63l64 -108l102 108h69zM104 0h-67l83 468h67z" glyph-name="icaron" unicode="ǐ" horiz-adv-x="250"/>
<glyph d="M536 801h-80l-83 144h63l64 -108l102 108h69zM710 417q0 51 -16 96t-46.5 78.5t-76 53t-103.5 19.5q-75 0 -137 -31.5t-105.5 -83.5t-67.5 -119t-24 -138q0 -51 15.5 -96.5t46.5 -79t76 -53t104 -19.5q74 0 135.5 31t105.5 83t68.5 119.5t24.5 139.5zM373 -18 q-69 0 -127 22t-100 62t-65 96t-23 124q0 91 32 171.5t87.5 140t131 94t162.5 34.5q69 0 127 -21.5t99.5 -61.5t65 -95.5t23.5 -123.5q0 -91 -31 -171.5t-86 -140.5t-131 -95t-165 -35z" glyph-name="Ocaron" unicode="Ǒ" horiz-adv-x="834"/>
<glyph d="M372 555h-80l-83 144h63l64 -108l102 108h69zM458 274q0 32 -10 59.5t-29.5 47.5t-47.5 31.5t-63 11.5q-44 0 -81 -18.5t-64 -50t-42.5 -73t-15.5 -87.5q0 -32 10 -59.5t29.5 -47.5t47 -31.5t62.5 -11.5q45 0 82.5 18.5t64.5 49.5t42 72.5t15 88.5zM250 -12q-47 0 -87 15 t-68.5 41.5t-44.5 64t-16 82.5q0 59 20.5 111.5t57.5 92t88 62.5t112 23q48 0 87.5 -14.5t68 -41.5t44.5 -64t16 -82q0 -60 -20.5 -113t-57.5 -92t-88 -62t-112 -23z" glyph-name="ocaron" unicode="ǒ" horiz-adv-x="596"/>
<glyph d="M469 783h-80l-83 144h63l64 -108l102 108h69zM311 -18q-64 0 -108.5 19t-72.5 49.5t-40.5 69t-12.5 77.5q0 35 6 67l78 444h71l-77 -436q-6 -32 -6 -61q0 -34 8.5 -64t28 -53t51 -36.5t78.5 -13.5q56 0 95.5 18.5t66 50t42 73t23.5 86.5l77 436h71l-78 -444 q-8 -44 -26.5 -93.5t-53 -91.5t-88.5 -69.5t-133 -27.5z" glyph-name="Ucaron" unicode="Ǔ" horiz-adv-x="710"/>
<glyph d="M344 543h-80l-83 144h63l64 -108l102 108h69zM364 0q2 19 5 42t6 38h-2q-27 -43 -69.5 -67.5t-90.5 -24.5q-76 0 -118.5 38.5t-42.5 104.5q0 12 1.5 24t3.5 26l51 287h67l-46 -259q-6 -32 -6 -59q0 -49 23 -77t81 -28q27 0 54 11t50.5 33.5t41.5 57t26 81.5l42 240h67 l-64 -365q-4 -19 -8.5 -49t-6.5 -54h-65z" glyph-name="ucaron" unicode="ǔ" horiz-adv-x="577"/>
<glyph d="M574 956h-270l9 54h270zM580 833q0 -20 -14.5 -35t-34.5 -15t-33.5 12.5t-13.5 34.5t14.5 36.5t34.5 14.5t33.5 -13t13.5 -35zM382 833q0 -20 -14 -35t-34 -15t-34 12.5t-14 34.5t15 36.5t35 14.5t33 -13t13 -35zM311 -18q-64 0 -108.5 19t-72.5 49.5t-40.5 69 t-12.5 77.5q0 35 6 67l78 444h71l-77 -436q-6 -32 -6 -61q0 -34 8.5 -64t28 -53t51 -36.5t78.5 -13.5q56 0 95.5 18.5t66 50t42 73t23.5 86.5l77 436h71l-78 -444q-8 -44 -26.5 -93.5t-53 -91.5t-88.5 -69.5t-133 -27.5z" glyph-name="Udieresismacron" unicode="Ǖ" horiz-adv-x="710"/>
<glyph d="M462 716h-270l9 54h270zM468 593q0 -20 -14.5 -35t-34.5 -15t-33.5 12.5t-13.5 34.5t14.5 36.5t34.5 14.5t33.5 -13t13.5 -35zM270 593q0 -20 -14 -35t-34 -15t-34 12.5t-14 34.5t15 36.5t35 14.5t33 -13t13 -35zM364 0q2 19 5 42t6 38h-2q-27 -43 -69.5 -67.5 t-90.5 -24.5q-76 0 -118.5 38.5t-42.5 104.5q0 12 1.5 24t3.5 26l51 287h67l-46 -259q-6 -32 -6 -59q0 -49 23 -77t81 -28q27 0 54 11t50.5 33.5t41.5 57t26 81.5l42 240h67l-64 -365q-4 -19 -8.5 -49t-6.5 -54h-65z" glyph-name="udieresismacron" unicode="ǖ" horiz-adv-x="577"/>
<glyph d="M482 956h-56l126 144h88zM580 833q0 -20 -14.5 -35t-34.5 -15t-33.5 12.5t-13.5 34.5t14.5 36.5t34.5 14.5t33.5 -13t13.5 -35zM382 833q0 -20 -14 -35t-34 -15t-34 12.5t-14 34.5t15 36.5t35 14.5t33 -13t13 -35zM311 -18q-64 0 -108.5 19t-72.5 49.5t-40.5 69 t-12.5 77.5q0 35 6 67l78 444h71l-77 -436q-6 -32 -6 -61q0 -34 8.5 -64t28 -53t51 -36.5t78.5 -13.5q56 0 95.5 18.5t66 50t42 73t23.5 86.5l77 436h71l-78 -444q-8 -44 -26.5 -93.5t-53 -91.5t-88.5 -69.5t-133 -27.5z" glyph-name="Udieresisacute" unicode="Ǘ" horiz-adv-x="710"/>
<glyph d="M379 716h-56l126 144h88zM467 593q0 -20 -14.5 -35t-34.5 -15t-33.5 12.5t-13.5 34.5t14.5 36.5t34.5 14.5t33.5 -13t13.5 -35zM269 593q0 -20 -14 -35t-34 -15t-34 12.5t-14 34.5t15 36.5t35 14.5t33 -13t13 -35zM364 0q2 19 5 42t6 38h-2q-27 -43 -69.5 -67.5 t-90.5 -24.5q-76 0 -118.5 38.5t-42.5 104.5q0 12 1.5 24t3.5 26l51 287h67l-46 -259q-6 -32 -6 -59q0 -49 23 -77t81 -28q27 0 54 11t50.5 33.5t41.5 57t26 81.5l42 240h67l-64 -365q-4 -19 -8.5 -49t-6.5 -54h-65z" glyph-name="udieresisacute" unicode="ǘ" horiz-adv-x="577"/>
<glyph d="M493 956h-80l-83 144h63l64 -108l102 108h69zM586 833q0 -20 -14.5 -35t-34.5 -15t-33.5 12.5t-13.5 34.5t14.5 36.5t34.5 14.5t33.5 -13t13.5 -35zM388 833q0 -20 -14 -35t-34 -15t-34 12.5t-14 34.5t15 36.5t35 14.5t33 -13t13 -35zM311 -18q-64 0 -108.5 19 t-72.5 49.5t-40.5 69t-12.5 77.5q0 35 6 67l78 444h71l-77 -436q-6 -32 -6 -61q0 -34 8.5 -64t28 -53t51 -36.5t78.5 -13.5q56 0 95.5 18.5t66 50t42 73t23.5 86.5l77 436h71l-78 -444q-8 -44 -26.5 -93.5t-53 -91.5t-88.5 -69.5t-133 -27.5z" glyph-name="Udieresiscaron" unicode="Ǚ" horiz-adv-x="710"/>
<glyph d="M375 716h-80l-83 144h63l64 -108l102 108h69zM468 593q0 -20 -14.5 -35t-34.5 -15t-33.5 12.5t-13.5 34.5t14.5 36.5t34.5 14.5t33.5 -13t13.5 -35zM270 593q0 -20 -14 -35t-34 -15t-34 12.5t-14 34.5t15 36.5t35 14.5t33 -13t13 -35zM364 0q2 19 5 42t6 38h-2 q-27 -43 -69.5 -67.5t-90.5 -24.5q-76 0 -118.5 38.5t-42.5 104.5q0 12 1.5 24t3.5 26l51 287h67l-46 -259q-6 -32 -6 -59q0 -49 23 -77t81 -28q27 0 54 11t50.5 33.5t41.5 57t26 81.5l42 240h67l-64 -365q-4 -19 -8.5 -49t-6.5 -54h-65z" glyph-name="udieresiscaron" unicode="ǚ" horiz-adv-x="577"/>
<glyph d="M289 1100h88l100 -144h-56zM590 833q0 -20 -14.5 -35t-34.5 -15t-33.5 12.5t-13.5 34.5t14.5 36.5t34.5 14.5t33.5 -13t13.5 -35zM392 833q0 -20 -14 -35t-34 -15t-34 12.5t-14 34.5t15 36.5t35 14.5t33 -13t13 -35zM311 -18q-64 0 -108.5 19t-72.5 49.5t-40.5 69 t-12.5 77.5q0 35 6 67l78 444h71l-77 -436q-6 -32 -6 -61q0 -34 8.5 -64t28 -53t51 -36.5t78.5 -13.5q56 0 95.5 18.5t66 50t42 73t23.5 86.5l77 436h71l-78 -444q-8 -44 -26.5 -93.5t-53 -91.5t-88.5 -69.5t-133 -27.5z" glyph-name="Udieresisgrave" unicode="Ǜ" horiz-adv-x="710"/>
<glyph d="M149 860h88l100 -144h-56zM460 593q0 -20 -14.5 -35t-34.5 -15t-33.5 12.5t-13.5 34.5t14.5 36.5t34.5 14.5t33.5 -13t13.5 -35zM262 593q0 -20 -14 -35t-34 -15t-34 12.5t-14 34.5t15 36.5t35 14.5t33 -13t13 -35zM364 0q2 19 5 42t6 38h-2q-27 -43 -69.5 -67.5 t-90.5 -24.5q-76 0 -118.5 38.5t-42.5 104.5q0 12 1.5 24t3.5 26l51 287h67l-46 -259q-6 -32 -6 -59q0 -49 23 -77t81 -28q27 0 54 11t50.5 33.5t41.5 57t26 81.5l42 240h67l-64 -365q-4 -19 -8.5 -49t-6.5 -54h-65z" glyph-name="udieresisgrave" unicode="ǜ" horiz-adv-x="577"/>
<glyph d="M597 956h-270l9 54h270zM603 833q0 -20 -14.5 -35t-34.5 -15t-33.5 12.5t-13.5 34.5t14.5 36.5t34.5 14.5t33.5 -13t13.5 -35zM405 833q0 -20 -14 -35t-34 -15t-34 12.5t-14 34.5t15 36.5t35 14.5t33 -13t13 -35zM188 252h310l-74 376zM31 0h-82l456 708h70l147 -708h-75 l-38 186h-362z" glyph-name="Adieresismacron" unicode="Ǟ" horiz-adv-x="695"/>
<glyph d="M438 728h-270l9 54h270zM444 605q0 -20 -14.5 -35t-34.5 -15t-33.5 12.5t-13.5 34.5t14.5 36.5t34.5 14.5t33.5 -13t13.5 -35zM246 605q0 -20 -14 -35t-34 -15t-34 12.5t-14 34.5t15 36.5t35 14.5t33 -13t13 -35zM358 236q-45 0 -92 -4.5t-85.5 -17t-63 -35t-24.5 -59.5 q0 -22 8 -36.5t21.5 -23t31 -12t35.5 -3.5q36 0 66 12t53 33t38 48.5t21 58.5l7 39h-16zM383 287q3 17 4 26.5t1 17.5q0 51 -29 72t-81 21q-42 0 -81 -16.5t-65 -39.5l-30 45q34 30 84 48.5t99 18.5q33 0 63.5 -7.5t53 -24t36 -42t13.5 -61.5q0 -9 -1 -24.5t-3 -25.5 l-34 -190q-5 -27 -8 -56t-3 -49h-60q0 17 1.5 37t4.5 39h-2q-20 -23 -40 -39.5t-41.5 -26.5t-46 -14.5t-53.5 -4.5q-24 0 -49 6t-45.5 20.5t-34 37.5t-13.5 57q0 56 32 90.5t83.5 53t115.5 25t129 6.5z" glyph-name="adieresismacron" unicode="ǟ" horiz-adv-x="534"/>
<glyph d="M612 952h-270l9 54h270zM502 831q0 -20 -13.5 -34t-33.5 -14q-19 0 -32.5 12t-13.5 33t14.5 35t33.5 14t32 -12.5t13 -33.5zM188 252h310l-74 376zM31 0h-82l456 708h70l147 -708h-75l-38 186h-362z" glyph-name="Adotmacron" unicode="Ǡ" horiz-adv-x="695"/>
<glyph d="M445 724h-270l9 54h270zM344 603q0 -20 -13.5 -34t-33.5 -14q-19 0 -32.5 12t-13.5 33t14.5 35t33.5 14t32 -12.5t13 -33.5zM358 236q-45 0 -92 -4.5t-85.5 -17t-63 -35t-24.5 -59.5q0 -22 8 -36.5t21.5 -23t31 -12t35.5 -3.5q36 0 66 12t53 33t38 48.5t21 58.5l7 39h-16 zM383 287q3 17 4 26.5t1 17.5q0 51 -29 72t-81 21q-42 0 -81 -16.5t-65 -39.5l-30 45q34 30 84 48.5t99 18.5q33 0 63.5 -7.5t53 -24t36 -42t13.5 -61.5q0 -9 -1 -24.5t-3 -25.5l-34 -190q-5 -27 -8 -56t-3 -49h-60q0 17 1.5 37t4.5 39h-2q-20 -23 -40 -39.5t-41.5 -26.5 t-46 -14.5t-53.5 -4.5q-24 0 -49 6t-45.5 20.5t-34 37.5t-13.5 57q0 56 32 90.5t83.5 53t115.5 25t129 6.5z" glyph-name="adotmacron" unicode="ǡ" horiz-adv-x="534"/>
<glyph d="M913 783h-270l9 54h270zM511 261l68 384h-8l-315 -384h255zM465 0l35 200h-291l-163 -200h-89l586 708h445l-11 -63h-328l-43 -246h312l-11 -61h-312l-49 -275h354l-11 -63h-424z" glyph-name="AEmacron" unicode="Ǣ" horiz-adv-x="990"/>
<glyph d="M611 555h-270l9 54h270zM749 266q1 8 1.5 17.5t0.5 17.5q0 54 -33 88.5t-97 34.5q-35 0 -64.5 -12.5t-53 -34.5t-39.5 -50.5t-23 -60.5h308zM354 216q-51 0 -98.5 -4t-83.5 -14.5t-57.5 -29t-21.5 -48.5q0 -22 8 -36.5t21.5 -23t31 -12t35.5 -3.5q36 0 66.5 11.5t53.5 32 t38 48t20 60.5l3 19h-16zM442 389q13 19 33.5 35.5t45 29t50.5 19.5t52 7q96 0 145.5 -51t49.5 -132q0 -12 -2 -36.5t-7 -44.5h-377q-1 -6 -1.5 -11.5t-0.5 -10.5q0 -33 10 -60t28.5 -47t44.5 -31t58 -11q55 0 96 24.5t66 57.5l42 -40q-41 -49 -95 -74t-115 -25q-31 0 -59 9 t-51.5 25t-40 37.5t-25.5 46.5q-29 -53 -80.5 -84t-128.5 -31q-28 0 -56 6t-50.5 20.5t-36.5 37.5t-14 57q0 52 31.5 82.5t81.5 46.5t113.5 20.5t128.5 4.5q4 17 7 37t3 28q0 51 -29 72t-81 21q-42 0 -81 -16.5t-65 -39.5l-30 45q34 30 84 48.5t99 18.5q54 0 97 -21.5 t60 -69.5z" glyph-name="aemacron" unicode="ǣ" horiz-adv-x="884"/>
<glyph d="M522 801h-80l-83 144h63l64 -108l102 108h69zM380 44q61 0 113 13t88 35l38 217h-167l11 61h237l-56 -319q-64 -37 -130 -53t-138 -16q-71 0 -129.5 22t-100.5 62t-65 96t-23 124q0 92 33 172t90.5 139.5t134.5 94t165 34.5q39 0 75.5 -8t67.5 -22.5t55.5 -35.5t39.5 -47 l-65 -43q-8 17 -23.5 34t-37.5 30.5t-50.5 21.5t-63.5 8q-76 0 -139.5 -31.5t-109 -83t-71 -118.5t-25.5 -138q0 -52 16 -97.5t47.5 -79t77 -53t105.5 -19.5z" glyph-name="Gcaron" unicode="Ǧ" horiz-adv-x="770"/>
<glyph d="M473 555h-80l-83 144h63l64 -108l102 108h69zM114 204q0 -30 10 -57t29 -47.5t47 -32t64 -11.5q45 0 82.5 17.5t64.5 47.5t42 69.5t15 83.5q0 31 -10.5 58.5t-30 47.5t-47.5 32t-63 12q-45 0 -82.5 -16t-64 -44.5t-41.5 -69.5t-15 -90zM41 -98q25 -36 70.5 -59.5 t99.5 -23.5q50 0 86 14.5t60 40t38 59t21 71.5l17 89h-2q-32 -45 -78 -69t-100 -24q-48 0 -86.5 15.5t-65.5 43.5t-41.5 65t-14.5 81q0 57 20.5 107t57 87.5t86.5 59t109 21.5q25 0 50 -6t46.5 -18t38.5 -29.5t27 -39.5h2l15 81h66l-82 -464q-7 -38 -21 -81t-43.5 -79 t-78.5 -60t-127 -24q-69 0 -125 25t-90 69z" glyph-name="gcaron" unicode="ǧ" horiz-adv-x="627"/>
<glyph d="M416 783h-80l-83 144h63l64 -108l102 108h69zM180 390h1l360 318h104l-387 -328l296 -380h-93l-283 377h-1l-66 -377h-71l125 708h71z" glyph-name="Kcaron" unicode="Ǩ" horiz-adv-x="585"/>
<glyph d="M249 831h-80l-83 144h63l64 -108l102 108h69zM150 257h3l239 211h93l-257 -217l214 -251h-88l-203 246h-3l-42 -246h-68l133 756h67z" glyph-name="kcaron" unicode="ǩ" horiz-adv-x="487"/>
<glyph d="M710 417q0 51 -16 96t-46.5 78.5t-76 53t-103.5 19.5q-75 0 -137 -31.5t-105.5 -83.5t-67.5 -119t-24 -138q0 -51 15.5 -96.5t46.5 -79t76 -53t104 -19.5q74 0 135.5 31t105.5 83t68.5 119.5t24.5 139.5zM373 -18q-69 0 -127 22t-100 62t-65 96t-23 124q0 91 32 171.5 t87.5 140t131 94t162.5 34.5q69 0 127 -21.5t99.5 -61.5t65 -95.5t23.5 -123.5q0 -67 -13.5 -120.5t-38.5 -98t-60 -82.5t-77 -73q-27 -23 -61 -46t-65 -48t-52 -51.5t-21 -56.5q0 -21 13.5 -28t29.5 -7q14 0 29 5.5t26 16.5l12 -40q-20 -17 -44.5 -26.5t-47.5 -9.5 q-30 0 -54.5 17t-24.5 52q0 28 8.5 51t22.5 42.5t33 36t39 30.5q-33 -6 -67 -6z" glyph-name="Oogonek" unicode="Ǫ" horiz-adv-x="834"/>
<glyph d="M458 274q0 32 -10 59.5t-29.5 47.5t-47.5 31.5t-63 11.5q-44 0 -81 -18.5t-64 -50t-42.5 -73t-15.5 -87.5q0 -32 10 -59.5t29.5 -47.5t47 -31.5t62.5 -11.5q45 0 82.5 18.5t64.5 49.5t42 72.5t15 88.5zM250 -12q-47 0 -87 15t-68.5 41.5t-44.5 64t-16 82.5 q0 59 20.5 111.5t57.5 92t88 62.5t112 23q48 0 87.5 -14.5t68 -41.5t44.5 -64t16 -82q0 -43 -8 -77t-24 -62.5t-38.5 -53.5t-50.5 -49q-25 -21 -54 -43t-53.5 -45t-41 -47.5t-16.5 -52.5q0 -21 13.5 -28t29.5 -7q14 0 29 5.5t26 16.5l12 -40q-20 -17 -44.5 -26.5t-47.5 -9.5 q-30 0 -54.5 17t-24.5 52q0 28 9 52t23.5 44t33.5 36.5t40 30.5q-18 -3 -37 -3z" glyph-name="oogonek" unicode="ǫ" horiz-adv-x="596"/>
<glyph d="M613 801h-270l9 54h270zM710 417q0 51 -16 96t-46.5 78.5t-76 53t-103.5 19.5q-75 0 -137 -31.5t-105.5 -83.5t-67.5 -119t-24 -138q0 -51 15.5 -96.5t46.5 -79t76 -53t104 -19.5q74 0 135.5 31t105.5 83t68.5 119.5t24.5 139.5zM373 -18q-69 0 -127 22t-100 62t-65 96 t-23 124q0 91 32 171.5t87.5 140t131 94t162.5 34.5q69 0 127 -21.5t99.5 -61.5t65 -95.5t23.5 -123.5q0 -67 -13.5 -120.5t-38.5 -98t-60 -82.5t-77 -73q-27 -23 -61 -46t-65 -48t-52 -51.5t-21 -56.5q0 -21 13.5 -28t29.5 -7q14 0 29 5.5t26 16.5l12 -40 q-20 -17 -44.5 -26.5t-47.5 -9.5q-30 0 -54.5 17t-24.5 52q0 28 8.5 51t22.5 42.5t33 36t39 30.5q-33 -6 -67 -6z" glyph-name="Oogonekmacron" unicode="Ǭ" horiz-adv-x="834"/>
<glyph d="M457 555h-270l9 54h270zM458 274q0 32 -10 59.5t-29.5 47.5t-47.5 31.5t-63 11.5q-44 0 -81 -18.5t-64 -50t-42.5 -73t-15.5 -87.5q0 -32 10 -59.5t29.5 -47.5t47 -31.5t62.5 -11.5q45 0 82.5 18.5t64.5 49.5t42 72.5t15 88.5zM250 -12q-47 0 -87 15t-68.5 41.5t-44.5 64 t-16 82.5q0 59 20.5 111.5t57.5 92t88 62.5t112 23q48 0 87.5 -14.5t68 -41.5t44.5 -64t16 -82q0 -43 -8 -77t-24 -62.5t-38.5 -53.5t-50.5 -49q-25 -21 -54 -43t-53.5 -45t-41 -47.5t-16.5 -52.5q0 -21 13.5 -28t29.5 -7q14 0 29 5.5t26 16.5l12 -40q-20 -17 -44.5 -26.5 t-47.5 -9.5q-30 0 -54.5 17t-24.5 52q0 28 9 52t23.5 44t33.5 36.5t40 30.5q-18 -3 -37 -3z" glyph-name="oogonekmacron" unicode="ǭ" horiz-adv-x="596"/>
<glyph d="M1354 648l-518 -585h419l-11 -63h-512l11 60l519 585h-398l11 63h490zM122 63h160q86 0 151.5 29t110 76.5t67 109t22.5 126.5q0 49 -16 93t-49 77t-84 52t-121 19h-138zM165 708h214q60 0 119 -16.5t106 -52t76 -92t29 -135.5q0 -93 -32.5 -169t-90.5 -130t-137 -83.5 t-172 -29.5h-237z" glyph-name="DZ" unicode="Ǳ" horiz-adv-x="1329"/>
<glyph d="M1178 420l-344 -361h290l-10 -59h-380l8 48l343 363h-265l11 57h356zM122 63h160q86 0 151.5 29t110 76.5t67 109t22.5 126.5q0 49 -16 93t-49 77t-84 52t-121 19h-138zM165 708h214q60 0 119 -16.5t106 -52t76 -92t29 -135.5q0 -93 -32.5 -169t-90.5 -130t-137 -83.5 t-172 -29.5h-237z" glyph-name="Dz" unicode="ǲ" horiz-adv-x="1199"/>
<glyph d="M1043 420l-344 -361h290l-10 -59h-380l8 48l343 363h-265l11 57h356zM104 195q0 -32 9.5 -59t28.5 -47.5t46 -32t63 -11.5q44 0 82 18t66 49.5t44 72.5t16 88q0 33 -10.5 60.5t-30.5 48t-48 31.5t-62 11q-46 0 -83.5 -18t-64.5 -49t-41.5 -72.5t-14.5 -89.5zM34 190 q0 60 20.5 113t57.5 92t87.5 62t109.5 23q51 0 95.5 -23t67.5 -68h2l65 367h67l-134 -756h-67l14 77h-2q-23 -36 -69 -62.5t-103 -26.5q-48 0 -86.5 14.5t-66.5 41.5t-43 64t-15 82z" glyph-name="dz" unicode="ǳ" horiz-adv-x="1064"/>
<glyph d="M465 801h-56l126 144h88zM380 44q61 0 113 13t88 35l38 217h-167l11 61h237l-56 -319q-64 -37 -130 -53t-138 -16q-71 0 -129.5 22t-100.5 62t-65 96t-23 124q0 92 33 172t90.5 139.5t134.5 94t165 34.5q39 0 75.5 -8t67.5 -22.5t55.5 -35.5t39.5 -47l-65 -43 q-8 17 -23.5 34t-37.5 30.5t-50.5 21.5t-63.5 8q-76 0 -139.5 -31.5t-109 -83t-71 -118.5t-25.5 -138q0 -52 16 -97.5t47.5 -79t77 -53t105.5 -19.5z" glyph-name="Gacute" unicode="Ǵ" horiz-adv-x="770"/>
<glyph d="M398 555h-56l126 144h88zM114 204q0 -30 10 -57t29 -47.5t47 -32t64 -11.5q45 0 82.5 17.5t64.5 47.5t42 69.5t15 83.5q0 31 -10.5 58.5t-30 47.5t-47.5 32t-63 12q-45 0 -82.5 -16t-64 -44.5t-41.5 -69.5t-15 -90zM41 -98q25 -36 70.5 -59.5t99.5 -23.5q50 0 86 14.5 t60 40t38 59t21 71.5l17 89h-2q-32 -45 -78 -69t-100 -24q-48 0 -86.5 15.5t-65.5 43.5t-41.5 65t-14.5 81q0 57 20.5 107t57 87.5t86.5 59t109 21.5q25 0 50 -6t46.5 -18t38.5 -29.5t27 -39.5h2l15 81h66l-82 -464q-7 -38 -21 -81t-43.5 -79t-78.5 -60t-127 -24 q-69 0 -125 25t-90 69z" glyph-name="gacute" unicode="ǵ" horiz-adv-x="627"/>
<glyph d="M325 927h88l100 -144h-56zM546 101h2l107 607h71l-125 -708h-89l-290 615h-2l-108 -615h-71l125 708h89z" glyph-name="Ngrave" unicode="Ǹ" horiz-adv-x="750"/>
<glyph d="M180 699h88l100 -144h-56zM180 468q-2 -19 -5 -42t-6 -38h2q27 43 69.5 67.5t90.5 24.5q76 0 118.5 -38.5t42.5 -104.5q0 -12 -1.5 -24t-3.5 -26l-51 -287h-67l46 259q6 31 6 59q0 49 -23 77.5t-81 28.5q-27 0 -54 -11t-50.5 -34t-41.5 -57.5t-26 -81.5l-42 -240h-67 l64 365q4 19 8.5 49t6.5 54h65z" glyph-name="ngrave" unicode="ǹ" horiz-adv-x="577"/>
<glyph d="M524 1050h-56l126 144h88zM538 894q0 22 -14 37t-39 15q-31 0 -51 -24t-20 -57q0 -23 14 -37.5t38 -14.5q32 0 52 24t20 57zM464 783q-38 0 -61.5 22t-23.5 57q0 23 8 43.5t22.5 36t34 24.5t43.5 9q38 0 61.5 -22t23.5 -57q0 -47 -30 -80t-78 -33zM188 252h310l-74 376z M31 0h-82l456 708h70l147 -708h-75l-38 186h-362z" glyph-name="Aringacute" unicode="Ǻ" horiz-adv-x="695"/>
<glyph d="M336 822h-56l126 144h88zM390 666q0 22 -14 37t-39 15q-31 0 -51 -24t-20 -57q0 -23 14 -37.5t38 -14.5q32 0 52 24t20 57zM316 555q-38 0 -61.5 22t-23.5 57q0 23 8 43.5t22.5 36t34 24.5t43.5 9q38 0 61.5 -22t23.5 -57q0 -47 -30 -80t-78 -33zM358 236q-45 0 -92 -4.5 t-85.5 -17t-63 -35t-24.5 -59.5q0 -22 8 -36.5t21.5 -23t31 -12t35.5 -3.5q36 0 66 12t53 33t38 48.5t21 58.5l7 39h-16zM383 287q3 17 4 26.5t1 17.5q0 51 -29 72t-81 21q-42 0 -81 -16.5t-65 -39.5l-30 45q34 30 84 48.5t99 18.5q33 0 63.5 -7.5t53 -24t36 -42t13.5 -61.5 q0 -9 -1 -24.5t-3 -25.5l-34 -190q-5 -27 -8 -56t-3 -49h-60q0 17 1.5 37t4.5 39h-2q-20 -23 -40 -39.5t-41.5 -26.5t-46 -14.5t-53.5 -4.5q-24 0 -49 6t-45.5 20.5t-34 37.5t-13.5 57q0 56 32 90.5t83.5 53t115.5 25t129 6.5z" glyph-name="aringacute" unicode="ǻ" horiz-adv-x="534"/>
<glyph d="M811 783h-56l126 144h88zM511 261l68 384h-8l-315 -384h255zM465 0l35 200h-291l-163 -200h-89l586 708h445l-11 -63h-328l-43 -246h312l-11 -61h-312l-49 -275h354l-11 -63h-424z" glyph-name="AEacute" unicode="Ǽ" horiz-adv-x="990"/>
<glyph d="M469 555h-56l126 144h88zM749 266q1 8 1.5 17.5t0.5 17.5q0 54 -33 88.5t-97 34.5q-35 0 -64.5 -12.5t-53 -34.5t-39.5 -50.5t-23 -60.5h308zM354 216q-51 0 -98.5 -4t-83.5 -14.5t-57.5 -29t-21.5 -48.5q0 -22 8 -36.5t21.5 -23t31 -12t35.5 -3.5q36 0 66.5 11.5 t53.5 32t38 48t20 60.5l3 19h-16zM442 389q13 19 33.5 35.5t45 29t50.5 19.5t52 7q96 0 145.5 -51t49.5 -132q0 -12 -2 -36.5t-7 -44.5h-377q-1 -6 -1.5 -11.5t-0.5 -10.5q0 -33 10 -60t28.5 -47t44.5 -31t58 -11q55 0 96 24.5t66 57.5l42 -40q-41 -49 -95 -74t-115 -25 q-31 0 -59 9t-51.5 25t-40 37.5t-25.5 46.5q-29 -53 -80.5 -84t-128.5 -31q-28 0 -56 6t-50.5 20.5t-36.5 37.5t-14 57q0 52 31.5 82.5t81.5 46.5t113.5 20.5t128.5 4.5q4 17 7 37t3 28q0 51 -29 72t-81 21q-42 0 -81 -16.5t-65 -39.5l-30 45q34 30 84 48.5t99 18.5 q54 0 97 -21.5t60 -69.5z" glyph-name="aeacute" unicode="ǽ" horiz-adv-x="884"/>
<glyph d="M464 801h-56l126 144h88zM652 595q-31 32 -75 50.5t-102 18.5q-75 0 -138 -31.5t-108 -83.5t-70 -119t-25 -138q0 -81 38 -143zM198 115q30 -33 74.5 -52t103.5 -19q74 0 136.5 31t108 83t71 119.5t25.5 139.5q0 80 -37 141zM735 608q28 -37 43 -83t15 -101 q0 -91 -32 -171.5t-88.5 -140.5t-133.5 -95t-166 -35q-70 0 -128 22t-100 63l-90 -85l-30 34l91 84q-28 38 -43 84.5t-15 101.5q0 91 33 171.5t90 140t133.5 94t163.5 34.5q69 0 127 -22t100 -62l90 84l30 -34z" glyph-name="Oslashacute" unicode="Ǿ" horiz-adv-x="834"/>
<glyph d="M330 571h-56l126 144h88zM416 383q-20 20 -46.5 30.5t-61.5 10.5q-44 0 -81 -18.5t-64 -50t-42.5 -73t-15.5 -87.5q0 -44 18 -77zM146 87q19 -20 46 -31t62 -11q45 0 82.5 18.5t64.5 49.5t42 72.5t15 88.5q0 43 -18 76zM491 397q37 -49 37 -119q0 -60 -20.5 -113 t-57.5 -92t-88 -62t-112 -23q-92 0 -151 53l-79 -69l-25 31l77 67q-18 24 -28 55t-10 66q0 59 20.5 111.5t57.5 92t88 62.5t112 23q47 0 85.5 -13.5t67.5 -39.5l77 69l26 -31z" glyph-name="oslashacute" unicode="ǿ" horiz-adv-x="596"/>
<glyph d="M211 927h88l100 -144h-56zM352 927h88l100 -144h-56zM188 252h310l-74 376zM31 0h-82l456 708h70l147 -708h-75l-38 186h-362z" glyph-name="Adblgrave" unicode="Ȁ" horiz-adv-x="695"/>
<glyph d="M53 699h88l100 -144h-56zM194 699h88l100 -144h-56zM358 236q-45 0 -92 -4.5t-85.5 -17t-63 -35t-24.5 -59.5q0 -22 8 -36.5t21.5 -23t31 -12t35.5 -3.5q36 0 66 12t53 33t38 48.5t21 58.5l7 39h-16zM383 287q3 17 4 26.5t1 17.5q0 51 -29 72t-81 21q-42 0 -81 -16.5 t-65 -39.5l-30 45q34 30 84 48.5t99 18.5q33 0 63.5 -7.5t53 -24t36 -42t13.5 -61.5q0 -9 -1 -24.5t-3 -25.5l-34 -190q-5 -27 -8 -56t-3 -49h-60q0 17 1.5 37t4.5 39h-2q-20 -23 -40 -39.5t-41.5 -26.5t-46 -14.5t-53.5 -4.5q-24 0 -49 6t-45.5 20.5t-34 37.5t-13.5 57 q0 56 32 90.5t83.5 53t115.5 25t129 6.5z" glyph-name="adblgrave" unicode="ȁ" horiz-adv-x="534"/>
<glyph d="M314 783q5 29 19.5 53.5t36 42t49 27t57.5 9.5q62 0 97 -33t35 -99h-44q0 22 -7 37t-19 24t-28 13t-35 4q-41 0 -75 -19.5t-42 -58.5h-44zM188 252h310l-74 376zM31 0h-82l456 708h70l147 -708h-75l-38 186h-362z" glyph-name="Ainvertedbreve" unicode="Ȃ" horiz-adv-x="695"/>
<glyph d="M173 555q5 29 19.5 53.5t36 42t49 27t57.5 9.5q62 0 97 -33t35 -99h-44q0 22 -7 37t-19 24t-28 13t-35 4q-41 0 -75 -19.5t-42 -58.5h-44zM358 236q-45 0 -92 -4.5t-85.5 -17t-63 -35t-24.5 -59.5q0 -22 8 -36.5t21.5 -23t31 -12t35.5 -3.5q36 0 66 12t53 33t38 48.5 t21 58.5l7 39h-16zM383 287q3 17 4 26.5t1 17.5q0 51 -29 72t-81 21q-42 0 -81 -16.5t-65 -39.5l-30 45q34 30 84 48.5t99 18.5q33 0 63.5 -7.5t53 -24t36 -42t13.5 -61.5q0 -9 -1 -24.5t-3 -25.5l-34 -190q-5 -27 -8 -56t-3 -49h-60q0 17 1.5 37t4.5 39h-2 q-20 -23 -40 -39.5t-41.5 -26.5t-46 -14.5t-53.5 -4.5q-24 0 -49 6t-45.5 20.5t-34 37.5t-13.5 57q0 56 32 90.5t83.5 53t115.5 25t129 6.5z" glyph-name="ainvertedbreve" unicode="ȃ" horiz-adv-x="534"/>
<glyph d="M161 927h88l100 -144h-56zM302 927h88l100 -144h-56zM122 63h380l-11 -63h-451l125 708h425l-11 -63h-354l-43 -246h338l-11 -61h-338z" glyph-name="Edblgrave" unicode="Ȅ"/>
<glyph d="M83 699h88l100 -144h-56zM224 699h88l100 -144h-56zM431 266q1 8 1.5 17.5t0.5 17.5q0 54 -33 88.5t-97 34.5q-37 0 -68.5 -12.5t-56 -34.5t-41.5 -50.5t-24 -60.5h318zM104 216q-1 -6 -1.5 -11.5t-0.5 -10.5q0 -33 11.5 -60t32 -47t48 -31t59.5 -11q55 0 96 24.5 t66 57.5l42 -40q-41 -49 -95 -74t-115 -25q-45 0 -84 14t-67.5 40t-45 64.5t-16.5 87.5q0 57 21 109t57.5 91t86 62.5t106.5 23.5q96 0 145.5 -51t49.5 -132q0 -12 -2 -36.5t-7 -44.5h-387z" glyph-name="edblgrave" unicode="ȅ" horiz-adv-x="566"/>
<glyph d="M268 783q5 29 19.5 53.5t36 42t49 27t57.5 9.5q62 0 97 -33t35 -99h-44q0 22 -7 37t-19 24t-28 13t-35 4q-41 0 -75 -19.5t-42 -58.5h-44zM122 63h380l-11 -63h-451l125 708h425l-11 -63h-354l-43 -246h338l-11 -61h-338z" glyph-name="Einvertedbreve" unicode="Ȇ"/>
<glyph d="M220 555q5 29 19.5 53.5t36 42t49 27t57.5 9.5q62 0 97 -33t35 -99h-44q0 22 -7 37t-19 24t-28 13t-35 4q-41 0 -75 -19.5t-42 -58.5h-44zM431 266q1 8 1.5 17.5t0.5 17.5q0 54 -33 88.5t-97 34.5q-37 0 -68.5 -12.5t-56 -34.5t-41.5 -50.5t-24 -60.5h318zM104 216 q-1 -6 -1.5 -11.5t-0.5 -10.5q0 -33 11.5 -60t32 -47t48 -31t59.5 -11q55 0 96 24.5t66 57.5l42 -40q-41 -49 -95 -74t-115 -25q-45 0 -84 14t-67.5 40t-45 64.5t-16.5 87.5q0 57 21 109t57.5 91t86 62.5t106.5 23.5q96 0 145.5 -51t49.5 -132q0 -12 -2 -36.5t-7 -44.5h-387 z" glyph-name="einvertedbreve" unicode="ȇ" horiz-adv-x="566"/>
<glyph d="M-16 927h88l100 -144h-56zM125 927h88l100 -144h-56zM111 0h-71l125 708h71z" glyph-name="Idblgrave" unicode="Ȉ" horiz-adv-x="260"/>
<glyph d="M-52 687h88l100 -144h-56zM89 687h88l100 -144h-56zM104 0h-67l83 468h67z" glyph-name="idblgrave" unicode="ȉ" horiz-adv-x="250"/>
<glyph d="M82 783q5 29 19.5 53.5t36 42t49 27t57.5 9.5q62 0 97 -33t35 -99h-44q0 22 -7 37t-19 24t-28 13t-35 4q-41 0 -75 -19.5t-42 -58.5h-44zM111 0h-71l125 708h71z" glyph-name="Iinvertedbreve" unicode="Ȋ" horiz-adv-x="260"/>
<glyph d="M38 543q5 29 19.5 53.5t36 42t49 27t57.5 9.5q62 0 97 -33t35 -99h-44q0 22 -7 37t-19 24t-28 13t-35 4q-41 0 -75 -19.5t-42 -58.5h-44zM104 0h-67l83 468h67z" glyph-name="iinvertedbreve" unicode="ȋ" horiz-adv-x="250"/>
<glyph d="M228 945h88l100 -144h-56zM369 945h88l100 -144h-56zM710 417q0 51 -16 96t-46.5 78.5t-76 53t-103.5 19.5q-75 0 -137 -31.5t-105.5 -83.5t-67.5 -119t-24 -138q0 -51 15.5 -96.5t46.5 -79t76 -53t104 -19.5q74 0 135.5 31t105.5 83t68.5 119.5t24.5 139.5zM373 -18 q-69 0 -127 22t-100 62t-65 96t-23 124q0 91 32 171.5t87.5 140t131 94t162.5 34.5q69 0 127 -21.5t99.5 -61.5t65 -95.5t23.5 -123.5q0 -91 -31 -171.5t-86 -140.5t-131 -95t-165 -35z" glyph-name="Odblgrave" unicode="Ȍ" horiz-adv-x="834"/>
<glyph d="M67 699h88l100 -144h-56zM208 699h88l100 -144h-56zM458 274q0 32 -10 59.5t-29.5 47.5t-47.5 31.5t-63 11.5q-44 0 -81 -18.5t-64 -50t-42.5 -73t-15.5 -87.5q0 -32 10 -59.5t29.5 -47.5t47 -31.5t62.5 -11.5q45 0 82.5 18.5t64.5 49.5t42 72.5t15 88.5zM250 -12 q-47 0 -87 15t-68.5 41.5t-44.5 64t-16 82.5q0 59 20.5 111.5t57.5 92t88 62.5t112 23q48 0 87.5 -14.5t68 -41.5t44.5 -64t16 -82q0 -60 -20.5 -113t-57.5 -92t-88 -62t-112 -23z" glyph-name="odblgrave" unicode="ȍ" horiz-adv-x="596"/>
<glyph d="M365 801q5 29 19.5 53.5t36 42t49 27t57.5 9.5q62 0 97 -33t35 -99h-44q0 22 -7 37t-19 24t-28 13t-35 4q-41 0 -75 -19.5t-42 -58.5h-44zM710 417q0 51 -16 96t-46.5 78.5t-76 53t-103.5 19.5q-75 0 -137 -31.5t-105.5 -83.5t-67.5 -119t-24 -138q0 -51 15.5 -96.5 t46.5 -79t76 -53t104 -19.5q74 0 135.5 31t105.5 83t68.5 119.5t24.5 139.5zM373 -18q-69 0 -127 22t-100 62t-65 96t-23 124q0 91 32 171.5t87.5 140t131 94t162.5 34.5q69 0 127 -21.5t99.5 -61.5t65 -95.5t23.5 -123.5q0 -91 -31 -171.5t-86 -140.5t-131 -95t-165 -35z " glyph-name="Oinvertedbreve" unicode="Ȏ" horiz-adv-x="834"/>
<glyph d="M188 555q5 29 19.5 53.5t36 42t49 27t57.5 9.5q62 0 97 -33t35 -99h-44q0 22 -7 37t-19 24t-28 13t-35 4q-41 0 -75 -19.5t-42 -58.5h-44zM458 274q0 32 -10 59.5t-29.5 47.5t-47.5 31.5t-63 11.5q-44 0 -81 -18.5t-64 -50t-42.5 -73t-15.5 -87.5q0 -32 10 -59.5 t29.5 -47.5t47 -31.5t62.5 -11.5q45 0 82.5 18.5t64.5 49.5t42 72.5t15 88.5zM250 -12q-47 0 -87 15t-68.5 41.5t-44.5 64t-16 82.5q0 59 20.5 111.5t57.5 92t88 62.5t112 23q48 0 87.5 -14.5t68 -41.5t44.5 -64t16 -82q0 -60 -20.5 -113t-57.5 -92t-88 -62t-112 -23z" glyph-name="oinvertedbreve" unicode="ȏ" horiz-adv-x="596"/>
<glyph d="M103 927h88l100 -144h-56zM244 927h88l100 -144h-56zM180 391h126q36 0 71 5.5t63 20.5t45.5 42.5t17.5 71.5q0 58 -42 87t-116 29h-120zM111 0h-71l125 708h191q47 0 87 -10t69.5 -31t46 -53t16.5 -75q0 -49 -16 -85t-44.5 -60.5t-66.5 -38.5t-81 -18l156 -337h-81 l-148 331h-125z" glyph-name="Rdblgrave" unicode="Ȑ" horiz-adv-x="599"/>
<glyph d="M-1 699h88l100 -144h-56zM140 699h88l100 -144h-56zM100 365q4 19 8.5 49t6.5 54h64q-2 -19 -5 -42t-6 -38h2q26 41 66 66.5t90 25.5q13 0 23 -1t21 -4l-16 -64q-5 2 -18.5 4t-27.5 2q-27 0 -53 -10t-47.5 -31.5t-38 -55t-24.5 -80.5l-42 -240h-67z" glyph-name="rdblgrave" unicode="ȑ" horiz-adv-x="348"/>
<glyph d="M200 783q5 29 19.5 53.5t36 42t49 27t57.5 9.5q62 0 97 -33t35 -99h-44q0 22 -7 37t-19 24t-28 13t-35 4q-41 0 -75 -19.5t-42 -58.5h-44zM180 391h126q36 0 71 5.5t63 20.5t45.5 42.5t17.5 71.5q0 58 -42 87t-116 29h-120zM111 0h-71l125 708h191q47 0 87 -10t69.5 -31 t46 -53t16.5 -75q0 -49 -16 -85t-44.5 -60.5t-66.5 -38.5t-81 -18l156 -337h-81l-148 331h-125z" glyph-name="Rinvertedbreve" unicode="Ȓ" horiz-adv-x="599"/>
<glyph d="M116 555q5 29 19.5 53.5t36 42t49 27t57.5 9.5q62 0 97 -33t35 -99h-44q0 22 -7 37t-19 24t-28 13t-35 4q-41 0 -75 -19.5t-42 -58.5h-44zM100 365q4 19 8.5 49t6.5 54h64q-2 -19 -5 -42t-6 -38h2q26 41 66 66.5t90 25.5q13 0 23 -1t21 -4l-16 -64q-5 2 -18.5 4t-27.5 2 q-27 0 -53 -10t-47.5 -31.5t-38 -55t-24.5 -80.5l-42 -240h-67z" glyph-name="rinvertedbreve" unicode="ȓ" horiz-adv-x="348"/>
<glyph d="M204 927h88l100 -144h-56zM345 927h88l100 -144h-56zM311 -18q-64 0 -108.5 19t-72.5 49.5t-40.5 69t-12.5 77.5q0 35 6 67l78 444h71l-77 -436q-6 -32 -6 -61q0 -34 8.5 -64t28 -53t51 -36.5t78.5 -13.5q56 0 95.5 18.5t66 50t42 73t23.5 86.5l77 436h71l-78 -444 q-8 -44 -26.5 -93.5t-53 -91.5t-88.5 -69.5t-133 -27.5z" glyph-name="Udblgrave" unicode="Ȕ" horiz-adv-x="710"/>
<glyph d="M86 687h88l100 -144h-56zM227 687h88l100 -144h-56zM364 0q2 19 5 42t6 38h-2q-27 -43 -69.5 -67.5t-90.5 -24.5q-76 0 -118.5 38.5t-42.5 104.5q0 12 1.5 24t3.5 26l51 287h67l-46 -259q-6 -32 -6 -59q0 -49 23 -77t81 -28q27 0 54 11t50.5 33.5t41.5 57t26 81.5l42 240 h67l-64 -365q-4 -19 -8.5 -49t-6.5 -54h-65z" glyph-name="udblgrave" unicode="ȕ" horiz-adv-x="577"/>
<glyph d="M281 783q5 29 19.5 53.5t36 42t49 27t57.5 9.5q62 0 97 -33t35 -99h-44q0 22 -7 37t-19 24t-28 13t-35 4q-41 0 -75 -19.5t-42 -58.5h-44zM311 -18q-64 0 -108.5 19t-72.5 49.5t-40.5 69t-12.5 77.5q0 35 6 67l78 444h71l-77 -436q-6 -32 -6 -61q0 -34 8.5 -64t28 -53 t51 -36.5t78.5 -13.5q56 0 95.5 18.5t66 50t42 73t23.5 86.5l77 436h71l-78 -444q-8 -44 -26.5 -93.5t-53 -91.5t-88.5 -69.5t-133 -27.5z" glyph-name="Uinvertedbreve" unicode="Ȗ" horiz-adv-x="710"/>
<glyph d="M175 543q5 29 19.5 53.5t36 42t49 27t57.5 9.5q62 0 97 -33t35 -99h-44q0 22 -7 37t-19 24t-28 13t-35 4q-41 0 -75 -19.5t-42 -58.5h-44zM364 0q2 19 5 42t6 38h-2q-27 -43 -69.5 -67.5t-90.5 -24.5q-76 0 -118.5 38.5t-42.5 104.5q0 12 1.5 24t3.5 26l51 287h67 l-46 -259q-6 -32 -6 -59q0 -49 23 -77t81 -28q27 0 54 11t50.5 33.5t41.5 57t26 81.5l42 240h67l-64 -365q-4 -19 -8.5 -49t-6.5 -54h-65z" glyph-name="uinvertedbreve" unicode="ȗ" horiz-adv-x="577"/>
<glyph d="M174 -230h-57l101 185h71zM491 598q-19 28 -55 47t-84 19q-31 0 -62 -8.5t-56 -26t-40.5 -44t-15.5 -63.5q0 -28 10 -48t27.5 -35t41 -26t50.5 -21q31 -12 63 -27t58 -37t42 -51.5t16 -69.5q0 -36 -13 -75.5t-43 -73t-79 -55t-121 -21.5q-65 0 -125 26.5t-92 78.5l64 41 q20 -35 60 -59.5t96 -24.5q36 0 68.5 10.5t57 30t38.5 47.5t14 62q0 30 -12 52t-32.5 38t-47 28t-56.5 23t-59 26t-51 36t-35.5 49.5t-13.5 66.5q0 45 17 84t49 67.5t79 45t107 16.5q72 0 122.5 -23.5t73.5 -60.5z" glyph-name="Scommaaccent" unicode="Ș" horiz-adv-x="564"/>
<glyph d="M110 -230h-57l101 185h71zM354 365q-14 26 -42 42.5t-67 16.5q-18 0 -37.5 -4t-36 -13t-27 -23.5t-10.5 -35.5q0 -19 6.5 -31t18.5 -20.5t29 -15t39 -12.5q69 -20 105 -50.5t36 -86.5q0 -38 -17 -65.5t-43 -45t-58 -25.5t-63 -8q-59 0 -110.5 22t-80.5 67l58 38 q17 -29 51 -49.5t79 -20.5q22 0 43 4.5t37.5 14t26.5 25t10 36.5q0 37 -29.5 56.5t-84.5 37.5q-21 7 -42 16t-38 23.5t-27.5 35t-10.5 49.5q0 36 16.5 62t42 42.5t57.5 24.5t64 8q54 0 96.5 -21t61.5 -56z" glyph-name="scommaaccent" unicode="ș" horiz-adv-x="444"/>
<glyph d="M149 -230h-57l101 185h71zM250 0h-71l114 645h-237l11 63h546l-11 -63h-238z" glyph-name="uni021A" unicode="Ț" horiz-adv-x="547"/>
<glyph d="M77 -230h-57l101 185h71zM303 412h-127l-49 -274q-3 -18 -3 -32q0 -33 16 -44t42 -11q14 0 31 4t26 11l-8 -58q-13 -7 -33.5 -10.5t-43.5 -3.5q-17 0 -34.5 4t-32 14.5t-24 28.5t-9.5 46q0 14 3 32l52 293h-97l11 56h95l23 132h67l-23 -132h129z" glyph-name="uni021B" unicode="ț" horiz-adv-x="307"/>
<glyph d="M458 783h-80l-83 144h63l64 -108l102 108h69zM165 708h71l-55 -308h377l55 308h71l-125 -708h-71l59 336h-377l-59 -336h-71z" glyph-name="Hcaron" unicode="Ȟ" horiz-adv-x="708"/>
<glyph d="M252 831h-80l-83 144h63l64 -108l102 108h69zM332 480q75 0 117.5 -38.5t42.5 -104.5q0 -12 -1.5 -24t-3.5 -26l-51 -287h-67l46 259q6 31 6 59q0 49 -23.5 77.5t-82.5 28.5q-27 0 -54 -11t-50 -34t-40.5 -57.5t-25.5 -81.5l-42 -240h-67l133 756h67l-64 -365h2 q26 41 68 65t90 24z" glyph-name="hcaron" unicode="ȟ" horiz-adv-x="577"/>
<glyph d="M512 831q0 -20 -13.5 -34t-33.5 -14q-19 0 -32.5 12t-13.5 33t14.5 35t33.5 14t32 -12.5t13 -33.5zM188 252h310l-74 376zM31 0h-82l456 708h70l147 -708h-75l-38 186h-362z" glyph-name="Adotaccent" unicode="Ȧ" horiz-adv-x="695"/>
<glyph d="M354 603q0 -20 -13.5 -34t-33.5 -14q-19 0 -32.5 12t-13.5 33t14.5 35t33.5 14t32 -12.5t13 -33.5zM358 236q-45 0 -92 -4.5t-85.5 -17t-63 -35t-24.5 -59.5q0 -22 8 -36.5t21.5 -23t31 -12t35.5 -3.5q36 0 66 12t53 33t38 48.5t21 58.5l7 39h-16zM383 287q3 17 4 26.5 t1 17.5q0 51 -29 72t-81 21q-42 0 -81 -16.5t-65 -39.5l-30 45q34 30 84 48.5t99 18.5q33 0 63.5 -7.5t53 -24t36 -42t13.5 -61.5q0 -9 -1 -24.5t-3 -25.5l-34 -190q-5 -27 -8 -56t-3 -49h-60q0 17 1.5 37t4.5 39h-2q-20 -23 -40 -39.5t-41.5 -26.5t-46 -14.5t-53.5 -4.5 q-24 0 -49 6t-45.5 20.5t-34 37.5t-13.5 57q0 56 32 90.5t83.5 53t115.5 25t129 6.5z" glyph-name="adotaccent" unicode="ȧ" horiz-adv-x="534"/>
<glyph d="M122 63h380l-11 -63h-172l-60 -75q8 2 15.5 3t15.5 1q12 0 25.5 -3.5t24 -11.5t17.5 -20.5t7 -31.5q0 -26 -11.5 -43.5t-29.5 -28t-39 -15.5t-40 -5q-20 0 -48.5 5t-48.5 15l19 36q16 -8 35.5 -11t38.5 -3q11 0 22.5 2t21.5 7.5t16 14t6 21.5q0 20 -14.5 29t-35.5 9 q-22 0 -44 -8l-15 15l79 98h-236l125 708h425l-11 -63h-354l-43 -246h338l-11 -61h-338z" glyph-name="Ecedilla" unicode="Ȩ"/>
<glyph d="M431 266q1 8 1.5 17.5t0.5 17.5q0 54 -33 88.5t-97 34.5q-37 0 -68.5 -12.5t-56 -34.5t-41.5 -50.5t-24 -60.5h318zM104 216q-1 -6 -1.5 -11.5t-0.5 -10.5q0 -33 11.5 -60t32 -47t48 -31t59.5 -11q55 0 96 24.5t66 57.5l42 -40q-37 -45 -84.5 -69t-101.5 -29l-60 -76 q8 2 15.5 3t15.5 1q12 0 25.5 -3.5t24 -11.5t17.5 -20.5t7 -31.5q0 -26 -11.5 -43.5t-29.5 -28t-39 -15.5t-40 -5q-20 0 -48.5 5t-48.5 15l19 36q16 -8 35.5 -11t38.5 -3q11 0 22.5 2t21.5 7.5t16 14t6 21.5q0 20 -14.5 29t-35.5 9q-22 0 -44 -8l-15 15l79 99 q-42 3 -77.5 17.5t-61.5 41t-40.5 63t-14.5 83.5q0 57 21 109t57.5 91t86 62.5t106.5 23.5q96 0 145.5 -51t49.5 -132q0 -12 -2 -36.5t-7 -44.5h-387z" glyph-name="ecedilla" unicode="ȩ" horiz-adv-x="566"/>
<glyph d="M633 974h-270l9 54h270zM639 851q0 -20 -14.5 -35t-34.5 -15t-33.5 12.5t-13.5 34.5t14.5 36.5t34.5 14.5t33.5 -13t13.5 -35zM441 851q0 -20 -14 -35t-34 -15t-34 12.5t-14 34.5t15 36.5t35 14.5t33 -13t13 -35zM710 417q0 51 -16 96t-46.5 78.5t-76 53t-103.5 19.5 q-75 0 -137 -31.5t-105.5 -83.5t-67.5 -119t-24 -138q0 -51 15.5 -96.5t46.5 -79t76 -53t104 -19.5q74 0 135.5 31t105.5 83t68.5 119.5t24.5 139.5zM373 -18q-69 0 -127 22t-100 62t-65 96t-23 124q0 91 32 171.5t87.5 140t131 94t162.5 34.5q69 0 127 -21.5t99.5 -61.5 t65 -95.5t23.5 -123.5q0 -91 -31 -171.5t-86 -140.5t-131 -95t-165 -35z" glyph-name="Odieresismacron" unicode="Ȫ" horiz-adv-x="834"/>
<glyph d="M452 728h-270l9 54h270zM468 605q0 -20 -14.5 -35t-34.5 -15t-33.5 12.5t-13.5 34.5t14.5 36.5t34.5 14.5t33.5 -13t13.5 -35zM270 605q0 -20 -14 -35t-34 -15t-34 12.5t-14 34.5t15 36.5t35 14.5t33 -13t13 -35zM458 274q0 32 -10 59.5t-29.5 47.5t-47.5 31.5t-63 11.5 q-44 0 -81 -18.5t-64 -50t-42.5 -73t-15.5 -87.5q0 -32 10 -59.5t29.5 -47.5t47 -31.5t62.5 -11.5q45 0 82.5 18.5t64.5 49.5t42 72.5t15 88.5zM250 -12q-47 0 -87 15t-68.5 41.5t-44.5 64t-16 82.5q0 59 20.5 111.5t57.5 92t88 62.5t112 23q48 0 87.5 -14.5t68 -41.5 t44.5 -64t16 -82q0 -60 -20.5 -113t-57.5 -92t-88 -62t-112 -23z" glyph-name="odieresismacron" unicode="ȫ" horiz-adv-x="596"/>
<glyph d="M613 984h-270l9 54h270zM311 801q7 19 16.5 38t23 33.5t30.5 23.5t40 9q18 0 35 -7t34 -16q17 -8 32.5 -15.5t30.5 -7.5q23 0 36.5 15.5t21.5 34.5h43q-7 -20 -17 -38.5t-23.5 -33t-31 -23.5t-39.5 -9q-18 0 -35 7.5t-34 15.5q-16 9 -31.5 16t-31.5 7q-23 0 -36 -15.5 t-21 -34.5h-43zM710 417q0 51 -16 96t-46.5 78.5t-76 53t-103.5 19.5q-75 0 -137 -31.5t-105.5 -83.5t-67.5 -119t-24 -138q0 -51 15.5 -96.5t46.5 -79t76 -53t104 -19.5q74 0 135.5 31t105.5 83t68.5 119.5t24.5 139.5zM373 -18q-69 0 -127 22t-100 62t-65 96t-23 124 q0 91 32 171.5t87.5 140t131 94t162.5 34.5q69 0 127 -21.5t99.5 -61.5t65 -95.5t23.5 -123.5q0 -91 -31 -171.5t-86 -140.5t-131 -95t-165 -35z" glyph-name="Otildemacron" unicode="Ȭ" horiz-adv-x="834"/>
<glyph d="M445 738h-270l9 54h270zM143 555q7 19 16.5 38t23 33.5t30.5 23.5t40 9q18 0 35 -7t34 -16q17 -8 32.5 -15.5t30.5 -7.5q23 0 36.5 15.5t21.5 34.5h43q-7 -20 -17 -38.5t-23.5 -33t-31 -23.5t-39.5 -9q-18 0 -35 7.5t-34 15.5q-16 9 -31.5 16t-31.5 7q-23 0 -36 -15.5 t-21 -34.5h-43zM458 274q0 32 -10 59.5t-29.5 47.5t-47.5 31.5t-63 11.5q-44 0 -81 -18.5t-64 -50t-42.5 -73t-15.5 -87.5q0 -32 10 -59.5t29.5 -47.5t47 -31.5t62.5 -11.5q45 0 82.5 18.5t64.5 49.5t42 72.5t15 88.5zM250 -12q-47 0 -87 15t-68.5 41.5t-44.5 64t-16 82.5 q0 59 20.5 111.5t57.5 92t88 62.5t112 23q48 0 87.5 -14.5t68 -41.5t44.5 -64t16 -82q0 -60 -20.5 -113t-57.5 -92t-88 -62t-112 -23z" glyph-name="otildemacron" unicode="ȭ" horiz-adv-x="596"/>
<glyph d="M547 849q0 -20 -13.5 -34t-33.5 -14q-19 0 -32.5 12t-13.5 33t14.5 35t33.5 14t32 -12.5t13 -33.5zM710 417q0 51 -16 96t-46.5 78.5t-76 53t-103.5 19.5q-75 0 -137 -31.5t-105.5 -83.5t-67.5 -119t-24 -138q0 -51 15.5 -96.5t46.5 -79t76 -53t104 -19.5q74 0 135.5 31 t105.5 83t68.5 119.5t24.5 139.5zM373 -18q-69 0 -127 22t-100 62t-65 96t-23 124q0 91 32 171.5t87.5 140t131 94t162.5 34.5q69 0 127 -21.5t99.5 -61.5t65 -95.5t23.5 -123.5q0 -91 -31 -171.5t-86 -140.5t-131 -95t-165 -35z" glyph-name="Odotaccent" unicode="Ȯ" horiz-adv-x="834"/>
<glyph d="M378 603q0 -20 -13.5 -34t-33.5 -14q-19 0 -32.5 12t-13.5 33t14.5 35t33.5 14t32 -12.5t13 -33.5zM458 274q0 32 -10 59.5t-29.5 47.5t-47.5 31.5t-63 11.5q-44 0 -81 -18.5t-64 -50t-42.5 -73t-15.5 -87.5q0 -32 10 -59.5t29.5 -47.5t47 -31.5t62.5 -11.5 q45 0 82.5 18.5t64.5 49.5t42 72.5t15 88.5zM250 -12q-47 0 -87 15t-68.5 41.5t-44.5 64t-16 82.5q0 59 20.5 111.5t57.5 92t88 62.5t112 23q48 0 87.5 -14.5t68 -41.5t44.5 -64t16 -82q0 -60 -20.5 -113t-57.5 -92t-88 -62t-112 -23z" glyph-name="odotaccent" unicode="ȯ" horiz-adv-x="596"/>
<glyph d="M653 970h-270l9 54h270zM539 849q0 -20 -13.5 -34t-33.5 -14q-19 0 -32.5 12t-13.5 33t14.5 35t33.5 14t32 -12.5t13 -33.5zM710 417q0 51 -16 96t-46.5 78.5t-76 53t-103.5 19.5q-75 0 -137 -31.5t-105.5 -83.5t-67.5 -119t-24 -138q0 -51 15.5 -96.5t46.5 -79t76 -53 t104 -19.5q74 0 135.5 31t105.5 83t68.5 119.5t24.5 139.5zM373 -18q-69 0 -127 22t-100 62t-65 96t-23 124q0 91 32 171.5t87.5 140t131 94t162.5 34.5q69 0 127 -21.5t99.5 -61.5t65 -95.5t23.5 -123.5q0 -91 -31 -171.5t-86 -140.5t-131 -95t-165 -35z" glyph-name="Odotaccentmacron" unicode="Ȱ" horiz-adv-x="834"/>
<glyph d="M482 724h-270l9 54h270zM378 603q0 -20 -13.5 -34t-33.5 -14q-19 0 -32.5 12t-13.5 33t14.5 35t33.5 14t32 -12.5t13 -33.5zM458 274q0 32 -10 59.5t-29.5 47.5t-47.5 31.5t-63 11.5q-44 0 -81 -18.5t-64 -50t-42.5 -73t-15.5 -87.5q0 -32 10 -59.5t29.5 -47.5t47 -31.5 t62.5 -11.5q45 0 82.5 18.5t64.5 49.5t42 72.5t15 88.5zM250 -12q-47 0 -87 15t-68.5 41.5t-44.5 64t-16 82.5q0 59 20.5 111.5t57.5 92t88 62.5t112 23q48 0 87.5 -14.5t68 -41.5t44.5 -64t16 -82q0 -60 -20.5 -113t-57.5 -92t-88 -62t-112 -23z" glyph-name="odotaccentmacron" unicode="ȱ" horiz-adv-x="596"/>
<glyph d="M479 783h-270l9 54h270zM247 0h-71l54 305l-180 403h84l141 -344l283 344h89l-346 -403z" glyph-name="Ymacron" unicode="Ȳ" horiz-adv-x="557"/>
<glyph d="M412 543h-270l9 54h270zM189 74h2l228 394h75l-354 -589q-33 -54 -68 -86.5t-87 -32.5q-29 0 -57 6l10 62q22 -8 44 -8q32 0 55.5 21.5t46.5 61.5l58 98l-98 467h70z" glyph-name="ymacron" unicode="ȳ" horiz-adv-x="483"/>
<glyph d="M-99 -176q9 -3 20.5 -4.5t21.5 -1.5q21 0 35 7.5t23 20.5t14 31.5t9 40.5l97 550h67l-99 -561q-5 -28 -13.5 -54.5t-24.5 -47t-42 -33t-66 -12.5q-11 0 -27.5 1.5t-28.5 5.5z" glyph-name="dotlessj" unicode="ȷ" horiz-adv-x="251"/>
<glyph d="M194 708h57l-109 -235h-71z" glyph-name="commaturnedmod" unicode="ʻ" horiz-adv-x="222"/>
<glyph d="M128 473h-57l109 235h71z" glyph-name="afii57929" unicode="ʼ" horiz-adv-x="222"/>
<glyph d="M314 564h-63l-64 108l-102 -108h-69l135 144h80z" glyph-name="circumflex" unicode="ˆ" horiz-adv-x="240"/>
<glyph d="M205 564h-80l-83 144h63l64 -108l102 108h69z" glyph-name="caron" unicode="ˇ" horiz-adv-x="240"/>
<glyph d="M307 800h-270l9 54h270z" glyph-name="uni02C9" unicode="ˉ" horiz-adv-x="240"/>
<glyph d="M338 708q-5 -29 -19.5 -53.5t-36 -42t-49 -27t-57.5 -9.5q-62 0 -97 33t-35 99h44q0 -44 25.5 -61t63.5 -17q41 0 75 19.5t42 58.5h44z" glyph-name="breve" unicode="˘" horiz-adv-x="240"/>
<glyph d="M227 649q0 -20 -13.5 -34t-33.5 -14q-19 0 -32.5 12t-13.5 33t14.5 35t33.5 14t32 -12.5t13 -33.5z" glyph-name="dotaccent" unicode="˙" horiz-adv-x="240"/>
<glyph d="M244 665q0 22 -14 37t-39 15q-31 0 -51 -24t-20 -57q0 -23 14 -37.5t38 -14.5q32 0 52 24t20 57zM170 554q-38 0 -61.5 22t-23.5 57q0 23 8 43.5t22.5 36t34 24.5t43.5 9q38 0 61.5 -22t23.5 -57q0 -47 -30 -80t-78 -33z" glyph-name="ring" unicode="˚" horiz-adv-x="240"/>
<glyph d="M124 -187q-20 -17 -44.5 -26.5t-47.5 -9.5q-30 0 -54.5 17t-24.5 52q0 25 11 47.5t28 42t36.5 36t37.5 28.5h48q-44 -37 -72 -71t-28 -63q0 -21 13.5 -28t29.5 -7q14 0 29 5.5t26 16.5z" glyph-name="ogonek" unicode="˛" horiz-adv-x="240"/>
<glyph d="M6 576q7 19 16.5 38t23 33.5t30.5 23.5t40 9q18 0 35 -7t34 -16q17 -8 32.5 -15.5t30.5 -7.5q23 0 36.5 15.5t21.5 34.5h43q-7 -20 -17 -38.5t-23.5 -33t-31 -23.5t-39.5 -9q-18 0 -35 7.5t-34 15.5q-16 9 -31.5 16t-31.5 7q-23 0 -36 -15.5t-21 -34.5h-43z" glyph-name="tilde" unicode="˜" horiz-adv-x="240"/>
<glyph d="M209 564h-59l126 144h91zM38 564h-59l127 144h91z" glyph-name="hungarumlaut" unicode="˝" horiz-adv-x="240"/>
<glyph d="M128 473h-57l109 235h71zM293 473h-57l109 235h71z" glyph-name="uni02EE" unicode="ˮ" horiz-adv-x="387"/>
<glyph d="M-240 708h88l100 -144h-56z" glyph-name="gravecmb" unicode="̀" horiz-adv-x="0"/>
<glyph d="M-184 564h-56l126 144h88z" glyph-name="acutecmb" unicode="́" horiz-adv-x="0"/>
<glyph d="M58 564h-63l-64 108l-102 -108h-69l135 144h80z" glyph-name="circumflexcmb" unicode="̂" horiz-adv-x="0"/>
<glyph d="M-240 576q7 19 16.5 38t23 33.5t30.5 23.5t40 9q18 0 35 -7t34 -16q17 -8 32.5 -15.5t30.5 -7.5q23 0 36.5 15.5t21.5 34.5h43q-7 -20 -17 -38.5t-23.5 -33t-31 -23.5t-39.5 -9q-18 0 -35 7.5t-34 15.5q-16 9 -31.5 16t-31.5 7q-23 0 -36 -15.5t-21 -34.5h-43z" glyph-name="tildecmb" unicode="̃" horiz-adv-x="0"/>
<glyph d="M30 600h-270l9 54h270z" glyph-name="macroncmb" unicode="̄" horiz-adv-x="0"/>
<glyph d="M54 708q-5 -29 -19.5 -53.5t-36 -42t-49 -27t-57.5 -9.5q-62 0 -97 33t-35 99h44q0 -44 25.5 -61t63.5 -17q41 0 75 19.5t42 58.5h44z" glyph-name="brevecmb" unicode="̆" horiz-adv-x="0"/>
<glyph d="M-147 649q0 -20 -13.5 -34t-33.5 -14q-19 0 -32.5 12t-13.5 33t14.5 35t33.5 14t32 -12.5t13 -33.5z" glyph-name="dotaccentcmb" unicode="̇" horiz-adv-x="0"/>
<glyph d="M54 649q0 -20 -14.5 -35t-34.5 -15t-33.5 12.5t-13.5 34.5t14.5 36.5t34.5 14.5t33.5 -13t13.5 -35zM-144 649q0 -20 -14 -35t-34 -15t-34 12.5t-14 34.5t15 36.5t35 14.5t33 -13t13 -35z" glyph-name="dieresiscmb" unicode="̈" horiz-adv-x="0"/>
<glyph d="M75 555q4 22 16 38t40 29q19 8 30 20.5t11 29.5q0 14 -9.5 23t-29.5 9q-22 0 -37 -11.5t-24 -40.5l-52 7q15 44 45 65t71 21q42 0 65 -20t23 -51q0 -56 -63 -82q-20 -8 -27.5 -17t-9.5 -20h-49z" glyph-name="hookabovecomb" unicode="̉" horiz-adv-x="240"/>
<glyph d="M-81 665q0 22 -14 37t-39 15q-31 0 -51 -24t-20 -57q0 -23 14 -37.5t38 -14.5q32 0 52 24t20 57zM-155 554q-38 0 -61.5 22t-23.5 57q0 23 8 43.5t22.5 36t34 24.5t43.5 9q38 0 61.5 -22t23.5 -57q0 -47 -30 -80t-78 -33z" glyph-name="ringcmb" unicode="̊" horiz-adv-x="0"/>
<glyph d="M-10 564h-59l126 144h91zM-181 564h-59l127 144h91z" glyph-name="hungarumlautcmb" unicode="̋" horiz-adv-x="0"/>
<glyph d="M-77 564h-80l-83 144h63l64 -108l102 108h69z" glyph-name="caroncmb" unicode="̌" horiz-adv-x="0"/>
<glyph d="M-381 708h88l100 -144h-56zM-240 708h88l100 -144h-56z" glyph-name="doublegravecmb" unicode="̏" horiz-adv-x="0"/>
<glyph d="M-294 576q5 29 19.5 53.5t36 42t49 27t57.5 9.5q62 0 97 -33t35 -99h-44q0 22 -7 37t-19 24t-28 13t-35 4q-41 0 -75 -19.5t-42 -58.5h-44z" glyph-name="invertedbrevecmb" unicode="̑" horiz-adv-x="0"/>
<glyph d="M-177 468q35 0 61 21t27 63q0 24 -7 43l57 15q8 -22 8 -56q0 -28 -9 -52t-27 -42t-45 -28t-64 -11q-27 1 -48 5t-36 9q-18 6 -31 15v18h114z" glyph-name="horncmb" unicode="̛" horiz-adv-x="0"/>
<glyph d="M-153 -123q0 -22 -15.5 -38.5t-38.5 -16.5q-22 0 -37.5 14t-15.5 38t16.5 40t38.5 16t37 -14t15 -39z" glyph-name="dotbelowcmb" unicode="̣" horiz-adv-x="0"/>
<glyph d="M54 -118q0 -20 -14.5 -35t-34.5 -15t-33.5 12.5t-13.5 34.5t14.5 36.5t34.5 14.5t33.5 -13t13.5 -35zM-144 -118q0 -20 -14 -35t-34 -15t-34 12.5t-14 34.5t15 36.5t35 14.5t33 -13t13 -35z" glyph-name="dieresisbelowcmb" unicode="̤" horiz-adv-x="0"/>
<glyph d="M-81 -151q0 22 -14 37t-39 15q-31 0 -51 -24t-20 -57q0 -23 14 -37.5t38 -14.5q32 0 52 24t20 57zM-155 -262q-38 0 -61.5 22t-23.5 57q0 23 8 43.5t22.5 36t34 24.5t43.5 9q38 0 61.5 -22t23.5 -57q0 -47 -30 -80t-78 -33z" glyph-name="ringbelowcmb" unicode="̥" horiz-adv-x="0"/>
<glyph d="M-203 -305h-57l109 235h71z" glyph-name="commabelowcmb" unicode="̦" horiz-adv-x="0"/>
<glyph d="M-128 -75q8 2 15.5 3t15.5 1q12 0 25.5 -3.5t24 -11.5t17.5 -20.5t7 -31.5q0 -26 -11.5 -43.5t-29.5 -28t-39 -15.5t-40 -5q-20 0 -48.5 5t-48.5 15l19 36q16 -8 35.5 -11t38.5 -3q11 0 22.5 2t21.5 7.5t16 14t6 21.5q0 20 -14.5 29t-35.5 9q-22 0 -44 -8l-15 15l79 98 h43z" glyph-name="cedillacmb" unicode="̧" horiz-adv-x="0"/>
<glyph d="M-69 -187q-20 -17 -44.5 -26.5t-47.5 -9.5q-30 0 -54.5 17t-24.5 52q0 25 11 47.5t28 42t36.5 36t37.5 28.5h48q-44 -37 -72 -71t-28 -63q0 -21 13.5 -28t29.5 -7q14 0 29 5.5t26 16.5z" glyph-name="ogonekcmb" unicode="̨" horiz-adv-x="0"/>
<glyph d="M58 -214h-63l-64 108l-102 -108h-69l135 144h80z" glyph-name="circumflexbelowcmb" unicode="̭" horiz-adv-x="0"/>
<glyph d="M54 -70q-5 -29 -19.5 -53.5t-36 -42t-49 -27t-57.5 -9.5q-62 0 -97 33t-35 99h44q0 -44 25.5 -61t63.5 -17q41 0 75 19.5t42 58.5h44z" glyph-name="brevebelowcmb" unicode="̮" horiz-adv-x="0"/>
<glyph d="M-240 -178q7 19 16.5 38t23 33.5t30.5 23.5t40 9q18 0 35 -7t34 -16q17 -8 32.5 -15.5t30.5 -7.5q23 0 36.5 15.5t21.5 34.5h43q-7 -20 -17 -38.5t-23.5 -33t-31 -23.5t-39.5 -9q-18 0 -35 7.5t-34 15.5q-16 9 -31.5 16t-31.5 7q-23 0 -36 -15.5t-21 -34.5h-43z" glyph-name="tildebelowcmb" unicode="̰" horiz-adv-x="0"/>
<glyph d="M30 -124h-270l9 54h270z" glyph-name="macronbelowcmb" unicode="̱" horiz-adv-x="0"/>
<glyph d="M-240 708h88l100 -144h-56z" glyph-name="gravetonecmb" unicode="̀" horiz-adv-x="0"/>
<glyph d="M-184 564h-56l126 144h88z" glyph-name="acutetonecmb" unicode="́" horiz-adv-x="0"/>
<glyph d="M-144 772h-56l126 144h88zM54 649q0 -20 -14.5 -35t-34.5 -15t-33.5 12.5t-13.5 34.5t14.5 36.5t34.5 14.5t33.5 -13t13.5 -35zM-144 649q0 -20 -14 -35t-34 -15t-34 12.5t-14 34.5t15 36.5t35 14.5t33 -13t13 -35z" glyph-name="dialytikatonoscmb" unicode="̈́" horiz-adv-x="0"/>
<glyph glyph-name="combininggraphemejoiner" unicode="͏" horiz-adv-x="0"/>
<glyph d="M215 421q0 -22 -15.5 -38.5t-38.5 -16.5q-22 0 -37.5 14t-15.5 38t16.5 40t38.5 16t37 -14t15 -39zM39 -140h-60l109 235h74z" glyph-name="uni037E" unicode=";" horiz-adv-x="300"/>
<glyph d="M220 708h67l-40 -173h-46z" glyph-name="u0384" unicode="΄" horiz-adv-x="260"/>
<glyph d="M222 735h67l-46 -203h-46zM314 577.5q2 10.5 17 24.5t35 14t29 -12.5t9 -24.5q0 -4 -2 -14.5t-17 -24.5t-35 -14t-29 12.5t-9 24.5q0 4 2 14.5zM53 577.5q2 10.5 17 24.5t35 14t29 -12.5t9 -24.5q0 -4 -2 -14.5t-17 -24.5t-35 -14t-29 12.5t-9 24.5q0 4 2 14.5z" glyph-name="u0385" unicode="΅" horiz-adv-x="240"/>
<glyph d="M188 252h310l-74 376zM31 0h-82l456 708h70l147 -708h-75l-38 186h-362zM115 748h67l-40 -173h-46z" glyph-name="u0386" unicode="Ά" horiz-adv-x="700"/>
<glyph d="M184 315q0 -22 -15.5 -38.5t-38.5 -16.5q-22 0 -37.5 14t-15.5 38t16.5 40t38.5 16t37 -14t15 -39z" glyph-name="anoteleia" unicode="·" horiz-adv-x="260"/>
<glyph d="M178 63h380l-11 -63h-451l125 708h425l-11 -63h-354l-43 -246h338l-11 -61h-338zM78 748h67l-40 -173h-46z" glyph-name="u0388" unicode="Έ" horiz-adv-x="636"/>
<glyph d="M220 708h71l-55 -308h377l55 308h71l-125 -708h-71l59 336h-377l-59 -336h-71zM79 748h67l-40 -173h-46z" glyph-name="u0389" unicode="Ή" horiz-adv-x="763"/>
<glyph d="M166 0h-71l125 708h71zM78 748h67l-40 -173h-46z" glyph-name="u038A" unicode="Ί" horiz-adv-x="315"/>
<glyph d="M770 417q0 51 -16 96t-46.5 78.5t-76 53t-103.5 19.5q-75 0 -137 -31.5t-105.5 -83.5t-67.5 -119t-24 -138q0 -51 15.5 -96.5t46.5 -79t76 -53t104 -19.5q74 0 135.5 31t105.5 83t68.5 119.5t24.5 139.5zM433 -18q-69 0 -127 22t-100 62t-65 96t-23 124q0 91 32 171.5 t87.5 140t131 94t162.5 34.5q69 0 127 -21.5t99.5 -61.5t65 -95.5t23.5 -123.5q0 -91 -31 -171.5t-86 -140.5t-131 -95t-165 -35zM79 748h67l-40 -173h-46z" glyph-name="u038C" unicode="Ό" horiz-adv-x="894"/>
<glyph d="M362 0h-71l54 305l-180 403h84l141 -344l283 344h89l-346 -403zM58 748h67l-40 -173h-46z" glyph-name="u038E" unicode="Ύ" horiz-adv-x="672"/>
<glyph d="M455 0l33 190q99 16 163.5 76t80.5 149q5 27 5 52q0 28 -9 62.5t-38.5 65t-74 46t-100.5 15.5t-105.5 -15.5t-89.5 -46t-67 -75.5t-37 -104q-5 -26 -5 -50q0 -61 38 -111t132 -64l-33 -190h-266l11 66h201l14 76q-50 11 -85.5 36t-57 61t-26 68t-4.5 52q0 28 5 57 q13 72 49.5 128.5t89 95t117 59t132.5 20.5t125 -20.5t95.5 -59t52 -82.5t13.5 -81q0 -28 -6 -59q-8 -48 -31 -92.5t-57.5 -81.5t-79 -63.5t-96.5 -37.5l-14 -76h201l-11 -66h-265zM78 748h67l-40 -173h-46z" glyph-name="u038F" unicode="Ώ" horiz-adv-x="844"/>
<glyph d="M123 0h-67l83 468h67zM195 735h67l-46 -203h-46zM287 577.5q2 10.5 17 24.5t35 14t29 -12.5t9 -24.5q0 -4 -2 -14.5t-17 -24.5t-35 -14t-29 12.5t-9 24.5q0 4 2 14.5zM26 577.5q2 10.5 17 24.5t35 14t29 -12.5t9 -24.5q0 -4 -2 -14.5t-17 -24.5t-35 -14t-29 12.5t-9 24.5 q0 4 2 14.5z" glyph-name="u0390" unicode="ΐ" horiz-adv-x="298"/>
<glyph d="M188 252h310l-74 376zM31 0h-82l456 708h70l147 -708h-75l-38 186h-362z" glyph-name="u0391" unicode="Α" horiz-adv-x="695"/>
<glyph d="M122 61h134q43 0 83.5 8.5t71 27.5t49 50t18.5 75q0 55 -41.5 86t-118.5 31h-147zM181 398h145q28 0 59 7t56.5 23.5t42 43t16.5 66.5q0 29 -11.5 49.5t-31.5 34t-47.5 19.5t-59.5 6h-125zM165 708h204q37 0 73.5 -8t66 -26.5t48 -48t18.5 -72.5q0 -71 -43 -117.5 t-113 -63.5v-2q58 -9 95 -48.5t37 -102.5q0 -54 -22.5 -95t-62.5 -68.5t-95.5 -41.5t-121.5 -14h-209z" glyph-name="u0392" unicode="Β" horiz-adv-x="620"/>
<glyph d="M112 0h-72l124 708h402l-11 -64h-330z" glyph-name="u0393" unicode="Γ" horiz-adv-x="536"/>
<glyph d="M403 631l-327 -569h455zM-21 0l9 52l385 656h74l161 -656l-9 -52h-620z" glyph-name="u0394" unicode="Δ" horiz-adv-x="701"/>
<glyph d="M122 63h380l-11 -63h-451l125 708h425l-11 -63h-354l-43 -246h338l-11 -61h-338z" glyph-name="u0395" unicode="Ε"/>
<glyph d="M597 648l-518 -585h419l-11 -63h-512l11 60l519 585h-398l11 63h490z" glyph-name="u0396" unicode="Ζ" horiz-adv-x="572"/>
<glyph d="M165 708h71l-55 -308h377l55 308h71l-125 -708h-71l59 336h-377l-59 -336h-71z" glyph-name="u0397" unicode="Η" horiz-adv-x="708"/>
<glyph d="M710 417q0 51 -16 96t-46.5 78.5t-76 53t-103.5 19.5q-75 0 -137 -31.5t-105.5 -83.5t-67.5 -119t-24 -138q0 -51 15.5 -96.5t46.5 -79t76 -53t104 -19.5q74 0 135.5 31t105.5 83t68.5 119.5t24.5 139.5zM373 -18q-69 0 -127 22t-100 62t-65 96t-23 124q0 91 32 171.5 t87.5 140t131 94t162.5 34.5q69 0 127 -21.5t99.5 -61.5t65 -95.5t23.5 -123.5q0 -91 -31 -171.5t-86 -140.5t-131 -95t-165 -35zM626 326h-417l12 66h417z" glyph-name="u0398" unicode="Θ" horiz-adv-x="834"/>
<glyph d="M111 0h-71l125 708h71z" glyph-name="u0399" unicode="Ι" horiz-adv-x="260"/>
<glyph d="M180 390h1l360 318h104l-387 -328l296 -380h-93l-283 377h-1l-66 -377h-71l125 708h71z" glyph-name="u039A" unicode="Κ" horiz-adv-x="585"/>
<glyph d="M28 0h-79l430 708h70l180 -708h-80l-153 618z" glyph-name="u039B" unicode="Λ" horiz-adv-x="702"/>
<glyph d="M407 122h1l343 586h109l-125 -708h-71l108 612h-2l-364 -612h-38l-148 612h-2l-108 -612h-70l125 708h108z" glyph-name="u039C" unicode="Μ" horiz-adv-x="886"/>
<glyph d="M546 101h2l107 607h71l-125 -708h-89l-290 615h-2l-108 -615h-71l125 708h89z" glyph-name="u039D" unicode="Ν" horiz-adv-x="750"/>
<glyph d="M540 66l-11 -66h-494l11 66h494zM563 402l-11 -66h-437l11 66h437zM641 708l-11 -66h-482l11 66h482z" glyph-name="u039E" unicode="Ξ" horiz-adv-x="660"/>
<glyph d="M710 417q0 51 -16 96t-46.5 78.5t-76 53t-103.5 19.5q-75 0 -137 -31.5t-105.5 -83.5t-67.5 -119t-24 -138q0 -51 15.5 -96.5t46.5 -79t76 -53t104 -19.5q74 0 135.5 31t105.5 83t68.5 119.5t24.5 139.5zM373 -18q-69 0 -127 22t-100 62t-65 96t-23 124q0 91 32 171.5 t87.5 140t131 94t162.5 34.5q69 0 127 -21.5t99.5 -61.5t65 -95.5t23.5 -123.5q0 -91 -31 -171.5t-86 -140.5t-131 -95t-165 -35z" glyph-name="u039F" unicode="Ο" horiz-adv-x="834"/>
<glyph d="M674 708l-124 -708h-72l113 642h-366l-113 -642h-72l124 708h510z" glyph-name="u03A0" unicode="Π" horiz-adv-x="708"/>
<glyph d="M179 388h130q90 0 140.5 36t50.5 106q0 65 -41 91t-111 26h-123zM165 708h189q104 0 161 -45t57 -125q0 -52 -20 -91t-55.5 -65.5t-85 -39.5t-108.5 -13h-134l-58 -329h-71z" glyph-name="u03A1" unicode="Ρ"/>
<glyph d="M0 0l7 45l383 309l1 6l-275 302l8 46h492l-11 -64h-384l266 -286l-1 -5l-355 -289h384l-11 -64h-504z" glyph-name="u03A3" unicode="Σ" horiz-adv-x="626"/>
<glyph d="M250 0h-71l114 645h-237l11 63h546l-11 -63h-238z" glyph-name="u03A4" unicode="Τ" horiz-adv-x="547"/>
<glyph d="M247 0h-71l54 305l-180 403h84l141 -344l283 344h89l-346 -403z" glyph-name="u03A5" unicode="Υ" horiz-adv-x="557"/>
<glyph d="M715.5 341q6.5 38 6.5 61q0 25 -7 58.5t-34 67.5t-71 56t-103 27l-90 -513q61 5 112 26.5t90 55.5t64.5 78.5t32 82.5zM134.5 367q-6.5 -38 -6.5 -61q0 -25 7 -59t34.5 -68t71.5 -55.5t104 -26.5l90 514q-61 -5 -112.5 -26.5t-91 -56t-65 -79t-32 -82.5zM518 674 q71 -5 127.5 -30t93.5 -66.5t48.5 -85.5t11.5 -79q0 -28 -8.5 -78t-43.5 -107t-86.5 -98.5t-116.5 -66.5t-138 -30l-15 -84h-72l15 84q-72 5 -129 29.5t-94.5 66.5t-48.5 86t-11 79q0 29 8.5 79t43.5 107t87 98.5t117.5 66t138.5 29.5l14 78h72z" glyph-name="u03A6" unicode="Φ" horiz-adv-x="856"/>
<glyph d="M323 422l251 286h94l-309 -344l182 -364h-86l-149 313l-273 -313h-98l335 372l-169 336h86z" glyph-name="u03A7" unicode="Χ" horiz-adv-x="618"/>
<glyph d="M412 218h25q40 0 79.5 11t72.5 35t57 61.5t33 90.5l51 292h72q-7 -37 -15 -84q-7 -40 -16.5 -94t-20.5 -118t-42.5 -112t-75.5 -80t-98.5 -48t-112.5 -16h-20l-27 -156h-72l27 156h-30q-58 0 -105 16t-78 48t-40.5 69t-9.5 67q0 26 5 56l52 296h72q-7 -45 -16 -93 q-8 -42 -17 -94t-15.5 -91t-6.5 -61q0 -24 7.5 -52.5t31.5 -52.5t59 -35t76 -11h26l86 490h72z" glyph-name="u03A8" unicode="Ψ" horiz-adv-x="802"/>
<glyph d="M401 0l33 190q99 16 163.5 76t80.5 149q5 27 5 52q0 28 -9 62.5t-38.5 65t-74 46t-100.5 15.5t-105.5 -15.5t-89.5 -46t-67 -75.5t-37 -104q-5 -26 -5 -50q0 -61 38 -111t132 -64l-33 -190h-266l11 66h201l14 76q-50 11 -85.5 36t-57 61t-26 68t-4.5 52q0 28 5 57 q13 72 49.5 128.5t89 95t117 59t132.5 20.5t125 -20.5t95.5 -59t52 -82.5t13.5 -81q0 -28 -6 -59q-8 -48 -31 -92.5t-57.5 -81.5t-79 -63.5t-96.5 -37.5l-14 -76h201l-11 -66h-265z" glyph-name="u03A9" unicode="Ω" horiz-adv-x="808"/>
<glyph d="M270 847q3 20 20 35.5t40 15.5t33 -14t10 -29q0 -4 -1 -8q-4 -20 -20.5 -35.5t-39.5 -15.5t-33 13.5t-10 27.5q0 5 1 10zM78 847q3 20 20 35.5t40 15.5t33 -14t10 -29q0 -4 -1 -8q-4 -20 -20.5 -35.5t-39.5 -15.5t-33 13.5t-10 27.5q0 5 1 10zM112 0h-72l124 708h72z" glyph-name="u03AA" unicode="Ϊ" horiz-adv-x="273"/>
<glyph d="M423 847q3 20 20 35.5t40 15.5t33 -14t10 -29q0 -4 -1 -8q-4 -20 -20.5 -35.5t-39.5 -15.5t-33 13.5t-10 27.5q0 5 1 10zM231 847q3 20 20 35.5t40 15.5t33 -14t10 -29q0 -4 -1 -8q-4 -20 -20.5 -35.5t-39.5 -15.5t-33 13.5t-10 27.5q0 5 1 10zM263 0h-72l53 305 l-194 403h90l153 -343l275 343h84l-336 -403z" glyph-name="u03AB" unicode="Ϋ" horiz-adv-x="562"/>
<glyph d="M112.5 242.5q-5.5 -30.5 -5.5 -50.5q0 -16 4 -41t22.5 -50.5t49 -40t72.5 -14.5q39 0 74.5 14.5t64 39.5t48 59.5t24.5 64t5 47.5q0 19 -5.5 45.5t-25 52t-50 40t-69.5 14.5q-42 0 -78 -15t-63 -40.5t-44.5 -60t-23 -65zM430 79q-38 -45 -90 -68t-103 -23q-55 0 -96 19 t-67 52t-33 67t-7 58t7 63t32 84t62.5 78t85.5 52t103 19q51 0 94.5 -23.5t66.5 -69.5h2l14 81h68l-82 -468h-68l13 79h-2zM373 708h67l-40 -173h-46z" glyph-name="u03AC" unicode="ά" horiz-adv-x="638"/>
<glyph d="M311 708h67l-40 -173h-46zM428 360q-6 18 -22 33q-14 13 -38 23.5t-62 10.5q-24 0 -49.5 -5t-46.5 -15t-36 -26t-17.5 -30t-2.5 -20q0 -13 7 -25.5t24.5 -22t43 -14.5t55.5 -5h103l-10 -56h-127q-71 0 -107 -23.5t-42 -58.5q-1 -6 -1 -11q0 -13 8 -26t27 -23t44.5 -15 t53.5 -5q45 0 79 10.5t57 23.5q26 15 45 34l35 -38q-24 -25 -58 -44q-29 -17 -72.5 -30.5t-102.5 -13.5q-45 0 -82 9.5t-62.5 27.5t-35.5 39t-10 41q0 8 1 17q6 31 22.5 52.5t38 35t45 20t41.5 8.5l1 2q-18 2 -36.5 9.5t-32 21t-19 29t-5.5 28.5q0 9 2 19q5 31 26 56 t52.5 43t71 28t80.5 10q55 0 89 -14.5t53 -31.5q22 -20 31 -46z" glyph-name="u03AD" unicode="έ" horiz-adv-x="522"/>
<glyph d="M179 468q-2 -19 -5 -42t-5 -38h2q13 20 34 37t45.5 29t51 19t51.5 7q89 0 122 -45t33 -100q0 -23 -5 -48l-93 -527h-68l88 499q6 34 6 62q0 34 -12 56t-35.5 34t-62.5 12q-62 0 -112.5 -44.5t-67.5 -138.5l-42 -240h-68l64 365q3 19 7.5 49t6.5 54h65zM346 708h67 l-40 -173h-46z" glyph-name="u03AE" unicode="ή" horiz-adv-x="583"/>
<glyph d="M103 0h-67l83 468h67zM155 708h67l-40 -173h-46z" glyph-name="u03AF" unicode="ί" horiz-adv-x="249"/>
<glyph d="M223 -11q-54 0 -89.5 18t-55 47.5t-22.5 55.5t-3 41q0 23 4 48l47 269h68l-47 -264q-3 -19 -3 -38q0 -9 1.5 -27.5t13.5 -41t35.5 -36t61.5 -13.5q37 0 65.5 13.5t48.5 36t32 50t17 56.5l47 264h68l-47 -269q-7 -40 -25.5 -77.5t-49 -67t-72 -47.5t-95.5 -18zM329 735h67 l-46 -203h-46zM421 577.5q2 10.5 17 24.5t35 14t29 -12.5t9 -24.5q0 -4 -2 -14.5t-17 -24.5t-35 -14t-29 12.5t-9 24.5q0 4 2 14.5zM160 577.5q2 10.5 17 24.5t35 14t29 -12.5t9 -24.5q0 -4 -2 -14.5t-17 -24.5t-35 -14t-29 12.5t-9 24.5q0 4 2 14.5z" glyph-name="u03B0" unicode="ΰ" horiz-adv-x="572"/>
<glyph d="M112.5 242.5q-5.5 -30.5 -5.5 -50.5q0 -16 4 -41t22.5 -50.5t49 -40t72.5 -14.5q39 0 74.5 14.5t64 39.5t48 59.5t24.5 64t5 47.5q0 19 -5.5 45.5t-25 52t-50 40t-69.5 14.5q-42 0 -78 -15t-63 -40.5t-44.5 -60t-23 -65zM430 79q-38 -45 -90 -68t-103 -23q-55 0 -96 19 t-67 52t-33 67t-7 58t7 63t32 84t62.5 78t85.5 52t103 19q51 0 94.5 -23.5t66.5 -69.5h2l14 81h68l-82 -468h-68l13 79h-2z" glyph-name="u03B1" unicode="α" horiz-adv-x="638"/>
<glyph d="M214 529l-47 -265l-9 -53q-4 -19 -4 -36q0 -19 7 -43t27 -44.5t49.5 -31t62.5 -10.5q34 0 66.5 11t58.5 31.5t44.5 50.5t25.5 69q3 19 3 36q0 53 -39 90t-124 37h-69l9 54h59q27 0 52 9t45 26.5t34 42t20 55.5q3 16 3 31t-4.5 34.5t-19 38.5t-37.5 29.5t-52 10.5 q-57 0 -101.5 -42.5t-59.5 -130.5zM10 -240l137 776q9 54 32 95.5t54.5 70t70 43t80.5 14.5q40 0 74.5 -13t58.5 -37.5t32 -52t8 -50.5q0 -17 -3 -36q-6 -36 -22 -65t-37 -50t-44.5 -34t-44.5 -16l-1 -3q23 0 54.5 -11t57.5 -34.5t38 -53.5q12 -29 12 -59q0 -18 -3 -38 q-9 -48 -34.5 -88t-62.5 -69t-82 -45t-92 -16t-77.5 14.5t-48.5 32t-25 32.5t-7 17l-57 -324h-68z" glyph-name="u03B2" unicode="β" horiz-adv-x="651"/>
<glyph d="M175 -240h-68l51 287l-148 421h82l112 -357l231 357h77l-286 -421z" glyph-name="u03B3" unicode="γ" horiz-adv-x="522"/>
<glyph d="M464 231q4 20 4 39q0 17 -5 42t-23.5 49.5t-49 38.5t-72.5 14t-76.5 -14t-61.5 -38.5t-44.5 -58t-24.5 -72.5q-4 -22 -4 -41q0 -17 4.5 -41.5t22.5 -49t48 -38.5t72 -14t77.5 14t62.5 38.5t45 58t25 73.5zM141 625q5 30 26.5 54t56 41.5t80 26.5t99.5 9q47 0 82.5 -6 t59.5 -13q28 -9 49 -19l-33 -62q-22 10 -49 18q-23 7 -57 13t-76 6q-29 0 -57 -3.5t-51 -11t-39 -20.5t-19 -32q-2 -14 3 -25t19.5 -22t39.5 -23t63 -27q36 -15 76 -38t71 -58.5t43.5 -74.5t12.5 -73q0 -26 -5 -54q-9 -53 -35.5 -98t-65.5 -77t-88 -50t-104 -18 q-54 0 -96 18t-69 50.5t-35 66.5t-8 61q0 23 6.5 61.5t33 82t65 74t86 47.5t98.5 17l15 -1l3 3q-4 2 -15 6q-10 4 -28 10.5t-49 19.5q-14 6 -35 14.5t-39 22.5t-27.5 31.5t-9.5 35.5q0 8 2 17z" glyph-name="u03B4" unicode="δ" horiz-adv-x="619"/>
<glyph d="M428 360q-6 18 -22 33q-14 13 -38 23.5t-62 10.5q-24 0 -49.5 -5t-46.5 -15t-36 -26t-17.5 -30t-2.5 -20q0 -13 7 -25.5t24.5 -22t43 -14.5t55.5 -5h103l-10 -56h-127q-71 0 -107 -23.5t-42 -58.5q-1 -6 -1 -11q0 -13 8 -26t27 -23t44.5 -15t53.5 -5q45 0 79 10.5 t57 23.5q26 15 45 34l35 -38q-24 -25 -58 -44q-29 -17 -72.5 -30.5t-102.5 -13.5q-45 0 -82 9.5t-62.5 27.5t-35.5 39t-10 41q0 8 1 17q6 31 22.5 52.5t38 35t45 20t41.5 8.5l1 2q-18 2 -36.5 9.5t-32 21t-19 29t-5.5 28.5q0 9 2 19q5 31 26 56t52.5 43t71 28t80.5 10 q55 0 89 -14.5t53 -31.5q22 -20 31 -46z" glyph-name="u03B5" unicode="ε" horiz-adv-x="522"/>
<glyph d="M248 2q-41 6 -81.5 22t-70 45.5t-40.5 64.5t-11 66q0 26 6 57q14 81 56.5 148t99 121t120.5 97t122 76h-287l9 55h387l-9 -54q-87 -52 -160.5 -103t-128.5 -104.5t-90 -111.5t-47 -124q-4 -22 -4 -41q0 -60 44 -101.5t150 -60.5q69 -12 90.5 -42t21.5 -65q0 -13 -2 -27 q-6 -37 -32 -66t-58 -49.5t-64 -33t-50 -15.5l-29 52q22 4 48 12.5t50 21.5t41 30.5t21 39.5q1 9 1 16q0 13 -5.5 26.5t-20 23.5t-35 15.5t-42.5 8.5z" glyph-name="u03B6" unicode="ζ" horiz-adv-x="488"/>
<glyph d="M179 468q-2 -19 -5 -42t-5 -38h2q13 20 34 37t45.5 29t51 19t51.5 7q89 0 122 -45t33 -100q0 -23 -5 -48l-93 -527h-68l88 499q6 34 6 62q0 34 -12 56t-35.5 34t-62.5 12q-62 0 -112.5 -44.5t-67.5 -138.5l-42 -240h-68l64 365q3 19 7.5 49t6.5 54h65z" glyph-name="u03B7" unicode="η" horiz-adv-x="583"/>
<glyph d="M158 338q-11 -62 -11 -115q0 -58 14.5 -99t42.5 -63.5t73 -22.5q47 0 83 24t63.5 65t47 95.5t32.5 114.5zM395 707q-45 0 -80.5 -23.5t-63.5 -64t-48 -96.5t-33 -120h345q10 62 10 117t-13.5 96.5t-42 66t-74.5 24.5zM405 762q66 0 107 -29.5t61.5 -82.5t20.5 -128 q0 -70 -15 -152.5t-40.5 -153.5t-64 -123t-90 -81.5t-117.5 -29.5t-107 29.5t-60.5 82t-19.5 127.5q0 70 15 151.5t40 153t63 124t89.5 82.5t117.5 30z" glyph-name="u03B8" unicode="θ" horiz-adv-x="669"/>
<glyph d="M103 0h-67l83 468h67z" glyph-name="u03B9" unicode="ι" horiz-adv-x="255"/>
<glyph d="M149 257h3l253 211h98l-274 -214l216 -254h-100l-195 246h-3l-43 -246h-68l82 468h68z" glyph-name="u03BA" unicode="κ" horiz-adv-x="520"/>
<glyph d="M48 0h-73l284 492l-15 77q-6 30 -11 52.5t-13.5 37t-24 21.5t-42.5 7q-22 0 -36 -3.5t-26 -7.5l-5 56q20 5 38 9t48 4q43 0 67 -10.5t37 -30t19.5 -47.5t14.5 -64l131 -593h-73l-84 420h-2z" glyph-name="u03BB" unicode="λ" horiz-adv-x="521"/>
<glyph d="M121 468h68l-46 -259q-6 -36 -6 -63q0 -38 16.5 -68t88.5 -30q30 0 58 12t51 35t40 56.5t25 76.5l42 240h68l-64 -365q-5 -26 -8 -51.5t-5 -51.5h-73l13 76h-2q-28 -35 -70.5 -61.5t-87.5 -26.5q-54 0 -78.5 22.5t-29.5 58.5h-2l-55 -309h-68z" glyph-name="u03BC" unicode="μ" horiz-adv-x="595"/>
<glyph d="M205 0h-72l-98 468h69l75 -396h2l233 396h73z" glyph-name="u03BD" unicode="ν" horiz-adv-x="487"/>
<glyph d="M48 185q8 45 31.5 77t55.5 54t69 34t72 17q-26 4 -56.5 13.5t-54.5 28.5t-34 43.5t-10 48.5q0 15 3 33q6 35 23 62t42.5 46.5t57 32t67.5 19.5v3h-163l10 57h377l-7 -43q-72 -9 -130.5 -21t-102 -31.5t-70 -49t-34.5 -74.5q-2 -13 -2 -24q0 -20 8.5 -41t33 -37t61 -23.5 t80.5 -7.5h89l-11 -67h-121q-37 0 -72 -8.5t-63.5 -26t-48 -43t-23.5 -48.5t-4 -35q0 -17 7 -35.5t31 -35t64 -28t96 -21.5q69 -12 91.5 -41.5t22.5 -64.5q0 -13 -3 -28q-6 -37 -32 -66t-58.5 -49.5t-64 -33t-49.5 -15.5l-29 52q22 4 48 12.5t50 21.5t41 30.5t21 39.5 q1 9 1 16q0 13 -5.5 26.5t-20 23.5t-35 15.5t-42.5 8.5q-46 7 -87.5 19t-70.5 33t-40.5 47t-11.5 52q0 15 3 32z" glyph-name="u03BE" unicode="ξ" horiz-adv-x="533"/>
<glyph d="M458 274q0 32 -10 59.5t-29.5 47.5t-47.5 31.5t-63 11.5q-44 0 -81 -18.5t-64 -50t-42.5 -73t-15.5 -87.5q0 -32 10 -59.5t29.5 -47.5t47 -31.5t62.5 -11.5q45 0 82.5 18.5t64.5 49.5t42 72.5t15 88.5zM250 -12q-47 0 -87 15t-68.5 41.5t-44.5 64t-16 82.5 q0 59 20.5 111.5t57.5 92t88 62.5t112 23q48 0 87.5 -14.5t68 -41.5t44.5 -64t16 -82q0 -60 -20.5 -113t-57.5 -92t-88 -62t-112 -23z" glyph-name="u03BF" unicode="ο" horiz-adv-x="611"/>
<glyph d="M104 0h-68l82 468h395l-82 -468h-68l72 411h-259z" glyph-name="u03C0" unicode="π" horiz-adv-x="582"/>
<glyph d="M489 234q4 22 4 43q0 16 -4 41.5t-22.5 50.5t-49 39.5t-72.5 14.5q-39 0 -74 -14.5t-62.5 -40t-46.5 -60t-26 -74.5q-4 -22 -4 -41t5.5 -45t24.5 -50.5t49 -38t68 -13.5q42 0 77.5 14.5t62.5 40t45 60t25 73.5zM56 -240h-68l84 474q10 61 39 107t68.5 77t86 46.5 t93.5 15.5q55 0 96.5 -19t68 -52t34 -67.5t7.5 -59.5q0 -23 -6.5 -61.5t-32.5 -83.5t-64 -78t-86.5 -52t-103.5 -19q-51 0 -93 23.5t-64 67.5h-3z" glyph-name="u03C1" unicode="ρ" horiz-adv-x="635"/>
<glyph d="M278 54q21 -5 43.5 -12.5t39.5 -22.5t23.5 -34t6.5 -37q0 -13 -2 -28q-6 -37 -32 -66t-58.5 -49.5t-64 -33t-49.5 -15.5l-29 52q22 4 48 12.5t50 21.5t41 30.5t21 39.5q2 9 2 17q0 13 -5.5 25t-18.5 21t-29.5 13.5t-31.5 7.5q-14 3 -36 8t-46.5 15t-48.5 26.5t-40.5 42.5 t-22 52t-5.5 45q0 23 5 50q10 55 36 100.5t64.5 77.5t86 49.5t100.5 17.5q57 0 100 -20.5t66 -60.5l-60 -38q-11 25 -38.5 43.5t-75.5 18.5q-38 0 -72 -13t-61.5 -37.5t-47 -59t-26.5 -77.5q-4 -22 -4 -41q0 -24 9 -49t33.5 -44.5t58.5 -30t70 -17.5z" glyph-name="u03C2" unicode="ς" horiz-adv-x="507"/>
<glyph d="M464.5 224.5q5.5 29.5 5.5 48.5q0 18 -5 43.5t-24 51t-49 40.5t-71 15t-76 -15t-62.5 -40.5t-46 -60t-24 -64t-5.5 -48.5q0 -18 5 -43.5t23.5 -51t48.5 -40t71 -14.5t76.5 14.5t63 40t46 60t24 64zM501 411l-1 -3q27 -33 34.5 -67t7.5 -59q0 -23 -4 -48q-9 -53 -36 -98 t-66 -78t-88 -51.5t-104 -18.5q-54 0 -96.5 18.5t-69.5 51.5t-35 67.5t-8 61.5q0 23 6.5 61.5t33 83.5t65.5 78t88 51.5t103 18.5q26 0 44 -2t35 -4t37.5 -4t50.5 -2h151l-10 -57h-138z" glyph-name="u03C3" unicode="σ" horiz-adv-x="639"/>
<glyph d="M50 468h461l-10 -57h-197l-72 -411h-68l72 411h-196z" glyph-name="u03C4" unicode="τ" horiz-adv-x="521"/>
<glyph d="M223 -11q-54 0 -89.5 18t-55 47.5t-22.5 55.5t-3 41q0 23 4 48l47 269h68l-47 -264q-3 -19 -3 -38q0 -9 1.5 -27.5t13.5 -41t35.5 -36t61.5 -13.5q37 0 65.5 13.5t48.5 36t32 50t17 56.5l47 264h68l-47 -269q-7 -40 -25.5 -77.5t-49 -67t-72 -47.5t-95.5 -18z" glyph-name="u03C5" unicode="υ" horiz-adv-x="572"/>
<glyph d="M651 231q6 36 6 53q0 29 -12.5 56t-40 45.5t-60 25t-57.5 6.5h-36l-66 -371q48 0 92.5 12t80.5 37t61.5 62.5t31.5 73.5zM39 244q9 51 34 90.5t58.5 68t71.5 46.5t72 27l15 -53q-25 -7 -53.5 -21t-54 -35.5t-45 -51.5t-26.5 -70q-4 -23 -4 -43q0 -25 8.5 -54t36 -53 t70 -36t95.5 -13l76 428h110q54 0 99 -16.5t75.5 -47t41.5 -64t11 -62.5q0 -19 -4 -39q-11 -64 -46.5 -112t-84 -80t-106.5 -48.5t-114 -16.5l-40 -228h-68l40 228q-66 1 -120.5 17.5t-91 48.5t-49 69.5t-12.5 70.5q0 24 5 50z" glyph-name="u03C6" unicode="φ" horiz-adv-x="813"/>
<glyph d="M152 468l110 -285l209 285h71l-253 -336l148 -371h-74l-121 319l-234 -319h-73l279 372l-136 335h74z" glyph-name="u03C7" unicode="χ" horiz-adv-x="567"/>
<glyph d="M381 46q47 0 90 13.5t77 40t58 66t33 92.5l37 210h68l-38 -214q-11 -63 -41 -112.5t-74.5 -83t-100.5 -51.5t-119 -19l-40 -228h-68l40 228q-63 0 -113 18t-82 52t-41.5 72t-9.5 68q0 27 5 56l38 214h68l-37 -210q-4 -25 -4 -48t7 -52.5t31.5 -56.5t62.5 -40.5t85 -14.5 l75 422h68z" glyph-name="u03C8" unicode="ψ" horiz-adv-x="784"/>
<glyph d="M319 423q-90 -25 -142 -73t-67 -132q-4 -26 -4 -50q0 -8 1 -27.5t12.5 -42.5t32 -37t51.5 -14q28 0 53.5 11.5t47 33t37 53t22.5 71.5l15 85h68l-15 -85q-5 -26 -5 -49q0 -46 24.5 -82t80.5 -36q31 0 56.5 13.5t45 36.5t32.5 53.5t19 65.5q4 26 4 48q0 52 -29.5 92 t-111.5 65l36 51q37 -9 72.5 -27.5t61 -49t33.5 -64t8 -61.5q0 -27 -5 -58q-8 -47 -28.5 -88t-51 -71t-70 -47t-84.5 -17q-70 0 -102.5 37.5t-32.5 90.5q0 13 2 28h-4q-18 -74 -67.5 -116t-119.5 -42q-45 0 -78.5 17.5t-53.5 48t-24.5 60t-4.5 47.5q0 25 5 52 q11 63 38.5 108t63.5 75.5t78 49t82 27.5z" glyph-name="u03C9" unicode="ω" horiz-adv-x="842"/>
<glyph d="M369 649q0 -20 -14.5 -35t-34.5 -15t-33.5 12.5t-13.5 34.5t14.5 36.5t34.5 14.5t33.5 -13t13.5 -35zM171 649q0 -20 -14 -35t-34 -15t-34 12.5t-14 34.5t15 36.5t35 14.5t33 -13t13 -35zM146 0h-67l83 468h67z" glyph-name="u03CA" unicode="ϊ" horiz-adv-x="324"/>
<glyph d="M486 649q0 -20 -14.5 -35t-34.5 -15t-33.5 12.5t-13.5 34.5t14.5 36.5t34.5 14.5t33.5 -13t13.5 -35zM288 649q0 -20 -14 -35t-34 -15t-34 12.5t-14 34.5t15 36.5t35 14.5t33 -13t13 -35zM223 -11q-54 0 -89.5 18t-55 47.5t-22.5 55.5t-3 41q0 23 4 48l47 269h68 l-47 -264q-3 -19 -3 -38q0 -9 1.5 -27.5t13.5 -41t35.5 -36t61.5 -13.5q37 0 65.5 13.5t48.5 36t32 50t17 56.5l47 264h68l-47 -269q-7 -40 -25.5 -77.5t-49 -67t-72 -47.5t-95.5 -18z" glyph-name="u03CB" unicode="ϋ" horiz-adv-x="572"/>
<glyph d="M458 274q0 32 -10 59.5t-29.5 47.5t-47.5 31.5t-63 11.5q-44 0 -81 -18.5t-64 -50t-42.5 -73t-15.5 -87.5q0 -32 10 -59.5t29.5 -47.5t47 -31.5t62.5 -11.5q45 0 82.5 18.5t64.5 49.5t42 72.5t15 88.5zM250 -12q-47 0 -87 15t-68.5 41.5t-44.5 64t-16 82.5 q0 59 20.5 111.5t57.5 92t88 62.5t112 23q48 0 87.5 -14.5t68 -41.5t44.5 -64t16 -82q0 -60 -20.5 -113t-57.5 -92t-88 -62t-112 -23zM324 708h67l-40 -173h-46z" glyph-name="u03CC" unicode="ό" horiz-adv-x="611"/>
<glyph d="M223 -11q-54 0 -89.5 18t-55 47.5t-22.5 55.5t-3 41q0 23 4 48l47 269h68l-47 -264q-3 -19 -3 -38q0 -9 1.5 -27.5t13.5 -41t35.5 -36t61.5 -13.5q37 0 65.5 13.5t48.5 36t32 50t17 56.5l47 264h68l-47 -269q-7 -40 -25.5 -77.5t-49 -67t-72 -47.5t-95.5 -18zM317 708h67 l-40 -173h-46z" glyph-name="u03CD" unicode="ύ" horiz-adv-x="572"/>
<glyph d="M442 708h67l-40 -173h-46zM319 423q-90 -25 -142 -73t-67 -132q-4 -26 -4 -50q0 -8 1 -27.5t12.5 -42.5t32 -37t51.5 -14q28 0 53.5 11.5t47 33t37 53t22.5 71.5l15 85h68l-15 -85q-5 -26 -5 -49q0 -46 24.5 -82t80.5 -36q31 0 56.5 13.5t45 36.5t32.5 53.5t19 65.5 q4 26 4 48q0 52 -29.5 92t-111.5 65l36 51q37 -9 72.5 -27.5t61 -49t33.5 -64t8 -61.5q0 -27 -5 -58q-8 -47 -28.5 -88t-51 -71t-70 -47t-84.5 -17q-70 0 -102.5 37.5t-32.5 90.5q0 13 2 28h-4q-18 -74 -67.5 -116t-119.5 -42q-45 0 -78.5 17.5t-53.5 48t-24.5 60t-4.5 47.5 q0 25 5 52q11 63 38.5 108t63.5 75.5t78 49t82 27.5z" glyph-name="u03CE" unicode="ώ" horiz-adv-x="842"/>
<glyph d="M546 849q0 -20 -14.5 -35t-34.5 -15t-33.5 12.5t-13.5 34.5t14.5 36.5t34.5 14.5t33.5 -13t13.5 -35zM348 849q0 -20 -14 -35t-34 -15t-34 12.5t-14 34.5t15 36.5t35 14.5t33 -13t13 -35zM122 63h380l-11 -63h-451l125 708h425l-11 -63h-354l-43 -246h338l-11 -61h-338z " glyph-name="u0401" unicode="Ё" horiz-adv-x="593"/>
<glyph d="M56 642l11 66h535l-11 -66h-257l-34 -190h136q65 0 109 -18t69.5 -48.5t31 -60.5t5.5 -51q0 -22 -4 -46q-9 -48 -31.5 -90t-59 -72.5t-86 -48.5t-111.5 -18l-36 1l11 68h59q27 0 56 9.5t54 29t43.5 49t25.5 70.5q4 20 4 37q0 47 -30.5 84.5t-114.5 37.5h-143l-67 -385 h-72l113 642h-206z" glyph-name="u0402" unicode="Ђ" horiz-adv-x="722"/>
<glyph d="M358 764h-56l126 144h88zM112 0h-72l124 708h402l-11 -64h-330z" glyph-name="u0403" unicode="Ѓ" horiz-adv-x="536"/>
<glyph d="M657 114q-23 -27 -53 -51t-66.5 -42t-79 -28.5t-90.5 -10.5q-80 0 -143 28t-103 77.5t-52 101.5t-12 91q0 36 10.5 95.5t50.5 127.5t98.5 117.5t131 77.5t151.5 28q39 0 75 -8t66 -22.5t53.5 -35t37.5 -46.5l-68 -44q-8 17 -24 34t-38 30t-50.5 21t-62.5 8 q-63 0 -118 -21t-98.5 -57.5t-74.5 -85.5t-47 -104h423l-11 -63h-425q-3 -21 -3 -41q0 -36 10.5 -79t41.5 -82t79.5 -62t113.5 -23q61 0 120.5 25t106.5 80z" glyph-name="u0404" unicode="Є" horiz-adv-x="712"/>
<glyph d="M491 598q-19 28 -55 47t-84 19q-31 0 -62 -8.5t-56 -26t-40.5 -44t-15.5 -63.5q0 -28 10 -48t27.5 -35t41 -26t50.5 -21q31 -12 63 -27t58 -37t42 -51.5t16 -69.5q0 -36 -13 -75.5t-43 -73t-79 -55t-121 -21.5q-65 0 -125 26.5t-92 78.5l64 41q20 -35 60 -59.5t96 -24.5 q36 0 68.5 10.5t57 30t38.5 47.5t14 62q0 30 -12 52t-32.5 38t-47 28t-56.5 23t-59 26t-51 36t-35.5 49.5t-13.5 66.5q0 45 17 84t49 67.5t79 45t107 16.5q72 0 122.5 -23.5t73.5 -60.5z" glyph-name="u0405" unicode="Ѕ" horiz-adv-x="564"/>
<glyph d="M111 0h-71l125 708h71z" glyph-name="u0406" unicode="І" horiz-adv-x="260"/>
<glyph d="M367 849q0 -20 -14.5 -35t-34.5 -15t-33.5 12.5t-13.5 34.5t14.5 36.5t34.5 14.5t33.5 -13t13.5 -35zM169 849q0 -20 -14 -35t-34 -15t-34 12.5t-14 34.5t15 36.5t35 14.5t33 -13t13 -35zM111 0h-71l125 708h71z" glyph-name="u0407" unicode="Ї" horiz-adv-x="273"/>
<glyph d="M53 140q7 -40 33 -68t74 -28q39 0 64 14t41.5 37t25 52.5t14.5 61.5l88 499h71l-89 -504q-6 -35 -17 -74t-34.5 -72t-61.5 -54.5t-98 -21.5q-39 0 -70 11t-52.5 30t-34.5 44t-17 53z" glyph-name="u0408" unicode="Ј" horiz-adv-x="492"/>
<glyph d="M515 336l63 -274q42 0 78.5 8t64 23.5t45.5 39.5t24 56q3 16 3 30q0 22 -9 45t-32.5 40t-57.5 24.5t-73 7.5h-106zM23 0h-74l409 708h71l72 -309h135q125 0 178 -47.5t53 -118.5q0 -21 -4 -45q-7 -38 -29.5 -72t-59.5 -60t-87.5 -41t-112.5 -15h-60l-138 618z" glyph-name="u0409" unicode="Љ" horiz-adv-x="907"/>
<glyph d="M580 338l-48 -274h119q88 0 137 37.5t60 100.5q2 15 2 28q0 46 -33 77t-118 31h-119zM236 708l-54 -307h337l54 307h72l-54 -307h125q54 0 95.5 -13.5t68.5 -39.5t35 -55.5t8 -53.5q0 -20 -4 -43q-8 -46 -31.5 -82t-59.5 -61.5t-83 -39t-101 -13.5h-195l59 335h-337 l-59 -335h-72l124 708h72z" glyph-name="u040A" unicode="Њ" horiz-adv-x="993"/>
<glyph d="M288 384l-67 -384h-72l113 642h-206l11 66h535l-11 -66h-257l-34 -192h163q54 0 91 -16t58.5 -45.5t25.5 -58t4 -46.5q0 -27 -5 -57l-40 -227h-72l33 191q8 42 8 77q0 39 -13.5 64.5t-40.5 38.5t-71 13h-153z" glyph-name="u040B" unicode="Ћ" horiz-adv-x="733"/>
<glyph d="M390 764h-56l126 144h88zM40 0l124 708h72l-53 -301q27 0 51.5 -2t47.5 -6l314 309h92l-331 -327q114 -41 162 -134.5t48 -225.5v-21h-79q0 87 -17.5 152t-56 107.5t-96 62t-131.5 19.5h-15l-60 -341h-72z" glyph-name="u040C" unicode="Ќ" horiz-adv-x="688"/>
<glyph d="M105 708h77l147 -465l303 465h88l-368 -554q-24 -36 -49 -66t-53 -53t-61 -35t-73 -12q-28 0 -50 6t-36 13l44 62q11 -6 25 -10t32 -4q41 -1 75 27t69 81zM424 767q-36 0 -64 9t-50 25t-35 37t-17 44l55 24q7 -36 35 -60t76 -25q48 1 76 25t35 60l55 -24q-4 -23 -17 -44 t-35 -37t-50 -25t-64 -9z" glyph-name="u040E" unicode="Ў" horiz-adv-x="675"/>
<glyph d="M489 66l113 642h72l-124 -708h-212l-24 -139h-72l24 139h-226l124 708h72l-113 -642h366z" glyph-name="u040F" unicode="Џ" horiz-adv-x="708"/>
<glyph d="M188 252h310l-74 376zM31 0h-82l456 708h70l147 -708h-75l-38 186h-362z" glyph-name="u0410" unicode="А" horiz-adv-x="695"/>
<glyph d="M261 66q85 0 137 36.5t63 99.5q2 14 2 27q0 46 -36 76t-118 30h-138l-48 -269h138zM40 0l124 708h402l-11 -66h-330l-43 -241h144q54 0 95.5 -13.5t68.5 -39t35 -55t8 -53.5q0 -19 -3 -39q-8 -48 -32 -85t-60 -63t-83 -39.5t-101 -13.5h-214z" glyph-name="u0411" unicode="Б" horiz-adv-x="606"/>
<glyph d="M122 61h134q43 0 83.5 8.5t71 27.5t49 50t18.5 75q0 55 -41.5 86t-118.5 31h-147zM181 398h145q28 0 59 7t56.5 23.5t42 43t16.5 66.5q0 29 -11.5 49.5t-31.5 34t-47.5 19.5t-59.5 6h-125zM165 708h204q37 0 73.5 -8t66 -26.5t48 -48t18.5 -72.5q0 -71 -43 -117.5 t-113 -63.5v-2q58 -9 95 -48.5t37 -102.5q0 -54 -22.5 -95t-62.5 -68.5t-95.5 -41.5t-121.5 -14h-209z" glyph-name="u0412" unicode="В" horiz-adv-x="636"/>
<glyph d="M112 0h-72l124 708h402l-11 -64h-330z" glyph-name="u0413" unicode="Г" horiz-adv-x="536"/>
<glyph d="M110 66h406l-83 550zM16 0l-25 -139h-71l35 205h73l386 642h70l106 -642h91l-36 -205h-72l25 139h-582z" glyph-name="u0414" unicode="Д" horiz-adv-x="721"/>
<glyph d="M122 63h380l-11 -63h-451l125 708h425l-11 -63h-354l-43 -246h338l-11 -61h-338z" glyph-name="u0415" unicode="Е" horiz-adv-x="592"/>
<glyph d="M459 341q-64 0 -120.5 -18.5t-104 -59t-85.5 -105.5t-65 -158h-79q42 150 115 244.5t180 133.5l-169 330h79l157 -311q24 5 50 7.5t53 2.5l53 301h72l-53 -301q25 0 48 -2t44 -6l264 309h89l-285 -330q165 -71 165 -321q0 -27 -2 -57h-79q1 24 1 47q0 63 -12 120.5 t-44.5 98.5t-80 58t-106.5 17h-13l-60 -341h-72z" glyph-name="u0416" unicode="Ж" horiz-adv-x="987"/>
<glyph d="M236 401h31q35 0 72 7.5t67.5 25t50 46.5t19.5 72q0 52 -35.5 80.5t-95.5 32.5q-8 1 -15 1q-43 0 -82 -22t-68 -61l-48 45q43 55 96.5 76.5t109.5 21.5q12 0 24 -1q86 -5 137.5 -49.5t51.5 -118.5q0 -38 -14 -69t-38 -54.5t-56 -39.5t-68 -25v-2q26 -5 53.5 -17t50 -32.5 t37 -48.5t14.5 -65q0 -56 -24.5 -99t-65 -71.5t-86.5 -40t-88 -11.5q-13 0 -26 1q-97 7 -150.5 51t-74.5 113l69 33q7 -29 18.5 -52.5t30.5 -41t47 -28t67 -13.5q12 -1 23 -1q71 0 122 36t63 104q2 15 2 28q0 24 -10.5 48.5t-38 43t-67 27t-85.5 8.5h-31z" glyph-name="u0417" unicode="З" horiz-adv-x="611"/>
<glyph d="M132 105l510 603h98l-124 -708h-72l107 609h-2l-511 -609h-98l124 708h72l-106 -603h2z" glyph-name="u0418" unicode="И" horiz-adv-x="774"/>
<glyph d="M132 105l510 603h98l-124 -708h-72l107 609h-2l-511 -609h-98l124 708h72l-106 -603h2zM463 767q-36 0 -63.5 9t-47 25t-31 37t-15.5 44l55 24q7 -36 35 -60.5t76 -24.5t85 24.5t56 60.5l47 -24q-12 -23 -31 -44t-44 -37t-55.5 -25t-66.5 -9z" glyph-name="u0419" unicode="Й" horiz-adv-x="774"/>
<glyph d="M40 0l124 708h72l-53 -301q27 0 51.5 -2t47.5 -6l314 309h92l-331 -327q114 -41 162 -134.5t48 -225.5v-21h-79q0 87 -17.5 152t-56 107.5t-96 62t-131.5 19.5h-15l-60 -341h-72z" glyph-name="u041A" unicode="К" horiz-adv-x="688"/>
<glyph d="M31 0h-82l455 708h70l147 -708h-75l-123 616z" glyph-name="u041B" unicode="Л" horiz-adv-x="702"/>
<glyph d="M407 122h1l343 586h109l-125 -708h-71l108 612h-2l-364 -612h-38l-148 612h-2l-108 -612h-70l125 708h108z" glyph-name="u041C" unicode="М" horiz-adv-x="886"/>
<glyph d="M165 708h71l-55 -308h377l55 308h71l-125 -708h-71l59 336h-377l-59 -336h-71z" glyph-name="u041D" unicode="Н" horiz-adv-x="718"/>
<glyph d="M710 417q0 51 -16 96t-46.5 78.5t-76 53t-103.5 19.5q-75 0 -137 -31.5t-105.5 -83.5t-67.5 -119t-24 -138q0 -51 15.5 -96.5t46.5 -79t76 -53t104 -19.5q74 0 135.5 31t105.5 83t68.5 119.5t24.5 139.5zM373 -18q-69 0 -127 22t-100 62t-65 96t-23 124q0 91 32 171.5 t87.5 140t131 94t162.5 34.5q69 0 127 -21.5t99.5 -61.5t65 -95.5t23.5 -123.5q0 -91 -31 -171.5t-86 -140.5t-131 -95t-165 -35z" glyph-name="u041E" unicode="О" horiz-adv-x="850"/>
<glyph d="M674 708l-124 -708h-72l113 642h-366l-113 -642h-72l124 708h510z" glyph-name="u041F" unicode="П" horiz-adv-x="708"/>
<glyph d="M179 388h130q90 0 140.5 36t50.5 106q0 65 -41 91t-111 26h-123zM165 708h189q104 0 161 -45t57 -125q0 -52 -20 -91t-55.5 -65.5t-85 -39.5t-108.5 -13h-134l-58 -329h-71z" glyph-name="u0420" unicode="Р"/>
<glyph d="M659 112q-21 -27 -49 -50.5t-63.5 -41t-78 -28t-92.5 -10.5q-71 0 -129.5 22t-100.5 62t-65 96t-23 124q0 92 33 172t90.5 139.5t134.5 94t165 34.5q39 0 75.5 -8t67.5 -22.5t55.5 -35.5t39.5 -47l-65 -43q-8 17 -23.5 34t-37.5 30.5t-50.5 21.5t-63.5 8 q-76 0 -139.5 -31.5t-109 -83t-71 -118.5t-25.5 -138q0 -52 16 -97.5t47.5 -79t77 -53t105.5 -19.5q64 0 122 25.5t104 80.5z" glyph-name="u0421" unicode="С" horiz-adv-x="720"/>
<glyph d="M250 0h-71l114 645h-237l11 63h546l-11 -63h-238z" glyph-name="u0422" unicode="Т" horiz-adv-x="547"/>
<glyph d="M182 708l147 -465l303 465h88l-368 -554q-24 -36 -49 -66.5t-53 -52.5t-61 -34.5t-73 -12.5q-29 0 -50.5 5.5t-35.5 13.5l44 62q11 -6 25 -10t32 -4q40 0 74.5 27.5t69.5 80.5l-170 545h77z" glyph-name="u0423" unicode="У" horiz-adv-x="675"/>
<glyph d="M124 315q0 -43 11 -81t36.5 -67t66.5 -47.5t102 -22.5l90 513q-68 -6 -124 -29t-96.5 -61t-63 -90t-22.5 -115zM726 393q0 44 -11.5 82t-37.5 67.5t-69 47.5t-106 22l-90 -515q69 4 126.5 27t99.5 61t65 90.5t23 117.5zM513 675q137 -8 212 -81.5t75 -201.5 q0 -81 -32 -145.5t-86.5 -110.5t-127.5 -72.5t-154 -30.5l-14 -84h-72l15 84q-134 10 -206.5 83.5t-72.5 199.5q0 79 31 143t84.5 110t124.5 73t151 32l14 78h72z" glyph-name="u0424" unicode="Ф" horiz-adv-x="856"/>
<glyph d="M323 422l251 286h94l-309 -344l182 -364h-86l-149 313l-273 -313h-98l335 372l-169 336h86z" glyph-name="u0425" unicode="Х" horiz-adv-x="618"/>
<glyph d="M40 0l124 708h72l-113 -642h366l113 642h72l-113 -642h87l-36 -205h-72l25 139h-525z" glyph-name="u0426" unicode="Ц" horiz-adv-x="729"/>
<glyph d="M507 708h72l-124 -708h-71l56 320h-175q-54 0 -91 16t-58.5 45.5t-25.5 58t-4 46.5q0 27 5 57l29 165h72l-22 -129q-8 -42 -8 -77q0 -39 13.5 -64.5t40.5 -38.5t71 -13h164z" glyph-name="u0427" unicode="Ч" horiz-adv-x="603"/>
<glyph d="M419 66l113 642h72l-113 -642h289l113 642h72l-124 -708h-801l124 708h72l-113 -642h296z" glyph-name="u0428" unicode="Ш" horiz-adv-x="999"/>
<glyph d="M40 0l124 708h72l-113 -642h296l113 642h72l-113 -642h285l113 642h72l-113 -642h87l-36 -205h-72l25 139h-812z" glyph-name="u0429" unicode="Щ" horiz-adv-x="1016"/>
<glyph d="M219 64h119q42 0 76 11t59.5 31t41.5 46.5t22 58.5q2 15 2 28q0 47 -34 82t-116 35h-119zM332 708l-51 -289h125q54 0 95.5 -15t68 -42t34.5 -57t8 -55q0 -19 -3 -40q-9 -48 -36.5 -86.5t-70 -66t-97 -42.5t-116.5 -15h-153l113 642h-193l11 66h265z" glyph-name="u042A" unicode="Ъ" horiz-adv-x="683"/>
<glyph d="M744 708l-124 -708h-72l124 708h72zM123 64h118q85 0 135 34.5t64 112.5q2 15 2 28q0 47 -34 82t-116 35h-118zM236 708l-51 -289h124q54 0 95 -16t67.5 -45t34.5 -60t8 -56q0 -20 -6 -54.5t-30 -71.5t-60 -63t-83 -39.5t-101 -13.5h-194l124 708h72z" glyph-name="u042B" unicode="Ы" horiz-adv-x="778"/>
<glyph d="M164 708h72l-51 -289h125q54 0 95.5 -15t68 -42t34.5 -57t8 -55q0 -19 -3 -40q-9 -48 -33 -86.5t-60.5 -66t-83.5 -42.5t-101 -15h-195zM174 356l-51 -292h119q42 0 76 11t59.5 31t41.5 46.5t22 58.5q2 15 2 28q0 47 -34 82t-116 35h-119z" glyph-name="u042C" unicode="Ь" horiz-adv-x="587"/>
<glyph d="M103 150q12 -18 29 -36.5t41.5 -33.5t57.5 -25t77 -10q63 0 117 22.5t96 61.5t71 91.5t41 111.5h-426l11 63h423q0 5 0.5 10.5t0.5 11.5q0 51 -16 96t-46.5 78.5t-75 53t-102.5 19.5q-44 0 -80.5 -10.5t-66 -26.5t-51 -33.5t-34.5 -31.5l-50 47q22 24 50 45t63 37 t77.5 25.5t92.5 9.5q69 0 126.5 -21.5t99.5 -61t65.5 -95t23.5 -124.5q0 -91 -31 -171.5t-86 -140.5t-131 -95t-165 -35q-94 0 -160 36t-101 88z" glyph-name="u042D" unicode="Э" horiz-adv-x="785"/>
<glyph d="M961 417q0 51 -16 96t-46.5 78.5t-76 53t-103.5 19.5q-75 0 -137 -31.5t-105.5 -83.5t-67.5 -119t-24 -138q0 -51 15.5 -96.5t46.5 -79t76 -53t104 -19.5q74 0 135.5 31t105.5 83t68.5 119.5t24.5 139.5zM179 388h140q16 73 52.5 135t89.5 107t119.5 70.5t141.5 25.5 q69 0 127 -21.5t99.5 -61.5t65 -95.5t23.5 -123.5q0 -91 -31 -171.5t-86 -140.5t-131 -95t-165 -35q-69 0 -127 22t-100 62t-65 96t-23 124v18t1 18h-142l-57 -322h-71l125 708h71z" glyph-name="u042E" unicode="Ю" horiz-adv-x="1110"/>
<glyph d="M558 642h-131q-94 0 -149 -28.5t-66 -93.5q-2 -12 -2 -22q0 -44 40.5 -73t131.5 -29h132zM265 356q-69 12 -100.5 47.5t-31.5 84.5q0 15 3 32q8 47 32.5 82.5t63 59t89 35t110.5 11.5h210l-124 -708h-72l58 330h-81q-59 0 -109.5 -16.5t-91.5 -55t-73.5 -102 t-56.5 -156.5h-79q15 63 40.5 120t58.5 103t72 80t82 51v2z" glyph-name="u042F" unicode="Я" horiz-adv-x="665"/>
<glyph d="M358 236q-45 0 -92 -4.5t-85.5 -17t-63 -35t-24.5 -59.5q0 -22 8 -36.5t21.5 -23t31 -12t35.5 -3.5q36 0 66 12t53 33t38 48.5t21 58.5l7 39h-16zM383 287q3 17 4 26.5t1 17.5q0 51 -29 72t-81 21q-42 0 -81 -16.5t-65 -39.5l-30 45q34 30 84 48.5t99 18.5 q33 0 63.5 -7.5t53 -24t36 -42t13.5 -61.5q0 -9 -1 -24.5t-3 -25.5l-34 -190q-5 -27 -8 -56t-3 -49h-60q0 17 1.5 37t4.5 39h-2q-20 -23 -40 -39.5t-41.5 -26.5t-46 -14.5t-53.5 -4.5q-24 0 -49 6t-45.5 20.5t-34 37.5t-13.5 57q0 56 32 90.5t83.5 53t115.5 25t129 6.5z" glyph-name="u0430" unicode="а" horiz-adv-x="534"/>
<glyph d="M334 460q51 0 91 -17t65 -48t31.5 -63.5t6.5 -56.5t-4 -51q-10 -54 -36.5 -98t-64 -74.5t-83.5 -47t-94 -16.5q-56 0 -97 18t-66.5 51.5t-31.5 67.5t-6 57q0 30 6 63q10 57 24 109q47 177 140 265t250 88h135l-10 -58h-137q-73 0 -124 -20t-87.5 -57t-61.5 -89t-44 -115 q34 42 86.5 67t111.5 25zM452 224q4 20 4 39q0 17 -5 41t-22 48t-45 37t-65 13q-34 0 -67 -10.5t-60 -31.5t-47 -52.5t-27 -73.5q-4 -23 -4 -44q0 -17 4.5 -42t22.5 -49.5t48 -38.5t69 -14t72 14t58 38.5t41.5 57t22.5 68.5z" glyph-name="u0431" unicode="б" horiz-adv-x="600"/>
<glyph d="M280 261q50 0 81 15.5t39 61.5q1 9 1 16q0 15 -6.5 27.5t-25.5 20t-46.5 9.5t-61.5 2h-85l-27 -152h131zM113 55h87q37 0 68.5 1.5t55.5 9t40 23.5t21 45q2 9 2 17q0 13 -5.5 25t-21 21t-39 12t-53.5 3h-128zM250 0h-214l82 468h202q89 0 122 -31t33 -72q0 -11 -2 -23 q-5 -26 -16.5 -43.5t-27.5 -29t-36.5 -18.5t-42.5 -13q26 -2 48 -9t37 -20.5t20 -29.5t5 -30q0 -11 -2 -24q-11 -57 -63.5 -91t-144.5 -34z" glyph-name="u0432" unicode="в" horiz-adv-x="559"/>
<glyph d="M104 0h-68l82 468h290l-10 -57h-222z" glyph-name="u0433" unicode="г" horiz-adv-x="415"/>
<glyph d="M118 59h254l-65 327zM6 -139h-66l34 198h75l244 409h60l87 -409h78l-35 -198h-66l25 139h-411z" glyph-name="u0434" unicode="д" horiz-adv-x="568"/>
<glyph d="M431 266q1 8 1.5 17.5t0.5 17.5q0 54 -33 88.5t-97 34.5q-37 0 -68.5 -12.5t-56 -34.5t-41.5 -50.5t-24 -60.5h318zM104 216q-1 -6 -1.5 -11.5t-0.5 -10.5q0 -33 11.5 -60t32 -47t48 -31t59.5 -11q55 0 96 24.5t66 57.5l42 -40q-41 -49 -95 -74t-115 -25q-45 0 -84 14 t-67.5 40t-45 64.5t-16.5 87.5q0 57 21 109t57.5 91t86 62.5t106.5 23.5q96 0 145.5 -51t49.5 -132q0 -12 -2 -36.5t-7 -44.5h-387z" glyph-name="u0435" unicode="е" horiz-adv-x="572"/>
<glyph d="M347 218q-49 -1 -91 -12t-77 -36t-64.5 -66.5t-53.5 -103.5h-76q22 54 47 96t54.5 73.5t64 53t75.5 34.5l-134 211h76l122 -197q16 2 32.5 3.5t34.5 1.5l34 192h68l-34 -192q17 0 33.5 -1.5t31.5 -3.5l192 197h76l-209 -211q73 -25 108.5 -87t43.5 -170h-76 q-3 62 -18 103.5t-41.5 66.5t-64.5 36t-86 12l-38 -218h-68z" glyph-name="u0436" unicode="ж" horiz-adv-x="805"/>
<glyph d="M108 360l-47 32q17 26 43 46q23 17 58.5 31.5t86.5 14.5q45 0 74.5 -12t46.5 -31.5t21.5 -38t4.5 -31.5q0 -10 -2 -19q-4 -23 -16.5 -43t-31 -35t-42 -24t-49.5 -10l-1 -3q27 0 51 -6t40.5 -19t22.5 -29t6 -31q0 -10 -2 -21q-6 -31 -24 -57.5t-46 -45.5t-65.5 -29.5 t-80.5 -10.5q-54 0 -86 14.5t-49 31.5q-19 20 -26 47l61 34q5 -21 19 -37q12 -14 35.5 -25t62.5 -11q54 0 89 24t42 64q1 7 1 14q0 24 -18.5 45t-79.5 21h-60l9 52h50q45 0 79 20.5t42 62.5q1 8 1 17q0 8 -2 20t-12.5 24t-29 19.5t-45.5 7.5q-36 0 -61 -11.5t-41 -25.5 q-18 -16 -29 -36z" glyph-name="u0437" unicode="з" horiz-adv-x="461"/>
<glyph d="M460 382l-354 -382h-70l82 468h70l-64 -366l351 366h70l-82 -468h-70z" glyph-name="u0438" unicode="и" horiz-adv-x="614"/>
<glyph d="M221 681l52 22q7 -41 27 -65t62 -23q45 0 72 25t47 63l46 -22q-11 -20 -27 -41q-16 -20 -36 -38q-22 -18 -50 -30t-62 -11q-32 0 -56 10q-24 11 -39 27t-23 38t-13 45zM393 0l67 382l-354 -382h-70l82 468h70l-64 -366l351 366h70l-82 -468h-70z" glyph-name="u0439" unicode="й" horiz-adv-x="614"/>
<glyph d="M152 276q41 0 74 -6l203 198h76l-219 -212q79 -26 114 -88.5t43 -167.5h-76q-3 62 -17.5 103.5t-42 67t-69 36t-96.5 11.5l-38 -218h-68l82 468h68z" glyph-name="u043A" unicode="к" horiz-adv-x="552"/>
<glyph d="M378 0l-87 386l-230 -386h-71l287 468h60l110 -468h-69z" glyph-name="u043B" unicode="л" horiz-adv-x="542"/>
<glyph d="M176 468l163 -241l244 241h58l-82 -468h-68l65 369l-219 -224h-28l-141 219l-64 -364h-68l82 468h58z" glyph-name="u043C" unicode="м" horiz-adv-x="710"/>
<glyph d="M104 0h-68l82 468h68l-33 -189h267l33 189h68l-82 -468h-68l39 222h-267z" glyph-name="u043D" unicode="н" horiz-adv-x="590"/>
<glyph d="M458 274q0 32 -10 59.5t-29.5 47.5t-47.5 31.5t-63 11.5q-44 0 -81 -18.5t-64 -50t-42.5 -73t-15.5 -87.5q0 -32 10 -59.5t29.5 -47.5t47 -31.5t62.5 -11.5q45 0 82.5 18.5t64.5 49.5t42 72.5t15 88.5zM250 -12q-47 0 -87 15t-68.5 41.5t-44.5 64t-16 82.5 q0 59 20.5 111.5t57.5 92t88 62.5t112 23q48 0 87.5 -14.5t68 -41.5t44.5 -64t16 -82q0 -60 -20.5 -113t-57.5 -92t-88 -62t-112 -23z" glyph-name="u043E" unicode="о" horiz-adv-x="611"/>
<glyph d="M104 0h-68l82 468h395l-82 -468h-68l72 411h-259z" glyph-name="u043F" unicode="п" horiz-adv-x="582"/>
<glyph d="M490 274q0 31 -9.5 58.5t-28.5 48t-46 32t-63 11.5q-44 0 -82 -18t-66 -49.5t-44 -73t-16 -87.5q0 -33 10.5 -60.5t30.5 -48t47.5 -31.5t62.5 -11q46 0 83.5 18t64.5 49t41.5 72.5t14.5 89.5zM177 392q11 18 29 34t40.5 28t48.5 19t54 7q48 0 86.5 -14.5t66.5 -41.5 t43 -64t15 -82q0 -60 -21 -113t-57.5 -92t-87 -62t-109.5 -23q-51 0 -95.5 23t-67.5 68h-2l-57 -319h-67l126 708h67l-14 -76h2z" glyph-name="u0440" unicode="р" horiz-adv-x="635"/>
<glyph d="M426 362q-12 27 -41.5 44.5t-67.5 17.5q-45 0 -83 -18t-65.5 -49.5t-43 -73t-15.5 -88.5q0 -32 10 -59.5t29.5 -47.5t47.5 -31.5t64 -11.5q45 0 79 17t59 44l43 -37q-36 -37 -81 -59t-105 -22q-50 0 -90 14.5t-68.5 41t-43.5 63.5t-15 82q0 60 20 113t56.5 92.5 t88.5 62.5t115 23q52 0 97.5 -19t68.5 -60z" glyph-name="u0441" unicode="с" horiz-adv-x="500"/>
<glyph d="M50 468h411l-10 -57h-177l-72 -411h-68l72 411h-166z" glyph-name="u0442" unicode="т" horiz-adv-x="471"/>
<glyph d="M189 74h2l228 394h75l-354 -589q-33 -54 -68 -86.5t-87 -32.5q-29 0 -57 6l10 62q22 -8 44 -8q32 0 55.5 21.5t46.5 61.5l58 98l-98 467h70z" glyph-name="u0443" unicode="у" horiz-adv-x="488"/>
<glyph d="M112.5 243.5q-5.5 -29.5 -5.5 -48.5q0 -18 5 -43.5t23 -50.5t48 -40t69 -15l66 377q-40 -1 -75 -16t-62 -40.5t-45 -59.5t-23.5 -63.5zM520.5 224.5q5.5 29.5 5.5 48.5q0 18 -5 43t-23 50.5t-48 40.5t-70 16l-66 -377q40 0 75 15t62 40t45.5 59.5t24 64zM390 480 q54 0 96 -19t69 -52t35 -67.5t8 -60.5q0 -23 -4 -47q-9 -53 -35.5 -98t-65 -77.5t-87 -51.5t-103.5 -19l-41 -233h-62l41 233q-52 0 -93.5 19t-69 52t-35.5 67t-8 61q0 23 4 47q9 52 35 97t64.5 78t87 51.5t102.5 19.5l49 276h62z" glyph-name="u0444" unicode="ф" horiz-adv-x="682"/>
<glyph d="M315 0l-100 199l-187 -199h-83l240 247l-117 221h72l91 -184l171 184h81l-222 -229l132 -239h-78z" glyph-name="u0445" unicode="х" horiz-adv-x="484"/>
<glyph d="M36 0l82 468h68l-72 -407h251l72 407h68l-72 -407h78l-35 -200h-68l25 139h-397z" glyph-name="u0446" unicode="ц" horiz-adv-x="593"/>
<glyph d="M80 468h68l-12 -68q-8 -46 -9.5 -65t-1.5 -25q0 -24 9 -42.5t36 -27.5t78 -9h102l42 237h68l-82 -468h-68l30 174h-103q-65 0 -103.5 12t-57.5 36t-20 44.5t-1 26.5q0 31 7 70z" glyph-name="u0447" unicode="ч" horiz-adv-x="529"/>
<glyph d="M36 0l82 468h68l-72 -411h210l72 411h68l-72 -411h211l72 411h68l-82 -468h-625z" glyph-name="u0448" unicode="ш" horiz-adv-x="812"/>
<glyph d="M36 0l82 468h68l-72 -411h210l72 411h68l-72 -411h211l72 411h68l-72 -411h78l-35 -196h-68l25 139h-635z" glyph-name="u0449" unicode="щ" horiz-adv-x="831"/>
<glyph d="M185 55h84q57 0 96 20.5t50 78.5q2 13 2 23q0 14 -5 29t-21 26t-39 15.5t-51 4.5h-81zM258 468l-29 -162h96q52 0 86 -11.5t52.5 -32t22.5 -41t4 -35.5q0 -16 -4.5 -40t-21 -52t-43 -49t-63 -33t-82.5 -12h-168l72 411h-140l10 57h208z" glyph-name="u044A" unicode="ъ" horiz-adv-x="556"/>
<glyph d="M599 468l-82 -468h-68l82 468h68zM113 55h84q57 0 96 20.5t50 78.5q2 13 2 23q0 14 -5 29t-21 26t-39 15.5t-51 4.5h-81zM186 468l-29 -162h96q52 0 86 -11.5t52.5 -32t22.5 -41t4 -35.5q0 -16 -4.5 -40t-21 -52t-43 -49t-63 -33t-82.5 -12h-168l82 468h68z" glyph-name="u044B" unicode="ы" horiz-adv-x="668"/>
<glyph d="M113 55h104q57 0 97 20.5t51 78.5q2 12 2 22q0 14 -5.5 29.5t-21.5 26.5t-39.5 15.5t-51.5 4.5h-101zM186 468l-29 -162h116q52 0 86.5 -11.5t53.5 -32t23 -41t4 -35.5q0 -16 -4.5 -40t-21.5 -52t-44 -49t-63.5 -33t-82.5 -12h-188l82 468h68z" glyph-name="u044C" unicode="ь" horiz-adv-x="505"/>
<glyph d="M134 341l-42 42q35 40 88 68.5t131 28.5q55 0 96 -18.5t65.5 -51.5t30.5 -66t6 -56q0 -26 -7 -66.5t-33.5 -85.5t-65 -78t-86 -51.5t-99.5 -18.5q-58 0 -104.5 23t-78.5 76l58 40q14 -32 48.5 -56.5t87.5 -24.5q36 0 70 13.5t61.5 36.5t47 54t26.5 66h-265l9 54h264 q1 9 1 17q0 21 -6.5 44.5t-24.5 45t-46 34t-66 12.5q-57 0 -99.5 -24.5t-66.5 -57.5z" glyph-name="u044D" unicode="э" horiz-adv-x="592"/>
<glyph d="M669 274q0 32 -10 59.5t-29.5 47.5t-47.5 31.5t-63 11.5q-44 0 -81 -18.5t-64 -50t-42.5 -73t-15.5 -87.5q0 -32 10 -59.5t29.5 -47.5t47 -31.5t62.5 -11.5q45 0 82.5 18.5t64.5 49.5t42 72.5t15 88.5zM461 -12q-47 0 -87 15t-68.5 41.5t-44.5 64t-16 82.5v15.5t1 15.5 h-103l-39 -222h-68l82 468h68l-33 -189h105q13 43 37.5 80t58.5 64t77 42t92 15q48 0 87.5 -14.5t68 -41.5t44.5 -64t16 -82q0 -60 -20.5 -113t-57.5 -92t-88 -62t-112 -23z" glyph-name="u044E" unicode="ю" horiz-adv-x="830"/>
</font>
</defs>
</svg>
