<?xml version="1.0" encoding="UTF-8" standalone="no"?>
<!DOCTYPE svg  PUBLIC '-//W3C//DTD SVG 1.1//EN'  'http://www.w3.org/Graphics/SVG/1.1/DTD/svg11.dtd'>
<svg xmlns="http://www.w3.org/2000/svg" version="1.1">
<defs>
<font id="AvenirNext-MediumItalic" horiz-adv-x="0">
<font-face font-family="Avenir Next Medium" x-height="474" descent="-200" unicode-range="U+000D-FE48" underline-position="-150" font-style="italic" font-weight="500" units-per-em="1000" underline-thickness="50" bbox="-418 -427 1422 1199" ascent="800" cap-height="708" panose-1="2 11 6 3 2 2 2 9 2 4"/>
<missing-glyph d="M512 718v-718h-512v718h512zM462 50v617h-412v-617h412zM225 234l-2 17q0 56 13 81q7 13 18 27.5t28 31.5q16 15 26 26.5t15 21t7 18t2 17.5q0 36 -22.5 60.5t-53.5 24.5t-53.5 -22t-28.5 -73l-50 8q7 72 44 104.5t91 32.5t89 -35.5t35 -95.5q0 -32 -12.5 -58.5 t-50.5 -61.5q-37 -33 -43 -52q-6 -20 -6 -72h-46zM222 117v67h56v-67h-56z" horiz-adv-x="512"/>
<glyph d="M340 155q5 -36 29 -61.5t65 -25.5q34 0 56.5 12t37 33t23 49t13.5 59l86 487h98l-87 -492q-6 -38 -18.5 -79t-37.5 -75.5t-65 -57t-103 -22.5q-41 0 -73.5 11t-56 31t-38 46.5t-18.5 58.5zM130 0h-98l125 708h98z" unicode="IJ" glyph-name="IJ" horiz-adv-x="759"/>
<glyph d="M502 647q0 -25 -17 -43t-42 -18q-24 0 -41.5 15t-17.5 42t18.5 44.5t42.5 17.5t40.5 -16t16.5 -42zM158 -155q18 -5 37 -5q21 0 35 8t23 21.5t14 32t9 39.5l94 533h93l-95 -536q-6 -35 -16.5 -67.5t-30 -57t-50.5 -39t-77 -14.5q-13 0 -28.5 2t-26.5 4zM245 647 q0 -25 -17 -43t-42 -18q-24 0 -41.5 15t-17.5 42t18.5 44.5t42.5 17.5t40.5 -16t16.5 -42zM121 0h-92l83 474h93z" unicode="ij" glyph-name="ij" horiz-adv-x="516"/>
<glyph d="M117 518h-77l104 190h93zM216 474q-2 -14 -4.5 -37.5t-5.5 -39.5h2q26 41 66.5 65.5t91.5 24.5q78 0 118.5 -41.5t40.5 -104.5q0 -25 -4 -48l-52 -293h-93l46 262q6 27 6 53q0 41 -20 67t-72 26q-56 0 -97 -42.5t-54 -113.5l-44 -252h-93l65 371q4 19 8.5 49t6.5 54h88z " unicode='&quot;n' glyph-name="napostrophe" horiz-adv-x="601"/>
<glyph d="M380 681q-10 3 -20.5 5t-23.5 2q-24 0 -41 -9.5t-28.5 -25.5t-18 -36.5t-10.5 -42.5l-18 -100h113l-14 -75h-111l-70 -399h-91l71 399h-96l14 75h93l18 100q7 37 20.5 72t37 62t57.5 43.5t81 16.5q32 0 57 -7zM435 0h-92l83 474h93zM559 647q0 -24 -17 -42.5t-42 -18.5 q-24 0 -41.5 15t-17.5 42q0 26 18.5 44t42.5 18q23 0 40 -16t17 -42z" unicode="fi" glyph-name="fi" horiz-adv-x="573"/>
<glyph d="M319 399h-111l-70 -399h-91l70 399h-95l14 75h93l18 100q7 37 20.5 72t37 62t57.5 43.5t81 16.5q33 0 57 -7l-20 -80q-10 3 -20.5 5t-23.5 2q-24 0 -41 -9.5t-28.5 -25.5t-18 -37t-10.5 -43l-18 -99h113zM435 0h-92l133 756h92z" unicode="fl" glyph-name="fl" horiz-adv-x="572"/>
<glyph d="M512 718v-718h-512v718h512zM462 50v617h-412v-617h412zM225 234l-2 17q0 56 13 81q7 13 18 27.5t28 31.5q16 15 26 26.5t15 21t7 18t2 17.5q0 36 -22.5 60.5t-53.5 24.5t-53.5 -22t-28.5 -73l-50 8q7 72 44 104.5t91 32.5t89 -35.5t35 -95.5q0 -32 -12.5 -58.5 t-50.5 -61.5q-37 -33 -43 -52q-6 -20 -6 -72h-46zM222 117v67h56v-67h-56z" glyph-name=".notdef" horiz-adv-x="512"/>
<glyph glyph-name=".null" horiz-adv-x="500"/>
<glyph glyph-name=".null" horiz-adv-x="500"/>
<glyph unicode="" glyph-name="nonmarkingreturn"/>
<glyph unicode=" " glyph-name="space" horiz-adv-x="250"/>
<glyph d="M170 61q0 -26 -19 -46t-45 -20t-45 16.5t-19 45.5t20 47.5t46 18.5t44 -16.5t18 -45.5zM173 207h-95l89 501h95z" unicode="!" glyph-name="exclam" horiz-adv-x="287"/>
<glyph d="M189 459h-81l45 249h80zM349 459h-80l44 249h80z" unicode='&quot;' glyph-name="quotedbl" horiz-adv-x="425"/>
<glyph d="M216 283h119l45 143h-119zM120 211h-96l13 72h105l45 143h-98l12 72h109l67 210h74l-67 -210h118l67 210h74l-67 -210h90l-12 -72h-101l-45 -143h93l-12 -72h-102l-68 -211h-74l68 211h-119l-67 -211h-74z" unicode="#" glyph-name="numbersign" horiz-adv-x="573"/>
<glyph d="M407 198q0 44 -25.5 69t-64.5 42l-42 -240q58 3 95 38.5t37 90.5zM329 639q-25 -2 -48 -10t-41 -23t-28.5 -37t-10.5 -52q0 -41 23 -64t65 -39zM485 580q-16 23 -43.5 40t-65.5 19l-43 -240q36 -14 67 -31t54 -39.5t36 -51.5t13 -68q0 -40 -14.5 -78t-44.5 -68t-75.5 -50 t-107.5 -24l-13 -73h-46l13 73q-60 3 -115.5 29.5t-85.5 76.5l79 54q18 -32 54.5 -55t81.5 -25l45 255q-32 11 -62.5 26t-53.5 37t-37 51t-14 67q0 44 16 82.5t46 67t74 46t100 19.5l13 72h46l-13 -72q57 -5 101 -26.5t70 -56.5z" unicode="$" glyph-name="dollar" horiz-adv-x="595"/>
<glyph d="M180 -40l-60 42l564 739l59 -42zM724 182q0 32 -20.5 54.5t-55.5 22.5q-45 0 -73.5 -32t-28.5 -80q0 -32 19.5 -54t54.5 -22q46 0 75 32t29 79zM813 196q0 -44 -15 -81.5t-41.5 -66t-63 -44.5t-80.5 -16q-34 0 -63 11t-50 31t-33 47t-12 60q0 43 15 80t42 65t64 44t81 16 q34 0 63 -10.5t49.5 -30t32 -46t11.5 -59.5zM326 560q0 32 -20.5 54.5t-55.5 22.5q-45 0 -73.5 -32t-28.5 -80q0 -32 19.5 -54t54.5 -22q46 0 75 32t29 79zM415 574q0 -44 -15 -81.5t-41.5 -66t-63 -44.5t-80.5 -16q-34 0 -63 11t-50 31t-33 47t-12 60q0 43 15 80t42 65 t64 44t81 16q34 0 63 -10.5t49.5 -30t32 -46t11.5 -59.5z" unicode="%" glyph-name="percent" horiz-adv-x="868"/>
<glyph d="M268 335q-29 -11 -55 -25.5t-46 -33.5t-31.5 -43.5t-11.5 -56.5q0 -24 9.5 -44t25.5 -34t37.5 -21.5t46.5 -7.5q49 0 87.5 23.5t75.5 68.5zM441 565q0 38 -21.5 61.5t-59.5 23.5q-45 0 -72.5 -30t-27.5 -76q0 -32 14 -63t32 -51q28 11 52.5 25t43 30.5t29 36.5t10.5 43z M517 168l139 -168h-119l-75 97q-55 -59 -109.5 -84.5t-116.5 -25.5q-46 0 -85 11.5t-67 34.5t-43.5 57t-15.5 80q0 44 17.5 80t45 63.5t63 48.5t71.5 35q-23 30 -36.5 66.5t-13.5 74.5q0 42 14 76.5t39 59.5t59.5 38.5t74.5 13.5q37 0 68.5 -10.5t55 -30.5t36.5 -49t13 -66 q0 -34 -13.5 -63t-38 -53t-58.5 -44.5t-74 -37.5l114 -142l105 149h113z" unicode="&amp;" glyph-name="ampersand" horiz-adv-x="722"/>
<glyph d="M152 708h81l-44 -249h-81z" unicode="&apos;" glyph-name="quotesingle" horiz-adv-x="265"/>
<glyph d="M104 172q0 -81 17.5 -156.5t50.5 -136.5l-71 -35q-38 65 -59.5 150t-21.5 177q0 154 62.5 298t173.5 264l59 -43q-49 -55 -88 -117.5t-66.5 -129t-42 -135.5t-14.5 -136z" unicode="(" glyph-name="parenleft" horiz-adv-x="315"/>
<glyph d="M209 405q0 81 -18 156.5t-50 136.5l71 35q38 -65 59.5 -150t21.5 -177q0 -154 -62.5 -298t-173.5 -264l-59 43q49 55 88 117.5t66.5 129t42 135.5t14.5 136z" unicode=")" glyph-name="parenright" horiz-adv-x="315"/>
<glyph d="M431 620l27 -76l-127 -41l81 -109l-64 -48l-84 113l-84 -113l-64 48l81 109l-127 41l27 76l127 -41v129h80v-129z" unicode="*" glyph-name="asterisk" horiz-adv-x="453"/>
<glyph d="M374 344h222v-82h-222v-222h-82v222h-222v82h222v222h82v-222z" unicode="+" glyph-name="plus" horiz-adv-x="666"/>
<glyph d="M36 -133h-79l113 249h93z" unicode="," glyph-name="comma" horiz-adv-x="260"/>
<glyph d="M258 205h-232l14 79h232z" unicode="-" glyph-name="hyphen" horiz-adv-x="320"/>
<glyph d="M145 61q0 -26 -18.5 -46t-45.5 -20q-26 0 -44.5 16.5t-18.5 45.5t20 47.5t46 18.5t43.5 -16.5t17.5 -45.5z" unicode="." glyph-name="period" horiz-adv-x="260"/>
<glyph d="M9 -33l-66 25l440 749l64 -25z" unicode="/" glyph-name="slash" horiz-adv-x="379"/>
<glyph d="M355 646q-45 0 -83 -36t-65 -94.5t-42 -132t-15 -148.5q0 -35 5.5 -66t18 -54.5t33.5 -37.5t51 -14q45 0 82 36t63.5 94t41.5 131.5t15 148.5q0 35 -5 66.5t-17.5 55t-32.5 37.5t-50 14zM363 726q53 0 90 -19.5t60.5 -52.5t34.5 -77.5t11 -93.5q0 -51 -7 -108 t-22.5 -112.5t-39.5 -106.5t-58 -89.5t-79 -61.5t-102 -23q-53 0 -90.5 19t-61.5 51t-35 75.5t-11 93.5q0 52 7 109.5t22.5 113.5t40 107t59 90t79.5 62t102 23z" unicode="0" glyph-name="zero" horiz-adv-x="595"/>
<glyph d="M324 0h-95l105 593l-155 -113l-45 71l225 157h90z" unicode="1" glyph-name="one" horiz-adv-x="595"/>
<glyph d="M469 0h-461l16 92l327 279q55 46 81.5 84.5t26.5 85.5q0 49 -32.5 76.5t-83.5 27.5q-57 0 -94.5 -32.5t-53.5 -85.5l-88 22q28 83 91 130t150 47q45 0 83 -12.5t66 -35.5t43.5 -56t15.5 -74t-10.5 -73t-30 -60t-48.5 -55t-65 -57l-259 -217h341z" unicode="2" glyph-name="two" horiz-adv-x="595"/>
<glyph d="M231 409h33q88 0 132 36t44 104q0 45 -30 71t-78 26q-91 0 -136 -83l-74 43q38 61 93 90.5t124 29.5q40 0 75.5 -11.5t62.5 -34t42.5 -55t15.5 -74.5q0 -72 -41 -118t-108 -63v-2q51 -12 83.5 -52.5t32.5 -96.5q0 -54 -18.5 -97.5t-52.5 -74.5t-81 -48t-104 -17 q-83 0 -141.5 40t-80.5 111l91 30q11 -48 48.5 -73.5t88.5 -25.5q71 0 111.5 39.5t40.5 105.5q0 33 -12.5 56t-33.5 38t-49.5 21.5t-60.5 6.5h-31z" unicode="3" glyph-name="three" horiz-adv-x="595"/>
<glyph d="M412 605h-3l-291 -363h229zM438 242h103l-15 -83h-101l-27 -159h-92l27 159h-327l16 92l375 457h124z" unicode="4" glyph-name="four" horiz-adv-x="595"/>
<glyph d="M526 624h-275l-39 -187q18 6 39.5 9t43.5 3q42 0 80 -13t67.5 -38.5t47 -62.5t17.5 -86q0 -60 -19.5 -109.5t-55 -84.5t-84.5 -54t-108 -19q-83 0 -140.5 39t-78.5 97l87 36q14 -41 48.5 -65.5t82.5 -24.5q41 0 72.5 13t53 36.5t32.5 54.5t11 67q0 33 -11.5 58.5 t-31 43.5t-46 27t-57.5 9q-38 0 -80.5 -11.5t-75.5 -30.5l75 377h361z" unicode="5" glyph-name="five" horiz-adv-x="595"/>
<glyph d="M423 233q0 28 -9.5 51.5t-26 40.5t-39 26.5t-49.5 9.5q-39 0 -71 -13t-55 -36t-35.5 -54.5t-12.5 -67.5q0 -28 10 -51.5t27.5 -41t41 -27t51.5 -9.5q39 0 70 13t52.5 36t33.5 54.5t12 68.5zM519 241q0 -55 -19 -102t-53.5 -82t-84 -55t-110.5 -20q-48 0 -89 15t-71 42.5 t-46.5 66t-16.5 84.5q0 53 24.5 105.5t76.5 115.5l241 297h115l-243 -288l1 -3q14 8 32.5 12.5t38.5 4.5q47 0 85 -15t64.5 -41t40.5 -61t14 -76z" unicode="6" glyph-name="six" horiz-adv-x="595"/>
<glyph d="M570 621l-404 -621h-116l418 623h-343l15 85h445z" unicode="7" glyph-name="seven" horiz-adv-x="595"/>
<glyph d="M423 218q0 51 -33 83.5t-87 32.5q-36 0 -66 -11.5t-52 -32.5t-34.5 -49t-12.5 -61q0 -57 35.5 -87.5t87.5 -30.5q39 0 69 12t50.5 33t31.5 49.5t11 61.5zM458 542q0 51 -30 77.5t-79 26.5q-29 0 -53 -10.5t-41 -28.5t-26.5 -41.5t-9.5 -50.5q0 -42 28 -71.5t76 -29.5 q29 0 54 10.5t43 28.5t28 41t10 48zM549 556q0 -38 -12 -68t-32 -53t-45.5 -39t-53.5 -25l1 -2q47 -14 78 -54t31 -95q0 -57 -21 -101t-56 -74.5t-82.5 -46.5t-99.5 -16q-39 0 -77 11t-68 34t-48.5 58.5t-18.5 85.5q0 42 14 76.5t38 61.5t55 44.5t66 24.5v3q-39 17 -63.5 52 t-24.5 81q0 49 18 88.5t49 67t72 42t87 14.5q39 0 74 -10.5t61.5 -31.5t42 -53t15.5 -75z" unicode="8" glyph-name="eight" horiz-adv-x="595"/>
<glyph d="M486 518q0 28 -10 51.5t-27.5 41t-41.5 27t-52 9.5q-39 0 -70 -13t-53 -36t-34 -54.5t-12 -68.5q0 -28 9.5 -51.5t26 -40.5t39.5 -26.5t50 -9.5q39 0 71 13t55 36t36 54.5t13 67.5zM581 518q0 -53 -24.5 -105.5t-76.5 -115.5l-241 -297h-115l243 288l-1 3q-7 -4 -15.5 -7 t-17.5 -5q-20 -5 -38 -5q-47 0 -85 15t-64.5 41t-40.5 61t-14 76q0 55 19 102t53.5 82t84 55t110.5 20q48 0 89 -15t71 -42.5t46.5 -66t16.5 -84.5z" unicode="9" glyph-name="nine" horiz-adv-x="595"/>
<glyph d="M227 417q0 -26 -18.5 -46t-45.5 -20q-26 0 -44.5 16.5t-18.5 45.5t20 48t46 19t43.5 -17t17.5 -46zM170 61q0 -26 -19 -46t-45 -20t-45 16.5t-19 45.5t20 47.5t46 18.5t44 -16.5t18 -45.5z" unicode=":" glyph-name="colon" horiz-adv-x="300"/>
<glyph d="M227 417q0 -26 -18.5 -46t-45.5 -20q-26 0 -44.5 16.5t-18.5 45.5t20 48t46 19t43.5 -17t17.5 -46zM53 -133h-82l112 249h97z" unicode=";" glyph-name="semicolon" horiz-adv-x="300"/>
<glyph d="M589 479l-385 -176l383 -176v-85l-508 231v60l510 231v-85z" unicode="&lt;" glyph-name="less" horiz-adv-x="666"/>
<glyph d="M596 261v-81h-526v81h526zM596 426v-81h-526v81h526z" unicode="=" glyph-name="equal" horiz-adv-x="666"/>
<glyph d="M79 564l508 -231v-60l-508 -231v85l383 176l-383 176v85z" unicode="&gt;" glyph-name="greater" horiz-adv-x="666"/>
<glyph d="M286 61q0 -26 -19 -46t-45 -20t-44.5 16.5t-18.5 45.5t19.5 47.5t45.5 18.5t44 -16.5t18 -45.5zM281 200h-92l8 49q8 53 32 86t64 64l43 34q29 22 52 48.5t23 67.5q0 42 -25.5 65.5t-70.5 23.5q-56 0 -89 -33t-43 -78l-89 16q9 39 29.5 72t50.5 57t67.5 37.5t80.5 13.5 q38 0 72 -9.5t59.5 -29.5t40.5 -52.5t15 -77.5q0 -62 -33.5 -105t-91.5 -83q-23 -17 -40 -30.5t-28.5 -28t-18.5 -32t-11 -42.5z" unicode="?" glyph-name="question" horiz-adv-x="500"/>
<glyph d="M503 411q0 28 -13 48t-49 20q-26 0 -50.5 -15t-44 -40.5t-31.5 -58t-12 -68.5q0 -25 12.5 -46t47.5 -21q30 0 55.5 17t44 43t29.5 58.5t11 62.5zM788 449q0 -58 -16.5 -110.5t-46.5 -92t-72.5 -63t-94.5 -23.5q-43 0 -62.5 19t-19.5 40q0 6 1 12h-4q-8 -12 -20.5 -24.5 t-29 -23t-36.5 -17t-42 -6.5q-63 0 -95.5 33.5t-32.5 89.5q0 41 15.5 87.5t45 86.5t72.5 66t98 26q38 0 65.5 -16.5t32.5 -41.5h2l17 43h75l-73 -187q-3 -7 -6.5 -17.5t-7.5 -22t-6.5 -23t-2.5 -18.5q0 -20 8 -29t29 -9q28 0 52 18.5t41 49t27 68.5t10 77q0 51 -18 90.5 t-50 67.5t-76.5 42.5t-97.5 14.5q-78 0 -142 -29t-109.5 -78.5t-71 -115.5t-25.5 -139q0 -56 19 -101t54.5 -76.5t85 -48.5t111.5 -17q80 0 144 26t120 73l36 -53q-62 -57 -140.5 -86t-169.5 -29q-81 0 -145.5 23t-108.5 64t-67.5 97.5t-23.5 124.5q0 88 32.5 167.5 t90 138.5t137 94t174.5 35q70 0 128.5 -18.5t100.5 -54t65.5 -87t23.5 -117.5z" unicode="@" glyph-name="at" horiz-adv-x="800"/>
<glyph d="M206 261h267l-60 336zM47 0h-115l459 708h89l144 -708h-103l-34 174h-332z" unicode="A" glyph-name="A" horiz-adv-x="681"/>
<glyph d="M143 83h129q38 0 73 7.5t62 24t43 43.5t16 66q0 48 -36.5 75t-103.5 27h-140zM200 408h137q25 0 51.5 6.5t49 21t37 38t14.5 58.5q0 25 -10 43t-27.5 29t-41.5 16.5t-52 5.5h-119zM157 708h226q37 0 73.5 -8t66 -26.5t48 -48t18.5 -72.5q0 -71 -43 -117.5t-113 -63.5v-2 q58 -9 95 -48.5t37 -102.5q0 -54 -22.5 -95t-62.5 -68.5t-95.5 -41.5t-121.5 -14h-231z" unicode="B" glyph-name="B" horiz-adv-x="633"/>
<glyph d="M652 111q-21 -27 -49 -50.5t-63 -41t-77.5 -27.5t-92.5 -10q-71 0 -129.5 22t-100 62t-64.5 96t-23 124q0 92 32.5 172t89.5 139.5t133.5 94t164.5 34.5q39 0 75.5 -8t67.5 -22.5t56 -34.5t40 -45l-81 -59q-8 15 -22 30t-34.5 27.5t-46.5 20t-58 7.5q-69 0 -127 -29.5 t-100 -77.5t-65 -110t-23 -127q0 -48 14.5 -90t43 -73.5t70.5 -49.5t96 -18q59 0 112 24t95 75z" unicode="C" glyph-name="C" horiz-adv-x="700"/>
<glyph d="M144 86h145q80 0 140.5 26.5t101.5 70.5t61.5 100.5t20.5 116.5q0 46 -15 86.5t-45.5 71t-78 48.5t-112.5 18h-123zM157 708h229q60 0 119 -16.5t106 -52t76 -92t29 -135.5q0 -93 -32.5 -169t-90.5 -130t-137 -83.5t-172 -29.5h-252z" unicode="D" glyph-name="D" horiz-adv-x="757"/>
<glyph d="M144 87h367l-15 -87h-464l125 708h436l-15 -86h-340l-37 -214h324l-15 -83h-324z" unicode="E" glyph-name="E" horiz-adv-x="582"/>
<glyph d="M130 0h-98l125 708h428l-15 -86h-330l-40 -221h309l-14 -83h-309z" unicode="F" glyph-name="F" horiz-adv-x="553"/>
<glyph d="M387 67q99 1 164 38l35 198h-160l16 84h254l-60 -343q-58 -31 -124.5 -46.5t-136.5 -15.5q-72 0 -131.5 22t-102 62t-65.5 96t-23 124q0 92 32.5 172t89.5 139.5t133.5 94t164.5 34.5q78 0 143.5 -28t100.5 -82l-81 -59q-20 33 -61 59t-105 26q-69 0 -127 -29.5 t-100 -77.5t-65 -110t-23 -127q0 -49 15.5 -91.5t45 -73.5t72.5 -48.5t99 -17.5z" unicode="G" glyph-name="G" horiz-adv-x="755"/>
<glyph d="M157 708h98l-53 -297h350l53 297h98l-125 -708h-98l57 325h-350l-57 -325h-98z" unicode="H" glyph-name="H" horiz-adv-x="719"/>
<glyph d="M130 0h-98l125 708h98z" unicode="I" glyph-name="I" horiz-adv-x="271"/>
<glyph d="M72 155q5 -36 29 -61.5t65 -25.5q34 0 56.5 12t37 33t23 49t13.5 59l86 487h98l-87 -492q-6 -38 -18.5 -79t-37.5 -75.5t-65 -57t-103 -22.5q-41 0 -73.5 11t-56 31t-38 46.5t-18.5 58.5z" unicode="J" glyph-name="J" horiz-adv-x="491"/>
<glyph d="M198 392h2l339 316h136l-377 -331l285 -377h-127l-261 366h-2l-64 -366h-97l125 708h97z" unicode="K" glyph-name="K" horiz-adv-x="621"/>
<glyph d="M144 87h317l-14 -87h-415l125 708h98z" unicode="L" glyph-name="L" horiz-adv-x="511"/>
<glyph d="M423 162h1l310 546h152l-124 -708h-97l105 591h-3l-341 -591h-62l-131 591h-2l-105 -591h-94l125 708h151z" unicode="M" glyph-name="M" horiz-adv-x="903"/>
<glyph d="M541 138h2l100 570h98l-125 -708h-122l-260 582h-2l-103 -582h-97l125 708h125z" unicode="N" glyph-name="N" horiz-adv-x="768"/>
<glyph d="M688 412q0 48 -15 89.5t-44 73t-71.5 49.5t-97.5 18q-69 0 -125.5 -29.5t-96.5 -78t-61.5 -110.5t-21.5 -127q0 -47 15 -89t43.5 -73.5t71 -49.5t98.5 -18q70 0 126.5 29t96 77.5t61 110.5t21.5 128zM381 -18q-74 0 -134.5 21.5t-103.5 61.5t-66.5 96.5t-23.5 126.5 q0 91 31.5 170.5t87 139t130.5 94t163 34.5q72 0 132 -21.5t103 -61.5t66.5 -96t23.5 -126q0 -91 -30.5 -171t-85.5 -139.5t-130 -94t-163 -34.5z" unicode="O" glyph-name="O" horiz-adv-x="831"/>
<glyph d="M198 393h112q82 0 131 30t49 96q0 30 -10.5 50.5t-29.5 33t-45.5 17.5t-58.5 5h-106zM157 708h202q110 0 169.5 -47t59.5 -131q0 -56 -20.5 -97.5t-58 -68.5t-89.5 -40t-115 -13h-121l-55 -311h-97z" unicode="P" glyph-name="P" horiz-adv-x="595"/>
<glyph d="M679 414q0 48 -14.5 89.5t-43 72.5t-69.5 48.5t-95 17.5q-69 0 -124.5 -28.5t-95.5 -75.5t-61.5 -106.5t-21.5 -122.5q0 -50 15.5 -91t45.5 -70.5t73 -46t97 -16.5q61 0 114.5 27t93.5 72t63 104.5t23 125.5zM780 427q0 -69 -17 -124.5t-44 -98t-61 -72t-68 -47.5v-3h189 l-15 -82h-383q-70 0 -130 19.5t-103.5 57t-68.5 93t-25 127.5q0 90 31 168t85.5 136t128.5 91.5t160 33.5q71 0 130 -21t101.5 -60t66 -94.5t23.5 -123.5z" unicode="Q" glyph-name="Q" horiz-adv-x="827"/>
<glyph d="M198 397h109q38 0 71.5 6t58 20.5t39 38t14.5 59.5q0 56 -39.5 80t-107.5 24h-104zM129 0h-97l125 708h201q52 0 95 -11.5t73.5 -34t47 -55t16.5 -75.5q0 -46 -15 -81t-41 -60.5t-62 -41.5t-79 -23l151 -326h-110l-141 316h-109z" unicode="R" glyph-name="R" horiz-adv-x="612"/>
<glyph d="M481 580q-20 29 -54 46.5t-77 17.5q-25 0 -51.5 -7t-49 -22.5t-37 -39.5t-14.5 -57q0 -23 8.5 -40t23.5 -30t36 -23.5t46 -19.5q39 -14 72.5 -31.5t59 -41t40 -54t14.5 -70.5q0 -49 -18.5 -90.5t-53 -71.5t-83.5 -47t-110 -17q-34 0 -67.5 7t-64.5 20.5t-56.5 34 t-42.5 48.5l82 55q20 -35 60.5 -58.5t92.5 -23.5q30 0 58.5 8.5t50.5 25t35.5 41t13.5 57.5q0 27 -11 47t-30 35t-44 26.5t-53 21.5q-31 12 -60 27t-51 36t-35 50t-13 69q0 49 19.5 89.5t54.5 68.5t83 43.5t104 15.5q62 0 115.5 -23t82.5 -65z" unicode="S" glyph-name="S" horiz-adv-x="569"/>
<glyph d="M260 0h-98l110 622h-224l15 86h544l-15 -86h-222z" unicode="T" glyph-name="T" horiz-adv-x="535"/>
<glyph d="M317 -18q-63 0 -109.5 17t-77.5 47t-46.5 69.5t-15.5 84.5q0 30 6 62l78 446h98l-78 -440q-5 -28 -5 -53q0 -30 8 -56.5t26.5 -47t47.5 -32.5t71 -12q52 0 88 17t60 45.5t37.5 64.5t20.5 74l77 440h98l-78 -446q-10 -54 -31.5 -104.5t-58 -89.5t-90 -62.5t-126.5 -23.5z " unicode="U" glyph-name="U" horiz-adv-x="712"/>
<glyph d="M260 127h3l343 581h107l-431 -708h-93l-113 708h104z" unicode="V" glyph-name="V" horiz-adv-x="628"/>
<glyph d="M233 142h2l275 566h108l57 -566h2l267 566h104l-344 -708h-102l-61 572h-2l-283 -572h-103l-69 708h103z" unicode="W" glyph-name="W" horiz-adv-x="982"/>
<glyph d="M332 441l226 267h121l-302 -342l173 -366h-113l-132 297l-252 -297h-127l334 375l-156 333h111z" unicode="X" glyph-name="X" horiz-adv-x="622"/>
<glyph d="M268 0h-98l54 306l-178 402h111l130 -322l259 322h120l-344 -402z" unicode="Y" glyph-name="Y" horiz-adv-x="560"/>
<glyph d="M601 622l-490 -535h403l-15 -87h-532l15 86l493 536h-367l15 86h494z" unicode="Z" glyph-name="Z" horiz-adv-x="580"/>
<glyph d="M299 666h-93l-133 -756h93l-12 -66h-177l157 888h177z" unicode="[" glyph-name="bracketleft" horiz-adv-x="315"/>
<glyph d="M4 716l70 26l308 -751l-71 -24z" unicode="\" glyph-name="backslash" horiz-adv-x="380"/>
<glyph d="M9 -90h93l134 756h-93l11 66h177l-157 -888h-177z" unicode="]" glyph-name="bracketright" horiz-adv-x="315"/>
<glyph d="M300 708h66l226 -399h-91l-169 300l-167 -300h-91z" unicode="^" glyph-name="asciicircum" horiz-adv-x="666"/>
<glyph d="M-67 -75h500l-9 -50h-500z" unicode="_" glyph-name="underscore" horiz-adv-x="500"/>
<glyph d="M19 708h110l100 -144h-73z" unicode="`" glyph-name="grave" horiz-adv-x="250"/>
<glyph d="M345 228q-39 0 -81 -3.5t-76.5 -14t-56.5 -30.5t-22 -52q0 -20 7.5 -32.5t20 -20.5t28 -11t31.5 -3q31 0 58 10.5t47 28.5t33.5 42t18.5 51l7 35h-15zM370 296q2 14 3 22t1 15q0 42 -26 60.5t-74 18.5q-38 0 -76 -15t-66 -37l-38 62q38 30 89 47.5t104 17.5 q34 0 65.5 -7.5t56 -24t39.5 -43.5t15 -65q0 -9 -1 -23.5t-3 -24.5l-35 -192q-5 -28 -8 -57.5t-3 -49.5h-85q0 15 1.5 32t4.5 34h-2q-34 -40 -74 -58t-94 -18q-24 0 -50 6t-47.5 20.5t-35.5 38.5t-14 60q0 58 32 93.5t82.5 55t113.5 26t125 6.5z" unicode="a" glyph-name="a" horiz-adv-x="537"/>
<glyph d="M477 273q0 58 -34 97.5t-98 39.5q-40 0 -74 -16.5t-59.5 -45t-40 -66.5t-14.5 -80q0 -30 9.5 -55.5t27.5 -43.5t43 -28.5t56 -10.5q42 0 76 16.5t58 44.5t37 66t13 82zM133 80l-14 -80h-89l133 756h93l-65 -358h2q26 38 71.5 63.5t100.5 25.5q47 0 85 -15t65 -42 t42 -64.5t15 -83.5q0 -61 -20 -114.5t-56 -93.5t-85.5 -63t-107.5 -23q-52 0 -98.5 23.5t-69.5 68.5h-2z" unicode="b" glyph-name="b" horiz-adv-x="633"/>
<glyph d="M419 353q-12 24 -40.5 40.5t-63.5 16.5q-41 0 -75.5 -16.5t-59.5 -45t-39 -66t-14 -79.5q0 -29 8.5 -54t25.5 -43.5t42.5 -29.5t59.5 -11q45 0 76 16t54 41l56 -52q-38 -38 -84.5 -60.5t-107.5 -22.5q-51 0 -92.5 15t-70.5 42t-45 64.5t-16 83.5q0 59 20.5 112.5t58 94 t90.5 64.5t118 24q26 0 51.5 -5t48 -14.5t41 -24.5t30.5 -36z" unicode="c" glyph-name="c" horiz-adv-x="496"/>
<glyph d="M126 202q0 -58 34 -97.5t98 -39.5q39 0 73.5 16.5t60 45t40 66.5t14.5 80q0 30 -9.5 55.5t-27.5 43.5t-43 28.5t-56 10.5q-42 0 -76 -16.5t-58 -44.5t-37 -66.5t-13 -81.5zM30 193q0 61 20 114.5t56 93.5t85.5 63t108.5 23q58 0 100.5 -24t64.5 -67h2l63 360h93 l-134 -756h-90l13 76h-2q-26 -39 -72 -63.5t-101 -24.5q-47 0 -85 15t-65 42t-42 64.5t-15 83.5z" unicode="d" glyph-name="d" horiz-adv-x="628"/>
<glyph d="M415 277q1 7 1.5 15t0.5 15q0 46 -30 76.5t-87 30.5q-34 0 -62 -12t-49.5 -31t-36 -44t-20.5 -50h283zM122 209q-1 -5 -1 -8.5v-7.5q0 -28 10.5 -51.5t29 -41t44 -27t54.5 -9.5q51 0 87.5 20.5t61.5 51.5l55 -52q-42 -48 -96 -72.5t-117 -24.5q-47 0 -87.5 14t-70 41 t-46 66t-16.5 89q0 59 21 112t58 92.5t88 62.5t110 23q91 0 144 -49.5t53 -138.5q0 -14 -2.5 -40.5t-7.5 -49.5h-372z" unicode="e" glyph-name="e" horiz-adv-x="565"/>
<glyph d="M319 399h-111l-70 -399h-91l70 399h-95l14 75h93l18 100q7 37 20.5 72t37 62t57.5 43.5t81 16.5q33 0 57 -7l-20 -80q-10 3 -20.5 5t-23.5 2q-24 0 -41 -9.5t-28.5 -25.5t-18 -37t-10.5 -43l-18 -99h113z" unicode="f" glyph-name="f" horiz-adv-x="309"/>
<glyph d="M134 208q0 -29 9 -53.5t26 -43.5t42 -29.5t57 -10.5q40 0 74 16.5t59 44t39 64.5t14 78q0 59 -36.5 98t-99.5 39q-41 0 -75 -15.5t-58 -42.5t-37.5 -64t-13.5 -81zM51 -83q26 -35 69.5 -55.5t93.5 -20.5q47 0 80 13.5t55.5 37t35.5 55.5t21 69l12 63h-2 q-29 -39 -73 -61.5t-98 -22.5q-47 0 -85 15.5t-65 42.5t-41.5 65t-14.5 83q0 59 20 111t56 91t85 61.5t108 22.5q58 0 101 -24t62 -66h3l13 77h90l-79 -451q-9 -51 -26.5 -98.5t-50 -84t-83 -58.5t-125.5 -22q-64 0 -125.5 23.5t-98.5 66.5z" unicode="g" glyph-name="g" horiz-adv-x="630"/>
<glyph d="M347 487q78 0 118 -41.5t40 -104.5q0 -25 -4 -48l-52 -293h-93l46 262q6 27 6 53q0 41 -20 67t-72 26q-57 0 -97.5 -42.5t-53.5 -114.5l-44 -251h-93l133 756h93l-62 -354h2q23 36 62.5 60.5t90.5 24.5z" unicode="h" glyph-name="h" horiz-adv-x="581"/>
<glyph d="M245 647q0 -25 -17 -43t-42 -18q-24 0 -41.5 15t-17.5 42t18.5 44.5t42.5 17.5t40.5 -16t16.5 -42zM121 0h-92l83 474h93z" unicode="i" glyph-name="i" horiz-adv-x="259"/>
<glyph d="M245 647q0 -25 -17 -43t-42 -18q-24 0 -41.5 15t-17.5 42t18.5 44.5t42.5 17.5t40.5 -16t16.5 -42zM-99 -155q18 -5 37 -5q21 0 35 8t23 21.5t14 32t9 39.5l94 533h93l-95 -536q-6 -35 -16.5 -67.5t-30 -57t-50.5 -39t-77 -14.5q-13 0 -28.5 2t-26.5 4z" unicode="j" glyph-name="j" horiz-adv-x="259"/>
<glyph d="M169 267h3l228 207h123l-256 -220l195 -254h-117l-177 246h-3l-43 -246h-93l133 756h93z" unicode="k" glyph-name="k" horiz-adv-x="504"/>
<glyph d="M122 0h-93l133 756h94z" unicode="l" glyph-name="l" horiz-adv-x="260"/>
<glyph d="M648 487q80 0 120.5 -41.5t40.5 -104.5q0 -12 -1.5 -23.5t-3.5 -24.5l-52 -293h-92l46 262q2 14 3.5 27t1.5 26q0 41 -20 67.5t-71 26.5q-33 0 -57.5 -13.5t-41.5 -35.5t-27.5 -49t-15.5 -55l-45 -256h-93l50 281q2 12 3.5 23t1.5 21q0 38 -19 61t-64 23q-26 0 -50 -11.5 t-43.5 -32t-33.5 -49.5t-20 -64l-44 -252h-93l65 371q4 19 8.5 49t6.5 54h88q-2 -14 -5 -38t-5 -39h2q25 38 63.5 64t91.5 26q49 0 87.5 -23.5t49.5 -73.5q29 46 71.5 71.5t96.5 25.5z" unicode="m" glyph-name="m" horiz-adv-x="884"/>
<glyph d="M196 474q-2 -14 -4.5 -37.5t-5.5 -39.5h2q26 41 66.5 65.5t91.5 24.5q78 0 118.5 -41.5t40.5 -104.5q0 -25 -4 -48l-52 -293h-93l46 262q6 27 6 53q0 41 -20 67t-72 26q-56 0 -97 -42.5t-54 -113.5l-44 -252h-93l65 371q4 19 8.5 49t6.5 54h88z" unicode="n" glyph-name="n" horiz-adv-x="581"/>
<glyph d="M445 273q0 29 -9.5 54t-27 43.5t-43 29t-56.5 10.5q-41 0 -75 -17t-58.5 -45.5t-38 -66t-13.5 -79.5q0 -60 36 -98.5t100 -38.5q41 0 75 16.5t58.5 45t38 66.5t13.5 80zM255 -13q-49 0 -90 15t-71 42.5t-47 65.5t-17 84q0 59 20.5 112t58 93.5t90 64t116.5 23.5 q49 0 90 -15t71 -42t46.5 -64.5t16.5 -83.5q0 -60 -20.5 -113.5t-58 -94t-89.5 -64t-116 -23.5z" unicode="o" glyph-name="o" horiz-adv-x="600"/>
<glyph d="M475 272q0 58 -34 97.5t-98 39.5q-39 0 -73.5 -16.5t-60 -45t-40 -66.5t-14.5 -80q0 -30 9.5 -55.5t27.5 -43.5t43.5 -28.5t56.5 -10.5q41 0 75 16.5t58 44.5t37 66t13 82zM191 398q26 38 72 63t101 25q47 0 85 -15t65 -42t42 -64.5t15 -83.5q0 -61 -20.5 -114.5 t-56.5 -93.5t-85.5 -63t-107.5 -23t-100.5 24t-64.5 66h-2l-55 -317h-93l126 714h90l-13 -76h2z" unicode="p" glyph-name="p" horiz-adv-x="632"/>
<glyph d="M126 202q0 -58 34 -97.5t98 -39.5q39 0 73.5 16.5t60 45t40 66.5t14.5 80q0 30 -9.5 55.5t-27.5 43.5t-43 28.5t-56 10.5q-42 0 -76 -16.5t-58 -44.5t-37 -66.5t-13 -81.5zM30 193q0 61 20 114.5t56 93.5t85.5 63t108.5 23q52 0 98 -24t69 -69h2l14 80h90l-126 -714h-93 l58 316h-2q-26 -39 -72 -63.5t-101 -24.5q-47 0 -85 15t-65 42t-42 64.5t-15 83.5z" unicode="q" glyph-name="q" horiz-adv-x="626"/>
<glyph d="M92 371q4 19 8.5 49t6.5 54h88q-1 -7 -2 -17.5t-2.5 -22t-3 -22t-2.5 -18.5h2q25 42 62.5 67.5t85.5 25.5q22 0 37 -4l-16 -87q-20 5 -41 5q-34 0 -60 -12.5t-45 -33.5t-30.5 -48.5t-16.5 -57.5l-44 -249h-92z" unicode="r" glyph-name="r" horiz-adv-x="343"/>
<glyph d="M347 360q-14 23 -38 38t-62 15q-17 0 -34 -3.5t-31.5 -11t-23.5 -20.5t-9 -31q0 -30 22 -43t63 -24q68 -20 104.5 -51.5t36.5 -89.5q0 -39 -17 -68t-44.5 -48t-62.5 -28.5t-71 -9.5q-68 0 -117.5 25t-76.5 68l75 49q16 -29 47.5 -47t71.5 -18q42 0 73 17.5t31 52.5 q0 31 -24.5 47t-73.5 32q-28 9 -51 19t-40 25t-26.5 35t-9.5 49q0 35 16 62.5t43 46.5t62.5 29t73.5 10q55 0 99 -21t66 -59z" unicode="s" glyph-name="s" horiz-adv-x="444"/>
<glyph d="M315 398h-117l-45 -249q-3 -17 -3 -30q0 -30 15.5 -40.5t41.5 -10.5q14 0 28 3t23 8l-7 -74q-14 -6 -34.5 -9.5t-40.5 -3.5q-55 0 -87.5 24.5t-32.5 77.5q0 11 1 23t3 24l46 257h-90l14 76h89l23 136h92l-24 -136h119z" unicode="t" glyph-name="t" horiz-adv-x="324"/>
<glyph d="M352 0q2 14 5 37.5t5 39.5h-2q-26 -41 -66.5 -65.5t-91.5 -24.5q-78 0 -118.5 41.5t-40.5 105.5q0 11 1.5 23t3.5 24l52 293h92l-46 -261q-2 -14 -3.5 -27.5t-1.5 -26.5q0 -41 20 -67t71 -26q56 0 97.5 42.5t53.5 113.5l45 252h92l-65 -371q-4 -19 -8.5 -49t-6.5 -54h-88 z" unicode="u" glyph-name="u" horiz-adv-x="581"/>
<glyph d="M227 0h-99l-96 474h96l66 -374h2l216 374h99z" unicode="v" glyph-name="v" horiz-adv-x="490"/>
<glyph d="M137 474l33 -362h2l185 362h93l47 -362h3l180 362h98l-250 -474h-96l-48 359h-2l-187 -359h-96l-59 474h97z" unicode="w" glyph-name="w" horiz-adv-x="759"/>
<glyph d="M315 0l-94 185l-170 -185h-117l244 251l-123 223h101l84 -167l152 167h113l-221 -230l137 -244h-106z" unicode="x" glyph-name="x" horiz-adv-x="489"/>
<glyph d="M207 101h2l210 373h100l-347 -586q-18 -30 -35 -53.5t-37 -40t-44 -25.5t-54 -9q-31 0 -59 7l13 82q22 -8 44 -8q32 0 53 20.5t44 58.5l47 80l-104 474h99z" unicode="y" glyph-name="y" horiz-adv-x="495"/>
<glyph d="M437 398l-328 -320h279l-13 -78h-396l13 76l327 322h-254l14 76h371z" unicode="z" glyph-name="z" horiz-adv-x="461"/>
<glyph d="M12 325q30 0 55.5 21t33.5 69l34 188q6 34 20 58.5t33 40.5t41.5 23t45.5 7h68l-12 -69h-51q-17 0 -28 -6.5t-18.5 -17t-11.5 -23t-6 -25.5l-32 -183q-6 -33 -20.5 -55t-31.5 -35.5t-34.5 -20.5t-27.5 -8v-2q9 -1 21.5 -5.5t24 -14.5t20 -27t8.5 -43q0 -14 -3 -32 l-31 -180q-3 -15 -3 -30q0 -17 9 -29.5t32 -12.5h51l-12 -69h-68q-41 0 -70 23t-29 76q0 13 3 30l33 184q3 15 3 28q0 35 -17.5 50.5t-43.5 15.5z" unicode="{" glyph-name="braceleft" horiz-adv-x="315"/>
<glyph d="M152 750v-1000h-82v1000h82z" unicode="|" glyph-name="bar" horiz-adv-x="222"/>
<glyph d="M305 251q-30 0 -55.5 -21t-33.5 -69l-34 -188q-6 -35 -20 -59t-33 -40t-41.5 -23t-45.5 -7h-68l12 69h51q16 0 27.5 6.5t19 17t11.5 23t6 25.5l32 183q6 33 20.5 55t31.5 35.5t34 20t28 8.5v2q-9 1 -21.5 5.5t-24 14.5t-20 27t-8.5 43q0 14 3 32l31 180q3 15 3 30 q0 17 -9 29.5t-32 12.5h-51l12 69h68q41 0 70 -23.5t29 -75.5q0 -14 -3 -30l-33 -184q-3 -15 -3 -28q0 -35 17.5 -50.5t43.5 -15.5z" unicode="}" glyph-name="braceright" horiz-adv-x="315"/>
<glyph d="M340 346q19 -12 33 -20t25 -12t20.5 -5.5t20.5 -1.5q50 0 87 68l59 -55q-18 -29 -36 -48t-36.5 -30t-36.5 -15t-35 -4q-29 0 -55 8t-61 30q-19 12 -32.5 19.5t-24.5 11.5t-20.5 5.5t-20.5 1.5q-50 0 -87 -68l-59 55q35 58 72.5 78t71.5 20q30 0 55.5 -8t59.5 -30z" unicode="~" glyph-name="asciitilde" horiz-adv-x="666"/>
<glyph unicode=" " glyph-name="uni00A0" horiz-adv-x="250"/>
<glyph d="M94 426q0 27 18.5 46.5t45.5 19.5q26 0 44.5 -16.5t18.5 -45.5t-19.5 -47.5t-45.5 -18.5t-44 16.5t-18 45.5zM90 280h95l-88 -501h-95z" unicode="¡" glyph-name="exclamdown" horiz-adv-x="287"/>
<glyph d="M320 408q-35 -5 -63.5 -23.5t-49 -46.5t-32 -63t-11.5 -72q0 -48 23 -86t73 -48zM246 -9q-81 13 -128.5 66.5t-47.5 134.5q0 56 18.5 107.5t53 91t83 65t108.5 30.5l11 63h51l-11 -64q45 -4 84 -23t61 -55l-72 -54q-11 21 -34 36.5t-52 19.5l-61 -344q41 2 69.5 18 t51.5 39l55 -52q-37 -37 -83.5 -59.5t-106.5 -23.5l-11 -65h-51z" unicode="¢" glyph-name="cent" horiz-adv-x="595"/>
<glyph d="M428 326h-166l-43 -244h264l-15 -82h-459l15 82h100l42 244h-97l13 71h95l16 88q7 37 22.5 79.5t44 78.5t72.5 59.5t108 23.5q49 0 89 -15t66 -43l-58 -66q-16 20 -42 32.5t-59 12.5q-41 0 -67.5 -17.5t-43 -43t-25.5 -54.5t-13 -53l-14 -82h168z" unicode="£" glyph-name="sterling" horiz-adv-x="595"/>
<glyph d="M296 437q-35 0 -63 -12.5t-48 -34t-30.5 -50t-10.5 -61.5t10.5 -61.5t30.5 -50.5t48 -34.5t63 -12.5t63.5 12.5t48.5 34.5t30.5 50.5t10.5 61.5t-10.5 61.5t-30.5 50t-48.5 34t-63.5 12.5zM491 420q21 -29 32 -64t11 -77t-12.5 -79t-32.5 -66l84 -85l-51 -52l-87 85 q-28 -20 -63 -31t-76 -11q-38 0 -74 12t-65 32l-88 -87l-52 52l86 88q-19 28 -31 64.5t-12 77.5q0 42 10.5 76t29.5 63l-83 84l52 51l84 -82q29 20 65.5 32.5t77.5 12.5q42 0 78 -12.5t64 -32.5l83 82l52 -51z" unicode="¤" glyph-name="currency" horiz-adv-x="595"/>
<glyph d="M237 228l16 92h-170l11 65h150l-150 323h104l120 -294l217 294h109l-258 -323h142l-11 -65h-172l-17 -92h172l-11 -65h-171l-29 -163h-91l29 163h-171l10 65h171z" unicode="¥" glyph-name="yen" horiz-adv-x="595"/>
<glyph d="M152 175v-350h-82v350h82zM152 675v-350h-82v350h82z" unicode="¦" glyph-name="brokenbar" horiz-adv-x="222"/>
<glyph d="M411 277q0 18 -6 32.5t-16.5 25.5t-23.5 19t-28 15l-72 34q-17 -3 -34 -10.5t-30 -19.5t-21 -28.5t-8 -36.5q0 -37 22 -55.5t57 -34.5l79 -34q33 8 57 32t24 61zM478 588q-19 29 -48 43t-63 14q-50 0 -82.5 -24.5t-32.5 -68.5q0 -18 6 -32t19 -25t33 -21t48 -22 q34 -14 60.5 -29.5t45 -34t28 -42t9.5 -53.5q0 -61 -32.5 -97t-80.5 -54q21 -19 33.5 -43.5t12.5 -52.5q0 -46 -17.5 -81t-47.5 -58.5t-69 -35.5t-82 -12q-31 0 -62.5 7.5t-59.5 21.5t-50 33.5t-34 44.5l79 50q17 -38 54 -57t72 -19q23 0 44.5 5t38 16t26 28.5t9.5 41.5 q0 19 -6.5 34t-20.5 27.5t-36.5 24t-53.5 23.5q-66 26 -101.5 60t-35.5 93q0 55 34 95t89 56q-21 14 -35 39.5t-14 57.5q0 42 17 76t46.5 57.5t68.5 36t83 12.5q61 0 109 -21t72 -59z" unicode="§" glyph-name="section" horiz-adv-x="583"/>
<glyph d="M341 647q0 -25 -16.5 -42.5t-42.5 -17.5q-24 0 -41 15t-17 42t18 44t43 17q24 0 40 -15.5t16 -42.5zM143 647q0 -25 -16.5 -42.5t-41.5 -17.5t-42 15t-17 42t18.5 44t42.5 17t40 -15.5t16 -42.5z" unicode="¨" glyph-name="dieresis" horiz-adv-x="250"/>
<glyph d="M515 473q-17 23 -44.5 33.5t-53.5 10.5q-33 0 -60.5 -12t-47 -33t-30.5 -50t-11 -62q0 -71 39.5 -115t106.5 -44q35 0 61.5 13.5t43.5 36.5l61 -43q-29 -36 -70.5 -56t-96.5 -20q-50 0 -92.5 16.5t-73 46.5t-47.5 72t-17 93q0 52 18 93.5t49.5 70.5t74 45t92.5 16 q21 0 43 -4t43 -12t39 -20.5t31 -29.5zM80 353q0 -66 25.5 -124t69 -101.5t102 -68.5t124.5 -25t124 25t101.5 68.5t68.5 101.5t25 124t-25 124.5t-68.5 102t-101.5 69t-124 25.5t-124.5 -25.5t-102 -69t-69 -102t-25.5 -124.5zM20 353q0 79 30 147.5t81.5 119.5t121 80.5 t148.5 29.5q78 0 147 -29.5t120.5 -80.5t81.5 -119.5t30 -147.5q0 -78 -30 -146.5t-81.5 -119.5t-120.5 -80t-147 -29q-79 0 -148.5 29t-121 80t-81.5 119.5t-30 146.5z" unicode="©" glyph-name="copyright" horiz-adv-x="800"/>
<glyph d="M275 564q-21 0 -44 -2t-41.5 -7.5t-31 -16t-12.5 -27.5q0 -22 15.5 -29.5t32.5 -7.5q35 0 56.5 21t28.5 51l4 18h-8zM353 637q0 -8 -1 -16t-2 -15l-20 -110q-3 -17 -4 -35t-1 -30h-56q0 19 4 39h-2q-16 -21 -39 -33.5t-55 -12.5q-37 0 -66 19.5t-29 58.5q0 33 16 54 t44 33t66 16.5t81 4.5q0 4 1 8.5t1 8.5q0 23 -14 32.5t-40 9.5q-20 0 -42 -8.5t-39 -22.5l-27 43q27 21 58.5 31t58.5 10q49 0 78 -22.5t29 -62.5z" unicode="ª" glyph-name="ordfeminine" horiz-adv-x="380"/>
<glyph d="M409 65l-65 -40l-110 219l184 216l54 -45l-148 -177zM209 65l-66 -40l-110 219l184 216l55 -45l-148 -177z" unicode="«" glyph-name="guillemotleft" horiz-adv-x="507"/>
<glyph d="M596 139h-81v206h-445v81h526v-287z" unicode="¬" glyph-name="logicalnot" horiz-adv-x="666"/>
<glyph d="M258 205h-232l14 79h232z" unicode="­" glyph-name="uni00AD" horiz-adv-x="320"/>
<glyph d="M148 493q0 -39 15 -74t41 -61.5t61 -41.5t75 -15t75 15t61 41.5t41 61.5t15 74q0 40 -15 75t-41 61t-61 41t-75 15t-75 -15t-61 -41t-41 -61t-15 -75zM112 493q0 47 18 88.5t49 72t72.5 48.5t88.5 18t88.5 -18t72.5 -48.5t49 -72t18 -88.5t-18 -88t-49 -71.5t-72.5 -48 t-88.5 -17.5t-88.5 17.5t-72.5 48t-49 71.5t-18 88zM395 368l-55 99h-36v-99h-61v256h110q18 0 35 -4t31 -13t22.5 -24.5t8.5 -38.5q0 -26 -14.5 -43t-36.5 -25l68 -108h-72zM351 511q14 0 25.5 9t11.5 24q0 16 -13 23t-24 7h-47v-63h47z" unicode="®" glyph-name="registered" horiz-adv-x="600"/>
<glyph d="M323 597h-294l11 66h295z" unicode="¯" glyph-name="macron" horiz-adv-x="250"/>
<glyph d="M331 565q0 19 -7 36t-19.5 29.5t-29 19.5t-35.5 7t-35.5 -7t-29 -19.5t-19.5 -29.5t-7 -36q0 -38 26.5 -64.5t64.5 -26.5t64.5 26.5t26.5 64.5zM395 565q0 -33 -12 -61t-33 -48.5t-49 -32.5t-61 -12t-61 12t-49 32.5t-33 48.5t-12 61t12 61t33 49t49 33t61 12t61 -12 t49 -33t33 -49t12 -61z" unicode="°" glyph-name="degree" horiz-adv-x="400"/>
<glyph d="M70 121h526v-81h-526v81zM70 419h223v150h81v-150h222v-81h-222v-147h-81v147h-223v81z" unicode="±" glyph-name="plusminus" horiz-adv-x="666"/>
<glyph d="M344 353l-13 -67h-280l12 69l186 154q33 28 47.5 49.5t14.5 43.5q0 26 -16.5 39.5t-45.5 13.5t-47 -17.5t-28 -47.5l-67 19q19 53 58 80.5t88 27.5q60 0 94 -30t34 -81q0 -24 -6 -43t-18 -36t-30.5 -33.5t-42.5 -36.5l-130 -104h190z" unicode="²" glyph-name="twosuperior" horiz-adv-x="385"/>
<glyph d="M197 538q94 0 94 71q0 24 -15.5 36.5t-38.5 12.5q-26 0 -43 -11t-31 -37l-56 34q23 40 58 58.5t78 18.5q56 0 88 -31.5t32 -78.5q0 -43 -25 -69t-58 -34q30 -9 48 -33t18 -54q0 -35 -12 -61t-32.5 -44t-48.5 -27t-60 -9q-54 0 -90 25.5t-51 69.5l71 22q8 -27 26.5 -39.5 t44.5 -12.5q38 0 58 19t20 50q0 35 -25.5 50t-60.5 15h-22l11 59h22z" unicode="³" glyph-name="threesuperior" horiz-adv-x="385"/>
<glyph d="M190 564h-74l125 144h111z" unicode="´" glyph-name="acute" horiz-adv-x="250"/>
<glyph d="M363 0q2 18 5.5 40.5t6.5 37.5h-2q-13 -19 -32 -35.5t-42 -29t-48.5 -19.5t-51.5 -7q-25 0 -46 8t-31 22l-55 -257h-94l152 714h94l-55 -262q-4 -16 -5.5 -31t-1.5 -29q0 -38 18 -62t66 -24q57 0 101 42.5t59 113.5l53 252h94l-79 -372q-2 -9 -4.5 -22t-5 -27t-4.5 -27.5 t-3 -25.5h-89z" unicode="µ" glyph-name="mu" horiz-adv-x="578"/>
<glyph d="M447 -126h-78l136 771h-116l-136 -771h-78l80 453q-42 0 -76 11.5t-57.5 31.5t-36 48t-12.5 61q0 40 15 81t47 74t83 53.5t123 20.5h253z" unicode="¶" glyph-name="paragraph" horiz-adv-x="600"/>
<glyph d="M197 306q0 -26 -18.5 -46t-45.5 -20q-26 0 -44.5 16.5t-18.5 45.5t20 47.5t46 18.5t43.5 -16.5t17.5 -45.5z" unicode="·" glyph-name="periodcentered" horiz-adv-x="260"/>
<glyph d="M54 -70q8 2 14 2.5t12 0.5q13 0 27.5 -3.5t26.5 -12t20 -22t8 -33.5q0 -27 -13 -46t-32.5 -30t-42.5 -16t-44 -5q-26 0 -55 6t-49 17l24 42q17 -8 36.5 -12.5t39.5 -4.5q10 0 21 2t21 6.5t16.5 13t6.5 21.5q0 21 -14.5 29t-33.5 8q-10 0 -21 -2t-21 -5l-17 20l79 94h50z " unicode="¸" glyph-name="cedilla" horiz-adv-x="250"/>
<glyph d="M242 282h-77l59 333l-79 -59l-36 51l142 101h66z" unicode="¹" glyph-name="onesuperior" horiz-adv-x="385"/>
<glyph d="M321 592q0 31 -18.5 51.5t-52.5 20.5q-21 0 -38.5 -9t-30.5 -24t-20 -34.5t-7 -41.5q0 -31 18.5 -51.5t51.5 -20.5q21 0 39 9t31 24t20 34.5t7 41.5zM390 599q0 -38 -13 -70t-36 -55t-54 -36t-67 -13q-62 0 -98.5 35t-36.5 87q0 37 13 69t36 55.5t54 36.5t67 13 q59 0 97 -33.5t38 -88.5z" unicode="º" glyph-name="ordmasculine" horiz-adv-x="380"/>
<glyph d="M78 421l66 39l110 -218l-185 -217l-54 46l148 177zM279 421l65 39l110 -218l-184 -217l-54 46l148 177z" unicode="»" glyph-name="guillemotright" horiz-adv-x="507"/>
<glyph d="M242 282h-77l59 333l-79 -59l-36 51l142 101h66zM176 -32l-54 33l564 739l53 -33zM676 330l-139 -173h111l32 173h-4zM769 94h-59l-16 -94h-71l17 93h-192l10 61l222 272h85l-47 -268h63z" unicode="¼" glyph-name="onequarter" horiz-adv-x="870"/>
<glyph d="M242 282h-77l59 333l-79 -59l-36 51l142 101h66zM176 -32l-54 33l564 739l53 -33zM808 320q0 -24 -6 -43t-18 -36t-30.5 -33.5t-42.5 -36.5l-131 -104h191l-13 -67h-280l12 68l185 154q34 28 48.5 49.5t14.5 43.5q0 26 -16.5 40t-45.5 14t-47 -17.5t-28 -47.5l-67 18 q18 53 57 81t89 28q60 0 94 -30t34 -81z" unicode="½" glyph-name="onehalf" horiz-adv-x="870"/>
<glyph d="M363 612q0 -44 -25 -70t-59 -34q30 -8 48.5 -32.5t18.5 -54.5q0 -35 -12 -61t-32.5 -44t-48.5 -27t-60 -9q-54 0 -90 25.5t-51 69.5l70 22q8 -27 26.5 -39.5t44.5 -12.5q38 0 59 19t21 50q0 35 -26 50t-61 15h-22l10 58h22q49 0 72 18.5t23 53.5q0 24 -15 36.5t-39 12.5 q-26 0 -43 -11t-31 -37l-56 34q23 39 58 58t78 19q55 0 87.5 -31.5t32.5 -77.5zM176 -32l-54 33l564 739l53 -33zM676 330l-139 -173h111l32 173h-4zM769 94h-59l-16 -94h-71l17 93h-192l10 61l222 272h85l-47 -268h63z" unicode="¾" glyph-name="threequarters" horiz-adv-x="870"/>
<glyph d="M198 427q0 26 18.5 46t45.5 20q26 0 44.5 -16.5t18.5 -46.5q0 -29 -20 -47.5t-46 -18.5t-43.5 17t-17.5 46zM202 287h92l-8 -49q-4 -26 -12.5 -47t-21 -38.5t-29 -33t-36.5 -30.5l-42 -33q-30 -23 -51.5 -49t-21.5 -68q0 -43 25.5 -66.5t70.5 -23.5q54 0 88 33t44 78 l89 -15q-9 -39 -29.5 -72t-50 -57t-67.5 -37.5t-82 -13.5q-38 0 -71.5 9.5t-59 29.5t-40.5 52t-15 77q0 61 33.5 104t92.5 84q23 16 40 30t28.5 29t18.5 32.5t11 42.5z" unicode="¿" glyph-name="questiondown" horiz-adv-x="500"/>
<glyph d="M269 908h110l100 -144h-73zM206 261h267l-60 336zM47 0h-115l459 708h89l144 -708h-103l-34 174h-332z" unicode="À" glyph-name="Agrave" horiz-adv-x="681"/>
<glyph d="M470 764h-74l125 144h111zM206 261h267l-60 336zM47 0h-115l459 708h89l144 -708h-103l-34 174h-332z" unicode="Á" glyph-name="Aacute" horiz-adv-x="681"/>
<glyph d="M609 764h-86l-59 99l-94 -99h-91l138 144h106zM206 261h267l-60 336zM47 0h-115l459 708h89l144 -708h-103l-34 174h-332z" unicode="Â" glyph-name="Acircumflex" horiz-adv-x="681"/>
<glyph d="M271 772q7 22 18 42.5t25.5 36.5t34 26t45.5 10q20 0 37.5 -6t34.5 -15q17 -8 33 -14.5t30 -6.5q21 0 34 15t21 32h55q-8 -22 -18.5 -42.5t-25.5 -36.5t-34.5 -26t-44.5 -10q-18 0 -35 6t-34 14q-17 9 -33.5 15.5t-31.5 6.5q-22 0 -35 -15t-21 -32h-55zM206 261h267 l-60 336zM47 0h-115l459 708h89l144 -708h-103l-34 174h-332z" unicode="Ã" glyph-name="Atilde" horiz-adv-x="681"/>
<glyph d="M418 847q0 -25 -16.5 -42.5t-41.5 -17.5t-42 15t-17 42t18.5 44t42.5 17t40 -15.5t16 -42.5zM616 847q0 -25 -16.5 -42.5t-42.5 -17.5q-24 0 -41 15t-17 42t18 44t43 17q24 0 40 -15.5t16 -42.5zM206 261h267l-60 336zM47 0h-115l459 708h89l144 -708h-103l-34 174h-332z " unicode="Ä" glyph-name="Adieresis" horiz-adv-x="681"/>
<glyph d="M515 863q0 21 -13 36t-36 15q-29 0 -47.5 -21t-18.5 -52q0 -21 12.5 -35.5t35.5 -14.5q29 0 48 21t19 51zM445 753q-38 0 -62.5 24t-24.5 59q0 24 8 44.5t23 36.5t35.5 25t44.5 9q39 0 63 -23t24 -59q0 -49 -31 -82.5t-80 -33.5zM206 261h267l-60 336zM47 0h-115l459 708 h89l144 -708h-103l-34 174h-332z" unicode="Å" glyph-name="Aring" horiz-adv-x="681"/>
<glyph d="M518 275l62 347h-12l-275 -347h225zM470 0l34 193h-273l-153 -193h-115l569 708h485l-15 -86h-327l-38 -214h312l-15 -83h-311l-43 -238h354l-15 -87h-449z" unicode="Æ" glyph-name="AE" horiz-adv-x="1006"/>
<glyph d="M652 111q-41 -51 -107 -88t-159 -40l-44 -53q8 2 14 2.5t12 0.5q13 0 27.5 -3.5t26.5 -12t20 -22t8 -33.5q0 -27 -13 -46t-32.5 -30t-42.5 -16t-44 -5q-26 0 -55 6t-49 17l24 42q17 -8 36.5 -12.5t39.5 -4.5q10 0 21 2t21 6.5t16.5 13t6.5 21.5q0 21 -14.5 29t-33.5 8 q-10 0 -21 -2t-21 -5l-17 20l65 78q-64 5 -116.5 28.5t-89.5 63t-57.5 93t-20.5 117.5q0 92 32.5 172t89.5 139.5t133.5 94t164.5 34.5q39 0 75.5 -8t67.5 -22.5t56 -34.5t40 -45l-81 -59q-8 15 -22 30t-34.5 27.5t-46.5 20t-58 7.5q-69 0 -127 -29.5t-100 -77.5t-65 -110 t-23 -127q0 -48 14.5 -90t43 -73.5t70.5 -49.5t96 -18q59 0 112 24t95 75z" unicode="Ç" glyph-name="Ccedilla" horiz-adv-x="700"/>
<glyph d="M243 908h110l100 -144h-73zM144 87h367l-15 -87h-464l125 708h436l-15 -86h-340l-37 -214h324l-15 -83h-324z" unicode="È" glyph-name="Egrave" horiz-adv-x="582"/>
<glyph d="M385 764h-74l125 144h111zM144 87h367l-15 -87h-464l125 708h436l-15 -86h-340l-37 -214h324l-15 -83h-324z" unicode="É" glyph-name="Eacute" horiz-adv-x="582"/>
<glyph d="M546 764h-86l-59 99l-94 -99h-91l138 144h106zM144 87h367l-15 -87h-464l125 708h436l-15 -86h-340l-37 -214h324l-15 -83h-324z" unicode="Ê" glyph-name="Ecircumflex" horiz-adv-x="582"/>
<glyph d="M354 847q0 -25 -16.5 -42.5t-41.5 -17.5t-42 15t-17 42t18.5 44t42.5 17t40 -15.5t16 -42.5zM552 847q0 -25 -16.5 -42.5t-42.5 -17.5q-24 0 -41 15t-17 42t18 44t43 17q24 0 40 -15.5t16 -42.5zM144 87h367l-15 -87h-464l125 708h436l-15 -86h-340l-37 -214h324l-15 -83 h-324z" unicode="Ë" glyph-name="Edieresis" horiz-adv-x="582"/>
<glyph d="M45 908h110l100 -144h-73zM130 0h-98l125 708h98z" unicode="Ì" glyph-name="Igrave" horiz-adv-x="271"/>
<glyph d="M238 764h-74l125 144h111zM130 0h-98l125 708h98z" unicode="Í" glyph-name="Iacute" horiz-adv-x="271"/>
<glyph d="M377 764h-86l-59 99l-94 -99h-91l138 144h106zM130 0h-98l125 708h98z" unicode="Î" glyph-name="Icircumflex" horiz-adv-x="271"/>
<glyph d="M184 847q0 -25 -16.5 -42.5t-41.5 -17.5t-42 15t-17 42t18.5 44t42.5 17t40 -15.5t16 -42.5zM382 847q0 -25 -16.5 -42.5t-42.5 -17.5q-24 0 -41 15t-17 42t18 44t43 17q24 0 40 -15.5t16 -42.5zM130 0h-98l125 708h98z" unicode="Ï" glyph-name="Idieresis" horiz-adv-x="271"/>
<glyph d="M144 86h145q80 0 140.5 26.5t101.5 70.5t61.5 100.5t20.5 116.5q0 46 -15 86.5t-45.5 71t-78 48.5t-112.5 18h-123l-39 -219h230l-14 -69h-228zM157 708h229q60 0 119 -16.5t106 -52t76 -92t29 -135.5q0 -93 -32.5 -169t-90.5 -130t-137 -83.5t-172 -29.5h-252l59 336 h-66l13 69h66z" unicode="Ð" glyph-name="Eth" horiz-adv-x="757"/>
<glyph d="M284 772q7 22 18 42.5t25.5 36.5t34 26t45.5 10q20 0 37.5 -6t34.5 -15q17 -8 33 -14.5t30 -6.5q21 0 34 15t21 32h55q-8 -22 -18.5 -42.5t-25.5 -36.5t-34.5 -26t-44.5 -10q-18 0 -35 6t-34 14q-17 9 -33.5 15.5t-31.5 6.5q-22 0 -35 -15t-21 -32h-55zM541 138h2 l100 570h98l-125 -708h-122l-260 582h-2l-103 -582h-97l125 708h125z" unicode="Ñ" glyph-name="Ntilde" horiz-adv-x="768"/>
<glyph d="M327 908h110l100 -144h-73zM688 412q0 48 -15 89.5t-44 73t-71.5 49.5t-97.5 18q-69 0 -125.5 -29.5t-96.5 -78t-61.5 -110.5t-21.5 -127q0 -47 15 -89t43.5 -73.5t71 -49.5t98.5 -18q70 0 126.5 29t96 77.5t61 110.5t21.5 128zM381 -18q-74 0 -134.5 21.5t-103.5 61.5 t-66.5 96.5t-23.5 126.5q0 91 31.5 170.5t87 139t130.5 94t163 34.5q72 0 132 -21.5t103 -61.5t66.5 -96t23.5 -126q0 -91 -30.5 -171t-85.5 -139.5t-130 -94t-163 -34.5z" unicode="Ò" glyph-name="Ograve" horiz-adv-x="831"/>
<glyph d="M493 764h-74l125 144h111zM688 412q0 48 -15 89.5t-44 73t-71.5 49.5t-97.5 18q-69 0 -125.5 -29.5t-96.5 -78t-61.5 -110.5t-21.5 -127q0 -47 15 -89t43.5 -73.5t71 -49.5t98.5 -18q70 0 126.5 29t96 77.5t61 110.5t21.5 128zM381 -18q-74 0 -134.5 21.5t-103.5 61.5 t-66.5 96.5t-23.5 126.5q0 91 31.5 170.5t87 139t130.5 94t163 34.5q72 0 132 -21.5t103 -61.5t66.5 -96t23.5 -126q0 -91 -30.5 -171t-85.5 -139.5t-130 -94t-163 -34.5z" unicode="Ó" glyph-name="Oacute" horiz-adv-x="831"/>
<glyph d="M663 764h-86l-59 99l-94 -99h-91l138 144h106zM688 412q0 48 -15 89.5t-44 73t-71.5 49.5t-97.5 18q-69 0 -125.5 -29.5t-96.5 -78t-61.5 -110.5t-21.5 -127q0 -47 15 -89t43.5 -73.5t71 -49.5t98.5 -18q70 0 126.5 29t96 77.5t61 110.5t21.5 128zM381 -18 q-74 0 -134.5 21.5t-103.5 61.5t-66.5 96.5t-23.5 126.5q0 91 31.5 170.5t87 139t130.5 94t163 34.5q72 0 132 -21.5t103 -61.5t66.5 -96t23.5 -126q0 -91 -30.5 -171t-85.5 -139.5t-130 -94t-163 -34.5z" unicode="Ô" glyph-name="Ocircumflex" horiz-adv-x="831"/>
<glyph d="M315 772q7 22 18 42.5t25.5 36.5t34 26t45.5 10q20 0 37.5 -6t34.5 -15q17 -8 33 -14.5t30 -6.5q21 0 34 15t21 32h55q-8 -22 -18.5 -42.5t-25.5 -36.5t-34.5 -26t-44.5 -10q-18 0 -35 6t-34 14q-17 9 -33.5 15.5t-31.5 6.5q-22 0 -35 -15t-21 -32h-55zM688 412 q0 48 -15 89.5t-44 73t-71.5 49.5t-97.5 18q-69 0 -125.5 -29.5t-96.5 -78t-61.5 -110.5t-21.5 -127q0 -47 15 -89t43.5 -73.5t71 -49.5t98.5 -18q70 0 126.5 29t96 77.5t61 110.5t21.5 128zM381 -18q-74 0 -134.5 21.5t-103.5 61.5t-66.5 96.5t-23.5 126.5q0 91 31.5 170.5 t87 139t130.5 94t163 34.5q72 0 132 -21.5t103 -61.5t66.5 -96t23.5 -126q0 -91 -30.5 -171t-85.5 -139.5t-130 -94t-163 -34.5z" unicode="Õ" glyph-name="Otilde" horiz-adv-x="831"/>
<glyph d="M463 847q0 -25 -16.5 -42.5t-41.5 -17.5t-42 15t-17 42t18.5 44t42.5 17t40 -15.5t16 -42.5zM661 847q0 -25 -16.5 -42.5t-42.5 -17.5q-24 0 -41 15t-17 42t18 44t43 17q24 0 40 -15.5t16 -42.5zM688 412q0 48 -15 89.5t-44 73t-71.5 49.5t-97.5 18q-69 0 -125.5 -29.5 t-96.5 -78t-61.5 -110.5t-21.5 -127q0 -47 15 -89t43.5 -73.5t71 -49.5t98.5 -18q70 0 126.5 29t96 77.5t61 110.5t21.5 128zM381 -18q-74 0 -134.5 21.5t-103.5 61.5t-66.5 96.5t-23.5 126.5q0 91 31.5 170.5t87 139t130.5 94t163 34.5q72 0 132 -21.5t103 -61.5t66.5 -96 t23.5 -126q0 -91 -30.5 -171t-85.5 -139.5t-130 -94t-163 -34.5z" unicode="Ö" glyph-name="Odieresis" horiz-adv-x="831"/>
<glyph d="M333 360l170 171l57 -56l-170 -171l172 -173l-59 -58l-171 170l-170 -170l-58 58l172 170l-171 174l57 56z" unicode="×" glyph-name="multiply" horiz-adv-x="666"/>
<glyph d="M615 588q-28 26 -67 40t-88 14q-69 0 -125.5 -29.5t-96.5 -78t-61.5 -110.5t-21.5 -127q0 -32 7 -62t21 -56zM214 134q29 -31 71 -49t98 -18q70 0 126.5 29t96 77.5t61 110.5t21.5 128q0 78 -38 136zM772 737l36 -39l-84 -80q32 -38 49 -87.5t17 -109.5q0 -91 -30.5 -171 t-85.5 -139.5t-130 -94t-163 -34.5q-74 0 -134.5 21.5t-104.5 62.5l-94 -89l-39 38l97 92q-26 37 -39.5 82t-13.5 99q0 91 31.5 170.5t87 139t130.5 94t163 34.5q66 0 122 -18t99 -52z" unicode="Ø" glyph-name="Oslash" horiz-adv-x="831"/>
<glyph d="M265 908h110l100 -144h-73zM317 -18q-63 0 -109.5 17t-77.5 47t-46.5 69.5t-15.5 84.5q0 30 6 62l78 446h98l-78 -440q-5 -28 -5 -53q0 -30 8 -56.5t26.5 -47t47.5 -32.5t71 -12q52 0 88 17t60 45.5t37.5 64.5t20.5 74l77 440h98l-78 -446q-10 -54 -31.5 -104.5 t-58 -89.5t-90 -62.5t-126.5 -23.5z" unicode="Ù" glyph-name="Ugrave" horiz-adv-x="712"/>
<glyph d="M443 764h-74l125 144h111zM317 -18q-63 0 -109.5 17t-77.5 47t-46.5 69.5t-15.5 84.5q0 30 6 62l78 446h98l-78 -440q-5 -28 -5 -53q0 -30 8 -56.5t26.5 -47t47.5 -32.5t71 -12q52 0 88 17t60 45.5t37.5 64.5t20.5 74l77 440h98l-78 -446q-10 -54 -31.5 -104.5t-58 -89.5 t-90 -62.5t-126.5 -23.5z" unicode="Ú" glyph-name="Uacute" horiz-adv-x="712"/>
<glyph d="M601 764h-86l-59 99l-94 -99h-91l138 144h106zM317 -18q-63 0 -109.5 17t-77.5 47t-46.5 69.5t-15.5 84.5q0 30 6 62l78 446h98l-78 -440q-5 -28 -5 -53q0 -30 8 -56.5t26.5 -47t47.5 -32.5t71 -12q52 0 88 17t60 45.5t37.5 64.5t20.5 74l77 440h98l-78 -446 q-10 -54 -31.5 -104.5t-58 -89.5t-90 -62.5t-126.5 -23.5z" unicode="Û" glyph-name="Ucircumflex" horiz-adv-x="712"/>
<glyph d="M406 847q0 -25 -16.5 -42.5t-41.5 -17.5t-42 15t-17 42t18.5 44t42.5 17t40 -15.5t16 -42.5zM604 847q0 -25 -16.5 -42.5t-42.5 -17.5q-24 0 -41 15t-17 42t18 44t43 17q24 0 40 -15.5t16 -42.5zM317 -18q-63 0 -109.5 17t-77.5 47t-46.5 69.5t-15.5 84.5q0 30 6 62 l78 446h98l-78 -440q-5 -28 -5 -53q0 -30 8 -56.5t26.5 -47t47.5 -32.5t71 -12q52 0 88 17t60 45.5t37.5 64.5t20.5 74l77 440h98l-78 -446q-10 -54 -31.5 -104.5t-58 -89.5t-90 -62.5t-126.5 -23.5z" unicode="Ü" glyph-name="Udieresis" horiz-adv-x="712"/>
<glyph d="M387 764h-74l125 144h111zM268 0h-98l54 306l-178 402h111l130 -322l259 322h120l-344 -402z" unicode="Ý" glyph-name="Yacute" horiz-adv-x="560"/>
<glyph d="M173 247h112q85 0 132.5 31.5t47.5 94.5q0 59 -39 82.5t-105 23.5h-106zM130 0h-97l125 708h97l-26 -146h105q110 0 169.5 -47t59.5 -131q0 -55 -20.5 -96t-58 -68.5t-89.5 -41t-115 -13.5h-121z" unicode="Þ" glyph-name="Thorn" horiz-adv-x="595"/>
<glyph d="M117 0h-92l93 526q8 45 24.5 88.5t45.5 77.5t72 55t105 21q42 0 77.5 -12t61 -34.5t40 -53.5t14.5 -70q0 -68 -40 -111.5t-100 -58.5v-2q31 -7 56 -23.5t42.5 -39.5t27 -52t9.5 -62q0 -59 -20.5 -107t-58 -82t-89 -53t-112.5 -19q-17 0 -38.5 2t-38.5 6l14 78 q11 -3 29 -5t31 -2q37 0 70.5 10.5t59.5 32.5t41.5 56t15.5 81q0 30 -11.5 55t-31.5 43t-47.5 27.5t-59.5 9.5h-11l15 81h11q27 0 52.5 7.5t45.5 23t32 39t12 55.5q0 44 -27.5 71t-75.5 27q-40 0 -67 -15.5t-44 -39.5t-26.5 -53t-13.5 -56z" unicode="ß" glyph-name="germandbls" horiz-adv-x="610"/>
<glyph d="M143 708h110l100 -144h-73zM345 228q-39 0 -81 -3.5t-76.5 -14t-56.5 -30.5t-22 -52q0 -20 7.5 -32.5t20 -20.5t28 -11t31.5 -3q31 0 58 10.5t47 28.5t33.5 42t18.5 51l7 35h-15zM370 296q2 14 3 22t1 15q0 42 -26 60.5t-74 18.5q-38 0 -76 -15t-66 -37l-38 62 q38 30 89 47.5t104 17.5q34 0 65.5 -7.5t56 -24t39.5 -43.5t15 -65q0 -9 -1 -23.5t-3 -24.5l-35 -192q-5 -28 -8 -57.5t-3 -49.5h-85q0 15 1.5 32t4.5 34h-2q-34 -40 -74 -58t-94 -18q-24 0 -50 6t-47.5 20.5t-35.5 38.5t-14 60q0 58 32 93.5t82.5 55t113.5 26t125 6.5z" unicode="à" glyph-name="agrave" horiz-adv-x="537"/>
<glyph d="M324 564h-74l125 144h111zM345 228q-39 0 -81 -3.5t-76.5 -14t-56.5 -30.5t-22 -52q0 -20 7.5 -32.5t20 -20.5t28 -11t31.5 -3q31 0 58 10.5t47 28.5t33.5 42t18.5 51l7 35h-15zM370 296q2 14 3 22t1 15q0 42 -26 60.5t-74 18.5q-38 0 -76 -15t-66 -37l-38 62 q38 30 89 47.5t104 17.5q34 0 65.5 -7.5t56 -24t39.5 -43.5t15 -65q0 -9 -1 -23.5t-3 -24.5l-35 -192q-5 -28 -8 -57.5t-3 -49.5h-85q0 15 1.5 32t4.5 34h-2q-34 -40 -74 -58t-94 -18q-24 0 -50 6t-47.5 20.5t-35.5 38.5t-14 60q0 58 32 93.5t82.5 55t113.5 26t125 6.5z" unicode="á" glyph-name="aacute" horiz-adv-x="537"/>
<glyph d="M477 564h-86l-59 99l-94 -99h-91l138 144h106zM345 228q-39 0 -81 -3.5t-76.5 -14t-56.5 -30.5t-22 -52q0 -20 7.5 -32.5t20 -20.5t28 -11t31.5 -3q31 0 58 10.5t47 28.5t33.5 42t18.5 51l7 35h-15zM370 296q2 14 3 22t1 15q0 42 -26 60.5t-74 18.5q-38 0 -76 -15 t-66 -37l-38 62q38 30 89 47.5t104 17.5q34 0 65.5 -7.5t56 -24t39.5 -43.5t15 -65q0 -9 -1 -23.5t-3 -24.5l-35 -192q-5 -28 -8 -57.5t-3 -49.5h-85q0 15 1.5 32t4.5 34h-2q-34 -40 -74 -58t-94 -18q-24 0 -50 6t-47.5 20.5t-35.5 38.5t-14 60q0 58 32 93.5t82.5 55 t113.5 26t125 6.5z" unicode="â" glyph-name="acircumflex" horiz-adv-x="537"/>
<glyph d="M132 572q7 22 18 42.5t25.5 36.5t34 26t45.5 10q20 0 37.5 -6t34.5 -15q17 -8 33 -14.5t30 -6.5q21 0 34 15t21 32h55q-8 -22 -18.5 -42.5t-25.5 -36.5t-34.5 -26t-44.5 -10q-18 0 -35 6t-34 14q-17 9 -33.5 15.5t-31.5 6.5q-22 0 -35 -15t-21 -32h-55zM345 228 q-39 0 -81 -3.5t-76.5 -14t-56.5 -30.5t-22 -52q0 -20 7.5 -32.5t20 -20.5t28 -11t31.5 -3q31 0 58 10.5t47 28.5t33.5 42t18.5 51l7 35h-15zM370 296q2 14 3 22t1 15q0 42 -26 60.5t-74 18.5q-38 0 -76 -15t-66 -37l-38 62q38 30 89 47.5t104 17.5q34 0 65.5 -7.5t56 -24 t39.5 -43.5t15 -65q0 -9 -1 -23.5t-3 -24.5l-35 -192q-5 -28 -8 -57.5t-3 -49.5h-85q0 15 1.5 32t4.5 34h-2q-34 -40 -74 -58t-94 -18q-24 0 -50 6t-47.5 20.5t-35.5 38.5t-14 60q0 58 32 93.5t82.5 55t113.5 26t125 6.5z" unicode="ã" glyph-name="atilde" horiz-adv-x="537"/>
<glyph d="M476 647q0 -25 -16.5 -42.5t-42.5 -17.5q-24 0 -41 15t-17 42t18 44t43 17q24 0 40 -15.5t16 -42.5zM278 647q0 -25 -16.5 -42.5t-41.5 -17.5t-42 15t-17 42t18.5 44t42.5 17t40 -15.5t16 -42.5zM345 228q-39 0 -81 -3.5t-76.5 -14t-56.5 -30.5t-22 -52q0 -20 7.5 -32.5 t20 -20.5t28 -11t31.5 -3q31 0 58 10.5t47 28.5t33.5 42t18.5 51l7 35h-15zM370 296q2 14 3 22t1 15q0 42 -26 60.5t-74 18.5q-38 0 -76 -15t-66 -37l-38 62q38 30 89 47.5t104 17.5q34 0 65.5 -7.5t56 -24t39.5 -43.5t15 -65q0 -9 -1 -23.5t-3 -24.5l-35 -192 q-5 -28 -8 -57.5t-3 -49.5h-85q0 15 1.5 32t4.5 34h-2q-34 -40 -74 -58t-94 -18q-24 0 -50 6t-47.5 20.5t-35.5 38.5t-14 60q0 58 32 93.5t82.5 55t113.5 26t125 6.5z" unicode="ä" glyph-name="adieresis" horiz-adv-x="537"/>
<glyph d="M378 663q0 21 -13 36t-36 15q-29 0 -47.5 -21t-18.5 -52q0 -21 12.5 -35.5t35.5 -14.5q29 0 48 21t19 51zM308 553q-38 0 -62.5 24t-24.5 59q0 24 8 44.5t23 36.5t35.5 25t44.5 9q39 0 63 -23t24 -59q0 -49 -31 -82.5t-80 -33.5zM345 228q-39 0 -81 -3.5t-76.5 -14 t-56.5 -30.5t-22 -52q0 -20 7.5 -32.5t20 -20.5t28 -11t31.5 -3q31 0 58 10.5t47 28.5t33.5 42t18.5 51l7 35h-15zM370 296q2 14 3 22t1 15q0 42 -26 60.5t-74 18.5q-38 0 -76 -15t-66 -37l-38 62q38 30 89 47.5t104 17.5q34 0 65.5 -7.5t56 -24t39.5 -43.5t15 -65 q0 -9 -1 -23.5t-3 -24.5l-35 -192q-5 -28 -8 -57.5t-3 -49.5h-85q0 15 1.5 32t4.5 34h-2q-34 -40 -74 -58t-94 -18q-24 0 -50 6t-47.5 20.5t-35.5 38.5t-14 60q0 58 32 93.5t82.5 55t113.5 26t125 6.5z" unicode="å" glyph-name="aring" horiz-adv-x="537"/>
<glyph d="M735 277q1 7 1.5 15t0.5 15q0 46 -30.5 76.5t-87.5 30.5q-33 0 -60 -12t-48 -31t-34.5 -44t-19.5 -50h278zM336 209q-47 0 -88.5 -3t-72 -12t-48 -25t-17.5 -41q0 -20 7.5 -32.5t19.5 -20.5t28 -11t33 -3q67 0 108 36t51 94l3 18h-24zM446 400q27 36 75 61.5t105 25.5 q91 0 144.5 -49.5t53.5 -138.5q0 -14 -2.5 -40.5t-8.5 -49.5h-366q-1 -5 -1.5 -8.5t-0.5 -7.5q0 -57 37.5 -93t96.5 -36q51 0 87 20.5t62 51.5l55 -52q-86 -97 -214 -97q-63 0 -112.5 29t-69.5 79q-25 -43 -74.5 -74t-130.5 -31q-27 0 -56.5 6t-53.5 20.5t-39.5 38.5 t-15.5 61q0 55 31.5 87t82 48.5t113.5 21t127 4.5q3 14 5.5 31t2.5 24q0 45 -27 62.5t-72 17.5q-38 0 -76.5 -15t-66.5 -37l-38 62q38 30 89.5 47.5t103.5 17.5q60 0 100 -21.5t54 -65.5z" unicode="æ" glyph-name="ae" horiz-adv-x="885"/>
<glyph d="M419 353q-12 24 -40.5 40.5t-63.5 16.5q-41 0 -75.5 -16.5t-59.5 -45t-39 -66t-14 -79.5q0 -29 8.5 -54t25.5 -43.5t42.5 -29.5t59.5 -11q45 0 76 16t54 41l56 -52q-37 -37 -82 -59t-103 -24l-48 -57q8 2 14 2.5t12 0.5q13 0 27.5 -3.5t26.5 -12t20 -22t8 -33.5 q0 -27 -13 -46t-32.5 -30t-42.5 -16t-44 -5q-26 0 -55 6t-49 17l24 42q17 -8 36.5 -12.5t39.5 -4.5q10 0 21 2t21 6.5t16.5 13t6.5 21.5q0 21 -14.5 29t-33.5 8q-10 0 -21 -2t-21 -5l-17 20l70 84q-85 11 -134 65t-49 137q0 59 20.5 112.5t58 94t90.5 64.5t118 24 q26 0 51.5 -5t48 -14.5t41 -24.5t30.5 -36z" unicode="ç" glyph-name="ccedilla" horiz-adv-x="496"/>
<glyph d="M166 708h110l100 -144h-73zM415 277q1 7 1.5 15t0.5 15q0 46 -30 76.5t-87 30.5q-34 0 -62 -12t-49.5 -31t-36 -44t-20.5 -50h283zM122 209q-1 -5 -1 -8.5v-7.5q0 -28 10.5 -51.5t29 -41t44 -27t54.5 -9.5q51 0 87.5 20.5t61.5 51.5l55 -52q-42 -48 -96 -72.5t-117 -24.5 q-47 0 -87.5 14t-70 41t-46 66t-16.5 89q0 59 21 112t58 92.5t88 62.5t110 23q91 0 144 -49.5t53 -138.5q0 -14 -2.5 -40.5t-7.5 -49.5h-372z" unicode="è" glyph-name="egrave" horiz-adv-x="565"/>
<glyph d="M330 564h-74l125 144h111zM415 277q1 7 1.5 15t0.5 15q0 46 -30 76.5t-87 30.5q-34 0 -62 -12t-49.5 -31t-36 -44t-20.5 -50h283zM122 209q-1 -5 -1 -8.5v-7.5q0 -28 10.5 -51.5t29 -41t44 -27t54.5 -9.5q51 0 87.5 20.5t61.5 51.5l55 -52q-42 -48 -96 -72.5t-117 -24.5 q-47 0 -87.5 14t-70 41t-46 66t-16.5 89q0 59 21 112t58 92.5t88 62.5t110 23q91 0 144 -49.5t53 -138.5q0 -14 -2.5 -40.5t-7.5 -49.5h-372z" unicode="é" glyph-name="eacute" horiz-adv-x="565"/>
<glyph d="M499 564h-86l-59 99l-94 -99h-91l138 144h106zM415 277q1 7 1.5 15t0.5 15q0 46 -30 76.5t-87 30.5q-34 0 -62 -12t-49.5 -31t-36 -44t-20.5 -50h283zM122 209q-1 -5 -1 -8.5v-7.5q0 -28 10.5 -51.5t29 -41t44 -27t54.5 -9.5q51 0 87.5 20.5t61.5 51.5l55 -52 q-42 -48 -96 -72.5t-117 -24.5q-47 0 -87.5 14t-70 41t-46 66t-16.5 89q0 59 21 112t58 92.5t88 62.5t110 23q91 0 144 -49.5t53 -138.5q0 -14 -2.5 -40.5t-7.5 -49.5h-372z" unicode="ê" glyph-name="ecircumflex" horiz-adv-x="565"/>
<glyph d="M500 647q0 -25 -16.5 -42.5t-42.5 -17.5q-24 0 -41 15t-17 42t18 44t43 17q24 0 40 -15.5t16 -42.5zM302 647q0 -25 -16.5 -42.5t-41.5 -17.5t-42 15t-17 42t18.5 44t42.5 17t40 -15.5t16 -42.5zM415 277q1 7 1.5 15t0.5 15q0 46 -30 76.5t-87 30.5q-34 0 -62 -12 t-49.5 -31t-36 -44t-20.5 -50h283zM122 209q-1 -5 -1 -8.5v-7.5q0 -28 10.5 -51.5t29 -41t44 -27t54.5 -9.5q51 0 87.5 20.5t61.5 51.5l55 -52q-42 -48 -96 -72.5t-117 -24.5q-47 0 -87.5 14t-70 41t-46 66t-16.5 89q0 59 21 112t58 92.5t88 62.5t110 23q91 0 144 -49.5 t53 -138.5q0 -14 -2.5 -40.5t-7.5 -49.5h-372z" unicode="ë" glyph-name="edieresis" horiz-adv-x="565"/>
<glyph d="M1 708h110l100 -144h-73zM121 0h-92l83 474h93z" unicode="ì" glyph-name="igrave" horiz-adv-x="259"/>
<glyph d="M189 563h-74l125 144h111zM121 0h-92l83 474h93z" unicode="í" glyph-name="iacute" horiz-adv-x="259"/>
<glyph d="M337 564h-86l-59 99l-94 -99h-91l138 144h106zM121 0h-92l83 474h93z" unicode="î" glyph-name="icircumflex" horiz-adv-x="259"/>
<glyph d="M346 647q0 -25 -16.5 -42.5t-42.5 -17.5q-24 0 -41 15t-17 42t18 44t43 17q24 0 40 -15.5t16 -42.5zM148 647q0 -25 -16.5 -42.5t-41.5 -17.5t-42 15t-17 42t18.5 44t42.5 17t40 -15.5t16 -42.5zM121 0h-92l83 474h93z" unicode="ï" glyph-name="idieresis" horiz-adv-x="259"/>
<glyph d="M449 273q0 29 -9.5 54t-27 43.5t-42.5 29t-57 10.5q-41 0 -74.5 -17t-58 -45.5t-38 -66t-13.5 -79.5q0 -60 35.5 -98.5t99.5 -38.5q41 0 75 16.5t58.5 45t38 66.5t13.5 80zM315 487q83 0 129 -46l3 2q-17 47 -44.5 94t-65.5 84l-119 -54l-40 47l120 53q-17 19 -37.5 37 t-39.5 33l79 45q23 -20 44.5 -40.5t35.5 -37.5l117 53l43 -45l-119 -54q57 -66 91.5 -152.5t34.5 -187.5q0 -60 -16 -119t-50.5 -106.5t-89 -76.5t-132.5 -29q-49 0 -90 15t-71 42.5t-46.5 65.5t-16.5 84q0 57 20 110t56.5 93.5t88.5 65t115 24.5z" unicode="ð" glyph-name="eth" horiz-adv-x="600"/>
<glyph d="M160 572q7 22 18 42.5t25.5 36.5t34 26t45.5 10q20 0 37.5 -6t34.5 -15q17 -8 33 -14.5t30 -6.5q21 0 34 15t21 32h55q-8 -22 -18.5 -42.5t-25.5 -36.5t-34.5 -26t-44.5 -10q-18 0 -35 6t-34 14q-17 9 -33.5 15.5t-31.5 6.5q-22 0 -35 -15t-21 -32h-55zM196 474 q-2 -14 -4.5 -37.5t-5.5 -39.5h2q26 41 66.5 65.5t91.5 24.5q78 0 118.5 -41.5t40.5 -104.5q0 -25 -4 -48l-52 -293h-93l46 262q6 27 6 53q0 41 -20 67t-72 26q-56 0 -97 -42.5t-54 -113.5l-44 -252h-93l65 371q4 19 8.5 49t6.5 54h88z" unicode="ñ" glyph-name="ntilde" horiz-adv-x="581"/>
<glyph d="M176 708h110l100 -144h-73zM445 273q0 29 -9.5 54t-27 43.5t-43 29t-56.5 10.5q-41 0 -75 -17t-58.5 -45.5t-38 -66t-13.5 -79.5q0 -60 36 -98.5t100 -38.5q41 0 75 16.5t58.5 45t38 66.5t13.5 80zM255 -13q-49 0 -90 15t-71 42.5t-47 65.5t-17 84q0 59 20.5 112t58 93.5 t90 64t116.5 23.5q49 0 90 -15t71 -42t46.5 -64.5t16.5 -83.5q0 -60 -20.5 -113.5t-58 -94t-89.5 -64t-116 -23.5z" unicode="ò" glyph-name="ograve" horiz-adv-x="600"/>
<glyph d="M349 564h-74l125 144h111zM445 273q0 29 -9.5 54t-27 43.5t-43 29t-56.5 10.5q-41 0 -75 -17t-58.5 -45.5t-38 -66t-13.5 -79.5q0 -60 36 -98.5t100 -38.5q41 0 75 16.5t58.5 45t38 66.5t13.5 80zM255 -13q-49 0 -90 15t-71 42.5t-47 65.5t-17 84q0 59 20.5 112t58 93.5 t90 64t116.5 23.5q49 0 90 -15t71 -42t46.5 -64.5t16.5 -83.5q0 -60 -20.5 -113.5t-58 -94t-89.5 -64t-116 -23.5z" unicode="ó" glyph-name="oacute" horiz-adv-x="600"/>
<glyph d="M515 564h-86l-59 99l-94 -99h-91l138 144h106zM445 273q0 29 -9.5 54t-27 43.5t-43 29t-56.5 10.5q-41 0 -75 -17t-58.5 -45.5t-38 -66t-13.5 -79.5q0 -60 36 -98.5t100 -38.5q41 0 75 16.5t58.5 45t38 66.5t13.5 80zM255 -13q-49 0 -90 15t-71 42.5t-47 65.5t-17 84 q0 59 20.5 112t58 93.5t90 64t116.5 23.5q49 0 90 -15t71 -42t46.5 -64.5t16.5 -83.5q0 -60 -20.5 -113.5t-58 -94t-89.5 -64t-116 -23.5z" unicode="ô" glyph-name="ocircumflex" horiz-adv-x="600"/>
<glyph d="M165 572q7 22 18 42.5t25.5 36.5t34 26t45.5 10q20 0 37.5 -6t34.5 -15q17 -8 33 -14.5t30 -6.5q21 0 34 15t21 32h55q-8 -22 -18.5 -42.5t-25.5 -36.5t-34.5 -26t-44.5 -10q-18 0 -35 6t-34 14q-17 9 -33.5 15.5t-31.5 6.5q-22 0 -35 -15t-21 -32h-55zM445 273 q0 29 -9.5 54t-27 43.5t-43 29t-56.5 10.5q-41 0 -75 -17t-58.5 -45.5t-38 -66t-13.5 -79.5q0 -60 36 -98.5t100 -38.5q41 0 75 16.5t58.5 45t38 66.5t13.5 80zM255 -13q-49 0 -90 15t-71 42.5t-47 65.5t-17 84q0 59 20.5 112t58 93.5t90 64t116.5 23.5q49 0 90 -15t71 -42 t46.5 -64.5t16.5 -83.5q0 -60 -20.5 -113.5t-58 -94t-89.5 -64t-116 -23.5z" unicode="õ" glyph-name="otilde" horiz-adv-x="600"/>
<glyph d="M510 647q0 -25 -16.5 -42.5t-42.5 -17.5q-24 0 -41 15t-17 42t18 44t43 17q24 0 40 -15.5t16 -42.5zM312 647q0 -25 -16.5 -42.5t-41.5 -17.5t-42 15t-17 42t18.5 44t42.5 17t40 -15.5t16 -42.5zM445 273q0 29 -9.5 54t-27 43.5t-43 29t-56.5 10.5q-41 0 -75 -17 t-58.5 -45.5t-38 -66t-13.5 -79.5q0 -60 36 -98.5t100 -38.5q41 0 75 16.5t58.5 45t38 66.5t13.5 80zM255 -13q-49 0 -90 15t-71 42.5t-47 65.5t-17 84q0 59 20.5 112t58 93.5t90 64t116.5 23.5q49 0 90 -15t71 -42t46.5 -64.5t16.5 -83.5q0 -60 -20.5 -113.5t-58 -94 t-89.5 -64t-116 -23.5z" unicode="ö" glyph-name="odieresis" horiz-adv-x="600"/>
<glyph d="M398 469q0 -26 -18.5 -45.5t-46.5 -19.5t-46.5 19.5t-18.5 45.5t18.5 45.5t46.5 19.5t46.5 -19.5t18.5 -45.5zM398 132q0 -26 -18.5 -45.5t-46.5 -19.5t-46.5 19.5t-18.5 45.5t18.5 45.5t46.5 19.5t46.5 -19.5t18.5 -45.5zM596 262h-526v82h526v-82z" unicode="÷" glyph-name="divide" horiz-adv-x="666"/>
<glyph d="M394 384q-17 12 -38 19t-47 7q-41 0 -75 -17t-58.5 -45.5t-38 -66t-13.5 -79.5q0 -37 13 -63zM169 95q36 -30 91 -30q41 0 75 16.5t58.5 45t38 66.5t13.5 80q0 39 -17 70zM497 408q42 -53 42 -126q0 -60 -20.5 -113.5t-58 -94t-89.5 -64t-116 -23.5q-45 0 -83 12.5 t-67 35.5l-60 -58l-39 38l62 59q-18 24 -28 54.5t-10 65.5q0 59 20.5 112t58 93.5t90 64t116.5 23.5q84 0 143 -42l57 54l36 -39z" unicode="ø" glyph-name="oslash" horiz-adv-x="600"/>
<glyph d="M162 708h110l100 -144h-73zM352 0q2 14 5 37.5t5 39.5h-2q-26 -41 -66.5 -65.5t-91.5 -24.5q-78 0 -118.5 41.5t-40.5 105.5q0 11 1.5 23t3.5 24l52 293h92l-46 -261q-2 -14 -3.5 -27.5t-1.5 -26.5q0 -41 20 -67t71 -26q56 0 97.5 42.5t53.5 113.5l45 252h92l-65 -371 q-4 -19 -8.5 -49t-6.5 -54h-88z" unicode="ù" glyph-name="ugrave" horiz-adv-x="581"/>
<glyph d="M344 564h-74l125 144h111zM352 0q2 14 5 37.5t5 39.5h-2q-26 -41 -66.5 -65.5t-91.5 -24.5q-78 0 -118.5 41.5t-40.5 105.5q0 11 1.5 23t3.5 24l52 293h92l-46 -261q-2 -14 -3.5 -27.5t-1.5 -26.5q0 -41 20 -67t71 -26q56 0 97.5 42.5t53.5 113.5l45 252h92l-65 -371 q-4 -19 -8.5 -49t-6.5 -54h-88z" unicode="ú" glyph-name="uacute" horiz-adv-x="581"/>
<glyph d="M490 564h-86l-59 99l-94 -99h-91l138 144h106zM352 0q2 14 5 37.5t5 39.5h-2q-26 -41 -66.5 -65.5t-91.5 -24.5q-78 0 -118.5 41.5t-40.5 105.5q0 11 1.5 23t3.5 24l52 293h92l-46 -261q-2 -14 -3.5 -27.5t-1.5 -26.5q0 -41 20 -67t71 -26q56 0 97.5 42.5t53.5 113.5 l45 252h92l-65 -371q-4 -19 -8.5 -49t-6.5 -54h-88z" unicode="û" glyph-name="ucircumflex" horiz-adv-x="581"/>
<glyph d="M495 647q0 -25 -16.5 -42.5t-42.5 -17.5q-24 0 -41 15t-17 42t18 44t43 17q24 0 40 -15.5t16 -42.5zM297 647q0 -25 -16.5 -42.5t-41.5 -17.5t-42 15t-17 42t18.5 44t42.5 17t40 -15.5t16 -42.5zM352 0q2 14 5 37.5t5 39.5h-2q-26 -41 -66.5 -65.5t-91.5 -24.5 q-78 0 -118.5 41.5t-40.5 105.5q0 11 1.5 23t3.5 24l52 293h92l-46 -261q-2 -14 -3.5 -27.5t-1.5 -26.5q0 -41 20 -67t71 -26q56 0 97.5 42.5t53.5 113.5l45 252h92l-65 -371q-4 -19 -8.5 -49t-6.5 -54h-88z" unicode="ü" glyph-name="udieresis" horiz-adv-x="581"/>
<glyph d="M308 564h-74l125 144h111zM207 101h2l210 373h100l-347 -586q-18 -30 -35 -53.5t-37 -40t-44 -25.5t-54 -9q-31 0 -59 7l13 82q22 -8 44 -8q32 0 53 20.5t44 58.5l47 80l-104 474h99z" unicode="ý" glyph-name="yacute" horiz-adv-x="495"/>
<glyph d="M475 272q0 58 -34 97.5t-98 39.5q-39 0 -73.5 -16.5t-60 -45t-40 -66.5t-14.5 -80q0 -30 9.5 -55.5t27.5 -43.5t43.5 -28.5t56.5 -10.5q41 0 75 16.5t58 44.5t37 66t13 82zM192 398q25 38 71 63t101 25q47 0 85 -15t65 -42t42 -64.5t15 -83.5q0 -61 -20.5 -114.5 t-56.5 -93.5t-85.5 -63t-107.5 -23t-100.5 24t-64.5 66h-2l-55 -317h-93l175 996h93l-64 -358h2z" unicode="þ" glyph-name="thorn" horiz-adv-x="633"/>
<glyph d="M461 647q0 -25 -16.5 -42.5t-42.5 -17.5q-24 0 -41 15t-17 42t18 44t43 17q24 0 40 -15.5t16 -42.5zM263 647q0 -25 -16.5 -42.5t-41.5 -17.5t-42 15t-17 42t18.5 44t42.5 17t40 -15.5t16 -42.5zM207 101h2l210 373h100l-347 -586q-18 -30 -35 -53.5t-37 -40t-44 -25.5 t-54 -9q-31 0 -59 7l13 82q22 -8 44 -8q32 0 53 20.5t44 58.5l47 80l-104 474h99z" unicode="ÿ" glyph-name="ydieresis" horiz-adv-x="495"/>
<glyph d="M594 797h-294l11 66h295zM206 261h267l-60 336zM47 0h-115l459 708h89l144 -708h-103l-34 174h-332z" unicode="Ā" glyph-name="Amacron" horiz-adv-x="681"/>
<glyph d="M457 597h-294l11 66h295zM345 228q-39 0 -81 -3.5t-76.5 -14t-56.5 -30.5t-22 -52q0 -20 7.5 -32.5t20 -20.5t28 -11t31.5 -3q31 0 58 10.5t47 28.5t33.5 42t18.5 51l7 35h-15zM370 296q2 14 3 22t1 15q0 42 -26 60.5t-74 18.5q-38 0 -76 -15t-66 -37l-38 62 q38 30 89 47.5t104 17.5q34 0 65.5 -7.5t56 -24t39.5 -43.5t15 -65q0 -9 -1 -23.5t-3 -24.5l-35 -192q-5 -28 -8 -57.5t-3 -49.5h-85q0 15 1.5 32t4.5 34h-2q-34 -40 -74 -58t-94 -18q-24 0 -50 6t-47.5 20.5t-35.5 38.5t-14 60q0 58 32 93.5t82.5 55t113.5 26t125 6.5z" unicode="ā" glyph-name="amacron" horiz-adv-x="537"/>
<glyph d="M618 908q-14 -66 -61.5 -102t-113.5 -36t-104 33.5t-38 104.5h56q0 -20 7 -34t19 -22.5t28.5 -12t35.5 -3.5q42 0 73.5 15.5t42.5 56.5h55zM206 261h267l-60 336zM47 0h-115l459 708h89l144 -708h-103l-34 174h-332z" unicode="Ă" glyph-name="Abreve" horiz-adv-x="681"/>
<glyph d="M478 708q-14 -66 -61.5 -102t-113.5 -36t-104 33.5t-38 104.5h56q0 -20 7 -34t19 -22.5t28.5 -12t35.5 -3.5q42 0 73.5 15.5t42.5 56.5h55zM345 228q-39 0 -81 -3.5t-76.5 -14t-56.5 -30.5t-22 -52q0 -20 7.5 -32.5t20 -20.5t28 -11t31.5 -3q31 0 58 10.5t47 28.5 t33.5 42t18.5 51l7 35h-15zM370 296q2 14 3 22t1 15q0 42 -26 60.5t-74 18.5q-38 0 -76 -15t-66 -37l-38 62q38 30 89 47.5t104 17.5q34 0 65.5 -7.5t56 -24t39.5 -43.5t15 -65q0 -9 -1 -23.5t-3 -24.5l-35 -192q-5 -28 -8 -57.5t-3 -49.5h-85q0 15 1.5 32t4.5 34h-2 q-34 -40 -74 -58t-94 -18q-24 0 -50 6t-47.5 20.5t-35.5 38.5t-14 60q0 58 32 93.5t82.5 55t113.5 26t125 6.5z" unicode="ă" glyph-name="abreve" horiz-adv-x="537"/>
<glyph d="M206 261h267l-60 336zM585 -191q-23 -17 -48 -27t-51 -10q-35 0 -59 18.5t-24 56.5q0 24 11 46t28.5 42t38 36.5t39.5 30.5l-33 172h-332l-108 -174h-115l459 708h89l144 -708h-52q-19 -16 -37 -32.5t-31.5 -33.5t-21.5 -34t-8 -33q0 -20 12 -27.5t29 -7.5q30 0 56 21z " unicode="Ą" glyph-name="Aogonek" horiz-adv-x="681"/>
<glyph d="M345 228q-39 0 -81 -3.5t-76.5 -14t-56.5 -30.5t-22 -52q0 -20 7.5 -32.5t20 -20.5t28 -11t31.5 -3q31 0 58 10.5t47 28.5t33.5 42t18.5 51l7 35h-15zM392 -191q-23 -17 -48 -27t-51 -10q-35 0 -59 18.5t-24 56.5q0 24 11.5 46.5t28.5 42t38 36.5t40 30q0 32 6 64h-2 q-34 -40 -74 -58t-94 -18q-24 0 -50 6t-47.5 20.5t-35.5 38.5t-14 60q0 58 32 93.5t82.5 55t113.5 26t125 6.5q2 14 3 22t1 15q0 42 -26 60.5t-74 18.5q-38 0 -76 -15t-66 -37l-38 62q38 30 89 47.5t104 17.5q34 0 65.5 -7.5t56 -24t39.5 -43.5t15 -65q0 -9 -1 -23.5 t-3 -24.5l-35 -192q-5 -28 -8 -57.5t-3 -49.5h-34q-19 -16 -37 -32.5t-31.5 -33.5t-21.5 -34t-8 -33q0 -20 12 -27.5t29 -7.5q30 0 56 21z" unicode="ą" glyph-name="aogonek" horiz-adv-x="537"/>
<glyph d="M487 764h-74l125 144h111zM652 111q-21 -27 -49 -50.5t-63 -41t-77.5 -27.5t-92.5 -10q-71 0 -129.5 22t-100 62t-64.5 96t-23 124q0 92 32.5 172t89.5 139.5t133.5 94t164.5 34.5q39 0 75.5 -8t67.5 -22.5t56 -34.5t40 -45l-81 -59q-8 15 -22 30t-34.5 27.5t-46.5 20 t-58 7.5q-69 0 -127 -29.5t-100 -77.5t-65 -110t-23 -127q0 -48 14.5 -90t43 -73.5t70.5 -49.5t96 -18q59 0 112 24t95 75z" unicode="Ć" glyph-name="Cacute" horiz-adv-x="700"/>
<glyph d="M339 564h-74l125 144h111zM419 353q-12 24 -40.5 40.5t-63.5 16.5q-41 0 -75.5 -16.5t-59.5 -45t-39 -66t-14 -79.5q0 -29 8.5 -54t25.5 -43.5t42.5 -29.5t59.5 -11q45 0 76 16t54 41l56 -52q-38 -38 -84.5 -60.5t-107.5 -22.5q-51 0 -92.5 15t-70.5 42t-45 64.5 t-16 83.5q0 59 20.5 112.5t58 94t90.5 64.5t118 24q26 0 51.5 -5t48 -14.5t41 -24.5t30.5 -36z" unicode="ć" glyph-name="cacute" horiz-adv-x="496"/>
<glyph d="M663 764h-86l-59 99l-94 -99h-91l138 144h106zM652 111q-21 -27 -49 -50.5t-63 -41t-77.5 -27.5t-92.5 -10q-71 0 -129.5 22t-100 62t-64.5 96t-23 124q0 92 32.5 172t89.5 139.5t133.5 94t164.5 34.5q39 0 75.5 -8t67.5 -22.5t56 -34.5t40 -45l-81 -59q-8 15 -22 30 t-34.5 27.5t-46.5 20t-58 7.5q-69 0 -127 -29.5t-100 -77.5t-65 -110t-23 -127q0 -48 14.5 -90t43 -73.5t70.5 -49.5t96 -18q59 0 112 24t95 75z" unicode="Ĉ" glyph-name="Ccircumflex" horiz-adv-x="700"/>
<glyph d="M513 564h-86l-59 99l-94 -99h-91l138 144h106zM419 353q-12 24 -40.5 40.5t-63.5 16.5q-41 0 -75.5 -16.5t-59.5 -45t-39 -66t-14 -79.5q0 -29 8.5 -54t25.5 -43.5t42.5 -29.5t59.5 -11q45 0 76 16t54 41l56 -52q-38 -38 -84.5 -60.5t-107.5 -22.5q-51 0 -92.5 15 t-70.5 42t-45 64.5t-16 83.5q0 59 20.5 112.5t58 94t90.5 64.5t118 24q26 0 51.5 -5t48 -14.5t41 -24.5t30.5 -36z" unicode="ĉ" glyph-name="ccircumflex" horiz-adv-x="496"/>
<glyph d="M561 847q0 -25 -17 -43t-42 -18q-24 0 -41.5 15t-17.5 42t18.5 44.5t42.5 17.5t40.5 -16t16.5 -42zM652 111q-21 -27 -49 -50.5t-63 -41t-77.5 -27.5t-92.5 -10q-71 0 -129.5 22t-100 62t-64.5 96t-23 124q0 92 32.5 172t89.5 139.5t133.5 94t164.5 34.5q39 0 75.5 -8 t67.5 -22.5t56 -34.5t40 -45l-81 -59q-8 15 -22 30t-34.5 27.5t-46.5 20t-58 7.5q-69 0 -127 -29.5t-100 -77.5t-65 -110t-23 -127q0 -48 14.5 -90t43 -73.5t70.5 -49.5t96 -18q59 0 112 24t95 75z" unicode="Ċ" glyph-name="Cdotaccent" horiz-adv-x="700"/>
<glyph d="M412 647q0 -25 -17 -43t-42 -18q-24 0 -41.5 15t-17.5 42t18.5 44.5t42.5 17.5t40.5 -16t16.5 -42zM419 353q-12 24 -40.5 40.5t-63.5 16.5q-41 0 -75.5 -16.5t-59.5 -45t-39 -66t-14 -79.5q0 -29 8.5 -54t25.5 -43.5t42.5 -29.5t59.5 -11q45 0 76 16t54 41l56 -52 q-38 -38 -84.5 -60.5t-107.5 -22.5q-51 0 -92.5 15t-70.5 42t-45 64.5t-16 83.5q0 59 20.5 112.5t58 94t90.5 64.5t118 24q26 0 51.5 -5t48 -14.5t41 -24.5t30.5 -36z" unicode="ċ" glyph-name="cdotaccent" horiz-adv-x="496"/>
<glyph d="M543 764h-106l-86 144h87l58 -99l94 99h90zM652 111q-21 -27 -49 -50.5t-63 -41t-77.5 -27.5t-92.5 -10q-71 0 -129.5 22t-100 62t-64.5 96t-23 124q0 92 32.5 172t89.5 139.5t133.5 94t164.5 34.5q39 0 75.5 -8t67.5 -22.5t56 -34.5t40 -45l-81 -59q-8 15 -22 30 t-34.5 27.5t-46.5 20t-58 7.5q-69 0 -127 -29.5t-100 -77.5t-65 -110t-23 -127q0 -48 14.5 -90t43 -73.5t70.5 -49.5t96 -18q59 0 112 24t95 75z" unicode="Č" glyph-name="Ccaron" horiz-adv-x="700"/>
<glyph d="M391 564h-106l-86 144h87l58 -99l94 99h90zM419 353q-12 24 -40.5 40.5t-63.5 16.5q-41 0 -75.5 -16.5t-59.5 -45t-39 -66t-14 -79.5q0 -29 8.5 -54t25.5 -43.5t42.5 -29.5t59.5 -11q45 0 76 16t54 41l56 -52q-38 -38 -84.5 -60.5t-107.5 -22.5q-51 0 -92.5 15t-70.5 42 t-45 64.5t-16 83.5q0 59 20.5 112.5t58 94t90.5 64.5t118 24q26 0 51.5 -5t48 -14.5t41 -24.5t30.5 -36z" unicode="č" glyph-name="ccaron" horiz-adv-x="496"/>
<glyph d="M466 764h-106l-86 144h87l58 -99l94 99h90zM144 86h145q80 0 140.5 26.5t101.5 70.5t61.5 100.5t20.5 116.5q0 46 -15 86.5t-45.5 71t-78 48.5t-112.5 18h-123zM157 708h229q60 0 119 -16.5t106 -52t76 -92t29 -135.5q0 -93 -32.5 -169t-90.5 -130t-137 -83.5t-172 -29.5 h-252z" unicode="Ď" glyph-name="Dcaron" horiz-adv-x="757"/>
<glyph d="M703 518h-77l104 190h93zM126 202q0 -58 34 -97.5t98 -39.5q39 0 73.5 16.5t60 45t40 66.5t14.5 80q0 30 -9.5 55.5t-27.5 43.5t-43 28.5t-56 10.5q-42 0 -76 -16.5t-58 -44.5t-37 -66.5t-13 -81.5zM30 193q0 61 20 114.5t56 93.5t85.5 63t108.5 23q58 0 100.5 -24 t64.5 -67h2l63 360h93l-134 -756h-90l13 76h-2q-26 -39 -72 -63.5t-101 -24.5q-47 0 -85 15t-65 42t-42 64.5t-15 83.5z" unicode="ď" glyph-name="dcaron" horiz-adv-x="628"/>
<glyph d="M144 86h145q80 0 140.5 26.5t101.5 70.5t61.5 100.5t20.5 116.5q0 46 -15 86.5t-45.5 71t-78 48.5t-112.5 18h-123l-39 -219h230l-14 -69h-228zM157 708h229q60 0 119 -16.5t106 -52t76 -92t29 -135.5q0 -93 -32.5 -169t-90.5 -130t-137 -83.5t-172 -29.5h-252l59 336 h-66l13 69h66z" unicode="Đ" glyph-name="Dcroat" horiz-adv-x="757"/>
<glyph d="M126 202q0 -58 34 -97.5t98 -39.5q39 0 73.5 16.5t60 45t40 66.5t14.5 80q0 30 -9.5 55.5t-27.5 43.5t-43 28.5t-56 10.5q-42 0 -76 -16.5t-58 -44.5t-37 -66.5t-13 -81.5zM508 633l22 123h93l-22 -123h57l-11 -63h-57l-101 -570h-90l13 76h-2q-26 -39 -72 -63.5 t-101 -24.5q-47 0 -85 15t-65 42t-42 64.5t-15 83.5q0 61 20 114.5t56 93.5t85.5 63t108.5 23q58 0 100.5 -24t64.5 -67h2l30 174h-163l11 63h163z" unicode="đ" glyph-name="dcroat" horiz-adv-x="628"/>
<glyph d="M533 797h-294l11 66h295zM144 87h367l-15 -87h-464l125 708h436l-15 -86h-340l-37 -214h324l-15 -83h-324z" unicode="Ē" glyph-name="Emacron" horiz-adv-x="582"/>
<glyph d="M485 597h-294l11 66h295zM415 277q1 7 1.5 15t0.5 15q0 46 -30 76.5t-87 30.5q-34 0 -62 -12t-49.5 -31t-36 -44t-20.5 -50h283zM122 209q-1 -5 -1 -8.5v-7.5q0 -28 10.5 -51.5t29 -41t44 -27t54.5 -9.5q51 0 87.5 20.5t61.5 51.5l55 -52q-42 -48 -96 -72.5t-117 -24.5 q-47 0 -87.5 14t-70 41t-46 66t-16.5 89q0 59 21 112t58 92.5t88 62.5t110 23q91 0 144 -49.5t53 -138.5q0 -14 -2.5 -40.5t-7.5 -49.5h-372z" unicode="ē" glyph-name="emacron" horiz-adv-x="565"/>
<glyph d="M562 908q-14 -66 -61.5 -102t-113.5 -36t-104 33.5t-38 104.5h56q0 -20 7 -34t19 -22.5t28.5 -12t35.5 -3.5q42 0 73.5 15.5t42.5 56.5h55zM144 87h367l-15 -87h-464l125 708h436l-15 -86h-340l-37 -214h324l-15 -83h-324z" unicode="Ĕ" glyph-name="Ebreve" horiz-adv-x="582"/>
<glyph d="M509 708q-14 -66 -61.5 -102t-113.5 -36t-104 33.5t-38 104.5h56q0 -20 7 -34t19 -22.5t28.5 -12t35.5 -3.5q42 0 73.5 15.5t42.5 56.5h55zM415 277q1 7 1.5 15t0.5 15q0 46 -30 76.5t-87 30.5q-34 0 -62 -12t-49.5 -31t-36 -44t-20.5 -50h283zM122 209q-1 -5 -1 -8.5 v-7.5q0 -28 10.5 -51.5t29 -41t44 -27t54.5 -9.5q51 0 87.5 20.5t61.5 51.5l55 -52q-42 -48 -96 -72.5t-117 -24.5q-47 0 -87.5 14t-70 41t-46 66t-16.5 89q0 59 21 112t58 92.5t88 62.5t110 23q91 0 144 -49.5t53 -138.5q0 -14 -2.5 -40.5t-7.5 -49.5h-372z" unicode="ĕ" glyph-name="ebreve" horiz-adv-x="565"/>
<glyph d="M452 847q0 -25 -17 -43t-42 -18q-24 0 -41.5 15t-17.5 42t18.5 44.5t42.5 17.5t40.5 -16t16.5 -42zM144 87h367l-15 -87h-464l125 708h436l-15 -86h-340l-37 -214h324l-15 -83h-324z" unicode="Ė" glyph-name="Edotaccent" horiz-adv-x="582"/>
<glyph d="M403 647q0 -25 -17 -43t-42 -18q-24 0 -41.5 15t-17.5 42t18.5 44.5t42.5 17.5t40.5 -16t16.5 -42zM415 277q1 7 1.5 15t0.5 15q0 46 -30 76.5t-87 30.5q-34 0 -62 -12t-49.5 -31t-36 -44t-20.5 -50h283zM122 209q-1 -5 -1 -8.5v-7.5q0 -28 10.5 -51.5t29 -41t44 -27 t54.5 -9.5q51 0 87.5 20.5t61.5 51.5l55 -52q-42 -48 -96 -72.5t-117 -24.5q-47 0 -87.5 14t-70 41t-46 66t-16.5 89q0 59 21 112t58 92.5t88 62.5t110 23q91 0 144 -49.5t53 -138.5q0 -14 -2.5 -40.5t-7.5 -49.5h-372z" unicode="ė" glyph-name="edotaccent" horiz-adv-x="565"/>
<glyph d="M490 -191q-23 -17 -48 -27t-51 -10q-35 0 -59 18.5t-24 56.5q0 23 11 45t27.5 41.5t36.5 36t39 30.5h-390l125 708h436l-15 -86h-340l-37 -214h324l-15 -83h-324l-42 -238h367l-15 -87h-19q-19 -16 -37 -32.5t-31.5 -33.5t-21.5 -34t-8 -33q0 -20 12 -27.5t29 -7.5 q30 0 56 21z" unicode="Ę" glyph-name="Eogonek" horiz-adv-x="582"/>
<glyph d="M415 277q1 7 1.5 15t0.5 15q0 46 -30 76.5t-87 30.5q-34 0 -62 -12t-49.5 -31t-36 -44t-20.5 -50h283zM314 -191q-23 -17 -48 -27t-51 -10q-35 0 -59 18.5t-24 56.5q0 21 8.5 40.5t22.5 37.5t31.5 33.5t35.5 29.5q-44 3 -80.5 18.5t-63 42t-41.5 64t-15 84.5q0 59 21 112 t58 92.5t88 62.5t110 23q91 0 144 -49.5t53 -138.5q0 -14 -2.5 -40.5t-7.5 -49.5h-372q-1 -5 -1 -8.5v-7.5q0 -28 10.5 -51.5t29 -41t44 -27t54.5 -9.5q51 0 87.5 20.5t61.5 51.5l55 -52q-35 -41 -79 -64t-95 -30q-35 -30 -60.5 -61.5t-25.5 -61.5q0 -20 12 -27.5t29 -7.5 q30 0 56 21z" unicode="ę" glyph-name="eogonek" horiz-adv-x="565"/>
<glyph d="M437 764h-106l-86 144h87l58 -99l94 99h90zM144 87h367l-15 -87h-464l125 708h436l-15 -86h-340l-37 -214h324l-15 -83h-324z" unicode="Ě" glyph-name="Ecaron" horiz-adv-x="582"/>
<glyph d="M378 564h-106l-86 144h87l58 -99l94 99h90zM415 277q1 7 1.5 15t0.5 15q0 46 -30 76.5t-87 30.5q-34 0 -62 -12t-49.5 -31t-36 -44t-20.5 -50h283zM122 209q-1 -5 -1 -8.5v-7.5q0 -28 10.5 -51.5t29 -41t44 -27t54.5 -9.5q51 0 87.5 20.5t61.5 51.5l55 -52 q-42 -48 -96 -72.5t-117 -24.5q-47 0 -87.5 14t-70 41t-46 66t-16.5 89q0 59 21 112t58 92.5t88 62.5t110 23q91 0 144 -49.5t53 -138.5q0 -14 -2.5 -40.5t-7.5 -49.5h-372z" unicode="ě" glyph-name="ecaron" horiz-adv-x="565"/>
<glyph d="M654 764h-86l-59 99l-94 -99h-91l138 144h106zM387 67q99 1 164 38l35 198h-160l16 84h254l-60 -343q-58 -31 -124.5 -46.5t-136.5 -15.5q-72 0 -131.5 22t-102 62t-65.5 96t-23 124q0 92 32.5 172t89.5 139.5t133.5 94t164.5 34.5q78 0 143.5 -28t100.5 -82l-81 -59 q-20 33 -61 59t-105 26q-69 0 -127 -29.5t-100 -77.5t-65 -110t-23 -127q0 -49 15.5 -91.5t45 -73.5t72.5 -48.5t99 -17.5z" unicode="Ĝ" glyph-name="Gcircumflex" horiz-adv-x="755"/>
<glyph d="M527 564h-86l-59 99l-94 -99h-91l138 144h106zM134 208q0 -29 9 -53.5t26 -43.5t42 -29.5t57 -10.5q40 0 74 16.5t59 44t39 64.5t14 78q0 59 -36.5 98t-99.5 39q-41 0 -75 -15.5t-58 -42.5t-37.5 -64t-13.5 -81zM51 -83q26 -35 69.5 -55.5t93.5 -20.5q47 0 80 13.5 t55.5 37t35.5 55.5t21 69l12 63h-2q-29 -39 -73 -61.5t-98 -22.5q-47 0 -85 15.5t-65 42.5t-41.5 65t-14.5 83q0 59 20 111t56 91t85 61.5t108 22.5q58 0 101 -24t62 -66h3l13 77h90l-79 -451q-9 -51 -26.5 -98.5t-50 -84t-83 -58.5t-125.5 -22q-64 0 -125.5 23.5 t-98.5 66.5z" unicode="ĝ" glyph-name="gcircumflex" horiz-adv-x="630"/>
<glyph d="M660 908q-14 -66 -61.5 -102t-113.5 -36t-104 33.5t-38 104.5h56q0 -20 7 -34t19 -22.5t28.5 -12t35.5 -3.5q42 0 73.5 15.5t42.5 56.5h55zM387 67q99 1 164 38l35 198h-160l16 84h254l-60 -343q-58 -31 -124.5 -46.5t-136.5 -15.5q-72 0 -131.5 22t-102 62t-65.5 96 t-23 124q0 92 32.5 172t89.5 139.5t133.5 94t164.5 34.5q78 0 143.5 -28t100.5 -82l-81 -59q-20 33 -61 59t-105 26q-69 0 -127 -29.5t-100 -77.5t-65 -110t-23 -127q0 -49 15.5 -91.5t45 -73.5t72.5 -48.5t99 -17.5z" unicode="Ğ" glyph-name="Gbreve" horiz-adv-x="755"/>
<glyph d="M535 708q-14 -66 -61.5 -102t-113.5 -36t-104 33.5t-38 104.5h56q0 -20 7 -34t19 -22.5t28.5 -12t35.5 -3.5q42 0 73.5 15.5t42.5 56.5h55zM134 208q0 -29 9 -53.5t26 -43.5t42 -29.5t57 -10.5q40 0 74 16.5t59 44t39 64.5t14 78q0 59 -36.5 98t-99.5 39q-41 0 -75 -15.5 t-58 -42.5t-37.5 -64t-13.5 -81zM51 -83q26 -35 69.5 -55.5t93.5 -20.5q47 0 80 13.5t55.5 37t35.5 55.5t21 69l12 63h-2q-29 -39 -73 -61.5t-98 -22.5q-47 0 -85 15.5t-65 42.5t-41.5 65t-14.5 83q0 59 20 111t56 91t85 61.5t108 22.5q58 0 101 -24t62 -66h3l13 77h90 l-79 -451q-9 -51 -26.5 -98.5t-50 -84t-83 -58.5t-125.5 -22q-64 0 -125.5 23.5t-98.5 66.5z" unicode="ğ" glyph-name="gbreve" horiz-adv-x="630"/>
<glyph d="M560 847q0 -25 -17 -43t-42 -18q-24 0 -41.5 15t-17.5 42t18.5 44.5t42.5 17.5t40.5 -16t16.5 -42zM387 67q99 1 164 38l35 198h-160l16 84h254l-60 -343q-58 -31 -124.5 -46.5t-136.5 -15.5q-72 0 -131.5 22t-102 62t-65.5 96t-23 124q0 92 32.5 172t89.5 139.5 t133.5 94t164.5 34.5q78 0 143.5 -28t100.5 -82l-81 -59q-20 33 -61 59t-105 26q-69 0 -127 -29.5t-100 -77.5t-65 -110t-23 -127q0 -49 15.5 -91.5t45 -73.5t72.5 -48.5t99 -17.5z" unicode="Ġ" glyph-name="Gdotaccent" horiz-adv-x="755"/>
<glyph d="M428 647q0 -25 -17 -43t-42 -18q-24 0 -41.5 15t-17.5 42t18.5 44.5t42.5 17.5t40.5 -16t16.5 -42zM134 208q0 -29 9 -53.5t26 -43.5t42 -29.5t57 -10.5q40 0 74 16.5t59 44t39 64.5t14 78q0 59 -36.5 98t-99.5 39q-41 0 -75 -15.5t-58 -42.5t-37.5 -64t-13.5 -81z M51 -83q26 -35 69.5 -55.5t93.5 -20.5q47 0 80 13.5t55.5 37t35.5 55.5t21 69l12 63h-2q-29 -39 -73 -61.5t-98 -22.5q-47 0 -85 15.5t-65 42.5t-41.5 65t-14.5 83q0 59 20 111t56 91t85 61.5t108 22.5q58 0 101 -24t62 -66h3l13 77h90l-79 -451q-9 -51 -26.5 -98.5t-50 -84 t-83 -58.5t-125.5 -22q-64 0 -125.5 23.5t-98.5 66.5z" unicode="ġ" glyph-name="gdotaccent" horiz-adv-x="630"/>
<glyph d="M294 -235h-77l104 190h93zM387 67q99 1 164 38l35 198h-160l16 84h254l-60 -343q-58 -31 -124.5 -46.5t-136.5 -15.5q-72 0 -131.5 22t-102 62t-65.5 96t-23 124q0 92 32.5 172t89.5 139.5t133.5 94t164.5 34.5q78 0 143.5 -28t100.5 -82l-81 -59q-20 33 -61 59t-105 26 q-69 0 -127 -29.5t-100 -77.5t-65 -110t-23 -127q0 -49 15.5 -91.5t45 -73.5t72.5 -48.5t99 -17.5z" unicode="Ģ" glyph-name="Gcommaaccent" horiz-adv-x="755"/>
<glyph d="M414 759h77l-104 -195h-93zM134 208q0 -29 9 -53.5t26 -43.5t42 -29.5t57 -10.5q40 0 74 16.5t59 44t39 64.5t14 78q0 59 -36.5 98t-99.5 39q-41 0 -75 -15.5t-58 -42.5t-37.5 -64t-13.5 -81zM51 -83q26 -35 69.5 -55.5t93.5 -20.5q47 0 80 13.5t55.5 37t35.5 55.5t21 69 l12 63h-2q-29 -39 -73 -61.5t-98 -22.5q-47 0 -85 15.5t-65 42.5t-41.5 65t-14.5 83q0 59 20 111t56 91t85 61.5t108 22.5q58 0 101 -24t62 -66h3l13 77h90l-79 -451q-9 -51 -26.5 -98.5t-50 -84t-83 -58.5t-125.5 -22q-64 0 -125.5 23.5t-98.5 66.5z" unicode="ģ" glyph-name="gcommaaccent" horiz-adv-x="630"/>
<glyph d="M602 764h-86l-59 99l-94 -99h-91l138 144h106zM157 708h98l-53 -297h350l53 297h98l-125 -708h-98l57 325h-350l-57 -325h-98z" unicode="Ĥ" glyph-name="Hcircumflex" horiz-adv-x="719"/>
<glyph d="M551 796h-86l-59 99l-94 -99h-91l138 144h106zM347 487q78 0 118 -41.5t40 -104.5q0 -25 -4 -48l-52 -293h-93l46 262q6 27 6 53q0 41 -20 67t-72 26q-57 0 -97.5 -42.5t-53.5 -114.5l-44 -251h-93l133 756h93l-62 -354h2q23 36 62.5 60.5t90.5 24.5z" unicode="ĥ" glyph-name="hcircumflex" horiz-adv-x="581"/>
<glyph d="M552 411l16 89h-350l-16 -89h350zM157 708h98l-26 -145h350l26 145h98l-125 -708h-98l57 325h-350l-57 -325h-98z" unicode="Ħ" glyph-name="Hbar" horiz-adv-x="719"/>
<glyph d="M139 633l22 123h93l-22 -123h158l-11 -63h-158l-29 -168h2q23 36 62.5 60.5t90.5 24.5q78 0 118 -41.5t40 -104.5q0 -25 -4 -48l-52 -293h-93l46 262q6 27 6 53q0 41 -20 67t-72 26q-57 0 -97.5 -42.5t-53.5 -114.5l-44 -251h-93l100 570h-61l11 63h61z" unicode="ħ" glyph-name="hbar" horiz-adv-x="581"/>
<glyph d="M39 772q7 22 18 42.5t25.5 36.5t34 26t45.5 10q20 0 37.5 -6t34.5 -15q17 -8 33 -14.5t30 -6.5q21 0 34 15t21 32h55q-8 -22 -18.5 -42.5t-25.5 -36.5t-34.5 -26t-44.5 -10q-18 0 -35 6t-34 14q-17 9 -33.5 15.5t-31.5 6.5q-22 0 -35 -15t-21 -32h-55zM130 0h-98l125 708 h98z" unicode="Ĩ" glyph-name="Itilde" horiz-adv-x="271"/>
<glyph d="M-6 572q7 22 18 42.5t25.5 36.5t34 26t45.5 10q20 0 37.5 -6t34.5 -15q17 -8 33 -14.5t30 -6.5q21 0 34 15t21 32h55q-8 -22 -18.5 -42.5t-25.5 -36.5t-34.5 -26t-44.5 -10q-18 0 -35 6t-34 14q-17 9 -33.5 15.5t-31.5 6.5q-22 0 -35 -15t-21 -32h-55zM121 0h-92l83 474 h93z" unicode="ĩ" glyph-name="itilde" horiz-adv-x="259"/>
<glyph d="M366 797h-294l11 66h295zM130 0h-98l125 708h98z" unicode="Ī" glyph-name="Imacron" horiz-adv-x="271"/>
<glyph d="M322 597h-294l11 66h295zM121 0h-92l83 474h93z" unicode="ī" glyph-name="imacron" horiz-adv-x="259"/>
<glyph d="M388 918q-6 -32 -21.5 -57t-38 -42t-50.5 -26.5t-59 -9.5q-64 0 -101 33t-37 102h53q0 -41 26 -57t61 -16q39 0 72 17.5t41 55.5h54zM130 0h-96l125 708h96z" unicode="Ĭ" glyph-name="Ibreve" horiz-adv-x="274"/>
<glyph d="M338 686q-6 -32 -21.5 -57t-38 -42.5t-50.5 -26.5t-59 -9q-64 0 -101 32.5t-37 102.5h53q0 -41 26 -57t61 -16q39 0 72 17.5t41 55.5h54zM121 0h-91l84 476h91z" unicode="ĭ" glyph-name="ibreve" horiz-adv-x="261"/>
<glyph d="M139 -191q-23 -17 -48 -27t-51 -10q-35 0 -59 18.5t-24 56.5q0 23 11 45t27.5 41.5t36.5 36t39 30.5h-39l125 708h98l-125 -708h-4q-19 -16 -37 -32.5t-31.5 -33.5t-21.5 -34t-8 -33q0 -20 12 -27.5t29 -7.5q30 0 56 21z" unicode="Į" glyph-name="Iogonek" horiz-adv-x="271"/>
<glyph d="M245 647q0 -25 -17 -43t-42 -18q-24 0 -41.5 15t-17.5 42t18.5 44.5t42.5 17.5t40.5 -16t16.5 -42zM129 -191q-23 -17 -48 -27t-51 -10q-35 0 -59 18.5t-24 56.5q0 23 11 45t27.5 41.5t36.5 36t39 30.5h-32l83 474h93l-84 -474h-5q-19 -16 -37 -32.5t-31.5 -33.5 t-21.5 -34t-8 -33q0 -20 12 -27.5t29 -7.5q30 0 56 21z" unicode="į" glyph-name="iogonek" horiz-adv-x="259"/>
<glyph d="M284 847q0 -25 -17 -43t-42 -18q-24 0 -41.5 15t-17.5 42t18.5 44.5t42.5 17.5t40.5 -16t16.5 -42zM130 0h-98l125 708h98z" unicode="İ" glyph-name="Idotaccent" horiz-adv-x="271"/>
<glyph d="M121 0h-92l83 474h93z" unicode="ı" glyph-name="dotlessi" horiz-adv-x="259"/>
<glyph d="M599 764h-86l-59 99l-94 -99h-91l138 144h106zM72 155q5 -36 29 -61.5t65 -25.5q34 0 56.5 12t37 33t23 49t13.5 59l86 487h98l-87 -492q-6 -38 -18.5 -79t-37.5 -75.5t-65 -57t-103 -22.5q-41 0 -73.5 11t-56 31t-38 46.5t-18.5 58.5z" unicode="Ĵ" glyph-name="Jcircumflex" horiz-adv-x="491"/>
<glyph d="M336 564h-86l-59 99l-94 -99h-91l138 144h106zM-99 -155q18 -5 37 -5q21 0 35 8t23 21.5t14 32t9 39.5l94 533h93l-95 -536q-6 -35 -16.5 -67.5t-30 -57t-50.5 -39t-77 -14.5q-13 0 -28.5 2t-26.5 4z" unicode="ĵ" glyph-name="jcircumflex" horiz-adv-x="259"/>
<glyph d="M205 -235h-77l104 190h93zM198 392h2l339 316h136l-377 -331l285 -377h-127l-261 366h-2l-64 -366h-97l125 708h97z" unicode="Ķ" glyph-name="Kcommaaccent" horiz-adv-x="621"/>
<glyph d="M156 -235h-77l104 190h93zM169 267h3l228 207h123l-256 -220l195 -254h-117l-177 246h-3l-43 -246h-93l133 756h93z" unicode="ķ" glyph-name="kcommaaccent" horiz-adv-x="504"/>
<glyph d="M251 764h-74l125 144h111zM144 87h317l-14 -87h-415l125 708h98z" unicode="Ĺ" glyph-name="Lacute" horiz-adv-x="511"/>
<glyph d="M238 792h-74l125 144h111zM122 0h-93l133 756h94z" unicode="ĺ" glyph-name="lacute" horiz-adv-x="260"/>
<glyph d="M168 -235h-77l104 190h93zM144 87h317l-14 -87h-415l125 708h98z" unicode="Ļ" glyph-name="Lcommaaccent" horiz-adv-x="511"/>
<glyph d="M10 -235h-77l104 190h93zM122 0h-93l133 756h94z" unicode="ļ" glyph-name="lcommaaccent" horiz-adv-x="260"/>
<glyph d="M364 518h-77l104 190h93zM144 87h317l-14 -87h-415l125 708h98z" unicode="Ľ" glyph-name="Lcaron" horiz-adv-x="511"/>
<glyph d="M328 518h-77l104 190h93zM122 0h-93l133 756h94z" unicode="ľ" glyph-name="lcaron" horiz-adv-x="260"/>
<glyph d="M446 337q0 -25 -17 -43t-42 -18q-24 0 -41.5 15t-17.5 42t18.5 44.5t42.5 17.5t40.5 -16t16.5 -42zM144 87h317l-14 -87h-415l125 708h98z" unicode="Ŀ" glyph-name="Ldot" horiz-adv-x="511"/>
<glyph d="M366 337q0 -25 -17 -43t-42 -18q-24 0 -41.5 15t-17.5 42t18.5 44.5t42.5 17.5t40.5 -16t16.5 -42zM122 0h-93l133 756h94z" unicode="ŀ" glyph-name="ldot" horiz-adv-x="350"/>
<glyph d="M198 384l244 184l-16 -89l-244 -184l-37 -208h317l-15 -87h-415l40 222l-89 -66l16 90l88 65l70 397h98z" unicode="Ł" glyph-name="Lslash" horiz-adv-x="511"/>
<glyph d="M206 479l89 77l-16 -90l-89 -75l-69 -391h-92l56 315l-89 -76l16 90l89 76l61 351h93z" unicode="ł" glyph-name="lslash" horiz-adv-x="260"/>
<glyph d="M459 764h-74l125 144h111zM541 138h2l100 570h98l-125 -708h-122l-260 582h-2l-103 -582h-97l125 708h125z" unicode="Ń" glyph-name="Nacute" horiz-adv-x="768"/>
<glyph d="M336 564h-74l125 144h111zM196 474q-2 -14 -4.5 -37.5t-5.5 -39.5h2q26 41 66.5 65.5t91.5 24.5q78 0 118.5 -41.5t40.5 -104.5q0 -25 -4 -48l-52 -293h-93l46 262q6 27 6 53q0 41 -20 67t-72 26q-56 0 -97 -42.5t-54 -113.5l-44 -252h-93l65 371q4 19 8.5 49t6.5 54h88z " unicode="ń" glyph-name="nacute" horiz-adv-x="581"/>
<glyph d="M242 -235h-77l104 190h93zM541 138h2l100 570h98l-125 -708h-122l-260 582h-2l-103 -582h-97l125 708h125z" unicode="Ņ" glyph-name="Ncommaaccent" horiz-adv-x="768"/>
<glyph d="M165 -235h-77l104 190h93zM196 474q-2 -14 -4.5 -37.5t-5.5 -39.5h2q26 41 66.5 65.5t91.5 24.5q78 0 118.5 -41.5t40.5 -104.5q0 -25 -4 -48l-52 -293h-93l46 262q6 27 6 53q0 41 -20 67t-72 26q-56 0 -97 -42.5t-54 -113.5l-44 -252h-93l65 371q4 19 8.5 49t6.5 54h88z " unicode="ņ" glyph-name="ncommaaccent" horiz-adv-x="581"/>
<glyph d="M507 764h-106l-86 144h87l58 -99l94 99h90zM541 138h2l100 570h98l-125 -708h-122l-260 582h-2l-103 -582h-97l125 708h125z" unicode="Ň" glyph-name="Ncaron" horiz-adv-x="768"/>
<glyph d="M383 564h-106l-86 144h87l58 -99l94 99h90zM196 474q-2 -14 -4.5 -37.5t-5.5 -39.5h2q26 41 66.5 65.5t91.5 24.5q78 0 118.5 -41.5t40.5 -104.5q0 -25 -4 -48l-52 -293h-93l46 262q6 27 6 53q0 41 -20 67t-72 26q-56 0 -97 -42.5t-54 -113.5l-44 -252h-93l65 371 q4 19 8.5 49t6.5 54h88z" unicode="ň" glyph-name="ncaron" horiz-adv-x="581"/>
<glyph d="M643 797h-294l11 66h295zM688 412q0 48 -15 89.5t-44 73t-71.5 49.5t-97.5 18q-69 0 -125.5 -29.5t-96.5 -78t-61.5 -110.5t-21.5 -127q0 -47 15 -89t43.5 -73.5t71 -49.5t98.5 -18q70 0 126.5 29t96 77.5t61 110.5t21.5 128zM381 -18q-74 0 -134.5 21.5t-103.5 61.5 t-66.5 96.5t-23.5 126.5q0 91 31.5 170.5t87 139t130.5 94t163 34.5q72 0 132 -21.5t103 -61.5t66.5 -96t23.5 -126q0 -91 -30.5 -171t-85.5 -139.5t-130 -94t-163 -34.5z" unicode="Ō" glyph-name="Omacron" horiz-adv-x="831"/>
<glyph d="M489 597h-294l11 66h295zM445 273q0 29 -9.5 54t-27 43.5t-43 29t-56.5 10.5q-41 0 -75 -17t-58.5 -45.5t-38 -66t-13.5 -79.5q0 -60 36 -98.5t100 -38.5q41 0 75 16.5t58.5 45t38 66.5t13.5 80zM255 -13q-49 0 -90 15t-71 42.5t-47 65.5t-17 84q0 59 20.5 112t58 93.5 t90 64t116.5 23.5q49 0 90 -15t71 -42t46.5 -64.5t16.5 -83.5q0 -60 -20.5 -113.5t-58 -94t-89.5 -64t-116 -23.5z" unicode="ō" glyph-name="omacron" horiz-adv-x="600"/>
<glyph d="M662 908q-14 -66 -61.5 -102t-113.5 -36t-104 33.5t-38 104.5h56q0 -20 7 -34t19 -22.5t28.5 -12t35.5 -3.5q42 0 73.5 15.5t42.5 56.5h55zM688 412q0 48 -15 89.5t-44 73t-71.5 49.5t-97.5 18q-69 0 -125.5 -29.5t-96.5 -78t-61.5 -110.5t-21.5 -127q0 -47 15 -89 t43.5 -73.5t71 -49.5t98.5 -18q70 0 126.5 29t96 77.5t61 110.5t21.5 128zM381 -18q-74 0 -134.5 21.5t-103.5 61.5t-66.5 96.5t-23.5 126.5q0 91 31.5 170.5t87 139t130.5 94t163 34.5q72 0 132 -21.5t103 -61.5t66.5 -96t23.5 -126q0 -91 -30.5 -171t-85.5 -139.5 t-130 -94t-163 -34.5z" unicode="Ŏ" glyph-name="Obreve" horiz-adv-x="831"/>
<glyph d="M509 708q-14 -66 -61.5 -102t-113.5 -36t-104 33.5t-38 104.5h56q0 -20 7 -34t19 -22.5t28.5 -12t35.5 -3.5q42 0 73.5 15.5t42.5 56.5h55zM445 273q0 29 -9.5 54t-27 43.5t-43 29t-56.5 10.5q-41 0 -75 -17t-58.5 -45.5t-38 -66t-13.5 -79.5q0 -60 36 -98.5t100 -38.5 q41 0 75 16.5t58.5 45t38 66.5t13.5 80zM255 -13q-49 0 -90 15t-71 42.5t-47 65.5t-17 84q0 59 20.5 112t58 93.5t90 64t116.5 23.5q49 0 90 -15t71 -42t46.5 -64.5t16.5 -83.5q0 -60 -20.5 -113.5t-58 -94t-89.5 -64t-116 -23.5z" unicode="ŏ" glyph-name="obreve" horiz-adv-x="600"/>
<glyph d="M432 764h-76l125 144h113zM612 764h-76l126 144h113zM688 412q0 48 -15 89.5t-44 73t-71.5 49.5t-97.5 18q-69 0 -125.5 -29.5t-96.5 -78t-61.5 -110.5t-21.5 -127q0 -47 15 -89t43.5 -73.5t71 -49.5t98.5 -18q70 0 126.5 29t96 77.5t61 110.5t21.5 128zM381 -18 q-74 0 -134.5 21.5t-103.5 61.5t-66.5 96.5t-23.5 126.5q0 91 31.5 170.5t87 139t130.5 94t163 34.5q72 0 132 -21.5t103 -61.5t66.5 -96t23.5 -126q0 -91 -30.5 -171t-85.5 -139.5t-130 -94t-163 -34.5z" unicode="Ő" glyph-name="Ohungarumlaut" horiz-adv-x="831"/>
<glyph d="M278 564h-76l125 144h113zM458 564h-76l126 144h113zM445 273q0 29 -9.5 54t-27 43.5t-43 29t-56.5 10.5q-41 0 -75 -17t-58.5 -45.5t-38 -66t-13.5 -79.5q0 -60 36 -98.5t100 -38.5q41 0 75 16.5t58.5 45t38 66.5t13.5 80zM255 -13q-49 0 -90 15t-71 42.5t-47 65.5 t-17 84q0 59 20.5 112t58 93.5t90 64t116.5 23.5q49 0 90 -15t71 -42t46.5 -64.5t16.5 -83.5q0 -60 -20.5 -113.5t-58 -94t-89.5 -64t-116 -23.5z" unicode="ő" glyph-name="ohungarumlaut" horiz-adv-x="600"/>
<glyph d="M480 624q-80 0 -140.5 -26.5t-101.5 -70.5t-62 -100.5t-21 -116.5q0 -46 14.5 -87t45.5 -71.5t78.5 -48.5t112.5 -18h61l95 539h-82zM984 623h-327l-38 -215h312l-15 -82h-311l-43 -239h355l-15 -87h-519q-60 0 -119 16.5t-106 52t-76 91.5t-29 136q0 93 32.5 169 t90.5 130t137 83.5t172 29.5h514z" unicode="Œ" glyph-name="OE" horiz-adv-x="988"/>
<glyph d="M445 273q0 29 -9.5 54.5t-27 44t-42.5 29t-57 10.5q-40 0 -74 -17t-58.5 -45.5t-38.5 -66.5t-14 -80q0 -30 9 -55t26.5 -43.5t42.5 -29t57 -10.5q40 0 74.5 17t59 45.5t38.5 66.5t14 80zM910 299q0 -14 -2.5 -40t-8.5 -49h-371q-2 -5 -2 -9v-8q0 -28 10.5 -52t29 -41 t44 -27t54.5 -10q51 0 87.5 21t62.5 52l55 -51q-86 -98 -214 -98q-71 0 -118.5 29t-71.5 77q-32 -47 -84.5 -76.5t-127.5 -29.5q-49 0 -90 15t-70.5 42t-46 65t-16.5 84q0 60 21 113t59 93.5t90.5 64t115.5 23.5q69 0 117 -28.5t71 -79.5q33 50 88.5 79t119.5 29 q91 0 144.5 -49.5t53.5 -138.5zM823 306q0 47 -30 78t-87 31q-34 0 -62.5 -12t-50 -31.5t-36 -44.5t-20.5 -51h284q1 8 1 16q0 6 1 14z" unicode="œ" glyph-name="oe" horiz-adv-x="971"/>
<glyph d="M368 764h-74l125 144h111zM198 397h109q38 0 71.5 6t58 20.5t39 38t14.5 59.5q0 56 -39.5 80t-107.5 24h-104zM129 0h-97l125 708h201q52 0 95 -11.5t73.5 -34t47 -55t16.5 -75.5q0 -46 -15 -81t-41 -60.5t-62 -41.5t-79 -23l151 -326h-110l-141 316h-109z" unicode="Ŕ" glyph-name="Racute" horiz-adv-x="612"/>
<glyph d="M224 564h-74l125 144h111zM92 371q4 19 8.5 49t6.5 54h88q-1 -7 -2 -17.5t-2.5 -22t-3 -22t-2.5 -18.5h2q25 42 62.5 67.5t85.5 25.5q22 0 37 -4l-16 -87q-20 5 -41 5q-34 0 -60 -12.5t-45 -33.5t-30.5 -48.5t-16.5 -57.5l-44 -249h-92z" unicode="ŕ" glyph-name="racute" horiz-adv-x="343"/>
<glyph d="M186 -235h-77l104 190h93zM198 397h109q38 0 71.5 6t58 20.5t39 38t14.5 59.5q0 56 -39.5 80t-107.5 24h-104zM129 0h-97l125 708h201q52 0 95 -11.5t73.5 -34t47 -55t16.5 -75.5q0 -46 -15 -81t-41 -60.5t-62 -41.5t-79 -23l151 -326h-110l-141 316h-109z" unicode="Ŗ" glyph-name="Rcommaaccent" horiz-adv-x="612"/>
<glyph d="M5 -236h-77l104 190h93zM92 371q4 19 8.5 49t6.5 54h88q-1 -7 -2 -17.5t-2.5 -22t-3 -22t-2.5 -18.5h2q25 42 62.5 67.5t85.5 25.5q22 0 37 -4l-16 -87q-20 5 -41 5q-34 0 -60 -12.5t-45 -33.5t-30.5 -48.5t-16.5 -57.5l-44 -249h-92z" unicode="ŗ" glyph-name="rcommaaccent" horiz-adv-x="343"/>
<glyph d="M417 764h-106l-86 144h87l58 -99l94 99h90zM198 397h109q38 0 71.5 6t58 20.5t39 38t14.5 59.5q0 56 -39.5 80t-107.5 24h-104zM129 0h-97l125 708h201q52 0 95 -11.5t73.5 -34t47 -55t16.5 -75.5q0 -46 -15 -81t-41 -60.5t-62 -41.5t-79 -23l151 -326h-110l-141 316 h-109z" unicode="Ř" glyph-name="Rcaron" horiz-adv-x="612"/>
<glyph d="M301 564h-106l-86 144h87l58 -99l94 99h90zM92 371q4 19 8.5 49t6.5 54h88q-1 -7 -2 -17.5t-2.5 -22t-3 -22t-2.5 -18.5h2q25 42 62.5 67.5t85.5 25.5q22 0 37 -4l-16 -87q-20 5 -41 5q-34 0 -60 -12.5t-45 -33.5t-30.5 -48.5t-16.5 -57.5l-44 -249h-92z" unicode="ř" glyph-name="rcaron" horiz-adv-x="343"/>
<glyph d="M363 764h-74l125 144h111zM481 580q-20 29 -54 46.5t-77 17.5q-25 0 -51.5 -7t-49 -22.5t-37 -39.5t-14.5 -57q0 -23 8.5 -40t23.5 -30t36 -23.5t46 -19.5q39 -14 72.5 -31.5t59 -41t40 -54t14.5 -70.5q0 -49 -18.5 -90.5t-53 -71.5t-83.5 -47t-110 -17q-34 0 -67.5 7 t-64.5 20.5t-56.5 34t-42.5 48.5l82 55q20 -35 60.5 -58.5t92.5 -23.5q30 0 58.5 8.5t50.5 25t35.5 41t13.5 57.5q0 27 -11 47t-30 35t-44 26.5t-53 21.5q-31 12 -60 27t-51 36t-35 50t-13 69q0 49 19.5 89.5t54.5 68.5t83 43.5t104 15.5q62 0 115.5 -23t82.5 -65z" unicode="Ś" glyph-name="Sacute" horiz-adv-x="569"/>
<glyph d="M275 564h-74l125 144h111zM347 360q-14 23 -38 38t-62 15q-17 0 -34 -3.5t-31.5 -11t-23.5 -20.5t-9 -31q0 -30 22 -43t63 -24q68 -20 104.5 -51.5t36.5 -89.5q0 -39 -17 -68t-44.5 -48t-62.5 -28.5t-71 -9.5q-68 0 -117.5 25t-76.5 68l75 49q16 -29 47.5 -47t71.5 -18 q42 0 73 17.5t31 52.5q0 31 -24.5 47t-73.5 32q-28 9 -51 19t-40 25t-26.5 35t-9.5 49q0 35 16 62.5t43 46.5t62.5 29t73.5 10q55 0 99 -21t66 -59z" unicode="ś" glyph-name="sacute" horiz-adv-x="444"/>
<glyph d="M542 764h-86l-59 99l-94 -99h-91l138 144h106zM481 580q-20 29 -54 46.5t-77 17.5q-25 0 -51.5 -7t-49 -22.5t-37 -39.5t-14.5 -57q0 -23 8.5 -40t23.5 -30t36 -23.5t46 -19.5q39 -14 72.5 -31.5t59 -41t40 -54t14.5 -70.5q0 -49 -18.5 -90.5t-53 -71.5t-83.5 -47 t-110 -17q-34 0 -67.5 7t-64.5 20.5t-56.5 34t-42.5 48.5l82 55q20 -35 60.5 -58.5t92.5 -23.5q30 0 58.5 8.5t50.5 25t35.5 41t13.5 57.5q0 27 -11 47t-30 35t-44 26.5t-53 21.5q-31 12 -60 27t-51 36t-35 50t-13 69q0 49 19.5 89.5t54.5 68.5t83 43.5t104 15.5 q62 0 115.5 -23t82.5 -65z" unicode="Ŝ" glyph-name="Scircumflex" horiz-adv-x="569"/>
<glyph d="M443 564h-86l-59 99l-94 -99h-91l138 144h106zM347 360q-14 23 -38 38t-62 15q-17 0 -34 -3.5t-31.5 -11t-23.5 -20.5t-9 -31q0 -30 22 -43t63 -24q68 -20 104.5 -51.5t36.5 -89.5q0 -39 -17 -68t-44.5 -48t-62.5 -28.5t-71 -9.5q-68 0 -117.5 25t-76.5 68l75 49 q16 -29 47.5 -47t71.5 -18q42 0 73 17.5t31 52.5q0 31 -24.5 47t-73.5 32q-28 9 -51 19t-40 25t-26.5 35t-9.5 49q0 35 16 62.5t43 46.5t62.5 29t73.5 10q55 0 99 -21t66 -59z" unicode="ŝ" glyph-name="scircumflex" horiz-adv-x="444"/>
<glyph d="M481 580q-20 29 -54 46.5t-77 17.5q-25 0 -51.5 -7t-49 -22.5t-37 -39.5t-14.5 -57q0 -23 8.5 -40t23.5 -30t36 -23.5t46 -19.5q39 -14 72.5 -31.5t59 -41t40 -54t14.5 -70.5q0 -46 -16.5 -85.5t-47.5 -69.5t-75 -48t-99 -22l-44 -53q8 2 14 2.5t12 0.5q13 0 27.5 -3.5 t26.5 -12t20 -22t8 -33.5q0 -27 -13 -46t-32.5 -30t-42.5 -16t-44 -5q-26 0 -55 6t-49 17l24 42q17 -8 36.5 -12.5t39.5 -4.5q10 0 21 2t21 6.5t16.5 13t6.5 21.5q0 21 -14.5 29t-33.5 8q-10 0 -21 -2t-21 -5l-17 20l64 77q-63 4 -119.5 31t-88.5 78l82 55 q20 -35 60.5 -58.5t92.5 -23.5q30 0 58.5 8.5t50.5 25t35.5 41t13.5 57.5q0 27 -11 47t-30 35t-44 26.5t-53 21.5q-31 12 -60 27t-51 36t-35 50t-13 69q0 49 19.5 89.5t54.5 68.5t83 43.5t104 15.5q62 0 115.5 -23t82.5 -65z" unicode="Ş" glyph-name="Scedilla" horiz-adv-x="569"/>
<glyph d="M347 360q-14 23 -38 38t-62 15q-17 0 -34 -3.5t-31.5 -11t-23.5 -20.5t-9 -31q0 -30 22 -43t63 -24q68 -20 104.5 -51.5t36.5 -89.5q0 -36 -14 -63t-37.5 -45.5t-54 -29.5t-63.5 -14l-47 -57q8 2 14 2.5t12 0.5q13 0 27.5 -3.5t26.5 -12t20 -22t8 -33.5q0 -27 -13 -46 t-32.5 -30t-42.5 -16t-44 -5q-26 0 -55 6t-49 17l24 42q17 -8 36.5 -12.5t39.5 -4.5q10 0 21 2t21 6.5t16.5 13t6.5 21.5q0 21 -14.5 29t-33.5 8q-10 0 -21 -2t-21 -5l-17 20l67 80q-59 5 -102.5 29t-67.5 63l75 49q16 -29 47.5 -47t71.5 -18q42 0 73 17.5t31 52.5 q0 31 -24.5 47t-73.5 32q-28 9 -51 19t-40 25t-26.5 35t-9.5 49q0 35 16 62.5t43 46.5t62.5 29t73.5 10q55 0 99 -21t66 -59z" unicode="ş" glyph-name="scedilla" horiz-adv-x="444"/>
<glyph d="M412 764h-106l-86 144h87l58 -99l94 99h90zM481 580q-20 29 -54 46.5t-77 17.5q-25 0 -51.5 -7t-49 -22.5t-37 -39.5t-14.5 -57q0 -23 8.5 -40t23.5 -30t36 -23.5t46 -19.5q39 -14 72.5 -31.5t59 -41t40 -54t14.5 -70.5q0 -49 -18.5 -90.5t-53 -71.5t-83.5 -47t-110 -17 q-34 0 -67.5 7t-64.5 20.5t-56.5 34t-42.5 48.5l82 55q20 -35 60.5 -58.5t92.5 -23.5q30 0 58.5 8.5t50.5 25t35.5 41t13.5 57.5q0 27 -11 47t-30 35t-44 26.5t-53 21.5q-31 12 -60 27t-51 36t-35 50t-13 69q0 49 19.5 89.5t54.5 68.5t83 43.5t104 15.5q62 0 115.5 -23 t82.5 -65z" unicode="Š" glyph-name="Scaron" horiz-adv-x="569"/>
<glyph d="M319 564h-106l-86 144h87l58 -99l94 99h90zM347 360q-14 23 -38 38t-62 15q-17 0 -34 -3.5t-31.5 -11t-23.5 -20.5t-9 -31q0 -30 22 -43t63 -24q68 -20 104.5 -51.5t36.5 -89.5q0 -39 -17 -68t-44.5 -48t-62.5 -28.5t-71 -9.5q-68 0 -117.5 25t-76.5 68l75 49 q16 -29 47.5 -47t71.5 -18q42 0 73 17.5t31 52.5q0 31 -24.5 47t-73.5 32q-28 9 -51 19t-40 25t-26.5 35t-9.5 49q0 35 16 62.5t43 46.5t62.5 29t73.5 10q55 0 99 -21t66 -59z" unicode="š" glyph-name="scaron" horiz-adv-x="444"/>
<glyph d="M182 -70q8 2 14 2.5t12 0.5q13 0 27.5 -3.5t26.5 -12t20 -22t8 -33.5q0 -27 -13 -46t-32.5 -30t-42.5 -16t-44 -5q-26 0 -55 6t-49 17l24 42q17 -8 36.5 -12.5t39.5 -4.5q10 0 21 2t21 6.5t16.5 13t6.5 21.5q0 21 -14.5 29t-33.5 8q-10 0 -21 -2t-21 -5l-17 20l79 94h-29 l110 622h-224l15 86h544l-15 -86h-222l-110 -622h-19z" unicode="Ţ" glyph-name="Tcommaaccent" horiz-adv-x="535"/>
<glyph d="M139 -70q8 2 14 2t12 1q13 1 27 -3t27 -12q12 -8 20 -22t8 -34q0 -27 -13 -46q-12 -19 -32 -30t-43 -16t-44 -5q-26 0 -55 6t-49 17l24 42q17 -8 37 -12t39 -5q10 0 21 2q11 3 21 7q11 4 17 12t6 22q0 21 -14 29t-34 8q-10 0 -21 -2t-21 -5l-17 20l74 88q15 -2 33 -2 q8 0 16 1zM315 398l14 76h-119l24 136h-92l-23 -136h-89l-14 -76h90l-46 -257q-2 -12 -3 -24t-1 -23q0 -54 32 -78q22 -17 55 -22l5 6h50l-6 -7q12 1 24 3q20 4 35 9l7 74q-9 -5 -23 -8t-28 -3q-25 0 -41 10t-16 41q0 13 3 30l45 249h117z" unicode="ţ" glyph-name="tcommaaccent" horiz-adv-x="324"/>
<glyph d="M396 764h-106l-86 144h87l58 -99l94 99h90zM260 0h-98l110 622h-224l15 86h544l-15 -86h-222z" unicode="Ť" glyph-name="Tcaron" horiz-adv-x="535"/>
<glyph d="M329 541h-77l104 190h93zM315 398h-117l-45 -249q-3 -17 -3 -30q0 -30 15.5 -40.5t41.5 -10.5q14 0 28 3t23 8l-7 -74q-14 -6 -34.5 -9.5t-40.5 -3.5q-55 0 -87.5 24.5t-32.5 77.5q0 11 1 23t3 24l46 257h-90l14 76h89l23 136h92l-24 -136h119z" unicode="ť" glyph-name="tcaron" horiz-adv-x="324"/>
<glyph d="M259 525l18 97h-224l15 86h544l-15 -86h-222l-18 -97h163l-11 -63h-163l-81 -462h-98l81 462h-164l11 63h164z" unicode="Ŧ" glyph-name="Tbar" horiz-adv-x="545"/>
<glyph d="M89 304l17 94h-90l14 76h89l23 136h92l-24 -136h119l-14 -76h-117l-17 -94h103l-11 -63h-104l-16 -92q-3 -17 -3 -30q0 -30 15.5 -40.5t41.5 -10.5q14 0 28 3t23 8l-7 -74q-14 -6 -34.5 -9.5t-40.5 -3.5q-55 0 -87.5 24.5t-32.5 77.5q0 11 1 23t3 24l18 100h-72l11 63h72 z" unicode="ŧ" glyph-name="tbar" horiz-adv-x="324"/>
<glyph d="M260 772q7 22 18 42.5t25.5 36.5t34 26t45.5 10q20 0 37.5 -6t34.5 -15q17 -8 33 -14.5t30 -6.5q21 0 34 15t21 32h55q-8 -22 -18.5 -42.5t-25.5 -36.5t-34.5 -26t-44.5 -10q-18 0 -35 6t-34 14q-17 9 -33.5 15.5t-31.5 6.5q-22 0 -35 -15t-21 -32h-55zM317 -18 q-63 0 -109.5 17t-77.5 47t-46.5 69.5t-15.5 84.5q0 30 6 62l78 446h98l-78 -440q-5 -28 -5 -53q0 -30 8 -56.5t26.5 -47t47.5 -32.5t71 -12q52 0 88 17t60 45.5t37.5 64.5t20.5 74l77 440h98l-78 -446q-10 -54 -31.5 -104.5t-58 -89.5t-90 -62.5t-126.5 -23.5z" unicode="Ũ" glyph-name="Utilde" horiz-adv-x="712"/>
<glyph d="M149 572q7 22 18 42.5t25.5 36.5t34 26t45.5 10q20 0 37.5 -6t34.5 -15q17 -8 33 -14.5t30 -6.5q21 0 34 15t21 32h55q-8 -22 -18.5 -42.5t-25.5 -36.5t-34.5 -26t-44.5 -10q-18 0 -35 6t-34 14q-17 9 -33.5 15.5t-31.5 6.5q-22 0 -35 -15t-21 -32h-55zM352 0 q2 14 5 37.5t5 39.5h-2q-26 -41 -66.5 -65.5t-91.5 -24.5q-78 0 -118.5 41.5t-40.5 105.5q0 11 1.5 23t3.5 24l52 293h92l-46 -261q-2 -14 -3.5 -27.5t-1.5 -26.5q0 -41 20 -67t71 -26q56 0 97.5 42.5t53.5 113.5l45 252h92l-65 -371q-4 -19 -8.5 -49t-6.5 -54h-88z" unicode="ũ" glyph-name="utilde" horiz-adv-x="581"/>
<glyph d="M584 797h-294l11 66h295zM317 -18q-63 0 -109.5 17t-77.5 47t-46.5 69.5t-15.5 84.5q0 30 6 62l78 446h98l-78 -440q-5 -28 -5 -53q0 -30 8 -56.5t26.5 -47t47.5 -32.5t71 -12q52 0 88 17t60 45.5t37.5 64.5t20.5 74l77 440h98l-78 -446q-10 -54 -31.5 -104.5t-58 -89.5 t-90 -62.5t-126.5 -23.5z" unicode="Ū" glyph-name="Umacron" horiz-adv-x="712"/>
<glyph d="M475 597h-294l11 66h295zM352 0q2 14 5 37.5t5 39.5h-2q-26 -41 -66.5 -65.5t-91.5 -24.5q-78 0 -118.5 41.5t-40.5 105.5q0 11 1.5 23t3.5 24l52 293h92l-46 -261q-2 -14 -3.5 -27.5t-1.5 -26.5q0 -41 20 -67t71 -26q56 0 97.5 42.5t53.5 113.5l45 252h92l-65 -371 q-4 -19 -8.5 -49t-6.5 -54h-88z" unicode="ū" glyph-name="umacron" horiz-adv-x="581"/>
<glyph d="M608 908q-14 -66 -61.5 -102t-113.5 -36t-104 33.5t-38 104.5h56q0 -20 7 -34t19 -22.5t28.5 -12t35.5 -3.5q42 0 73.5 15.5t42.5 56.5h55zM317 -18q-63 0 -109.5 17t-77.5 47t-46.5 69.5t-15.5 84.5q0 30 6 62l78 446h98l-78 -440q-5 -28 -5 -53q0 -30 8 -56.5t26.5 -47 t47.5 -32.5t71 -12q52 0 88 17t60 45.5t37.5 64.5t20.5 74l77 440h98l-78 -446q-10 -54 -31.5 -104.5t-58 -89.5t-90 -62.5t-126.5 -23.5z" unicode="Ŭ" glyph-name="Ubreve" horiz-adv-x="712"/>
<glyph d="M496 708q-14 -66 -61.5 -102t-113.5 -36t-104 33.5t-38 104.5h56q0 -20 7 -34t19 -22.5t28.5 -12t35.5 -3.5q42 0 73.5 15.5t42.5 56.5h55zM352 0q2 14 5 37.5t5 39.5h-2q-26 -41 -66.5 -65.5t-91.5 -24.5q-78 0 -118.5 41.5t-40.5 105.5q0 11 1.5 23t3.5 24l52 293h92 l-46 -261q-2 -14 -3.5 -27.5t-1.5 -26.5q0 -41 20 -67t71 -26q56 0 97.5 42.5t53.5 113.5l45 252h92l-65 -371q-4 -19 -8.5 -49t-6.5 -54h-88z" unicode="ŭ" glyph-name="ubreve" horiz-adv-x="581"/>
<glyph d="M505 863q0 21 -13 36t-36 15q-29 0 -47.5 -21t-18.5 -52q0 -21 12.5 -35.5t35.5 -14.5q29 0 48 21t19 51zM435 753q-38 0 -62.5 24t-24.5 59q0 24 8 44.5t23 36.5t35.5 25t44.5 9q39 0 63 -23t24 -59q0 -49 -31 -82.5t-80 -33.5zM317 -18q-63 0 -109.5 17t-77.5 47 t-46.5 69.5t-15.5 84.5q0 30 6 62l78 446h98l-78 -440q-5 -28 -5 -53q0 -30 8 -56.5t26.5 -47t47.5 -32.5t71 -12q52 0 88 17t60 45.5t37.5 64.5t20.5 74l77 440h98l-78 -446q-10 -54 -31.5 -104.5t-58 -89.5t-90 -62.5t-126.5 -23.5z" unicode="Ů" glyph-name="Uring" horiz-adv-x="712"/>
<glyph d="M392 663q0 21 -13 36t-36 15q-29 0 -47.5 -21t-18.5 -52q0 -21 12.5 -35.5t35.5 -14.5q29 0 48 21t19 51zM322 553q-38 0 -62.5 24t-24.5 59q0 24 8 44.5t23 36.5t35.5 25t44.5 9q39 0 63 -23t24 -59q0 -49 -31 -82.5t-80 -33.5zM352 0q2 14 5 37.5t5 39.5h-2 q-26 -41 -66.5 -65.5t-91.5 -24.5q-78 0 -118.5 41.5t-40.5 105.5q0 11 1.5 23t3.5 24l52 293h92l-46 -261q-2 -14 -3.5 -27.5t-1.5 -26.5q0 -41 20 -67t71 -26q56 0 97.5 42.5t53.5 113.5l45 252h92l-65 -371q-4 -19 -8.5 -49t-6.5 -54h-88z" unicode="ů" glyph-name="uring" horiz-adv-x="581"/>
<glyph d="M372 764h-76l125 144h113zM552 764h-76l126 144h113zM317 -18q-63 0 -109.5 17t-77.5 47t-46.5 69.5t-15.5 84.5q0 30 6 62l78 446h98l-78 -440q-5 -28 -5 -53q0 -30 8 -56.5t26.5 -47t47.5 -32.5t71 -12q52 0 88 17t60 45.5t37.5 64.5t20.5 74l77 440h98l-78 -446 q-10 -54 -31.5 -104.5t-58 -89.5t-90 -62.5t-126.5 -23.5z" unicode="Ű" glyph-name="Uhungarumlaut" horiz-adv-x="712"/>
<glyph d="M266 564h-76l125 144h113zM446 564h-76l126 144h113zM352 0q2 14 5 37.5t5 39.5h-2q-26 -41 -66.5 -65.5t-91.5 -24.5q-78 0 -118.5 41.5t-40.5 105.5q0 11 1.5 23t3.5 24l52 293h92l-46 -261q-2 -14 -3.5 -27.5t-1.5 -26.5q0 -41 20 -67t71 -26q56 0 97.5 42.5 t53.5 113.5l45 252h92l-65 -371q-4 -19 -8.5 -49t-6.5 -54h-88z" unicode="ű" glyph-name="uhungarumlaut" horiz-adv-x="581"/>
<glyph d="M392 -191q-23 -17 -48 -27t-51 -10q-35 0 -59 18.5t-24 56.5q0 20 8 38.5t20.5 35.5t28.5 32.5t33 28.5q-59 2 -102.5 20t-72 47.5t-43 68t-14.5 82.5q0 30 6 62l78 446h98l-78 -440q-5 -28 -5 -53q0 -30 8 -56.5t26.5 -47t47.5 -32.5t71 -12q52 0 88 17t60 45.5 t37.5 64.5t20.5 74l77 440h98l-78 -446q-9 -50 -28 -96.5t-50.5 -84.5t-76.5 -63.5t-107 -32.5q-32 -29 -56 -59t-24 -59q0 -20 12 -27.5t29 -7.5q30 0 56 21z" unicode="Ų" glyph-name="Uogonek" horiz-adv-x="712"/>
<glyph d="M417 -191q-23 -17 -48 -27t-51 -10q-35 0 -59 18.5t-24 56.5q0 24 11 46t28.5 41.5t38 36.5t39.5 31q2 14 5 36.5t5 38.5h-2q-26 -41 -66.5 -65.5t-91.5 -24.5q-78 0 -118.5 41.5t-40.5 105.5q0 11 1.5 23t3.5 24l52 293h92l-46 -261q-2 -14 -3.5 -27.5t-1.5 -26.5 q0 -41 20 -67t71 -26q56 0 97.5 42.5t53.5 113.5l45 252h92l-65 -371q-4 -19 -8.5 -49t-6.5 -54h-36q-19 -16 -37 -32.5t-31.5 -33.5t-21.5 -34t-8 -33q0 -20 12 -27.5t29 -7.5q30 0 56 21z" unicode="ų" glyph-name="uogonek" horiz-adv-x="581"/>
<glyph d="M737 764h-86l-59 99l-94 -99h-91l138 144h106zM233 142h2l275 566h108l57 -566h2l267 566h104l-344 -708h-102l-61 572h-2l-283 -572h-103l-69 708h103z" unicode="Ŵ" glyph-name="Wcircumflex" horiz-adv-x="982"/>
<glyph d="M584 564h-86l-59 99l-94 -99h-91l138 144h106zM137 474l33 -362h2l185 362h93l47 -362h3l180 362h98l-250 -474h-96l-48 359h-2l-187 -359h-96l-59 474h97z" unicode="ŵ" glyph-name="wcircumflex" horiz-adv-x="759"/>
<glyph d="M523 764h-86l-59 99l-94 -99h-91l138 144h106zM268 0h-98l54 306l-178 402h111l130 -322l259 322h120l-344 -402z" unicode="Ŷ" glyph-name="Ycircumflex" horiz-adv-x="560"/>
<glyph d="M458 564h-86l-59 99l-94 -99h-91l138 144h106zM207 101h2l210 373h100l-347 -586q-18 -30 -35 -53.5t-37 -40t-44 -25.5t-54 -9q-31 0 -59 7l13 82q22 -8 44 -8q32 0 53 20.5t44 58.5l47 80l-104 474h99z" unicode="ŷ" glyph-name="ycircumflex" horiz-adv-x="495"/>
<glyph d="M326 847q0 -25 -16.5 -42.5t-41.5 -17.5t-42 15t-17 42t18.5 44t42.5 17t40 -15.5t16 -42.5zM524 847q0 -25 -16.5 -42.5t-42.5 -17.5q-24 0 -41 15t-17 42t18 44t43 17q24 0 40 -15.5t16 -42.5zM268 0h-98l54 306l-178 402h111l130 -322l259 322h120l-344 -402z" unicode="Ÿ" glyph-name="Ydieresis" horiz-adv-x="560"/>
<glyph d="M377 764h-74l125 144h111zM601 622l-490 -535h403l-15 -87h-532l15 86l493 536h-367l15 86h494z" unicode="Ź" glyph-name="Zacute" horiz-adv-x="580"/>
<glyph d="M277 564h-74l125 144h111zM437 398l-328 -320h279l-13 -78h-396l13 76l327 322h-254l14 76h371z" unicode="ź" glyph-name="zacute" horiz-adv-x="461"/>
<glyph d="M449 847q0 -25 -17 -43t-42 -18q-24 0 -41.5 15t-17.5 42t18.5 44.5t42.5 17.5t40.5 -16t16.5 -42zM601 622l-490 -535h403l-15 -87h-532l15 86l493 536h-367l15 86h494z" unicode="Ż" glyph-name="Zdotaccent" horiz-adv-x="580"/>
<glyph d="M347 647q0 -25 -17 -43t-42 -18q-24 0 -41.5 15t-17.5 42t18.5 44.5t42.5 17.5t40.5 -16t16.5 -42zM437 398l-328 -320h279l-13 -78h-396l13 76l327 322h-254l14 76h371z" unicode="ż" glyph-name="zdotaccent" horiz-adv-x="461"/>
<glyph d="M426 764h-106l-86 144h87l58 -99l94 99h90zM601 622l-490 -535h403l-15 -87h-532l15 86l493 536h-367l15 86h494z" unicode="Ž" glyph-name="Zcaron" horiz-adv-x="580"/>
<glyph d="M326 564h-106l-86 144h87l58 -99l94 99h90zM437 398l-328 -320h279l-13 -78h-396l13 76l327 322h-254l14 76h371z" unicode="ž" glyph-name="zcaron" horiz-adv-x="461"/>
<glyph d="M458 351h-128l-119 -321q-14 -37 -32 -68t-42 -53.5t-55 -35t-71 -12.5q-24 0 -46.5 6t-40.5 18l50 69q21 -13 48 -13q21 0 37 8.5t27.5 23t20.5 33.5t17 40l111 305h-111l13 72h125l47 127q12 34 29 65t40.5 54t54.5 37t72 14q29 0 53.5 -8t46.5 -22l-52 -70 q-11 8 -25 12.5t-28 4.5q-24 0 -41 -11t-29 -27t-20.5 -35.5t-14.5 -35.5l-39 -105h115z" unicode="ƒ" glyph-name="florin" horiz-adv-x="595"/>
<glyph d="M382 67q70 0 127 29t96.5 77.5t61 110.5t21.5 128q0 48 -15 89.5t-44 73t-71.5 49.5t-97.5 18q-70 0 -126.5 -29.5t-96.5 -78t-61.5 -110.5t-21.5 -127q0 -48 15 -89.5t44 -73t71.5 -49.5t97.5 -18zM882 765q0 -67 -39 -108.5t-115 -43.5q29 -38 45.5 -86.5t16.5 -105.5 q0 -91 -30.5 -171t-85.5 -139.5t-130 -94t-163 -34.5q-74 0 -134.5 21.5t-103.5 61t-66.5 96t-23.5 126.5q0 91 31.5 171t87 139.5t130.5 94t163 34.5q52 0 88 -9t63 -19.5t49 -19.5t45 -9q42 0 66.5 24.5t24.5 66.5q0 23 -7 42l80 20q8 -24 8 -57z" unicode="Ơ" glyph-name="Ohorn" horiz-adv-x="831"/>
<glyph d="M445 273q0 29 -9.5 54t-27 43.5t-43 29t-57.5 10.5q-41 0 -74.5 -17t-58 -45.5t-38 -66.5t-13.5 -80q0 -60 35.5 -98.5t99.5 -38.5q41 0 75.5 17t59 45.5t38 66.5t13.5 80zM660 548q0 -67 -39.5 -108.5t-115.5 -43.5q34 -49 34 -115q0 -60 -20.5 -113.5t-58 -93.5 t-90 -63.5t-116.5 -23.5q-49 0 -90 15t-71 42t-46.5 65t-16.5 84q0 59 20.5 112t58 93.5t90 64t115.5 23.5q33 0 56 -5.5t42 -11.5t36.5 -11.5t39.5 -5.5q43 0 67 24.5t24 66.5q0 23 -7 42l80 20q8 -24 8 -57z" unicode="ơ" glyph-name="ohorn" horiz-adv-x="605"/>
<glyph d="M622 262q-9 -54 -30.5 -104.5t-58 -89.5t-90 -62.5t-126.5 -23.5q-63 0 -109.5 17t-77.5 47t-46.5 69.5t-15.5 84.5q0 30 6 62l78 446h97l-77 -440q-3 -13 -4 -26.5t-1 -26.5q0 -30 8 -56.5t26 -47t47.5 -32.5t71.5 -12q52 0 88 17t60 45t37.5 64.5t20.5 74.5l77 440h66 q43 0 67 24.5t24 66.5q0 23 -7 42l80 20q8 -24 8 -57q0 -31 -9 -58t-28 -47.5t-47 -33t-66 -13.5z" unicode="Ư" glyph-name="Uhorn" horiz-adv-x="722"/>
<glyph d="M360 77q-26 -41 -66.5 -65.5t-91.5 -24.5q-78 0 -118.5 41.5t-40.5 104.5q0 12 1.5 23.5t3.5 24.5l52 293h92l-46 -262q-6 -27 -6 -53q0 -41 20 -67t72 -26q56 0 97.5 42t53.5 114l45 252h60q43 0 67 24.5t24 66.5q0 23 -7 42l80 20q8 -24 8 -57q0 -31 -9 -58t-28 -47.5 t-47 -33t-66 -13.5l-55 -315q-4 -19 -8.5 -49t-6.5 -54h-88l10 77h-2z" unicode="ư" glyph-name="uhorn" horiz-adv-x="591"/>
<glyph d="M153 750v-1000h-78q0 251 -0.5 500t-0.5 500h79z" unicode="ǀ" glyph-name="clickdental" horiz-adv-x="227"/>
<glyph d="M379 750v-1000h-78v1000h78zM153 750v-1000h-78q0 251 -0.5 500t-0.5 500h79z" unicode="ǁ" glyph-name="clicklateral" horiz-adv-x="454"/>
<glyph d="M174 60q0 -27 -18.5 -47t-46.5 -20q-26 0 -44 16.5t-18 44.5q0 29 19.5 48t46.5 19q26 0 43.5 -16.5t17.5 -44.5zM178 203h-96l89 505h96z" unicode="ǃ" glyph-name="clickretroflex" horiz-adv-x="297"/>
<glyph d="M1178 783h-97l-87 144h79l62 -102l97 102h84zM1364 629l-492 -545h401l-14 -84h-525l14 82l492 543h-375l15 83h498zM144 84h146q80 0 141 26.5t102 71t62 101.5t21 117q0 46 -15 87t-45.5 71.5t-78 48.5t-112.5 18h-126zM159 708h227q60 0 119 -16.5t106 -52t76.5 -92 t29.5 -136.5q0 -93 -32.5 -169t-90.5 -130t-137 -83t-172 -29h-251z" unicode="Ǆ" glyph-name="DZcaron" horiz-adv-x="1342"/>
<glyph d="M1067 551h-97l-86 144h79l61 -102l97 102h84zM1196 409l-330 -333h280l-13 -76h-396l12 68l327 334h-254l13 74h373zM144 84h146q80 0 141 26.5t102 71t62 101.5t21 117q0 46 -15 87t-45.5 71.5t-78 48.5t-112.5 18h-126zM159 708h227q60 0 119 -16.5t106 -52t76.5 -92 t29.5 -136.5q0 -93 -32.5 -169t-90.5 -130t-137 -83t-172 -29h-251z" unicode="ǅ" glyph-name="Dzcaron" horiz-adv-x="1182"/>
<glyph d="M948 551h-97l-87 144h79l62 -102l97 102h84zM1067 409l-330 -333h279l-13 -76h-395l11 68l328 334h-255l14 74h373zM123 202q0 -29 9 -54t26 -44t42.5 -29.5t58.5 -10.5q40 0 75 17t61 45.5t40.5 66.5t14.5 81q0 61 -37.5 100t-101.5 39q-42 0 -77 -16.5t-59.5 -45 t-38 -67t-13.5 -82.5zM30 193q0 61 20.5 115t57.5 94t87.5 63t109.5 23q52 0 95.5 -22.5t65.5 -64.5h2l63 355h91l-134 -756h-88l14 75h-3q-23 -37 -68.5 -62t-102.5 -25q-48 0 -86.5 15t-66 42t-42.5 65t-15 83z" unicode="ǆ" glyph-name="dzcaron" horiz-adv-x="1060"/>
<glyph d="M584 154q6 -36 30 -62t66 -26q34 0 57 12.5t37.5 33.5t23 48t13.5 57l87 491h96l-88 -495q-6 -37 -18 -77.5t-36.5 -74.5t-64.5 -56.5t-103 -22.5q-41 0 -73.5 11.5t-55.5 31t-37.5 46t-19.5 56.5zM144 84h317l-14 -84h-413l125 708h96z" unicode="Ǉ" glyph-name="LJ" horiz-adv-x="1007"/>
<glyph d="M759 653q0 -25 -17 -42.5t-42 -17.5q-24 0 -40.5 14.5t-16.5 39.5q0 26 18 43.5t42 17.5q23 0 39.5 -15.5t16.5 -39.5zM415 -157q9 -3 20 -4.5t20 -1.5q26 0 41 11.5t23.5 32t13.5 47.5t10 57l87 491h91l-88 -498q-7 -38 -15 -76.5t-26 -70.5t-50 -52t-86 -20 q-12 0 -29 1.5t-30 5.5zM144 84h317l-14 -84h-413l125 708h96z" unicode="ǈ" glyph-name="Lj" horiz-adv-x="777"/>
<glyph d="M508 653q0 -25 -17 -42.5t-42 -17.5q-24 0 -40.5 14.5t-16.5 39.5q0 26 18 43.5t42 17.5t40 -15.5t16 -39.5zM164 -157q9 -3 20 -4.5t20 -1.5q26 0 41 11.5t23.5 32t13.5 47.5t10 57l87 491h91l-88 -498q-7 -38 -15 -76.5t-26 -70.5t-49.5 -52t-86.5 -20q-12 0 -29 1.5 t-30 5.5zM123 0h-92l133 756h92z" unicode="ǉ" glyph-name="lj" horiz-adv-x="526"/>
<glyph d="M830 154q6 -36 30 -62t67 -26q34 0 57 12.5t37.5 33.5t23 48t13.5 57l86 491h96l-88 -495q-6 -37 -18 -77.5t-36.5 -74.5t-64.5 -56.5t-103 -22.5q-41 0 -73.5 11.5t-55.5 31t-37.5 46t-19.5 56.5zM540 137h2l100 571h95l-125 -708h-113l-266 578h-2l-101 -578h-95 l125 708h114z" unicode="Ǌ" glyph-name="NJ" horiz-adv-x="1253"/>
<glyph d="M1005 653q0 -25 -17 -42.5t-42 -17.5q-24 0 -40.5 14.5t-16.5 39.5q0 26 18 43.5t42 17.5t40 -15.5t16 -39.5zM661 -157q9 -3 20 -4.5t20 -1.5q26 0 41 11.5t23.5 32t13.5 47.5t10 57l87 491h91l-88 -498q-7 -38 -15 -76.5t-26 -70.5t-49.5 -52t-86.5 -20q-12 0 -29 1.5 t-30 5.5zM540 137h2l100 571h95l-125 -708h-113l-266 578h-2l-101 -578h-95l125 708h114z" unicode="ǋ" glyph-name="Nj" horiz-adv-x="1023"/>
<glyph d="M831 653q0 -25 -16.5 -42.5t-41.5 -17.5q-24 0 -40.5 14.5t-16.5 39.5q0 26 18 43.5t42 17.5q23 0 39 -15.5t16 -39.5zM488 -157q9 -3 20 -4.5t20 -1.5q26 0 41 11.5t23.5 32t13.5 47.5t10 57l87 491h91l-88 -498q-7 -38 -15 -76.5t-26 -70.5t-50 -52t-86 -20 q-12 0 -29.5 1.5t-29.5 5.5zM197 476q-2 -17 -5 -40t-5 -38h2q26 42 68 66t91 24q78 0 119 -40t41 -105q0 -13 -1 -25t-4 -26l-51 -292h-91l46 262q6 28 6 54q0 35 -13 59t-45 32q-11 3 -23.5 3.5t-26.5 -1.5q-46 -4 -86.5 -43.5t-54.5 -117.5l-44 -248h-91l66 373 q3 19 8 49t7 54h87z" unicode="ǌ" glyph-name="nj" horiz-adv-x="850"/>
<glyph d="M503 783h-97l-87 144h79l62 -102l97 102h84zM207 258h278l-64 344zM50 0h-109l455 708h93l144 -708h-101l-34 174h-339z" unicode="Ǎ" glyph-name="Acaron" horiz-adv-x="699"/>
<glyph d="M362 563h-96l-87 144h79l61 -101l97 101h84zM350 231q-41 0 -84 -4t-78 -15t-57.5 -31.5t-22.5 -53.5q0 -20 7.5 -33.5t20.5 -21.5t28.5 -11t32.5 -3q33 0 60 11t48 29.5t35 43.5t19 54l6 35h-15zM374 294q3 15 4 23.5t1 15.5q0 45 -27 64t-75 19q-39 0 -77.5 -16 t-64.5 -38l-40 57q37 32 89.5 50.5t103.5 18.5q36 0 68 -8t56 -25.5t38 -44t14 -63.5q0 -11 -1 -26.5t-3 -26.5l-34 -191q-5 -27 -8 -55.5t-3 -47.5h-81q0 16 1.5 34.5t4.5 35.5h-2q-38 -43 -78 -61.5t-96 -18.5q-24 0 -50 6.5t-47 21t-34.5 38t-13.5 58.5q0 57 31.5 92.5 t82 55t114 26t127.5 6.5z" unicode="ǎ" glyph-name="acaron" horiz-adv-x="540"/>
<glyph d="M267 783h-96l-87 144h79l61 -102l98 102h83zM130 0h-96l125 708h96z" unicode="Ǐ" glyph-name="Icaron" horiz-adv-x="274"/>
<glyph d="M220 551h-97l-87 144h79l62 -102l97 102h84zM121 0h-91l84 476h91z" unicode="ǐ" glyph-name="icaron" horiz-adv-x="261"/>
<glyph d="M544 801h-96l-87 144h79l62 -102l97 102h84zM689 413q0 48 -15 89.5t-43.5 72.5t-70.5 49t-97 18q-70 0 -127 -29.5t-97.5 -77.5t-62.5 -110t-22 -128q0 -48 15 -89.5t43.5 -73t71 -49.5t97.5 -18q69 0 126 29t97.5 77t62.5 110.5t22 129.5zM376 -18q-72 0 -131.5 22 t-101.5 62t-65.5 96.5t-23.5 125.5q0 91 31.5 171t87 139t131 93.5t164.5 34.5q72 0 131.5 -22t101.5 -62t65.5 -96t23.5 -125q0 -91 -31 -171t-86 -139.5t-131 -94t-166 -34.5z" unicode="Ǒ" glyph-name="Ocaron" horiz-adv-x="833"/>
<glyph d="M385 563h-96l-87 144h79l61 -101l98 101h83zM449 275q0 29 -9.5 54.5t-27.5 44t-43.5 29t-58.5 10.5q-41 0 -75.5 -17t-59 -46t-38.5 -67.5t-14 -80.5q0 -30 9.5 -55t27.5 -43.5t43.5 -29t57.5 -10.5q41 0 75.5 17t59.5 45.5t39 67t14 81.5zM256 -13q-49 0 -90.5 15 t-71.5 42.5t-47 65.5t-17 85q0 60 21 113t58.5 93t90 63.5t115.5 23.5q49 0 90.5 -15t71.5 -42t47 -65t17 -84q0 -61 -20.5 -114.5t-58 -93.5t-90 -63.5t-116.5 -23.5z" unicode="ǒ" glyph-name="ocaron" horiz-adv-x="604"/>
<glyph d="M480 783h-97l-86 144h79l61 -102l97 102h84zM316 -18q-64 0 -110.5 18t-76.5 48t-44 69.5t-14 81.5q0 16 1.5 32.5t3.5 32.5l78 444h95l-76 -434q-6 -29 -6 -56q0 -30 8 -58t26 -49t47.5 -33.5t72.5 -12.5q52 0 89 17.5t61 46t38 66t21 78.5l77 435h95l-78 -445 q-9 -49 -29 -99t-56.5 -90.5t-91 -66t-131.5 -25.5z" unicode="Ǔ" glyph-name="Ucaron" horiz-adv-x="717"/>
<glyph d="M362 551h-97l-87 144h80l61 -102l97 102h84zM357 0q2 17 5 40t5 38h-2q-26 -42 -68 -66t-91 -24q-78 0 -119 40t-41 105q0 12 1.5 24.5t3.5 26.5l51 292h91l-46 -262q-6 -29 -6 -55q0 -35 13 -58.5t45 -31.5q12 -3 26 -3q11 0 24 2q23 2 45.5 12.5t41.5 30.5t33.5 49 t21.5 68l43 248h91l-66 -373q-4 -19 -8.5 -49t-6.5 -54h-87z" unicode="ǔ" glyph-name="ucaron" horiz-adv-x="586"/>
<glyph d="M591 972h-286l10 61h286zM597 842q-1 -24 -17.5 -41.5t-40.5 -17.5q-23 0 -39 14.5t-16 39.5q0 26 17 43t41 17q23 0 39 -15t16 -40zM393 842q0 -24 -16.5 -41.5t-40.5 -17.5q-23 0 -39.5 14.5t-16.5 39.5q0 26 18 43t41 17t38.5 -15t15.5 -40zM316 -18q-64 0 -110.5 18 t-76.5 48t-44 69.5t-14 81.5q0 16 1.5 32.5t3.5 32.5l78 444h95l-76 -434q-6 -29 -6 -56q0 -30 8 -58t26 -49t47.5 -33.5t72.5 -12.5q52 0 89 17.5t61 46t38 66t21 78.5l77 435h95l-78 -445q-9 -49 -29 -99t-56.5 -90.5t-91 -66t-131.5 -25.5z" unicode="Ǖ" glyph-name="Udieresismacron" horiz-adv-x="717"/>
<glyph d="M476 739h-286l10 62h286zM482 610q-1 -24 -17.5 -41.5t-40.5 -17.5q-23 0 -39 14.5t-16 38.5q0 26 17.5 43t40.5 17t39 -15t16 -39zM278 610q0 -24 -16.5 -41.5t-40.5 -17.5q-23 0 -39 14.5t-16 38.5q0 26 17.5 43t41.5 17q23 0 38 -15t15 -39zM357 0q2 17 5 40t5 38h-2 q-26 -42 -68 -66t-91 -24q-78 0 -119 40t-41 105q0 12 1.5 24.5t3.5 26.5l51 292h91l-46 -262q-6 -29 -6 -55q0 -35 13 -58.5t45 -31.5q12 -3 26 -3q11 0 24 2q23 2 45.5 12.5t41.5 30.5t33.5 49t21.5 68l43 248h91l-66 -373q-4 -19 -8.5 -49t-6.5 -54h-87z" unicode="ǖ" glyph-name="udieresismacron" horiz-adv-x="586"/>
<glyph d="M484 972h-73l127 144h107zM594 842q0 -24 -16.5 -41.5t-41.5 -17.5q-23 0 -39 14.5t-16 39.5q0 26 17.5 43t41.5 17q23 0 38.5 -15t15.5 -40zM391 842q0 -24 -17 -41.5t-41 -17.5q-23 0 -39 14.5t-16 39.5q0 26 17.5 43t41.5 17q23 0 38.5 -15t15.5 -40zM316 -18 q-64 0 -110.5 18t-76.5 48t-44 69.5t-14 81.5q0 16 1.5 32.5t3.5 32.5l78 444h95l-76 -434q-6 -29 -6 -56q0 -30 8 -58t26 -49t47.5 -33.5t72.5 -12.5q52 0 89 17.5t61 46t38 66t21 78.5l77 435h95l-78 -445q-9 -49 -29 -99t-56.5 -90.5t-91 -66t-131.5 -25.5z" unicode="Ǘ" glyph-name="Udieresisacute" horiz-adv-x="717"/>
<glyph d="M378 739h-72l126 144h108zM484 610q0 -24 -17 -41.5t-41 -17.5q-23 0 -39 14.5t-16 38.5q0 26 17 43t41 17q23 0 39 -15t16 -39zM280 610q0 -24 -16.5 -41.5t-40.5 -17.5q-23 0 -39.5 14.5t-16.5 38.5q0 26 18 43t41 17t38.5 -15t15.5 -39zM357 0q2 17 5 40t5 38h-2 q-26 -42 -68 -66t-91 -24q-78 0 -119 40t-41 105q0 12 1.5 24.5t3.5 26.5l51 292h91l-46 -262q-6 -29 -6 -55q0 -35 13 -58.5t45 -31.5q12 -3 26 -3q11 0 24 2q23 2 45.5 12.5t41.5 30.5t33.5 49t21.5 68l43 248h91l-66 -373q-4 -19 -8.5 -49t-6.5 -54h-87z" unicode="ǘ" glyph-name="udieresisacute" horiz-adv-x="586"/>
<glyph d="M508 972h-97l-86 144h79l61 -102l97 102h84zM599 842q0 -24 -17 -41.5t-41 -17.5q-23 0 -39 14.5t-16 39.5q0 26 17 43t41 17q23 0 39 -15t16 -40zM395 842q0 -24 -16.5 -41.5t-40.5 -17.5q-23 0 -39.5 14.5t-16.5 39.5q0 26 18 43t41 17t38.5 -15t15.5 -40zM316 -18 q-64 0 -110.5 18t-76.5 48t-44 69.5t-14 81.5q0 16 1.5 32.5t3.5 32.5l78 444h95l-76 -434q-6 -29 -6 -56q0 -30 8 -58t26 -49t47.5 -33.5t72.5 -12.5q52 0 89 17.5t61 46t38 66t21 78.5l77 435h95l-78 -445q-9 -49 -29 -99t-56.5 -90.5t-91 -66t-131.5 -25.5z" unicode="Ǚ" glyph-name="Udieresiscaron" horiz-adv-x="717"/>
<glyph d="M394 739h-97l-87 144h80l61 -101l97 101h84zM486 610q0 -24 -16.5 -41.5t-41.5 -17.5q-23 0 -38.5 14.5t-15.5 38.5q0 26 17 43t41 17q23 0 38.5 -15t15.5 -39zM283 610q0 -24 -16.5 -41.5t-40.5 -17.5q-23 0 -39.5 14.5t-16.5 38.5q0 26 17.5 43t41.5 17q23 0 38.5 -15 t15.5 -39zM357 0q2 17 5 40t5 38h-2q-26 -42 -68 -66t-91 -24q-78 0 -119 40t-41 105q0 12 1.5 24.5t3.5 26.5l51 292h91l-46 -262q-6 -29 -6 -55q0 -35 13 -58.5t45 -31.5q12 -3 26 -3q11 0 24 2q23 2 45.5 12.5t41.5 30.5t33.5 49t21.5 68l43 248h91l-66 -373 q-4 -19 -8.5 -49t-6.5 -54h-87z" unicode="ǚ" glyph-name="udieresiscaron" horiz-adv-x="586"/>
<glyph d="M279 1116h107l103 -144h-73zM602 842q0 -24 -17 -41.5t-41 -17.5q-23 0 -39 14.5t-16 39.5q0 26 17 43t41 17q23 0 39 -15t16 -40zM398 842q0 -24 -16.5 -41.5t-40.5 -17.5q-23 0 -39.5 14.5t-16.5 39.5q0 26 18 43t41 17t38.5 -15t15.5 -40zM316 -18q-64 0 -110.5 18 t-76.5 48t-44 69.5t-14 81.5q0 16 1.5 32.5t3.5 32.5l78 444h95l-76 -434q-6 -29 -6 -56q0 -30 8 -58t26 -49t47.5 -33.5t72.5 -12.5q52 0 89 17.5t61 46t38 66t21 78.5l77 435h95l-78 -445q-9 -49 -29 -99t-56.5 -90.5t-91 -66t-131.5 -25.5z" unicode="Ǜ" glyph-name="Udieresisgrave" horiz-adv-x="717"/>
<glyph d="M149 883h107l102 -144h-72zM478 610q0 -24 -16.5 -41.5t-41.5 -17.5q-23 0 -38.5 14.5t-15.5 38.5q0 26 17 43t41 17q23 0 38.5 -15t15.5 -39zM275 610q0 -24 -16.5 -41.5t-40.5 -17.5q-23 0 -39.5 14.5t-16.5 38.5q0 26 17.5 43t41.5 17q23 0 38.5 -15t15.5 -39zM357 0 q2 17 5 40t5 38h-2q-26 -42 -68 -66t-91 -24q-78 0 -119 40t-41 105q0 12 1.5 24.5t3.5 26.5l51 292h91l-46 -262q-6 -29 -6 -55q0 -35 13 -58.5t45 -31.5q12 -3 26 -3q11 0 24 2q23 2 45.5 12.5t41.5 30.5t33.5 49t21.5 68l43 248h91l-66 -373q-4 -19 -8.5 -49t-6.5 -54 h-87z" unicode="ǜ" glyph-name="udieresisgrave" horiz-adv-x="586"/>
<glyph d="M610 972h-286l10 61h287zM616 842q0 -24 -16.5 -41.5t-41.5 -17.5q-23 0 -39 14.5t-16 39.5q0 26 17.5 43t41.5 17q23 0 38.5 -15t15.5 -40zM413 842q0 -24 -16.5 -41.5t-40.5 -17.5q-23 0 -39.5 14.5t-16.5 39.5q0 26 17.5 43t41.5 17q23 0 38.5 -15t15.5 -40zM207 258 h278l-64 344zM50 0h-109l455 708h93l144 -708h-101l-34 174h-339z" unicode="Ǟ" glyph-name="Adieresismacron" horiz-adv-x="699"/>
<glyph d="M452 752h-286l10 62h287zM460 623q-1 -24 -17 -42t-41 -18q-23 0 -39 15t-16 39q0 26 17.5 43t40.5 17t39 -15t16 -39zM256 623q0 -24 -16.5 -42t-40.5 -18q-23 0 -39 15t-16 39q0 26 17.5 43t41.5 17q23 0 38 -15t15 -39zM350 231q-41 0 -84 -4t-78 -15t-57.5 -31.5 t-22.5 -53.5q0 -20 7.5 -33.5t20.5 -21.5t28.5 -11t32.5 -3q33 0 60 11t48 29.5t35 43.5t19 54l6 35h-15zM374 294q3 15 4 23.5t1 15.5q0 45 -27 64t-75 19q-39 0 -77.5 -16t-64.5 -38l-40 57q37 32 89.5 50.5t103.5 18.5q36 0 68 -8t56 -25.5t38 -44t14 -63.5 q0 -11 -1 -26.5t-3 -26.5l-34 -191q-5 -27 -8 -55.5t-3 -47.5h-81q0 16 1.5 34.5t4.5 35.5h-2q-38 -43 -78 -61.5t-96 -18.5q-24 0 -50 6.5t-47 21t-34.5 38t-13.5 58.5q0 57 31.5 92.5t82 55t114 26t127.5 6.5z" unicode="ǟ" glyph-name="adieresismacron" horiz-adv-x="540"/>
<glyph d="M630 970h-286l10 62h287zM518 842q0 -24 -16.5 -41.5t-40.5 -17.5q-23 0 -39.5 14.5t-16.5 38.5q0 26 18 42.5t41 16.5t38.5 -14.5t15.5 -38.5zM207 258h278l-64 344zM50 0h-109l455 708h93l144 -708h-101l-34 174h-339z" unicode="Ǡ" glyph-name="Adotmacron" horiz-adv-x="699"/>
<glyph d="M463 751h-286l10 62h286zM366 622q0 -24 -16.5 -41.5t-40.5 -17.5q-23 0 -39.5 14.5t-16.5 38.5q0 26 18 43t41 17t38.5 -15t15.5 -39zM350 231q-41 0 -84 -4t-78 -15t-57.5 -31.5t-22.5 -53.5q0 -20 7.5 -33.5t20.5 -21.5t28.5 -11t32.5 -3q33 0 60 11t48 29.5t35 43.5 t19 54l6 35h-15zM374 294q3 15 4 23.5t1 15.5q0 45 -27 64t-75 19q-39 0 -77.5 -16t-64.5 -38l-40 57q37 32 89.5 50.5t103.5 18.5q36 0 68 -8t56 -25.5t38 -44t14 -63.5q0 -11 -1 -26.5t-3 -26.5l-34 -191q-5 -27 -8 -55.5t-3 -47.5h-81q0 16 1.5 34.5t4.5 35.5h-2 q-38 -43 -78 -61.5t-96 -18.5q-24 0 -50 6.5t-47 21t-34.5 38t-13.5 58.5q0 57 31.5 92.5t82 55t114 26t127.5 6.5z" unicode="ǡ" glyph-name="adotmacron" horiz-adv-x="540"/>
<glyph d="M918 783h-286l11 62h286zM510 268l64 357h-9l-286 -357h231zM463 0l33 189h-274l-150 -189h-115l571 708h472l-15 -83h-319l-38 -218h304l-15 -80h-304l-43 -244h346l-15 -83h-438z" unicode="Ǣ" glyph-name="AEmacron" horiz-adv-x="999"/>
<glyph d="M620 563h-286l10 62h286zM738 276q1 7 1.5 15.5t0.5 15.5q0 49 -30.5 80t-89.5 31q-33 0 -60.5 -12t-49 -31.5t-36 -45t-20.5 -53.5h284zM344 214q-47 0 -90 -3.5t-75.5 -13.5t-51.5 -27t-19 -44q0 -20 7.5 -33t20 -21t28 -11t32.5 -3q33 0 61 10.5t49 28.5t34.5 43 t18.5 55l3 19h-18zM445 402q13 18 33 33.5t43.5 27.5t50 18.5t53.5 6.5q97 0 149 -51.5t52 -137.5q0 -14 -2.5 -39t-7.5 -47h-372q-1 -5 -1 -9.5v-8.5q0 -60 37 -97t96 -37q51 0 88.5 22t62.5 52l56 -50q-42 -49 -97 -73.5t-118 -24.5t-111.5 31t-68.5 80q-28 -48 -78 -78 t-128 -30q-29 0 -58.5 6t-53 20.5t-38 38.5t-14.5 60q0 54 31 85.5t81 48.5t113 22t128 5q3 15 5.5 32.5t2.5 23.5q0 46 -27 65t-75 19q-39 0 -77 -15.5t-64 -38.5l-40 57q37 32 89 50.5t103 18.5q58 0 99.5 -20.5t57.5 -65.5z" unicode="ǣ" glyph-name="aemacron" horiz-adv-x="887"/>
<glyph d="M526 801h-97l-86 144h79l61 -101l97 101h84zM385 65q54 0 99 11t77 30l34 196h-159l14 80h251l-58 -333q-61 -35 -127.5 -51t-138.5 -16t-131.5 22t-102 62t-66 96t-23.5 125q0 92 32.5 172t89.5 139.5t134 93.5t166 34q39 0 76 -7.5t68.5 -22t57 -35t41.5 -46.5l-79 -60 q-17 34 -59.5 61t-107.5 27q-70 0 -128.5 -29t-101 -77t-66 -110.5t-23.5 -129.5q0 -49 15 -91t44.5 -73.5t72.5 -49.5t99 -18z" unicode="Ǧ" glyph-name="Gcaron" horiz-adv-x="765"/>
<glyph d="M484 563h-97l-86 144h79l61 -102l97 102h84zM131 209q0 -28 9 -53t26.5 -43.5t43 -29.5t59.5 -11q42 0 77 16.5t59.5 44t38.5 64.5t14 78q0 29 -10 54.5t-28 44t-43.5 29.5t-57.5 11q-42 0 -76.5 -15t-59.5 -42.5t-38.5 -65t-13.5 -82.5zM47 -84q26 -35 71 -57t96 -22 q48 0 81.5 13.5t56 37t36 55t20.5 67.5l14 75h-2q-29 -40 -74 -63t-98 -23q-48 0 -86.5 15.5t-65.5 43t-41.5 65t-14.5 81.5q0 58 20.5 110t57 90.5t86.5 61t109 22.5q52 0 96.5 -23t64.5 -66h2l14 77h88l-81 -461q-8 -46 -24.5 -91.5t-48.5 -82t-83 -59t-127 -22.5 q-68 0 -127.5 24t-95.5 67z" unicode="ǧ" glyph-name="gcaron" horiz-adv-x="634"/>
<glyph d="M435 783h-96l-87 144h79l61 -102l97 102h84zM199 395h1l340 313h132l-377 -330l285 -378h-123l-263 366h-1l-64 -366h-95l125 708h95z" unicode="Ǩ" glyph-name="Kcaron" horiz-adv-x="609"/>
<glyph d="M263 831h-97l-86 144h79l61 -102l97 102h84zM168 267h3l227 209h121l-253 -221l199 -255h-114l-184 244h-3l-42 -244h-91l133 756h91z" unicode="ǩ" glyph-name="kcaron" horiz-adv-x="509"/>
<glyph d="M689 413q0 48 -15 89.5t-43.5 72.5t-70.5 49t-97 18q-70 0 -127 -29.5t-97.5 -77.5t-62.5 -110t-22 -128q0 -48 15 -89.5t43.5 -73t71 -49.5t97.5 -18q69 0 126 29t97.5 77t62.5 110.5t22 129.5zM376 -18q-72 0 -131.5 22t-101.5 62t-65.5 96.5t-23.5 125.5 q0 91 31.5 171t87 139t131 93.5t164.5 34.5q72 0 131.5 -22t101.5 -62t65.5 -96t23.5 -125q0 -66 -13.5 -119t-37.5 -97t-58 -82t-76 -72q-28 -23 -63 -46t-66 -47.5t-52.5 -51t-21.5 -57.5q0 -20 12.5 -26.5t28.5 -6.5q14 0 29 5.5t26 15.5l15 -45q-22 -17 -47.5 -27 t-51.5 -10q-33 0 -58.5 17t-25.5 55q0 26 8.5 49t23 42.5t33 36.5t38.5 32q-14 -2 -28 -3.5t-29 -1.5z" unicode="Ǫ" glyph-name="Oogonek" horiz-adv-x="833"/>
<glyph d="M449 275q0 29 -9.5 54.5t-27.5 44t-43.5 29t-58.5 10.5q-41 0 -75.5 -17t-59 -46t-38.5 -67.5t-14 -80.5q0 -30 9.5 -55t27.5 -43.5t43.5 -29t57.5 -10.5q41 0 75.5 17t59.5 45.5t39 67t14 81.5zM256 -13q-49 0 -90.5 15t-71.5 42.5t-47 65.5t-17 85q0 60 21 113t58.5 93 t90 63.5t115.5 23.5q49 0 90.5 -15t71.5 -42t47 -65t17 -84q0 -43 -9 -78t-26.5 -65t-41.5 -56t-54 -52q-25 -21 -52 -42t-49.5 -43t-37.5 -46t-15 -50q0 -20 12.5 -26.5t27.5 -6.5q30 0 56 21l14 -45q-22 -17 -47.5 -27t-51.5 -10q-32 0 -57.5 17t-25.5 55q0 27 8.5 50.5 t23 43.5t33 36.5t38.5 31.5q-15 -3 -31 -3z" unicode="ǫ" glyph-name="oogonek" horiz-adv-x="604"/>
<glyph d="M625 801h-286l10 62h287zM689 413q0 48 -15 89.5t-43.5 72.5t-70.5 49t-97 18q-70 0 -127 -29.5t-97.5 -77.5t-62.5 -110t-22 -128q0 -48 15 -89.5t43.5 -73t71 -49.5t97.5 -18q69 0 126 29t97.5 77t62.5 110.5t22 129.5zM376 -18q-72 0 -131.5 22t-101.5 62t-65.5 96.5 t-23.5 125.5q0 91 31.5 171t87 139t131 93.5t164.5 34.5q72 0 131.5 -22t101.5 -62t65.5 -96t23.5 -125q0 -66 -13.5 -119t-37.5 -97t-58 -82t-76 -72q-28 -23 -63 -46t-66 -47.5t-52.5 -51t-21.5 -57.5q0 -20 12.5 -26.5t28.5 -6.5q14 0 29 5.5t26 15.5l15 -45 q-22 -17 -47.5 -27t-51.5 -10q-33 0 -58.5 17t-25.5 55q0 26 8.5 49t23 42.5t33 36.5t38.5 32q-14 -2 -28 -3.5t-29 -1.5z" unicode="Ǭ" glyph-name="Oogonekmacron" horiz-adv-x="833"/>
<glyph d="M470 563h-286l10 62h287zM449 275q0 29 -9.5 54.5t-27.5 44t-43.5 29t-58.5 10.5q-41 0 -75.5 -17t-59 -46t-38.5 -67.5t-14 -80.5q0 -30 9.5 -55t27.5 -43.5t43.5 -29t57.5 -10.5q41 0 75.5 17t59.5 45.5t39 67t14 81.5zM256 -13q-49 0 -90.5 15t-71.5 42.5t-47 65.5 t-17 85q0 60 21 113t58.5 93t90 63.5t115.5 23.5q49 0 90.5 -15t71.5 -42t47 -65t17 -84q0 -41 -8 -74.5t-23.5 -62t-38 -54t-50.5 -49.5q-25 -23 -54 -45t-53.5 -45.5t-41 -48.5t-16.5 -53q0 -20 12.5 -26.5t27.5 -6.5q30 0 56 21l14 -45q-22 -17 -47.5 -27t-51.5 -10 q-32 0 -57.5 17t-25.5 55q0 27 8.5 50.5t23 43.5t33 36.5t38.5 31.5q-15 -3 -31 -3z" unicode="ǭ" glyph-name="oogonekmacron" horiz-adv-x="604"/>
<glyph d="M1364 629l-492 -545h401l-14 -84h-525l14 82l492 543h-375l15 83h498zM144 84h146q80 0 141 26.5t102 71t62 101.5t21 117q0 46 -15 87t-45.5 71.5t-78 48.5t-112.5 18h-126zM159 708h227q60 0 119 -16.5t106 -52t76.5 -92t29.5 -136.5q0 -93 -32.5 -169t-90.5 -130 t-137 -83t-172 -29h-251z" unicode="Ǳ" glyph-name="DZ" horiz-adv-x="1344"/>
<glyph d="M1196 409l-330 -333h280l-13 -76h-396l12 68l327 334h-254l13 74h373zM144 84h146q80 0 141 26.5t102 71t62 101.5t21 117q0 46 -15 87t-45.5 71.5t-78 48.5t-112.5 18h-126zM159 708h227q60 0 119 -16.5t106 -52t76.5 -92t29.5 -136.5q0 -93 -32.5 -169t-90.5 -130 t-137 -83t-172 -29h-251z" unicode="ǲ" glyph-name="Dz" horiz-adv-x="1219"/>
<glyph d="M1067 409l-330 -333h279l-13 -76h-395l11 68l328 334h-255l14 74h373zM123 202q0 -29 9 -54t26 -44t42.5 -29.5t58.5 -10.5q40 0 75 17t61 45.5t40.5 66.5t14.5 81q0 61 -37.5 100t-101.5 39q-42 0 -77 -16.5t-59.5 -45t-38 -67t-13.5 -82.5zM30 193q0 61 20.5 115 t57.5 94t87.5 63t109.5 23q52 0 95.5 -22.5t65.5 -64.5h2l63 355h91l-134 -756h-88l14 75h-3q-23 -37 -68.5 -62t-102.5 -25q-48 0 -86.5 15t-66 42t-42.5 65t-15 83z" unicode="ǳ" glyph-name="dz" horiz-adv-x="1090"/>
<glyph d="M478 801h-73l127 144h107zM385 65q54 0 99 11t77 30l34 196h-159l14 80h251l-58 -333q-61 -35 -127.5 -51t-138.5 -16t-131.5 22t-102 62t-66 96t-23.5 125q0 92 32.5 172t89.5 139.5t134 93.5t166 34q39 0 76 -7.5t68.5 -22t57 -35t41.5 -46.5l-79 -60q-17 34 -59.5 61 t-107.5 27q-70 0 -128.5 -29t-101 -77t-66 -110.5t-23.5 -129.5q0 -49 15 -91t44.5 -73.5t72.5 -49.5t99 -18z" unicode="Ǵ" glyph-name="Gacute" horiz-adv-x="765"/>
<glyph d="M407 563h-73l127 144h107zM131 209q0 -28 9 -53t26.5 -43.5t43 -29.5t59.5 -11q42 0 77 16.5t59.5 44t38.5 64.5t14 78q0 29 -10 54.5t-28 44t-43.5 29.5t-57.5 11q-42 0 -76.5 -15t-59.5 -42.5t-38.5 -65t-13.5 -82.5zM47 -84q26 -35 71 -57t96 -22q48 0 81.5 13.5 t56 37t36 55t20.5 67.5l14 75h-2q-29 -40 -74 -63t-98 -23q-48 0 -86.5 15.5t-65.5 43t-41.5 65t-14.5 81.5q0 58 20.5 110t57 90.5t86.5 61t109 22.5q52 0 96.5 -23t64.5 -66h2l14 77h88l-81 -461q-8 -46 -24.5 -91.5t-48.5 -82t-83 -59t-127 -22.5q-68 0 -127.5 24 t-95.5 67z" unicode="ǵ" glyph-name="gacute" horiz-adv-x="634"/>
<glyph d="M304 927h107l103 -144h-73zM540 137h2l100 571h95l-125 -708h-113l-266 578h-2l-101 -578h-95l125 708h114z" unicode="Ǹ" glyph-name="Ngrave" horiz-adv-x="760"/>
<glyph d="M164 707h107l102 -144h-72zM197 476q-2 -17 -5 -40t-5 -38h2q26 42 68 66t91 24q78 0 119 -40t41 -105q0 -13 -1 -25t-4 -26l-51 -292h-91l46 262q6 28 6 54q0 35 -13 59t-45 32q-11 3 -23.5 3.5t-26.5 -1.5q-46 -4 -86.5 -43.5t-54.5 -117.5l-44 -248h-91l66 373 q3 19 8 49t7 54h87z" unicode="ǹ" glyph-name="ngrave" horiz-adv-x="587"/>
<glyph d="M527 1055h-73l127 144h107zM540 896q0 21 -13.5 36t-38.5 15q-30 0 -49.5 -23.5t-19.5 -55.5q0 -22 13.5 -36.5t37.5 -14.5q31 0 50.5 23.5t19.5 55.5zM467 783q-38 0 -62.5 23t-24.5 59q0 23 8.5 44t23 36.5t35 25t44.5 9.5q38 0 62.5 -22.5t24.5 -58.5q0 -24 -8 -45 t-23 -37t-35.5 -25t-44.5 -9zM207 258h278l-64 344zM50 0h-109l455 708h93l144 -708h-101l-34 174h-339z" unicode="Ǻ" glyph-name="Aringacute" horiz-adv-x="699"/>
<glyph d="M345 836h-73l127 144h107zM391 676q0 21 -14 36t-38 15q-31 0 -50.5 -23t-19.5 -55q0 -23 14 -37.5t37 -14.5q31 0 51 23.5t20 55.5zM318 563q-39 0 -63.5 23.5t-24.5 58.5q0 24 8.5 45t23 36.5t35 25t44.5 9.5q39 0 63 -23t24 -59q0 -24 -8 -45t-23 -37t-35 -25t-44 -9z M350 231q-41 0 -84 -4t-78 -15t-57.5 -31.5t-22.5 -53.5q0 -20 7.5 -33.5t20.5 -21.5t28.5 -11t32.5 -3q33 0 60 11t48 29.5t35 43.5t19 54l6 35h-15zM374 294q3 15 4 23.5t1 15.5q0 45 -27 64t-75 19q-39 0 -77.5 -16t-64.5 -38l-40 57q37 32 89.5 50.5t103.5 18.5 q36 0 68 -8t56 -25.5t38 -44t14 -63.5q0 -11 -1 -26.5t-3 -26.5l-34 -191q-5 -27 -8 -55.5t-3 -47.5h-81q0 16 1.5 34.5t4.5 35.5h-2q-38 -43 -78 -61.5t-96 -18.5q-24 0 -50 6.5t-47 21t-34.5 38t-13.5 58.5q0 57 31.5 92.5t82 55t114 26t127.5 6.5z" unicode="ǻ" glyph-name="aringacute" horiz-adv-x="540"/>
<glyph d="M801 783h-73l127 144h107zM510 268l64 357h-9l-286 -357h231zM463 0l33 189h-274l-150 -189h-115l571 708h472l-15 -83h-319l-38 -218h304l-15 -80h-304l-43 -244h346l-15 -83h-438z" unicode="Ǽ" glyph-name="AEacute" horiz-adv-x="999"/>
<glyph d="M485 563h-73l127 144h107zM738 276q1 7 1.5 15.5t0.5 15.5q0 49 -30.5 80t-89.5 31q-33 0 -60.5 -12t-49 -31.5t-36 -45t-20.5 -53.5h284zM344 214q-47 0 -90 -3.5t-75.5 -13.5t-51.5 -27t-19 -44q0 -20 7.5 -33t20 -21t28 -11t32.5 -3q33 0 61 10.5t49 28.5t34.5 43 t18.5 55l3 19h-18zM445 402q13 18 33 33.5t43.5 27.5t50 18.5t53.5 6.5q97 0 149 -51.5t52 -137.5q0 -14 -2.5 -39t-7.5 -47h-372q-1 -5 -1 -9.5v-8.5q0 -60 37 -97t96 -37q51 0 88.5 22t62.5 52l56 -50q-42 -49 -97 -73.5t-118 -24.5t-111.5 31t-68.5 80q-28 -48 -78 -78 t-128 -30q-29 0 -58.5 6t-53 20.5t-38 38.5t-14.5 60q0 54 31 85.5t81 48.5t113 22t128 5q3 15 5.5 32.5t2.5 23.5q0 46 -27 65t-75 19q-39 0 -77 -15.5t-64 -38.5l-40 57q37 32 89 50.5t103 18.5q58 0 99.5 -20.5t57.5 -65.5z" unicode="ǽ" glyph-name="aeacute" horiz-adv-x="887"/>
<glyph d="M471 808h-73l127 144h107zM629 583q-28 29 -68 44.5t-92 15.5q-71 0 -129 -29.5t-99.5 -78t-64.5 -111t-23 -128.5q0 -70 32 -125zM216 129q28 -30 69 -47t95 -17q70 0 128.5 29t99.5 77.5t64 111.5t23 130q0 35 -7.5 66.5t-24.5 59.5zM737 607q28 -37 43 -83.5 t15 -102.5q0 -91 -31.5 -171t-88 -139.5t-133 -94t-166.5 -34.5q-71 0 -130 21.5t-101 61.5l-93 -87l-36 40l93 87q-26 37 -40.5 83t-14.5 100q0 91 32.5 171t89 139t133 93.5t164.5 34.5q69 0 126.5 -20.5t100.5 -58.5l92 86l37 -40z" unicode="Ǿ" glyph-name="Oslashacute" horiz-adv-x="833"/>
<glyph d="M349 580h-73l127 144h107zM406 379q-17 17 -41 26t-55 9q-41 0 -75.5 -17t-59 -46t-38.5 -67t-14 -80q0 -18 3.5 -35.5t11.5 -31.5zM165 100q17 -17 41.5 -27t54.5 -10q42 0 76.5 17t59.5 45.5t38.5 67t13.5 80.5q0 37 -15 66zM505 401q36 -50 36 -119 q0 -61 -20.5 -114.5t-58 -93.5t-90 -63.5t-116.5 -23.5q-46 0 -85.5 13.5t-69.5 38.5l-80 -70l-31 38l78 68q-18 24 -28 54.5t-10 65.5q0 59 21 112.5t58.5 93.5t90 63.5t115.5 23.5q96 0 157 -52l78 69l32 -37z" unicode="ǿ" glyph-name="oslashacute" horiz-adv-x="604"/>
<glyph d="M193 927h107l103 -144h-73zM356 927h107l103 -144h-73zM207 258h278l-64 344zM50 0h-109l455 708h93l144 -708h-101l-34 174h-339z" unicode="Ȁ" glyph-name="Adblgrave" horiz-adv-x="699"/>
<glyph d="M33 707h107l103 -144h-73zM196 707h108l102 -144h-73zM350 231q-41 0 -84 -4t-78 -15t-57.5 -31.5t-22.5 -53.5q0 -20 7.5 -33.5t20.5 -21.5t28.5 -11t32.5 -3q33 0 60 11t48 29.5t35 43.5t19 54l6 35h-15zM374 294q3 15 4 23.5t1 15.5q0 45 -27 64t-75 19 q-39 0 -77.5 -16t-64.5 -38l-40 57q37 32 89.5 50.5t103.5 18.5q36 0 68 -8t56 -25.5t38 -44t14 -63.5q0 -11 -1 -26.5t-3 -26.5l-34 -191q-5 -27 -8 -55.5t-3 -47.5h-81q0 16 1.5 34.5t4.5 35.5h-2q-38 -43 -78 -61.5t-96 -18.5q-24 0 -50 6.5t-47 21t-34.5 38t-13.5 58.5 q0 57 31.5 92.5t82 55t114 26t127.5 6.5z" unicode="ȁ" glyph-name="adblgrave" horiz-adv-x="540"/>
<glyph d="M312 783q6 31 21.5 56.5t38 42.5t50.5 26.5t59 9.5q64 0 101.5 -33t37.5 -102h-54q0 41 -26 57t-61 16q-39 0 -72 -17.5t-41 -55.5h-54zM207 258h278l-64 344zM50 0h-109l455 708h93l144 -708h-101l-34 174h-339z" unicode="Ȃ" glyph-name="Ainvertedbreve" horiz-adv-x="699"/>
<glyph d="M173 563q6 32 21 57t37.5 42.5t50.5 27t60 9.5q63 0 100.5 -33t37.5 -103h-54q0 41 -25.5 57t-60.5 16q-40 0 -72.5 -17.5t-41.5 -55.5h-53zM350 231q-41 0 -84 -4t-78 -15t-57.5 -31.5t-22.5 -53.5q0 -20 7.5 -33.5t20.5 -21.5t28.5 -11t32.5 -3q33 0 60 11t48 29.5 t35 43.5t19 54l6 35h-15zM374 294q3 15 4 23.5t1 15.5q0 45 -27 64t-75 19q-39 0 -77.5 -16t-64.5 -38l-40 57q37 32 89.5 50.5t103.5 18.5q36 0 68 -8t56 -25.5t38 -44t14 -63.5q0 -11 -1 -26.5t-3 -26.5l-34 -191q-5 -27 -8 -55.5t-3 -47.5h-81q0 16 1.5 34.5t4.5 35.5h-2 q-38 -43 -78 -61.5t-96 -18.5q-24 0 -50 6.5t-47 21t-34.5 38t-13.5 58.5q0 57 31.5 92.5t82 55t114 26t127.5 6.5z" unicode="ȃ" glyph-name="ainvertedbreve" horiz-adv-x="540"/>
<glyph d="M132 927h107l103 -144h-73zM295 927h107l103 -144h-73zM143 83h365l-15 -83h-459l125 708h433l-15 -83h-339l-38 -218h323l-14 -80h-323z" unicode="Ȅ" glyph-name="Edblgrave" horiz-adv-x="582"/>
<glyph d="M65 707h107l102 -144h-72zM228 707h107l102 -144h-72zM422 276q1 7 1.5 15.5t0.5 15.5q0 49 -30.5 80t-89.5 31q-35 0 -63.5 -12t-51 -31.5t-37.5 -45t-22 -53.5h292zM121 213q-1 -5 -1.5 -9.5t-0.5 -8.5q0 -30 11 -54.5t30 -42t45 -27.5t55 -10q51 0 88.5 22t62.5 52 l57 -50q-43 -49 -98 -73.5t-118 -24.5q-47 0 -87.5 14t-70.5 41t-47 66t-17 90q0 58 21.5 111t59 92.5t88.5 63t110 23.5q97 0 149 -51.5t52 -137.5q0 -14 -2.5 -39t-7.5 -47h-379z" unicode="ȅ" glyph-name="edblgrave" horiz-adv-x="571"/>
<glyph d="M257 783q6 31 21 56.5t37.5 42.5t50.5 26.5t60 9.5q63 0 100.5 -33t37.5 -102h-54q0 41 -25.5 57t-60.5 16q-40 0 -72.5 -17.5t-41.5 -55.5h-53zM143 83h365l-15 -83h-459l125 708h433l-15 -83h-339l-38 -218h323l-14 -80h-323z" unicode="Ȇ" glyph-name="Einvertedbreve" horiz-adv-x="582"/>
<glyph d="M217 563q6 32 21 57t37.5 42.5t50.5 27t60 9.5q63 0 100.5 -33t37.5 -103h-54q0 41 -25.5 57t-60.5 16q-40 0 -72.5 -17.5t-41.5 -55.5h-53zM422 276q1 7 1.5 15.5t0.5 15.5q0 49 -30.5 80t-89.5 31q-35 0 -63.5 -12t-51 -31.5t-37.5 -45t-22 -53.5h292zM121 213 q-1 -5 -1.5 -9.5t-0.5 -8.5q0 -30 11 -54.5t30 -42t45 -27.5t55 -10q51 0 88.5 22t62.5 52l57 -50q-43 -49 -98 -73.5t-118 -24.5q-47 0 -87.5 14t-70.5 41t-47 66t-17 90q0 58 21.5 111t59 92.5t88.5 63t110 23.5q97 0 149 -51.5t52 -137.5q0 -14 -2.5 -39t-7.5 -47h-379z " unicode="ȇ" glyph-name="einvertedbreve" horiz-adv-x="571"/>
<glyph d="M-34 927h108l102 -144h-73zM129 927h108l102 -144h-73zM130 0h-96l125 708h96z" unicode="Ȉ" glyph-name="Idblgrave" horiz-adv-x="274"/>
<glyph d="M-70 695h107l102 -144h-72zM93 695h107l102 -144h-72zM121 0h-91l84 476h91z" unicode="ȉ" glyph-name="idblgrave" horiz-adv-x="261"/>
<glyph d="M83 783q6 31 21.5 56.5t38 42.5t50.5 26.5t59 9.5q63 0 100.5 -33t37.5 -102h-53q0 41 -26 57t-61 16q-40 0 -72.5 -17.5t-40.5 -55.5h-54zM130 0h-96l125 708h96z" unicode="Ȋ" glyph-name="Iinvertedbreve" horiz-adv-x="274"/>
<glyph d="M36 551q6 31 21.5 56.5t38 42.5t50.5 26.5t59 9.5q64 0 101.5 -33t37.5 -102h-54q0 41 -25.5 56.5t-61.5 15.5q-39 0 -71.5 -17t-41.5 -55h-54zM121 0h-91l84 476h91z" unicode="ȋ" glyph-name="iinvertedbreve" horiz-adv-x="261"/>
<glyph d="M216 945h107l103 -144h-73zM379 945h107l103 -144h-73zM689 413q0 48 -15 89.5t-43.5 72.5t-70.5 49t-97 18q-70 0 -127 -29.5t-97.5 -77.5t-62.5 -110t-22 -128q0 -48 15 -89.5t43.5 -73t71 -49.5t97.5 -18q69 0 126 29t97.5 77t62.5 110.5t22 129.5zM376 -18 q-72 0 -131.5 22t-101.5 62t-65.5 96.5t-23.5 125.5q0 91 31.5 171t87 139t131 93.5t164.5 34.5q72 0 131.5 -22t101.5 -62t65.5 -96t23.5 -125q0 -91 -31 -171t-86 -139.5t-131 -94t-166 -34.5z" unicode="Ȍ" glyph-name="Odblgrave" horiz-adv-x="833"/>
<glyph d="M55 707h107l103 -144h-73zM218 707h107l103 -144h-73zM449 275q0 29 -9.5 54.5t-27.5 44t-43.5 29t-58.5 10.5q-41 0 -75.5 -17t-59 -46t-38.5 -67.5t-14 -80.5q0 -30 9.5 -55t27.5 -43.5t43.5 -29t57.5 -10.5q41 0 75.5 17t59.5 45.5t39 67t14 81.5zM256 -13 q-49 0 -90.5 15t-71.5 42.5t-47 65.5t-17 85q0 60 21 113t58.5 93t90 63.5t115.5 23.5q49 0 90.5 -15t71.5 -42t47 -65t17 -84q0 -61 -20.5 -114.5t-58 -93.5t-90 -63.5t-116.5 -23.5z" unicode="ȍ" glyph-name="odblgrave" horiz-adv-x="604"/>
<glyph d="M356 801q6 31 21 56.5t37.5 42.5t50.5 26.5t59 9.5q64 0 101.5 -33t37.5 -102h-54q0 41 -25.5 57t-61.5 16q-39 0 -71.5 -17.5t-41.5 -55.5h-53zM689 413q0 48 -15 89.5t-43.5 72.5t-70.5 49t-97 18q-70 0 -127 -29.5t-97.5 -77.5t-62.5 -110t-22 -128q0 -48 15 -89.5 t43.5 -73t71 -49.5t97.5 -18q69 0 126 29t97.5 77t62.5 110.5t22 129.5zM376 -18q-72 0 -131.5 22t-101.5 62t-65.5 96.5t-23.5 125.5q0 91 31.5 171t87 139t131 93.5t164.5 34.5q72 0 131.5 -22t101.5 -62t65.5 -96t23.5 -125q0 -91 -31 -171t-86 -139.5t-131 -94 t-166 -34.5z" unicode="Ȏ" glyph-name="Oinvertedbreve" horiz-adv-x="833"/>
<glyph d="M193 563q6 32 21 57t37.5 42.5t50.5 27t60 9.5q63 0 100.5 -33t37.5 -103h-54q0 41 -25.5 57t-60.5 16q-40 0 -72.5 -17.5t-40.5 -55.5h-54zM449 275q0 29 -9.5 54.5t-27.5 44t-43.5 29t-58.5 10.5q-41 0 -75.5 -17t-59 -46t-38.5 -67.5t-14 -80.5q0 -30 9.5 -55 t27.5 -43.5t43.5 -29t57.5 -10.5q41 0 75.5 17t59.5 45.5t39 67t14 81.5zM256 -13q-49 0 -90.5 15t-71.5 42.5t-47 65.5t-17 85q0 60 21 113t58.5 93t90 63.5t115.5 23.5q49 0 90.5 -15t71.5 -42t47 -65t17 -84q0 -61 -20.5 -114.5t-58 -93.5t-90 -63.5t-116.5 -23.5z" unicode="ȏ" glyph-name="oinvertedbreve" horiz-adv-x="604"/>
<glyph d="M88 927h108l102 -144h-72zM251 927h108l102 -144h-72zM198 394h113q35 0 67.5 5.5t58 20t41 39t15.5 63.5q0 54 -39 80t-107 26h-108zM129 0h-95l125 708h204q50 0 91.5 -11t71.5 -32.5t47 -54.5t17 -76q0 -48 -15 -83.5t-42 -61t-63.5 -40t-78.5 -20.5l152 -329h-108 l-140 319h-111z" unicode="Ȑ" glyph-name="Rdblgrave" horiz-adv-x="614"/>
<glyph d="M-19 707h108l102 -144h-73zM144 707h108l102 -144h-73zM95 373q4 19 8.5 49t6.5 54h86q-2 -17 -5 -40.5t-5 -38.5h2q25 40 63.5 65.5t87.5 25.5q12 0 22 -1t19 -4l-18 -84q-7 2 -19.5 4t-25.5 2q-58 0 -99.5 -41.5t-55.5 -119.5l-42 -244h-91z" unicode="ȑ" glyph-name="rdblgrave" horiz-adv-x="356"/>
<glyph d="M201 783q6 31 21 56.5t37.5 42.5t50.5 26.5t59 9.5q64 0 101.5 -33t37.5 -102h-54q0 41 -25.5 57t-61.5 16q-39 0 -71.5 -17.5t-41.5 -55.5h-53zM198 394h113q35 0 67.5 5.5t58 20t41 39t15.5 63.5q0 54 -39 80t-107 26h-108zM129 0h-95l125 708h204q50 0 91.5 -11 t71.5 -32.5t47 -54.5t17 -76q0 -48 -15 -83.5t-42 -61t-63.5 -40t-78.5 -20.5l152 -329h-108l-140 319h-111z" unicode="Ȓ" glyph-name="Rinvertedbreve" horiz-adv-x="614"/>
<glyph d="M109 563q6 31 21.5 56.5t38 42.5t50.5 26.5t59 9.5q64 0 101.5 -33t37.5 -102h-54q0 41 -26 57t-61 16q-39 0 -71.5 -17.5t-41.5 -55.5h-54zM95 373q4 19 8.5 49t6.5 54h86q-2 -17 -5 -40.5t-5 -38.5h2q25 40 63.5 65.5t87.5 25.5q12 0 22 -1t19 -4l-18 -84q-7 2 -19.5 4 t-25.5 2q-58 0 -99.5 -41.5t-55.5 -119.5l-42 -244h-91z" unicode="ȓ" glyph-name="rinvertedbreve" horiz-adv-x="356"/>
<glyph d="M179 927h107l102 -144h-72zM342 927h107l102 -144h-72zM316 -18q-64 0 -110.5 18t-76.5 48t-44 69.5t-14 81.5q0 16 1.5 32.5t3.5 32.5l78 444h95l-76 -434q-6 -29 -6 -56q0 -30 8 -58t26 -49t47.5 -33.5t72.5 -12.5q52 0 89 17.5t61 46t38 66t21 78.5l77 435h95 l-78 -445q-9 -49 -29 -99t-56.5 -90.5t-91 -66t-131.5 -25.5z" unicode="Ȕ" glyph-name="Udblgrave" horiz-adv-x="717"/>
<glyph d="M67 695h107l103 -144h-73zM230 695h107l103 -144h-73zM357 0q2 17 5 40t5 38h-2q-26 -42 -68 -66t-91 -24q-78 0 -119 40t-41 105q0 12 1.5 24.5t3.5 26.5l51 292h91l-46 -262q-6 -29 -6 -55q0 -35 13 -58.5t45 -31.5q12 -3 26 -3q11 0 24 2q23 2 45.5 12.5t41.5 30.5 t33.5 49t21.5 68l43 248h91l-66 -373q-4 -19 -8.5 -49t-6.5 -54h-87z" unicode="ȕ" glyph-name="udblgrave" horiz-adv-x="586"/>
<glyph d="M281 783q6 31 21.5 56.5t38 42.5t50.5 26.5t59 9.5q63 0 100.5 -33t37.5 -102h-53q0 41 -26 57t-61 16q-40 0 -72.5 -17.5t-40.5 -55.5h-54zM316 -18q-64 0 -110.5 18t-76.5 48t-44 69.5t-14 81.5q0 16 1.5 32.5t3.5 32.5l78 444h95l-76 -434q-6 -29 -6 -56q0 -30 8 -58 t26 -49t47.5 -33.5t72.5 -12.5q52 0 89 17.5t61 46t38 66t21 78.5l77 435h95l-78 -445q-9 -49 -29 -99t-56.5 -90.5t-91 -66t-131.5 -25.5z" unicode="Ȗ" glyph-name="Uinvertedbreve" horiz-adv-x="717"/>
<glyph d="M178 551q6 31 21.5 56.5t38 42.5t50.5 26.5t59 9.5q64 0 101.5 -33t37.5 -102h-54q0 41 -26 56.5t-61 15.5q-39 0 -71.5 -17t-41.5 -55h-54zM357 0q2 17 5 40t5 38h-2q-26 -42 -68 -66t-91 -24q-78 0 -119 40t-41 105q0 12 1.5 24.5t3.5 26.5l51 292h91l-46 -262 q-6 -29 -6 -55q0 -35 13 -58.5t45 -31.5q12 -3 26 -3q11 0 24 2q23 2 45.5 12.5t41.5 30.5t33.5 49t21.5 68l43 248h91l-66 -373q-4 -19 -8.5 -49t-6.5 -54h-87z" unicode="ȗ" glyph-name="uinvertedbreve" horiz-adv-x="586"/>
<glyph d="M154 -235h-77l104 190h93zM481 580q-20 29 -54 46.5t-77 17.5q-25 0 -51.5 -7t-49 -22.5t-37 -39.5t-14.5 -57q0 -23 8.5 -40t23.5 -30t36 -23.5t46 -19.5q39 -14 72.5 -31.5t59 -41t40 -54t14.5 -70.5q0 -49 -18.5 -90.5t-53 -71.5t-83.5 -47t-110 -17q-34 0 -67.5 7 t-64.5 20.5t-56.5 34t-42.5 48.5l82 55q20 -35 60.5 -58.5t92.5 -23.5q30 0 58.5 8.5t50.5 25t35.5 41t13.5 57.5q0 27 -11 47t-30 35t-44 26.5t-53 21.5q-31 12 -60 27t-51 36t-35 50t-13 69q0 49 19.5 89.5t54.5 68.5t83 43.5t104 15.5q62 0 115.5 -23t82.5 -65z" unicode="Ș" glyph-name="Scommaaccent" horiz-adv-x="569"/>
<glyph d="M95 -235h-77l104 190h93zM347 360q-14 23 -38 38t-62 15q-17 0 -34 -3.5t-31.5 -11t-23.5 -20.5t-9 -31q0 -30 22 -43t63 -24q68 -20 104.5 -51.5t36.5 -89.5q0 -39 -17 -68t-44.5 -48t-62.5 -28.5t-71 -9.5q-68 0 -117.5 25t-76.5 68l75 49q16 -29 47.5 -47t71.5 -18 q42 0 73 17.5t31 52.5q0 31 -24.5 47t-73.5 32q-28 9 -51 19t-40 25t-26.5 35t-9.5 49q0 35 16 62.5t43 46.5t62.5 29t73.5 10q55 0 99 -21t66 -59z" unicode="ș" glyph-name="scommaaccent" horiz-adv-x="444"/>
<glyph d="M142 -235h-77l104 190h93zM260 0h-98l110 622h-224l15 86h544l-15 -86h-222z" unicode="Ț" glyph-name="uni021A" horiz-adv-x="535"/>
<glyph d="M68 -235h-77l104 190h93zM315 398h-117l-45 -249q-3 -17 -3 -30q0 -30 15.5 -40.5t41.5 -10.5q14 0 28 3t23 8l-7 -74q-14 -6 -34.5 -9.5t-40.5 -3.5q-55 0 -87.5 24.5t-32.5 77.5q0 11 1 23t3 24l46 257h-90l14 76h89l23 136h92l-24 -136h119z" unicode="ț" glyph-name="uni021B" horiz-adv-x="324"/>
<glyph d="M474 783h-96l-87 144h79l61 -102l98 102h83zM159 708h96l-54 -298h352l53 298h95l-125 -708h-95l57 326h-351l-57 -326h-96z" unicode="Ȟ" glyph-name="Hcaron" horiz-adv-x="721"/>
<glyph d="M264 831h-96l-87 144h79l61 -102l98 102h83zM349 488q77 0 118 -40t41 -105q0 -13 -1 -25t-4 -26l-51 -292h-91l46 262q6 28 6 54q0 32 -11 54.5t-38 32.5q-20 7 -44 7q-8 0 -16 -1q-48 -6 -88.5 -50.5t-54.5 -125.5l-41 -233h-91l133 756h91l-62 -354h2q25 38 66 62 t90 24z" unicode="ȟ" glyph-name="hcaron" horiz-adv-x="587"/>
<glyph d="M522 842q0 -24 -16.5 -41.5t-40.5 -17.5q-23 0 -39 14.5t-16 38.5q0 26 17.5 42.5t40.5 16.5t38.5 -14.5t15.5 -38.5zM207 258h278l-64 344zM50 0h-109l455 708h93l144 -708h-101l-34 174h-339z" unicode="Ȧ" glyph-name="Adotaccent" horiz-adv-x="699"/>
<glyph d="M368 622q0 -24 -16.5 -41.5t-40.5 -17.5q-23 0 -39 14.5t-16 38.5q0 26 17.5 43t40.5 17t38.5 -15t15.5 -39zM350 231q-41 0 -84 -4t-78 -15t-57.5 -31.5t-22.5 -53.5q0 -20 7.5 -33.5t20.5 -21.5t28.5 -11t32.5 -3q33 0 60 11t48 29.5t35 43.5t19 54l6 35h-15zM374 294 q3 15 4 23.5t1 15.5q0 45 -27 64t-75 19q-39 0 -77.5 -16t-64.5 -38l-40 57q37 32 89.5 50.5t103.5 18.5q36 0 68 -8t56 -25.5t38 -44t14 -63.5q0 -11 -1 -26.5t-3 -26.5l-34 -191q-5 -27 -8 -55.5t-3 -47.5h-81q0 16 1.5 34.5t4.5 35.5h-2q-38 -43 -78 -61.5t-96 -18.5 q-24 0 -50 6.5t-47 21t-34.5 38t-13.5 58.5q0 57 31.5 92.5t82 55t114 26t127.5 6.5z" unicode="ȧ" glyph-name="adotaccent" horiz-adv-x="540"/>
<glyph d="M143 83h365l-15 -83h-170l-60 -71q15 3 28 3q12 0 26 -3.5t25.5 -11.5t19 -21.5t7.5 -32.5q0 -27 -12.5 -45t-31 -29.5t-41 -16.5t-43.5 -5q-12 0 -25.5 1.5t-27.5 4.5t-27 7t-23 9l22 42q17 -8 37 -11.5t39 -3.5q10 0 21 2t20.5 6.5t15.5 13t6 20.5q0 19 -14 27t-34 8 q-10 0 -21 -2t-22 -5l-18 18l80 96h-236l125 708h433l-15 -83h-339l-38 -218h323l-14 -80h-323z" unicode="Ȩ" glyph-name="Ecedilla" horiz-adv-x="582"/>
<glyph d="M422 276q1 7 1.5 15.5t0.5 15.5q0 49 -30.5 80t-89.5 31q-35 0 -63.5 -12t-51 -31.5t-37.5 -45t-22 -53.5h292zM121 213q-1 -5 -1.5 -9.5t-0.5 -8.5q0 -30 11 -54.5t30 -42t45 -27.5t55 -10q51 0 88.5 22t62.5 52l57 -50q-38 -45 -87 -68.5t-104 -28.5l-59 -72 q7 2 14 2.5t14 0.5q12 0 26 -3.5t25.5 -11.5t19 -21.5t7.5 -32.5q0 -27 -12.5 -45t-31 -29t-41.5 -16t-44 -5q-23 0 -52.5 5.5t-49.5 15.5l22 42q16 -8 36 -11.5t40 -3.5q10 0 21 2t20.5 6.5t15.5 13t6 20.5q0 19 -14 27t-34 8q-11 0 -22 -1.5t-21 -5.5l-18 19l80 97 q-42 3 -77.5 18.5t-62 42.5t-41 64t-14.5 84q0 58 21.5 111t59 92.5t88.5 63t110 23.5q97 0 149 -51.5t52 -137.5q0 -14 -2.5 -39t-7.5 -47h-379z" unicode="ȩ" glyph-name="ecedilla" horiz-adv-x="571"/>
<glyph d="M643 990h-286l11 61h286zM647 860q0 -24 -16.5 -41.5t-41.5 -17.5q-23 0 -38.5 14.5t-15.5 39.5q0 26 17 43t41 17q23 0 38.5 -15t15.5 -40zM444 860q0 -24 -16.5 -41.5t-40.5 -17.5q-23 0 -39.5 14.5t-16.5 39.5q0 26 18 43t41 17t38.5 -15t15.5 -40zM689 413 q0 48 -15 89.5t-43.5 72.5t-70.5 49t-97 18q-70 0 -127 -29.5t-97.5 -77.5t-62.5 -110t-22 -128q0 -48 15 -89.5t43.5 -73t71 -49.5t97.5 -18q69 0 126 29t97.5 77t62.5 110.5t22 129.5zM376 -18q-72 0 -131.5 22t-101.5 62t-65.5 96.5t-23.5 125.5q0 91 31.5 171t87 139 t131 93.5t164.5 34.5q72 0 131.5 -22t101.5 -62t65.5 -96t23.5 -125q0 -91 -31 -171t-86 -139.5t-131 -94t-166 -34.5z" unicode="Ȫ" glyph-name="Odieresismacron" horiz-adv-x="833"/>
<glyph d="M467 752h-287l11 62h286zM484 623q0 -24 -16.5 -42t-41.5 -18q-23 0 -39 15t-16 39q0 26 17.5 43t41.5 17q23 0 38.5 -15t15.5 -39zM281 623q0 -24 -17 -42t-40 -18q-24 0 -40 15t-16 39q0 26 17.5 43t41.5 17q23 0 38.5 -15t15.5 -39zM449 275q0 29 -9.5 54.5t-27.5 44 t-43.5 29t-58.5 10.5q-41 0 -75.5 -17t-59 -46t-38.5 -67.5t-14 -80.5q0 -30 9.5 -55t27.5 -43.5t43.5 -29t57.5 -10.5q41 0 75.5 17t59.5 45.5t39 67t14 81.5zM256 -13q-49 0 -90.5 15t-71.5 42.5t-47 65.5t-17 85q0 60 21 113t58.5 93t90 63.5t115.5 23.5q49 0 90.5 -15 t71.5 -42t47 -65t17 -84q0 -61 -20.5 -114.5t-58 -93.5t-90 -63.5t-116.5 -23.5z" unicode="ȫ" glyph-name="odieresismacron" horiz-adv-x="604"/>
<glyph d="M622 990h-286l11 62h286zM302 801q7 21 17 41t24 35t32.5 24.5t42.5 9.5q19 0 36.5 -7t34.5 -15t32.5 -15t30.5 -7q22 0 34.5 14.5t20.5 33.5h51q-8 -21 -18.5 -41t-24.5 -35.5t-32.5 -25t-42.5 -9.5q-19 0 -36.5 7t-34 15.5t-32 15.5t-30.5 7q-23 0 -35 -15t-20 -33h-50 zM689 413q0 48 -15 89.5t-43.5 72.5t-70.5 49t-97 18q-70 0 -127 -29.5t-97.5 -77.5t-62.5 -110t-22 -128q0 -48 15 -89.5t43.5 -73t71 -49.5t97.5 -18q69 0 126 29t97.5 77t62.5 110.5t22 129.5zM376 -18q-72 0 -131.5 22t-101.5 62t-65.5 96.5t-23.5 125.5q0 91 31.5 171 t87 139t131 93.5t164.5 34.5q72 0 131.5 -22t101.5 -62t65.5 -96t23.5 -125q0 -91 -31 -171t-86 -139.5t-131 -94t-166 -34.5z" unicode="Ȭ" glyph-name="Otildemacron" horiz-adv-x="833"/>
<glyph d="M461 753h-286l11 61h286zM143 563q7 21 17 41t24.5 35.5t33 25t42.5 9.5q18 0 36 -7t34.5 -15.5t32 -15.5t30.5 -7q23 0 35.5 14.5t20.5 34.5h50q-7 -21 -17.5 -41t-24.5 -35.5t-32.5 -25t-42.5 -9.5q-19 0 -36.5 7t-34 15t-32.5 15t-31 7q-23 0 -35 -14.5t-20 -33.5h-50 zM449 275q0 29 -9.5 54.5t-27.5 44t-43.5 29t-58.5 10.5q-41 0 -75.5 -17t-59 -46t-38.5 -67.5t-14 -80.5q0 -30 9.5 -55t27.5 -43.5t43.5 -29t57.5 -10.5q41 0 75.5 17t59.5 45.5t39 67t14 81.5zM256 -13q-49 0 -90.5 15t-71.5 42.5t-47 65.5t-17 85q0 60 21 113t58.5 93 t90 63.5t115.5 23.5q49 0 90.5 -15t71.5 -42t47 -65t17 -84q0 -61 -20.5 -114.5t-58 -93.5t-90 -63.5t-116.5 -23.5z" unicode="ȭ" glyph-name="otildemacron" horiz-adv-x="604"/>
<glyph d="M552 860q0 -24 -16.5 -41.5t-41.5 -17.5q-23 0 -39 14.5t-16 38.5q0 26 18 42.5t41 16.5t38.5 -14.5t15.5 -38.5zM689 413q0 48 -15 89.5t-43.5 72.5t-70.5 49t-97 18q-70 0 -127 -29.5t-97.5 -77.5t-62.5 -110t-22 -128q0 -48 15 -89.5t43.5 -73t71 -49.5t97.5 -18 q69 0 126 29t97.5 77t62.5 110.5t22 129.5zM376 -18q-72 0 -131.5 22t-101.5 62t-65.5 96.5t-23.5 125.5q0 91 31.5 171t87 139t131 93.5t164.5 34.5q72 0 131.5 -22t101.5 -62t65.5 -96t23.5 -125q0 -91 -31 -171t-86 -139.5t-131 -94t-166 -34.5z" unicode="Ȯ" glyph-name="Odotaccent" horiz-adv-x="833"/>
<glyph d="M396 622q0 -24 -16.5 -41.5t-41.5 -17.5q-23 0 -39 14.5t-16 38.5q0 26 17.5 43t41.5 17q23 0 38.5 -15t15.5 -39zM449 275q0 29 -9.5 54.5t-27.5 44t-43.5 29t-58.5 10.5q-41 0 -75.5 -17t-59 -46t-38.5 -67.5t-14 -80.5q0 -30 9.5 -55t27.5 -43.5t43.5 -29t57.5 -10.5 q41 0 75.5 17t59.5 45.5t39 67t14 81.5zM256 -13q-49 0 -90.5 15t-71.5 42.5t-47 65.5t-17 85q0 60 21 113t58.5 93t90 63.5t115.5 23.5q49 0 90.5 -15t71.5 -42t47 -65t17 -84q0 -61 -20.5 -114.5t-58 -93.5t-90 -63.5t-116.5 -23.5z" unicode="ȯ" glyph-name="odotaccent" horiz-adv-x="604"/>
<glyph d="M657 988h-286l11 62h286zM548 860q0 -24 -16.5 -41.5t-40.5 -17.5q-23 0 -39 14.5t-16 38.5q0 26 17.5 42.5t41.5 16.5q23 0 38 -14.5t15 -38.5zM689 413q0 48 -15 89.5t-43.5 72.5t-70.5 49t-97 18q-70 0 -127 -29.5t-97.5 -77.5t-62.5 -110t-22 -128q0 -48 15 -89.5 t43.5 -73t71 -49.5t97.5 -18q69 0 126 29t97.5 77t62.5 110.5t22 129.5zM376 -18q-72 0 -131.5 22t-101.5 62t-65.5 96.5t-23.5 125.5q0 91 31.5 171t87 139t131 93.5t164.5 34.5q72 0 131.5 -22t101.5 -62t65.5 -96t23.5 -125q0 -91 -31 -171t-86 -139.5t-131 -94 t-166 -34.5z" unicode="Ȱ" glyph-name="Odotaccentmacron" horiz-adv-x="833"/>
<glyph d="M489 751h-286l10 62h286zM387 622q0 -24 -16.5 -41.5t-40.5 -17.5q-23 0 -39 14.5t-16 38.5q0 26 17.5 43t41.5 17q23 0 38 -15t15 -39zM449 275q0 29 -9.5 54.5t-27.5 44t-43.5 29t-58.5 10.5q-41 0 -75.5 -17t-59 -46t-38.5 -67.5t-14 -80.5q0 -30 9.5 -55t27.5 -43.5 t43.5 -29t57.5 -10.5q41 0 75.5 17t59.5 45.5t39 67t14 81.5zM256 -13q-49 0 -90.5 15t-71.5 42.5t-47 65.5t-17 85q0 60 21 113t58.5 93t90 63.5t115.5 23.5q49 0 90.5 -15t71.5 -42t47 -65t17 -84q0 -61 -20.5 -114.5t-58 -93.5t-90 -63.5t-116.5 -23.5z" unicode="ȱ" glyph-name="odotaccentmacron" horiz-adv-x="604"/>
<glyph d="M495 783h-287l11 62h286zM268 0h-95l53 304l-180 404h110l131 -325l263 325h117l-345 -404z" unicode="Ȳ" glyph-name="Ymacron" horiz-adv-x="571"/>
<glyph d="M428 551h-286l11 61h286zM206 99h2l212 377h100l-318 -537q-24 -39 -44.5 -72t-43.5 -57t-50.5 -37t-63.5 -13q-17 0 -33 2t-31 5l14 80q22 -8 45 -8q32 0 54.5 20.5t44.5 58.5l49 83l-102 475h97z" unicode="ȳ" glyph-name="ymacron" horiz-adv-x="502"/>
<glyph d="M196 708h74l-112 -244h-89z" unicode="ʻ" glyph-name="commaturnedmod" horiz-adv-x="240"/>
<glyph d="M143 464h-74l112 244h89z" unicode="ʼ" glyph-name="afii57929" horiz-adv-x="240"/>
<glyph d="M335 564h-86l-59 99l-94 -99h-91l138 144h106z" unicode="ˆ" glyph-name="circumflex" horiz-adv-x="250"/>
<glyph d="M223 564h-106l-86 144h87l58 -99l94 99h90z" unicode="ˇ" glyph-name="caron" horiz-adv-x="250"/>
<glyph d="M323 797h-294l11 66h295z" unicode="ˉ" glyph-name="uni02C9" horiz-adv-x="250"/>
<glyph d="M354 708q-14 -66 -61.5 -102t-113.5 -36t-104 33.5t-38 104.5h56q0 -20 7 -34t19 -22.5t28.5 -12t35.5 -3.5q42 0 73.5 15.5t42.5 56.5h55z" unicode="˘" glyph-name="breve" horiz-adv-x="250"/>
<glyph d="M245 647q0 -25 -17 -43t-42 -18q-24 0 -41.5 15t-17.5 42t18.5 44.5t42.5 17.5t40.5 -16t16.5 -42z" unicode="˙" glyph-name="dotaccent" horiz-adv-x="250"/>
<glyph d="M245 663q0 21 -13 36t-36 15q-29 0 -47.5 -21t-18.5 -52q0 -21 12.5 -35.5t35.5 -14.5q29 0 48 21t19 51zM175 553q-38 0 -62.5 24t-24.5 59q0 24 8 44.5t23 36.5t35.5 25t44.5 9q39 0 63 -23t24 -59q0 -49 -31 -82.5t-80 -33.5z" unicode="˚" glyph-name="ring" horiz-adv-x="250"/>
<glyph d="M119 -191q-23 -17 -48 -27t-51 -10q-35 0 -59 18.5t-24 56.5q0 24 11.5 46.5t29 42t38.5 36.5t40 31h54q-20 -16 -38 -33t-32.5 -34.5t-23 -35t-8.5 -33.5q0 -20 12 -27.5t29 -7.5q30 0 56 21z" unicode="˛" glyph-name="ogonek" horiz-adv-x="250"/>
<glyph d="M-1 572q7 22 18 42.5t25.5 36.5t34 26t45.5 10q20 0 37.5 -6t34.5 -15q17 -8 33 -14.5t30 -6.5q21 0 34 15t21 32h55q-8 -22 -18.5 -42.5t-25.5 -36.5t-34.5 -26t-44.5 -10q-18 0 -35 6t-34 14q-17 9 -33.5 15.5t-31.5 6.5q-22 0 -35 -15t-21 -32h-55z" unicode="˜" glyph-name="tilde" horiz-adv-x="250"/>
<glyph d="M120 564h-76l125 144h113zM300 564h-76l126 144h113z" unicode="˝" glyph-name="hungarumlaut" horiz-adv-x="250"/>
<glyph d="M143 464h-74l112 244h88zM318 464h-74l113 244h88z" unicode="ˮ" glyph-name="uni02EE" horiz-adv-x="416"/>
<glyph d="M-255 710h107l102 -144h-72z" unicode="̀" glyph-name="gravecmb"/>
<glyph d="M-182 566h-73l126 144h108z" unicode="́" glyph-name="acutecmb"/>
<glyph d="M66 566h-79l-61 101l-98 -101h-83l138 144h97z" unicode="̂" glyph-name="circumflexcmb"/>
<glyph d="M-255 576q7 21 17 41t24 35t32.5 24.5t42.5 9.5q19 0 36.5 -7t34.5 -15t32.5 -15t30.5 -7q22 0 35 14.5t21 33.5h50q-8 -21 -18.5 -41t-24.5 -35.5t-32.5 -25t-42.5 -9.5q-18 0 -35.5 7t-34 15.5t-32.5 15.5t-31 7q-23 0 -35 -15t-20 -33h-50z" unicode="̃" glyph-name="tildecmb"/>
<glyph d="M31 600h-286l10 62h286z" unicode="̄" glyph-name="macroncmb"/>
<glyph d="M52 710q-6 -32 -21.5 -57t-38 -42t-50.5 -26.5t-59 -9.5q-64 0 -101 33t-37 102h53q0 -41 26 -57t61 -16q40 0 72.5 17.5t40.5 55.5h54z" unicode="̆" glyph-name="brevecmb"/>
<glyph d="M-143 653q-1 -23 -17 -41t-40 -18q-23 0 -39 14t-16 39q-1 26 17 43t41 17t39 -15t15 -39z" unicode="̇" glyph-name="dotaccentcmb"/>
<glyph d="M61 653q-1 -23 -17 -41t-41 -18q-23 0 -39 14t-16 39q0 26 18 43t40 17q23 0 39 -15t16 -39zM-142 653q0 -23 -17 -41t-41 -18q-23 0 -39 14t-16 39q-1 26 17 43t42 17q22 0 38 -15t16 -39z" unicode="̈" glyph-name="dieresiscmb"/>
<glyph d="M74 555q5 23 17 40t42 31q38 17 38 46t-34 29q-20 0 -34 -11.5t-22 -37.5l-66 8q15 46 47 68.5t77 22.5q48 0 73.5 -21t25.5 -55q0 -29 -17.5 -50t-47.5 -34q-19 -8 -27 -16.5t-10 -19.5h-62z" unicode="̉" glyph-name="hookabovecomb" horiz-adv-x="250"/>
<glyph d="M-95 667q0 22 -14 37t-38 15q-31 0 -50.5 -23.5t-19.5 -55.5q0 -22 14 -36.5t37 -14.5q31 0 51 23t20 55zM-168 555q-39 0 -63 23t-24 58q0 24 8 45t23 36.5t35 25t44 9.5q39 0 63.5 -22.5t24.5 -58.5q0 -24 -8.5 -45t-23 -37t-35 -25t-44.5 -9z" unicode="̊" glyph-name="ringcmb"/>
<glyph d="M3 566h-75l127 144h109zM-180 566h-75l127 144h110z" unicode="̋" glyph-name="hungarumlautcmb"/>
<glyph d="M-72 566h-97l-86 144h79l61 -102l97 102h84z" unicode="̌" glyph-name="caroncmb"/>
<glyph d="M-418 710h107l102 -144h-72zM-255 710h107l102 -144h-72z" unicode="̏" glyph-name="doublegravecmb"/>
<glyph d="M-307 575q6 31 21 56.5t37.5 42.5t50.5 26.5t60 9.5q63 0 100.5 -33t37.5 -102h-54q0 41 -25.5 57t-60.5 16q-40 0 -72.5 -17.5t-41.5 -55.5h-53z" unicode="̑" glyph-name="invertedbrevecmb"/>
<glyph d="M-195 476q37 0 63 22t26 65q0 24 -7 43l74 18q8 -24 8 -57q0 -31 -9 -57t-28 -46t-47 -32t-66 -11q-29 0 -53 5t-41 11t-27 12t-13 8q-4 9 -4 19h124z" unicode="̛" glyph-name="horncmb"/>
<glyph d="M-142 -131q0 -27 -18.5 -47t-46.5 -20q-27 0 -45 16.5t-18 43.5q0 29 19.5 48.5t47.5 19.5q26 0 43.5 -16.5t17.5 -44.5z" unicode="̣" glyph-name="dotbelowcmb"/>
<glyph d="M61 -124q-1 -24 -17 -42t-41 -18q-23 0 -39 14t-16 40t18 43t40 17q23 0 39 -15t16 -39zM-142 -124q0 -24 -17 -42t-41 -18q-23 0 -39 14t-16 40q-1 26 17 43t42 17q22 0 38 -15t16 -39z" unicode="̤" glyph-name="dieresisbelowcmb"/>
<glyph d="M-95 -155q0 22 -14 37t-38 15q-31 0 -50.5 -23.5t-19.5 -55.5q0 -22 14 -36.5t37 -14.5q31 0 51 23t20 55zM-168 -267q-39 0 -63 23t-24 58q0 24 8 45t23 36.5t35 25t44 9.5q39 0 63.5 -22.5t24.5 -58.5q0 -24 -8.5 -45t-23 -37t-35 -25t-44.5 -9z" unicode="̥" glyph-name="ringbelowcmb"/>
<glyph d="M-194 -317h-76l113 247h92z" unicode="̦" glyph-name="commabelowcmb"/>
<glyph d="M-130 -71q13 3 28 3q12 0 26 -3.5t25.5 -11.5t19 -21.5t7.5 -32.5q0 -27 -12.5 -45t-31 -29.5t-41 -16.5t-43.5 -5q-12 0 -25.5 1.5t-27.5 4.5t-27 7t-23 9l22 42q16 -8 36.5 -11.5t39.5 -3.5q10 0 21 2t20.5 6.5t15.5 13t6 20.5q0 19 -14 27t-34 8q-10 0 -21 -2t-22 -5 l-18 18l80 96h52z" unicode="̧" glyph-name="cedillacmb"/>
<glyph d="M-73 -189q-22 -17 -47.5 -27t-51.5 -10q-32 0 -57.5 17t-25.5 55q0 25 11.5 47.5t28.5 42t38 36t39 29.5h59q-45 -36 -74.5 -70t-29.5 -63q0 -20 12 -26.5t28 -6.5q14 0 29 5.5t27 15.5z" unicode="̨" glyph-name="ogonekcmb"/>
<glyph d="M66 -214h-79l-61 101l-98 -101h-83l138 144h97z" unicode="̭" glyph-name="circumflexbelowcmb"/>
<glyph d="M52 -70q-6 -32 -21.5 -57t-38 -42t-50.5 -26.5t-59 -9.5q-64 0 -101 33t-37 102h53q0 -41 26 -57t61 -16q40 0 72.5 17.5t40.5 55.5h54z" unicode="̮" glyph-name="brevebelowcmb"/>
<glyph d="M-255 -184q7 21 17 41t24 35t32.5 24.5t42.5 9.5q19 0 36.5 -7t34.5 -15t32.5 -15t30.5 -7q22 0 35 14.5t21 33.5h50q-8 -21 -18.5 -41t-24.5 -35.5t-32.5 -25t-42.5 -9.5q-18 0 -35.5 7t-34 15.5t-32.5 15.5t-31 7q-23 0 -35 -15t-20 -33h-50z" unicode="̰" glyph-name="tildebelowcmb"/>
<glyph d="M31 -132h-286l10 62h286z" unicode="̱" glyph-name="macronbelowcmb"/>
<glyph d="M-255 710h107l102 -144h-72z" unicode="̀" glyph-name="gravetonecmb"/>
<glyph d="M-182 566h-73l126 144h108z" unicode="́" glyph-name="acutetonecmb"/>
<glyph d="M-113 782h-73l127 144h107zM61 653q0 -24 -16.5 -41.5t-41.5 -17.5q-23 0 -39 14.5t-16 38.5q0 26 17.5 43t40.5 17t39 -15t16 -39zM-142 653q0 -24 -17 -41.5t-41 -17.5q-23 0 -39 14.5t-16 38.5q0 26 17.5 43t41.5 17q23 0 38.5 -15t15.5 -39z" unicode="̈́" glyph-name="dialytikatonoscmb"/>
<glyph unicode="͏" glyph-name="combininggraphemejoiner"/>
<glyph d="M227 417q0 -26 -18.5 -46t-45.5 -20q-26 0 -44.5 16.5t-18.5 45.5t20 48t46 19t43.5 -17t17.5 -46zM53 -133h-82l112 249h97z" unicode=";" glyph-name="uni037E" horiz-adv-x="300"/>
<glyph d="M212 725h83l-43 -186h-61z" unicode="΄" glyph-name="u0384" horiz-adv-x="260"/>
<glyph d="M214 745h78l-47 -208h-57zM314 582q3 19 20 34t38 15q22 0 32 -13.5t10 -27.5q0 -4 -1 -8q-4 -20 -20.5 -35t-37.5 -15q-22 0 -32 13t-10 27q0 5 1 10zM35 582q4 19 20.5 34t37.5 15q22 0 32 -13t10 -26q0 -5 -1 -10q-3 -20 -19.5 -35t-38.5 -15t-32 13.5t-10 28.5 q0 4 1 8z" unicode="΅" glyph-name="u0385" horiz-adv-x="240"/>
<glyph d="M207 258h278l-64 344zM50 0h-109l455 708h93l144 -708h-101l-34 174h-339zM116 755h82l-42 -186h-62z" unicode="Ά" glyph-name="u0386" horiz-adv-x="707"/>
<glyph d="M200 311q0 -26 -19 -46t-47 -20q-26 0 -44.5 16t-18.5 44q0 29 20 48.5t47 19.5q26 0 44 -16.5t18 -45.5z" unicode="·" glyph-name="anoteleia" horiz-adv-x="270"/>
<glyph d="M213 83h365l-14 -83h-459l125 708h432l-14 -83h-339l-38 -218h323l-14 -80h-324zM77 755h83l-42 -186h-62z" unicode="Έ" glyph-name="u0388" horiz-adv-x="658"/>
<glyph d="M229 708h95l-53 -298h351l53 298h96l-125 -708h-96l58 326h-351l-58 -326h-95zM78 755h82l-42 -186h-62z" unicode="Ή" glyph-name="u0389" horiz-adv-x="792"/>
<glyph d="M200 0h-96l125 708h96zM77 755h83l-43 -186h-61z" unicode="Ί" glyph-name="u038A" horiz-adv-x="344"/>
<glyph d="M765 413q0 48 -15 89.5t-44 72.5t-71 49t-97 18q-70 0 -126.5 -29.5t-97 -77.5t-62.5 -110t-22 -128q0 -48 14.5 -89.5t43 -73t71 -49.5t97.5 -18q69 0 126 29t97.5 77t63 110.5t22.5 129.5zM452 -18q-72 0 -131.5 22t-102 62t-66 96.5t-23.5 125.5q0 91 31.5 171 t87.5 139t131.5 93.5t164.5 34.5q72 0 131 -22t101 -62t65.5 -96t23.5 -125q0 -91 -31 -171t-86 -139.5t-130.5 -94t-165.5 -34.5zM79 755h82l-42 -186h-62z" unicode="Ό" glyph-name="u038C" horiz-adv-x="909"/>
<glyph d="M403 0h-95l54 304l-181 404h110l131 -325l263 325h118l-346 -404zM61 755h82l-42 -186h-61z" unicode="Ύ" glyph-name="u038E" horiz-adv-x="707"/>
<glyph d="M475 0l34 192q92 17 151.5 73t75.5 144q4 26 4 49q0 26 -7.5 58.5t-34.5 61t-68.5 43.5t-94.5 15q-52 0 -99 -15t-84 -43.5t-62.5 -71t-35.5 -97.5q-4 -25 -4 -48q0 -60 36.5 -108t121.5 -61l-33 -192h-278l13 81h196l10 58q-45 10 -80 34t-56.5 59.5t-27.5 69t-6 56.5 q0 26 5 54q13 73 51 130.5t92 97.5t121 61t138 21q70 0 128.5 -21.5t98 -61.5t53 -84.5t13.5 -81.5q0 -28 -6 -60q-9 -50 -33.5 -95.5t-60 -82t-78.5 -62t-89 -34.5l-11 -58h198l-13 -81h-278zM78 755h82l-42 -186h-62z" unicode="Ώ" glyph-name="u038F" horiz-adv-x="875"/>
<glyph d="M135 0h-91l85 476h91zM189 745h77l-47 -208h-56zM289 582q3 19 19.5 34t38.5 15q21 0 31.5 -13.5t10.5 -27.5q0 -4 -1 -8q-4 -20 -20.5 -35t-38.5 -15q-21 0 -31 13t-10 27q0 5 1 10zM10 582q4 19 20.5 34t37.5 15q22 0 32 -13t10 -26q0 -5 -1 -10q-3 -20 -20 -35 t-38 -15q-22 0 -32 13.5t-10 28.5q0 4 1 8z" unicode="ΐ" glyph-name="u0390" horiz-adv-x="294"/>
<glyph d="M207 258h278l-64 344zM50 0h-109l455 708h93l144 -708h-101l-34 174h-339z" unicode="Α" glyph-name="u0391" horiz-adv-x="704"/>
<glyph d="M142 80h124q40 0 76.5 7.5t64.5 24.5t44.5 44.5t16.5 67.5q0 50 -38 78t-107 28h-137zM199 404h134q25 0 53 6.5t51.5 21t38.5 39t15 60.5q0 26 -10.5 44.5t-28.5 30.5t-43 17.5t-54 5.5h-117zM159 708h223q37 0 73.5 -8t66 -26.5t48 -48t18.5 -72.5q0 -71 -42.5 -117.5 t-111.5 -63.5v-2q57 -9 93.5 -48.5t36.5 -102.5q0 -57 -24 -98.5t-66.5 -68t-101 -39.5t-128.5 -13h-210z" unicode="Β" glyph-name="u0392" horiz-adv-x="632"/>
<glyph d="M132 0h-98l124 708h414l-15 -86h-316z" unicode="Γ" glyph-name="u0393" horiz-adv-x="531"/>
<glyph d="M406 604l-305 -521h427zM-24 0l13 76l379 632h98l162 -631l-13 -77h-639z" unicode="Δ" glyph-name="u0394" horiz-adv-x="712"/>
<glyph d="M143 83h365l-15 -83h-459l125 708h433l-15 -83h-339l-38 -218h323l-14 -80h-323z" unicode="Ε" glyph-name="u0395" horiz-adv-x="587"/>
<glyph d="M604 629l-492 -545h401l-14 -84h-526l15 82l492 543h-375l15 83h498z" unicode="Ζ" glyph-name="u0396" horiz-adv-x="588"/>
<glyph d="M159 708h96l-54 -298h352l53 298h95l-125 -708h-95l57 326h-351l-57 -326h-96z" unicode="Η" glyph-name="u0397" horiz-adv-x="722"/>
<glyph d="M689 413q0 48 -15 89.5t-43.5 72.5t-70.5 49t-97 18q-70 0 -127 -29.5t-97.5 -77.5t-62.5 -110t-22 -128q0 -48 15 -89.5t43.5 -73t71 -49.5t97.5 -18q69 0 126 29t97.5 77t62.5 110.5t22 129.5zM376 -18q-72 0 -131.5 22t-101.5 62t-65.5 96.5t-23.5 125.5 q0 91 31.5 171t87 139t131 93.5t164.5 34.5q72 0 131.5 -22t101.5 -62t65.5 -96t23.5 -125q0 -91 -31 -171t-86 -139.5t-131 -94t-166 -34.5zM646 320h-455l8 79h456z" unicode="Θ" glyph-name="u0398" horiz-adv-x="838"/>
<glyph d="M130 0h-96l125 708h96z" unicode="Ι" glyph-name="u0399" horiz-adv-x="275"/>
<glyph d="M199 395h1l340 313h132l-377 -330l285 -378h-123l-263 366h-1l-64 -366h-95l125 708h95z" unicode="Κ" glyph-name="u039A" horiz-adv-x="617"/>
<glyph d="M46 0h-105l422 708h97l174 -708h-108l-138 581z" unicode="Λ" glyph-name="u039B" horiz-adv-x="700"/>
<glyph d="M420 155h2l316 553h145l-125 -708h-95l104 585h-2l-342 -585h-58l-134 585h-3l-102 -585h-92l125 708h140z" unicode="Μ" glyph-name="u039C" horiz-adv-x="904"/>
<glyph d="M540 137h2l100 571h95l-125 -708h-113l-266 578h-2l-101 -578h-95l125 708h114z" unicode="Ν" glyph-name="u039D" horiz-adv-x="760"/>
<glyph d="M545 86l-15 -86h-499l15 86h499zM561 407l-14 -82h-431l14 82h431zM645 708l-15 -86h-489l14 86h490z" unicode="Ξ" glyph-name="u039E" horiz-adv-x="657"/>
<glyph d="M689 413q0 48 -15 89.5t-43.5 72.5t-70.5 49t-97 18q-70 0 -127 -29.5t-97.5 -77.5t-62.5 -110t-22 -128q0 -48 15 -89.5t43.5 -73t71 -49.5t97.5 -18q69 0 126 29t97.5 77t62.5 110.5t22 129.5zM376 -18q-72 0 -131.5 22t-101.5 62t-65.5 96.5t-23.5 125.5 q0 91 31.5 171t87 139t131 93.5t164.5 34.5q72 0 131.5 -22t101.5 -62t65.5 -96t23.5 -125q0 -91 -31 -171t-86 -139.5t-131 -94t-166 -34.5z" unicode="Ο" glyph-name="u039F" horiz-adv-x="838"/>
<glyph d="M691 708l-124 -708h-97l110 622h-339l-110 -622h-97l124 708h533z" unicode="Π" glyph-name="u03A0" horiz-adv-x="718"/>
<glyph d="M198 391h115q83 0 131 32t48 98q0 60 -38.5 83.5t-104.5 23.5h-109zM159 708h201q109 0 168.5 -47t59.5 -130q0 -55 -20.5 -96t-57.5 -68t-88.5 -40t-113.5 -13h-123l-56 -314h-95z" unicode="Ρ" glyph-name="u03A1" horiz-adv-x="595"/>
<glyph d="M5 0l11 64l353 290l1 6l-252 283l11 65h496l-14 -83h-362l244 -265l-1 -8l-324 -269h358l-14 -83h-507z" unicode="Σ" glyph-name="u03A3" horiz-adv-x="613"/>
<glyph d="M264 0h-95l110 625h-227l14 83h550l-15 -83h-227z" unicode="Τ" glyph-name="u03A4" horiz-adv-x="556"/>
<glyph d="M268 0h-95l53 304l-180 404h110l131 -325l263 325h117l-345 -404z" unicode="Υ" glyph-name="u03A5" horiz-adv-x="586"/>
<glyph d="M720 342q6 35 6 56q0 23 -6.5 54.5t-30.5 63.5t-64 53t-95 27l-85 -484q57 6 104 27t83 53t59 73.5t29 76.5zM157 354q-5 -25 -5 -48q0 -22 6.5 -52.5t31.5 -62.5t65.5 -53t95.5 -27l85 485q-57 -6 -104.5 -26.5t-83.5 -53t-59.5 -74t-31.5 -88.5zM546 683q72 -6 129 -32 t94.5 -69t49 -87.5t11.5 -80.5q0 -29 -8.5 -79.5t-44 -108.5t-88 -100.5t-119 -69t-140.5 -32.5l-14 -80h-95l14 80q-73 6 -130.5 32t-95.5 69t-49.5 87.5t-11.5 79.5q0 30 6 62q12 70 47.5 128t88.5 100.5t119.5 68.5t141.5 32l13 74h95z" unicode="Φ" glyph-name="u03A6" horiz-adv-x="881"/>
<glyph d="M336 438l233 270h121l-306 -342l180 -366h-113l-138 298l-256 -298h-125l334 373l-166 335h112z" unicode="Χ" glyph-name="u03A7" horiz-adv-x="640"/>
<glyph d="M429 231h22q38 0 73.5 11t64.5 33.5t49.5 56.5t28.5 81l52 295h97q-6 -39 -15 -87q-8 -42 -18 -97.5t-21 -121.5q-11 -64 -42 -112t-75.5 -80t-98.5 -48t-112 -16h-20l-26 -146h-97l25 146h-27q-58 0 -105.5 16t-79 48t-41 69t-9.5 67q0 26 5 56l54 306h97 q-8 -45 -17 -94q-8 -42 -17 -94.5t-18 -106.5q-4 -24 -4 -44t6 -45.5t27 -48t52 -33.5t69 -11h24l83 477h97z" unicode="Ψ" glyph-name="u03A8" horiz-adv-x="818"/>
<glyph d="M410 0l33 192q92 17 152 73t76 144q4 26 4 49q0 26 -7.5 58.5t-34.5 61t-68.5 43.5t-94.5 15t-99.5 -15t-84 -43.5t-63 -71t-34.5 -97.5q-4 -25 -4 -48q0 -60 36.5 -108t121.5 -61l-34 -192h-278l14 81h196l10 58q-45 10 -80 34t-57 59.5t-27.5 68.5t-5.5 55q0 27 5 56 q13 73 50.5 130.5t92 97.5t121 61t137.5 21q70 0 128.5 -21.5t98 -61.5t53 -84.5t13.5 -81.5q0 -28 -6 -60q-9 -50 -33.5 -95.5t-59.5 -82t-78.5 -62t-89.5 -34.5l-10 -58h198l-14 -81h-277z" unicode="Ω" glyph-name="u03A9" horiz-adv-x="824"/>
<glyph d="M269 846q2 24 21.5 42t45.5 18q25 0 38 -16t13 -35v-6q-3 -23 -21.5 -41.5t-44.5 -18.5t-39 16t-13 35v6zM71 846q2 24 21 42t45 18q25 0 38 -16t13 -35v-6q-3 -23 -21.5 -41.5t-44.5 -18.5t-39 15.5t-13 33.5q0 4 1 8zM131 0h-97l125 708h96z" unicode="Ϊ" glyph-name="u03AA" horiz-adv-x="285"/>
<glyph d="M440 846q2 24 21.5 42t45.5 18q25 0 38 -16t13 -35v-6q-3 -23 -21.5 -41.5t-44.5 -18.5t-39 16t-13 35v6zM241 846q2 24 21.5 42t45.5 18q25 0 38 -16t13 -35v-6q-3 -23 -21.5 -41.5t-44.5 -18.5t-39 16t-13 35v6zM298 0h-97l53 304l-190 404h114l140 -324l257 324h114 l-338 -404z" unicode="Ϋ" glyph-name="u03AB" horiz-adv-x="589"/>
<glyph d="M127.5 246q-4.5 -27 -4.5 -45q0 -15 3.5 -38t20 -46.5t44.5 -37.5t67 -14q36 0 69 13.5t58.5 37t43.5 55t22.5 58t4.5 43.5q0 18 -5 41.5t-22.5 47t-45.5 37t-65 13.5q-39 0 -71.5 -14t-57 -37.5t-41 -55t-21 -58.5zM417 75q-35 -42 -87 -65t-102 -23q-55 0 -96 20 t-66.5 54t-32 68t-6.5 57q0 25 7 64.5t32 85t62.5 79.5t85.5 53.5t102 19.5q52 0 93.5 -22.5t62.5 -63.5h2l13 74h92l-83 -476h-89l12 75h-2zM375 725h82l-42 -186h-62z" unicode="ά" glyph-name="u03AC" horiz-adv-x="641"/>
<glyph d="M429 354q-8 17 -25 30q-14 11 -38 21t-62 10q-23 0 -46.5 -4.5t-43 -13t-32.5 -22t-15 -25t-2 -15.5q0 -12 7.5 -24t24.5 -20.5t41 -12.5t52 -4h95l-12 -70h-82q-84 0 -126 -16t-49 -54q-1 -4 -1 -9q0 -13 8 -24t25.5 -19.5t41 -12.5t48.5 -4q45 0 78 9.5t55 20.5 q26 13 43 31l42 -54q-3 -2 -19 -15.5t-45.5 -29t-73 -28t-101.5 -12.5q-46 0 -85 9.5t-66 27t-38.5 39t-11.5 42.5q0 9 2 19q6 31 22.5 53t37.5 36t43.5 20.5t40.5 8.5q0 1 0.5 1t0.5 1q-18 3 -35.5 11t-30.5 21.5t-18.5 28.5t-5.5 28q0 9 2 19q6 32 27.5 57.5t54 43.5 t73.5 28t86 10q53 0 87.5 -12.5t54.5 -28.5t29 -30.5t11 -18.5zM308 725h83l-43 -186h-61z" unicode="έ" glyph-name="u03AD" horiz-adv-x="529"/>
<glyph d="M199 476q-2 -18 -5.5 -40.5t-5.5 -37.5h2q13 19 33 35.5t44 28.5t50 19t51 7q46 0 78 -15t50.5 -41t22 -51.5t3.5 -41.5q0 -22 -4 -47l-94 -532h-92l89 502q5 28 5 52q0 4 -0.5 19.5t-10.5 35.5t-31 31t-56 11q-29 0 -55 -10.5t-48 -31t-37.5 -51t-22.5 -70.5l-43 -248 h-93l65 367q3 20 8 51.5t8 57.5h89zM329 725h82l-42 -186h-61z" unicode="ή" glyph-name="u03AE" horiz-adv-x="591"/>
<glyph d="M120 0h-91l84 476h91zM156 725h83l-43 -186h-61z" unicode="ί" glyph-name="u03AF" horiz-adv-x="283"/>
<glyph d="M325 745h78l-47 -208h-57zM425 582q3 19 20 34t38 15q22 0 32 -13.5t10 -27.5q0 -4 -1 -8q-4 -20 -20.5 -35t-37.5 -15q-22 0 -32 13t-10 27q0 5 1 10zM146 582q4 19 20.5 34t37.5 15q22 0 32 -13t10 -26q0 -5 -1 -10q-3 -20 -19.5 -35t-38.5 -15t-32 13.5t-10 28.5 q0 4 1 8zM223 -12q-58 0 -95.5 18t-58 47.5t-24 56.5t-3.5 43q0 23 4 46l49 277h92l-47 -264q-4 -21 -4 -41q0 -6 1 -22.5t12 -36.5t32.5 -32.5t56.5 -12.5q34 0 59.5 12.5t43.5 32.5t29 46.5t16 53.5l47 264h92l-48 -277q-7 -40 -26 -78t-50.5 -67.5t-75.5 -47.5t-102 -18z " unicode="ΰ" glyph-name="u03B0" horiz-adv-x="580"/>
<glyph d="M127.5 246q-4.5 -27 -4.5 -45q0 -15 3.5 -38t20 -46.5t44.5 -37.5t67 -14q36 0 69 13.5t58.5 37t43.5 55t22.5 58t4.5 43.5q0 18 -5 41.5t-22.5 47t-45.5 37t-65 13.5q-39 0 -71.5 -14t-57 -37.5t-41 -55t-21 -58.5zM417 75q-35 -42 -87 -65t-102 -23q-55 0 -96 20 t-66.5 54t-32 68t-6.5 57q0 25 7 64.5t32 85t62.5 79.5t85.5 53.5t102 19.5q52 0 93.5 -22.5t62.5 -63.5h2l13 74h92l-83 -476h-89l12 75h-2z" unicode="α" glyph-name="u03B1" horiz-adv-x="641"/>
<glyph d="M1 -240l137 776q9 54 32.5 95.5t57 70t75 43t87.5 14.5q43 0 79.5 -13t61.5 -37t34 -52t9 -53q0 -17 -3 -35q-6 -35 -22 -63.5t-36.5 -50t-44 -34.5t-44.5 -16q0 -1 -0.5 -1.5t-0.5 -1.5q24 0 54.5 -11t56 -34t37 -53t11.5 -58q0 -18 -4 -38q-9 -49 -34.5 -89t-62 -69 t-81.5 -45t-93 -16t-78 14.5t-47.5 31.5t-24 32t-6.5 17l-57 -324h-93zM184 273q-2 -14 -4 -26.5t-4 -25.5q-3 -17 -3 -32q0 -19 6 -41t23.5 -41.5t44 -29t58.5 -9.5q31 0 60.5 9.5t53 28t40.5 45.5t23 62q3 17 3 33q0 47 -34.5 80.5t-113.5 33.5h-62l13 75h51q48 0 85 29 t49 81q4 18 4 35q0 9 -1 17q-5 41 -32 62.5t-68 21.5q-52 0 -92.5 -37t-54.5 -118z" unicode="β" glyph-name="u03B2" horiz-adv-x="654"/>
<glyph d="M208 -240h-93l50 280l-148 436h108l102 -351l219 351h103l-291 -436z" unicode="γ" glyph-name="u03B3" horiz-adv-x="547"/>
<glyph d="M449.5 227q4.5 27 4.5 44t-4.5 40t-21.5 45.5t-45 35.5t-66 13t-70 -13t-56.5 -35.5t-40.5 -53.5t-22 -67q-4 -20 -4 -39q0 -15 4 -37.5t20.5 -45t44 -35.5t65.5 -13t70.5 13t57.5 35.5t42 54t21.5 58.5zM135 624q5 31 27 55.5t57 41.5t82 26.5t102 9.5q48 0 85 -6 t63 -14q30 -9 52 -20l-39 -81q-22 11 -50 20q-24 8 -57.5 14t-75.5 6q-26 0 -50.5 -3t-44 -10t-32.5 -18t-16 -26q-1 -3 -1 -7q0 -21 24 -37t91 -42q36 -15 75 -38.5t69 -59.5t42 -74.5t12 -72.5q0 -25 -5 -52q-9 -53 -35.5 -98.5t-66.5 -79t-90.5 -52.5t-108.5 -19 q-56 0 -99 18.5t-71 52t-36.5 69t-8.5 62.5q0 23 4 47q9 52 35 94.5t62.5 73t80 48t88.5 19.5q5 1 10 1h10l3 4q-5 1 -16 5q-9 3 -26 9.5t-43 17.5q-14 6 -34 14.5t-36.5 22t-25 29.5t-8.5 33q0 8 2 17z" unicode="δ" glyph-name="u03B4" horiz-adv-x="623"/>
<glyph d="M429 354q-8 17 -25 30q-14 11 -38 21t-62 10q-23 0 -46.5 -4.5t-43 -13t-32.5 -22t-15 -25t-2 -15.5q0 -12 7.5 -24t24.5 -20.5t41 -12.5t52 -4h95l-12 -70h-82q-84 0 -126 -16t-49 -54q-1 -4 -1 -9q0 -13 8 -24t25.5 -19.5t41 -12.5t48.5 -4q45 0 78 9.5t55 20.5 q26 13 43 31l42 -54q-3 -2 -19 -15.5t-45.5 -29t-73 -28t-101.5 -12.5q-46 0 -85 9.5t-66 27t-38.5 39t-11.5 42.5q0 9 2 19q6 31 22.5 53t37.5 36t43.5 20.5t40.5 8.5q0 1 0.5 1t0.5 1q-18 3 -35.5 11t-30.5 21.5t-18.5 28.5t-5.5 28q0 9 2 19q6 32 27.5 57.5t54 43.5 t73.5 28t86 10q53 0 87.5 -12.5t54.5 -28.5t29 -30.5t11 -18.5z" unicode="ε" glyph-name="u03B5" horiz-adv-x="529"/>
<glyph d="M242 1q-41 9 -80.5 26t-69 47.5t-40 65.5t-10.5 65q0 27 6 58q14 78 53 142t91.5 115t111.5 90t112 69h-267l13 76h407l-12 -68q-84 -49 -155 -96.5t-124.5 -98t-88.5 -106t-47 -120.5q-4 -21 -4 -40q0 -20 6.5 -44t30 -47.5t62 -40t90.5 -29.5q108 -25 108 -112 q0 -13 -2 -26q-6 -39 -30.5 -69t-55.5 -52t-62.5 -35t-51.5 -18l-49 57q22 6 47.5 15.5t48 22.5t38.5 30t20 38q1 8 1 15q0 12 -5.5 24t-19 21.5t-32.5 15t-40 9.5z" unicode="ζ" glyph-name="u03B6" horiz-adv-x="510"/>
<glyph d="M199 476q-2 -18 -5.5 -40.5t-5.5 -37.5h2q13 19 33 35.5t44 28.5t50 19t51 7q46 0 78 -15t50.5 -41t22 -51.5t3.5 -41.5q0 -22 -4 -47l-94 -532h-92l89 502q5 28 5 52q0 4 -0.5 19.5t-10.5 35.5t-31 31t-56 11q-29 0 -55 -10.5t-48 -31t-37.5 -51t-22.5 -70.5l-43 -248 h-93l65 367q3 20 8 51.5t8 57.5h89z" unicode="η" glyph-name="u03B7" horiz-adv-x="591"/>
<glyph d="M167 332q-8 -53 -8 -99q0 -5 0.5 -32.5t13.5 -64t38.5 -57t66.5 -20.5q42 0 75.5 21.5t58.5 58.5t43.5 86.5t30.5 105.5zM389 686q-41 0 -73.5 -21t-58 -58t-44 -87.5t-31.5 -108.5h318q9 54 9 102q0 3 -0.5 29t-13 63.5t-38.5 59t-68 21.5zM403 761q67 0 109.5 -29.5 t64.5 -82t23 -92.5t1 -48q0 -64 -14 -142.5t-40.5 -149.5t-66.5 -123t-93.5 -81.5t-121.5 -29.5t-111 29.5t-64 81.5t-22 90.5t-1 45.5q0 66 14.5 145t41.5 150.5t67 124t93 82t120 29.5z" unicode="θ" glyph-name="u03B8" horiz-adv-x="666"/>
<glyph d="M120 0h-91l84 476h91z" unicode="ι" glyph-name="u03B9" horiz-adv-x="266"/>
<glyph d="M168 267h3l238 209h122l-263 -217l199 -259h-124l-176 244h-3l-42 -244h-93l84 476h92z" unicode="κ" glyph-name="u03BA" horiz-adv-x="529"/>
<glyph d="M67 0h-98l290 504l-12 59q-5 26 -9.5 45.5t-12.5 33t-22.5 20t-39.5 6.5q-23 0 -39 -5.5t-27 -10.5l-3 75q20 7 43 14t58 7q43 0 68 -10.5t39 -30.5t21.5 -48.5t15.5 -65.5l129 -593h-99l-79 401h-2z" unicode="λ" glyph-name="u03BB" horiz-adv-x="540"/>
<glyph d="M112 476h93l-45 -254q-6 -35 -6 -62q0 -36 16 -64t82 -28q57 0 101 42.5t59 125.5l42 240h92l-65 -373q-5 -26 -8 -51.5t-5 -51.5h-96l11 73h-2q-26 -36 -64.5 -60.5t-81.5 -24.5q-50 0 -73 21.5t-28 58.5h-2l-55 -308h-91z" unicode="μ" glyph-name="u03BC" horiz-adv-x="604"/>
<glyph d="M228 0h-99l-96 476h95l66 -379h2l218 379h99z" unicode="ν" glyph-name="u03BD" horiz-adv-x="507"/>
<glyph d="M39 182q8 45 32 77.5t57 55t72 35t78 17.5q-31 4 -63.5 13.5t-58 27.5t-36 41.5t-10.5 46.5q0 14 3 31q6 35 23 60.5t41.5 43.5t56 29t66.5 18v3h-160l13 73h387l-11 -65q-72 -7 -128 -16.5t-96 -27t-63.5 -44t-30.5 -67.5q-2 -12 -2 -23q0 -18 8 -37t30 -33.5t55 -21.5 t74 -7h94l-15 -90h-124q-35 0 -67.5 -8t-58.5 -24t-43 -38.5t-22 -51.5q-2 -12 -2 -23q0 -16 6 -33.5t27 -32.5t55.5 -25.5t83.5 -18.5q40 -7 66.5 -20.5t40.5 -31.5t16.5 -34t2.5 -27q0 -12 -2 -26q-7 -38 -31.5 -68t-55.5 -51.5t-62.5 -34.5t-52.5 -18l-54 52q20 4 45 13 t48.5 22t40.5 30.5t21 38.5q1 8 1 15q0 27 -23 45.5t-83 28.5q-39 6 -76.5 17t-65.5 31.5t-39 46.5t-11 52q0 16 3 34z" unicode="ξ" glyph-name="u03BE" horiz-adv-x="539"/>
<glyph d="M449 275q0 29 -9.5 54.5t-27.5 44t-43.5 29t-58.5 10.5q-41 0 -75.5 -17t-59 -46t-38.5 -67.5t-14 -80.5q0 -30 9.5 -55t27.5 -43.5t43.5 -29t57.5 -10.5q41 0 75.5 17t59.5 45.5t39 67t14 81.5zM256 -13q-49 0 -90.5 15t-71.5 42.5t-47 65.5t-17 85q0 60 21 113t58.5 93 t90 63.5t115.5 23.5q49 0 90.5 -15t71.5 -42t47 -65t17 -84q0 -61 -20.5 -114.5t-58 -93.5t-90 -63.5t-116.5 -23.5z" unicode="ο" glyph-name="u03BF" horiz-adv-x="617"/>
<glyph d="M122 0h-93l84 476h420l-83 -476h-93l71 401h-236z" unicode="π" glyph-name="u03C0" horiz-adv-x="595"/>
<glyph d="M477 238q3 20 3 39q0 15 -3.5 38t-20 46.5t-44.5 36.5t-67 13q-36 0 -68 -13.5t-57.5 -36.5t-43 -54.5t-23.5 -68.5q-4 -20 -4 -39q0 -17 5 -40.5t23 -46t45.5 -35t62.5 -12.5q39 0 71.5 13.5t57 37t41 55t22.5 67.5zM72 -240h-91l84 474q10 61 39 109t69.5 80t90 49 t100.5 17q55 0 97.5 -19t69.5 -53t35 -69.5t8 -62.5q0 -23 -6.5 -62.5t-33.5 -85.5t-66 -79t-88.5 -52t-104.5 -19q-48 0 -87.5 20.5t-59.5 55.5h-3z" unicode="ρ" glyph-name="u03C1" horiz-adv-x="637"/>
<glyph d="M280 71q23 -5 47.5 -14t43.5 -25.5t26.5 -36.5t7.5 -39q0 -14 -3 -29q-7 -39 -31.5 -69t-55.5 -52t-62 -35t-51 -18l-49 57q22 6 47.5 15.5t48 22.5t38.5 30t20 38q1 8 1 16q0 13 -5.5 24.5t-18 20t-28 12.5t-30.5 7t-37 8.5t-46 16t-47 27.5t-39 42.5t-21 51.5t-5 44 q0 23 5 51q10 58 37.5 104.5t67.5 79.5t89 50.5t102 17.5q57 0 103.5 -20.5t69.5 -60.5l-74 -56q-11 24 -37.5 41.5t-72.5 17.5q-35 0 -66 -11.5t-56.5 -33.5t-43.5 -54t-25 -72q-4 -21 -4 -38q0 -22 8 -45t30 -41t52.5 -28t63.5 -17z" unicode="ς" glyph-name="u03C2" horiz-adv-x="516"/>
<glyph d="M451.5 229.5q4.5 27.5 4.5 44.5q0 16 -4 39.5t-21.5 47t-45.5 37t-65 13.5q-38 0 -70 -13.5t-57.5 -37t-42.5 -55t-21.5 -59t-4.5 -44.5q0 -16 4 -39.5t21 -47t44.5 -37t65.5 -13.5q37 0 70 13.5t58.5 37t42.5 55t21.5 59zM514 400q0 -1 -0.5 -1.5t-0.5 -1.5 q20 -25 28 -57t8 -58q0 -22 -6.5 -60.5t-34 -84t-67 -79t-90 -52.5t-106.5 -19t-99 19t-71 52.5t-36 69t-8 62.5q0 23 4 48q10 54 37 100t66.5 79.5t89.5 52.5t106 19q26 0 44.5 -2t36 -4t38 -4t51.5 -2h154l-13 -77h-131z" unicode="σ" glyph-name="u03C3" horiz-adv-x="634"/>
<glyph d="M47 476h461l-13 -75h-185l-70 -401h-93l70 401h-183z" unicode="τ" glyph-name="u03C4" horiz-adv-x="498"/>
<glyph d="M223 -12q-58 0 -95.5 18t-58 47.5t-24 56.5t-3.5 43q0 23 4 46l49 277h92l-47 -264q-4 -19 -4 -38q0 -8 1.5 -25t12 -37t32 -32.5t56.5 -12.5q34 0 59.5 12.5t43.5 32.5t29 46.5t16 53.5l47 264h92l-48 -277q-7 -40 -26 -78t-50.5 -67.5t-75.5 -47.5t-102 -18z" unicode="υ" glyph-name="u03C5" horiz-adv-x="580"/>
<glyph d="M33 245q9 53 34.5 93t59 69.5t71.5 48t73 28.5l25 -68q-26 -7 -53 -20.5t-50.5 -34.5t-41 -49t-24.5 -65q-4 -21 -4 -39q0 -23 8 -49t33.5 -48t64.5 -33t87 -12l74 414h128q54 0 99.5 -16.5t76 -47t41.5 -65t11 -64.5q0 -20 -4 -41q-11 -65 -46 -113.5t-84 -80.5 t-106.5 -48t-114.5 -16l-40 -228h-88l40 228q-66 1 -121 17t-92 47.5t-49.5 69t-12.5 70.5q0 25 5 53zM648 247q3 18 3 33q0 26 -11 51t-35 42t-53 23.5t-53 6.5h-34l-60 -337q45 0 85.5 11.5t73 34t54.5 56t30 79.5z" unicode="φ" glyph-name="u03C6" horiz-adv-x="818"/>
<glyph d="M169 476l102 -270l195 270h98l-252 -339l145 -376h-100l-112 307l-221 -307h-100l277 377l-132 338h100z" unicode="χ" glyph-name="u03C7" horiz-adv-x="579"/>
<glyph d="M403 66q44 1 82.5 14t68.5 38.5t51 63.5t30 89l36 205h93l-40 -222q-12 -66 -42.5 -116t-75.5 -84t-101 -51t-117 -18l-39 -225h-93l40 225q-61 0 -110.5 17.5t-82.5 51.5t-43.5 72t-10.5 69q0 28 6 59l39 222h93l-36 -205q-5 -29 -5 -53q0 -19 5 -46t26 -52.5t55 -39 t78 -14.5l73 410h92z" unicode="ψ" glyph-name="u03C8" horiz-adv-x="801"/>
<glyph d="M318 421q-84 -26 -131 -70.5t-61 -124.5q-4 -26 -4 -48q0 -8 1 -26t11.5 -39t28.5 -33t45 -12q48 0 86.5 39.5t52.5 118.5l15 86h93l-15 -86q-5 -29 -5 -53q0 -40 19 -72t69 -32q27 0 49.5 11.5t40.5 32.5t30 50t18 63q4 24 4 45q0 49 -26 86.5t-101 63.5l58 62 q36 -11 68.5 -31.5t55.5 -52.5t30 -65t7 -59q0 -27 -5 -57q-9 -50 -29.5 -91.5t-51.5 -71.5t-70.5 -47t-86.5 -17q-67 0 -101.5 35t-34.5 92q0 8 1 16h-4q-22 -71 -71.5 -108t-114.5 -37q-46 0 -79.5 17t-54 47t-24.5 59.5t-4 47.5q0 27 5 58q11 62 36.5 107t59.5 76.5 t73.5 51t79.5 30.5z" unicode="ω" glyph-name="u03C9" horiz-adv-x="836"/>
<glyph d="M375 653q0 -24 -17 -41.5t-41 -17.5q-23 0 -39 14.5t-16 38.5q0 26 17 43t41 17q23 0 39 -15t16 -39zM171 653q0 -24 -16.5 -41.5t-40.5 -17.5q-23 0 -39.5 14.5t-16.5 38.5q0 26 18 43t41 17t38.5 -15t15.5 -39zM152 0h-90l84 476h91z" unicode="ϊ" glyph-name="u03CA" horiz-adv-x="317"/>
<glyph d="M498 651q-2 -24 -20 -41t-42 -17q-23 0 -37.5 14.5t-14.5 35.5q0 3 1 17t19 31t41 17t38 -15t15 -37v-5zM295 651q-2 -24 -20 -41t-41 -17t-38 14.5t-15 36.5q0 3 1 16.5t19.5 30.5t41.5 17t37.5 -15t14.5 -36v-6zM223 -12q-58 0 -95.5 18t-58 47.5t-24 56.5t-3.5 43 q0 23 4 46l49 277h92l-47 -264q-4 -21 -4 -41q0 -6 1 -22.5t12 -36.5t32.5 -32.5t56.5 -12.5q34 0 59.5 12.5t43.5 32.5t29 46.5t16 53.5l47 264h92l-48 -277q-7 -40 -26 -78t-50.5 -67.5t-75.5 -47.5t-102 -18z" unicode="ϋ" glyph-name="u03CB" horiz-adv-x="580"/>
<glyph d="M449 275q0 29 -9.5 54.5t-27.5 44t-43.5 29t-58.5 10.5q-41 0 -75.5 -17t-59 -46t-38.5 -67.5t-14 -80.5q0 -30 9.5 -55t27.5 -43.5t43.5 -29t57.5 -10.5q41 0 75.5 17t59.5 45.5t39 67t14 81.5zM256 -13q-49 0 -90.5 15t-71.5 42.5t-47 65.5t-17 85q0 60 21 113t58.5 93 t90 63.5t115.5 23.5q49 0 90.5 -15t71.5 -42t47 -65t17 -84q0 -61 -20.5 -114.5t-58 -93.5t-90 -63.5t-116.5 -23.5zM323 725h82l-42 -186h-61z" unicode="ό" glyph-name="u03CC" horiz-adv-x="617"/>
<glyph d="M223 -12q-58 0 -95.5 18t-58 47.5t-24 56.5t-3.5 43q0 23 4 46l49 277h92l-47 -264q-4 -19 -4 -38q0 -8 1.5 -25t12 -37t32 -32.5t56.5 -12.5q34 0 59.5 12.5t43.5 32.5t29 46.5t16 53.5l47 264h92l-48 -277q-7 -40 -26 -78t-50.5 -67.5t-75.5 -47.5t-102 -18zM312 725 h82l-42 -186h-62z" unicode="ύ" glyph-name="u03CD" horiz-adv-x="580"/>
<glyph d="M318 421q-84 -26 -131 -70.5t-61 -124.5q-4 -26 -4 -48q0 -8 1 -26t11.5 -39t28.5 -33t45 -12q48 0 86.5 39.5t52.5 118.5l15 86h93l-15 -86q-5 -29 -5 -53q0 -40 19 -72t69 -32q27 0 49.5 11.5t40.5 32.5t30 50t18 63q4 24 4 45q0 49 -26 86.5t-101 63.5l58 62 q36 -11 68.5 -31.5t55.5 -52.5t30 -65t7 -59q0 -27 -5 -57q-9 -50 -29.5 -91.5t-51.5 -71.5t-70.5 -47t-86.5 -17q-67 0 -101.5 35t-34.5 92q0 8 1 16h-4q-22 -71 -71.5 -108t-114.5 -37q-46 0 -79.5 17t-54 47t-24.5 59.5t-4 47.5q0 27 5 58q11 62 36.5 107t59.5 76.5 t73.5 51t79.5 30.5zM430 725h83l-43 -186h-61z" unicode="ώ" glyph-name="u03CE" horiz-adv-x="836"/>
<glyph d="M555 851q0 -24 -16.5 -41.5t-41.5 -17.5q-23 0 -39 14.5t-16 38.5q0 26 17.5 43t41.5 17q23 0 38.5 -15t15.5 -39zM352 851q0 -24 -17 -41.5t-41 -17.5q-23 0 -39 14.5t-16 38.5q0 26 17.5 43t41.5 17q23 0 38.5 -15t15.5 -39zM143 83h365l-15 -83h-459l125 708h433 l-15 -83h-339l-38 -218h323l-14 -80h-323z" unicode="Ё" glyph-name="u0401" horiz-adv-x="597"/>
<glyph d="M53 622l15 86h535l-15 -86h-244l-30 -165h123q65 0 110 -17.5t71 -48t32.5 -61.5t6.5 -53q0 -23 -5 -49q-9 -48 -32 -90t-60 -72.5t-87 -48.5t-113 -18l-34 1l14 86h49q27 0 53.5 9t49 26.5t39 43.5t22.5 61q3 17 3 32q0 44 -28 78t-108 34h-121l-65 -370h-97l110 622 h-194z" unicode="Ђ" glyph-name="u0402" horiz-adv-x="720"/>
<glyph d="M132 0h-98l124 708h414l-15 -86h-316zM367 764h-73l127 144h107z" unicode="Ѓ" glyph-name="u0403" horiz-adv-x="539"/>
<glyph d="M658 112q-23 -27 -53.5 -50.5t-67 -41t-79 -28t-90.5 -10.5q-82 0 -145.5 28t-104 77.5t-52.5 101.5t-12 91q0 36 10.5 95.5t51 127.5t99 117.5t131.5 77.5t154 28q82 0 144 -28.5t91 -81.5l-84 -64q-17 35 -59 61.5t-107 26.5q-55 0 -104 -18t-89 -50t-69 -75t-45 -94 h397l-14 -81h-400q-1 -15 -1 -29q0 -38 11.5 -78t40.5 -74t72.5 -53t99.5 -19q59 0 114 23t100 74z" unicode="Є" glyph-name="u0404" horiz-adv-x="707"/>
<glyph d="M486 582q-19 28 -53.5 45.5t-79.5 17.5q-27 0 -55 -7.5t-50.5 -23t-37 -39.5t-14.5 -57q0 -24 9 -42t25 -31.5t38 -24t47 -19.5q35 -13 68 -29.5t58.5 -39t41 -52.5t15.5 -70q0 -43 -16.5 -84t-49.5 -73t-83 -51.5t-117 -19.5q-33 0 -66.5 6.5t-64 20t-56 33.5t-42.5 46 l79 56q20 -34 60.5 -57.5t92.5 -23.5q33 0 62 9t51.5 26.5t35.5 42t13 56.5q0 27 -11 47t-30 35t-44 26t-53 22q-32 11 -61 26t-51.5 36.5t-36 50.5t-13.5 68q0 47 18.5 87t52.5 69t82 45.5t108 16.5q69 0 122.5 -23.5t79.5 -62.5z" unicode="Ѕ" glyph-name="u0405" horiz-adv-x="571"/>
<glyph d="M130 0h-96l125 708h96z" unicode="І" glyph-name="u0406" horiz-adv-x="275"/>
<glyph d="M370 851q0 -24 -17 -41.5t-41 -17.5q-23 0 -39 14.5t-16 38.5q0 26 17 43t41 17q23 0 39 -15t16 -39zM166 851q0 -24 -16.5 -41.5t-40.5 -17.5q-23 0 -39.5 14.5t-16.5 38.5q0 26 18 43t41 17t38.5 -15t15.5 -39zM116 0h-95l125 708h95z" unicode="Ї" glyph-name="u0407" horiz-adv-x="280"/>
<glyph d="M70 154q6 -36 30 -62t67 -26q34 0 57 12.5t37.5 33.5t23 48t13.5 57l86 491h96l-88 -495q-6 -37 -18 -77.5t-36.5 -74.5t-64.5 -56.5t-103 -22.5q-41 0 -73.5 11.5t-55.5 31t-37.5 46t-19.5 56.5z" unicode="Ј" glyph-name="u0408" horiz-adv-x="501"/>
<glyph d="M535 329l57 -247q37 0 70 6.5t59.5 20.5t44 36.5t23.5 54.5q2 14 2 26q0 21 -8.5 41.5t-31 35.5t-55 20.5t-69.5 5.5h-92zM45 0h-102l410 708h95l69 -296h128q64 0 113.5 -13t81 -39t41.5 -58t10 -60q0 -21 -4 -45q-8 -43 -32 -79t-63.5 -62.5t-92.5 -41t-118 -14.5h-77 l-126 592z" unicode="Љ" glyph-name="u0409" horiz-adv-x="930"/>
<glyph d="M596 330l-43 -245h107q77 0 123 31.5t57 91.5q3 14 3 27q0 42 -33 68.5t-108 26.5h-106zM255 708l-51 -294h310l52 294h97l-52 -294h113q54 0 98 -13.5t72.5 -39.5t37.5 -57t9 -58q0 -21 -4 -43q-9 -50 -34 -87.5t-62.5 -63.5t-85.5 -39t-103 -13h-210l57 328h-310 l-58 -328h-97l124 708h97z" unicode="Њ" glyph-name="u040A" horiz-adv-x="1007"/>
<glyph d="M297 369l-64 -369h-97l109 622h-194l15 86h535l-15 -86h-244l-29 -167h148q55 0 93.5 -16t60.5 -44.5t27.5 -59.5t5.5 -53t-4 -47q-4 -29 -9.5 -61t-11 -63.5t-11 -60t-8.5 -50.5h-97l30 176q8 46 8 82t-12.5 60.5t-39.5 37.5t-73 13h-123z" unicode="Ћ" glyph-name="u040B" horiz-adv-x="736"/>
<glyph d="M400 764h-72l126 144h108zM34 0l124 708h97l-50 -290q47 0 86 -6l297 296h121l-322 -322q105 -42 152 -136t47 -233v-17h-106q-1 168 -67.5 250t-208.5 82h-14l-59 -332h-97z" unicode="Ќ" glyph-name="u040C" horiz-adv-x="691"/>
<glyph d="M104 708h102l133 -437l277 437h113l-359 -554q-24 -38 -50 -68t-54 -52q-30 -22 -65 -36q-35 -12 -79 -12q-42 0 -68 10t-39 22l66 76q11 -8 25 -14t35 -6q37 0 67 22t60 67zM427 766q-36 0 -66 9t-52 25q-23 16 -37 36q-14 21 -18 44l66 30q8 -35 34 -58t73 -23t73 23 t35 58l65 -30q-4 -23 -18 -44q-14 -20 -36 -36t-53 -25q-30 -9 -66 -9z" unicode="Ў" glyph-name="u040E" horiz-adv-x="670"/>
<glyph d="M487 86l110 622h97l-124 -708h-216l-24 -139h-90l24 139h-230l124 708h97l-109 -622h341z" unicode="Џ" glyph-name="u040F" horiz-adv-x="721"/>
<glyph d="M207 258h278l-64 344zM50 0h-109l455 708h93l144 -708h-101l-34 174h-339z" unicode="А" glyph-name="u0410" horiz-adv-x="699"/>
<glyph d="M34 0l124 708h429l-15 -86h-331l-37 -209h132q55 0 98.5 -13t71.5 -39t37 -55.5t9 -55.5q0 -20 -6.5 -56.5t-32 -75.5t-63.5 -65.5t-86.5 -39.5t-102.5 -13h-227zM269 86q75 0 124 32t60 90q2 13 2 24q0 43 -34.5 69t-107.5 26h-124l-43 -241h123z" unicode="Б" glyph-name="u0411" horiz-adv-x="620"/>
<glyph d="M142 80h124q40 0 76.5 7.5t64.5 24.5t44.5 44.5t16.5 67.5q0 50 -38 78t-107 28h-137zM199 404h134q25 0 53 6.5t51.5 21t38.5 39t15 60.5q0 26 -10.5 44.5t-28.5 30.5t-43 17.5t-54 5.5h-117zM159 708h223q37 0 73.5 -8t66 -26.5t48 -48t18.5 -72.5q0 -71 -42.5 -117.5 t-111.5 -63.5v-2q57 -9 93.5 -48.5t36.5 -102.5q0 -57 -24 -98.5t-66.5 -68t-101 -39.5t-128.5 -13h-210z" unicode="В" glyph-name="u0412" horiz-adv-x="643"/>
<glyph d="M132 0h-98l124 708h414l-15 -86h-316z" unicode="Г" glyph-name="u0413" horiz-adv-x="539"/>
<glyph d="M151 86h363l-72 503zM34 0l-25 -139h-89l39 225h85l373 622h93l103 -622h101l-40 -225h-89l25 139h-576z" unicode="Д" glyph-name="u0414" horiz-adv-x="749"/>
<glyph d="M143 83h365l-15 -83h-459l125 708h433l-15 -83h-339l-38 -218h323l-14 -80h-323z" unicode="Е" glyph-name="u0415" horiz-adv-x="596"/>
<glyph d="M449 331q-122 0 -211.5 -81.5t-138.5 -249.5h-107q44 152 115 246.5t174 136.5l-162 325h105l148 -299q46 8 92 8l51 291h97l-51 -291q22 0 42 -2t39 -5l254 298h115l-279 -328q157 -77 157 -326q0 -26 -2 -54h-106q1 21 1 40q0 137 -52 214t-175 77h-9l-58 -331h-97z " unicode="Ж" glyph-name="u0416" horiz-adv-x="988"/>
<glyph d="M219 407h50q31 0 65 6.5t61.5 22t45.5 41.5t18 65q0 46 -33 73t-88 30h-8q-43 0 -78.5 -21t-61.5 -60l-72 49q42 60 98.5 86.5t120.5 26.5q9 0 19 -1q42 -2 79.5 -14t66 -34t45 -53.5t16.5 -71.5q0 -38 -13.5 -68.5t-37.5 -54t-55.5 -39.5t-67.5 -23v-2q25 -5 51.5 -16.5 t48 -31t35 -47t13.5 -63.5q0 -56 -24.5 -99.5t-65 -72t-88 -41t-92.5 -12.5q-10 0 -20 1q-97 5 -156 50.5t-79 124.5l93 33q12 -56 46 -89t105 -37h15q30 0 58 7t51.5 24.5t37.5 42t19 55.5q2 11 2 21q0 23 -10 44.5t-35 38.5t-61 25t-80 8h-48z" unicode="З" glyph-name="u0417" horiz-adv-x="614"/>
<glyph d="M158 139l472 569h126l-124 -708h-97l100 572h-2l-473 -572h-126l124 708h97l-100 -569h3z" unicode="И" glyph-name="u0418" horiz-adv-x="783"/>
<glyph d="M461 766q-36 0 -65 9t-50 24.5t-34 36.5t-17 44l65 30q8 -35 35 -58t73 -23q47 0 80 23t50 58l60 -30q-11 -23 -29 -44t-43.5 -36.5t-57 -24.5t-67.5 -9zM158 141l473 567h124l-124 -708h-97l101 572h-2l-474 -572h-125l124 708h97l-99 -567h2z" unicode="Й" glyph-name="u0419" horiz-adv-x="782"/>
<glyph d="M34 0l124 708h97l-50 -290q47 0 86 -6l297 296h121l-322 -322q105 -42 152 -136t47 -233v-17h-106q-1 168 -67.5 250t-208.5 82h-14l-59 -332h-97z" unicode="К" glyph-name="u041A" horiz-adv-x="691"/>
<glyph d="M50 0h-110l454 708h94l143 -708h-100l-111 589z" unicode="Л" glyph-name="u041B" horiz-adv-x="700"/>
<glyph d="M420 155h2l316 553h145l-125 -708h-95l104 585h-2l-342 -585h-58l-134 585h-3l-102 -585h-92l125 708h140z" unicode="М" glyph-name="u041C" horiz-adv-x="904"/>
<glyph d="M159 708h96l-54 -298h352l53 298h95l-125 -708h-95l57 326h-351l-57 -326h-96z" unicode="Н" glyph-name="u041D" horiz-adv-x="730"/>
<glyph d="M689 413q0 48 -15 89.5t-43.5 72.5t-70.5 49t-97 18q-70 0 -127 -29.5t-97.5 -77.5t-62.5 -110t-22 -128q0 -48 15 -89.5t43.5 -73t71 -49.5t97.5 -18q69 0 126 29t97.5 77t62.5 110.5t22 129.5zM376 -18q-72 0 -131.5 22t-101.5 62t-65.5 96.5t-23.5 125.5 q0 91 31.5 171t87 139t131 93.5t164.5 34.5q72 0 131.5 -22t101.5 -62t65.5 -96t23.5 -125q0 -91 -31 -171t-86 -139.5t-131 -94t-166 -34.5z" unicode="О" glyph-name="u041E" horiz-adv-x="850"/>
<glyph d="M691 708l-124 -708h-97l110 622h-339l-110 -622h-97l124 708h533z" unicode="П" glyph-name="u041F" horiz-adv-x="718"/>
<glyph d="M198 391h115q83 0 131 32t48 98q0 60 -38.5 83.5t-104.5 23.5h-109zM159 708h201q109 0 168.5 -47t59.5 -130q0 -55 -20.5 -96t-57.5 -68t-88.5 -40t-113.5 -13h-123l-56 -314h-95z" unicode="Р" glyph-name="u0420" horiz-adv-x="595"/>
<glyph d="M656 109q-21 -26 -49 -49t-63.5 -40.5t-78 -27.5t-92.5 -10q-72 0 -130.5 22t-100.5 62t-65 96.5t-23 124.5q0 92 32.5 172t89.5 139.5t134 93.5t166 34q80 0 145 -30t97 -81l-80 -60q-8 16 -23 31.5t-35.5 28t-47.5 20t-59 7.5q-70 0 -128.5 -29t-100.5 -77.5 t-65 -110.5t-23 -128q0 -48 15 -89.5t43.5 -73t71 -49.5t97.5 -18q60 0 114 23.5t96 74.5z" unicode="С" glyph-name="u0421" horiz-adv-x="714"/>
<glyph d="M264 0h-95l110 625h-227l14 83h550l-15 -83h-227z" unicode="Т" glyph-name="u0422" horiz-adv-x="556"/>
<glyph d="M206 708l133 -437l277 437h113l-359 -554q-24 -37 -49.5 -67.5t-55 -53t-64.5 -35t-79 -12.5q-42 0 -67.5 10.5t-39.5 21.5l66 76q11 -8 25.5 -14t34.5 -6q37 0 67.5 22.5t59.5 66.5l-164 545h102z" unicode="У" glyph-name="u0423" horiz-adv-x="670"/>
<glyph d="M150 315q0 -39 10 -73.5t32.5 -61.5t60 -45t92.5 -24l86 485q-62 -7 -113.5 -29.5t-89 -59t-58 -85.5t-20.5 -107zM729 392q0 39 -10 74t-34 62.5t-63 45.5t-97 23l-85 -487q63 6 116 28t91.5 59t60 86t21.5 109zM540 683q69 -6 123.5 -28.5t92 -60t57 -88.5t19.5 -114 q0 -83 -33 -149.5t-89 -113.5t-130 -74t-156 -32l-13 -79h-95l14 80q-135 14 -209 90.5t-74 200.5q0 82 32 147.5t87 112.5t127 75t153 34l13 73h95z" unicode="Ф" glyph-name="u0424" horiz-adv-x="881"/>
<glyph d="M336 438l233 270h121l-306 -342l180 -366h-113l-138 298l-256 -298h-125l334 373l-166 335h112z" unicode="Х" glyph-name="u0425" horiz-adv-x="640"/>
<glyph d="M34 0l124 708h97l-109 -622h341l110 622h97l-110 -622h85l-40 -225h-89l25 139h-531z" unicode="Ц" glyph-name="u0426" horiz-adv-x="747"/>
<glyph d="M505 708h97l-124 -708h-96l54 305h-163q-58 0 -97.5 17t-62 48t-26.5 61.5t-4 48.5q0 30 6 63l29 165h97l-22 -129q-8 -45 -8 -80t12 -59t37.5 -36.5t67.5 -12.5h148z" unicode="Ч" glyph-name="u0427" horiz-adv-x="622"/>
<glyph d="M412 86l110 622h97l-110 -622h259l110 622h97l-124 -708h-817l124 708h97l-109 -622h266z" unicode="Ш" glyph-name="u0428" horiz-adv-x="1002"/>
<glyph d="M34 0l124 708h97l-109 -622h266l110 622h97l-110 -622h258l109 622h97l-109 -622h94l-39 -225h-90l25 139h-820z" unicode="Щ" glyph-name="u0429" horiz-adv-x="1036"/>
<glyph d="M237 84h102q79 0 124.5 37.5t56.5 94.5q2 13 2 25q0 40 -30 71t-108 31h-102zM346 708l-49 -281h103q56 0 100 -13.5t73.5 -40.5t39 -57.5t9.5 -56.5q0 -20 -6.5 -56.5t-35.5 -77t-72.5 -68t-98.5 -42.5t-117 -15h-167l109 622h-185l14 86h283z" unicode="Ъ" glyph-name="u042A" horiz-adv-x="687"/>
<glyph d="M775 708l-124 -708h-97l124 708h97zM146 84h102q80 0 124 31.5t57 99.5q2 13 2 25q0 41 -30 72t-107 31h-103zM255 708l-49 -281h104q56 0 100 -14.5t72.5 -42.5t37.5 -59.5t9 -57.5q0 -20 -6.5 -57t-32 -76t-64 -66t-88 -40.5t-105.5 -13.5h-199l124 708h97z" unicode="Ы" glyph-name="u042B" horiz-adv-x="802"/>
<glyph d="M191 343l-45 -259h108q79 0 124.5 37t56.5 94q2 13 2 26q0 41 -30 71.5t-108 30.5h-108zM158 708h97l-49 -281h109q56 0 100.5 -14t73.5 -40.5t38.5 -57t9.5 -56.5q0 -20 -6.5 -56.5t-33 -77t-65.5 -68t-88.5 -42.5t-104.5 -15h-205z" unicode="Ь" glyph-name="u042C" horiz-adv-x="601"/>
<glyph d="M102 163q13 -17 30.5 -34t40.5 -31t53.5 -22.5t69.5 -8.5q59 0 108.5 20t88.5 54.5t65.5 81t38.5 99.5h-404l14 81h400l-2 18t-4 18q-3 42 -18.5 79t-43.5 64.5t-67 43.5t-89 16q-41 0 -75.5 -10t-62 -24.5t-47.5 -31t-32 -29.5l-61 65q22 23 50.5 44t63.5 36.5t77 24.5 t91 9q72 0 131 -21.5t101.5 -61.5t66 -96.5t23.5 -125.5q0 -91 -31 -171t-86 -139.5t-131 -94t-166 -34.5q-49 0 -90 10t-74.5 26.5t-59.5 38.5t-44 46z" unicode="Э" glyph-name="u042D" horiz-adv-x="763"/>
<glyph d="M958 413q0 48 -15 89.5t-43.5 72.5t-70.5 49t-97 18q-70 0 -127 -29.5t-97.5 -77.5t-62.5 -110t-22 -128q0 -48 15 -89.5t43.5 -73t71 -49.5t97.5 -18q69 0 126 29t97.5 77t62.5 110.5t22 129.5zM200 398h135q16 71 53 131t89.5 104t118.5 68.5t141 24.5q72 0 131 -22 t101.5 -62t66 -96t23.5 -125q0 -91 -31 -171t-86 -139.5t-131 -94t-166 -34.5q-68 0 -124.5 20t-98 56t-66.5 87t-29 114q-2 13 -3 26t-1 27h-138l-55 -312h-96l125 708h96z" unicode="Ю" glyph-name="u042E" horiz-adv-x="1124"/>
<glyph d="M263 347q-69 12 -101 48t-32 85q0 15 3 32q17 97 99.5 146.5t211.5 49.5h223l-124 -708h-97l54 311h-75q-54 0 -100 -16.5t-85 -53.5t-70 -96.5t-53 -144.5h-107q15 63 40.5 118.5t58.5 100t72.5 76.5t81.5 50v2zM555 622h-116q-91 0 -141.5 -26.5t-61.5 -85.5 q-2 -10 -2 -19q0 -40 36.5 -67t127.5 -27h117z" unicode="Я" glyph-name="u042F" horiz-adv-x="686"/>
<glyph d="M350 231q-41 0 -84 -4t-78 -15t-57.5 -31.5t-22.5 -53.5q0 -20 7.5 -33.5t20.5 -21.5t28.5 -11t32.5 -3q33 0 60 11t48 29.5t35 43.5t19 54l6 35h-15zM374 294q3 15 4 23.5t1 15.5q0 45 -27 64t-75 19q-39 0 -77.5 -16t-64.5 -38l-40 57q37 32 89.5 50.5t103.5 18.5 q36 0 68 -8t56 -25.5t38 -44t14 -63.5q0 -11 -1 -26.5t-3 -26.5l-34 -191q-5 -27 -8 -55.5t-3 -47.5h-81q0 16 1.5 34.5t4.5 35.5h-2q-38 -43 -78 -61.5t-96 -18.5q-24 0 -50 6.5t-47 21t-34.5 38t-13.5 58.5q0 57 31.5 92.5t82 55t114 26t127.5 6.5z" unicode="а" glyph-name="u0430" horiz-adv-x="542"/>
<glyph d="M441 229q3 19 3 36q0 16 -4 38t-20 43.5t-42 34t-60 12.5q-32 0 -62 -10t-55 -29.5t-43 -49t-25 -68.5q-4 -20 -4 -39q0 -16 4.5 -39t21 -45.5t43.5 -35t63 -12.5t66.5 13t53.5 35.5t38.5 52t21.5 63.5zM340 470q52 0 92.5 -17t66 -48.5t33 -65t7.5 -58.5t-5 -52 q-10 -56 -37.5 -100.5t-66.5 -76t-86.5 -48.5t-98.5 -17q-107 0 -156 58.5t-49 142.5q0 22 3 46q25 240 134.5 356.5t285.5 116.5h142l-13 -75h-144q-64 0 -110 -16.5t-79.5 -47.5t-56.5 -75t-40 -98q32 35 79.5 55t98.5 20z" unicode="б" glyph-name="u0431" horiz-adv-x="602"/>
<glyph d="M29 0l84 476h220q91 0 126 -31.5t35 -73.5q0 -11 -2 -23q-5 -27 -16.5 -45t-28 -29.5t-37.5 -18.5t-43 -13q26 -2 48.5 -9t38 -21t20.5 -30.5t5 -30.5q0 -11 -2 -24q-11 -57 -66 -92t-149 -35h-233zM133 70h81q33 0 61.5 1t50.5 7.5t36 21t19 40.5q1 8 1 15q0 15 -7.5 27 t-27 19t-48 8t-62.5 1h-79zM283 271q45 0 74.5 13.5t37.5 54.5q1 8 1 15q0 13 -6 24t-22.5 17.5t-41 8.5t-53.5 2h-80l-24 -135h114z" unicode="в" glyph-name="u0432" horiz-adv-x="569"/>
<glyph d="M122 0h-93l84 476h305l-13 -75h-213z" unicode="г" glyph-name="u0433" horiz-adv-x="407"/>
<glyph d="M277 307l-130 -231h224l-54 292zM21 -139h-83l37 215h77l234 400h96l82 -400h80l-38 -215h-84l25 139h-401z" unicode="д" glyph-name="u0434" horiz-adv-x="589"/>
<glyph d="M422 276q1 7 1.5 15.5t0.5 15.5q0 49 -30.5 80t-89.5 31q-35 0 -63.5 -12t-51 -31.5t-37.5 -45t-22 -53.5h292zM121 213q-1 -5 -1.5 -9.5t-0.5 -8.5q0 -30 11 -54.5t30 -42t45 -27.5t55 -10q51 0 88.5 22t62.5 52l57 -50q-43 -49 -98 -73.5t-118 -24.5q-47 0 -87.5 14 t-70.5 41t-47 66t-17 90q0 58 21.5 111t59 92.5t88.5 63t110 23.5q97 0 149 -51.5t52 -137.5q0 -14 -2.5 -39t-7.5 -47h-379z" unicode="е" glyph-name="u0435" horiz-adv-x="578"/>
<glyph d="M342 212q-44 -2 -82 -13t-70.5 -35.5t-59.5 -64.5t-50 -99h-103q42 101 97.5 163.5t134.5 92.5l-126 220h102l109 -194q29 5 61 6l33 188h93l-33 -188q31 -2 59 -6l177 194h102l-204 -220q69 -29 102.5 -91.5t41.5 -164.5h-103q-3 59 -16.5 99t-37.5 64.5t-58 35.5 t-77 13l-37 -212h-92z" unicode="ж" glyph-name="u0436" horiz-adv-x="813"/>
<glyph d="M110 354l-56 42q3 4 16 20t37.5 32.5t61 30t87.5 13.5q47 0 79.5 -11.5t52 -30t25 -38.5t5.5 -35q0 -9 -2 -19q-5 -24 -17 -44t-30 -34.5t-40 -23.5t-45 -12q0 -1 -0.5 -1.5t-0.5 -1.5q24 -1 46 -7.5t38 -20t22.5 -30t6.5 -32.5q0 -10 -2 -21q-6 -34 -25.5 -60.5t-50 -45 t-70 -28.5t-85.5 -10q-52 0 -85 13t-51.5 29t-26.5 30t-10 16l68 50q2 -2 8 -12.5t19 -22.5t35.5 -21.5t57.5 -9.5q52 0 85.5 20.5t39.5 57.5q1 6 1 12q0 24 -21.5 42t-78.5 18h-65l11 64h58q45 0 77.5 17t39.5 55q1 7 1 14q0 23 -18 44.5t-71 21.5q-35 0 -59 -11t-39 -24 q-18 -16 -29 -35z" unicode="з" glyph-name="u0437" horiz-adv-x="470"/>
<glyph d="M456 358l-333 -358h-94l84 476h94l-61 -346l330 346h94l-83 -476h-94z" unicode="и" glyph-name="u0438" horiz-adv-x="632"/>
<glyph d="M356 577q-32 1 -58 9t-44 22t-29 32t-15 40l59 27q7 -31 32 -52t65 -21t72 21t50 52l50 -27q-11 -22 -29 -40q-17 -18 -41 -32t-52 -22t-60 -9zM393 0l63 358l-333 -358h-94l84 476h94l-61 -346l330 346h94l-83 -476h-94z" unicode="й" glyph-name="u0439" horiz-adv-x="632"/>
<glyph d="M172 286q36 0 66 -6l188 196h103l-214 -220q73 -30 105.5 -93t40.5 -163h-103q-2 60 -15 99.5t-38 64t-61 35t-85 12.5l-37 -211h-93l84 476h92z" unicode="к" glyph-name="u043A" horiz-adv-x="553"/>
<glyph d="M367 0l-78 365l-214 -365h-98l285 476h95l107 -476h-97z" unicode="л" glyph-name="u043B" horiz-adv-x="547"/>
<glyph d="M193 476l154 -231l232 231h80l-83 -476h-93l61 344l-204 -212h-28l-130 208l-60 -340h-93l84 476h80z" unicode="м" glyph-name="u043C" horiz-adv-x="721"/>
<glyph d="M122 0h-93l84 476h92l-33 -188h242l33 188h92l-83 -476h-93l38 213h-242z" unicode="н" glyph-name="u043D" horiz-adv-x="601"/>
<glyph d="M449 275q0 29 -9.5 54.5t-27.5 44t-43.5 29t-58.5 10.5q-41 0 -75.5 -17t-59 -46t-38.5 -67.5t-14 -80.5q0 -30 9.5 -55t27.5 -43.5t43.5 -29t57.5 -10.5q41 0 75.5 17t59.5 45.5t39 67t14 81.5zM256 -13q-49 0 -90.5 15t-71.5 42.5t-47 65.5t-17 85q0 60 21 113t58.5 93 t90 63.5t115.5 23.5q49 0 90.5 -15t71.5 -42t47 -65t17 -84q0 -61 -20.5 -114.5t-58 -93.5t-90 -63.5t-116.5 -23.5z" unicode="о" glyph-name="u043E" horiz-adv-x="617"/>
<glyph d="M122 0h-93l84 476h418l-83 -476h-93l71 401h-234z" unicode="п" glyph-name="u043F" horiz-adv-x="593"/>
<glyph d="M480 274q0 29 -9 54.5t-26 44t-42 29.5t-58 11q-41 0 -76 -17t-60.5 -45.5t-40.5 -67t-15 -81.5q0 -61 38 -100t102 -39q42 0 76.5 16.5t59 45t38 67t13.5 82.5zM193 401q24 36 69.5 61.5t100.5 25.5q48 0 87 -15t66 -42.5t42 -65t15 -82.5q0 -61 -21 -115t-57.5 -94 t-87 -63.5t-109.5 -23.5q-52 0 -95.5 23t-65.5 65h-2l-56 -315h-91l127 716h89l-13 -75h2z" unicode="р" glyph-name="u0440" horiz-adv-x="641"/>
<glyph d="M422 356q-12 25 -40 41.5t-64 16.5q-42 0 -77 -17t-60.5 -46t-39.5 -67t-14 -81q0 -29 9 -54.5t27 -44.5t44 -29.5t60 -10.5q42 0 74 16t55 41l51 -54q-37 -36 -83 -58t-106 -22q-51 0 -92.5 15t-71 42t-45 65t-15.5 84q0 60 20.5 114t58 94t90.5 63.5t118 23.5 q26 0 51.5 -4.5t48 -14.5t40.5 -24.5t30 -34.5z" unicode="с" glyph-name="u0441" horiz-adv-x="501"/>
<glyph d="M47 476h418l-13 -75h-167l-70 -401h-93l70 401h-158z" unicode="т" glyph-name="u0442" horiz-adv-x="456"/>
<glyph d="M206 99h2l212 377h100l-318 -537q-24 -39 -44.5 -72t-43.5 -57t-50.5 -37t-63.5 -13q-17 0 -33 2t-31 5l14 80q22 -8 45 -8q32 0 54.5 20.5t44.5 58.5l49 83l-102 475h97z" unicode="у" glyph-name="u0443" horiz-adv-x="508"/>
<glyph d="M128 238q-4 -21 -4 -40q0 -14 3.5 -36.5t19.5 -46t43 -37t63 -14.5l61 348q-37 -1 -68.5 -14.5t-55.5 -37t-40 -55t-22 -67.5zM527 238q3 20 3 38q0 15 -3.5 37.5t-19.5 46t-43 37.5t-64 15l-61 -348q37 1 69 14.5t56 37t40 55t23 67.5zM413 487q55 0 97.5 -19.5 t69.5 -53t35 -68.5t8 -61q0 -23 -4 -47q-9 -54 -35.5 -99.5t-65.5 -78.5t-88.5 -52t-104.5 -20l-41 -232h-86l41 232q-53 1 -94.5 20t-69 52.5t-36 69t-8.5 62.5q0 22 6.5 60.5t33 83.5t65.5 78.5t88 52.5t103 20l48 269h86z" unicode="ф" glyph-name="u0444" horiz-adv-x="696"/>
<glyph d="M319 0l-95 187l-173 -187h-112l243 251l-121 225h99l85 -172l158 172h108l-224 -232l135 -244h-103z" unicode="х" glyph-name="u0445" horiz-adv-x="512"/>
<glyph d="M29 0l84 476h92l-70 -398h228l70 398h93l-70 -398h78l-39 -217h-84l25 139h-407z" unicode="ц" glyph-name="u0446" horiz-adv-x="610"/>
<glyph d="M78 476h93l-12 -68q-8 -45 -9.5 -64.5t-1.5 -25.5q0 -23 8 -41t32 -27.5t69 -9.5h98l42 236h92l-83 -476h-93l28 160l-105 1q-65 0 -104 13.5t-58 39t-20.5 48.5t-1.5 31q0 31 7 70z" unicode="ч" glyph-name="u0447" horiz-adv-x="551"/>
<glyph d="M29 0l84 476h92l-70 -401h190l70 401h93l-70 -401h191l70 401h92l-83 -476h-659z" unicode="ш" glyph-name="u0448" horiz-adv-x="833"/>
<glyph d="M29 0l84 476h92l-70 -401h185l71 401h92l-70 -401h186l70 401h93l-71 -401h79l-38 -214h-85l25 139h-643z" unicode="щ" glyph-name="u0449" horiz-adv-x="844"/>
<glyph d="M202 70h82q51 0 86.5 18.5t44.5 70.5q2 11 2 20q0 13 -4.5 26.5t-18.5 23.5t-35 14t-46 4h-80zM274 476l-29 -160h99q53 0 88 -12t54 -33t22.5 -42t3.5 -35q0 -17 -4.5 -42.5t-21.5 -54.5t-44.5 -50.5t-65 -34t-83.5 -12.5h-195l70 401h-135l13 75h228z" unicode="ъ" glyph-name="u044A" horiz-adv-x="576"/>
<glyph d="M644 476l-84 -476h-92l83 476h93zM131 70h83q51 0 86.5 18.5t44.5 70.5q2 11 2 20q0 13 -4.5 26.5t-18.5 23.5t-35 14t-46 4h-81zM203 476l-29 -160h100q53 0 88 -12t54 -33t22.5 -42t3.5 -35q0 -17 -4.5 -42.5t-21.5 -54.5t-44 -50.5t-64.5 -34t-84.5 -12.5h-196l83 476 h93z" unicode="ы" glyph-name="u044B" horiz-adv-x="705"/>
<glyph d="M134 70h98q51 0 87 18.5t45 70.5q2 10 2 19q0 13 -5 27t-19.5 24t-35.5 14t-46 4h-95zM205 476l-28 -160h115q53 0 87.5 -12t54 -33t23.5 -42.5t4 -36.5q0 -16 -4.5 -41t-21.5 -54t-45 -50.5t-65.5 -34t-83.5 -12.5h-212l84 476h92z" unicode="ь" glyph-name="u044C" horiz-adv-x="524"/>
<glyph d="M132 336l-54 54q35 41 89.5 70t133.5 29q58 0 100 -19t67.5 -52.5t32 -67.5t6.5 -59q0 -26 -7 -66.5t-34 -86.5t-66.5 -79.5t-88.5 -52.5t-103 -19q-60 0 -108 23.5t-80 77.5l75 52q12 -29 44.5 -52.5t82.5 -23.5q33 0 63 11.5t55 31.5t42 47t25 59h-246l11 65h245v11 q0 21 -6.5 43t-23 40.5t-42 29.5t-59.5 11q-53 0 -92 -23t-62 -54z" unicode="э" glyph-name="u044D" horiz-adv-x="576"/>
<glyph d="M670 275q0 29 -9.5 54.5t-27.5 44t-43.5 29t-58.5 10.5q-41 0 -75.5 -17t-59 -46t-38.5 -67.5t-14 -80.5q0 -30 9.5 -55t27.5 -43.5t43.5 -29t57.5 -10.5q41 0 75.5 17t59.5 45.5t39 67t14 81.5zM477 -13q-46 0 -85.5 13.5t-68.5 38.5t-47 59t-21 76q-3 19 -3 42h-92 l-38 -216h-93l84 476h92l-32 -185h94q13 42 38.5 78.5t60 62.5t77.5 41t93 15q49 0 90.5 -15t71.5 -42t47 -65t17 -84q0 -61 -20.5 -114.5t-58 -93.5t-90 -63.5t-116.5 -23.5z" unicode="ю" glyph-name="u044E" horiz-adv-x="842"/>
<glyph d="M172 330q-1 -6 -1 -12q0 -13 6 -24t21 -18t36.5 -9.5t46.5 -2.5h88l24 133h-89q-27 0 -49.5 -2t-39 -9t-28 -20.5t-15.5 -35.5zM287 188q-136 0 -188 -188h-102q25 87 72 145t108 76l1 3q-25 3 -45 10.5t-33 21.5t-17 30t-4 29q0 12 2 26q12 70 72 102.5t147 32.5h199 l-84 -476h-92l33 188h-69z" unicode="я" glyph-name="u044F" horiz-adv-x="554"/>
</font>
</defs>
</svg>
