<?xml version="1.0" encoding="UTF-8" standalone="no"?>
<!DOCTYPE svg  PUBLIC '-//W3C//DTD SVG 1.1//EN'  'http://www.w3.org/Graphics/SVG/1.1/DTD/svg11.dtd'>
<svg xmlns="http://www.w3.org/2000/svg" version="1.1">
<defs>
<font id="AvenirNext-UltraLight" horiz-adv-x="666">
<font-face x-height="460" ascent="800" bbox="-360 -368 1322 1192" font-family="t" cap-height="708" font-weight="275" unicode-range="U+000D-FE48" underline-position="-150" panose-1="2 11 2 3 2 2 2 2 2 4" underline-thickness="50" units-per-em="1000" descent="-200"/>
<missing-glyph horiz-adv-x="512" d="M512 718v-718h-512v718h512zM462 50v617h-412v-617h412zM225 234l-2 17q0 56 13 81q7 13 18 27.5t28 31.5q16 15 26 26.5t15 21t7 18t2 17.5q0 36 -22.5 60.5t-53.5 24.5t-53.5 -22t-28.5 -73l-50 8q7 72 44 104.5t91 32.5t89 -35.5t35 -95.5q0 -32 -12.5 -58.5 t-50.5 -61.5q-37 -33 -43 -52q-6 -20 -6 -72h-46zM222 117v67h56v-67h-56z"/>
<glyph unicode="IJ" d="M605 193q0 -98 -45.5 -154.5t-135.5 -56.5q-63 0 -107 32.5t-61 78.5l19 9q20 -45 59 -72.5t90 -27.5q43 0 73 14.5t49 40.5t28 61.5t9 77.5v512h22v-515zM106 0v708h22v-708h-22z" glyph-name="IJ" horiz-adv-x="707"/>
<glyph unicode="ij" d="M342 633q-9 0 -16 7t-7 19q0 11 7 18t16 7t16 -7t7 -18q0 -12 -7.5 -19t-15.5 -7zM353 -97q0 -35 -4.5 -62t-17 -45t-34.5 -27.5t-56 -9.5q-7 0 -15 0.5t-14 2.5l4 19q13 -3 25 -3q32 0 50 11t27 28.5t11 39.5t2 44v559h22v-557zM102 0v460h22v-460h-22zM113 633 q-9 0 -16 7t-7 19q0 11 7 18t16 7t16 -7t7 -18q0 -12 -7.5 -19t-15.5 -7z" glyph-name="ij" horiz-adv-x="455"/>
<glyph unicode='&quot;n' d="M75 523h-17l51 185h24zM128 339q10 32 29 57t43 42.5t52 26.5t58 9q48 0 80 -17t51 -45t27 -63t8 -71v-278h-22v276q0 28 -6 60t-22.5 58t-44.5 43.5t-71 17.5q-38 0 -71.5 -15.5t-58 -44.5t-39 -70.5t-14.5 -94.5v-230h-22v344q0 11 -0.5 27t-1 32.5t-1.5 31.5t-2 25h22 q1 -10 1.5 -25t1 -32.5t1 -34t0.5 -29.5h2z" glyph-name="napostrophe" horiz-adv-x="572"/>
<glyph unicode="fi" d="M282 745q-10 2 -20 3.5t-21 1.5q-27 0 -46 -11t-30.5 -28.5t-16.5 -39.5t-5 -45v-166h125v-19h-125v-441h-22v441h-97v19h96v165q0 42 11 70t28.5 44t38.5 22.5t42 6.5q26 0 46 -6zM370 0v460h22v-460h-22zM381 633q-9 0 -16 7t-7 19q0 11 7 18t16 7t16 -7t7 -18 q0 -12 -7.5 -19t-15.5 -7z" glyph-name="fi" horiz-adv-x="494"/>
<glyph unicode="fl" d="M282 745q-10 2 -20 3.5t-21 1.5q-27 0 -46 -11t-30.5 -28.5t-16.5 -39.5t-5 -45v-166h125v-19h-125v-441h-22v441h-97v19h96v165q0 42 11 70t28.5 44t38.5 22.5t42 6.5q26 0 46 -6zM370 0v756h22v-756h-22z" glyph-name="fl" horiz-adv-x="494"/>
<glyph horiz-adv-x="512" glyph-name=".notdef" d="M512 718v-718h-512v718h512zM462 50v617h-412v-617h412zM225 234l-2 17q0 56 13 81q7 13 18 27.5t28 31.5q16 15 26 26.5t15 21t7 18t2 17.5q0 36 -22.5 60.5t-53.5 24.5t-53.5 -22t-28.5 -73l-50 8q7 72 44 104.5t91 32.5t89 -35.5t35 -95.5q0 -32 -12.5 -58.5 t-50.5 -61.5q-37 -33 -43 -52q-6 -20 -6 -72h-46zM222 117v67h56v-67h-56z"/>
<glyph horiz-adv-x="500" glyph-name=".null"/>
<glyph horiz-adv-x="500" glyph-name=".null"/>
<glyph unicode="" glyph-name="nonmarkingreturn" horiz-adv-x="0"/>
<glyph unicode=" " glyph-name="space" horiz-adv-x="250"/>
<glyph unicode="!" d="M149 195h-22v513h22v-513zM138 45q8 0 15.5 -7t7.5 -19q0 -11 -7 -18t-16 -7t-16 7t-7 18q0 12 7 19t16 7z" glyph-name="exclam" horiz-adv-x="276"/>
<glyph unicode='&quot;' d="M263 480v228h22v-228h-22zM119 480v228h22v-228h-22z" glyph-name="quotedbl" horiz-adv-x="404"/>
<glyph unicode="#" d="M188 453l-26 -196h171l26 196h-171zM378 453l-26 -196h112v-17h-114l-30 -240h-19l30 240h-172l-30 -240h-19l30 240h-111v17h113l27 196h-111v17h113l30 238h19l-31 -238h172l31 238h19l-31 -238h112v-17h-114z" glyph-name="numbersign" horiz-adv-x="550"/>
<glyph unicode="$" d="M255 700q-32 -3 -61.5 -15t-52.5 -32t-37 -48.5t-14 -65.5q0 -39 14 -66t37 -46.5t52.5 -32.5t61.5 -23v329zM277 6q37 1 70 13t58 33t39.5 52t14.5 70t-15.5 66t-41 46.5t-58.5 32.5t-67 24v-337zM277 -84h-22v71q-63 2 -113.5 25t-86.5 64l17 15q36 -40 84.5 -61.5 t98.5 -23.5v343q-41 13 -75.5 28.5t-59.5 37.5t-38.5 52t-13.5 73q0 39 14 70.5t39 54.5t59 37t75 18v72h22v-71q58 0 108 -18.5t83 -59.5l-17 -15q-28 35 -73 54.5t-101 19.5v-338q43 -14 80 -29t64.5 -36.5t43.5 -52t16 -73.5t-15.5 -77t-43 -57.5t-65 -36.5t-80.5 -15 v-71z" glyph-name="dollar" horiz-adv-x="560"/>
<glyph unicode="%" d="M195 -27l-16 11l440 752l16 -11zM745 150q0 29 -10.5 54.5t-29 44.5t-43 30t-52.5 11t-52.5 -11t-42.5 -30t-28.5 -44.5t-10.5 -54.5q0 -30 10.5 -55t28.5 -44t42.5 -29.5t52.5 -10.5t52.5 10.5t43 29.5t29 44t10.5 55zM767 150q0 -34 -12.5 -63t-34 -50t-50 -33 t-60.5 -12t-60.5 12t-49.5 33t-33.5 50t-12.5 63q0 33 12.5 62t33.5 50.5t49.5 34t60.5 12.5t60.5 -12.5t50 -34t34 -50.5t12.5 -62zM344 556q0 29 -10.5 54.5t-29 44.5t-43 30t-52.5 11t-52.5 -11t-42.5 -30t-28.5 -44.5t-10.5 -54.5q0 -30 10.5 -55t28.5 -44t42.5 -29.5 t52.5 -10.5t52.5 10.5t43 29.5t29 44t10.5 55zM366 556q0 -34 -12.5 -63t-34 -50t-50 -33t-60.5 -12t-60.5 12t-49.5 33t-33.5 50t-12.5 63q0 33 12.5 62t33.5 50.5t49.5 34t60.5 12.5t60.5 -12.5t50 -34t34 -50.5t12.5 -62z" glyph-name="percent" horiz-adv-x="820"/>
<glyph unicode="&amp;" d="M262 378q-33 -16 -62.5 -35.5t-52.5 -43.5t-36.5 -54t-13.5 -66q0 -41 14.5 -74t39.5 -56t58 -35.5t71 -12.5q64 0 117.5 38t88.5 101zM435 582q0 28 -10 51.5t-27.5 40t-41 25.5t-49.5 9q-27 0 -51 -10t-41.5 -27.5t-28 -42t-10.5 -53.5q0 -48 24.5 -87t67.5 -87 q36 19 66.5 38t53 40t35 46t12.5 57zM617 0l-116 124q-45 -70 -101 -106t-125 -36q-42 0 -78.5 13.5t-63.5 39t-42.5 62t-15.5 82.5q0 39 12.5 69.5t35.5 56t55 46.5t70 42q-27 30 -45 54t-29 45t-15.5 41t-4.5 41q0 34 12 62t32.5 48t49 31t61.5 11q31 0 58.5 -11t47 -30 t31 -44.5t11.5 -54.5q0 -36 -13 -63.5t-36.5 -50.5t-56 -43t-70.5 -41l215 -231l115 212h25l-124 -225l134 -144h-29z" glyph-name="ampersand" horiz-adv-x="704"/>
<glyph unicode="&apos;" d="M119 480v228h22v-228h-22z" glyph-name="quotesingle" horiz-adv-x="260"/>
<glyph unicode="(" d="M74 288q0 60 9 120t25.5 117t40.5 109.5t54 97.5l20 -10q-30 -41 -53.5 -93.5t-40 -110t-25 -117t-8.5 -113.5t8.5 -113.5t25 -117t40 -110t53.5 -93.5l-20 -10q-30 45 -54 97.5t-40.5 109.5t-25.5 117t-9 120z" glyph-name="parenleft" horiz-adv-x="300"/>
<glyph unicode=")" d="M224 288q0 -60 -9 -120t-25.5 -117t-40.5 -109.5t-54 -97.5l-20 10q30 41 53.5 93.5t40 110t25 117t8.5 113.5t-8.5 113.5t-25 117t-40 110t-53.5 93.5l20 10q30 -45 54 -97.5t40.5 -109.5t25.5 -117t9 -120z" glyph-name="parenright" horiz-adv-x="300"/>
<glyph unicode="*" d="M394 589l6 -17l-165 -50l102 -142l-14 -10l-101 143l-101 -143l-14 10l102 142l-165 50l6 17l163 -52v171h18v-171z" glyph-name="asterisk" horiz-adv-x="444"/>
<glyph unicode="+" glyph-name="plus" d="M345 65h-21v230h-224v19h224v230h21v-230h221v-19h-221v-230z"/>
<glyph unicode="," d="M88 -138h-17l57 228h24z" glyph-name="comma" horiz-adv-x="240"/>
<glyph unicode="-" d="M60 244v20h180v-20h-180z" glyph-name="hyphen" horiz-adv-x="300"/>
<glyph unicode="." d="M120 -6q-9 0 -16 7t-7 19q0 11 7 18t16 7t16 -7t7 -18q0 -12 -7.5 -19t-15.5 -7z" glyph-name="period" horiz-adv-x="240"/>
<glyph unicode="/" d="M42 -15l-19 7l307 737l19 -7z" glyph-name="slash" horiz-adv-x="370"/>
<glyph unicode="0" d="M280 700q-45 0 -77.5 -18.5t-54.5 -48t-35 -67t-20 -76t-9 -74.5t-2 -62q0 -27 2 -62.5t9 -74t20 -76t35 -67t54.5 -48t77.5 -18.5t77.5 18.5t54.5 48t35 67t20 76t9 74t2 62.5q0 26 -2 62t-9 74.5t-20 76t-35 67t-54.5 48t-77.5 18.5zM280 -12q-68 0 -111 34.5t-67 87.5 t-33 118t-9 126t9 126t33 118t67 87.5t111 34.5t111 -34.5t67 -87.5t33 -118t9 -126t-9 -126t-33 -118t-67 -87.5t-111 -34.5z" glyph-name="zero" horiz-adv-x="560"/>
<glyph unicode="1" d="M290 0v682l-134 -114l-13 17l147 123h22v-708h-22z" glyph-name="one" horiz-adv-x="560"/>
<glyph unicode="2" d="M63 0v26l247 290q56 65 89 118t33 107q0 37 -12 66.5t-33.5 50.5t-51 32t-63.5 11q-58 0 -102 -30.5t-62 -90.5l-21 7q19 64 69 98.5t116 34.5q40 0 73.5 -13t57.5 -36.5t37.5 -55t13.5 -67.5q0 -33 -8.5 -62t-26 -58.5t-43 -62t-58.5 -71.5l-232 -273h374v-21h-397z" glyph-name="two" horiz-adv-x="560"/>
<glyph unicode="3" d="M465 186q0 -39 -12 -74.5t-36.5 -63t-63 -44t-91.5 -16.5q-68 0 -120.5 31t-78.5 82l21 9q22 -46 70 -73t108 -29h6q40 0 73 13.5t56 38t34.5 57.5t11.5 70q0 46 -19.5 79t-49.5 54.5t-66 31.5t-68 10h-22v20h22q32 0 63.5 9.5t57 29.5t41.5 51t16 75q0 35 -12 63.5 t-33 48.5t-49.5 31t-61.5 11q-44 0 -84 -19t-63 -54l-18 12q26 37 68.5 58.5t96.5 21.5q38 0 70.5 -12t56 -34.5t37 -54.5t13.5 -72q0 -30 -8.5 -58.5t-26.5 -51.5t-46.5 -40t-67.5 -23v-2q45 -7 78 -25t54.5 -43t32 -55.5t10.5 -62.5z" glyph-name="three" horiz-adv-x="560"/>
<glyph unicode="4" d="M374 684h-3l-308 -480h311v480zM396 184v-184h-22v184h-331v27l319 497h34v-504h118v-20h-118z" glyph-name="four" horiz-adv-x="560"/>
<glyph unicode="5" d="M476 215q0 -56 -18.5 -98.5t-49 -71t-69 -43t-78.5 -14.5q-69 0 -115.5 26t-76.5 68l18 14q28 -41 70.5 -64.5t103.5 -23.5q35 0 69.5 13t62 39t44.5 64.5t17 90.5q0 43 -14 80.5t-40 65t-64 43t-87 15.5q-35 0 -68.5 -10t-62.5 -26l5 325h323v-20h-301l-6 -275 q28 14 60 19.5t59 5.5q51 0 91 -17t68.5 -46.5t43.5 -70.5t15 -89z" glyph-name="five" horiz-adv-x="560"/>
<glyph unicode="6" d="M92 201q0 -42 14 -77.5t39 -61.5t59.5 -40.5t75.5 -14.5t75.5 14.5t59.5 40.5t39 61.5t14 77.5t-13.5 78t-38 62.5t-58 41.5t-73.5 15q-39 0 -74 -15t-61.5 -41.5t-42 -62.5t-15.5 -78zM70 201q0 39 13.5 83.5t46.5 101.5l187 322h26l-213 -360l2 -1q26 32 67.5 51 t88.5 19q43 0 80 -16.5t64 -45t42.5 -68.5t15.5 -86t-15.5 -85t-43.5 -67.5t-67 -44.5t-85 -16t-84.5 15.5t-66 44t-43 67.5t-15.5 86z" glyph-name="six" horiz-adv-x="560"/>
<glyph unicode="7" d="M459 681l-295 -681h-24l300 688h-364v20h383v-27z" glyph-name="seven" horiz-adv-x="560"/>
<glyph unicode="8" d="M467 188q0 40 -14.5 73.5t-40 58t-59.5 38t-73 13.5t-73 -13.5t-59.5 -38t-40 -58t-14.5 -73.5q0 -38 13.5 -71t38 -57.5t59 -38.5t76.5 -14t76.5 14t59 38.5t38 57.5t13.5 71zM441 547q0 34 -12.5 62.5t-34.5 49t-51 31.5t-63 11t-63.5 -11t-51 -31.5t-34 -49 t-12.5 -62.5q0 -32 12 -60.5t33.5 -50.5t51 -35t64.5 -13t64.5 13t51 35t33.5 50.5t12 60.5zM489 188q0 -46 -16 -83t-43.5 -63t-66 -40t-83.5 -14t-83.5 14t-66 40t-43.5 63t-16 83q0 31 9 60.5t27.5 55t46.5 45t66 30.5v2q-63 24 -92.5 70.5t-29.5 95.5q0 39 14 70.5 t38 54.5t57.5 35.5t72.5 12.5t72.5 -12.5t57.5 -35.5t38 -54.5t14 -70.5q0 -49 -29.5 -96t-92.5 -70v-2q39 -12 67.5 -32t46.5 -45t26.5 -54t8.5 -60z" glyph-name="eight" horiz-adv-x="560"/>
<glyph unicode="9" d="M468 509q0 42 -14 77t-39 60.5t-59.5 40t-75.5 14.5t-75.5 -14.5t-59.5 -40t-39 -60.5t-14 -77t13.5 -77.5t38 -61t58 -40t73.5 -14.5q39 0 74 14.5t61.5 40t42 61t15.5 77.5zM490 509q0 -39 -14 -81.5t-46 -99.5l-188 -328h-26l214 366l-2 1q-26 -32 -67.5 -51 t-88.5 -19q-43 0 -80 15.5t-64 44t-42.5 67t-15.5 85.5q0 46 15.5 85t43.5 67t67 43.5t85 15.5t84.5 -15.5t66 -43t43 -66.5t15.5 -86z" glyph-name="nine" horiz-adv-x="560"/>
<glyph unicode=":" d="M140 -6q-9 0 -16 7t-7 19q0 11 7 18t16 7t16 -7t7 -18q0 -12 -7.5 -19t-15.5 -7zM140 409q-9 0 -16 7t-7 19q0 11 7 18t16 7t16 -7t7 -18q0 -12 -7.5 -19t-15.5 -7z" glyph-name="colon" horiz-adv-x="280"/>
<glyph unicode=";" d="M98 -138h-17l57 228h24zM140 409q-9 0 -16 7t-7 19q0 11 7 18t16 7t16 -7t7 -18q0 -12 -7.5 -19t-15.5 -7z" glyph-name="semicolon" horiz-adv-x="280"/>
<glyph unicode="&lt;" glyph-name="less" d="M100 291v24l466 224v-20l-454 -216l454 -216v-20z"/>
<glyph unicode="=" glyph-name="equal" d="M100 209v19h466v-19h-466zM100 380v19h466v-19h-466z"/>
<glyph unicode="&gt;" glyph-name="greater" d="M100 87l454 216l-454 216v20l466 -224v-24l-466 -224v20z"/>
<glyph unicode="?" d="M250 200h-22v53q0 16 2.5 33t10 34.5t21 35t35.5 34.5l34 30q15 14 27.5 27.5t22 29t15 34.5t5.5 45q0 36 -12.5 64t-34.5 47t-51.5 28.5t-62.5 9.5q-69 0 -112 -40.5t-54 -103.5l-21 4q14 78 65 119.5t124 41.5q37 0 70 -11t58 -32.5t39 -53t14 -72.5q0 -32 -7.5 -55.5 t-20 -42t-28.5 -34t-34 -30.5q-26 -21 -42 -38.5t-25 -34t-12.5 -35.5t-3.5 -43v-44zM241 45q8 0 15.5 -7t7.5 -19q0 -11 -7 -18t-16 -7t-16 7t-7 18q0 12 7 19t16 7z" glyph-name="question" horiz-adv-x="472"/>
<glyph unicode="@" d="M523 432q0 20 -5.5 38.5t-16.5 32.5t-28 22t-41 8q-42 0 -75 -24t-55.5 -60.5t-34.5 -80t-12 -82.5q0 -45 23.5 -75.5t73.5 -30.5q42 0 74 29.5t53.5 70t32.5 83t11 69.5zM760 415q0 -54 -13 -101t-37.5 -81t-61 -53.5t-83.5 -19.5q-38 0 -60 19t-22 53q0 8 1 17h-2 q-8 -15 -20.5 -31t-29.5 -28.5t-38.5 -21t-46.5 -8.5q-30 0 -51.5 11t-35.5 28.5t-20.5 40.5t-6.5 47q0 44 14 91t40 86t63 64t82 25q46 0 72.5 -24.5t31.5 -66.5h4l20 73h21l-68 -237q-4 -14 -7 -31t-3 -29q0 -32 18 -45t44 -13q46 0 79 20t54 53t31 75t10 87 q0 63 -24.5 116.5t-68 93t-102.5 61.5t-128 22q-76 0 -139.5 -29t-109.5 -78t-72 -113t-26 -133q0 -73 25.5 -137.5t72 -113t111.5 -76.5t143 -28q86 0 159.5 37.5t122.5 95.5l15 -13q-54 -64 -130 -102t-167 -38q-84 0 -153 29.5t-118 80.5t-76 119t-27 146t28.5 146 t78.5 118.5t117 79.5t145 29q75 0 138 -23.5t109 -65.5t71.5 -99.5t25.5 -124.5z" glyph-name="at" horiz-adv-x="800"/>
<glyph unicode="A" glyph-name="A" d="M338 694l-201 -472h396zM624 0l-84 203h-411l-87 -203h-24l307 708h28l295 -708h-24z"/>
<glyph unicode="B" d="M529 186q0 48 -19.5 82t-49.5 55t-66 30.5t-70 9.5h-196v-343h185q46 0 86 9.5t68.5 29.5t45 51.5t16.5 75.5zM496 538q0 43 -17 72t-45 46t-64.5 24.5t-76.5 7.5h-165v-305h170q36 0 71.5 9t63.5 27.5t45.5 48t17.5 70.5zM551 189q0 -57 -21.5 -93.5t-55 -57.5 t-74 -29.5t-77.5 -8.5h-217v708h193q40 0 79.5 -8t70.5 -27t50 -51t19 -81q0 -38 -12 -66t-32.5 -48t-46.5 -32.5t-53 -18.5v-2q27 -3 58 -14.5t57.5 -33.5t44 -56t17.5 -81z" glyph-name="B" horiz-adv-x="612"/>
<glyph unicode="C" d="M686 87q-45 -54 -113.5 -80.5t-139.5 -26.5q-80 0 -146 28t-114 77.5t-74.5 118.5t-26.5 150t26.5 150t74.5 118.5t114.5 77.5t145.5 28q66 0 128.5 -22.5t106.5 -68.5l-14 -16q-21 22 -47.5 38.5t-56 27.5t-59.5 16t-58 5q-76 0 -138.5 -27.5t-107 -75.5t-69 -112.5 t-24.5 -138.5t24 -138.5t68.5 -112.5t107 -75.5t139.5 -27.5q66 0 130.5 25.5t106.5 76.5z" glyph-name="C" horiz-adv-x="724"/>
<glyph unicode="D" d="M129 688v-668h173q78 0 146.5 19.5t118.5 60t79 103.5t29 151t-29 151.5t-79 104t-118.5 59.5t-146.5 19h-173zM698 354q0 -92 -30 -158.5t-83 -110t-124.5 -64.5t-153.5 -21h-201v708h201q82 0 153.5 -20.5t124.5 -64t83 -110.5t30 -159z" glyph-name="D" horiz-adv-x="770"/>
<glyph unicode="E" d="M106 0v708h412v-20h-391v-311h368v-20h-368v-337h407v-20h-428z" glyph-name="E" horiz-adv-x="590"/>
<glyph unicode="F" d="M128 688v-311h355v-20h-355v-357h-22v708h404v-20h-382z" glyph-name="F" horiz-adv-x="560"/>
<glyph unicode="G" d="M699 41q-42 -23 -106 -42t-148 -19t-153 29t-118 79.5t-75.5 119t-26.5 148.5t27 148.5t75.5 118t116.5 77.5t150 28q72 0 132 -22t106 -60l-16 -16q-20 19 -46.5 33.5t-56 24.5t-60.5 15t-60 5q-78 0 -142 -27.5t-109.5 -75.5t-70 -112t-24.5 -137t24 -138t69.5 -113.5 t111 -76.5t148.5 -28q72 0 128 15t103 38v278h-184v19h205v-309z" glyph-name="G" horiz-adv-x="795"/>
<glyph unicode="H" d="M604 0v356h-476v-356h-22v708h22v-332h476v332h22v-708h-22z" glyph-name="H" horiz-adv-x="732"/>
<glyph unicode="I" d="M106 0v708h22v-708h-22z" glyph-name="I" horiz-adv-x="234"/>
<glyph unicode="J" d="M378 193q0 -98 -45.5 -154.5t-135.5 -56.5q-63 0 -107 32.5t-61 78.5l19 9q20 -45 59 -72.5t90 -27.5q43 0 73 14.5t49 40.5t28 61.5t9 77.5v512h22v-515z" glyph-name="J" horiz-adv-x="480"/>
<glyph unicode="K" d="M129 383l356 325h32l-360 -325l378 -383h-31l-375 381h-1v-381h-22v708h22v-325h1z" glyph-name="K" horiz-adv-x="565"/>
<glyph unicode="L" d="M106 0v708h22v-688h352v-20h-374z" glyph-name="L" horiz-adv-x="498"/>
<glyph unicode="M" d="M778 0v683h-4l-313 -683h-18l-312 683h-3v-683h-22v708h39l308 -676l308 676h39v-708h-22z" glyph-name="M" horiz-adv-x="906"/>
<glyph unicode="N" d="M639 0l-508 680h-3v-680h-22v708h31l509 -679h3v679h22v-708h-32z" glyph-name="N" horiz-adv-x="777"/>
<glyph unicode="O" d="M778 354q0 74 -25 138.5t-70.5 112.5t-108.5 75.5t-138 27.5t-138 -27.5t-108.5 -75.5t-70.5 -112.5t-25 -138.5t24.5 -138.5t69.5 -112.5t108 -75.5t140 -27.5t140 27.5t108 75.5t69.5 112.5t24.5 138.5zM800 354q0 -82 -27.5 -150.5t-76 -118t-115.5 -77.5t-145 -28 t-145 28t-115.5 77.5t-76 118t-27.5 150.5t27.5 150.5t76 118t115 77.5t145.5 28t145.5 -28t115 -77.5t76 -118t27.5 -150.5z" glyph-name="O" horiz-adv-x="872"/>
<glyph unicode="P" d="M495 532q0 45 -17 75t-44 48t-60.5 26t-66.5 8h-179v-322h184q33 0 66 9t59 29t42 51.5t16 75.5zM517 532q0 -45 -16.5 -79.5t-44.5 -57.5t-65.5 -35t-79.5 -12h-183v-348h-22v708h192q38 0 77 -8.5t70.5 -28.5t51.5 -54t20 -85z" glyph-name="P" horiz-adv-x="572"/>
<glyph unicode="Q" d="M778 361q0 71 -25 134t-70.5 110.5t-108.5 75t-138 27.5t-138 -27t-108.5 -74t-70.5 -110.5t-25 -135.5q0 -71 25.5 -133t71 -108.5t108.5 -73t138 -26.5q78 0 141 28.5t107.5 76t68.5 109t24 127.5zM800 361q0 -59 -19 -115.5t-53 -102.5t-79.5 -78t-98.5 -43v-2h288 v-20h-404q-74 0 -140 25.5t-115.5 73t-78 114t-28.5 148.5q0 80 27.5 147.5t76 116t115 76t145.5 27.5t145.5 -28t115 -77t76 -116t27.5 -146z" glyph-name="Q" horiz-adv-x="883"/>
<glyph unicode="R" d="M502 533q0 46 -18 76.5t-47.5 48t-68 24.5t-78.5 7h-162v-313h173q98 0 149.5 41t51.5 116zM508 0l-214 357h-166v-357h-22v708h196q39 0 79 -7t71.5 -26.5t51.5 -53.5t20 -88q0 -50 -19 -83t-49 -53.5t-66.5 -29.5t-71.5 -9l215 -358h-25z" glyph-name="R" horiz-adv-x="594"/>
<glyph unicode="S" d="M498 170q0 -45 -17.5 -80.5t-46.5 -60t-68.5 -37t-82.5 -12.5q-66 0 -120.5 23.5t-90.5 63.5l17 15q38 -41 88.5 -61.5t104.5 -20.5q39 0 74 11.5t62 33t42.5 53t15.5 72.5t-17 69t-44 48t-61.5 33.5t-69.5 24.5q-44 14 -80.5 29.5t-63 38t-41 54t-14.5 76.5 q0 44 17.5 78.5t47.5 58t69.5 36t83.5 12.5q54 0 102.5 -20.5t79.5 -58.5l-17 -15q-28 35 -71.5 54.5t-94.5 19.5q-36 0 -70.5 -10t-62.5 -30.5t-45 -51.5t-17 -73q0 -41 15 -69.5t40 -48.5t56.5 -33t64.5 -24q45 -15 84 -30.5t68.5 -37.5t46 -53.5t16.5 -76.5z" glyph-name="S" horiz-adv-x="570"/>
<glyph unicode="T" d="M281 688v-688h-22v688h-241v20h504v-20h-241z" glyph-name="T" horiz-adv-x="540"/>
<glyph unicode="U" d="M636 268q0 -60 -14 -112.5t-46 -91.5t-83.5 -61.5t-126.5 -22.5t-126.5 22.5t-83.5 61.5t-46 91.5t-14 112.5v440h22v-436q0 -42 8.5 -89.5t35 -88t75 -67.5t129.5 -27q79 0 127.5 26t75.5 66.5t36 88t9 91.5v436h22v-440z" glyph-name="U" horiz-adv-x="732"/>
<glyph unicode="V" d="M318 0h-34l-266 708h24l258 -688h2l262 688h24z" glyph-name="V" horiz-adv-x="606"/>
<glyph unicode="W" d="M716 0h-34l-205 687h-2l-201 -687h-34l-212 708h23l204 -688h3l201 688h34l205 -688h3l204 688h23z" glyph-name="W" horiz-adv-x="956"/>
<glyph unicode="X" d="M531 0l-236 354l-237 -354h-26l250 371l-226 337h26l213 -320l213 320h25l-225 -337l250 -371h-27z" glyph-name="X" horiz-adv-x="590"/>
<glyph unicode="Y" d="M280 310v-310h-22v310l-243 398h26l229 -376l228 376h25z" glyph-name="Y" horiz-adv-x="538"/>
<glyph unicode="Z" d="M54 0v27l466 661h-453v20h473v-29l-465 -659h477v-20h-498z" glyph-name="Z" horiz-adv-x="594"/>
<glyph unicode="[" d="M80 -156v888h140v-19h-118v-850h118v-19h-140z" glyph-name="bracketleft" horiz-adv-x="300"/>
<glyph unicode="\" d="M42 729l307 -737l-19 -7l-307 737z" glyph-name="backslash" horiz-adv-x="370"/>
<glyph unicode="]" d="M80 -137h118v850h-118v19h140v-888h-140v19z" glyph-name="bracketright" horiz-adv-x="300"/>
<glyph unicode="^" glyph-name="asciicircum" d="M321 708h24l224 -466h-20l-216 454l-216 -454h-20z"/>
<glyph unicode="_" d="M0 -114v20h500v-20h-500z" glyph-name="underscore" horiz-adv-x="500"/>
<glyph unicode="`" d="M47 708l103 -144h-19l-111 144h27z" glyph-name="grave" horiz-adv-x="240"/>
<glyph unicode="a" d="M396 251h-71q-38 0 -80 -4.5t-77 -18.5t-57.5 -40t-22.5 -70q0 -32 12.5 -53.5t32 -34.5t43 -19t44.5 -6q51 0 85 19t54.5 48.5t28.5 65t8 69.5v44zM418 104q0 -26 2.5 -55.5t5.5 -48.5h-21q-2 10 -3 24.5t-2.5 30t-2 30.5t-0.5 25h-3q-20 -63 -69 -93.5t-105 -30.5 q-28 0 -55.5 8t-49.5 24t-35.5 41t-13.5 59q0 49 25.5 79t63.5 46.5t81.5 21.5t79.5 5h80v37q0 77 -41 112.5t-107 35.5q-41 0 -76.5 -15t-63.5 -40l-12 17q32 28 72.5 42.5t79.5 14.5q79 0 124.5 -40.5t45.5 -127.5v-202z" glyph-name="a" horiz-adv-x="512"/>
<glyph unicode="b" d="M542 229q0 45 -14.5 86t-41.5 72t-65.5 49.5t-86.5 18.5q-46 0 -84.5 -18t-66.5 -48.5t-44 -71.5t-16 -87t16 -87t44 -71.5t66.5 -48.5t84.5 -18q48 0 86.5 18t65.5 48.5t41.5 71.5t14.5 86zM127 335q30 69 85.5 104t121.5 35q51 0 93.5 -18.5t73 -51t47 -77.5t16.5 -98 q0 -52 -17 -96.5t-47.5 -77t-73 -51t-92.5 -18.5q-33 0 -64.5 9t-58.5 26.5t-49 43t-35 59.5h-3v-124h-22v756h22v-421h3z" glyph-name="b" horiz-adv-x="626"/>
<glyph unicode="c" d="M430 398q-26 27 -61 42t-73 15q-49 0 -88 -18.5t-66.5 -49.5t-42.5 -72t-15 -86t15 -86t42.5 -71.5t66.5 -48.5t88 -18q38 0 74.5 13t63.5 39l15 -14q-30 -30 -70.5 -43.5t-82.5 -13.5q-51 0 -93.5 18t-74 50t-49 77t-17.5 98t17.5 98t49 77.5t74 51t93.5 18.5 q44 0 83.5 -16t67.5 -45z" glyph-name="c" horiz-adv-x="480"/>
<glyph unicode="d" d="M84 229q0 -45 14.5 -86t41.5 -71.5t65.5 -48.5t86.5 -18q46 0 84.5 18t66.5 48.5t44 71.5t16 87t-16 87t-44 71.5t-66.5 48.5t-84.5 18q-48 0 -86.5 -18.5t-65.5 -49.5t-41.5 -72t-14.5 -86zM502 756h22v-756h-22v124h-3q-30 -68 -85.5 -103t-121.5 -35q-50 0 -92.5 18.5 t-73 51t-47.5 77t-17 96.5t17 97t47.5 78t73 51.5t92.5 18.5q66 0 121.5 -35t85.5 -104h3v421z" glyph-name="d" horiz-adv-x="626"/>
<glyph unicode="e" d="M473 254q-1 45 -15.5 82t-39.5 63.5t-60 41t-78 14.5q-52 0 -89 -21.5t-60.5 -53t-34.5 -66t-11 -60.5h388zM84 235q0 -42 12.5 -83t38 -73.5t64.5 -52.5t92 -20q54 0 96 21.5t73 62.5l16 -14q-34 -44 -79.5 -67t-105.5 -23q-51 0 -93 18.5t-72.5 51.5t-47 79t-16.5 100 q0 52 17 96t46.5 76t69.5 49.5t86 17.5q54 0 94 -19t66.5 -50t39.5 -70.5t13 -80.5v-19h-410z" glyph-name="e" horiz-adv-x="556"/>
<glyph unicode="f" d="M282 745q-10 2 -20 3.5t-21 1.5q-27 0 -46 -11t-30.5 -28.5t-16.5 -39.5t-5 -45v-166h125v-19h-125v-441h-22v441h-97v19h96v165q0 42 11 70t28.5 44t38.5 22.5t42 6.5q26 0 46 -6z" glyph-name="f" horiz-adv-x="282"/>
<glyph unicode="g" d="M84 229q0 -45 14.5 -86t41.5 -72t65.5 -49t86.5 -18q46 0 84.5 18t66.5 49t44 72t16 87t-16 87t-44 71.5t-66.5 48.5t-84.5 18q-48 0 -86.5 -18.5t-65.5 -49.5t-41.5 -72t-14.5 -86zM502 124h-3q-13 -34 -35 -59.5t-49 -43t-58.5 -26.5t-64.5 -9q-50 0 -92.5 18.5t-73 51 t-47.5 77t-17 96.5t17 97t47.5 78t73 51.5t92.5 18.5q66 0 121.5 -35t85.5 -104h3v125h22v-434q0 -55 -11.5 -105t-38 -88t-70 -60.5t-107.5 -22.5q-65 0 -116 22.5t-87 63.5l15 15q38 -43 86.5 -62.5t101.5 -19.5q60 0 100 22t63 58t32.5 82.5t9.5 96.5v96z" glyph-name="g" horiz-adv-x="626"/>
<glyph unicode="h" d="M126 339q10 32 28.5 57t42.5 42.5t52 26.5t58 9q48 0 80 -17t51 -45t27 -63t8 -71v-278h-22v276q0 28 -6 60t-22.5 58t-44.5 43.5t-71 17.5q-38 0 -71.5 -15.5t-58 -44.5t-39 -70.5t-14.5 -94.5v-230h-22v756h22v-417h2z" glyph-name="h" horiz-adv-x="569"/>
<glyph unicode="i" d="M102 0v460h22v-460h-22zM113 633q-9 0 -16 7t-7 19q0 11 7 18t16 7t16 -7t7 -18q0 -12 -7.5 -19t-15.5 -7z" glyph-name="i" horiz-adv-x="226"/>
<glyph unicode="j" d="M113 633q-9 0 -16 7t-7 19q0 11 7 18t16 7t16 -7t7 -18q0 -12 -7.5 -19t-15.5 -7zM124 -97q0 -35 -4.5 -62t-17 -45t-34.5 -27.5t-56 -9.5q-7 0 -15 0.5t-14 2.5l4 19q13 -3 25 -3q32 0 50 11t27 28.5t11 39.5t2 44v559h22v-557z" glyph-name="j" horiz-adv-x="226"/>
<glyph unicode="k" d="M125 248l238 212h31l-243 -213l271 -247h-33l-264 243h-1v-243h-22v756h22v-508h1z" glyph-name="k" horiz-adv-x="445"/>
<glyph unicode="l" d="M102 0v756h22v-756h-22z" glyph-name="l" horiz-adv-x="226"/>
<glyph unicode="m" d="M454 333q20 68 68 104.5t109 36.5q46 0 77.5 -17t50 -45t26.5 -63t8 -71v-278h-22v276q0 28 -6.5 60t-22.5 58t-43 43.5t-68 17.5q-36 0 -67.5 -15.5t-55 -44.5t-37.5 -70.5t-14 -94.5v-230h-22v276q0 28 -5.5 60t-20.5 58t-41.5 43.5t-67.5 17.5q-36 0 -67.5 -15.5 t-55 -44.5t-37 -70.5t-13.5 -94.5v-230h-22v344q0 11 -0.5 27t-1 32.5t-1.5 31.5t-2 25h22q1 -10 1.5 -25t1 -32.5t1 -34t0.5 -29.5h2q10 32 28 57t40.5 42.5t49 26.5t54.5 9q36 0 62.5 -11t44.5 -30t29 -44.5t16 -55.5h2z" glyph-name="m" horiz-adv-x="889"/>
<glyph unicode="n" d="M128 339q10 32 29 57t43 42.5t52 26.5t58 9q48 0 80 -17t51 -45t27 -63t8 -71v-278h-22v276q0 28 -6 60t-22.5 58t-44.5 43.5t-71 17.5q-38 0 -71.5 -15.5t-58 -44.5t-39 -70.5t-14.5 -94.5v-230h-22v344q0 11 -0.5 27t-1 32.5t-1.5 31.5t-2 25h22q1 -10 1.5 -25t1 -32.5 t1 -34t0.5 -29.5h2z" glyph-name="n" horiz-adv-x="572"/>
<glyph unicode="o" d="M521 231q0 46 -15 87t-43.5 71.5t-69 48t-91.5 17.5t-91 -17.5t-68.5 -48t-43.5 -71.5t-15 -87q0 -47 15 -88t43.5 -71.5t68.5 -48.5t91 -18t91.5 18t69 48.5t43.5 71.5t15 88zM543 231q0 -54 -17.5 -99t-49.5 -77.5t-76.5 -50.5t-97.5 -18t-97 18t-76 50.5t-49.5 77.5 t-17.5 99t17.5 98.5t49.5 76.5t76 50t97 18t97.5 -18t76.5 -50t49.5 -76.5t17.5 -98.5z" glyph-name="o" horiz-adv-x="605"/>
<glyph unicode="p" d="M542 229q0 45 -14.5 86t-41.5 72t-65.5 49.5t-86.5 18.5q-46 0 -84.5 -18t-66.5 -48.5t-44 -71.5t-16 -87t16 -87t44 -71.5t66.5 -48.5t84.5 -18q48 0 86.5 18t65.5 48.5t41.5 71.5t14.5 86zM127 335q30 69 85.5 104t121.5 35q51 0 93.5 -18.5t73 -51t47 -77.5t16.5 -98 q0 -52 -17 -96.5t-47.5 -77t-73 -51t-92.5 -18.5q-33 0 -64.5 9t-58.5 26.5t-49 43t-35 59.5h-3v-364h-22v700h22v-125h3z" glyph-name="p" horiz-adv-x="626"/>
<glyph unicode="q" d="M84 229q0 -45 14.5 -86t41.5 -71.5t65.5 -48.5t86.5 -18q46 0 84.5 18t66.5 48.5t44 71.5t16 87t-16 87t-44 71.5t-66.5 48.5t-84.5 18q-48 0 -86.5 -18.5t-65.5 -49.5t-41.5 -72t-14.5 -86zM502 460h22v-700h-22v364h-3q-13 -34 -35 -59.5t-49 -43t-58.5 -26.5t-64.5 -9 q-50 0 -92.5 18.5t-73 51t-47.5 77t-17 96.5q0 53 16.5 98t47 77.5t73 51t93.5 18.5q66 0 121.5 -35t85.5 -104h3v125z" glyph-name="q" horiz-adv-x="626"/>
<glyph unicode="r" d="M128 339q20 72 64 103.5t95 31.5h9t9 -1v-19q-4 1 -7.5 1h-5.5q-44 0 -75 -19.5t-51 -51t-29.5 -70t-9.5 -76.5v-238h-22v344q0 11 -0.5 27t-1 32.5t-1.5 31.5t-2 25h22q1 -10 1.5 -25t1 -32.5t1 -34t0.5 -29.5h2z" glyph-name="r" horiz-adv-x="317"/>
<glyph unicode="s" d="M361 120q0 -31 -12 -55.5t-32.5 -41.5t-47.5 -26t-58 -9q-51 0 -92.5 19.5t-68.5 57.5l18 12q50 -70 144 -70q22 0 44.5 7t41 21t30 35t11.5 48q0 32 -14.5 52t-36.5 32t-48.5 19.5t-49.5 13.5q-25 7 -47 15.5t-38.5 22t-26 33.5t-9.5 50t12 52t32 36.5t45.5 22t51.5 7.5 q94 0 141 -67l-19 -11q-23 30 -52 44.5t-70 14.5q-19 0 -40 -5t-38.5 -16.5t-29 -30.5t-11.5 -46q0 -30 9.5 -48t26.5 -29t41 -18.5t53 -14.5q27 -7 52.5 -16.5t45 -23.5t31 -35t11.5 -52z" glyph-name="s" horiz-adv-x="415"/>
<glyph unicode="t" d="M280 -1q-12 -5 -28 -8t-31 -3q-54 0 -77.5 30.5t-23.5 76.5v346h-100v19h99v135h23v-135h135v-19h-135v-346q0 -47 23 -67.5t61 -20.5q28 0 51 9z" glyph-name="t" horiz-adv-x="304"/>
<glyph unicode="u" d="M442 121q-11 -32 -29.5 -57.5t-42.5 -42.5t-52 -26t-58 -9q-48 0 -80 17t-51 45t-27 63t-8 71v278h22v-276q0 -29 6 -60.5t22.5 -57.5t44 -43.5t71.5 -17.5q38 0 71.5 15.5t58 44.5t39 70.5t14.5 94.5v230h22v-344q0 -11 0.5 -27t1 -32.5t1.5 -31.5t2 -25h-22 q-1 10 -1.5 25t-1 32.5t-1 34t-0.5 29.5h-2z" glyph-name="u" horiz-adv-x="572"/>
<glyph unicode="v" d="M234 0h-29l-181 460h24l171 -438h2l165 438h24z" glyph-name="v" horiz-adv-x="434"/>
<glyph unicode="w" d="M529 0h-30l-150 436h-2l-149 -436h-30l-134 460h23l126 -438h2l148 438h31l149 -438h2l126 438h23z" glyph-name="w" horiz-adv-x="698"/>
<glyph unicode="x" d="M224 228l-168 -228h-28l182 243l-159 217h28l146 -202l145 202h29l-160 -217l185 -243h-29z" glyph-name="x" horiz-adv-x="452"/>
<glyph unicode="y" d="M176 -152q-16 -43 -42.5 -66.5t-68.5 -23.5q-9 0 -21 2t-20 5l6 19q6 -2 16.5 -4t20.5 -2q21 0 36.5 8t26.5 20.5t18.5 28.5t13.5 32l44 120l-182 473h24l169 -448l163 448h24z" glyph-name="y" horiz-adv-x="428"/>
<glyph unicode="z" d="M49 0v21l304 420h-288v19h310v-22l-301 -419h313v-19h-338z" glyph-name="z" horiz-adv-x="438"/>
<glyph unicode="{" d="M0 297q16 0 30.5 5t24.5 17.5t16 35t6 57.5v195q0 70 30 97.5t76 27.5h47v-19h-47q-44 0 -64 -27.5t-20 -78.5v-196q0 -63 -19 -90t-48 -32v-2q29 -5 48 -32t19 -90v-196q0 -51 20 -78.5t64 -27.5h47v-19h-47q-23 0 -42.5 6.5t-33.5 21t-22 38.5t-8 59v195q0 35 -6 57.5 t-16 35t-24.5 17.5t-30.5 5v18z" glyph-name="braceleft" horiz-adv-x="300"/>
<glyph unicode="|" d="M122 750v-1000h-22v1000h22z" glyph-name="bar" horiz-adv-x="222"/>
<glyph unicode="}" d="M300 279q-17 0 -31 -5t-24 -17.5t-16 -35t-6 -57.5v-195q0 -35 -8 -59t-22 -38.5t-33.5 -21t-42.5 -6.5h-47v19h47q44 0 64 27.5t20 78.5v196q0 63 19 90t48 32v2q-29 5 -48 32t-19 90v196q0 51 -20 78.5t-64 27.5h-47v19h47q46 0 76 -27.5t30 -97.5v-195q0 -35 6 -57.5 t16 -35t24 -17.5t31 -5v-18z" glyph-name="braceright" horiz-adv-x="300"/>
<glyph unicode="~" glyph-name="asciitilde" d="M93 264q32 55 64.5 74t67.5 19q28 0 50.5 -8t49.5 -27q44 -31 71 -40.5t48 -9.5q40 0 67.5 25.5t48.5 59.5l15 -16q-30 -47 -63.5 -68.5t-67.5 -21.5t-55 9t-46 26q-22 15 -38 24.5t-28.5 15t-24 8t-25.5 2.5q-41 0 -68 -23t-49 -63z"/>
<glyph unicode=" " glyph-name="uni00A0" horiz-adv-x="250"/>
<glyph unicode="¡" d="M127 -222v513h22v-513h-22zM138 441q-9 0 -16 7t-7 19q0 11 7 18t16 7t16 -7t7 -18q0 -12 -7.5 -19t-15.5 -7z" glyph-name="exclamdown" horiz-adv-x="276"/>
<glyph unicode="¢" d="M301 454q-45 -3 -81 -22t-61.5 -50t-39 -70.5t-13.5 -82.5t13.5 -82t39 -69.5t61.5 -49.5t81 -22v448zM323 6q37 1 72 14t61 38l15 -14q-29 -29 -68.5 -42.5t-79.5 -14.5v-59h-22v59q-47 3 -87 22t-69 51t-45 75t-16 94t16 94t45 75.5t68.5 52t87.5 22.5v67h22v-67 q42 -1 80.5 -17t65.5 -44l-17 -15q-26 26 -59.5 41t-69.5 16v-448z" glyph-name="cent" horiz-adv-x="560"/>
<glyph unicode="£" d="M377 379v-19h-170v-340h256v-20h-387v20h109v340h-98v19h98v136q0 98 45.5 154.5t135.5 56.5q36 0 66 -11.5t53 -31.5l-14 -16q-21 18 -47.5 28.5t-57.5 10.5q-43 0 -73 -14.5t-49 -40.5t-28 -61.5t-9 -77.5v-133h170z" glyph-name="sterling" horiz-adv-x="560"/>
<glyph unicode="¤" d="M485 291q0 43 -14 81q-15 38 -41 66t-64 44t-85 17q-47 -1 -85 -17t-64 -44t-40 -66t-14 -81q0 -44 14 -82t40 -67q26 -30 64 -46t85 -16t85 16t64 46q26 29 41 67q14 38 14 82zM434 118q-29 -26 -68 -40t-85 -15q-47 1 -85 15t-68 41l-90 -89l-14 15l89 89 q-27 29 -41 69t-14 88q0 45 14 83t38 68l-86 85l15 15l85 -85q29 29 69 45t88 15q47 1 87 -15t69 -44l84 84l15 -15l-84 -84q26 -29 40 -67t13 -85q0 -49 -15 -89t-42 -70l88 -87l-14 -15z" glyph-name="currency" horiz-adv-x="560"/>
<glyph unicode="¥" d="M79 354v19h182l-235 335h26l229 -331l228 331h25l-233 -335h180v-19h-190v-131h190v-19h-190v-204h-22v204h-190v19h190v131h-190z" glyph-name="yen" horiz-adv-x="560"/>
<glyph unicode="¦" d="M103 -175v331h17v-331h-17zM103 344v331h17v-331h-17z" glyph-name="brokenbar" horiz-adv-x="222"/>
<glyph unicode="§" d="M292 159q26 2 51 10.5t44.5 24t31.5 38t12 53.5q0 27 -11 47.5t-29.5 36.5t-43.5 27.5t-52 22.5l-41 16q-23 -3 -47 -12t-43.5 -24.5t-31.5 -38.5t-12 -54q0 -29 11 -49.5t29 -35.5t41 -25.5t47 -19.5zM317 147q51 -21 80 -51.5t29 -80.5q0 -36 -14 -64t-37.5 -46.5 t-55 -28.5t-67.5 -10q-52 0 -94 18t-72 50l17 17q56 -65 151 -65q30 0 57.5 8t48 24t32.5 39.5t12 55.5q0 27 -11 47.5t-29.5 35.5t-43 27t-51.5 23l-37 15q-33 13 -58.5 26.5t-42 30t-25 38.5t-8.5 53t12 55t31 41t42.5 27.5t45.5 14.5q-25 11 -44 22.5t-32.5 26.5 t-20.5 35.5t-7 49.5q0 35 13.5 62.5t37 46t54.5 28.5t67 10q47 0 85.5 -15t62.5 -48l-17 -15q-19 29 -55 44t-79 15q-27 0 -53.5 -8t-47.5 -24.5t-34 -41t-13 -57.5q0 -30 11 -50.5t29 -34.5t41.5 -24.5t48.5 -20.5l32 -13q35 -14 62 -28.5t45.5 -32t28 -38.5t9.5 -49 q0 -32 -11.5 -56.5t-30.5 -42t-43.5 -27.5t-50.5 -14z" glyph-name="section" horiz-adv-x="560"/>
<glyph unicode="¨" d="M197 633q-9 0 -16 7t-7 19q0 11 7 18t16 7t16 -7t7 -18q0 -12 -7.5 -19t-15.5 -7zM43 633q-9 0 -16 7t-7 19q0 11 7 18t16 7t16 -7t7 -18q0 -12 -7.5 -19t-15.5 -7z" glyph-name="dieresis" horiz-adv-x="240"/>
<glyph unicode="©" d="M538 505q-23 25 -55 39t-66 14q-44 0 -80 -16.5t-61.5 -45t-39 -66t-13.5 -79.5t13.5 -79t39 -65t61.5 -44.5t80 -16.5q35 0 68 12.5t57 35.5l15 -14q-28 -28 -65 -41t-75 -13q-47 0 -86.5 16.5t-68.5 46.5t-45 71.5t-16 90.5t16 90.5t45 71.5t68.5 47t86.5 17 q40 0 76 -15.5t62 -41.5zM42 353q0 -74 28.5 -138t77 -112t114 -75.5t139.5 -27.5q73 0 138 27.5t114 75.5t77 112t28 138t-28 138.5t-77 112.5t-114 76t-138 28q-74 0 -139.5 -28t-114 -76t-77 -112.5t-28.5 -138.5zM20 353q0 79 30 147.5t81.5 119.5t121 80.5t148.5 29.5 q78 0 147 -29.5t120.5 -80.5t81.5 -119.5t30 -147.5q0 -78 -30 -146.5t-81.5 -119.5t-120.5 -80t-147 -29q-79 0 -148.5 29t-121 80t-81.5 119.5t-30 146.5z" glyph-name="copyright" horiz-adv-x="800"/>
<glyph unicode="ª" d="M251 586q-37 0 -70 -2.5t-58 -10.5t-39.5 -23.5t-14.5 -40.5q0 -19 7.5 -31.5t19.5 -20t27 -11t30 -3.5q27 0 48 9.5t35.5 25.5t22 37t7.5 44v27h-15zM266 615q0 44 -23 65.5t-66 21.5q-30 0 -56 -10.5t-44 -28.5l-11 17q17 17 46 28.5t65 11.5q49 0 79 -25.5t30 -76.5 v-124q0 -16 1.5 -33.5t3.5 -29.5h-20q-2 11 -3.5 25t-1.5 39h-1q-18 -37 -51 -54t-67 -17q-16 0 -33.5 4.5t-31.5 14.5t-23.5 26.5t-9.5 39.5q0 33 18.5 51.5t49 28.5t69.5 12.5t80 2.5v11z" glyph-name="ordfeminine" horiz-adv-x="350"/>
<glyph unicode="«" d="M205 40l-123 197l122 196l16 -11l-113 -185l114 -185zM371 40l-123 197l122 196l16 -11l-113 -185l114 -185z" glyph-name="guillemotleft" horiz-adv-x="481"/>
<glyph unicode="¬" glyph-name="logicalnot" d="M551 134v246h-457v19h479v-265h-22z"/>
<glyph unicode="­" d="M60 244v20h180v-20h-180z" glyph-name="uni00AD" horiz-adv-x="300"/>
<glyph unicode="®" d="M93 494q0 -42 16.5 -79.5t45 -65.5t66 -44.5t80.5 -16.5q42 0 79.5 16.5t65.5 44.5t44.5 65.5t16.5 79.5t-16.5 79.5t-44.5 65.5t-65.5 44.5t-79.5 16.5q-43 0 -80.5 -16.5t-66 -44.5t-45 -65.5t-16.5 -79.5zM72 494q0 47 18 88.5t49 72t73 48t89 17.5t88.5 -17.5t72 -48 t48.5 -72t18 -88.5t-18 -88t-48.5 -71.5t-72 -48t-88.5 -17.5t-89 17.5t-73 48t-49 71.5t-18 88zM369 553q0 30 -19 40t-42 10h-63v-105h48q35 0 55.5 11.5t20.5 43.5zM374 371l-74 110h-55v-110h-21v251h84q38 0 60 -17.5t22 -52.5q0 -33 -21 -49.5t-46 -18.5l77 -113h-26z " glyph-name="registered" horiz-adv-x="600"/>
<glyph unicode="¯" d="M4 621v20h232v-20h-232z" glyph-name="macron" horiz-adv-x="240"/>
<glyph unicode="°" d="M325 571q0 26 -10 48.5t-27 39.5t-39.5 27t-48.5 10t-48.5 -10t-39.5 -27t-27 -39.5t-10 -48.5t10 -48.5t27 -39.5t39.5 -27t48.5 -10t48.5 10t39.5 27t27 39.5t10 48.5zM345 571q0 -30 -11.5 -56.5t-31 -46t-46 -31t-56.5 -11.5t-56.5 11.5t-46 31t-31 46t-11.5 56.5 t11.5 56.5t31 46t46 31t56.5 11.5t56.5 -11.5t46 -31t31 -46t11.5 -56.5z" glyph-name="degree" horiz-adv-x="400"/>
<glyph unicode="±" glyph-name="plusminus" d="M98 48v20h471v-20h-471zM342 342v-192h-22v192h-226v20h225v196h22v-196h232v-20h-231z"/>
<glyph unicode="²" d="M298 306v-18h-249v20l154 169q23 25 37 44.5t22 35t11 28t3 24.5q0 45 -26.5 68.5t-68.5 23.5q-35 0 -61.5 -17.5t-37.5 -57.5l-19 6q12 47 45 67t73 20q58 0 87 -31.5t29 -73.5q0 -20 -3.5 -35.5t-13 -32.5t-26 -37t-42.5 -48l-141 -155h227z" glyph-name="twosuperior" horiz-adv-x="350"/>
<glyph unicode="³" d="M284 399q0 -60 -36 -90.5t-88 -30.5q-45 0 -75.5 19.5t-45.5 50.5l18 7q16 -32 45.5 -45.5t57.5 -13.5q51 0 78 28t27 76q0 25 -10.5 44t-28 31.5t-39 19t-43.5 6.5h-17v18h16q54 0 80.5 29t26.5 66q0 45 -27 67t-63 22q-27 0 -50 -12t-35 -31l-15 11q17 23 41.5 36 t58.5 13q54 0 81.5 -29t27.5 -77q0 -45 -25 -71.5t-67 -31.5v-2q51 -5 79 -34.5t28 -75.5z" glyph-name="threesuperior" horiz-adv-x="350"/>
<glyph unicode="´" d="M109 564h-19l103 144h27z" glyph-name="acute" horiz-adv-x="240"/>
<glyph unicode="µ" d="M116 460v-276q0 -29 6 -60.5t22.5 -57.5t44 -43.5t71.5 -17.5q38 0 71.5 15.5t58 44.5t39 70.5t14.5 94.5v230h22v-344q0 -11 0.5 -27t1 -32.5t1 -31.5t0.5 -25h-24v121h-2q-11 -32 -29.5 -57.5t-42.5 -42.5t-52 -26t-58 -9q-57 0 -92 24t-52 62v-300h-22v688h22z" glyph-name="mu" horiz-adv-x="556"/>
<glyph unicode="¶" d="M467 -126v817h-155v-817h-22v467q-50 0 -89.5 14t-67 38.5t-42.5 57t-15 68.5q0 94 58 141.5t164 47.5h191v-834h-22z" glyph-name="paragraph" horiz-adv-x="600"/>
<glyph unicode="·" d="M120 229q-9 0 -16 7t-7 19q0 11 7 18t16 7t16 -7t7 -18q0 -12 -7.5 -19t-15.5 -7z" glyph-name="periodcentered" horiz-adv-x="240"/>
<glyph unicode="¸" d="M219 -146q0 -24 -11.5 -39.5t-28.5 -24.5t-36.5 -12.5t-35.5 -3.5q-19 0 -43.5 5t-46.5 15l5 17q19 -10 43.5 -14t42.5 -4q15 0 30.5 2.5t29 9t22 18.5t8.5 31q0 16 -7 26t-17.5 15.5t-23 7.5t-24.5 2q-14 0 -35.5 -4t-33.5 -11l-10 9l69 101h21l-59 -86q14 5 27 6.5 t27 1.5q15 0 30.5 -3.5t28 -11t20.5 -21t8 -32.5z" glyph-name="cedilla" horiz-adv-x="240"/>
<glyph unicode="¹" d="M169 288v398l-96 -64l-12 16l109 70h21v-420h-22z" glyph-name="onesuperior" horiz-adv-x="350"/>
<glyph unicode="º" d="M53 573q0 -27 8.5 -51t24 -42t38 -28.5t51.5 -10.5t51.5 10.5t38.5 28.5t24 42t8 51t-8 50.5t-24 41.5t-38.5 28t-51.5 10t-51.5 -10t-38 -28t-24 -41.5t-8.5 -50.5zM317 573q0 -33 -10.5 -60t-29 -47t-45 -31t-57.5 -11q-32 0 -58 11t-44.5 31t-29 47t-10.5 60t10.5 60 t29 46.5t44.5 30.5t58 11q31 0 57.5 -11t45 -30.5t29 -46.5t10.5 -60z" glyph-name="ordmasculine" horiz-adv-x="350"/>
<glyph unicode="»" d="M111 41l-16 11l113 185l-114 185l16 12l123 -197zM277 41l-16 11l113 185l-114 185l16 12l123 -197z" glyph-name="guillemotright" horiz-adv-x="481"/>
<glyph unicode="¼" d="M169 288v398l-96 -64l-12 16l109 70h21v-420h-22zM172 -27l-16 11l440 752l16 -11zM651 125v277h-3l-173 -277h176zM455 107v22l185 296h31v-300h67v-18h-67v-107h-20v107h-196z" glyph-name="onequarter" horiz-adv-x="800"/>
<glyph unicode="½" d="M169 288v398l-96 -64l-12 16l109 70h21v-420h-22zM727 18v-18h-249v20l154 169q23 25 37 44.5t22 35t11 28t3 24.5q0 45 -26.5 68.5t-68.5 23.5q-35 0 -61.5 -17.5t-37.5 -57.5l-19 6q12 47 45 67t73 20q58 0 87 -31.5t29 -73.5q0 -20 -3.5 -35.5t-13 -32.5t-26 -37 t-42.5 -48l-141 -155h227zM172 -27l-16 11l440 752l16 -11z" glyph-name="onehalf" horiz-adv-x="800"/>
<glyph unicode="¾" d="M284 399q0 -60 -36 -90.5t-88 -30.5q-45 0 -75.5 19.5t-45.5 50.5l18 7q16 -32 45.5 -45.5t57.5 -13.5q51 0 78 28t27 76q0 25 -10.5 44t-28 31.5t-39 19t-43.5 6.5h-17v18h16q54 0 80.5 29t26.5 66q0 45 -27 67t-63 22q-27 0 -50 -12t-35 -31l-15 11q17 23 41.5 36 t58.5 13q54 0 81.5 -29t27.5 -77q0 -45 -25 -71.5t-67 -31.5v-2q51 -5 79 -34.5t28 -75.5zM172 -27l-16 11l440 752l16 -11zM651 125v277h-3l-173 -277h176zM455 107v22l185 296h31v-300h67v-18h-67v-107h-20v107h-196z" glyph-name="threequarters" horiz-adv-x="800"/>
<glyph unicode="¿" d="M221 286h22v-53q0 -33 -13 -68t-56 -69l-34 -30q-15 -14 -27.5 -27.5t-22 -29t-15 -35t-5.5 -44.5q0 -36 12.5 -64t34.5 -47t51.5 -28.5t62.5 -9.5q69 0 112 40.5t54 103.5l21 -4q-14 -78 -65 -119.5t-124 -41.5q-38 0 -70.5 11t-57.5 32.5t-39 53t-14 72.5q0 31 7.5 55 t20 42.5t28.5 34t34 30.5q26 21 42 38.5t25 34t12.5 35.5t3.5 43v44zM230 441q-8 0 -15.5 7t-7.5 19q0 11 7 18t16 7t16 -7t7 -18q0 -12 -7 -19t-16 -7z" glyph-name="questiondown" horiz-adv-x="472"/>
<glyph unicode="À" glyph-name="Agrave" d="M248 908l103 -144h-19l-111 144h27zM338 694l-201 -472h396zM624 0l-84 203h-411l-87 -203h-24l307 708h28l295 -708h-24z"/>
<glyph unicode="Á" glyph-name="Aacute" d="M344 764h-19l103 144h27zM338 694l-201 -472h396zM624 0l-84 203h-411l-87 -203h-24l307 708h28l295 -708h-24z"/>
<glyph unicode="Â" glyph-name="Acircumflex" d="M352 908l103 -144h-23l-94 132l-94 -132h-23l103 144h28zM338 694l-201 -472h396zM624 0l-84 203h-411l-87 -203h-24l307 708h28l295 -708h-24z"/>
<glyph unicode="Ã" glyph-name="Atilde" d="M342 838q13 -8 22 -13t15.5 -7.5t11 -3t10.5 -0.5q33 0 40 48h16q-4 -36 -20 -51.5t-36 -15.5q-16 0 -28.5 5t-35.5 19q-26 16 -37 20t-22 4q-32 0 -40 -51h-16q4 36 20 53t36 17q16 0 29 -5t35 -19zM338 694l-201 -472h396zM624 0l-84 203h-411l-87 -203h-24l307 708h28 l295 -708h-24z"/>
<glyph unicode="Ä" glyph-name="Adieresis" d="M415 833q-9 0 -16 7t-7 19q0 11 7 18t16 7t16 -7t7 -18q0 -12 -7.5 -19t-15.5 -7zM261 833q-9 0 -16 7t-7 19q0 11 7 18t16 7t16 -7t7 -18q0 -12 -7.5 -19t-15.5 -7zM338 694l-201 -472h396zM624 0l-84 203h-411l-87 -203h-24l307 708h28l295 -708h-24z"/>
<glyph unicode="Å" glyph-name="Aring" d="M415 850q0 32 -22.5 55t-54.5 23t-54.5 -23t-22.5 -55t22.5 -55t54.5 -23t54.5 23t22.5 55zM434 850q0 -20 -7.5 -37.5t-21 -30.5t-31 -20t-36.5 -7q-20 0 -37 7t-30.5 20t-21 30.5t-7.5 37.5t7.5 37.5t21 30t30.5 20t37 7.5q19 0 36.5 -7.5t31 -20t21 -30t7.5 -37.5z M338 694l-201 -472h396zM624 0l-84 203h-411l-87 -203h-24l307 708h28l295 -708h-24z"/>
<glyph unicode="Æ" d="M491 688h-13l-298 -462h311v462zM491 0v206h-324l-135 -206h-26l460 708h429v-20h-382v-311h358v-20h-358v-337h399v-20h-421z" glyph-name="AE" horiz-adv-x="968"/>
<glyph unicode="Ç" d="M535 -146q0 -24 -11.5 -39.5t-28.5 -24.5t-36.5 -12.5t-35.5 -3.5q-19 0 -43.5 5t-46.5 15l5 17q19 -10 43.5 -14t42.5 -4q15 0 30.5 2.5t29 9t22 18.5t8.5 31q0 16 -7 26t-17.5 15.5t-23 7.5t-24.5 2q-14 0 -35.5 -4t-33.5 -11l-10 9l55 82q-77 3 -140.5 31.5t-109 78 t-71 116.5t-25.5 147q0 81 26.5 150t74.5 118.5t114.5 77.5t145.5 28q66 0 128.5 -22.5t106.5 -68.5l-14 -16q-21 22 -47.5 38.5t-56 27.5t-59.5 16t-58 5q-76 0 -138.5 -27.5t-107 -75.5t-69 -112.5t-24.5 -138.5t24 -138.5t68.5 -112.5t107 -75.5t139.5 -27.5 q66 0 130.5 25.5t106.5 76.5l16 -15q-22 -27 -50.5 -46.5t-60.5 -33t-67 -20t-69 -7.5l-45 -66q14 5 27 6.5t27 1.5q15 0 30.5 -3.5t28 -11t20.5 -21t8 -32.5z" glyph-name="Ccedilla" horiz-adv-x="724"/>
<glyph unicode="È" d="M233 908l103 -144h-19l-111 144h27zM106 0v708h412v-20h-391v-311h368v-20h-368v-337h407v-20h-428z" glyph-name="Egrave" horiz-adv-x="590"/>
<glyph unicode="É" d="M306 764h-19l103 144h27zM106 0v708h412v-20h-391v-311h368v-20h-368v-337h407v-20h-428z" glyph-name="Eacute" horiz-adv-x="590"/>
<glyph unicode="Ê" d="M329 908l103 -144h-23l-94 132l-94 -132h-23l103 144h28zM106 0v708h412v-20h-391v-311h368v-20h-368v-337h407v-20h-428z" glyph-name="Ecircumflex" horiz-adv-x="590"/>
<glyph unicode="Ë" d="M392 833q-9 0 -16 7t-7 19q0 11 7 18t16 7t16 -7t7 -18q0 -12 -7.5 -19t-15.5 -7zM238 833q-9 0 -16 7t-7 19q0 11 7 18t16 7t16 -7t7 -18q0 -12 -7.5 -19t-15.5 -7zM106 0v708h412v-20h-391v-311h368v-20h-368v-337h407v-20h-428z" glyph-name="Edieresis" horiz-adv-x="590"/>
<glyph unicode="Ì" d="M26 908l103 -144h-19l-111 144h27zM106 0v708h22v-708h-22z" glyph-name="Igrave" horiz-adv-x="234"/>
<glyph unicode="Í" d="M123 764h-19l103 144h27zM106 0v708h22v-708h-22z" glyph-name="Iacute" horiz-adv-x="234"/>
<glyph unicode="Î" d="M130 908l103 -144h-23l-94 132l-94 -132h-23l103 144h28zM106 0v708h22v-708h-22z" glyph-name="Icircumflex" horiz-adv-x="234"/>
<glyph unicode="Ï" d="M194 833q-9 0 -16 7t-7 19q0 11 7 18t16 7t16 -7t7 -18q0 -12 -7.5 -19t-15.5 -7zM40 833q-9 0 -16 7t-7 19q0 11 7 18t16 7t16 -7t7 -18q0 -12 -7.5 -19t-15.5 -7zM106 0v708h22v-708h-22z" glyph-name="Idieresis" horiz-adv-x="234"/>
<glyph unicode="Ð" d="M397 378v-20h-268v-338h173q78 0 146.5 19.5t118.5 60t79 103.5t29 151t-29 151.5t-79 104t-118.5 59.5t-146.5 19h-173v-310h268zM26 358v20h80v330h201q82 0 153.5 -20.5t124.5 -64t83 -110.5t30 -159t-30 -158.5t-83 -110t-124.5 -64.5t-153.5 -21h-201v358h-80z" glyph-name="Eth" horiz-adv-x="770"/>
<glyph unicode="Ñ" d="M395 838q13 -8 22 -13t15.5 -7.5t11 -3t10.5 -0.5q33 0 40 48h16q-4 -36 -20 -51.5t-36 -15.5q-16 0 -28.5 5t-35.5 19q-26 16 -37 20t-22 4q-32 0 -40 -51h-16q4 36 20 53t36 17q16 0 29 -5t35 -19zM639 0l-508 680h-3v-680h-22v708h31l509 -679h3v679h22v-708h-32z" glyph-name="Ntilde" horiz-adv-x="777"/>
<glyph unicode="Ò" d="M369 908l103 -144h-19l-111 144h27zM778 354q0 74 -25 138.5t-70.5 112.5t-108.5 75.5t-138 27.5t-138 -27.5t-108.5 -75.5t-70.5 -112.5t-25 -138.5t24.5 -138.5t69.5 -112.5t108 -75.5t140 -27.5t140 27.5t108 75.5t69.5 112.5t24.5 138.5zM800 354q0 -82 -27.5 -150.5 t-76 -118t-115.5 -77.5t-145 -28t-145 28t-115.5 77.5t-76 118t-27.5 150.5t27.5 150.5t76 118t115 77.5t145.5 28t145.5 -28t115 -77.5t76 -118t27.5 -150.5z" glyph-name="Ograve" horiz-adv-x="872"/>
<glyph unicode="Ó" d="M429 764h-19l103 144h27zM778 354q0 74 -25 138.5t-70.5 112.5t-108.5 75.5t-138 27.5t-138 -27.5t-108.5 -75.5t-70.5 -112.5t-25 -138.5t24.5 -138.5t69.5 -112.5t108 -75.5t140 -27.5t140 27.5t108 75.5t69.5 112.5t24.5 138.5zM800 354q0 -82 -27.5 -150.5t-76 -118 t-115.5 -77.5t-145 -28t-145 28t-115.5 77.5t-76 118t-27.5 150.5t27.5 150.5t76 118t115 77.5t145.5 28t145.5 -28t115 -77.5t76 -118t27.5 -150.5z" glyph-name="Oacute" horiz-adv-x="872"/>
<glyph unicode="Ô" d="M452 908l103 -144h-23l-94 132l-94 -132h-23l103 144h28zM778 354q0 74 -25 138.5t-70.5 112.5t-108.5 75.5t-138 27.5t-138 -27.5t-108.5 -75.5t-70.5 -112.5t-25 -138.5t24.5 -138.5t69.5 -112.5t108 -75.5t140 -27.5t140 27.5t108 75.5t69.5 112.5t24.5 138.5z M800 354q0 -82 -27.5 -150.5t-76 -118t-115.5 -77.5t-145 -28t-145 28t-115.5 77.5t-76 118t-27.5 150.5t27.5 150.5t76 118t115 77.5t145.5 28t145.5 -28t115 -77.5t76 -118t27.5 -150.5z" glyph-name="Ocircumflex" horiz-adv-x="872"/>
<glyph unicode="Õ" d="M441 838q13 -8 22 -13t15.5 -7.5t11 -3t10.5 -0.5q33 0 40 48h16q-4 -36 -20 -51.5t-36 -15.5q-16 0 -28.5 5t-35.5 19q-26 16 -37 20t-22 4q-32 0 -40 -51h-16q4 36 20 53t36 17q16 0 29 -5t35 -19zM778 354q0 74 -25 138.5t-70.5 112.5t-108.5 75.5t-138 27.5 t-138 -27.5t-108.5 -75.5t-70.5 -112.5t-25 -138.5t24.5 -138.5t69.5 -112.5t108 -75.5t140 -27.5t140 27.5t108 75.5t69.5 112.5t24.5 138.5zM800 354q0 -82 -27.5 -150.5t-76 -118t-115.5 -77.5t-145 -28t-145 28t-115.5 77.5t-76 118t-27.5 150.5t27.5 150.5t76 118 t115 77.5t145.5 28t145.5 -28t115 -77.5t76 -118t27.5 -150.5z" glyph-name="Otilde" horiz-adv-x="872"/>
<glyph unicode="Ö" d="M515 833q-9 0 -16 7t-7 19q0 11 7 18t16 7t16 -7t7 -18q0 -12 -7.5 -19t-15.5 -7zM361 833q-9 0 -16 7t-7 19q0 11 7 18t16 7t16 -7t7 -18q0 -12 -7.5 -19t-15.5 -7zM778 354q0 74 -25 138.5t-70.5 112.5t-108.5 75.5t-138 27.5t-138 -27.5t-108.5 -75.5t-70.5 -112.5 t-25 -138.5t24.5 -138.5t69.5 -112.5t108 -75.5t140 -27.5t140 27.5t108 75.5t69.5 112.5t24.5 138.5zM800 354q0 -82 -27.5 -150.5t-76 -118t-115.5 -77.5t-145 -28t-145 28t-115.5 77.5t-76 118t-27.5 150.5t27.5 150.5t76 118t115 77.5t145.5 28t145.5 -28t115 -77.5 t76 -118t27.5 -150.5z" glyph-name="Odieresis" horiz-adv-x="872"/>
<glyph unicode="×" glyph-name="multiply" d="M527 128l-14 -13l-179 179l-179 -179l-14 13l180 180l-180 180l13 13l180 -180l180 180l13 -13l-180 -180z"/>
<glyph unicode="Ø" d="M195 84q44 -39 101 -61.5t127 -22.5q77 0 140 27.5t108 75.5t69.5 112.5t24.5 138.5q0 79 -28.5 147t-81.5 118zM670 636q55 -50 86 -121.5t31 -160.5q0 -82 -27.5 -150.5t-76 -118t-115.5 -77.5t-145 -28q-71 0 -132.5 23t-109.5 65l-68 -79l-14 14l68 78 q-51 49 -79.5 118.5t-28.5 154.5q0 82 27.5 150.5t76 118t115 77.5t145.5 28q67 0 125.5 -20.5t106.5 -58.5l67 78l15 -13zM640 632q-42 35 -97 55.5t-120 20.5q-75 0 -138 -27.5t-108.5 -75.5t-70.5 -112.5t-25 -138.5q0 -75 26 -141t74 -115z" glyph-name="Oslash" horiz-adv-x="872"/>
<glyph unicode="Ù" d="M298 908l103 -144h-19l-111 144h27zM636 268q0 -60 -14 -112.5t-46 -91.5t-83.5 -61.5t-126.5 -22.5t-126.5 22.5t-83.5 61.5t-46 91.5t-14 112.5v440h22v-436q0 -42 8.5 -89.5t35 -88t75 -67.5t129.5 -27q79 0 127.5 26t75.5 66.5t36 88t9 91.5v436h22v-440z" glyph-name="Ugrave" horiz-adv-x="732"/>
<glyph unicode="Ú" d="M342 764h-19l103 144h27zM636 268q0 -60 -14 -112.5t-46 -91.5t-83.5 -61.5t-126.5 -22.5t-126.5 22.5t-83.5 61.5t-46 91.5t-14 112.5v440h22v-436q0 -42 8.5 -89.5t35 -88t75 -67.5t129.5 -27q79 0 127.5 26t75.5 66.5t36 88t9 91.5v436h22v-440z" glyph-name="Uacute" horiz-adv-x="732"/>
<glyph unicode="Û" d="M380 908l103 -144h-23l-94 132l-94 -132h-23l103 144h28zM636 268q0 -60 -14 -112.5t-46 -91.5t-83.5 -61.5t-126.5 -22.5t-126.5 22.5t-83.5 61.5t-46 91.5t-14 112.5v440h22v-436q0 -42 8.5 -89.5t35 -88t75 -67.5t129.5 -27q79 0 127.5 26t75.5 66.5t36 88t9 91.5v436 h22v-440z" glyph-name="Ucircumflex" horiz-adv-x="732"/>
<glyph unicode="Ü" d="M443 833q-9 0 -16 7t-7 19q0 11 7 18t16 7t16 -7t7 -18q0 -12 -7.5 -19t-15.5 -7zM289 833q-9 0 -16 7t-7 19q0 11 7 18t16 7t16 -7t7 -18q0 -12 -7.5 -19t-15.5 -7zM636 268q0 -60 -14 -112.5t-46 -91.5t-83.5 -61.5t-126.5 -22.5t-126.5 22.5t-83.5 61.5t-46 91.5 t-14 112.5v440h22v-436q0 -42 8.5 -89.5t35 -88t75 -67.5t129.5 -27q79 0 127.5 26t75.5 66.5t36 88t9 91.5v436h22v-440z" glyph-name="Udieresis" horiz-adv-x="732"/>
<glyph unicode="Ý" d="M272 764h-19l103 144h27zM280 310v-310h-22v310l-243 398h26l229 -376l228 376h25z" glyph-name="Yacute" horiz-adv-x="538"/>
<glyph unicode="Þ" d="M495 374q0 45 -17 75t-44 48t-60.5 26t-66.5 8h-179v-322h184q33 0 66 9t59 29t42 51.5t16 75.5zM517 374q0 -45 -16.5 -79.5t-44.5 -57.5t-65.5 -35t-79.5 -12h-183v-190h-22v708h22v-158h170q38 0 77 -8.5t70.5 -28.5t51.5 -54t20 -85z" glyph-name="Thorn" horiz-adv-x="572"/>
<glyph unicode="ß" d="M527 208q0 -49 -15.5 -89t-44.5 -68.5t-70 -44.5t-92 -16q-11 0 -23.5 0.5t-24.5 2.5v21q15 -2 26.5 -3t20.5 -1q46 0 83 14t63.5 40.5t40.5 63t14 81.5q0 54 -16.5 93t-45 64.5t-66.5 37.5t-81 12h-16v21h16q34 0 64.5 10.5t52.5 30.5t35 50t13 68q0 36 -12 64 t-33.5 47.5t-51 30t-63.5 10.5q-50 0 -84 -18t-54.5 -48t-29.5 -68.5t-9 -78.5v-535h-22v538q0 49 12.5 91.5t37.5 73t62 48t86 17.5q40 0 73.5 -12t58 -34.5t38 -54.5t13.5 -72q0 -36 -10.5 -64.5t-29 -49t-43.5 -33.5t-53 -19v-2q36 -5 69 -20t57.5 -41t39 -65t14.5 -93z " glyph-name="germandbls" horiz-adv-x="589"/>
<glyph unicode="à" d="M191 708l103 -144h-19l-111 144h27zM396 251h-71q-38 0 -80 -4.5t-77 -18.5t-57.5 -40t-22.5 -70q0 -32 12.5 -53.5t32 -34.5t43 -19t44.5 -6q51 0 85 19t54.5 48.5t28.5 65t8 69.5v44zM418 104q0 -26 2.5 -55.5t5.5 -48.5h-21q-2 10 -3 24.5t-2.5 30t-2 30.5t-0.5 25h-3 q-20 -63 -69 -93.5t-105 -30.5q-28 0 -55.5 8t-49.5 24t-35.5 41t-13.5 59q0 49 25.5 79t63.5 46.5t81.5 21.5t79.5 5h80v37q0 77 -41 112.5t-107 35.5q-41 0 -76.5 -15t-63.5 -40l-12 17q32 28 72.5 42.5t79.5 14.5q79 0 124.5 -40.5t45.5 -127.5v-202z" glyph-name="agrave" horiz-adv-x="512"/>
<glyph unicode="á" d="M252 564h-19l103 144h27zM396 251h-71q-38 0 -80 -4.5t-77 -18.5t-57.5 -40t-22.5 -70q0 -32 12.5 -53.5t32 -34.5t43 -19t44.5 -6q51 0 85 19t54.5 48.5t28.5 65t8 69.5v44zM418 104q0 -26 2.5 -55.5t5.5 -48.5h-21q-2 10 -3 24.5t-2.5 30t-2 30.5t-0.5 25h-3 q-20 -63 -69 -93.5t-105 -30.5q-28 0 -55.5 8t-49.5 24t-35.5 41t-13.5 59q0 49 25.5 79t63.5 46.5t81.5 21.5t79.5 5h80v37q0 77 -41 112.5t-107 35.5q-41 0 -76.5 -15t-63.5 -40l-12 17q32 28 72.5 42.5t79.5 14.5q79 0 124.5 -40.5t45.5 -127.5v-202z" glyph-name="aacute" horiz-adv-x="512"/>
<glyph unicode="â" d="M262 708l103 -144h-23l-94 132l-94 -132h-23l103 144h28zM396 251h-71q-38 0 -80 -4.5t-77 -18.5t-57.5 -40t-22.5 -70q0 -32 12.5 -53.5t32 -34.5t43 -19t44.5 -6q51 0 85 19t54.5 48.5t28.5 65t8 69.5v44zM418 104q0 -26 2.5 -55.5t5.5 -48.5h-21q-2 10 -3 24.5 t-2.5 30t-2 30.5t-0.5 25h-3q-20 -63 -69 -93.5t-105 -30.5q-28 0 -55.5 8t-49.5 24t-35.5 41t-13.5 59q0 49 25.5 79t63.5 46.5t81.5 21.5t79.5 5h80v37q0 77 -41 112.5t-107 35.5q-41 0 -76.5 -15t-63.5 -40l-12 17q32 28 72.5 42.5t79.5 14.5q79 0 124.5 -40.5 t45.5 -127.5v-202z" glyph-name="acircumflex" horiz-adv-x="512"/>
<glyph unicode="ã" d="M253 638q13 -8 22 -13t15.5 -7.5t11 -3t10.5 -0.5q33 0 40 48h16q-4 -36 -20 -51.5t-36 -15.5q-16 0 -28.5 5t-35.5 19q-26 16 -37 20t-22 4q-32 0 -40 -51h-16q4 36 20 53t36 17q16 0 29 -5t35 -19zM396 251h-71q-38 0 -80 -4.5t-77 -18.5t-57.5 -40t-22.5 -70 q0 -32 12.5 -53.5t32 -34.5t43 -19t44.5 -6q51 0 85 19t54.5 48.5t28.5 65t8 69.5v44zM418 104q0 -26 2.5 -55.5t5.5 -48.5h-21q-2 10 -3 24.5t-2.5 30t-2 30.5t-0.5 25h-3q-20 -63 -69 -93.5t-105 -30.5q-28 0 -55.5 8t-49.5 24t-35.5 41t-13.5 59q0 49 25.5 79t63.5 46.5 t81.5 21.5t79.5 5h80v37q0 77 -41 112.5t-107 35.5q-41 0 -76.5 -15t-63.5 -40l-12 17q32 28 72.5 42.5t79.5 14.5q79 0 124.5 -40.5t45.5 -127.5v-202z" glyph-name="atilde" horiz-adv-x="512"/>
<glyph unicode="ä" d="M328 633q-9 0 -16 7t-7 19q0 11 7 18t16 7t16 -7t7 -18q0 -12 -7.5 -19t-15.5 -7zM174 633q-9 0 -16 7t-7 19q0 11 7 18t16 7t16 -7t7 -18q0 -12 -7.5 -19t-15.5 -7zM396 251h-71q-38 0 -80 -4.5t-77 -18.5t-57.5 -40t-22.5 -70q0 -32 12.5 -53.5t32 -34.5t43 -19 t44.5 -6q51 0 85 19t54.5 48.5t28.5 65t8 69.5v44zM418 104q0 -26 2.5 -55.5t5.5 -48.5h-21q-2 10 -3 24.5t-2.5 30t-2 30.5t-0.5 25h-3q-20 -63 -69 -93.5t-105 -30.5q-28 0 -55.5 8t-49.5 24t-35.5 41t-13.5 59q0 49 25.5 79t63.5 46.5t81.5 21.5t79.5 5h80v37 q0 77 -41 112.5t-107 35.5q-41 0 -76.5 -15t-63.5 -40l-12 17q32 28 72.5 42.5t79.5 14.5q79 0 124.5 -40.5t45.5 -127.5v-202z" glyph-name="adieresis" horiz-adv-x="512"/>
<glyph unicode="å" d="M328 650q0 32 -22.5 55t-54.5 23t-54.5 -23t-22.5 -55t22.5 -55t54.5 -23t54.5 23t22.5 55zM347 650q0 -20 -7.5 -37.5t-21 -30.5t-31 -20t-36.5 -7q-20 0 -37 7t-30.5 20t-21 30.5t-7.5 37.5t7.5 37.5t21 30t30.5 20t37 7.5q19 0 36.5 -7.5t31 -20t21 -30t7.5 -37.5z M396 251h-71q-38 0 -80 -4.5t-77 -18.5t-57.5 -40t-22.5 -70q0 -32 12.5 -53.5t32 -34.5t43 -19t44.5 -6q51 0 85 19t54.5 48.5t28.5 65t8 69.5v44zM418 104q0 -26 2.5 -55.5t5.5 -48.5h-21q-2 10 -3 24.5t-2.5 30t-2 30.5t-0.5 25h-3q-20 -63 -69 -93.5t-105 -30.5 q-28 0 -55.5 8t-49.5 24t-35.5 41t-13.5 59q0 49 25.5 79t63.5 46.5t81.5 21.5t79.5 5h80v37q0 77 -41 112.5t-107 35.5q-41 0 -76.5 -15t-63.5 -40l-12 17q32 28 72.5 42.5t79.5 14.5q79 0 124.5 -40.5t45.5 -127.5v-202z" glyph-name="aring" horiz-adv-x="512"/>
<glyph unicode="æ" d="M407 235h-75q-43 0 -86.5 -4.5t-78 -17.5t-56.5 -37t-22 -64q0 -32 13 -52.5t33 -32.5t43.5 -17t45.5 -5q53 0 88 16.5t56 43t30 59.5t9 67v44zM426 338q24 61 74 98.5t114 37.5q51 0 89 -19t63.5 -50t38 -70.5t12.5 -80.5v-19h-389q0 -40 11 -80.5t35 -73.5t61 -53.5 t89 -20.5q49 0 90.5 21t70.5 62l15 -13q-32 -44 -76 -67t-101 -23q-73 0 -127 42t-76 114q-4 -31 -17.5 -59.5t-37.5 -50t-59.5 -34.5t-81.5 -13q-29 0 -57 7t-50.5 22t-36.5 39t-14 58q0 46 25 74t63.5 43.5t83.5 20.5t85 5h84v47q0 75 -40 114t-114 39q-42 0 -78.5 -15 t-65.5 -40l-12 17q32 28 74 42.5t82 14.5q42 0 73.5 -10.5t52.5 -29t32.5 -43.5t14.5 -53zM796 255q-2 45 -15.5 81.5t-37 63t-57 41t-73.5 14.5q-50 0 -84.5 -22.5t-57 -54t-32.5 -65.5t-10 -58h367z" glyph-name="ae" horiz-adv-x="879"/>
<glyph unicode="ç" d="M399 -146q0 -24 -11.5 -39.5t-28.5 -24.5t-36.5 -12.5t-35.5 -3.5q-19 0 -43.5 5t-46.5 15l5 17q19 -10 43.5 -14t42.5 -4q15 0 30.5 2.5t29 9t22 18.5t8.5 31q0 16 -7 26t-17.5 15.5t-23 7.5t-24.5 2q-14 0 -35.5 -4t-33.5 -11l-10 9l59 87q-49 2 -90 20.5t-71 50.5 t-46.5 76t-16.5 96q0 53 17.5 98t49 77.5t74 51t93.5 18.5q44 0 83.5 -16t67.5 -45l-17 -15q-26 27 -61 42t-73 15q-49 0 -88 -18.5t-66.5 -49.5t-42.5 -72t-15 -86t15 -86t42.5 -71.5t66.5 -48.5t88 -18q38 0 74.5 13t63.5 39l15 -14q-29 -29 -66.5 -42t-75.5 -15l-49 -72 q14 5 27 6.5t27 1.5q15 0 30.5 -3.5t28 -11t20.5 -21t8 -32.5z" glyph-name="ccedilla" horiz-adv-x="480"/>
<glyph unicode="è" d="M212 708l103 -144h-19l-111 144h27zM473 254q-1 45 -15.5 82t-39.5 63.5t-60 41t-78 14.5q-52 0 -89 -21.5t-60.5 -53t-34.5 -66t-11 -60.5h388zM84 235q0 -42 12.5 -83t38 -73.5t64.5 -52.5t92 -20q54 0 96 21.5t73 62.5l16 -14q-34 -44 -79.5 -67t-105.5 -23 q-51 0 -93 18.5t-72.5 51.5t-47 79t-16.5 100q0 52 17 96t46.5 76t69.5 49.5t86 17.5q54 0 94 -19t66.5 -50t39.5 -70.5t13 -80.5v-19h-410z" glyph-name="egrave" horiz-adv-x="556"/>
<glyph unicode="é" d="M276 564h-19l103 144h27zM473 254q-1 45 -15.5 82t-39.5 63.5t-60 41t-78 14.5q-52 0 -89 -21.5t-60.5 -53t-34.5 -66t-11 -60.5h388zM84 235q0 -42 12.5 -83t38 -73.5t64.5 -52.5t92 -20q54 0 96 21.5t73 62.5l16 -14q-34 -44 -79.5 -67t-105.5 -23q-51 0 -93 18.5 t-72.5 51.5t-47 79t-16.5 100q0 52 17 96t46.5 76t69.5 49.5t86 17.5q54 0 94 -19t66.5 -50t39.5 -70.5t13 -80.5v-19h-410z" glyph-name="eacute" horiz-adv-x="556"/>
<glyph unicode="ê" d="M300 708l103 -144h-23l-94 132l-94 -132h-23l103 144h28zM473 254q-1 45 -15.5 82t-39.5 63.5t-60 41t-78 14.5q-52 0 -89 -21.5t-60.5 -53t-34.5 -66t-11 -60.5h388zM84 235q0 -42 12.5 -83t38 -73.5t64.5 -52.5t92 -20q54 0 96 21.5t73 62.5l16 -14q-34 -44 -79.5 -67 t-105.5 -23q-51 0 -93 18.5t-72.5 51.5t-47 79t-16.5 100q0 52 17 96t46.5 76t69.5 49.5t86 17.5q54 0 94 -19t66.5 -50t39.5 -70.5t13 -80.5v-19h-410z" glyph-name="ecircumflex" horiz-adv-x="556"/>
<glyph unicode="ë" d="M360 633q-9 0 -16 7t-7 19q0 11 7 18t16 7t16 -7t7 -18q0 -12 -7.5 -19t-15.5 -7zM206 633q-9 0 -16 7t-7 19q0 11 7 18t16 7t16 -7t7 -18q0 -12 -7.5 -19t-15.5 -7zM473 254q-1 45 -15.5 82t-39.5 63.5t-60 41t-78 14.5q-52 0 -89 -21.5t-60.5 -53t-34.5 -66t-11 -60.5 h388zM84 235q0 -42 12.5 -83t38 -73.5t64.5 -52.5t92 -20q54 0 96 21.5t73 62.5l16 -14q-34 -44 -79.5 -67t-105.5 -23q-51 0 -93 18.5t-72.5 51.5t-47 79t-16.5 100q0 52 17 96t46.5 76t69.5 49.5t86 17.5q54 0 94 -19t66.5 -50t39.5 -70.5t13 -80.5v-19h-410z" glyph-name="edieresis" horiz-adv-x="556"/>
<glyph unicode="ì" d="M22 708l103 -144h-19l-111 144h27zM102 0v460h22v-460h-22z" glyph-name="igrave" horiz-adv-x="226"/>
<glyph unicode="í" d="M120 564h-19l103 144h27zM102 0v460h22v-460h-22z" glyph-name="iacute" horiz-adv-x="226"/>
<glyph unicode="î" d="M128 708l103 -144h-23l-94 132l-94 -132h-23l103 144h28zM102 0v460h22v-460h-22z" glyph-name="icircumflex" horiz-adv-x="226"/>
<glyph unicode="ï" d="M191 633q-9 0 -16 7t-7 19q0 11 7 18t16 7t16 -7t7 -18q0 -12 -7.5 -19t-15.5 -7zM37 633q-9 0 -16 7t-7 19q0 11 7 18t16 7t16 -7t7 -18q0 -12 -7.5 -19t-15.5 -7zM102 0v460h22v-460h-22z" glyph-name="idieresis" horiz-adv-x="226"/>
<glyph unicode="ð" d="M521 231q0 46 -15 87t-43.5 71.5t-69 48t-91.5 17.5t-91 -17.5t-68.5 -48t-43.5 -71.5t-15 -87q0 -47 15 -88t43.5 -71.5t68.5 -48.5t91 -18t91.5 18t69 48.5t43.5 71.5t15 88zM488 399q-15 36 -35.5 73t-44 71.5t-47 63.5t-44.5 49l-112 -61l-12 14l110 62 q-29 27 -53 47t-44 33l17 12q25 -16 49.5 -37t48.5 -45l105 59l16 -13l-105 -59q15 -15 36 -40t44 -57.5t45.5 -71t40.5 -81.5t29 -89t11 -93q0 -55 -17.5 -101t-49.5 -79t-76.5 -51.5t-97.5 -18.5t-97 18t-76 50.5t-49.5 77.5t-17.5 99t17.5 98.5t49.5 76.5t76 50t97 18 q52 0 98 -18.5t82 -58.5z" glyph-name="eth" horiz-adv-x="605"/>
<glyph unicode="ñ" d="M293 638q13 -8 22 -13t15.5 -7.5t11 -3t10.5 -0.5q33 0 40 48h16q-4 -36 -20 -51.5t-36 -15.5q-16 0 -28.5 5t-35.5 19q-26 16 -37 20t-22 4q-32 0 -40 -51h-16q4 36 20 53t36 17q16 0 29 -5t35 -19zM128 339q10 32 29 57t43 42.5t52 26.5t58 9q48 0 80 -17t51 -45 t27 -63t8 -71v-278h-22v276q0 28 -6 60t-22.5 58t-44.5 43.5t-71 17.5q-38 0 -71.5 -15.5t-58 -44.5t-39 -70.5t-14.5 -94.5v-230h-22v344q0 11 -0.5 27t-1 32.5t-1.5 31.5t-2 25h22q1 -10 1.5 -25t1 -32.5t1 -34t0.5 -29.5h2z" glyph-name="ntilde" horiz-adv-x="572"/>
<glyph unicode="ò" d="M239 708l103 -144h-19l-111 144h27zM521 231q0 46 -15 87t-43.5 71.5t-69 48t-91.5 17.5t-91 -17.5t-68.5 -48t-43.5 -71.5t-15 -87q0 -47 15 -88t43.5 -71.5t68.5 -48.5t91 -18t91.5 18t69 48.5t43.5 71.5t15 88zM543 231q0 -54 -17.5 -99t-49.5 -77.5t-76.5 -50.5 t-97.5 -18t-97 18t-76 50.5t-49.5 77.5t-17.5 99t17.5 98.5t49.5 76.5t76 50t97 18t97.5 -18t76.5 -50t49.5 -76.5t17.5 -98.5z" glyph-name="ograve" horiz-adv-x="605"/>
<glyph unicode="ó" d="M286 564h-19l103 144h27zM521 231q0 46 -15 87t-43.5 71.5t-69 48t-91.5 17.5t-91 -17.5t-68.5 -48t-43.5 -71.5t-15 -87q0 -47 15 -88t43.5 -71.5t68.5 -48.5t91 -18t91.5 18t69 48.5t43.5 71.5t15 88zM543 231q0 -54 -17.5 -99t-49.5 -77.5t-76.5 -50.5t-97.5 -18 t-97 18t-76 50.5t-49.5 77.5t-17.5 99t17.5 98.5t49.5 76.5t76 50t97 18t97.5 -18t76.5 -50t49.5 -76.5t17.5 -98.5z" glyph-name="oacute" horiz-adv-x="605"/>
<glyph unicode="ô" d="M318 708l103 -144h-23l-94 132l-94 -132h-23l103 144h28zM521 231q0 46 -15 87t-43.5 71.5t-69 48t-91.5 17.5t-91 -17.5t-68.5 -48t-43.5 -71.5t-15 -87q0 -47 15 -88t43.5 -71.5t68.5 -48.5t91 -18t91.5 18t69 48.5t43.5 71.5t15 88zM543 231q0 -54 -17.5 -99 t-49.5 -77.5t-76.5 -50.5t-97.5 -18t-97 18t-76 50.5t-49.5 77.5t-17.5 99t17.5 98.5t49.5 76.5t76 50t97 18t97.5 -18t76.5 -50t49.5 -76.5t17.5 -98.5z" glyph-name="ocircumflex" horiz-adv-x="605"/>
<glyph unicode="õ" d="M307 638q13 -8 22 -13t15.5 -7.5t11 -3t10.5 -0.5q33 0 40 48h16q-4 -36 -20 -51.5t-36 -15.5q-16 0 -28.5 5t-35.5 19q-26 16 -37 20t-22 4q-32 0 -40 -51h-16q4 36 20 53t36 17q16 0 29 -5t35 -19zM521 231q0 46 -15 87t-43.5 71.5t-69 48t-91.5 17.5t-91 -17.5 t-68.5 -48t-43.5 -71.5t-15 -87q0 -47 15 -88t43.5 -71.5t68.5 -48.5t91 -18t91.5 18t69 48.5t43.5 71.5t15 88zM543 231q0 -54 -17.5 -99t-49.5 -77.5t-76.5 -50.5t-97.5 -18t-97 18t-76 50.5t-49.5 77.5t-17.5 99t17.5 98.5t49.5 76.5t76 50t97 18t97.5 -18t76.5 -50 t49.5 -76.5t17.5 -98.5z" glyph-name="otilde" horiz-adv-x="605"/>
<glyph unicode="ö" d="M381 633q-9 0 -16 7t-7 19q0 11 7 18t16 7t16 -7t7 -18q0 -12 -7.5 -19t-15.5 -7zM227 633q-9 0 -16 7t-7 19q0 11 7 18t16 7t16 -7t7 -18q0 -12 -7.5 -19t-15.5 -7zM521 231q0 46 -15 87t-43.5 71.5t-69 48t-91.5 17.5t-91 -17.5t-68.5 -48t-43.5 -71.5t-15 -87 q0 -47 15 -88t43.5 -71.5t68.5 -48.5t91 -18t91.5 18t69 48.5t43.5 71.5t15 88zM543 231q0 -54 -17.5 -99t-49.5 -77.5t-76.5 -50.5t-97.5 -18t-97 18t-76 50.5t-49.5 77.5t-17.5 99t17.5 98.5t49.5 76.5t76 50t97 18t97.5 -18t76.5 -50t49.5 -76.5t17.5 -98.5z" glyph-name="odieresis" horiz-adv-x="605"/>
<glyph unicode="÷" glyph-name="divide" d="M369 136q0 -16 -11 -27t-25 -11t-24.5 11t-10.5 27q0 17 10 27.5t25 10.5q14 0 25 -11t11 -27zM94 293v20h479v-20h-479zM369 470q0 -16 -11 -27t-25 -11t-24.5 11t-10.5 27t10.5 27t24.5 11t25 -11t11 -27z"/>
<glyph unicode="ø" d="M451 401q-28 25 -65 39.5t-84 14.5q-51 0 -91 -17.5t-68.5 -48t-43.5 -71.5t-15 -87q0 -42 12.5 -80t36.5 -68zM146 69q27 -30 66.5 -47t89.5 -17q51 0 91.5 18t69 48.5t43.5 71.5t15 88q0 45 -14.5 85t-42.5 71zM479 402q30 -31 47 -74t17 -97t-17.5 -99t-49.5 -77.5 t-76.5 -50.5t-97.5 -18q-52 0 -95.5 18t-75.5 50l-66 -66l-14 13l67 67q-26 31 -41 72.5t-15 90.5q0 54 17.5 98.5t49.5 76.5t76 50t97 18q49 0 90.5 -15t73.5 -43l59 59l14 -14z" glyph-name="oslash" horiz-adv-x="605"/>
<glyph unicode="ù" d="M202 708l103 -144h-19l-111 144h27zM442 121q-11 -32 -29.5 -57.5t-42.5 -42.5t-52 -26t-58 -9q-48 0 -80 17t-51 45t-27 63t-8 71v278h22v-276q0 -29 6 -60.5t22.5 -57.5t44 -43.5t71.5 -17.5q38 0 71.5 15.5t58 44.5t39 70.5t14.5 94.5v230h22v-344q0 -11 0.5 -27 t1 -32.5t1.5 -31.5t2 -25h-22q-1 10 -1.5 25t-1 32.5t-1 34t-0.5 29.5h-2z" glyph-name="ugrave" horiz-adv-x="572"/>
<glyph unicode="ú" d="M262 564h-19l103 144h27zM442 121q-11 -32 -29.5 -57.5t-42.5 -42.5t-52 -26t-58 -9q-48 0 -80 17t-51 45t-27 63t-8 71v278h22v-276q0 -29 6 -60.5t22.5 -57.5t44 -43.5t71.5 -17.5q38 0 71.5 15.5t58 44.5t39 70.5t14.5 94.5v230h22v-344q0 -11 0.5 -27t1 -32.5 t1.5 -31.5t2 -25h-22q-1 10 -1.5 25t-1 32.5t-1 34t-0.5 29.5h-2z" glyph-name="uacute" horiz-adv-x="572"/>
<glyph unicode="û" d="M292 708l103 -144h-23l-94 132l-94 -132h-23l103 144h28zM442 121q-11 -32 -29.5 -57.5t-42.5 -42.5t-52 -26t-58 -9q-48 0 -80 17t-51 45t-27 63t-8 71v278h22v-276q0 -29 6 -60.5t22.5 -57.5t44 -43.5t71.5 -17.5q38 0 71.5 15.5t58 44.5t39 70.5t14.5 94.5v230h22 v-344q0 -11 0.5 -27t1 -32.5t1.5 -31.5t2 -25h-22q-1 10 -1.5 25t-1 32.5t-1 34t-0.5 29.5h-2z" glyph-name="ucircumflex" horiz-adv-x="572"/>
<glyph unicode="ü" d="M355 633q-9 0 -16 7t-7 19q0 11 7 18t16 7t16 -7t7 -18q0 -12 -7.5 -19t-15.5 -7zM201 633q-9 0 -16 7t-7 19q0 11 7 18t16 7t16 -7t7 -18q0 -12 -7.5 -19t-15.5 -7zM442 121q-11 -32 -29.5 -57.5t-42.5 -42.5t-52 -26t-58 -9q-48 0 -80 17t-51 45t-27 63t-8 71v278h22 v-276q0 -29 6 -60.5t22.5 -57.5t44 -43.5t71.5 -17.5q38 0 71.5 15.5t58 44.5t39 70.5t14.5 94.5v230h22v-344q0 -11 0.5 -27t1 -32.5t1.5 -31.5t2 -25h-22q-1 10 -1.5 25t-1 32.5t-1 34t-0.5 29.5h-2z" glyph-name="udieresis" horiz-adv-x="572"/>
<glyph unicode="ý" d="M213 564h-19l103 144h27zM176 -152q-16 -43 -42.5 -66.5t-68.5 -23.5q-9 0 -21 2t-20 5l6 19q6 -2 16.5 -4t20.5 -2q21 0 36.5 8t26.5 20.5t18.5 28.5t13.5 32l44 120l-182 473h24l169 -448l163 448h24z" glyph-name="yacute" horiz-adv-x="428"/>
<glyph unicode="þ" d="M542 229q0 45 -14.5 86t-41.5 72t-65.5 49.5t-86.5 18.5q-46 0 -84.5 -18t-66.5 -48.5t-44 -71.5t-16 -87t16 -87t44 -71.5t66.5 -48.5t84.5 -18q48 0 86.5 18t65.5 48.5t41.5 71.5t14.5 86zM127 335q30 69 85.5 104t121.5 35q51 0 93.5 -18.5t73 -51t47 -77.5t16.5 -98 q0 -52 -17 -96.5t-47.5 -77t-73 -51t-92.5 -18.5q-33 0 -64.5 9t-58.5 26.5t-49 43t-35 59.5h-3v-364h-22v996h22v-421h3z" glyph-name="thorn" horiz-adv-x="626"/>
<glyph unicode="ÿ" d="M294 633q-9 0 -16 7t-7 19q0 11 7 18t16 7t16 -7t7 -18q0 -12 -7.5 -19t-15.5 -7zM140 633q-9 0 -16 7t-7 19q0 11 7 18t16 7t16 -7t7 -18q0 -12 -7.5 -19t-15.5 -7zM176 -152q-16 -43 -42.5 -66.5t-68.5 -23.5q-9 0 -21 2t-20 5l6 19q6 -2 16.5 -4t20.5 -2q21 0 36.5 8 t26.5 20.5t18.5 28.5t13.5 32l44 120l-182 473h24l169 -448l163 448h24z" glyph-name="ydieresis" horiz-adv-x="428"/>
<glyph unicode="Ā" glyph-name="Amacron" d="M222 821v20h232v-20h-232zM338 694l-201 -472h396zM624 0l-84 203h-411l-87 -203h-24l307 708h28l295 -708h-24z"/>
<glyph unicode="ā" d="M146 621v20h232v-20h-232zM396 251h-71q-38 0 -80 -4.5t-77 -18.5t-57.5 -40t-22.5 -70q0 -32 12.5 -53.5t32 -34.5t43 -19t44.5 -6q51 0 85 19t54.5 48.5t28.5 65t8 69.5v44zM418 104q0 -26 2.5 -55.5t5.5 -48.5h-21q-2 10 -3 24.5t-2.5 30t-2 30.5t-0.5 25h-3 q-20 -63 -69 -93.5t-105 -30.5q-28 0 -55.5 8t-49.5 24t-35.5 41t-13.5 59q0 49 25.5 79t63.5 46.5t81.5 21.5t79.5 5h80v37q0 77 -41 112.5t-107 35.5q-41 0 -76.5 -15t-63.5 -40l-12 17q32 28 72.5 42.5t79.5 14.5q79 0 124.5 -40.5t45.5 -127.5v-202z" glyph-name="amacron" horiz-adv-x="512"/>
<glyph unicode="Ă" glyph-name="Abreve" d="M464 898q-10 -61 -43.5 -93.5t-83.5 -32.5q-49 0 -82.5 32.5t-41.5 93.5h19q10 -52 38 -79t67 -27q45 0 71 25t38 81h18zM338 694l-201 -472h396zM624 0l-84 203h-411l-87 -203h-24l307 708h28l295 -708h-24z"/>
<glyph unicode="ă" d="M388 698q-10 -61 -43.5 -93.5t-83.5 -32.5q-49 0 -82.5 32.5t-41.5 93.5h19q10 -52 38 -79t67 -27q45 0 71 25t38 81h18zM396 251h-71q-38 0 -80 -4.5t-77 -18.5t-57.5 -40t-22.5 -70q0 -32 12.5 -53.5t32 -34.5t43 -19t44.5 -6q51 0 85 19t54.5 48.5t28.5 65t8 69.5v44z M418 104q0 -26 2.5 -55.5t5.5 -48.5h-21q-2 10 -3 24.5t-2.5 30t-2 30.5t-0.5 25h-3q-20 -63 -69 -93.5t-105 -30.5q-28 0 -55.5 8t-49.5 24t-35.5 41t-13.5 59q0 49 25.5 79t63.5 46.5t81.5 21.5t79.5 5h80v37q0 77 -41 112.5t-107 35.5q-41 0 -76.5 -15t-63.5 -40l-12 17 q32 28 72.5 42.5t79.5 14.5q79 0 124.5 -40.5t45.5 -127.5v-202z" glyph-name="abreve" horiz-adv-x="512"/>
<glyph unicode="Ą" glyph-name="Aogonek" d="M338 694l-201 -472h396zM699 -192q-16 -14 -37.5 -22.5t-44.5 -8.5q-35 0 -59.5 21t-24.5 59q0 39 28 73.5t64 69.5h-1l-84 203h-411l-87 -203h-24l307 708h28l295 -708q-46 -46 -69.5 -76.5t-23.5 -64.5q0 -30 18 -47t47 -17q20 0 38.5 8t30.5 21z"/>
<glyph unicode="ą" d="M396 251h-71q-38 0 -80 -4.5t-77 -18.5t-57.5 -40t-22.5 -70q0 -32 12.5 -53.5t32 -34.5t43 -19t44.5 -6q51 0 85 19t54.5 48.5t28.5 65t8 69.5v44zM478 -192q-16 -14 -37.5 -22.5t-44.5 -8.5q-35 0 -59.5 21t-24.5 59q0 39 28 73.5t64 69.5h1q-2 10 -3 24.5t-2.5 30 t-2 30.5t-0.5 25h-3q-20 -63 -69 -93.5t-105 -30.5q-28 0 -55.5 8t-49.5 24t-35.5 41t-13.5 59q0 49 25.5 79t63.5 46.5t81.5 21.5t79.5 5h80v37q0 77 -41 112.5t-107 35.5q-41 0 -76.5 -15t-63.5 -40l-12 17q32 28 72.5 42.5t79.5 14.5q79 0 124.5 -40.5t45.5 -127.5v-202 q0 -26 2.5 -55.5t5.5 -48.5h1q-46 -46 -69.5 -76.5t-23.5 -64.5q0 -30 18 -47t47 -17q20 0 38.5 8t30.5 21z" glyph-name="aogonek" horiz-adv-x="512"/>
<glyph unicode="Ć" d="M411 764h-19l103 144h27zM686 87q-45 -54 -113.5 -80.5t-139.5 -26.5q-80 0 -146 28t-114 77.5t-74.5 118.5t-26.5 150t26.5 150t74.5 118.5t114.5 77.5t145.5 28q66 0 128.5 -22.5t106.5 -68.5l-14 -16q-21 22 -47.5 38.5t-56 27.5t-59.5 16t-58 5q-76 0 -138.5 -27.5 t-107 -75.5t-69 -112.5t-24.5 -138.5t24 -138.5t68.5 -112.5t107 -75.5t139.5 -27.5q66 0 130.5 25.5t106.5 76.5z" glyph-name="Cacute" horiz-adv-x="724"/>
<glyph unicode="ć" d="M285 564h-19l103 144h27zM430 398q-26 27 -61 42t-73 15q-49 0 -88 -18.5t-66.5 -49.5t-42.5 -72t-15 -86t15 -86t42.5 -71.5t66.5 -48.5t88 -18q38 0 74.5 13t63.5 39l15 -14q-30 -30 -70.5 -43.5t-82.5 -13.5q-51 0 -93.5 18t-74 50t-49 77t-17.5 98t17.5 98t49 77.5 t74 51t93.5 18.5q44 0 83.5 -16t67.5 -45z" glyph-name="cacute" horiz-adv-x="480"/>
<glyph unicode="Ĉ" d="M447 908l103 -144h-23l-94 132l-94 -132h-23l103 144h28zM686 87q-45 -54 -113.5 -80.5t-139.5 -26.5q-80 0 -146 28t-114 77.5t-74.5 118.5t-26.5 150t26.5 150t74.5 118.5t114.5 77.5t145.5 28q66 0 128.5 -22.5t106.5 -68.5l-14 -16q-21 22 -47.5 38.5t-56 27.5 t-59.5 16t-58 5q-76 0 -138.5 -27.5t-107 -75.5t-69 -112.5t-24.5 -138.5t24 -138.5t68.5 -112.5t107 -75.5t139.5 -27.5q66 0 130.5 25.5t106.5 76.5z" glyph-name="Ccircumflex" horiz-adv-x="724"/>
<glyph unicode="ĉ" d="M310 708l103 -144h-23l-94 132l-94 -132h-23l103 144h28zM430 398q-26 27 -61 42t-73 15q-49 0 -88 -18.5t-66.5 -49.5t-42.5 -72t-15 -86t15 -86t42.5 -71.5t66.5 -48.5t88 -18q38 0 74.5 13t63.5 39l15 -14q-30 -30 -70.5 -43.5t-82.5 -13.5q-51 0 -93.5 18t-74 50 t-49 77t-17.5 98t17.5 98t49 77.5t74 51t93.5 18.5q44 0 83.5 -16t67.5 -45z" glyph-name="ccircumflex" horiz-adv-x="480"/>
<glyph unicode="Ċ" d="M432 833q-9 0 -16 7t-7 19q0 11 7 18t16 7t16 -7t7 -18q0 -12 -7.5 -19t-15.5 -7zM686 87q-45 -54 -113.5 -80.5t-139.5 -26.5q-80 0 -146 28t-114 77.5t-74.5 118.5t-26.5 150t26.5 150t74.5 118.5t114.5 77.5t145.5 28q66 0 128.5 -22.5t106.5 -68.5l-14 -16 q-21 22 -47.5 38.5t-56 27.5t-59.5 16t-58 5q-76 0 -138.5 -27.5t-107 -75.5t-69 -112.5t-24.5 -138.5t24 -138.5t68.5 -112.5t107 -75.5t139.5 -27.5q66 0 130.5 25.5t106.5 76.5z" glyph-name="Cdotaccent" horiz-adv-x="724"/>
<glyph unicode="ċ" d="M293 633q-9 0 -16 7t-7 19q0 11 7 18t16 7t16 -7t7 -18q0 -12 -7.5 -19t-15.5 -7zM430 398q-26 27 -61 42t-73 15q-49 0 -88 -18.5t-66.5 -49.5t-42.5 -72t-15 -86t15 -86t42.5 -71.5t66.5 -48.5t88 -18q38 0 74.5 13t63.5 39l15 -14q-30 -30 -70.5 -43.5t-82.5 -13.5 q-51 0 -93.5 18t-74 50t-49 77t-17.5 98t17.5 98t49 77.5t74 51t93.5 18.5q44 0 83.5 -16t67.5 -45z" glyph-name="cdotaccent" horiz-adv-x="480"/>
<glyph unicode="Č" d="M419 764l-103 144h23l94 -132l94 132h23l-103 -144h-28zM686 87q-45 -54 -113.5 -80.5t-139.5 -26.5q-80 0 -146 28t-114 77.5t-74.5 118.5t-26.5 150t26.5 150t74.5 118.5t114.5 77.5t145.5 28q66 0 128.5 -22.5t106.5 -68.5l-14 -16q-21 22 -47.5 38.5t-56 27.5 t-59.5 16t-58 5q-76 0 -138.5 -27.5t-107 -75.5t-69 -112.5t-24.5 -138.5t24 -138.5t68.5 -112.5t107 -75.5t139.5 -27.5q66 0 130.5 25.5t106.5 76.5z" glyph-name="Ccaron" horiz-adv-x="724"/>
<glyph unicode="č" d="M278 564l-103 144h23l94 -132l94 132h23l-103 -144h-28zM430 398q-26 27 -61 42t-73 15q-49 0 -88 -18.5t-66.5 -49.5t-42.5 -72t-15 -86t15 -86t42.5 -71.5t66.5 -48.5t88 -18q38 0 74.5 13t63.5 39l15 -14q-30 -30 -70.5 -43.5t-82.5 -13.5q-51 0 -93.5 18t-74 50 t-49 77t-17.5 98t17.5 98t49 77.5t74 51t93.5 18.5q44 0 83.5 -16t67.5 -45z" glyph-name="ccaron" horiz-adv-x="480"/>
<glyph unicode="Ď" d="M341 764l-103 144h23l94 -132l94 132h23l-103 -144h-28zM129 688v-668h173q78 0 146.5 19.5t118.5 60t79 103.5t29 151t-29 151.5t-79 104t-118.5 59.5t-146.5 19h-173zM698 354q0 -92 -30 -158.5t-83 -110t-124.5 -64.5t-153.5 -21h-201v708h201q82 0 153.5 -20.5 t124.5 -64t83 -110.5t30 -159z" glyph-name="Dcaron" horiz-adv-x="770"/>
<glyph unicode="ď" d="M603 523h-17l51 185h24zM84 229q0 -45 14.5 -86t41.5 -71.5t65.5 -48.5t86.5 -18q46 0 84.5 18t66.5 48.5t44 71.5t16 87t-16 87t-44 71.5t-66.5 48.5t-84.5 18q-48 0 -86.5 -18.5t-65.5 -49.5t-41.5 -72t-14.5 -86zM502 756h22v-756h-22v124h-3q-30 -68 -85.5 -103 t-121.5 -35q-50 0 -92.5 18.5t-73 51t-47.5 77t-17 96.5t17 97t47.5 78t73 51.5t92.5 18.5q66 0 121.5 -35t85.5 -104h3v421z" glyph-name="dcaron" horiz-adv-x="626"/>
<glyph unicode="Đ" d="M397 378v-20h-268v-338h173q78 0 146.5 19.5t118.5 60t79 103.5t29 151t-29 151.5t-79 104t-118.5 59.5t-146.5 19h-173v-310h268zM26 358v20h80v330h201q82 0 153.5 -20.5t124.5 -64t83 -110.5t30 -159t-30 -158.5t-83 -110t-124.5 -64.5t-153.5 -21h-201v358h-80z" glyph-name="Dcroat" horiz-adv-x="770"/>
<glyph unicode="đ" d="M84 229q0 -45 14.5 -86t41.5 -71.5t65.5 -48.5t86.5 -18q46 0 84.5 18t66.5 48.5t44 71.5t16 87t-16 87t-44 71.5t-66.5 48.5t-84.5 18q-48 0 -86.5 -18.5t-65.5 -49.5t-41.5 -72t-14.5 -86zM524 570v-570h-22v124h-3q-30 -68 -85.5 -103t-121.5 -35q-50 0 -92.5 18.5 t-73 51t-47.5 77t-17 96.5t17 97t47.5 78t73 51.5t92.5 18.5q66 0 121.5 -35t85.5 -104h3v235h-213v18h213v168h22v-168h70v-18h-70z" glyph-name="dcroat" horiz-adv-x="626"/>
<glyph unicode="Ē" d="M199 821v20h232v-20h-232zM106 0v708h412v-20h-391v-311h368v-20h-368v-337h407v-20h-428z" glyph-name="Emacron" horiz-adv-x="590"/>
<glyph unicode="ē" d="M170 621v20h232v-20h-232zM473 254q-1 45 -15.5 82t-39.5 63.5t-60 41t-78 14.5q-52 0 -89 -21.5t-60.5 -53t-34.5 -66t-11 -60.5h388zM84 235q0 -42 12.5 -83t38 -73.5t64.5 -52.5t92 -20q54 0 96 21.5t73 62.5l16 -14q-34 -44 -79.5 -67t-105.5 -23q-51 0 -93 18.5 t-72.5 51.5t-47 79t-16.5 100q0 52 17 96t46.5 76t69.5 49.5t86 17.5q54 0 94 -19t66.5 -50t39.5 -70.5t13 -80.5v-19h-410z" glyph-name="emacron" horiz-adv-x="556"/>
<glyph unicode="Ĕ" d="M441 898q-10 -61 -43.5 -93.5t-83.5 -32.5q-49 0 -82.5 32.5t-41.5 93.5h19q10 -52 38 -79t67 -27q45 0 71 25t38 81h18zM106 0v708h412v-20h-391v-311h368v-20h-368v-337h407v-20h-428z" glyph-name="Ebreve" horiz-adv-x="590"/>
<glyph unicode="ĕ" d="M414 698q-10 -61 -43.5 -93.5t-83.5 -32.5q-49 0 -82.5 32.5t-41.5 93.5h19q10 -52 38 -79t67 -27q45 0 71 25t38 81h18zM473 254q-1 45 -15.5 82t-39.5 63.5t-60 41t-78 14.5q-52 0 -89 -21.5t-60.5 -53t-34.5 -66t-11 -60.5h388zM84 235q0 -42 12.5 -83t38 -73.5 t64.5 -52.5t92 -20q54 0 96 21.5t73 62.5l16 -14q-34 -44 -79.5 -67t-105.5 -23q-51 0 -93 18.5t-72.5 51.5t-47 79t-16.5 100q0 52 17 96t46.5 76t69.5 49.5t86 17.5q54 0 94 -19t66.5 -50t39.5 -70.5t13 -80.5v-19h-410z" glyph-name="ebreve" horiz-adv-x="556"/>
<glyph unicode="Ė" d="M315 833q-9 0 -16 7t-7 19q0 11 7 18t16 7t16 -7t7 -18q0 -12 -7.5 -19t-15.5 -7zM106 0v708h412v-20h-391v-311h368v-20h-368v-337h407v-20h-428z" glyph-name="Edotaccent" horiz-adv-x="590"/>
<glyph unicode="ė" d="M286 633q-9 0 -16 7t-7 19q0 11 7 18t16 7t16 -7t7 -18q0 -12 -7.5 -19t-15.5 -7zM473 254q-1 45 -15.5 82t-39.5 63.5t-60 41t-78 14.5q-52 0 -89 -21.5t-60.5 -53t-34.5 -66t-11 -60.5h388zM84 235q0 -42 12.5 -83t38 -73.5t64.5 -52.5t92 -20q54 0 96 21.5t73 62.5 l16 -14q-34 -44 -79.5 -67t-105.5 -23q-51 0 -93 18.5t-72.5 51.5t-47 79t-16.5 100q0 52 17 96t46.5 76t69.5 49.5t86 17.5q54 0 94 -19t66.5 -50t39.5 -70.5t13 -80.5v-19h-410z" glyph-name="edotaccent" horiz-adv-x="556"/>
<glyph unicode="Ę" d="M571 -192q-16 -14 -37.5 -22.5t-44.5 -8.5q-35 0 -59.5 21t-24.5 59q0 39 28 73.5t64 69.5h-391v708h412v-20h-391v-311h368v-20h-368v-337h407v-20h-14q-46 -46 -69.5 -76.5t-23.5 -64.5q0 -30 18 -47t47 -17q20 0 38.5 8t30.5 21z" glyph-name="Eogonek" horiz-adv-x="590"/>
<glyph unicode="ę" d="M473 254q-1 45 -15.5 82t-39.5 63.5t-60 41t-78 14.5q-52 0 -89 -21.5t-60.5 -53t-34.5 -66t-11 -60.5h388zM402 -192q-16 -14 -37.5 -22.5t-44.5 -8.5q-35 0 -59.5 21t-24.5 59q0 35 23 67t55 63q-5 0 -11 -0.5t-12 -0.5q-51 0 -93 18.5t-72.5 51.5t-47 79t-16.5 100 q0 52 17 96t46.5 76t69.5 49.5t86 17.5q54 0 94 -19t66.5 -50t39.5 -70.5t13 -80.5v-19h-410q0 -42 12.5 -83t38 -73.5t64.5 -52.5t92 -20q54 0 96 21.5t73 62.5l16 -14q-54 -69 -134 -85q-41 -41 -62.5 -70.5t-21.5 -61.5q0 -30 18 -47t47 -17q20 0 38.5 8t30.5 21z" glyph-name="eogonek" horiz-adv-x="556"/>
<glyph unicode="Ě" d="M301 764l-103 144h23l94 -132l94 132h23l-103 -144h-28zM106 0v708h412v-20h-391v-311h368v-20h-368v-337h407v-20h-428z" glyph-name="Ecaron" horiz-adv-x="590"/>
<glyph unicode="ě" d="M271 564l-103 144h23l94 -132l94 132h23l-103 -144h-28zM473 254q-1 45 -15.5 82t-39.5 63.5t-60 41t-78 14.5q-52 0 -89 -21.5t-60.5 -53t-34.5 -66t-11 -60.5h388zM84 235q0 -42 12.5 -83t38 -73.5t64.5 -52.5t92 -20q54 0 96 21.5t73 62.5l16 -14q-34 -44 -79.5 -67 t-105.5 -23q-51 0 -93 18.5t-72.5 51.5t-47 79t-16.5 100q0 52 17 96t46.5 76t69.5 49.5t86 17.5q54 0 94 -19t66.5 -50t39.5 -70.5t13 -80.5v-19h-410z" glyph-name="ecaron" horiz-adv-x="556"/>
<glyph unicode="Ĝ" d="M449 908l103 -144h-23l-94 132l-94 -132h-23l103 144h28zM699 41q-42 -23 -106 -42t-148 -19t-153 29t-118 79.5t-75.5 119t-26.5 148.5t27 148.5t75.5 118t116.5 77.5t150 28q72 0 132 -22t106 -60l-16 -16q-20 19 -46.5 33.5t-56 24.5t-60.5 15t-60 5q-78 0 -142 -27.5 t-109.5 -75.5t-70 -112t-24.5 -137t24 -138t69.5 -113.5t111 -76.5t148.5 -28q72 0 128 15t103 38v278h-184v19h205v-309z" glyph-name="Gcircumflex" horiz-adv-x="795"/>
<glyph unicode="ĝ" d="M321 708l103 -144h-23l-94 132l-94 -132h-23l103 144h28zM84 229q0 -45 14.5 -86t41.5 -72t65.5 -49t86.5 -18q46 0 84.5 18t66.5 49t44 72t16 87t-16 87t-44 71.5t-66.5 48.5t-84.5 18q-48 0 -86.5 -18.5t-65.5 -49.5t-41.5 -72t-14.5 -86zM502 124h-3 q-13 -34 -35 -59.5t-49 -43t-58.5 -26.5t-64.5 -9q-50 0 -92.5 18.5t-73 51t-47.5 77t-17 96.5t17 97t47.5 78t73 51.5t92.5 18.5q66 0 121.5 -35t85.5 -104h3v125h22v-434q0 -55 -11.5 -105t-38 -88t-70 -60.5t-107.5 -22.5q-65 0 -116 22.5t-87 63.5l15 15 q38 -43 86.5 -62.5t101.5 -19.5q60 0 100 22t63 58t32.5 82.5t9.5 96.5v96z" glyph-name="gcircumflex" horiz-adv-x="626"/>
<glyph unicode="Ğ" d="M563 898q-10 -61 -43.5 -93.5t-83.5 -32.5q-49 0 -82.5 32.5t-41.5 93.5h19q10 -52 38 -79t67 -27q45 0 71 25t38 81h18zM699 41q-42 -23 -106 -42t-148 -19t-153 29t-118 79.5t-75.5 119t-26.5 148.5t27 148.5t75.5 118t116.5 77.5t150 28q72 0 132 -22t106 -60l-16 -16 q-20 19 -46.5 33.5t-56 24.5t-60.5 15t-60 5q-78 0 -142 -27.5t-109.5 -75.5t-70 -112t-24.5 -137t24 -138t69.5 -113.5t111 -76.5t148.5 -28q72 0 128 15t103 38v278h-184v19h205v-309z" glyph-name="Gbreve" horiz-adv-x="795"/>
<glyph unicode="ğ" d="M431 698q-10 -61 -43.5 -93.5t-83.5 -32.5q-49 0 -82.5 32.5t-41.5 93.5h19q10 -52 38 -79t67 -27q45 0 71 25t38 81h18zM84 229q0 -45 14.5 -86t41.5 -72t65.5 -49t86.5 -18q46 0 84.5 18t66.5 49t44 72t16 87t-16 87t-44 71.5t-66.5 48.5t-84.5 18q-48 0 -86.5 -18.5 t-65.5 -49.5t-41.5 -72t-14.5 -86zM502 124h-3q-13 -34 -35 -59.5t-49 -43t-58.5 -26.5t-64.5 -9q-50 0 -92.5 18.5t-73 51t-47.5 77t-17 96.5t17 97t47.5 78t73 51.5t92.5 18.5q66 0 121.5 -35t85.5 -104h3v125h22v-434q0 -55 -11.5 -105t-38 -88t-70 -60.5t-107.5 -22.5 q-65 0 -116 22.5t-87 63.5l15 15q38 -43 86.5 -62.5t101.5 -19.5q60 0 100 22t63 58t32.5 82.5t9.5 96.5v96z" glyph-name="gbreve" horiz-adv-x="626"/>
<glyph unicode="Ġ" d="M434 833q-9 0 -16 7t-7 19q0 11 7 18t16 7t16 -7t7 -18q0 -12 -7.5 -19t-15.5 -7zM699 41q-42 -23 -106 -42t-148 -19t-153 29t-118 79.5t-75.5 119t-26.5 148.5t27 148.5t75.5 118t116.5 77.5t150 28q72 0 132 -22t106 -60l-16 -16q-20 19 -46.5 33.5t-56 24.5t-60.5 15 t-60 5q-78 0 -142 -27.5t-109.5 -75.5t-70 -112t-24.5 -137t24 -138t69.5 -113.5t111 -76.5t148.5 -28q72 0 128 15t103 38v278h-184v19h205v-309z" glyph-name="Gdotaccent" horiz-adv-x="795"/>
<glyph unicode="ġ" d="M304 633q-9 0 -16 7t-7 19q0 11 7 18t16 7t16 -7t7 -18q0 -12 -7.5 -19t-15.5 -7zM84 229q0 -45 14.5 -86t41.5 -72t65.5 -49t86.5 -18q46 0 84.5 18t66.5 49t44 72t16 87t-16 87t-44 71.5t-66.5 48.5t-84.5 18q-48 0 -86.5 -18.5t-65.5 -49.5t-41.5 -72t-14.5 -86z M502 124h-3q-13 -34 -35 -59.5t-49 -43t-58.5 -26.5t-64.5 -9q-50 0 -92.5 18.5t-73 51t-47.5 77t-17 96.5t17 97t47.5 78t73 51.5t92.5 18.5q66 0 121.5 -35t85.5 -104h3v125h22v-434q0 -55 -11.5 -105t-38 -88t-70 -60.5t-107.5 -22.5q-65 0 -116 22.5t-87 63.5l15 15 q38 -43 86.5 -62.5t101.5 -19.5q60 0 100 22t63 58t32.5 82.5t9.5 96.5v96z" glyph-name="gdotaccent" horiz-adv-x="626"/>
<glyph unicode="Ģ" d="M403 -230h-17l51 185h24zM699 41q-42 -23 -106 -42t-148 -19t-153 29t-118 79.5t-75.5 119t-26.5 148.5t27 148.5t75.5 118t116.5 77.5t150 28q72 0 132 -22t106 -60l-16 -16q-20 19 -46.5 33.5t-56 24.5t-60.5 15t-60 5q-78 0 -142 -27.5t-109.5 -75.5t-70 -112 t-24.5 -137t24 -138t69.5 -113.5t111 -76.5t148.5 -28q72 0 128 15t103 38v278h-184v19h205v-309z" glyph-name="Gcommaaccent" horiz-adv-x="795"/>
<glyph unicode="ģ" d="M335 749h17l-51 -185h-24zM84 229q0 -45 14.5 -86t41.5 -72t65.5 -49t86.5 -18q46 0 84.5 18t66.5 49t44 72t16 87t-16 87t-44 71.5t-66.5 48.5t-84.5 18q-48 0 -86.5 -18.5t-65.5 -49.5t-41.5 -72t-14.5 -86zM502 124h-3q-13 -34 -35 -59.5t-49 -43t-58.5 -26.5 t-64.5 -9q-50 0 -92.5 18.5t-73 51t-47.5 77t-17 96.5t17 97t47.5 78t73 51.5t92.5 18.5q66 0 121.5 -35t85.5 -104h3v125h22v-434q0 -55 -11.5 -105t-38 -88t-70 -60.5t-107.5 -22.5q-65 0 -116 22.5t-87 63.5l15 15q38 -43 86.5 -62.5t101.5 -19.5q60 0 100 22t63 58 t32.5 82.5t9.5 96.5v96z" glyph-name="gcommaaccent" horiz-adv-x="626"/>
<glyph unicode="Ĥ" d="M381 908l103 -144h-23l-94 132l-94 -132h-23l103 144h28zM604 0v356h-476v-356h-22v708h22v-332h476v332h22v-708h-22z" glyph-name="Hcircumflex" horiz-adv-x="732"/>
<glyph unicode="ĥ" d="M298 940l103 -144h-23l-94 132l-94 -132h-23l103 144h28zM126 339q10 32 28.5 57t42.5 42.5t52 26.5t58 9q48 0 80 -17t51 -45t27 -63t8 -71v-278h-22v276q0 28 -6 60t-22.5 58t-44.5 43.5t-71 17.5q-38 0 -71.5 -15.5t-58 -44.5t-39 -70.5t-14.5 -94.5v-230h-22v756h22 v-417h2z" glyph-name="hcircumflex" horiz-adv-x="569"/>
<glyph unicode="Ħ" d="M604 376v124h-476v-124h476zM604 0v356h-476v-356h-22v708h22v-190h476v190h22v-708h-22z" glyph-name="Hbar" horiz-adv-x="732"/>
<glyph unicode="ħ" d="M126 339q10 32 28.5 57t42.5 42.5t52 26.5t58 9q48 0 80 -17t51 -45t27 -63t8 -71v-278h-22v276q0 28 -6 60t-22.5 58t-44.5 43.5t-71 17.5q-38 0 -71.5 -15.5t-58 -44.5t-39 -70.5t-14.5 -94.5v-230h-22v570h-72v18h72v168h22v-168h211v-18h-211v-231h2z" glyph-name="hbar" horiz-adv-x="569"/>
<glyph unicode="Ĩ" d="M121 838q13 -8 22 -13t15.5 -7.5t11 -3t10.5 -0.5q33 0 40 48h16q-4 -36 -20 -51.5t-36 -15.5q-16 0 -28.5 5t-35.5 19q-26 16 -37 20t-22 4q-32 0 -40 -51h-16q4 36 20 53t36 17q16 0 29 -5t35 -19zM106 0v708h22v-708h-22z" glyph-name="Itilde" horiz-adv-x="234"/>
<glyph unicode="ĩ" d="M117 638q13 -8 22 -13t15.5 -7.5t11 -3t10.5 -0.5q33 0 40 48h16q-4 -36 -20 -51.5t-36 -15.5q-16 0 -28.5 5t-35.5 19q-26 16 -37 20t-22 4q-32 0 -40 -51h-16q4 36 20 53t36 17q16 0 29 -5t35 -19zM102 0v460h22v-460h-22z" glyph-name="itilde" horiz-adv-x="226"/>
<glyph unicode="Ī" d="M2 821v20h232v-20h-232zM106 0v708h22v-708h-22z" glyph-name="Imacron" horiz-adv-x="234"/>
<glyph unicode="ī" d="M-2 621v20h232v-20h-232zM102 0v460h22v-460h-22z" glyph-name="imacron" horiz-adv-x="226"/>
<glyph unicode="Ĭ" d="M106 0v708h22v-708h-22zM243 909q-10 -61 -43.5 -93.5t-83.5 -32.5q-49 0 -82.5 32.5t-41.5 93.5h19q10 -52 38 -79t67 -27q45 0 71 25t38 81h18v0z" glyph-name="Ibreve" horiz-adv-x="234"/>
<glyph unicode="ĭ" d="M102 0v460h22v-460h-22zM239 661q-10 -61 -43.5 -93.5t-83.5 -32.5q-49 0 -82.5 32.5t-41.5 93.5h19q10 -52 38 -79t67 -27q45 0 71 25t38 81h18v0z" glyph-name="ibreve" horiz-adv-x="226"/>
<glyph unicode="Į" d="M179 -192q-16 -14 -37.5 -22.5t-44.5 -8.5q-35 0 -59.5 21t-24.5 59q0 39 28 73.5t64 69.5h1v708h22v-708q-46 -46 -69.5 -76.5t-23.5 -64.5q0 -30 18 -47t47 -17q20 0 38.5 8t30.5 21z" glyph-name="Iogonek" horiz-adv-x="234"/>
<glyph unicode="į" d="M113 633q-9 0 -16 7t-7 19q0 11 7 18t16 7t16 -7t7 -18q0 -12 -7.5 -19t-15.5 -7zM176 -192q-16 -14 -37.5 -22.5t-44.5 -8.5q-35 0 -59.5 21t-24.5 59q0 39 28 73.5t64 69.5v460h22v-460h1q-46 -46 -69.5 -76.5t-23.5 -64.5q0 -30 18 -47t47 -17q20 0 38.5 8t30.5 21z " glyph-name="iogonek" horiz-adv-x="226"/>
<glyph unicode="İ" d="M117 833q-9 0 -16 7t-7 19q0 11 7 18t16 7t16 -7t7 -18q0 -12 -7.5 -19t-15.5 -7zM106 0v708h22v-708h-22z" glyph-name="Idotaccent" horiz-adv-x="234"/>
<glyph unicode="ı" d="M102 0v460h22v-460h-22z" glyph-name="dotlessi" horiz-adv-x="226"/>
<glyph unicode="Ĵ" d="M379 908l103 -144h-23l-94 132l-94 -132h-23l103 144h28zM378 193q0 -98 -45.5 -154.5t-135.5 -56.5q-63 0 -107 32.5t-61 78.5l19 9q20 -45 59 -72.5t90 -27.5q43 0 73 14.5t49 40.5t28 61.5t9 77.5v512h22v-515z" glyph-name="Jcircumflex" horiz-adv-x="480"/>
<glyph unicode="ĵ" d="M125 708l103 -144h-23l-94 132l-94 -132h-23l103 144h28zM124 -97q0 -35 -4.5 -62t-17 -45t-34.5 -27.5t-56 -9.5q-7 0 -15 0.5t-14 2.5l4 19q13 -3 25 -3q32 0 50 11t27 28.5t11 39.5t2 44v559h22v-557z" glyph-name="jcircumflex" horiz-adv-x="226"/>
<glyph unicode="Ķ" d="M265 -230h-17l51 185h24zM129 383l356 325h32l-360 -325l378 -383h-31l-375 381h-1v-381h-22v708h22v-325h1z" glyph-name="Kcommaaccent" horiz-adv-x="565"/>
<glyph unicode="ķ" d="M208 -230h-17l51 185h24zM125 248l238 212h31l-243 -213l271 -247h-33l-264 243h-1v-243h-22v756h22v-508h1z" glyph-name="kcommaaccent" horiz-adv-x="445"/>
<glyph unicode="Ĺ" d="M125 764h-19l103 144h27zM106 0v708h22v-688h352v-20h-374z" glyph-name="Lacute" horiz-adv-x="498"/>
<glyph unicode="ĺ" d="M121 792h-19l103 144h27zM102 0v756h22v-756h-22z" glyph-name="lacute" horiz-adv-x="226"/>
<glyph unicode="Ļ" d="M250 -230h-17l51 185h24zM106 0v708h22v-688h352v-20h-374z" glyph-name="Lcommaaccent" horiz-adv-x="498"/>
<glyph unicode="ļ" d="M82 -231h-17l51 185h24zM102 0v756h22v-756h-22z" glyph-name="lcommaaccent" horiz-adv-x="226"/>
<glyph unicode="Ľ" d="M226 523h-17l51 185h24zM106 0v708h22v-688h352v-20h-374z" glyph-name="Lcaron" horiz-adv-x="498"/>
<glyph unicode="ľ" d="M196 523h-17l51 185h24zM102 0v756h22v-756h-22z" glyph-name="lcaron" horiz-adv-x="226"/>
<glyph unicode="Ŀ" d="M367 273q-9 0 -16 7t-7 19q0 11 7 18t16 7t16 -7t7 -18q0 -12 -7.5 -19t-15.5 -7zM106 0v708h22v-688h352v-20h-374z" glyph-name="Ldot" horiz-adv-x="498"/>
<glyph unicode="ŀ" d="M224 273q-9 0 -16 7t-7 19q0 11 7 18t16 7t16 -7t7 -18q0 -12 -7.5 -19t-15.5 -7zM102 0v756h22v-756h-22z" glyph-name="ldot" horiz-adv-x="226"/>
<glyph unicode="Ł" d="M41 198v27l65 60v423h22v-406l207 186v-24l-207 -189v-255h352v-20h-374v258z" glyph-name="Lslash" horiz-adv-x="498"/>
<glyph unicode="ł" d="M41 302v27l65 60v367h22v-350l73 63v-24l-73 -66v-379h-22v362z" glyph-name="lslash" horiz-adv-x="226"/>
<glyph unicode="Ń" d="M386 764h-19l103 144h27zM639 0l-508 680h-3v-680h-22v708h31l509 -679h3v679h22v-708h-32z" glyph-name="Nacute" horiz-adv-x="777"/>
<glyph unicode="ń" d="M284 564h-19l103 144h27zM128 339q10 32 29 57t43 42.5t52 26.5t58 9q48 0 80 -17t51 -45t27 -63t8 -71v-278h-22v276q0 28 -6 60t-22.5 58t-44.5 43.5t-71 17.5q-38 0 -71.5 -15.5t-58 -44.5t-39 -70.5t-14.5 -94.5v-230h-22v344q0 11 -0.5 27t-1 32.5t-1.5 31.5t-2 25 h22q1 -10 1.5 -25t1 -32.5t1 -34t0.5 -29.5h2z" glyph-name="nacute" horiz-adv-x="572"/>
<glyph unicode="Ņ" d="M344 -230h-17l51 185h24zM639 0l-508 680h-3v-680h-22v708h31l509 -679h3v679h22v-708h-32z" glyph-name="Ncommaaccent" horiz-adv-x="777"/>
<glyph unicode="ņ" d="M257 -230h-17l51 185h24zM128 339q10 32 29 57t43 42.5t52 26.5t58 9q48 0 80 -17t51 -45t27 -63t8 -71v-278h-22v276q0 28 -6 60t-22.5 58t-44.5 43.5t-71 17.5q-38 0 -71.5 -15.5t-58 -44.5t-39 -70.5t-14.5 -94.5v-230h-22v344q0 11 -0.5 27t-1 32.5t-1.5 31.5t-2 25 h22q1 -10 1.5 -25t1 -32.5t1 -34t0.5 -29.5h2z" glyph-name="ncommaaccent" horiz-adv-x="572"/>
<glyph unicode="Ň" d="M374 764l-103 144h23l94 -132l94 132h23l-103 -144h-28zM639 0l-508 680h-3v-680h-22v708h31l509 -679h3v679h22v-708h-32z" glyph-name="Ncaron" horiz-adv-x="777"/>
<glyph unicode="ň" d="M279 564l-103 144h23l94 -132l94 132h23l-103 -144h-28zM128 339q10 32 29 57t43 42.5t52 26.5t58 9q48 0 80 -17t51 -45t27 -63t8 -71v-278h-22v276q0 28 -6 60t-22.5 58t-44.5 43.5t-71 17.5q-38 0 -71.5 -15.5t-58 -44.5t-39 -70.5t-14.5 -94.5v-230h-22v344 q0 11 -0.5 27t-1 32.5t-1.5 31.5t-2 25h22q1 -10 1.5 -25t1 -32.5t1 -34t0.5 -29.5h2z" glyph-name="ncaron" horiz-adv-x="572"/>
<glyph unicode="Ō" d="M322 821v20h232v-20h-232zM778 354q0 74 -25 138.5t-70.5 112.5t-108.5 75.5t-138 27.5t-138 -27.5t-108.5 -75.5t-70.5 -112.5t-25 -138.5t24.5 -138.5t69.5 -112.5t108 -75.5t140 -27.5t140 27.5t108 75.5t69.5 112.5t24.5 138.5zM800 354q0 -82 -27.5 -150.5t-76 -118 t-115.5 -77.5t-145 -28t-145 28t-115.5 77.5t-76 118t-27.5 150.5t27.5 150.5t76 118t115 77.5t145.5 28t145.5 -28t115 -77.5t76 -118t27.5 -150.5z" glyph-name="Omacron" horiz-adv-x="872"/>
<glyph unicode="ō" d="M185 621v20h232v-20h-232zM521 231q0 46 -15 87t-43.5 71.5t-69 48t-91.5 17.5t-91 -17.5t-68.5 -48t-43.5 -71.5t-15 -87q0 -47 15 -88t43.5 -71.5t68.5 -48.5t91 -18t91.5 18t69 48.5t43.5 71.5t15 88zM543 231q0 -54 -17.5 -99t-49.5 -77.5t-76.5 -50.5t-97.5 -18 t-97 18t-76 50.5t-49.5 77.5t-17.5 99t17.5 98.5t49.5 76.5t76 50t97 18t97.5 -18t76.5 -50t49.5 -76.5t17.5 -98.5z" glyph-name="omacron" horiz-adv-x="605"/>
<glyph unicode="Ŏ" d="M561 898q-10 -61 -43.5 -93.5t-83.5 -32.5q-49 0 -82.5 32.5t-41.5 93.5h19q10 -52 38 -79t67 -27q45 0 71 25t38 81h18zM778 354q0 74 -25 138.5t-70.5 112.5t-108.5 75.5t-138 27.5t-138 -27.5t-108.5 -75.5t-70.5 -112.5t-25 -138.5t24.5 -138.5t69.5 -112.5 t108 -75.5t140 -27.5t140 27.5t108 75.5t69.5 112.5t24.5 138.5zM800 354q0 -82 -27.5 -150.5t-76 -118t-115.5 -77.5t-145 -28t-145 28t-115.5 77.5t-76 118t-27.5 150.5t27.5 150.5t76 118t115 77.5t145.5 28t145.5 -28t115 -77.5t76 -118t27.5 -150.5z" glyph-name="Obreve" horiz-adv-x="872"/>
<glyph unicode="ŏ" d="M428 698q-10 -61 -43.5 -93.5t-83.5 -32.5q-49 0 -82.5 32.5t-41.5 93.5h19q10 -52 38 -79t67 -27q45 0 71 25t38 81h18zM521 231q0 46 -15 87t-43.5 71.5t-69 48t-91.5 17.5t-91 -17.5t-68.5 -48t-43.5 -71.5t-15 -87q0 -47 15 -88t43.5 -71.5t68.5 -48.5t91 -18 t91.5 18t69 48.5t43.5 71.5t15 88zM543 231q0 -54 -17.5 -99t-49.5 -77.5t-76.5 -50.5t-97.5 -18t-97 18t-76 50.5t-49.5 77.5t-17.5 99t17.5 98.5t49.5 76.5t76 50t97 18t97.5 -18t76.5 -50t49.5 -76.5t17.5 -98.5z" glyph-name="obreve" horiz-adv-x="605"/>
<glyph unicode="Ő" d="M501 763h-19l103 145h27zM384 763h-19l103 145h27zM778 354q0 74 -25 138.5t-70.5 112.5t-108.5 75.5t-138 27.5t-138 -27.5t-108.5 -75.5t-70.5 -112.5t-25 -138.5t24.5 -138.5t69.5 -112.5t108 -75.5t140 -27.5t140 27.5t108 75.5t69.5 112.5t24.5 138.5zM800 354 q0 -82 -27.5 -150.5t-76 -118t-115.5 -77.5t-145 -28t-145 28t-115.5 77.5t-76 118t-27.5 150.5t27.5 150.5t76 118t115 77.5t145.5 28t145.5 -28t115 -77.5t76 -118t27.5 -150.5z" glyph-name="Ohungarumlaut" horiz-adv-x="872"/>
<glyph unicode="ő" d="M365 563h-19l103 145h27zM248 563h-19l103 145h27zM521 231q0 46 -15 87t-43.5 71.5t-69 48t-91.5 17.5t-91 -17.5t-68.5 -48t-43.5 -71.5t-15 -87q0 -47 15 -88t43.5 -71.5t68.5 -48.5t91 -18t91.5 18t69 48.5t43.5 71.5t15 88zM543 231q0 -54 -17.5 -99t-49.5 -77.5 t-76.5 -50.5t-97.5 -18t-97 18t-76 50.5t-49.5 77.5t-17.5 99t17.5 98.5t49.5 76.5t76 50t97 18t97.5 -18t76.5 -50t49.5 -76.5t17.5 -98.5z" glyph-name="ohungarumlaut" horiz-adv-x="605"/>
<glyph unicode="Œ" d="M463 0q-83 0 -154 20.5t-124 64t-83 110.5t-30 159t30 158.5t83 110t124 64.5t154 21h443v-20h-353v-311h331v-20h-331v-337h369v-20h-459zM468 688q-78 0 -146.5 -19.5t-118.5 -60t-79 -103.5t-29 -151t29 -151.5t79 -104t118.5 -59.5t146.5 -19h64v668h-64z" glyph-name="OE" horiz-adv-x="978"/>
<glyph unicode="œ" d="M520 231q0 46 -15 87t-43.5 71.5t-68.5 48t-91 17.5t-91 -17.5t-68.5 -48t-43.5 -71.5t-15 -87q0 -47 15 -88t43.5 -71.5t68.5 -48.5t91 -18t91 18t68.5 48.5t43.5 71.5t15 88zM929 254q-1 45 -15.5 82t-39.5 63.5t-60 41t-78 14.5q-52 0 -89 -21.5t-60 -53t-34 -66 t-11 -60.5h387zM530 316q22 72 77.5 115t129.5 43q54 0 94 -19t66.5 -50t39.5 -70.5t13 -80.5v-19h-409q0 -42 12.5 -83t38 -73.5t64 -52.5t91.5 -20q54 0 96 21.5t73 62.5l16 -14q-34 -44 -79.5 -67t-105.5 -23q-80 0 -137 44t-79 118q-23 -74 -83.5 -118t-145.5 -44 q-53 0 -97 18t-76 50.5t-49.5 77.5t-17.5 99t17.5 98.5t49.5 76.5t76 50t97 18q83 0 144 -43t84 -115z" glyph-name="oe" horiz-adv-x="1012"/>
<glyph unicode="Ŕ" d="M258 764h-19l103 144h27zM502 533q0 46 -18 76.5t-47.5 48t-68 24.5t-78.5 7h-162v-313h173q98 0 149.5 41t51.5 116zM508 0l-214 357h-166v-357h-22v708h196q39 0 79 -7t71.5 -26.5t51.5 -53.5t20 -88q0 -50 -19 -83t-49 -53.5t-66.5 -29.5t-71.5 -9l215 -358h-25z" glyph-name="Racute" horiz-adv-x="594"/>
<glyph unicode="ŕ" d="M144 564h-19l103 144h27zM128 339q20 72 64 103.5t95 31.5h9t9 -1v-19q-4 1 -7.5 1h-5.5q-44 0 -75 -19.5t-51 -51t-29.5 -70t-9.5 -76.5v-238h-22v344q0 11 -0.5 27t-1 32.5t-1.5 31.5t-2 25h22q1 -10 1.5 -25t1 -32.5t1 -34t0.5 -29.5h2z" glyph-name="racute" horiz-adv-x="317"/>
<glyph unicode="Ŗ" d="M264 -230h-17l51 185h24zM502 533q0 46 -18 76.5t-47.5 48t-68 24.5t-78.5 7h-162v-313h173q98 0 149.5 41t51.5 116zM508 0l-214 357h-166v-357h-22v708h196q39 0 79 -7t71.5 -26.5t51.5 -53.5t20 -88q0 -50 -19 -83t-49 -53.5t-66.5 -29.5t-71.5 -9l215 -358h-25z" glyph-name="Rcommaaccent" horiz-adv-x="594"/>
<glyph unicode="ŗ" d="M85 -231h-17l51 185h24zM128 339q20 72 64 103.5t95 31.5h9t9 -1v-19q-4 1 -7.5 1h-5.5q-44 0 -75 -19.5t-51 -51t-29.5 -70t-9.5 -76.5v-238h-22v344q0 11 -0.5 27t-1 32.5t-1.5 31.5t-2 25h22q1 -10 1.5 -25t1 -32.5t1 -34t0.5 -29.5h2z" glyph-name="rcommaaccent" horiz-adv-x="317"/>
<glyph unicode="Ř" d="M255 764l-103 144h23l94 -132l94 132h23l-103 -144h-28zM502 533q0 46 -18 76.5t-47.5 48t-68 24.5t-78.5 7h-162v-313h173q98 0 149.5 41t51.5 116zM508 0l-214 357h-166v-357h-22v708h196q39 0 79 -7t71.5 -26.5t51.5 -53.5t20 -88q0 -50 -19 -83t-49 -53.5 t-66.5 -29.5t-71.5 -9l215 -358h-25z" glyph-name="Rcaron" horiz-adv-x="594"/>
<glyph unicode="ř" d="M180 564l-103 144h23l94 -132l94 132h23l-103 -144h-28zM128 339q20 72 64 103.5t95 31.5h9t9 -1v-19q-4 1 -7.5 1h-5.5q-44 0 -75 -19.5t-51 -51t-29.5 -70t-9.5 -76.5v-238h-22v344q0 11 -0.5 27t-1 32.5t-1.5 31.5t-2 25h22q1 -10 1.5 -25t1 -32.5t1 -34t0.5 -29.5h2z " glyph-name="rcaron" horiz-adv-x="317"/>
<glyph unicode="Ś" d="M282 764h-19l103 144h27zM498 170q0 -45 -17.5 -80.5t-46.5 -60t-68.5 -37t-82.5 -12.5q-66 0 -120.5 23.5t-90.5 63.5l17 15q38 -41 88.5 -61.5t104.5 -20.5q39 0 74 11.5t62 33t42.5 53t15.5 72.5t-17 69t-44 48t-61.5 33.5t-69.5 24.5q-44 14 -80.5 29.5t-63 38 t-41 54t-14.5 76.5q0 44 17.5 78.5t47.5 58t69.5 36t83.5 12.5q54 0 102.5 -20.5t79.5 -58.5l-17 -15q-28 35 -71.5 54.5t-94.5 19.5q-36 0 -70.5 -10t-62.5 -30.5t-45 -51.5t-17 -73q0 -41 15 -69.5t40 -48.5t56.5 -33t64.5 -24q45 -15 84 -30.5t68.5 -37.5t46 -53.5 t16.5 -76.5z" glyph-name="Sacute" horiz-adv-x="570"/>
<glyph unicode="ś" d="M197 564h-19l103 144h27zM361 120q0 -31 -12 -55.5t-32.5 -41.5t-47.5 -26t-58 -9q-51 0 -92.5 19.5t-68.5 57.5l18 12q50 -70 144 -70q22 0 44.5 7t41 21t30 35t11.5 48q0 32 -14.5 52t-36.5 32t-48.5 19.5t-49.5 13.5q-25 7 -47 15.5t-38.5 22t-26 33.5t-9.5 50t12 52 t32 36.5t45.5 22t51.5 7.5q94 0 141 -67l-19 -11q-23 30 -52 44.5t-70 14.5q-19 0 -40 -5t-38.5 -16.5t-29 -30.5t-11.5 -46q0 -30 9.5 -48t26.5 -29t41 -18.5t53 -14.5q27 -7 52.5 -16.5t45 -23.5t31 -35t11.5 -52z" glyph-name="sacute" horiz-adv-x="415"/>
<glyph unicode="Ŝ" d="M316 908l103 -144h-23l-94 132l-94 -132h-23l103 144h28zM498 170q0 -45 -17.5 -80.5t-46.5 -60t-68.5 -37t-82.5 -12.5q-66 0 -120.5 23.5t-90.5 63.5l17 15q38 -41 88.5 -61.5t104.5 -20.5q39 0 74 11.5t62 33t42.5 53t15.5 72.5t-17 69t-44 48t-61.5 33.5t-69.5 24.5 q-44 14 -80.5 29.5t-63 38t-41 54t-14.5 76.5q0 44 17.5 78.5t47.5 58t69.5 36t83.5 12.5q54 0 102.5 -20.5t79.5 -58.5l-17 -15q-28 35 -71.5 54.5t-94.5 19.5q-36 0 -70.5 -10t-62.5 -30.5t-45 -51.5t-17 -73q0 -41 15 -69.5t40 -48.5t56.5 -33t64.5 -24q45 -15 84 -30.5 t68.5 -37.5t46 -53.5t16.5 -76.5z" glyph-name="Scircumflex" horiz-adv-x="570"/>
<glyph unicode="ŝ" d="M228 708l103 -144h-23l-94 132l-94 -132h-23l103 144h28zM361 120q0 -31 -12 -55.5t-32.5 -41.5t-47.5 -26t-58 -9q-51 0 -92.5 19.5t-68.5 57.5l18 12q50 -70 144 -70q22 0 44.5 7t41 21t30 35t11.5 48q0 32 -14.5 52t-36.5 32t-48.5 19.5t-49.5 13.5q-25 7 -47 15.5 t-38.5 22t-26 33.5t-9.5 50t12 52t32 36.5t45.5 22t51.5 7.5q94 0 141 -67l-19 -11q-23 30 -52 44.5t-70 14.5q-19 0 -40 -5t-38.5 -16.5t-29 -30.5t-11.5 -46q0 -30 9.5 -48t26.5 -29t41 -18.5t53 -14.5q27 -7 52.5 -16.5t45 -23.5t31 -35t11.5 -52z" glyph-name="scircumflex" horiz-adv-x="415"/>
<glyph unicode="Ş" d="M384 -146q0 -24 -11.5 -39.5t-28.5 -24.5t-36.5 -12.5t-35.5 -3.5q-19 0 -43.5 5t-46.5 15l5 17q19 -10 43.5 -14t42.5 -4q15 0 30.5 2.5t29 9t22 18.5t8.5 31q0 16 -7 26t-17.5 15.5t-23 7.5t-24.5 2q-14 0 -35.5 -4t-33.5 -11l-10 9l55 82q-61 3 -111 25.5t-84 60.5 l17 15q38 -41 88.5 -61.5t104.5 -20.5q39 0 74 11.5t62 33t42.5 53t15.5 72.5t-17 69t-44 48t-61.5 33.5t-69.5 24.5q-44 14 -80.5 29.5t-63 38t-41 54t-14.5 76.5q0 44 17.5 78.5t47.5 58t69.5 36t83.5 12.5q54 0 102.5 -20.5t79.5 -58.5l-17 -15q-28 35 -71.5 54.5 t-94.5 19.5q-36 0 -70.5 -10t-62.5 -30.5t-45 -51.5t-17 -73q0 -41 15 -69.5t40 -48.5t56.5 -33t64.5 -24q45 -15 84 -30.5t68.5 -37.5t46 -53.5t16.5 -76.5t-17 -80t-45.5 -59t-66.5 -37t-81 -14l-45 -66q14 5 27 6.5t27 1.5q15 0 30.5 -3.5t28 -11t20.5 -21t8 -32.5z" glyph-name="Scedilla" horiz-adv-x="570"/>
<glyph unicode="ş" d="M310 -146q0 -24 -11.5 -39.5t-28.5 -24.5t-36.5 -12.5t-35.5 -3.5q-19 0 -43.5 5t-46.5 15l5 17q19 -10 43.5 -14t42.5 -4q15 0 30.5 2.5t29 9t22 18.5t8.5 31q0 16 -7 26t-17.5 15.5t-23 7.5t-24.5 2q-14 0 -35.5 -4t-33.5 -11l-10 9l60 89q-47 2 -84.5 22t-63.5 55 l18 12q50 -70 144 -70q22 0 44.5 7t41 21t30 35t11.5 48q0 32 -14.5 52t-36.5 32t-48.5 19.5t-49.5 13.5q-25 7 -47 15.5t-38.5 22t-26 33.5t-9.5 50t12 52t32 36.5t45.5 22t51.5 7.5q94 0 141 -67l-19 -11q-23 30 -52 44.5t-70 14.5q-19 0 -40 -5t-38.5 -16.5t-29 -30.5 t-11.5 -46q0 -30 9.5 -48t26.5 -29t41 -18.5t53 -14.5q27 -7 52.5 -16.5t45 -23.5t31 -35t11.5 -52q0 -30 -11 -53.5t-30.5 -40.5t-45.5 -27t-55 -11l-50 -74q14 5 27 6.5t27 1.5q15 0 30.5 -3.5t28 -11t20.5 -21t8 -32.5z" glyph-name="scedilla" horiz-adv-x="415"/>
<glyph unicode="Š" d="M285 764l-103 144h23l94 -132l94 132h23l-103 -144h-28zM498 170q0 -45 -17.5 -80.5t-46.5 -60t-68.5 -37t-82.5 -12.5q-66 0 -120.5 23.5t-90.5 63.5l17 15q38 -41 88.5 -61.5t104.5 -20.5q39 0 74 11.5t62 33t42.5 53t15.5 72.5t-17 69t-44 48t-61.5 33.5t-69.5 24.5 q-44 14 -80.5 29.5t-63 38t-41 54t-14.5 76.5q0 44 17.5 78.5t47.5 58t69.5 36t83.5 12.5q54 0 102.5 -20.5t79.5 -58.5l-17 -15q-28 35 -71.5 54.5t-94.5 19.5q-36 0 -70.5 -10t-62.5 -30.5t-45 -51.5t-17 -73q0 -41 15 -69.5t40 -48.5t56.5 -33t64.5 -24q45 -15 84 -30.5 t68.5 -37.5t46 -53.5t16.5 -76.5z" glyph-name="Scaron" horiz-adv-x="570"/>
<glyph unicode="š" d="M200 564l-103 144h23l94 -132l94 132h23l-103 -144h-28zM361 120q0 -31 -12 -55.5t-32.5 -41.5t-47.5 -26t-58 -9q-51 0 -92.5 19.5t-68.5 57.5l18 12q50 -70 144 -70q22 0 44.5 7t41 21t30 35t11.5 48q0 32 -14.5 52t-36.5 32t-48.5 19.5t-49.5 13.5q-25 7 -47 15.5 t-38.5 22t-26 33.5t-9.5 50t12 52t32 36.5t45.5 22t51.5 7.5q94 0 141 -67l-19 -11q-23 30 -52 44.5t-70 14.5q-19 0 -40 -5t-38.5 -16.5t-29 -30.5t-11.5 -46q0 -30 9.5 -48t26.5 -29t41 -18.5t53 -14.5q27 -7 52.5 -16.5t45 -23.5t31 -35t11.5 -52z" glyph-name="scaron" horiz-adv-x="415"/>
<glyph unicode="Ţ" d="M362 -146q0 -24 -11.5 -39.5t-28.5 -24.5t-36.5 -12.5t-35.5 -3.5q-19 0 -43.5 5t-46.5 15l5 17q19 -10 43.5 -14t42.5 -4q15 0 30.5 2.5t29 9t22 18.5t8.5 31q0 16 -7 26t-17.5 15.5t-23 7.5t-24.5 2q-14 0 -35.5 -4t-33.5 -11l-10 9l69 101v688h-241v20h504v-20h-241 v-688h-1l-59 -86q14 5 27 6.5t27 1.5q15 0 30.5 -3.5t28 -11t20.5 -21t8 -32.5z" glyph-name="Tcommaaccent" horiz-adv-x="540"/>
<glyph unicode="ţ" d="M306 -146q0 -24 -12 -40t-28 -24t-36 -12t-36 -4q-20 0 -44 5t-46 15l5 17q19 -10 43 -14t43 -4q15 1 31 3t28 8q14 6 22 19q8 12 9 31q0 16 -7 26q-8 10 -18 16t-22 7q-12 2 -25 2t-35 -4t-34 -11l-10 9l62 91q9 -2 20 -2l-51 -74q14 4 27 6t27 2q15 0 31 -4t28 -10 q12 -8 20 -22t8 -32zM280 -1l-3 17q-23 -9 -51 -9q-38 1 -61 21t-23 67v346h135v19h-135v135h-23v-135h-99v-19h100v-346q0 -47 24 -77q18 -23 52 -28l7 10h21l-8 -12h5q15 0 31 3t28 8z" glyph-name="tcommaaccent" horiz-adv-x="304"/>
<glyph unicode="Ť" d="M256 764l-103 144h23l94 -132l94 132h23l-103 -144h-28zM281 688v-688h-22v688h-241v20h504v-20h-241z" glyph-name="Tcaron" horiz-adv-x="540"/>
<glyph unicode="ť" d="M247 546h-17l51 185h24zM280 -1q-12 -5 -28 -8t-31 -3q-54 0 -77.5 30.5t-23.5 76.5v346h-100v19h99v135h23v-135h135v-19h-135v-346q0 -47 23 -67.5t61 -20.5q28 0 51 9z" glyph-name="tcaron" horiz-adv-x="304"/>
<glyph unicode="Ŧ" d="M281 527v-527h-22v527h-199v18h199v143h-241v20h504v-20h-241v-143h199v-18h-199z" glyph-name="Tbar" horiz-adv-x="540"/>
<glyph unicode="ŧ" d="M142 259v-164q0 -47 23 -67.5t61 -20.5q28 0 51 9l3 -17q-12 -5 -28 -8t-31 -3q-54 0 -77.5 30.5t-23.5 76.5v164h-92v18h92v164h-100v19h99v135h23v-135h135v-19h-135v-164h120v-18h-120z" glyph-name="tbar" horiz-adv-x="304"/>
<glyph unicode="Ũ" d="M370 838q13 -8 22 -13t15.5 -7.5t11 -3t10.5 -0.5q33 0 40 48h16q-4 -36 -20 -51.5t-36 -15.5q-16 0 -28.5 5t-35.5 19q-26 16 -37 20t-22 4q-32 0 -40 -51h-16q4 36 20 53t36 17q16 0 29 -5t35 -19zM636 268q0 -60 -14 -112.5t-46 -91.5t-83.5 -61.5t-126.5 -22.5 t-126.5 22.5t-83.5 61.5t-46 91.5t-14 112.5v440h22v-436q0 -42 8.5 -89.5t35 -88t75 -67.5t129.5 -27q79 0 127.5 26t75.5 66.5t36 88t9 91.5v436h22v-440z" glyph-name="Utilde" horiz-adv-x="732"/>
<glyph unicode="ũ" d="M285 638q13 -8 22 -13t15.5 -7.5t11 -3t10.5 -0.5q33 0 40 48h16q-4 -36 -20 -51.5t-36 -15.5q-16 0 -28.5 5t-35.5 19q-26 16 -37 20t-22 4q-32 0 -40 -51h-16q4 36 20 53t36 17q16 0 29 -5t35 -19zM442 121q-11 -32 -29.5 -57.5t-42.5 -42.5t-52 -26t-58 -9 q-48 0 -80 17t-51 45t-27 63t-8 71v278h22v-276q0 -29 6 -60.5t22.5 -57.5t44 -43.5t71.5 -17.5q38 0 71.5 15.5t58 44.5t39 70.5t14.5 94.5v230h22v-344q0 -11 0.5 -27t1 -32.5t1.5 -31.5t2 -25h-22q-1 10 -1.5 25t-1 32.5t-1 34t-0.5 29.5h-2z" glyph-name="utilde" horiz-adv-x="572"/>
<glyph unicode="Ū" d="M251 821v20h232v-20h-232zM636 268q0 -60 -14 -112.5t-46 -91.5t-83.5 -61.5t-126.5 -22.5t-126.5 22.5t-83.5 61.5t-46 91.5t-14 112.5v440h22v-436q0 -42 8.5 -89.5t35 -88t75 -67.5t129.5 -27q79 0 127.5 26t75.5 66.5t36 88t9 91.5v436h22v-440z" glyph-name="Umacron" horiz-adv-x="732"/>
<glyph unicode="ū" d="M165 621v20h232v-20h-232zM442 121q-11 -32 -29.5 -57.5t-42.5 -42.5t-52 -26t-58 -9q-48 0 -80 17t-51 45t-27 63t-8 71v278h22v-276q0 -29 6 -60.5t22.5 -57.5t44 -43.5t71.5 -17.5q38 0 71.5 15.5t58 44.5t39 70.5t14.5 94.5v230h22v-344q0 -11 0.5 -27t1 -32.5 t1.5 -31.5t2 -25h-22q-1 10 -1.5 25t-1 32.5t-1 34t-0.5 29.5h-2z" glyph-name="umacron" horiz-adv-x="572"/>
<glyph unicode="Ŭ" d="M493 898q-10 -61 -43.5 -93.5t-83.5 -32.5q-49 0 -82.5 32.5t-41.5 93.5h19q10 -52 38 -79t67 -27q45 0 71 25t38 81h18zM636 268q0 -60 -14 -112.5t-46 -91.5t-83.5 -61.5t-126.5 -22.5t-126.5 22.5t-83.5 61.5t-46 91.5t-14 112.5v440h22v-436q0 -42 8.5 -89.5t35 -88 t75 -67.5t129.5 -27q79 0 127.5 26t75.5 66.5t36 88t9 91.5v436h22v-440z" glyph-name="Ubreve" horiz-adv-x="732"/>
<glyph unicode="ŭ" d="M406 698q-10 -61 -43.5 -93.5t-83.5 -32.5q-49 0 -82.5 32.5t-41.5 93.5h19q10 -52 38 -79t67 -27q45 0 71 25t38 81h18zM442 121q-11 -32 -29.5 -57.5t-42.5 -42.5t-52 -26t-58 -9q-48 0 -80 17t-51 45t-27 63t-8 71v278h22v-276q0 -29 6 -60.5t22.5 -57.5t44 -43.5 t71.5 -17.5q38 0 71.5 15.5t58 44.5t39 70.5t14.5 94.5v230h22v-344q0 -11 0.5 -27t1 -32.5t1.5 -31.5t2 -25h-22q-1 10 -1.5 25t-1 32.5t-1 34t-0.5 29.5h-2z" glyph-name="ubreve" horiz-adv-x="572"/>
<glyph unicode="Ů" d="M445 850q0 32 -22.5 55t-54.5 23t-54.5 -23t-22.5 -55t22.5 -55t54.5 -23t54.5 23t22.5 55zM464 850q0 -20 -7.5 -37.5t-21 -30.5t-31 -20t-36.5 -7q-20 0 -37 7t-30.5 20t-21 30.5t-7.5 37.5t7.5 37.5t21 30t30.5 20t37 7.5q19 0 36.5 -7.5t31 -20t21 -30t7.5 -37.5z M636 268q0 -60 -14 -112.5t-46 -91.5t-83.5 -61.5t-126.5 -22.5t-126.5 22.5t-83.5 61.5t-46 91.5t-14 112.5v440h22v-436q0 -42 8.5 -89.5t35 -88t75 -67.5t129.5 -27q79 0 127.5 26t75.5 66.5t36 88t9 91.5v436h22v-440z" glyph-name="Uring" horiz-adv-x="732"/>
<glyph unicode="ů" d="M358 650q0 32 -22.5 55t-54.5 23t-54.5 -23t-22.5 -55t22.5 -55t54.5 -23t54.5 23t22.5 55zM377 650q0 -20 -7.5 -37.5t-21 -30.5t-31 -20t-36.5 -7q-20 0 -37 7t-30.5 20t-21 30.5t-7.5 37.5t7.5 37.5t21 30t30.5 20t37 7.5q19 0 36.5 -7.5t31 -20t21 -30t7.5 -37.5z M442 121q-11 -32 -29.5 -57.5t-42.5 -42.5t-52 -26t-58 -9q-48 0 -80 17t-51 45t-27 63t-8 71v278h22v-276q0 -29 6 -60.5t22.5 -57.5t44 -43.5t71.5 -17.5q38 0 71.5 15.5t58 44.5t39 70.5t14.5 94.5v230h22v-344q0 -11 0.5 -27t1 -32.5t1.5 -31.5t2 -25h-22q-1 10 -1.5 25 t-1 32.5t-1 34t-0.5 29.5h-2z" glyph-name="uring" horiz-adv-x="572"/>
<glyph unicode="Ű" d="M430 763h-19l103 145h27zM313 763h-19l103 145h27zM636 268q0 -60 -14 -112.5t-46 -91.5t-83.5 -61.5t-126.5 -22.5t-126.5 22.5t-83.5 61.5t-46 91.5t-14 112.5v440h22v-436q0 -42 8.5 -89.5t35 -88t75 -67.5t129.5 -27q79 0 127.5 26t75.5 66.5t36 88t9 91.5v436h22 v-440z" glyph-name="Uhungarumlaut" horiz-adv-x="732"/>
<glyph unicode="ű" d="M344 563h-19l103 145h27zM227 563h-19l103 145h27zM442 121q-11 -32 -29.5 -57.5t-42.5 -42.5t-52 -26t-58 -9q-48 0 -80 17t-51 45t-27 63t-8 71v278h22v-276q0 -29 6 -60.5t22.5 -57.5t44 -43.5t71.5 -17.5q38 0 71.5 15.5t58 44.5t39 70.5t14.5 94.5v230h22v-344 q0 -11 0.5 -27t1 -32.5t1.5 -31.5t2 -25h-22q-1 10 -1.5 25t-1 32.5t-1 34t-0.5 29.5h-2z" glyph-name="uhungarumlaut" horiz-adv-x="572"/>
<glyph unicode="Ų" d="M479 -192q-16 -14 -37.5 -22.5t-44.5 -8.5q-35 0 -59.5 21t-24.5 59q0 34 21.5 64.5t50.5 59.5q-5 -1 -9.5 -1h-9.5q-75 0 -126.5 22.5t-83.5 61.5t-46 91.5t-14 112.5v440h22v-436q0 -42 8.5 -89.5t35 -88t75 -67.5t129.5 -27q79 0 127.5 26t75.5 66.5t36 88t9 91.5v436 h22v-440q0 -55 -12 -104t-38.5 -87t-69.5 -63t-105 -31q-38 -38 -57 -65.5t-19 -58.5q0 -30 18 -47t47 -17q20 0 38.5 8t30.5 21z" glyph-name="Uogonek" horiz-adv-x="732"/>
<glyph unicode="ų" d="M521 -192q-16 -14 -37.5 -22.5t-44.5 -8.5q-35 0 -59.5 21t-24.5 59q0 39 28 73.5t64 69.5h1q-1 10 -1.5 25t-1 32.5t-1 34t-0.5 29.5h-2q-11 -32 -29.5 -57.5t-42.5 -42.5t-52 -26t-58 -9q-48 0 -80 17t-51 45t-27 63t-8 71v278h22v-276q0 -29 6 -60.5t22.5 -57.5 t44 -43.5t71.5 -17.5q38 0 71.5 15.5t58 44.5t39 70.5t14.5 94.5v230h22v-344q0 -11 0.5 -27t1 -32.5t1.5 -31.5t2 -25q-46 -46 -69.5 -76.5t-23.5 -64.5q0 -30 18 -47t47 -17q20 0 38.5 8t30.5 21z" glyph-name="uogonek" horiz-adv-x="572"/>
<glyph unicode="Ŵ" d="M490 908l103 -144h-23l-94 132l-94 -132h-23l103 144h28zM716 0h-34l-205 687h-2l-201 -687h-34l-212 708h23l204 -688h3l201 688h34l205 -688h3l204 688h23z" glyph-name="Wcircumflex" horiz-adv-x="956"/>
<glyph unicode="ŵ" d="M362 708l103 -144h-23l-94 132l-94 -132h-23l103 144h28zM529 0h-30l-150 436h-2l-149 -436h-30l-134 460h23l126 -438h2l148 438h31l149 -438h2l126 438h23z" glyph-name="wcircumflex" horiz-adv-x="698"/>
<glyph unicode="Ŷ" d="M284 908l103 -144h-23l-94 132l-94 -132h-23l103 144h28zM280 310v-310h-22v310l-243 398h26l229 -376l228 376h25z" glyph-name="Ycircumflex" horiz-adv-x="538"/>
<glyph unicode="ŷ" d="M232 708l103 -144h-23l-94 132l-94 -132h-23l103 144h28zM176 -152q-16 -43 -42.5 -66.5t-68.5 -23.5q-9 0 -21 2t-20 5l6 19q6 -2 16.5 -4t20.5 -2q21 0 36.5 8t26.5 20.5t18.5 28.5t13.5 32l44 120l-182 473h24l169 -448l163 448h24z" glyph-name="ycircumflex" horiz-adv-x="428"/>
<glyph unicode="Ÿ" d="M347 833q-9 0 -16 7t-7 19q0 11 7 18t16 7t16 -7t7 -18q0 -12 -7.5 -19t-15.5 -7zM193 833q-9 0 -16 7t-7 19q0 11 7 18t16 7t16 -7t7 -18q0 -12 -7.5 -19t-15.5 -7zM280 310v-310h-22v310l-243 398h26l229 -376l228 376h25z" glyph-name="Ydieresis" horiz-adv-x="538"/>
<glyph unicode="Ź" d="M298 764h-19l103 144h27zM54 0v27l466 661h-453v20h473v-29l-465 -659h477v-20h-498z" glyph-name="Zacute" horiz-adv-x="594"/>
<glyph unicode="ź" d="M216 564h-19l103 144h27zM49 0v21l304 420h-288v19h310v-22l-301 -419h313v-19h-338z" glyph-name="zacute" horiz-adv-x="438"/>
<glyph unicode="Ż" d="M305 833q-9 0 -16 7t-7 19q0 11 7 18t16 7t16 -7t7 -18q0 -12 -7.5 -19t-15.5 -7zM54 0v27l466 661h-453v20h473v-29l-465 -659h477v-20h-498z" glyph-name="Zdotaccent" horiz-adv-x="594"/>
<glyph unicode="ż" d="M223 633q-9 0 -16 7t-7 19q0 11 7 18t16 7t16 -7t7 -18q0 -12 -7.5 -19t-15.5 -7zM49 0v21l304 420h-288v19h310v-22l-301 -419h313v-19h-338z" glyph-name="zdotaccent" horiz-adv-x="438"/>
<glyph unicode="Ž" d="M289 764l-103 144h23l94 -132l94 132h23l-103 -144h-28zM54 0v27l466 661h-453v20h473v-29l-465 -659h477v-20h-498z" glyph-name="Zcaron" horiz-adv-x="594"/>
<glyph unicode="ž" d="M209 564l-103 144h23l94 -132l94 132h23l-103 -144h-28zM49 0v21l304 420h-288v19h310v-22l-301 -419h313v-19h-338z" glyph-name="zcaron" horiz-adv-x="438"/>
<glyph unicode="ƒ" d="M472 683q-10 8 -25 13t-29 5q-26 0 -44.5 -10t-30.5 -26t-19 -36t-11 -40l-33 -181h118v-19h-121l-74 -409q-5 -28 -13.5 -50.5t-22 -39t-34 -25.5t-49.5 -9q-16 0 -31 2.5t-27 10.5l10 19q24 -12 48 -12q26 0 43.5 9.5t29 27t18.5 41t12 51.5l68 384h-111v19h114l31 173 q5 27 13.5 52t23 44.5t37 31t54.5 11.5q43 0 67 -19z" glyph-name="florin" horiz-adv-x="560"/>
<glyph unicode="Ơ" d="M94 354q0 -74 24.5 -138.5t69.5 -112.5t108 -75.5t140 -27.5t140 27.5t108 75.5t69.5 112.5t24.5 138.5t-25 138.5t-70.5 112.5t-108.5 75.5t-138 27.5t-138 -27.5t-108.5 -75.5t-70.5 -112.5t-25 -138.5zM696 639h-9t-9 1q53 -47 87.5 -118.5t34.5 -167.5 q0 -82 -27.5 -150.5t-76 -118t-115.5 -77.5t-145 -28t-145 28t-115.5 77.5t-76 118t-27.5 150.5t27.5 150.5t76 118t115 77.5t145.5 28q55 0 93.5 -11t67.5 -23.5t52 -23.5t47 -11q82 0 82 72q0 14 -4 30t-10 28l23 7q13 -28 13 -65q0 -44 -27 -68t-77 -24z" glyph-name="Ohorn" horiz-adv-x="872"/>
<glyph unicode="ơ" d="M302 455q-51 0 -91 -17.5t-68.5 -48t-43.5 -71.5t-15 -87q0 -47 15 -88t43.5 -71.5t68.5 -48.5t91 -18t91.5 18t69 48.5t43.5 71.5t15 88q0 46 -15 87t-43.5 71.5t-69 48t-91.5 17.5zM495 410h-13.5t-12.5 2q35 -32 54.5 -78t19.5 -103q0 -54 -17.5 -99t-49.5 -77.5 t-76.5 -50.5t-97.5 -18t-97 18t-76 50.5t-49.5 77.5t-17.5 99t17.5 98.5t49.5 76.5t76 50t97 18q37 0 62.5 -7t46.5 -15t40.5 -15t43.5 -7q82 0 82 72q0 14 -4 30t-10 28l23 7q13 -28 13 -65q0 -44 -27 -68t-77 -24z" glyph-name="ohorn" horiz-adv-x="610"/>
<glyph unicode="Ư" d="M636 268q0 -60 -14 -112.5t-46 -91.5t-83.5 -61.5t-126.5 -22.5t-126.5 22.5t-83.5 61.5t-46 91.5t-14 112.5v440h22v-436q0 -42 8.5 -89.5t35 -88t75 -67.5t129.5 -27q79 0 127.5 26t75.5 66.5t36 88t9 91.5v436h22q82 0 82 72q0 14 -4 30t-10 28l23 7q13 -28 13 -65 q0 -44 -27 -68t-77 -24v-420z" glyph-name="Uhorn" horiz-adv-x="732"/>
<glyph unicode="ư" d="M442 121q-11 -32 -29.5 -57.5t-42.5 -42.5t-52 -26t-58 -9q-48 0 -80 17t-51 45t-27 63t-8 71v278h22v-276q0 -29 6 -60.5t22.5 -57.5t44 -43.5t71.5 -17.5q38 0 71.5 15.5t58 44.5t39 70.5t14.5 94.5v230h22q82 0 82 72q0 14 -4 30t-10 28l23 7q13 -28 13 -65 q0 -44 -27 -68t-77 -24v-324q0 -11 0.5 -27t1 -32.5t1.5 -31.5t2 -25h-22q-1 10 -1.5 25t-1 32.5t-1 34t-0.5 29.5h-2z" glyph-name="uhorn" horiz-adv-x="577"/>
<glyph unicode="ǀ" d="M122 750v-1000h-22v1000h22z" glyph-name="clickdental" horiz-adv-x="222"/>
<glyph unicode="ǁ" d="M122 750v-1000h-22v1000h22zM344 750v-1000h-22v1000h22z" glyph-name="clicklateral" horiz-adv-x="444"/>
<glyph unicode="ǃ" d="M138 45q8 0 15.5 -7t7.5 -19q0 -11 -7 -18t-16 -7t-16 7t-7 18q0 12 7 19t16 7zM149 195h-22v513h22v-513z" glyph-name="clickretroflex" horiz-adv-x="276"/>
<glyph unicode="Ǆ" d="M698 354q0 -92 -30 -158.5t-83 -110t-124.5 -64.5t-153.5 -21h-201v708h201q82 0 153.5 -20.5t124.5 -64t83 -110.5t30 -159zM129 688v-668h173q78 0 146.5 19.5t118.5 60t79 103.5t29 151t-29 151.5t-79 104t-118.5 59.5t-146.5 19h-173zM824 0v27l466 661h-453v20h473 v-29l-465 -659h477v-20h-498zM1059 783l-103 144h23l94 -132l94 132h23l-103 -144h-28z" glyph-name="DZcaron" horiz-adv-x="1604"/>
<glyph unicode="ǅ" d="M698 354q0 -92 -30 -158.5t-83 -110t-124.5 -64.5t-153.5 -21h-201v708h201q82 0 153.5 -20.5t124.5 -64t83 -110.5t30 -159zM129 688v-668h173q78 0 146.5 19.5t118.5 60t79 103.5t29 151t-29 151.5t-79 104t-118.5 59.5t-146.5 19h-173zM819 0v21l304 420h-288v19h310 v-22l-301 -419h313v-19h-338zM974 535l-103 144h23l94 -132l94 132h23l-103 -144h-28z" glyph-name="Dzcaron" horiz-adv-x="1448"/>
<glyph unicode="ǆ" d="M502 756h22v-756h-22v124h-3q-30 -68 -85.5 -103t-121.5 -35q-50 0 -92.5 18.5t-73 51t-47.5 77t-17 96.5t17 97t47.5 78t73 51.5t92.5 18.5q66 0 121.5 -35t85.5 -104h3v421zM84 229q0 -45 14.5 -86t41.5 -71.5t65.5 -48.5t86.5 -18q46 0 84.5 18t66.5 48.5t44 71.5 t16 87t-16 87t-44 71.5t-66.5 48.5t-84.5 18q-48 0 -86.5 -18.5t-65.5 -49.5t-41.5 -72t-14.5 -86zM675 0v21l304 420h-288v19h310v-22l-301 -419h313v-19h-338zM830 535l-103 144h23l94 -132l94 132h23l-103 -144h-28z" glyph-name="dzcaron" horiz-adv-x="1304"/>
<glyph unicode="Ǉ" d="M106 0v708h22v-688h352v-20h-374zM876 193q0 -98 -45.5 -154.5t-135.5 -56.5q-63 0 -107 32.5t-61 78.5l19 9q20 -45 59 -72.5t90 -27.5q43 0 73 14.5t49 40.5t28 61.5t9 77.5v512h22v-515v0z" glyph-name="LJ" horiz-adv-x="978"/>
<glyph unicode="ǈ" d="M106 0v708h22v-688h352v-20h-374zM622 -97q0 -35 -4.5 -62t-17 -45t-34.5 -27.5t-56 -9.5q-7 0 -15 0.5t-14 2.5l4 19q13 -3 25 -3q32 0 50 11t27 28.5t11 39.5t2 44v559h22v-557zM611 633q-9 0 -16 7t-7 19q0 11 7 18t16 7t16 -7t7 -18q0 -12 -7.5 -19t-15.5 -7z" glyph-name="Lj" horiz-adv-x="724"/>
<glyph unicode="ǉ" d="M102 0v756h22v-756h-22zM350 -97q0 -35 -4.5 -62t-17 -45t-34.5 -27.5t-56 -9.5q-7 0 -15 0.5t-14 2.5l4 19q13 -3 25 -3q32 0 50 11t27 28.5t11 39.5t2 44v559h22v-557zM339 633q-9 0 -16 7t-7 19q0 11 7 18t16 7t16 -7t7 -18q0 -12 -7.5 -19t-15.5 -7z" glyph-name="lj" horiz-adv-x="452"/>
<glyph unicode="Ǌ" d="M639 0l-508 680h-3v-680h-22v708h31l509 -679h3v679h22v-708h-32zM1155 193q0 -98 -45.5 -154.5t-135.5 -56.5q-63 0 -107 32.5t-61 78.5l19 9q20 -45 59 -72.5t90 -27.5q43 0 73 14.5t49 40.5t28 61.5t9 77.5v512h22v-515v0z" glyph-name="NJ" horiz-adv-x="1257"/>
<glyph unicode="ǋ" d="M639 0l-508 680h-3v-680h-22v708h31l509 -679h3v679h22v-708h-32zM901 -97q0 -35 -4.5 -62t-17 -45t-34.5 -27.5t-56 -9.5q-7 0 -15 0.5t-14 2.5l4 19q13 -3 25 -3q32 0 50 11t27 28.5t11 39.5t2 44v559h22v-557zM890 633q-9 0 -16 7t-7 19q0 11 7 18t16 7t16 -7t7 -18 q0 -12 -7.5 -19t-15.5 -7z" glyph-name="Nj" horiz-adv-x="1003"/>
<glyph unicode="ǌ" d="M128 339q10 32 29 57t43 42.5t52 26.5t58 9q48 0 80 -17t51 -45t27 -63t8 -71v-278h-22v276q0 28 -6 60t-22.5 58t-44.5 43.5t-71 17.5q-38 0 -71.5 -15.5t-58 -44.5t-39 -70.5t-14.5 -94.5v-230h-22v344q0 11 -0.5 27t-1 32.5t-1.5 31.5t-2 25h22q1 -10 1.5 -25t1 -32.5 t1 -34t0.5 -29.5h2v0zM696 -97q0 -35 -4.5 -62t-17 -45t-34.5 -27.5t-56 -9.5q-7 0 -15 0.5t-14 2.5l4 19q13 -3 25 -3q32 0 50 11t27 28.5t11 39.5t2 44v559h22v-557zM685 633q-9 0 -16 7t-7 19q0 11 7 18t16 7t16 -7t7 -18q0 -12 -7.5 -19t-15.5 -7z" glyph-name="nj" horiz-adv-x="798"/>
<glyph unicode="Ǎ" glyph-name="Acaron" d="M624 0l-84 203h-411l-87 -203h-24l307 708h28l295 -708h-24zM338 694l-201 -472h396zM319 783l-103 144h23l94 -132l94 132h23l-103 -144h-28z"/>
<glyph unicode="ǎ" d="M418 104q0 -26 2.5 -55.5t5.5 -48.5h-21q-2 10 -3 24.5t-2.5 30t-2 30.5t-0.5 25h-3q-20 -63 -69 -93.5t-105 -30.5q-28 0 -55.5 8t-49.5 24t-35.5 41t-13.5 59q0 49 25.5 79t63.5 46.5t81.5 21.5t79.5 5h80v37q0 77 -41 112.5t-107 35.5q-41 0 -76.5 -15t-63.5 -40 l-12 17q32 28 72.5 42.5t79.5 14.5q79 0 124.5 -40.5t45.5 -127.5v-202zM396 251h-71q-38 0 -80 -4.5t-77 -18.5t-57.5 -40t-22.5 -70q0 -32 12.5 -53.5t32 -34.5t43 -19t44.5 -6q51 0 85 19t54.5 48.5t28.5 65t8 69.5v44zM232 549l-103 144h23l94 -132l94 132h23l-103 -144 h-28z" glyph-name="acaron" horiz-adv-x="512"/>
<glyph unicode="Ǐ" d="M106 0v708h22v-708h-22zM103 783l-103 144h23l94 -132l94 132h23l-103 -144h-28z" glyph-name="Icaron" horiz-adv-x="234"/>
<glyph unicode="ǐ" d="M102 0v460h22v-460h-22zM99 535l-103 144h23l94 -132l94 132h23l-103 -144h-28z" glyph-name="icaron" horiz-adv-x="226"/>
<glyph unicode="Ǒ" d="M800 354q0 -82 -27.5 -150.5t-76 -118t-115.5 -77.5t-145 -28t-145 28t-115.5 77.5t-76 118t-27.5 150.5t27.5 150.5t76 118t115 77.5t145.5 28t145.5 -28t115 -77.5t76 -118t27.5 -150.5zM778 354q0 74 -25 138.5t-70.5 112.5t-108.5 75.5t-138 27.5t-138 -27.5 t-108.5 -75.5t-70.5 -112.5t-25 -138.5t24.5 -138.5t69.5 -112.5t108 -75.5t140 -27.5t140 27.5t108 75.5t69.5 112.5t24.5 138.5zM422 803l-103 144h23l94 -132l94 132h23l-103 -144h-28z" glyph-name="Ocaron" horiz-adv-x="872"/>
<glyph unicode="ǒ" d="M543 231q0 -54 -17.5 -99t-49.5 -77.5t-76.5 -50.5t-97.5 -18t-97 18t-76 50.5t-49.5 77.5t-17.5 99t17.5 98.5t49.5 76.5t76 50t97 18t97.5 -18t76.5 -50t49.5 -76.5t17.5 -98.5zM521 231q0 46 -15 87t-43.5 71.5t-69 48t-91.5 17.5t-91 -17.5t-68.5 -48t-43.5 -71.5 t-15 -87q0 -47 15 -88t43.5 -71.5t68.5 -48.5t91 -18t91.5 18t69 48.5t43.5 71.5t15 88zM288 549l-103 144h23l94 -132l94 132h23l-103 -144h-28z" glyph-name="ocaron" horiz-adv-x="605"/>
<glyph unicode="Ǔ" d="M636 268q0 -60 -14 -112.5t-46 -91.5t-83.5 -61.5t-126.5 -22.5t-126.5 22.5t-83.5 61.5t-46 91.5t-14 112.5v440h22v-436q0 -42 8.5 -89.5t35 -88t75 -67.5t129.5 -27q79 0 127.5 26t75.5 66.5t36 88t9 91.5v436h22v-440v0zM352 783l-103 144h23l94 -132l94 132h23 l-103 -144h-28z" glyph-name="Ucaron" horiz-adv-x="732"/>
<glyph unicode="ǔ" d="M442 121q-11 -32 -29.5 -57.5t-42.5 -42.5t-52 -26t-58 -9q-48 0 -80 17t-51 45t-27 63t-8 71v278h22v-276q0 -29 6 -60.5t22.5 -57.5t44 -43.5t71.5 -17.5q38 0 71.5 15.5t58 44.5t39 70.5t14.5 94.5v230h22v-344q0 -11 0.5 -27t1 -32.5t1.5 -31.5t2 -25h-22 q-1 10 -1.5 25t-1 32.5t-1 34t-0.5 29.5h-2v0zM268 535l-103 144h23l94 -132l94 132h23l-103 -144h-28z" glyph-name="ucaron" horiz-adv-x="572"/>
<glyph unicode="Ǖ" d="M636 268q0 -60 -14 -112.5t-46 -91.5t-83.5 -61.5t-126.5 -22.5t-126.5 22.5t-83.5 61.5t-46 91.5t-14 112.5v440h22v-436q0 -42 8.5 -89.5t35 -88t75 -67.5t129.5 -27q79 0 127.5 26t75.5 66.5t36 88t9 91.5v436h22v-440v0zM289 783q-9 0 -16 7t-7 19q0 11 7 18t16 7 t16 -7t7 -18q0 -12 -7.5 -19t-15.5 -7zM443 783q-9 0 -16 7t-7 19q0 11 7 18t16 7t16 -7t7 -18q0 -12 -7.5 -19t-15.5 -7zM250 909v20h232v-20h-232z" glyph-name="Udieresismacron" horiz-adv-x="732"/>
<glyph unicode="ǖ" d="M442 121q-11 -32 -29.5 -57.5t-42.5 -42.5t-52 -26t-58 -9q-48 0 -80 17t-51 45t-27 63t-8 71v278h22v-276q0 -29 6 -60.5t22.5 -57.5t44 -43.5t71.5 -17.5q38 0 71.5 15.5t58 44.5t39 70.5t14.5 94.5v230h22v-344q0 -11 0.5 -27t1 -32.5t1.5 -31.5t2 -25h-22 q-1 10 -1.5 25t-1 32.5t-1 34t-0.5 29.5h-2v0zM205 535q-9 0 -16 7t-7 19q0 11 7 18t16 7t16 -7t7 -18q0 -12 -7.5 -19t-15.5 -7zM359 535q-9 0 -16 7t-7 19q0 11 7 18t16 7t16 -7t7 -18q0 -12 -7.5 -19t-15.5 -7zM166 661v20h232v-20h-232z" glyph-name="udieresismacron" horiz-adv-x="572"/>
<glyph unicode="Ǘ" d="M636 268q0 -60 -14 -112.5t-46 -91.5t-83.5 -61.5t-126.5 -22.5t-126.5 22.5t-83.5 61.5t-46 91.5t-14 112.5v440h22v-436q0 -42 8.5 -89.5t35 -88t75 -67.5t129.5 -27q79 0 127.5 26t75.5 66.5t36 88t9 91.5v436h22v-440v0zM289 783q-9 0 -16 7t-7 19q0 11 7 18t16 7 t16 -7t7 -18q0 -12 -7.5 -19t-15.5 -7zM443 783q-9 0 -16 7t-7 19q0 11 7 18t16 7t16 -7t7 -18q0 -12 -7.5 -19t-15.5 -7zM320 909h-19l103 144h27z" glyph-name="Udieresisacute" horiz-adv-x="732"/>
<glyph unicode="ǘ" d="M442 121q-11 -32 -29.5 -57.5t-42.5 -42.5t-52 -26t-58 -9q-48 0 -80 17t-51 45t-27 63t-8 71v278h22v-276q0 -29 6 -60.5t22.5 -57.5t44 -43.5t71.5 -17.5q38 0 71.5 15.5t58 44.5t39 70.5t14.5 94.5v230h22v-344q0 -11 0.5 -27t1 -32.5t1.5 -31.5t2 -25h-22 q-1 10 -1.5 25t-1 32.5t-1 34t-0.5 29.5h-2v0zM205 535q-9 0 -16 7t-7 19q0 11 7 18t16 7t16 -7t7 -18q0 -12 -7.5 -19t-15.5 -7zM359 535q-9 0 -16 7t-7 19q0 11 7 18t16 7t16 -7t7 -18q0 -12 -7.5 -19t-15.5 -7zM236 661h-19l103 144h27z" glyph-name="udieresisacute" horiz-adv-x="572"/>
<glyph unicode="Ǚ" d="M636 268q0 -60 -14 -112.5t-46 -91.5t-83.5 -61.5t-126.5 -22.5t-126.5 22.5t-83.5 61.5t-46 91.5t-14 112.5v440h22v-436q0 -42 8.5 -89.5t35 -88t75 -67.5t129.5 -27q79 0 127.5 26t75.5 66.5t36 88t9 91.5v436h22v-440v0zM289 783q-9 0 -16 7t-7 19q0 11 7 18t16 7 t16 -7t7 -18q0 -12 -7.5 -19t-15.5 -7zM443 783q-9 0 -16 7t-7 19q0 11 7 18t16 7t16 -7t7 -18q0 -12 -7.5 -19t-15.5 -7zM352 909l-103 144h23l94 -132l94 132h23l-103 -144h-28z" glyph-name="Udieresiscaron" horiz-adv-x="732"/>
<glyph unicode="ǚ" d="M442 121q-11 -32 -29.5 -57.5t-42.5 -42.5t-52 -26t-58 -9q-48 0 -80 17t-51 45t-27 63t-8 71v278h22v-276q0 -29 6 -60.5t22.5 -57.5t44 -43.5t71.5 -17.5q38 0 71.5 15.5t58 44.5t39 70.5t14.5 94.5v230h22v-344q0 -11 0.5 -27t1 -32.5t1.5 -31.5t2 -25h-22 q-1 10 -1.5 25t-1 32.5t-1 34t-0.5 29.5h-2v0zM205 535q-9 0 -16 7t-7 19q0 11 7 18t16 7t16 -7t7 -18q0 -12 -7.5 -19t-15.5 -7zM359 535q-9 0 -16 7t-7 19q0 11 7 18t16 7t16 -7t7 -18q0 -12 -7.5 -19t-15.5 -7zM268 661l-103 144h23l94 -132l94 132h23l-103 -144h-28z " glyph-name="udieresiscaron" horiz-adv-x="572"/>
<glyph unicode="Ǜ" d="M636 268q0 -60 -14 -112.5t-46 -91.5t-83.5 -61.5t-126.5 -22.5t-126.5 22.5t-83.5 61.5t-46 91.5t-14 112.5v440h22v-436q0 -42 8.5 -89.5t35 -88t75 -67.5t129.5 -27q79 0 127.5 26t75.5 66.5t36 88t9 91.5v436h22v-440v0zM289 783q-9 0 -16 7t-7 19q0 11 7 18t16 7 t16 -7t7 -18q0 -12 -7.5 -19t-15.5 -7zM443 783q-9 0 -16 7t-7 19q0 11 7 18t16 7t16 -7t7 -18q0 -12 -7.5 -19t-15.5 -7zM328 1053l103 -144h-19l-111 144h27z" glyph-name="Udieresisgrave" horiz-adv-x="732"/>
<glyph unicode="ǜ" d="M442 121q-11 -32 -29.5 -57.5t-42.5 -42.5t-52 -26t-58 -9q-48 0 -80 17t-51 45t-27 63t-8 71v278h22v-276q0 -29 6 -60.5t22.5 -57.5t44 -43.5t71.5 -17.5q38 0 71.5 15.5t58 44.5t39 70.5t14.5 94.5v230h22v-344q0 -11 0.5 -27t1 -32.5t1.5 -31.5t2 -25h-22 q-1 10 -1.5 25t-1 32.5t-1 34t-0.5 29.5h-2v0zM205 535q-9 0 -16 7t-7 19q0 11 7 18t16 7t16 -7t7 -18q0 -12 -7.5 -19t-15.5 -7zM359 535q-9 0 -16 7t-7 19q0 11 7 18t16 7t16 -7t7 -18q0 -12 -7.5 -19t-15.5 -7zM244 805l103 -144h-19l-111 144h27z" glyph-name="udieresisgrave" horiz-adv-x="572"/>
<glyph unicode="Ǟ" glyph-name="Adieresismacron" d="M624 0l-84 203h-411l-87 -203h-24l307 708h28l295 -708h-24zM338 694l-201 -472h396zM256 783q-9 0 -16 7t-7 19q0 11 7 18t16 7t16 -7t7 -18q0 -12 -7.5 -19t-15.5 -7zM410 783q-9 0 -16 7t-7 19q0 11 7 18t16 7t16 -7t7 -18q0 -12 -7.5 -19t-15.5 -7zM217 909v20h232 v-20h-232z"/>
<glyph unicode="ǟ" d="M418 104q0 -26 2.5 -55.5t5.5 -48.5h-21q-2 10 -3 24.5t-2.5 30t-2 30.5t-0.5 25h-3q-20 -63 -69 -93.5t-105 -30.5q-28 0 -55.5 8t-49.5 24t-35.5 41t-13.5 59q0 49 25.5 79t63.5 46.5t81.5 21.5t79.5 5h80v37q0 77 -41 112.5t-107 35.5q-41 0 -76.5 -15t-63.5 -40 l-12 17q32 28 72.5 42.5t79.5 14.5q79 0 124.5 -40.5t45.5 -127.5v-202zM396 251h-71q-38 0 -80 -4.5t-77 -18.5t-57.5 -40t-22.5 -70q0 -32 12.5 -53.5t32 -34.5t43 -19t44.5 -6q51 0 85 19t54.5 48.5t28.5 65t8 69.5v44zM169 549q-9 0 -16 7t-7 19q0 11 7 18t16 7t16 -7 t7 -18q0 -12 -7.5 -19t-15.5 -7zM323 549q-9 0 -16 7t-7 19q0 11 7 18t16 7t16 -7t7 -18q0 -12 -7.5 -19t-15.5 -7zM130 675v20h232v-20h-232z" glyph-name="adieresismacron" horiz-adv-x="512"/>
<glyph unicode="Ǡ" glyph-name="Adotmacron" d="M624 0l-84 203h-411l-87 -203h-24l307 708h28l295 -708h-24zM338 694l-201 -472h396zM333 783q-9 0 -16 7t-7 19q0 11 7 18t16 7t16 -7t7 -18q0 -12 -7.5 -19t-15.5 -7zM217 909v20h232v-20h-232z"/>
<glyph unicode="ǡ" d="M418 104q0 -26 2.5 -55.5t5.5 -48.5h-21q-2 10 -3 24.5t-2.5 30t-2 30.5t-0.5 25h-3q-20 -63 -69 -93.5t-105 -30.5q-28 0 -55.5 8t-49.5 24t-35.5 41t-13.5 59q0 49 25.5 79t63.5 46.5t81.5 21.5t79.5 5h80v37q0 77 -41 112.5t-107 35.5q-41 0 -76.5 -15t-63.5 -40 l-12 17q32 28 72.5 42.5t79.5 14.5q79 0 124.5 -40.5t45.5 -127.5v-202zM396 251h-71q-38 0 -80 -4.5t-77 -18.5t-57.5 -40t-22.5 -70q0 -32 12.5 -53.5t32 -34.5t43 -19t44.5 -6q51 0 85 19t54.5 48.5t28.5 65t8 69.5v44zM246 549q-9 0 -16 7t-7 19q0 11 7 18t16 7t16 -7 t7 -18q0 -12 -7.5 -19t-15.5 -7zM130 675v20h232v-20h-232z" glyph-name="adotmacron" horiz-adv-x="512"/>
<glyph unicode="Ǣ" d="M491 0v206h-324l-135 -206h-26l460 708h429v-20h-382v-311h358v-20h-358v-337h399v-20h-421zM491 688h-13l-298 -462h311v462zM343 783v20h232v-20h-232z" glyph-name="AEmacron" horiz-adv-x="968"/>
<glyph unicode="ǣ" d="M796 255q-2 45 -15.5 81.5t-37 63t-57 41t-73.5 14.5q-50 0 -84.5 -22.5t-57 -54t-32.5 -65.5t-10 -58h367zM426 338q24 61 74 98.5t114 37.5q51 0 89 -19t63.5 -50t38 -70.5t12.5 -80.5v-19h-389q0 -40 11 -80.5t35 -73.5t61 -53.5t89 -20.5q49 0 90.5 21t70.5 62 l15 -13q-32 -44 -76 -67t-101 -23q-73 0 -127 42t-76 114q-4 -31 -17.5 -59.5t-37.5 -50t-59.5 -34.5t-81.5 -13q-29 0 -57 7t-50.5 22t-36.5 39t-14 58q0 46 25 74t63.5 43.5t83.5 20.5t85 5h84v47q0 75 -40 114t-114 39q-42 0 -78.5 -15t-65.5 -40l-12 17q32 28 74 42.5 t82 14.5q42 0 73.5 -10.5t52.5 -29t32.5 -43.5t14.5 -53zM407 235h-75q-43 0 -86.5 -4.5t-78 -17.5t-56.5 -37t-22 -64q0 -32 13 -52.5t33 -32.5t43.5 -17t45.5 -5q53 0 88 16.5t56 43t30 59.5t9 67v44zM325 549v20h232v-20h-232z" glyph-name="aemacron" horiz-adv-x="879"/>
<glyph unicode="Ǧ" d="M699 41q-42 -23 -106 -42t-148 -19t-153 29t-118 79.5t-75.5 119t-26.5 148.5t27 148.5t75.5 118t116.5 77.5t150 28q72 0 132 -22t106 -60l-16 -16q-20 19 -46.5 33.5t-56 24.5t-60.5 15t-60 5q-78 0 -142 -27.5t-109.5 -75.5t-70 -112t-24.5 -137t24 -138t69.5 -113.5 t111 -76.5t148.5 -28q72 0 128 15t103 38v278h-184v19h205v-309v0zM371 803l-103 144h23l94 -132l94 132h23l-103 -144h-28z" glyph-name="Gcaron" horiz-adv-x="795"/>
<glyph unicode="ǧ" d="M502 124h-3q-13 -34 -35 -59.5t-49 -43t-58.5 -26.5t-64.5 -9q-50 0 -92.5 18.5t-73 51t-47.5 77t-17 96.5t17 97t47.5 78t73 51.5t92.5 18.5q66 0 121.5 -35t85.5 -104h3v125h22v-434q0 -55 -11.5 -105t-38 -88t-70 -60.5t-107.5 -22.5q-65 0 -116 22.5t-87 63.5l15 15 q38 -43 86.5 -62.5t101.5 -19.5q60 0 100 22t63 58t32.5 82.5t9.5 96.5v96zM84 229q0 -45 14.5 -86t41.5 -72t65.5 -49t86.5 -18q46 0 84.5 18t66.5 49t44 72t16 87t-16 87t-44 71.5t-66.5 48.5t-84.5 18q-48 0 -86.5 -18.5t-65.5 -49.5t-41.5 -72t-14.5 -86zM279 549 l-103 144h23l94 -132l94 132h23l-103 -144h-28z" glyph-name="gcaron" horiz-adv-x="626"/>
<glyph unicode="Ǩ" d="M129 383l356 325h32l-360 -325l378 -383h-31l-375 381h-1v-381h-22v708h22v-325h1zM306 783l-103 144h23l94 -132l94 132h23l-103 -144h-28z" glyph-name="Kcaron" horiz-adv-x="565"/>
<glyph unicode="ǩ" d="M125 248l238 212h31l-243 -213l271 -247h-33l-264 243h-1v-243h-22v756h22v-508h1zM248 831l-103 144h23l94 -132l94 132h23l-103 -144h-28z" glyph-name="kcaron" horiz-adv-x="445"/>
<glyph unicode="Ǫ" d="M800 354q0 -82 -27.5 -150.5t-76 -118t-115.5 -77.5t-145 -28t-145 28t-115.5 77.5t-76 118t-27.5 150.5t27.5 150.5t76 118t115 77.5t145.5 28t145.5 -28t115 -77.5t76 -118t27.5 -150.5zM778 354q0 74 -25 138.5t-70.5 112.5t-108.5 75.5t-138 27.5t-138 -27.5 t-108.5 -75.5t-70.5 -112.5t-25 -138.5t24.5 -138.5t69.5 -112.5t108 -75.5t140 -27.5t140 27.5t108 75.5t69.5 112.5t24.5 138.5zM519 -212q-16 -14 -37.5 -22.5t-44.5 -8.5q-35 0 -59.5 21t-24.5 59q0 39 28 73.5t64 69.5h23q-46 -46 -69.5 -76.5t-23.5 -64.5 q0 -30 18 -47t47 -17q20 0 38.5 8t30.5 21z" glyph-name="Oogonek" horiz-adv-x="872"/>
<glyph unicode="ǫ" d="M543 231q0 -54 -17.5 -99t-49.5 -77.5t-76.5 -50.5t-97.5 -18t-97 18t-76 50.5t-49.5 77.5t-17.5 99t17.5 98.5t49.5 76.5t76 50t97 18t97.5 -18t76.5 -50t49.5 -76.5t17.5 -98.5zM521 231q0 46 -15 87t-43.5 71.5t-69 48t-91.5 17.5t-91 -17.5t-68.5 -48t-43.5 -71.5 t-15 -87q0 -47 15 -88t43.5 -71.5t68.5 -48.5t91 -18t91.5 18t69 48.5t43.5 71.5t15 88zM385 -206q-16 -14 -37.5 -22.5t-44.5 -8.5q-35 0 -59.5 21t-24.5 59q0 39 28 73.5t64 69.5h23q-46 -46 -69.5 -76.5t-23.5 -64.5q0 -30 18 -47t47 -17q20 0 38.5 8t30.5 21z" glyph-name="oogonek" horiz-adv-x="605"/>
<glyph unicode="Ǭ" d="M800 354q0 -82 -27.5 -150.5t-76 -118t-115.5 -77.5t-145 -28t-145 28t-115.5 77.5t-76 118t-27.5 150.5t27.5 150.5t76 118t115 77.5t145.5 28t145.5 -28t115 -77.5t76 -118t27.5 -150.5zM778 354q0 74 -25 138.5t-70.5 112.5t-108.5 75.5t-138 27.5t-138 -27.5 t-108.5 -75.5t-70.5 -112.5t-25 -138.5t24.5 -138.5t69.5 -112.5t108 -75.5t140 -27.5t140 27.5t108 75.5t69.5 112.5t24.5 138.5zM519 -212q-16 -14 -37.5 -22.5t-44.5 -8.5q-35 0 -59.5 21t-24.5 59q0 39 28 73.5t64 69.5h23q-46 -46 -69.5 -76.5t-23.5 -64.5 q0 -30 18 -47t47 -17q20 0 38.5 8t30.5 21zM320 803v20h232v-20h-232z" glyph-name="Oogonekmacron" horiz-adv-x="872"/>
<glyph unicode="ǭ" d="M543 231q0 -54 -17.5 -99t-49.5 -77.5t-76.5 -50.5t-97.5 -18t-97 18t-76 50.5t-49.5 77.5t-17.5 99t17.5 98.5t49.5 76.5t76 50t97 18t97.5 -18t76.5 -50t49.5 -76.5t17.5 -98.5zM521 231q0 46 -15 87t-43.5 71.5t-69 48t-91.5 17.5t-91 -17.5t-68.5 -48t-43.5 -71.5 t-15 -87q0 -47 15 -88t43.5 -71.5t68.5 -48.5t91 -18t91.5 18t69 48.5t43.5 71.5t15 88zM385 -206q-16 -14 -37.5 -22.5t-44.5 -8.5q-35 0 -59.5 21t-24.5 59q0 39 28 73.5t64 69.5h23q-46 -46 -69.5 -76.5t-23.5 -64.5q0 -30 18 -47t47 -17q20 0 38.5 8t30.5 21zM186 549 v20h232v-20h-232z" glyph-name="oogonekmacron" horiz-adv-x="605"/>
<glyph unicode="Ǳ" d="M698 354q0 -92 -30 -158.5t-83 -110t-124.5 -64.5t-153.5 -21h-201v708h201q82 0 153.5 -20.5t124.5 -64t83 -110.5t30 -159zM129 688v-668h173q78 0 146.5 19.5t118.5 60t79 103.5t29 151t-29 151.5t-79 104t-118.5 59.5t-146.5 19h-173zM824 0v27l466 661h-453v20h473 v-29l-465 -659h477v-20h-498z" glyph-name="DZ" horiz-adv-x="1364"/>
<glyph unicode="ǲ" d="M698 354q0 -92 -30 -158.5t-83 -110t-124.5 -64.5t-153.5 -21h-201v708h201q82 0 153.5 -20.5t124.5 -64t83 -110.5t30 -159zM129 688v-668h173q78 0 146.5 19.5t118.5 60t79 103.5t29 151t-29 151.5t-79 104t-118.5 59.5t-146.5 19h-173zM819 0v21l304 420h-288v19h310 v-22l-301 -419h313v-19h-338z" glyph-name="Dz" horiz-adv-x="1208"/>
<glyph unicode="ǳ" d="M502 756h22v-756h-22v124h-3q-30 -68 -85.5 -103t-121.5 -35q-50 0 -92.5 18.5t-73 51t-47.5 77t-17 96.5t17 97t47.5 78t73 51.5t92.5 18.5q66 0 121.5 -35t85.5 -104h3v421zM84 229q0 -45 14.5 -86t41.5 -71.5t65.5 -48.5t86.5 -18q46 0 84.5 18t66.5 48.5t44 71.5 t16 87t-16 87t-44 71.5t-66.5 48.5t-84.5 18q-48 0 -86.5 -18.5t-65.5 -49.5t-41.5 -72t-14.5 -86zM675 0v21l304 420h-288v19h310v-22l-301 -419h313v-19h-338z" glyph-name="dz" horiz-adv-x="1064"/>
<glyph unicode="Ǵ" d="M699 41q-42 -23 -106 -42t-148 -19t-153 29t-118 79.5t-75.5 119t-26.5 148.5t27 148.5t75.5 118t116.5 77.5t150 28q72 0 132 -22t106 -60l-16 -16q-20 19 -46.5 33.5t-56 24.5t-60.5 15t-60 5q-78 0 -142 -27.5t-109.5 -75.5t-70 -112t-24.5 -137t24 -138t69.5 -113.5 t111 -76.5t148.5 -28q72 0 128 15t103 38v278h-184v19h205v-309v0zM339 803h-19l103 144h27z" glyph-name="Gacute" horiz-adv-x="795"/>
<glyph unicode="ǵ" d="M502 124h-3q-13 -34 -35 -59.5t-49 -43t-58.5 -26.5t-64.5 -9q-50 0 -92.5 18.5t-73 51t-47.5 77t-17 96.5t17 97t47.5 78t73 51.5t92.5 18.5q66 0 121.5 -35t85.5 -104h3v125h22v-434q0 -55 -11.5 -105t-38 -88t-70 -60.5t-107.5 -22.5q-65 0 -116 22.5t-87 63.5l15 15 q38 -43 86.5 -62.5t101.5 -19.5q60 0 100 22t63 58t32.5 82.5t9.5 96.5v96zM84 229q0 -45 14.5 -86t41.5 -72t65.5 -49t86.5 -18q46 0 84.5 18t66.5 49t44 72t16 87t-16 87t-44 71.5t-66.5 48.5t-84.5 18q-48 0 -86.5 -18.5t-65.5 -49.5t-41.5 -72t-14.5 -86zM247 549h-19 l103 144h27z" glyph-name="gacute" horiz-adv-x="626"/>
<glyph unicode="Ǹ" d="M639 0l-508 680h-3v-680h-22v708h31l509 -679h3v679h22v-708h-32zM350 927l103 -144h-19l-111 144h27z" glyph-name="Ngrave" horiz-adv-x="777"/>
<glyph unicode="ǹ" d="M128 339q10 32 29 57t43 42.5t52 26.5t58 9q48 0 80 -17t51 -45t27 -63t8 -71v-278h-22v276q0 28 -6 60t-22.5 58t-44.5 43.5t-71 17.5q-38 0 -71.5 -15.5t-58 -44.5t-39 -70.5t-14.5 -94.5v-230h-22v344q0 11 -0.5 27t-1 32.5t-1.5 31.5t-2 25h22q1 -10 1.5 -25t1 -32.5 t1 -34t0.5 -29.5h2v0zM250 693l103 -144h-19l-111 144h27z" glyph-name="ngrave" horiz-adv-x="572"/>
<glyph unicode="Ǻ" glyph-name="Aringacute" d="M624 0l-84 203h-411l-87 -203h-24l307 708h28l295 -708h-24zM338 694l-201 -472h396zM429 878q0 -20 -7.5 -37.5t-21 -30.5t-31 -20t-36.5 -7q-20 0 -37 7t-30.5 20t-21 30.5t-7.5 37.5t7.5 37.5t21 30t30.5 20t37 7.5q19 0 36.5 -7.5t31 -20t21 -30t7.5 -37.5zM410 878 q0 32 -22.5 55t-54.5 23t-54.5 -23t-22.5 -55t22.5 -55t54.5 -23t54.5 23t22.5 55zM287 1048h-19l103 144h27z"/>
<glyph unicode="ǻ" d="M418 104q0 -26 2.5 -55.5t5.5 -48.5h-21q-2 10 -3 24.5t-2.5 30t-2 30.5t-0.5 25h-3q-20 -63 -69 -93.5t-105 -30.5q-28 0 -55.5 8t-49.5 24t-35.5 41t-13.5 59q0 49 25.5 79t63.5 46.5t81.5 21.5t79.5 5h80v37q0 77 -41 112.5t-107 35.5q-41 0 -76.5 -15t-63.5 -40 l-12 17q32 28 72.5 42.5t79.5 14.5q79 0 124.5 -40.5t45.5 -127.5v-202zM396 251h-71q-38 0 -80 -4.5t-77 -18.5t-57.5 -40t-22.5 -70q0 -32 12.5 -53.5t32 -34.5t43 -19t44.5 -6q51 0 85 19t54.5 48.5t28.5 65t8 69.5v44zM342 644q0 -20 -7.5 -37.5t-21 -30.5t-31 -20 t-36.5 -7q-20 0 -37 7t-30.5 20t-21 30.5t-7.5 37.5t7.5 37.5t21 30t30.5 20t37 7.5q19 0 36.5 -7.5t31 -20t21 -30t7.5 -37.5zM323 644q0 32 -22.5 55t-54.5 23t-54.5 -23t-22.5 -55t22.5 -55t54.5 -23t54.5 23t22.5 55zM200 814h-19l103 144h27z" glyph-name="aringacute" horiz-adv-x="512"/>
<glyph unicode="Ǽ" d="M491 0v206h-324l-135 -206h-26l460 708h429v-20h-382v-311h358v-20h-358v-337h399v-20h-421zM491 688h-13l-298 -462h311v462zM413 783h-19l103 144h27z" glyph-name="AEacute" horiz-adv-x="968"/>
<glyph unicode="ǽ" d="M796 255q-2 45 -15.5 81.5t-37 63t-57 41t-73.5 14.5q-50 0 -84.5 -22.5t-57 -54t-32.5 -65.5t-10 -58h367zM426 338q24 61 74 98.5t114 37.5q51 0 89 -19t63.5 -50t38 -70.5t12.5 -80.5v-19h-389q0 -40 11 -80.5t35 -73.5t61 -53.5t89 -20.5q49 0 90.5 21t70.5 62 l15 -13q-32 -44 -76 -67t-101 -23q-73 0 -127 42t-76 114q-4 -31 -17.5 -59.5t-37.5 -50t-59.5 -34.5t-81.5 -13q-29 0 -57 7t-50.5 22t-36.5 39t-14 58q0 46 25 74t63.5 43.5t83.5 20.5t85 5h84v47q0 75 -40 114t-114 39q-42 0 -78.5 -15t-65.5 -40l-12 17q32 28 74 42.5 t82 14.5q42 0 73.5 -10.5t52.5 -29t32.5 -43.5t14.5 -53zM407 235h-75q-43 0 -86.5 -4.5t-78 -17.5t-56.5 -37t-22 -64q0 -32 13 -52.5t33 -32.5t43.5 -17t45.5 -5q53 0 88 16.5t56 43t30 59.5t9 67v44zM395 549h-19l103 144h27z" glyph-name="aeacute" horiz-adv-x="879"/>
<glyph unicode="Ǿ" d="M640 632q-42 35 -97 55.5t-120 20.5q-75 0 -138 -27.5t-108.5 -75.5t-70.5 -112.5t-25 -138.5q0 -75 26 -141t74 -115zM670 636q55 -50 86 -121.5t31 -160.5q0 -82 -27.5 -150.5t-76 -118t-115.5 -77.5t-145 -28q-71 0 -132.5 23t-109.5 65l-68 -79l-14 14l68 78 q-51 49 -79.5 118.5t-28.5 154.5q0 82 27.5 150.5t76 118t115 77.5t145.5 28q67 0 125.5 -20.5t106.5 -58.5l67 78l15 -13zM195 84q44 -39 101 -61.5t127 -22.5q77 0 140 27.5t108 75.5t69.5 112.5t24.5 138.5q0 79 -28.5 147t-81.5 118zM377 803h-19l103 144h27z" glyph-name="Oslashacute" horiz-adv-x="872"/>
<glyph unicode="ǿ" d="M479 402q30 -31 47 -74t17 -97t-17.5 -99t-49.5 -77.5t-76.5 -50.5t-97.5 -18q-52 0 -95.5 18t-75.5 50l-66 -66l-14 13l67 67q-26 31 -41 72.5t-15 90.5q0 54 17.5 98.5t49.5 76.5t76 50t97 18q49 0 90.5 -15t73.5 -43l59 59l14 -14zM146 69q27 -30 66.5 -47t89.5 -17 q51 0 91.5 18t69 48.5t43.5 71.5t15 88q0 45 -14.5 85t-42.5 71zM451 401q-28 25 -65 39.5t-84 14.5q-51 0 -91 -17.5t-68.5 -48t-43.5 -71.5t-15 -87q0 -42 12.5 -80t36.5 -68zM251 550h-19l103 144h27z" glyph-name="oslashacute" horiz-adv-x="605"/>
<glyph unicode="Ȁ" glyph-name="Adblgrave" d="M624 0l-84 203h-411l-87 -203h-24l307 708h28l295 -708h-24zM338 694l-201 -472h396zM355 927l103 -144h-19l-111 144h27zM235 927l103 -144h-19l-111 144h27z"/>
<glyph unicode="ȁ" d="M418 104q0 -26 2.5 -55.5t5.5 -48.5h-21q-2 10 -3 24.5t-2.5 30t-2 30.5t-0.5 25h-3q-20 -63 -69 -93.5t-105 -30.5q-28 0 -55.5 8t-49.5 24t-35.5 41t-13.5 59q0 49 25.5 79t63.5 46.5t81.5 21.5t79.5 5h80v37q0 77 -41 112.5t-107 35.5q-41 0 -76.5 -15t-63.5 -40 l-12 17q32 28 72.5 42.5t79.5 14.5q79 0 124.5 -40.5t45.5 -127.5v-202zM396 251h-71q-38 0 -80 -4.5t-77 -18.5t-57.5 -40t-22.5 -70q0 -32 12.5 -53.5t32 -34.5t43 -19t44.5 -6q51 0 85 19t54.5 48.5t28.5 65t8 69.5v44zM268 693l103 -144h-19l-111 144h27zM148 693 l103 -144h-19l-111 144h27z" glyph-name="adblgrave" horiz-adv-x="512"/>
<glyph unicode="Ȃ" glyph-name="Ainvertedbreve" d="M624 0l-84 203h-411l-87 -203h-24l307 708h28l295 -708h-24zM338 694l-201 -472h396zM459 909q-10 -61 -43.5 -93.5t-83.5 -32.5q-49 0 -82.5 32.5t-41.5 93.5h19q10 -52 38 -79t67 -27q45 0 71 25t38 81h18v0z"/>
<glyph unicode="ȃ" d="M418 104q0 -26 2.5 -55.5t5.5 -48.5h-21q-2 10 -3 24.5t-2.5 30t-2 30.5t-0.5 25h-3q-20 -63 -69 -93.5t-105 -30.5q-28 0 -55.5 8t-49.5 24t-35.5 41t-13.5 59q0 49 25.5 79t63.5 46.5t81.5 21.5t79.5 5h80v37q0 77 -41 112.5t-107 35.5q-41 0 -76.5 -15t-63.5 -40 l-12 17q32 28 72.5 42.5t79.5 14.5q79 0 124.5 -40.5t45.5 -127.5v-202zM396 251h-71q-38 0 -80 -4.5t-77 -18.5t-57.5 -40t-22.5 -70q0 -32 12.5 -53.5t32 -34.5t43 -19t44.5 -6q51 0 85 19t54.5 48.5t28.5 65t8 69.5v44zM372 675q-10 -61 -43.5 -93.5t-83.5 -32.5 q-49 0 -82.5 32.5t-41.5 93.5h19q10 -52 38 -79t67 -27q45 0 71 25t38 81h18v0z" glyph-name="ainvertedbreve" horiz-adv-x="512"/>
<glyph unicode="Ȅ" d="M106 0v708h412v-20h-391v-311h368v-20h-368v-337h407v-20h-428zM342 927l103 -144h-19l-111 144h27zM222 927l103 -144h-19l-111 144h27z" glyph-name="Edblgrave" horiz-adv-x="590"/>
<glyph unicode="ȅ" d="M84 235q0 -42 12.5 -83t38 -73.5t64.5 -52.5t92 -20q54 0 96 21.5t73 62.5l16 -14q-34 -44 -79.5 -67t-105.5 -23q-51 0 -93 18.5t-72.5 51.5t-47 79t-16.5 100q0 52 17 96t46.5 76t69.5 49.5t86 17.5q54 0 94 -19t66.5 -50t39.5 -70.5t13 -80.5v-19h-410zM473 254 q-1 45 -15.5 82t-39.5 63.5t-60 41t-78 14.5q-52 0 -89 -21.5t-60.5 -53t-34.5 -66t-11 -60.5h388zM300 693l103 -144h-19l-111 144h27zM180 693l103 -144h-19l-111 144h27z" glyph-name="edblgrave" horiz-adv-x="556"/>
<glyph unicode="Ȇ" d="M106 0v708h412v-20h-391v-311h368v-20h-368v-337h407v-20h-428zM446 909q-10 -61 -43.5 -93.5t-83.5 -32.5q-49 0 -82.5 32.5t-41.5 93.5h19q10 -52 38 -79t67 -27q45 0 71 25t38 81h18v0z" glyph-name="Einvertedbreve" horiz-adv-x="590"/>
<glyph unicode="ȇ" d="M84 235q0 -42 12.5 -83t38 -73.5t64.5 -52.5t92 -20q54 0 96 21.5t73 62.5l16 -14q-34 -44 -79.5 -67t-105.5 -23q-51 0 -93 18.5t-72.5 51.5t-47 79t-16.5 100q0 52 17 96t46.5 76t69.5 49.5t86 17.5q54 0 94 -19t66.5 -50t39.5 -70.5t13 -80.5v-19h-410zM473 254 q-1 45 -15.5 82t-39.5 63.5t-60 41t-78 14.5q-52 0 -89 -21.5t-60.5 -53t-34.5 -66t-11 -60.5h388zM404 675q-10 -61 -43.5 -93.5t-83.5 -32.5q-49 0 -82.5 32.5t-41.5 93.5h19q10 -52 38 -79t67 -27q45 0 71 25t38 81h18v0z" glyph-name="einvertedbreve" horiz-adv-x="556"/>
<glyph unicode="Ȉ" d="M106 0v708h22v-708h-22zM139 927l103 -144h-19l-111 144h27zM19 927l103 -144h-19l-111 144h27z" glyph-name="Idblgrave" horiz-adv-x="234"/>
<glyph unicode="ȉ" d="M102 0v460h22v-460h-22zM135 679l103 -144h-19l-111 144h27zM15 679l103 -144h-19l-111 144h27z" glyph-name="idblgrave" horiz-adv-x="226"/>
<glyph unicode="Ȋ" d="M106 0v708h22v-708h-22zM243 909q-10 -61 -43.5 -93.5t-83.5 -32.5q-49 0 -82.5 32.5t-41.5 93.5h19q10 -52 38 -79t67 -27q45 0 71 25t38 81h18v0z" glyph-name="Iinvertedbreve" horiz-adv-x="234"/>
<glyph unicode="ȋ" d="M102 0v460h22v-460h-22zM239 661q-10 -61 -43.5 -93.5t-83.5 -32.5q-49 0 -82.5 32.5t-41.5 93.5h19q10 -52 38 -79t67 -27q45 0 71 25t38 81h18v0z" glyph-name="iinvertedbreve" horiz-adv-x="226"/>
<glyph unicode="Ȍ" d="M800 354q0 -82 -27.5 -150.5t-76 -118t-115.5 -77.5t-145 -28t-145 28t-115.5 77.5t-76 118t-27.5 150.5t27.5 150.5t76 118t115 77.5t145.5 28t145.5 -28t115 -77.5t76 -118t27.5 -150.5zM778 354q0 74 -25 138.5t-70.5 112.5t-108.5 75.5t-138 27.5t-138 -27.5 t-108.5 -75.5t-70.5 -112.5t-25 -138.5t24.5 -138.5t69.5 -112.5t108 -75.5t140 -27.5t140 27.5t108 75.5t69.5 112.5t24.5 138.5zM458 947l103 -144h-19l-111 144h27zM338 947l103 -144h-19l-111 144h27z" glyph-name="Odblgrave" horiz-adv-x="872"/>
<glyph unicode="ȍ" d="M543 231q0 -54 -17.5 -99t-49.5 -77.5t-76.5 -50.5t-97.5 -18t-97 18t-76 50.5t-49.5 77.5t-17.5 99t17.5 98.5t49.5 76.5t76 50t97 18t97.5 -18t76.5 -50t49.5 -76.5t17.5 -98.5zM521 231q0 46 -15 87t-43.5 71.5t-69 48t-91.5 17.5t-91 -17.5t-68.5 -48t-43.5 -71.5 t-15 -87q0 -47 15 -88t43.5 -71.5t68.5 -48.5t91 -18t91.5 18t69 48.5t43.5 71.5t15 88zM324 693l103 -144h-19l-111 144h27zM204 693l103 -144h-19l-111 144h27z" glyph-name="odblgrave" horiz-adv-x="605"/>
<glyph unicode="Ȏ" d="M800 354q0 -82 -27.5 -150.5t-76 -118t-115.5 -77.5t-145 -28t-145 28t-115.5 77.5t-76 118t-27.5 150.5t27.5 150.5t76 118t115 77.5t145.5 28t145.5 -28t115 -77.5t76 -118t27.5 -150.5zM778 354q0 74 -25 138.5t-70.5 112.5t-108.5 75.5t-138 27.5t-138 -27.5 t-108.5 -75.5t-70.5 -112.5t-25 -138.5t24.5 -138.5t69.5 -112.5t108 -75.5t140 -27.5t140 27.5t108 75.5t69.5 112.5t24.5 138.5zM562 929q-10 -61 -43.5 -93.5t-83.5 -32.5q-49 0 -82.5 32.5t-41.5 93.5h19q10 -52 38 -79t67 -27q45 0 71 25t38 81h18v0z" glyph-name="Oinvertedbreve" horiz-adv-x="872"/>
<glyph unicode="ȏ" d="M543 231q0 -54 -17.5 -99t-49.5 -77.5t-76.5 -50.5t-97.5 -18t-97 18t-76 50.5t-49.5 77.5t-17.5 99t17.5 98.5t49.5 76.5t76 50t97 18t97.5 -18t76.5 -50t49.5 -76.5t17.5 -98.5zM521 231q0 46 -15 87t-43.5 71.5t-69 48t-91.5 17.5t-91 -17.5t-68.5 -48t-43.5 -71.5 t-15 -87q0 -47 15 -88t43.5 -71.5t68.5 -48.5t91 -18t91.5 18t69 48.5t43.5 71.5t15 88zM428 675q-10 -61 -43.5 -93.5t-83.5 -32.5q-49 0 -82.5 32.5t-41.5 93.5h19q10 -52 38 -79t67 -27q45 0 71 25t38 81h18v0z" glyph-name="oinvertedbreve" horiz-adv-x="605"/>
<glyph unicode="Ȑ" d="M508 0l-214 357h-166v-357h-22v708h196q39 0 79 -7t71.5 -26.5t51.5 -53.5t20 -88q0 -50 -19 -83t-49 -53.5t-66.5 -29.5t-71.5 -9l215 -358h-25zM502 533q0 46 -18 76.5t-47.5 48t-68 24.5t-78.5 7h-162v-313h173q98 0 149.5 41t51.5 116zM341 927l103 -144h-19 l-111 144h27zM221 927l103 -144h-19l-111 144h27z" glyph-name="Rdblgrave" horiz-adv-x="594"/>
<glyph unicode="ȑ" d="M128 339q20 72 64 103.5t95 31.5h9t9 -1v-19q-4 1 -7.5 1h-5.5q-44 0 -75 -19.5t-51 -51t-29.5 -70t-9.5 -76.5v-238h-22v344q0 11 -0.5 27t-1 32.5t-1.5 31.5t-2 25h22q1 -10 1.5 -25t1 -32.5t1 -34t0.5 -29.5h2v0zM224 693l103 -144h-19l-111 144h27zM104 693l103 -144 h-19l-111 144h27z" glyph-name="rdblgrave" horiz-adv-x="317"/>
<glyph unicode="Ȓ" d="M508 0l-214 357h-166v-357h-22v708h196q39 0 79 -7t71.5 -26.5t51.5 -53.5t20 -88q0 -50 -19 -83t-49 -53.5t-66.5 -29.5t-71.5 -9l215 -358h-25zM502 533q0 46 -18 76.5t-47.5 48t-68 24.5t-78.5 7h-162v-313h173q98 0 149.5 41t51.5 116zM445 909q-10 -61 -43.5 -93.5 t-83.5 -32.5q-49 0 -82.5 32.5t-41.5 93.5h19q10 -52 38 -79t67 -27q45 0 71 25t38 81h18v0z" glyph-name="Rinvertedbreve" horiz-adv-x="594"/>
<glyph unicode="ȓ" d="M128 339q20 72 64 103.5t95 31.5h9t9 -1v-19q-4 1 -7.5 1h-5.5q-44 0 -75 -19.5t-51 -51t-29.5 -70t-9.5 -76.5v-238h-22v344q0 11 -0.5 27t-1 32.5t-1.5 31.5t-2 25h22q1 -10 1.5 -25t1 -32.5t1 -34t0.5 -29.5h2v0zM328 675q-10 -61 -43.5 -93.5t-83.5 -32.5 q-49 0 -82.5 32.5t-41.5 93.5h19q10 -52 38 -79t67 -27q45 0 71 25t38 81h18v0z" glyph-name="rinvertedbreve" horiz-adv-x="317"/>
<glyph unicode="Ȕ" d="M636 268q0 -60 -14 -112.5t-46 -91.5t-83.5 -61.5t-126.5 -22.5t-126.5 22.5t-83.5 61.5t-46 91.5t-14 112.5v440h22v-436q0 -42 8.5 -89.5t35 -88t75 -67.5t129.5 -27q79 0 127.5 26t75.5 66.5t36 88t9 91.5v436h22v-440v0zM388 927l103 -144h-19l-111 144h27zM268 927 l103 -144h-19l-111 144h27z" glyph-name="Udblgrave" horiz-adv-x="732"/>
<glyph unicode="ȕ" d="M442 121q-11 -32 -29.5 -57.5t-42.5 -42.5t-52 -26t-58 -9q-48 0 -80 17t-51 45t-27 63t-8 71v278h22v-276q0 -29 6 -60.5t22.5 -57.5t44 -43.5t71.5 -17.5q38 0 71.5 15.5t58 44.5t39 70.5t14.5 94.5v230h22v-344q0 -11 0.5 -27t1 -32.5t1.5 -31.5t2 -25h-22 q-1 10 -1.5 25t-1 32.5t-1 34t-0.5 29.5h-2v0zM304 679l103 -144h-19l-111 144h27zM184 679l103 -144h-19l-111 144h27z" glyph-name="udblgrave" horiz-adv-x="572"/>
<glyph unicode="Ȗ" d="M636 268q0 -60 -14 -112.5t-46 -91.5t-83.5 -61.5t-126.5 -22.5t-126.5 22.5t-83.5 61.5t-46 91.5t-14 112.5v440h22v-436q0 -42 8.5 -89.5t35 -88t75 -67.5t129.5 -27q79 0 127.5 26t75.5 66.5t36 88t9 91.5v436h22v-440v0zM492 909q-10 -61 -43.5 -93.5t-83.5 -32.5 q-49 0 -82.5 32.5t-41.5 93.5h19q10 -52 38 -79t67 -27q45 0 71 25t38 81h18v0z" glyph-name="Uinvertedbreve" horiz-adv-x="732"/>
<glyph unicode="ȗ" d="M442 121q-11 -32 -29.5 -57.5t-42.5 -42.5t-52 -26t-58 -9q-48 0 -80 17t-51 45t-27 63t-8 71v278h22v-276q0 -29 6 -60.5t22.5 -57.5t44 -43.5t71.5 -17.5q38 0 71.5 15.5t58 44.5t39 70.5t14.5 94.5v230h22v-344q0 -11 0.5 -27t1 -32.5t1.5 -31.5t2 -25h-22 q-1 10 -1.5 25t-1 32.5t-1 34t-0.5 29.5h-2v0zM408 661q-10 -61 -43.5 -93.5t-83.5 -32.5q-49 0 -82.5 32.5t-41.5 93.5h19q10 -52 38 -79t67 -27q45 0 71 25t38 81h18v0z" glyph-name="uinvertedbreve" horiz-adv-x="572"/>
<glyph unicode="Ș" d="M256 -230h-17l51 185h24zM498 170q0 -45 -17.5 -80.5t-46.5 -60t-68.5 -37t-82.5 -12.5q-66 0 -120.5 23.5t-90.5 63.5l17 15q38 -41 88.5 -61.5t104.5 -20.5q39 0 74 11.5t62 33t42.5 53t15.5 72.5t-17 69t-44 48t-61.5 33.5t-69.5 24.5q-44 14 -80.5 29.5t-63 38 t-41 54t-14.5 76.5q0 44 17.5 78.5t47.5 58t69.5 36t83.5 12.5q54 0 102.5 -20.5t79.5 -58.5l-17 -15q-28 35 -71.5 54.5t-94.5 19.5q-36 0 -70.5 -10t-62.5 -30.5t-45 -51.5t-17 -73q0 -41 15 -69.5t40 -48.5t56.5 -33t64.5 -24q45 -15 84 -30.5t68.5 -37.5t46 -53.5 t16.5 -76.5z" glyph-name="Scommaaccent" horiz-adv-x="570"/>
<glyph unicode="ș" d="M176 -230h-17l51 185h24zM361 120q0 -31 -12 -55.5t-32.5 -41.5t-47.5 -26t-58 -9q-51 0 -92.5 19.5t-68.5 57.5l18 12q50 -70 144 -70q22 0 44.5 7t41 21t30 35t11.5 48q0 32 -14.5 52t-36.5 32t-48.5 19.5t-49.5 13.5q-25 7 -47 15.5t-38.5 22t-26 33.5t-9.5 50t12 52 t32 36.5t45.5 22t51.5 7.5q94 0 141 -67l-19 -11q-23 30 -52 44.5t-70 14.5q-19 0 -40 -5t-38.5 -16.5t-29 -30.5t-11.5 -46q0 -30 9.5 -48t26.5 -29t41 -18.5t53 -14.5q27 -7 52.5 -16.5t45 -23.5t31 -35t11.5 -52z" glyph-name="scommaaccent" horiz-adv-x="415"/>
<glyph unicode="Ț" d="M238 -230h-17l51 185h24zM281 688v-688h-22v688h-241v20h504v-20h-241z" glyph-name="uni021A" horiz-adv-x="540"/>
<glyph unicode="ț" d="M156 -230h-17l51 185h24zM280 -1q-12 -5 -28 -8t-31 -3q-54 0 -77.5 30.5t-23.5 76.5v346h-100v19h99v135h23v-135h135v-19h-135v-346q0 -47 23 -67.5t61 -20.5q28 0 51 9z" glyph-name="uni021B" horiz-adv-x="304"/>
<glyph unicode="Ȟ" d="M604 0v356h-476v-356h-22v708h22v-332h476v332h22v-708h-22zM352 783l-103 144h23l94 -132l94 132h23l-103 -144h-28z" glyph-name="Hcaron" horiz-adv-x="732"/>
<glyph unicode="ȟ" d="M126 339q10 32 28.5 57t42.5 42.5t52 26.5t58 9q48 0 80 -17t51 -45t27 -63t8 -71v-278h-22v276q0 28 -6 60t-22.5 58t-44.5 43.5t-71 17.5q-38 0 -71.5 -15.5t-58 -44.5t-39 -70.5t-14.5 -94.5v-230h-22v756h22v-417h2zM273 831l-103 144h23l94 -132l94 132h23 l-103 -144h-28z" glyph-name="hcaron" horiz-adv-x="569"/>
<glyph unicode="Ȧ" glyph-name="Adotaccent" d="M624 0l-84 203h-411l-87 -203h-24l307 708h28l295 -708h-24zM338 694l-201 -472h396zM333 783q-9 0 -16 7t-7 19q0 11 7 18t16 7t16 -7t7 -18q0 -12 -7.5 -19t-15.5 -7z"/>
<glyph unicode="ȧ" d="M418 104q0 -26 2.5 -55.5t5.5 -48.5h-21q-2 10 -3 24.5t-2.5 30t-2 30.5t-0.5 25h-3q-20 -63 -69 -93.5t-105 -30.5q-28 0 -55.5 8t-49.5 24t-35.5 41t-13.5 59q0 49 25.5 79t63.5 46.5t81.5 21.5t79.5 5h80v37q0 77 -41 112.5t-107 35.5q-41 0 -76.5 -15t-63.5 -40 l-12 17q32 28 72.5 42.5t79.5 14.5q79 0 124.5 -40.5t45.5 -127.5v-202zM396 251h-71q-38 0 -80 -4.5t-77 -18.5t-57.5 -40t-22.5 -70q0 -32 12.5 -53.5t32 -34.5t43 -19t44.5 -6q51 0 85 19t54.5 48.5t28.5 65t8 69.5v44zM246 549q-9 0 -16 7t-7 19q0 11 7 18t16 7t16 -7 t7 -18q0 -12 -7.5 -19t-15.5 -7z" glyph-name="adotaccent" horiz-adv-x="512"/>
<glyph unicode="Ȩ" d="M106 0v708h412v-20h-391v-311h368v-20h-368v-337h407v-20h-428zM421 -146q0 -24 -11.5 -39.5t-28.5 -24.5t-36.5 -12.5t-35.5 -3.5q-19 0 -43.5 5t-46.5 15l5 17q19 -10 43.5 -14t42.5 -4q15 0 30.5 2.5t29 9t22 18.5t8.5 31q0 16 -7 26t-17.5 15.5t-23 7.5t-24.5 2 q-14 0 -35.5 -4t-33.5 -11l-10 9l69 101h21l-59 -86q14 5 27 6.5t27 1.5q15 0 30.5 -3.5t28 -11t20.5 -21t8 -32.5z" glyph-name="Ecedilla" horiz-adv-x="590"/>
<glyph unicode="ȩ" d="M84 235q0 -42 12.5 -83t38 -73.5t64.5 -52.5t92 -20q54 0 96 21.5t73 62.5l16 -14q-34 -44 -79.5 -67t-105.5 -23q-51 0 -93 18.5t-72.5 51.5t-47 79t-16.5 100q0 52 17 96t46.5 76t69.5 49.5t86 17.5q54 0 94 -19t66.5 -50t39.5 -70.5t13 -80.5v-19h-410zM473 254 q-1 45 -15.5 82t-39.5 63.5t-60 41t-78 14.5q-52 0 -89 -21.5t-60.5 -53t-34.5 -66t-11 -60.5h388zM379 -160q0 -24 -11.5 -39.5t-28.5 -24.5t-36.5 -12.5t-35.5 -3.5q-19 0 -43.5 5t-46.5 15l5 17q19 -10 43.5 -14t42.5 -4q15 0 30.5 2.5t29 9t22 18.5t8.5 31q0 16 -7 26 t-17.5 15.5t-23 7.5t-24.5 2q-14 0 -35.5 -4t-33.5 -11l-10 9l69 101h21l-59 -86q14 5 27 6.5t27 1.5q15 0 30.5 -3.5t28 -11t20.5 -21t8 -32.5z" glyph-name="ecedilla" horiz-adv-x="556"/>
<glyph unicode="Ȫ" d="M800 354q0 -82 -27.5 -150.5t-76 -118t-115.5 -77.5t-145 -28t-145 28t-115.5 77.5t-76 118t-27.5 150.5t27.5 150.5t76 118t115 77.5t145.5 28t145.5 -28t115 -77.5t76 -118t27.5 -150.5zM778 354q0 74 -25 138.5t-70.5 112.5t-108.5 75.5t-138 27.5t-138 -27.5 t-108.5 -75.5t-70.5 -112.5t-25 -138.5t24.5 -138.5t69.5 -112.5t108 -75.5t140 -27.5t140 27.5t108 75.5t69.5 112.5t24.5 138.5zM359 803q-9 0 -16 7t-7 19q0 11 7 18t16 7t16 -7t7 -18q0 -12 -7.5 -19t-15.5 -7zM513 803q-9 0 -16 7t-7 19q0 11 7 18t16 7t16 -7t7 -18 q0 -12 -7.5 -19t-15.5 -7zM320 929v20h232v-20h-232z" glyph-name="Odieresismacron" horiz-adv-x="872"/>
<glyph unicode="ȫ" d="M543 231q0 -54 -17.5 -99t-49.5 -77.5t-76.5 -50.5t-97.5 -18t-97 18t-76 50.5t-49.5 77.5t-17.5 99t17.5 98.5t49.5 76.5t76 50t97 18t97.5 -18t76.5 -50t49.5 -76.5t17.5 -98.5zM521 231q0 46 -15 87t-43.5 71.5t-69 48t-91.5 17.5t-91 -17.5t-68.5 -48t-43.5 -71.5 t-15 -87q0 -47 15 -88t43.5 -71.5t68.5 -48.5t91 -18t91.5 18t69 48.5t43.5 71.5t15 88zM225 549q-9 0 -16 7t-7 19q0 11 7 18t16 7t16 -7t7 -18q0 -12 -7.5 -19t-15.5 -7zM379 549q-9 0 -16 7t-7 19q0 11 7 18t16 7t16 -7t7 -18q0 -12 -7.5 -19t-15.5 -7zM186 675v20h232 v-20h-232z" glyph-name="odieresismacron" horiz-adv-x="605"/>
<glyph unicode="Ȭ" d="M800 354q0 -82 -27.5 -150.5t-76 -118t-115.5 -77.5t-145 -28t-145 28t-115.5 77.5t-76 118t-27.5 150.5t27.5 150.5t76 118t115 77.5t145.5 28t145.5 -28t115 -77.5t76 -118t27.5 -150.5zM778 354q0 74 -25 138.5t-70.5 112.5t-108.5 75.5t-138 27.5t-138 -27.5 t-108.5 -75.5t-70.5 -112.5t-25 -138.5t24.5 -138.5t69.5 -112.5t108 -75.5t140 -27.5t140 27.5t108 75.5t69.5 112.5t24.5 138.5zM439 849q13 -8 22 -13t15.5 -7.5t11 -3t10.5 -0.5q33 0 40 48h16q-4 -36 -20 -51.5t-36 -15.5q-16 0 -28.5 5t-35.5 19q-26 16 -37 20t-22 4 q-32 0 -40 -51h-16q4 36 20 53t36 17q16 0 29 -5t35 -19zM320 948v20h232v-20h-232z" glyph-name="Otildemacron" horiz-adv-x="872"/>
<glyph unicode="ȭ" d="M543 231q0 -54 -17.5 -99t-49.5 -77.5t-76.5 -50.5t-97.5 -18t-97 18t-76 50.5t-49.5 77.5t-17.5 99t17.5 98.5t49.5 76.5t76 50t97 18t97.5 -18t76.5 -50t49.5 -76.5t17.5 -98.5zM521 231q0 46 -15 87t-43.5 71.5t-69 48t-91.5 17.5t-91 -17.5t-68.5 -48t-43.5 -71.5 t-15 -87q0 -47 15 -88t43.5 -71.5t68.5 -48.5t91 -18t91.5 18t69 48.5t43.5 71.5t15 88zM305 595q13 -8 22 -13t15.5 -7.5t11 -3t10.5 -0.5q33 0 40 48h16q-4 -36 -20 -51.5t-36 -15.5q-16 0 -28.5 5t-35.5 19q-26 16 -37 20t-22 4q-32 0 -40 -51h-16q4 36 20 53t36 17 q16 0 29 -5t35 -19zM186 694v20h232v-20h-232z" glyph-name="otildemacron" horiz-adv-x="605"/>
<glyph unicode="Ȯ" d="M800 354q0 -82 -27.5 -150.5t-76 -118t-115.5 -77.5t-145 -28t-145 28t-115.5 77.5t-76 118t-27.5 150.5t27.5 150.5t76 118t115 77.5t145.5 28t145.5 -28t115 -77.5t76 -118t27.5 -150.5zM778 354q0 74 -25 138.5t-70.5 112.5t-108.5 75.5t-138 27.5t-138 -27.5 t-108.5 -75.5t-70.5 -112.5t-25 -138.5t24.5 -138.5t69.5 -112.5t108 -75.5t140 -27.5t140 27.5t108 75.5t69.5 112.5t24.5 138.5zM436 803q-9 0 -16 7t-7 19q0 11 7 18t16 7t16 -7t7 -18q0 -12 -7.5 -19t-15.5 -7z" glyph-name="Odotaccent" horiz-adv-x="872"/>
<glyph unicode="ȯ" d="M543 231q0 -54 -17.5 -99t-49.5 -77.5t-76.5 -50.5t-97.5 -18t-97 18t-76 50.5t-49.5 77.5t-17.5 99t17.5 98.5t49.5 76.5t76 50t97 18t97.5 -18t76.5 -50t49.5 -76.5t17.5 -98.5zM521 231q0 46 -15 87t-43.5 71.5t-69 48t-91.5 17.5t-91 -17.5t-68.5 -48t-43.5 -71.5 t-15 -87q0 -47 15 -88t43.5 -71.5t68.5 -48.5t91 -18t91.5 18t69 48.5t43.5 71.5t15 88zM302 549q-9 0 -16 7t-7 19q0 11 7 18t16 7t16 -7t7 -18q0 -12 -7.5 -19t-15.5 -7z" glyph-name="odotaccent" horiz-adv-x="605"/>
<glyph unicode="Ȱ" d="M800 354q0 -82 -27.5 -150.5t-76 -118t-115.5 -77.5t-145 -28t-145 28t-115.5 77.5t-76 118t-27.5 150.5t27.5 150.5t76 118t115 77.5t145.5 28t145.5 -28t115 -77.5t76 -118t27.5 -150.5zM778 354q0 74 -25 138.5t-70.5 112.5t-108.5 75.5t-138 27.5t-138 -27.5 t-108.5 -75.5t-70.5 -112.5t-25 -138.5t24.5 -138.5t69.5 -112.5t108 -75.5t140 -27.5t140 27.5t108 75.5t69.5 112.5t24.5 138.5zM436 803q-9 0 -16 7t-7 19q0 11 7 18t16 7t16 -7t7 -18q0 -12 -7.5 -19t-15.5 -7zM320 929v20h232v-20h-232z" glyph-name="Odotaccentmacron" horiz-adv-x="872"/>
<glyph unicode="ȱ" d="M543 231q0 -54 -17.5 -99t-49.5 -77.5t-76.5 -50.5t-97.5 -18t-97 18t-76 50.5t-49.5 77.5t-17.5 99t17.5 98.5t49.5 76.5t76 50t97 18t97.5 -18t76.5 -50t49.5 -76.5t17.5 -98.5zM521 231q0 46 -15 87t-43.5 71.5t-69 48t-91.5 17.5t-91 -17.5t-68.5 -48t-43.5 -71.5 t-15 -87q0 -47 15 -88t43.5 -71.5t68.5 -48.5t91 -18t91.5 18t69 48.5t43.5 71.5t15 88zM302 549q-9 0 -16 7t-7 19q0 11 7 18t16 7t16 -7t7 -18q0 -12 -7.5 -19t-15.5 -7zM186 675v20h232v-20h-232z" glyph-name="odotaccentmacron" horiz-adv-x="605"/>
<glyph unicode="Ȳ" d="M280 310v-310h-22v310l-243 398h26l229 -376l228 376h25zM153 783v20h232v-20h-232z" glyph-name="Ymacron" horiz-adv-x="538"/>
<glyph unicode="ȳ" d="M176 -152q-16 -43 -42.5 -66.5t-68.5 -23.5q-9 0 -21 2t-20 5l6 19q6 -2 16.5 -4t20.5 -2q21 0 36.5 8t26.5 20.5t18.5 28.5t13.5 32l44 120l-182 473h24l169 -448l163 448h24zM98 535v20h232v-20h-232z" glyph-name="ymacron" horiz-adv-x="428"/>
<glyph unicode="ʻ" d="M133 708h17l-56 -228h-24z" glyph-name="commaturnedmod" horiz-adv-x="220"/>
<glyph unicode="ʼ" d="M87 480h-17l56 228h24z" glyph-name="afii57929" horiz-adv-x="220"/>
<glyph unicode="ˆ" d="M134 708l103 -144h-23l-94 132l-94 -132h-23l103 144h28z" glyph-name="circumflex" horiz-adv-x="240"/>
<glyph unicode="ˇ" d="M106 564l-103 144h23l94 -132l94 132h23l-103 -144h-28z" glyph-name="caron" horiz-adv-x="240"/>
<glyph unicode="ˉ" d="M4 821v20h232v-20h-232z" glyph-name="uni02C9" horiz-adv-x="240"/>
<glyph unicode="˘" d="M245 698q-10 -61 -43.5 -93.5t-83.5 -32.5q-49 0 -82.5 32.5t-41.5 93.5h19q10 -52 38 -79t67 -27q45 0 71 25t38 81h18z" glyph-name="breve" horiz-adv-x="240"/>
<glyph unicode="˙" d="M120 633q-9 0 -16 7t-7 19q0 11 7 18t16 7t16 -7t7 -18q0 -12 -7.5 -19t-15.5 -7z" glyph-name="dotaccent" horiz-adv-x="240"/>
<glyph unicode="˚" d="M197 650q0 32 -22.5 55t-54.5 23t-54.5 -23t-22.5 -55t22.5 -55t54.5 -23t54.5 23t22.5 55zM216 650q0 -20 -7.5 -37.5t-21 -30.5t-31 -20t-36.5 -7q-20 0 -37 7t-30.5 20t-21 30.5t-7.5 37.5t7.5 37.5t21 30t30.5 20t37 7.5q19 0 36.5 -7.5t31 -20t21 -30t7.5 -37.5z " glyph-name="ring" horiz-adv-x="240"/>
<glyph unicode="˛" d="M206 -192q-16 -14 -37.5 -22.5t-44.5 -8.5q-35 0 -59.5 21t-24.5 59q0 39 28 73.5t64 69.5h23q-46 -46 -69.5 -76.5t-23.5 -64.5q0 -30 18 -47t47 -17q20 0 38.5 8t30.5 21z" glyph-name="ogonek" horiz-adv-x="240"/>
<glyph unicode="˜" d="M123 638q13 -8 22 -13t15.5 -7.5t11 -3t10.5 -0.5q33 0 40 48h16q-4 -36 -20 -51.5t-36 -15.5q-16 0 -28.5 5t-35.5 19q-26 16 -37 20t-22 4q-32 0 -40 -51h-16q4 36 20 53t36 17q16 0 29 -5t35 -19z" glyph-name="tilde" horiz-adv-x="240"/>
<glyph unicode="˝" d="M177 563h-19l103 145h27zM60 563h-19l103 145h27z" glyph-name="hungarumlaut" horiz-adv-x="240"/>
<glyph unicode="ˮ" d="M87 480h-17l56 228h24zM215 480h-17l58 228h24z" glyph-name="uni02EE" horiz-adv-x="350"/>
<glyph unicode="̀" d="M-213 708l103 -144h-19l-111 144h27z" glyph-name="gravecmb" horiz-adv-x="0"/>
<glyph unicode="́" d="M-221 564h-19l103 144h27z" glyph-name="acutecmb" horiz-adv-x="0"/>
<glyph unicode="̂" d="M-109 708l103 -144h-23l-94 132l-94 -132h-23l103 144h28z" glyph-name="circumflexcmb" horiz-adv-x="0"/>
<glyph unicode="̃" d="M-120 638q13 -8 22 -13t15.5 -7.5t11 -3t10.5 -0.5q33 0 40 48h16q-4 -36 -20 -51.5t-36 -15.5q-16 0 -28.5 5t-35.5 19q-26 16 -37 20t-22 4q-32 0 -40 -51h-16q4 36 20 53t36 17q16 0 29 -5t35 -19z" glyph-name="tildecmb" horiz-adv-x="0"/>
<glyph unicode="̄" d="M-240 621v20h232v-20h-232z" glyph-name="macroncmb" horiz-adv-x="0"/>
<glyph unicode="̆" d="M11 698q-10 -61 -43.5 -93.5t-83.5 -32.5q-49 0 -82.5 32.5t-41.5 93.5h19q10 -52 38 -79t67 -27q45 0 71 25t38 81h18z" glyph-name="brevecmb" horiz-adv-x="0"/>
<glyph unicode="̇" d="M-217 633q-9 0 -16 7t-7 19q0 11 7 18t16 7t16 -7t7 -18q0 -12 -7.5 -19t-15.5 -7z" glyph-name="dotaccentcmb" horiz-adv-x="0"/>
<glyph unicode="̈" d="M-63 633q-9 0 -16 7t-7 19q0 11 7 18t16 7t16 -7t7 -18q0 -12 -7.5 -19t-15.5 -7zM-217 633q-9 0 -16 7t-7 19q0 11 7 18t16 7t16 -7t7 -18q0 -12 -7.5 -19t-15.5 -7z" glyph-name="dieresiscmb" horiz-adv-x="0"/>
<glyph unicode="̉" d="M106 555q0 18 9.5 31t36.5 26q19 9 27.5 22.5t8.5 27.5q0 23 -16 39t-45 16t-49 -14t-26 -49l-19 3q8 41 32.5 60t61.5 19t59 -21t22 -53q0 -21 -12.5 -39t-36.5 -29q-20 -10 -27 -19t-7 -20h-19z" glyph-name="hookabovecomb" horiz-adv-x="240"/>
<glyph unicode="̊" d="M-67 650q0 32 -22.5 55t-54.5 23t-54.5 -23t-22.5 -55t22.5 -55t54.5 -23t54.5 23t22.5 55zM-48 650q0 -20 -7.5 -37.5t-21 -30.5t-31 -20t-36.5 -7q-20 0 -37 7t-30.5 20t-21 30.5t-7.5 37.5t7.5 37.5t21 30t30.5 20t37 7.5q19 0 36.5 -7.5t31 -20t21 -30t7.5 -37.5z " glyph-name="ringcmb" horiz-adv-x="0"/>
<glyph unicode="̋" d="M-104 563h-19l103 145h27zM-221 563h-19l103 145h27z" glyph-name="hungarumlautcmb" horiz-adv-x="0"/>
<glyph unicode="̌" d="M-137 564l-103 144h23l94 -132l94 132h23l-103 -144h-28z" glyph-name="caroncmb" horiz-adv-x="0"/>
<glyph unicode="̏" d="M-333 708l103 -144h-19l-111 144h27zM-213 708l103 -144h-19l-111 144h27z" glyph-name="doublegravecmb" horiz-adv-x="0"/>
<glyph unicode="̑" d="M0 698q-10 -61 -43.5 -93.5t-83.5 -32.5q-49 0 -82.5 32.5t-41.5 93.5h19q10 -52 38 -79t67 -27q45 0 71 25t38 81h18z" glyph-name="invertedbrevecmb" horiz-adv-x="0"/>
<glyph unicode="̛" d="M-164 460q82 0 82 72q0 14 -4 30t-10 28l23 7q13 -28 13 -65q0 -44 -27 -68t-77 -24q-22 0 -36 3t-22 7q-9 4 -13 10h71z" glyph-name="horncmb" horiz-adv-x="0"/>
<glyph unicode="̣" d="M-217 -121q-9 0 -16 7t-7 19q0 11 7 18t16 7t16 -7t7 -18q0 -12 -7.5 -19t-15.5 -7z" glyph-name="dotbelowcmb" horiz-adv-x="0"/>
<glyph unicode="̤" d="M-63 -121q-9 0 -16 7t-7 19q0 11 7 18t16 7t16 -7t7 -18q0 -12 -7.5 -19t-15.5 -7zM-217 -121q-9 0 -16 7t-7 19q0 11 7 18t16 7t16 -7t7 -18q0 -12 -7.5 -19t-15.5 -7z" glyph-name="dieresisbelowcmb" horiz-adv-x="0"/>
<glyph unicode="̥" d="M-67 -165q0 32 -22.5 55t-54.5 23t-54.5 -23t-22.5 -55t22.5 -55t54.5 -23t54.5 23t22.5 55zM-48 -165q0 -20 -7.5 -37.5t-21 -30.5t-31 -20t-36.5 -7q-20 0 -37 7t-30.5 20t-21 30.5t-7.5 37.5t7.5 37.5t21 30t30.5 20t37 7.5q19 0 36.5 -7.5t31 -20t21 -30t7.5 -37.5z " glyph-name="ringbelowcmb" horiz-adv-x="0"/>
<glyph unicode="̦" d="M-223 -298h-17l57 228h24z" glyph-name="commabelowcmb" horiz-adv-x="0"/>
<glyph unicode="̧" d="M-38 -146q0 -24 -11.5 -39.5t-28.5 -24.5t-36.5 -12.5t-35.5 -3.5q-19 0 -43.5 5t-46.5 15l5 17q19 -10 43.5 -14t42.5 -4q15 0 30.5 2.5t29 9t22 18.5t8.5 31q0 16 -7 26t-17.5 15.5t-23 7.5t-24.5 2q-14 0 -35.5 -4t-33.5 -11l-10 9l69 101h21l-59 -86q14 5 27 6.5 t27 1.5q15 0 30.5 -3.5t28 -11t20.5 -21t8 -32.5z" glyph-name="cedillacmb" horiz-adv-x="0"/>
<glyph unicode="̨" d="M-74 -192q-16 -14 -37.5 -22.5t-44.5 -8.5q-35 0 -59.5 21t-24.5 59q0 39 28 73.5t64 69.5h23q-46 -46 -69.5 -76.5t-23.5 -64.5q0 -30 18 -47t47 -17q20 0 38.5 8t30.5 21z" glyph-name="ogonekcmb" horiz-adv-x="0"/>
<glyph unicode="̭" d="M-109 -70l103 -144h-23l-94 132l-94 -132h-23l103 144h28z" glyph-name="circumflexbelowcmb" horiz-adv-x="0"/>
<glyph unicode="̮" d="M11 -70q-10 -61 -43.5 -93.5t-83.5 -32.5q-49 0 -82.5 32.5t-41.5 93.5h19q10 -52 38 -79t67 -27q45 0 71 25t38 81h18z" glyph-name="brevebelowcmb" horiz-adv-x="0"/>
<glyph unicode="̰" d="M-120 -94q13 -8 22 -13t15.5 -7.5t11 -3t10.5 -0.5q33 0 40 48h16q-4 -36 -20 -51.5t-36 -15.5q-16 0 -28.5 5t-35.5 19q-26 16 -37 20t-22 4q-32 0 -40 -51h-16q4 36 20 53t36 17q16 0 29 -5t35 -19z" glyph-name="tildebelowcmb" horiz-adv-x="0"/>
<glyph unicode="̱" d="M-240 -90v20h232v-20h-232z" glyph-name="macronbelowcmb" horiz-adv-x="0"/>
<glyph unicode="̀" d="M-213 708l103 -144h-19l-111 144h27z" glyph-name="gravetonecmb" horiz-adv-x="0"/>
<glyph unicode="́" d="M-221 564h-19l103 144h27z" glyph-name="acutetonecmb" horiz-adv-x="0"/>
<glyph unicode="̈́" d="M-217 633q-9 0 -16 7t-7 19q0 11 7 18t16 7t16 -7t7 -18q0 -12 -7.5 -19t-15.5 -7zM-63 633q-9 0 -16 7t-7 19q0 11 7 18t16 7t16 -7t7 -18q0 -12 -7.5 -19t-15.5 -7zM-186 759h-19l103 144h27z" glyph-name="dialytikatonoscmb" horiz-adv-x="0"/>
<glyph unicode="͏" glyph-name="combininggraphemejoiner" horiz-adv-x="0"/>
<glyph unicode=";" d="M98 -138h-17l57 228h24zM140 409q-9 0 -16 7t-7 19q0 11 7 18t16 7t16 -7t7 -18q0 -12 -7.5 -19t-15.5 -7z" glyph-name="uni037E" horiz-adv-x="280"/>
<glyph unicode="·" d="M120 229q-9 0 -16 7t-7 19q0 11 7 18t16 7t16 -7t7 -18q0 -12 -7.5 -19t-15.5 -7z" glyph-name="anoteleia" horiz-adv-x="240"/>
<glyph unicode="Ӏ" d="M106 0v708h22v-708h-22z" glyph-name="palochkacyrillic" horiz-adv-x="234"/>
<glyph unicode="Ӕ" d="M491 0v206h-324l-135 -206h-26l460 708h429v-20h-382v-311h358v-20h-358v-337h399v-20h-421zM491 688h-13l-298 -462h311v462z" glyph-name="Aiecyrillic" horiz-adv-x="968"/>
<glyph unicode="ӕ" d="M796 255q-2 45 -15.5 81.5t-37 63t-57 41t-73.5 14.5q-50 0 -84.5 -22.5t-57 -54t-32.5 -65.5t-10 -58h367zM426 338q24 61 74 98.5t114 37.5q51 0 89 -19t63.5 -50t38 -70.5t12.5 -80.5v-19h-389q0 -40 11 -80.5t35 -73.5t61 -53.5t89 -20.5q49 0 90.5 21t70.5 62 l15 -13q-32 -44 -76 -67t-101 -23q-73 0 -127 42t-76 114q-4 -31 -17.5 -59.5t-37.5 -50t-59.5 -34.5t-81.5 -13q-29 0 -57 7t-50.5 22t-36.5 39t-14 58q0 46 25 74t63.5 43.5t83.5 20.5t85 5h84v47q0 75 -40 114t-114 39q-42 0 -78.5 -15t-65.5 -40l-12 17q32 28 74 42.5 t82 14.5q42 0 73.5 -10.5t52.5 -29t32.5 -43.5t14.5 -53zM407 235h-75q-43 0 -86.5 -4.5t-78 -17.5t-56.5 -37t-22 -64q0 -32 13 -52.5t33 -32.5t43.5 -17t45.5 -5q53 0 88 16.5t56 43t30 59.5t9 67v44z" glyph-name="aiecyrillic" horiz-adv-x="879"/>
<glyph unicode="Ḁ" glyph-name="Aringbelow" d="M624 0l-84 203h-411l-87 -203h-24l307 708h28l295 -708h-24zM338 694l-201 -472h396zM429 -170q0 -20 -7.5 -37.5t-21 -30.5t-31 -20t-36.5 -7q-20 0 -37 7t-30.5 20t-21 30.5t-7.5 37.5t7.5 37.5t21 30t30.5 20t37 7.5q19 0 36.5 -7.5t31 -20t21 -30t7.5 -37.5z M410 -170q0 32 -22.5 55t-54.5 23t-54.5 -23t-22.5 -55t22.5 -55t54.5 -23t54.5 23t22.5 55z"/>
<glyph unicode="ḁ" d="M418 104q0 -26 2.5 -55.5t5.5 -48.5h-21q-2 10 -3 24.5t-2.5 30t-2 30.5t-0.5 25h-3q-20 -63 -69 -93.5t-105 -30.5q-28 0 -55.5 8t-49.5 24t-35.5 41t-13.5 59q0 49 25.5 79t63.5 46.5t81.5 21.5t79.5 5h80v37q0 77 -41 112.5t-107 35.5q-41 0 -76.5 -15t-63.5 -40 l-12 17q32 28 72.5 42.5t79.5 14.5q79 0 124.5 -40.5t45.5 -127.5v-202zM396 251h-71q-38 0 -80 -4.5t-77 -18.5t-57.5 -40t-22.5 -70q0 -32 12.5 -53.5t32 -34.5t43 -19t44.5 -6q51 0 85 19t54.5 48.5t28.5 65t8 69.5v44zM342 -184q0 -20 -7.5 -37.5t-21 -30.5t-31 -20 t-36.5 -7q-20 0 -37 7t-30.5 20t-21 30.5t-7.5 37.5t7.5 37.5t21 30t30.5 20t37 7.5q19 0 36.5 -7.5t31 -20t21 -30t7.5 -37.5zM323 -184q0 32 -22.5 55t-54.5 23t-54.5 -23t-22.5 -55t22.5 -55t54.5 -23t54.5 23t22.5 55z" glyph-name="aringbelow" horiz-adv-x="512"/>
<glyph unicode="Ḃ" d="M292 833q-9 0 -16 7t-7 19q0 11 7 18t16 7t16 -7t7 -18q0 -12 -7.5 -19t-15.5 -7zM529 186q0 48 -19.5 82t-49.5 55t-66 30.5t-70 9.5h-196v-343h185q46 0 86 9.5t68.5 29.5t45 51.5t16.5 75.5zM496 538q0 43 -17 72t-45 46t-64.5 24.5t-76.5 7.5h-165v-305h170 q36 0 71.5 9t63.5 27.5t45.5 48t17.5 70.5zM551 189q0 -57 -21.5 -93.5t-55 -57.5t-74 -29.5t-77.5 -8.5h-217v708h193q40 0 79.5 -8t70.5 -27t50 -51t19 -81q0 -38 -12 -66t-32.5 -48t-46.5 -32.5t-53 -18.5v-2q27 -3 58 -14.5t57.5 -33.5t44 -56t17.5 -81z" glyph-name="uni1E02" horiz-adv-x="612"/>
<glyph unicode="ḃ" d="M328 797q-9 0 -16 7t-7 19q0 11 7 18t16 7t16 -7t7 -18q0 -12 -7.5 -19t-15.5 -7zM542 229q0 45 -14.5 86t-41.5 72t-65.5 49.5t-86.5 18.5q-46 0 -84.5 -18t-66.5 -48.5t-44 -71.5t-16 -87t16 -87t44 -71.5t66.5 -48.5t84.5 -18q48 0 86.5 18t65.5 48.5t41.5 71.5 t14.5 86zM127 335q30 69 85.5 104t121.5 35q51 0 93.5 -18.5t73 -51t47 -77.5t16.5 -98q0 -52 -17 -96.5t-47.5 -77t-73 -51t-92.5 -18.5q-33 0 -64.5 9t-58.5 26.5t-49 43t-35 59.5h-3v-124h-22v756h22v-421h3z" glyph-name="uni1E03" horiz-adv-x="626"/>
<glyph unicode="Ḅ" d="M551 189q0 -57 -21.5 -93.5t-55 -57.5t-74 -29.5t-77.5 -8.5h-217v708h193q40 0 79.5 -8t70.5 -27t50 -51t19 -81q0 -38 -12 -66t-32.5 -48t-46.5 -32.5t-53 -18.5v-2q27 -3 58 -14.5t57.5 -33.5t44 -56t17.5 -81zM496 538q0 43 -17 72t-45 46t-64.5 24.5t-76.5 7.5h-165 v-305h170q36 0 71.5 9t63.5 27.5t45.5 48t17.5 70.5zM529 186q0 48 -19.5 82t-49.5 55t-66 30.5t-70 9.5h-196v-343h185q46 0 86 9.5t68.5 29.5t45 51.5t16.5 75.5zM328 -126q-9 0 -16 7t-7 19q0 11 7 18t16 7t16 -7t7 -18q0 -12 -7.5 -19t-15.5 -7z" glyph-name="Bdotbelow" horiz-adv-x="612"/>
<glyph unicode="ḅ" d="M127 335q30 69 85.5 104t121.5 35q51 0 93.5 -18.5t73 -51t47 -77.5t16.5 -98q0 -52 -17 -96.5t-47.5 -77t-73 -51t-92.5 -18.5q-33 0 -64.5 9t-58.5 26.5t-49 43t-35 59.5h-3v-124h-22v756h22v-421h3zM542 229q0 45 -14.5 86t-41.5 72t-65.5 49.5t-86.5 18.5 q-46 0 -84.5 -18t-66.5 -48.5t-44 -71.5t-16 -87t16 -87t44 -71.5t66.5 -48.5t84.5 -18q48 0 86.5 18t65.5 48.5t41.5 71.5t14.5 86zM333 -140q-9 0 -16 7t-7 19q0 11 7 18t16 7t16 -7t7 -18q0 -12 -7.5 -19t-15.5 -7z" glyph-name="bdotbelow" horiz-adv-x="626"/>
<glyph unicode="Ḇ" d="M551 189q0 -57 -21.5 -93.5t-55 -57.5t-74 -29.5t-77.5 -8.5h-217v708h193q40 0 79.5 -8t70.5 -27t50 -51t19 -81q0 -38 -12 -66t-32.5 -48t-46.5 -32.5t-53 -18.5v-2q27 -3 58 -14.5t57.5 -33.5t44 -56t17.5 -81zM496 538q0 43 -17 72t-45 46t-64.5 24.5t-76.5 7.5h-165 v-305h170q36 0 71.5 9t63.5 27.5t45.5 48t17.5 70.5zM529 186q0 48 -19.5 82t-49.5 55t-66 30.5t-70 9.5h-196v-343h185q46 0 86 9.5t68.5 29.5t45 51.5t16.5 75.5zM212 -95v20h232v-20h-232z" glyph-name="Blinebelow" horiz-adv-x="612"/>
<glyph unicode="ḇ" d="M127 335q30 69 85.5 104t121.5 35q51 0 93.5 -18.5t73 -51t47 -77.5t16.5 -98q0 -52 -17 -96.5t-47.5 -77t-73 -51t-92.5 -18.5q-33 0 -64.5 9t-58.5 26.5t-49 43t-35 59.5h-3v-124h-22v756h22v-421h3zM542 229q0 45 -14.5 86t-41.5 72t-65.5 49.5t-86.5 18.5 q-46 0 -84.5 -18t-66.5 -48.5t-44 -71.5t-16 -87t16 -87t44 -71.5t66.5 -48.5t84.5 -18q48 0 86.5 18t65.5 48.5t41.5 71.5t14.5 86zM217 -109v20h232v-20h-232z" glyph-name="blinebelow" horiz-adv-x="626"/>
<glyph unicode="Ḉ" d="M535 -146q0 -24 -11.5 -39.5t-28.5 -24.5t-36.5 -12.5t-35.5 -3.5q-19 0 -43.5 5t-46.5 15l5 17q19 -10 43.5 -14t42.5 -4q15 0 30.5 2.5t29 9t22 18.5t8.5 31q0 16 -7 26t-17.5 15.5t-23 7.5t-24.5 2q-14 0 -35.5 -4t-33.5 -11l-10 9l55 82q-77 3 -140.5 31.5t-109 78 t-71 116.5t-25.5 147q0 81 26.5 150t74.5 118.5t114.5 77.5t145.5 28q66 0 128.5 -22.5t106.5 -68.5l-14 -16q-21 22 -47.5 38.5t-56 27.5t-59.5 16t-58 5q-76 0 -138.5 -27.5t-107 -75.5t-69 -112.5t-24.5 -138.5t24 -138.5t68.5 -112.5t107 -75.5t139.5 -27.5 q66 0 130.5 25.5t106.5 76.5l16 -15q-22 -27 -50.5 -46.5t-60.5 -33t-67 -20t-69 -7.5l-45 -66q14 5 27 6.5t27 1.5q15 0 30.5 -3.5t28 -11t20.5 -21t8 -32.5zM333 803h-19l103 144h27z" glyph-name="Ccedillaacute" horiz-adv-x="724"/>
<glyph unicode="ḉ" d="M399 -146q0 -24 -11.5 -39.5t-28.5 -24.5t-36.5 -12.5t-35.5 -3.5q-19 0 -43.5 5t-46.5 15l5 17q19 -10 43.5 -14t42.5 -4q15 0 30.5 2.5t29 9t22 18.5t8.5 31q0 16 -7 26t-17.5 15.5t-23 7.5t-24.5 2q-14 0 -35.5 -4t-33.5 -11l-10 9l59 87q-49 2 -90 20.5t-71 50.5 t-46.5 76t-16.5 96q0 53 17.5 98t49 77.5t74 51t93.5 18.5q44 0 83.5 -16t67.5 -45l-17 -15q-26 27 -61 42t-73 15q-49 0 -88 -18.5t-66.5 -49.5t-42.5 -72t-15 -86t15 -86t42.5 -71.5t66.5 -48.5t88 -18q38 0 74.5 13t63.5 39l15 -14q-29 -29 -66.5 -42t-75.5 -15l-49 -72 q14 5 27 6.5t27 1.5q15 0 30.5 -3.5t28 -11t20.5 -21t8 -32.5zM209 549h-19l103 144h27z" glyph-name="ccedillaacute" horiz-adv-x="480"/>
<glyph unicode="Ḋ" d="M355 833q-9 0 -16 7t-7 19q0 11 7 18t16 7t16 -7t7 -18q0 -12 -7.5 -19t-15.5 -7zM129 688v-668h173q78 0 146.5 19.5t118.5 60t79 103.5t29 151t-29 151.5t-79 104t-118.5 59.5t-146.5 19h-173zM698 354q0 -92 -30 -158.5t-83 -110t-124.5 -64.5t-153.5 -21h-201v708 h201q82 0 153.5 -20.5t124.5 -64t83 -110.5t30 -159z" glyph-name="uni1E0A" horiz-adv-x="770"/>
<glyph unicode="ḋ" d="M300 797q-9 0 -16 7t-7 19q0 11 7 18t16 7t16 -7t7 -18q0 -12 -7.5 -19t-15.5 -7zM84 229q0 -45 14.5 -86t41.5 -71.5t65.5 -48.5t86.5 -18q46 0 84.5 18t66.5 48.5t44 71.5t16 87t-16 87t-44 71.5t-66.5 48.5t-84.5 18q-48 0 -86.5 -18.5t-65.5 -49.5t-41.5 -72 t-14.5 -86zM502 756h22v-756h-22v124h-3q-30 -68 -85.5 -103t-121.5 -35q-50 0 -92.5 18.5t-73 51t-47.5 77t-17 96.5t17 97t47.5 78t73 51.5t92.5 18.5q66 0 121.5 -35t85.5 -104h3v421z" glyph-name="uni1E0B" horiz-adv-x="626"/>
<glyph unicode="Ḍ" d="M698 354q0 -92 -30 -158.5t-83 -110t-124.5 -64.5t-153.5 -21h-201v708h201q82 0 153.5 -20.5t124.5 -64t83 -110.5t30 -159zM129 688v-668h173q78 0 146.5 19.5t118.5 60t79 103.5t29 151t-29 151.5t-79 104t-118.5 59.5t-146.5 19h-173zM402 -126q-9 0 -16 7t-7 19 q0 11 7 18t16 7t16 -7t7 -18q0 -12 -7.5 -19t-15.5 -7z" glyph-name="Ddotbelow" horiz-adv-x="770"/>
<glyph unicode="ḍ" d="M502 756h22v-756h-22v124h-3q-30 -68 -85.5 -103t-121.5 -35q-50 0 -92.5 18.5t-73 51t-47.5 77t-17 96.5t17 97t47.5 78t73 51.5t92.5 18.5q66 0 121.5 -35t85.5 -104h3v421zM84 229q0 -45 14.5 -86t41.5 -71.5t65.5 -48.5t86.5 -18q46 0 84.5 18t66.5 48.5t44 71.5 t16 87t-16 87t-44 71.5t-66.5 48.5t-84.5 18q-48 0 -86.5 -18.5t-65.5 -49.5t-41.5 -72t-14.5 -86zM293 -140q-9 0 -16 7t-7 19q0 11 7 18t16 7t16 -7t7 -18q0 -12 -7.5 -19t-15.5 -7z" glyph-name="ddotbelow" horiz-adv-x="626"/>
<glyph unicode="Ḏ" d="M698 354q0 -92 -30 -158.5t-83 -110t-124.5 -64.5t-153.5 -21h-201v708h201q82 0 153.5 -20.5t124.5 -64t83 -110.5t30 -159zM129 688v-668h173q78 0 146.5 19.5t118.5 60t79 103.5t29 151t-29 151.5t-79 104t-118.5 59.5t-146.5 19h-173zM286 -95v20h232v-20h-232z" glyph-name="Dlinebelow" horiz-adv-x="770"/>
<glyph unicode="ḏ" d="M502 756h22v-756h-22v124h-3q-30 -68 -85.5 -103t-121.5 -35q-50 0 -92.5 18.5t-73 51t-47.5 77t-17 96.5t17 97t47.5 78t73 51.5t92.5 18.5q66 0 121.5 -35t85.5 -104h3v421zM84 229q0 -45 14.5 -86t41.5 -71.5t65.5 -48.5t86.5 -18q46 0 84.5 18t66.5 48.5t44 71.5 t16 87t-16 87t-44 71.5t-66.5 48.5t-84.5 18q-48 0 -86.5 -18.5t-65.5 -49.5t-41.5 -72t-14.5 -86zM177 -109v20h232v-20h-232z" glyph-name="dlinebelow" horiz-adv-x="626"/>
<glyph unicode="Ḑ" d="M698 354q0 -92 -30 -158.5t-83 -110t-124.5 -64.5t-153.5 -21h-201v708h201q82 0 153.5 -20.5t124.5 -64t83 -110.5t30 -159zM129 688v-668h173q78 0 146.5 19.5t118.5 60t79 103.5t29 151t-29 151.5t-79 104t-118.5 59.5t-146.5 19h-173zM379 -303h-17l57 228h24z" glyph-name="Dcommaaccent" horiz-adv-x="770"/>
<glyph unicode="ḑ" d="M502 756h22v-756h-22v124h-3q-30 -68 -85.5 -103t-121.5 -35q-50 0 -92.5 18.5t-73 51t-47.5 77t-17 96.5t17 97t47.5 78t73 51.5t92.5 18.5q66 0 121.5 -35t85.5 -104h3v421zM84 229q0 -45 14.5 -86t41.5 -71.5t65.5 -48.5t86.5 -18q46 0 84.5 18t66.5 48.5t44 71.5 t16 87t-16 87t-44 71.5t-66.5 48.5t-84.5 18q-48 0 -86.5 -18.5t-65.5 -49.5t-41.5 -72t-14.5 -86zM270 -317h-17l57 228h24z" glyph-name="dcommaaccent" horiz-adv-x="626"/>
<glyph unicode="Ḓ" d="M698 354q0 -92 -30 -158.5t-83 -110t-124.5 -64.5t-153.5 -21h-201v708h201q82 0 153.5 -20.5t124.5 -64t83 -110.5t30 -159zM129 688v-668h173q78 0 146.5 19.5t118.5 60t79 103.5t29 151t-29 151.5t-79 104t-118.5 59.5t-146.5 19h-173zM416 -75l103 -144h-23l-94 132 l-94 -132h-23l103 144h28z" glyph-name="Dcircumflexbelow" horiz-adv-x="770"/>
<glyph unicode="ḓ" d="M502 756h22v-756h-22v124h-3q-30 -68 -85.5 -103t-121.5 -35q-50 0 -92.5 18.5t-73 51t-47.5 77t-17 96.5t17 97t47.5 78t73 51.5t92.5 18.5q66 0 121.5 -35t85.5 -104h3v421zM84 229q0 -45 14.5 -86t41.5 -71.5t65.5 -48.5t86.5 -18q46 0 84.5 18t66.5 48.5t44 71.5 t16 87t-16 87t-44 71.5t-66.5 48.5t-84.5 18q-48 0 -86.5 -18.5t-65.5 -49.5t-41.5 -72t-14.5 -86zM307 -89l103 -144h-23l-94 132l-94 -132h-23l103 144h28z" glyph-name="dcircumflexbelow" horiz-adv-x="626"/>
<glyph unicode="Ḕ" d="M106 0v708h412v-20h-391v-311h368v-20h-368v-337h407v-20h-428zM204 783v20h232v-20h-232zM282 1022l103 -144h-19l-111 144h27z" glyph-name="Emacrongrave" horiz-adv-x="590"/>
<glyph unicode="ḕ" d="M84 235q0 -42 12.5 -83t38 -73.5t64.5 -52.5t92 -20q54 0 96 21.5t73 62.5l16 -14q-34 -44 -79.5 -67t-105.5 -23q-51 0 -93 18.5t-72.5 51.5t-47 79t-16.5 100q0 52 17 96t46.5 76t69.5 49.5t86 17.5q54 0 94 -19t66.5 -50t39.5 -70.5t13 -80.5v-19h-410zM473 254 q-1 45 -15.5 82t-39.5 63.5t-60 41t-78 14.5q-52 0 -89 -21.5t-60.5 -53t-34.5 -66t-11 -60.5h388zM162 549v20h232v-20h-232zM240 788l103 -144h-19l-111 144h27z" glyph-name="emacrongrave" horiz-adv-x="556"/>
<glyph unicode="Ḗ" d="M106 0v708h412v-20h-391v-311h368v-20h-368v-337h407v-20h-428zM204 783v20h232v-20h-232zM274 878h-19l103 144h27z" glyph-name="Emacronacute" horiz-adv-x="590"/>
<glyph unicode="ḗ" d="M84 235q0 -42 12.5 -83t38 -73.5t64.5 -52.5t92 -20q54 0 96 21.5t73 62.5l16 -14q-34 -44 -79.5 -67t-105.5 -23q-51 0 -93 18.5t-72.5 51.5t-47 79t-16.5 100q0 52 17 96t46.5 76t69.5 49.5t86 17.5q54 0 94 -19t66.5 -50t39.5 -70.5t13 -80.5v-19h-410zM473 254 q-1 45 -15.5 82t-39.5 63.5t-60 41t-78 14.5q-52 0 -89 -21.5t-60.5 -53t-34.5 -66t-11 -60.5h388zM162 549v20h232v-20h-232zM232 644h-19l103 144h27z" glyph-name="emacronacute" horiz-adv-x="556"/>
<glyph unicode="Ḙ" d="M106 0v708h412v-20h-391v-311h368v-20h-368v-337h407v-20h-428zM334 -75l103 -144h-23l-94 132l-94 -132h-23l103 144h28z" glyph-name="Ecircumflexbelow" horiz-adv-x="590"/>
<glyph unicode="ḙ" d="M84 235q0 -42 12.5 -83t38 -73.5t64.5 -52.5t92 -20q54 0 96 21.5t73 62.5l16 -14q-34 -44 -79.5 -67t-105.5 -23q-51 0 -93 18.5t-72.5 51.5t-47 79t-16.5 100q0 52 17 96t46.5 76t69.5 49.5t86 17.5q54 0 94 -19t66.5 -50t39.5 -70.5t13 -80.5v-19h-410zM473 254 q-1 45 -15.5 82t-39.5 63.5t-60 41t-78 14.5q-52 0 -89 -21.5t-60.5 -53t-34.5 -66t-11 -60.5h388zM292 -89l103 -144h-23l-94 132l-94 -132h-23l103 144h28z" glyph-name="ecircumflexbelow" horiz-adv-x="556"/>
<glyph unicode="Ḛ" d="M106 0v708h412v-20h-391v-311h368v-20h-368v-337h407v-20h-428zM323 -99q13 -8 22 -13t15.5 -7.5t11 -3t10.5 -0.5q33 0 40 48h16q-4 -36 -20 -51.5t-36 -15.5q-16 0 -28.5 5t-35.5 19q-26 16 -37 20t-22 4q-32 0 -40 -51h-16q4 36 20 53t36 17q16 0 29 -5t35 -19z" glyph-name="Etildebelow" horiz-adv-x="590"/>
<glyph unicode="ḛ" d="M84 235q0 -42 12.5 -83t38 -73.5t64.5 -52.5t92 -20q54 0 96 21.5t73 62.5l16 -14q-34 -44 -79.5 -67t-105.5 -23q-51 0 -93 18.5t-72.5 51.5t-47 79t-16.5 100q0 52 17 96t46.5 76t69.5 49.5t86 17.5q54 0 94 -19t66.5 -50t39.5 -70.5t13 -80.5v-19h-410zM473 254 q-1 45 -15.5 82t-39.5 63.5t-60 41t-78 14.5q-52 0 -89 -21.5t-60.5 -53t-34.5 -66t-11 -60.5h388zM281 -113q13 -8 22 -13t15.5 -7.5t11 -3t10.5 -0.5q33 0 40 48h16q-4 -36 -20 -51.5t-36 -15.5q-16 0 -28.5 5t-35.5 19q-26 16 -37 20t-22 4q-32 0 -40 -51h-16q4 36 20 53 t36 17q16 0 29 -5t35 -19z" glyph-name="etildebelow" horiz-adv-x="556"/>
<glyph unicode="Ḝ" d="M106 0v708h412v-20h-391v-311h368v-20h-368v-337h407v-20h-428zM446 909q-10 -61 -43.5 -93.5t-83.5 -32.5q-49 0 -82.5 32.5t-41.5 93.5h19q10 -52 38 -79t67 -27q45 0 71 25t38 81h18v0zM421 -146q0 -24 -11.5 -39.5t-28.5 -24.5t-36.5 -12.5t-35.5 -3.5q-19 0 -43.5 5 t-46.5 15l5 17q19 -10 43.5 -14t42.5 -4q15 0 30.5 2.5t29 9t22 18.5t8.5 31q0 16 -7 26t-17.5 15.5t-23 7.5t-24.5 2q-14 0 -35.5 -4t-33.5 -11l-10 9l69 101h21l-59 -86q14 5 27 6.5t27 1.5q15 0 30.5 -3.5t28 -11t20.5 -21t8 -32.5z" glyph-name="Ecedillabreve" horiz-adv-x="590"/>
<glyph unicode="ḝ" d="M84 235q0 -42 12.5 -83t38 -73.5t64.5 -52.5t92 -20q54 0 96 21.5t73 62.5l16 -14q-34 -44 -79.5 -67t-105.5 -23q-51 0 -93 18.5t-72.5 51.5t-47 79t-16.5 100q0 52 17 96t46.5 76t69.5 49.5t86 17.5q54 0 94 -19t66.5 -50t39.5 -70.5t13 -80.5v-19h-410zM473 254 q-1 45 -15.5 82t-39.5 63.5t-60 41t-78 14.5q-52 0 -89 -21.5t-60.5 -53t-34.5 -66t-11 -60.5h388zM404 675q-10 -61 -43.5 -93.5t-83.5 -32.5q-49 0 -82.5 32.5t-41.5 93.5h19q10 -52 38 -79t67 -27q45 0 71 25t38 81h18v0zM379 -160q0 -24 -11.5 -39.5t-28.5 -24.5 t-36.5 -12.5t-35.5 -3.5q-19 0 -43.5 5t-46.5 15l5 17q19 -10 43.5 -14t42.5 -4q15 0 30.5 2.5t29 9t22 18.5t8.5 31q0 16 -7 26t-17.5 15.5t-23 7.5t-24.5 2q-14 0 -35.5 -4t-33.5 -11l-10 9l69 101h21l-59 -86q14 5 27 6.5t27 1.5q15 0 30.5 -3.5t28 -11t20.5 -21t8 -32.5 z" glyph-name="ecedillabreve" horiz-adv-x="556"/>
<glyph unicode="Ḟ" d="M308 833q-9 0 -16 7t-7 19q0 11 7 18t16 7t16 -7t7 -18q0 -12 -7.5 -19t-15.5 -7zM128 688v-311h355v-20h-355v-357h-22v708h404v-20h-382z" glyph-name="uni1E1E" horiz-adv-x="560"/>
<glyph unicode="ḟ" d="M160 853q-9 0 -16 7t-7 19q0 11 7 18t16 7t16 -7t7 -18q0 -12 -7.5 -19t-15.5 -7zM282 745q-10 2 -20 3.5t-21 1.5q-27 0 -46 -11t-30.5 -28.5t-16.5 -39.5t-5 -45v-166h125v-19h-125v-441h-22v441h-97v19h96v165q0 42 11 70t28.5 44t38.5 22.5t42 6.5q26 0 46 -6z" glyph-name="uni1E1F" horiz-adv-x="282"/>
<glyph unicode="Ḡ" d="M699 41q-42 -23 -106 -42t-148 -19t-153 29t-118 79.5t-75.5 119t-26.5 148.5t27 148.5t75.5 118t116.5 77.5t150 28q72 0 132 -22t106 -60l-16 -16q-20 19 -46.5 33.5t-56 24.5t-60.5 15t-60 5q-78 0 -142 -27.5t-109.5 -75.5t-70 -112t-24.5 -137t24 -138t69.5 -113.5 t111 -76.5t148.5 -28q72 0 128 15t103 38v278h-184v19h205v-309v0zM269 803v20h232v-20h-232z" glyph-name="Gmacron" horiz-adv-x="795"/>
<glyph unicode="ḡ" d="M502 124h-3q-13 -34 -35 -59.5t-49 -43t-58.5 -26.5t-64.5 -9q-50 0 -92.5 18.5t-73 51t-47.5 77t-17 96.5t17 97t47.5 78t73 51.5t92.5 18.5q66 0 121.5 -35t85.5 -104h3v125h22v-434q0 -55 -11.5 -105t-38 -88t-70 -60.5t-107.5 -22.5q-65 0 -116 22.5t-87 63.5l15 15 q38 -43 86.5 -62.5t101.5 -19.5q60 0 100 22t63 58t32.5 82.5t9.5 96.5v96zM84 229q0 -45 14.5 -86t41.5 -72t65.5 -49t86.5 -18q46 0 84.5 18t66.5 49t44 72t16 87t-16 87t-44 71.5t-66.5 48.5t-84.5 18q-48 0 -86.5 -18.5t-65.5 -49.5t-41.5 -72t-14.5 -86zM177 549v20 h232v-20h-232z" glyph-name="gmacron" horiz-adv-x="626"/>
<glyph unicode="Ḣ" d="M367 833q-9 0 -16 7t-7 19q0 11 7 18t16 7t16 -7t7 -18q0 -12 -7.5 -19t-15.5 -7zM604 0v356h-476v-356h-22v708h22v-332h476v332h22v-708h-22z" glyph-name="uni1E22" horiz-adv-x="732"/>
<glyph unicode="ḣ" d="M284 797q-9 0 -16 7t-7 19q0 11 7 18t16 7t16 -7t7 -18q0 -12 -7.5 -19t-15.5 -7zM126 339q10 32 28.5 57t42.5 42.5t52 26.5t58 9q48 0 80 -17t51 -45t27 -63t8 -71v-278h-22v276q0 28 -6 60t-22.5 58t-44.5 43.5t-71 17.5q-38 0 -71.5 -15.5t-58 -44.5t-39 -70.5 t-14.5 -94.5v-230h-22v756h22v-417h2z" glyph-name="uni1E23" horiz-adv-x="569"/>
<glyph unicode="Ḥ" d="M604 0v356h-476v-356h-22v708h22v-332h476v332h22v-708h-22zM366 -126q-9 0 -16 7t-7 19q0 11 7 18t16 7t16 -7t7 -18q0 -12 -7.5 -19t-15.5 -7z" glyph-name="Hdotbelow" horiz-adv-x="732"/>
<glyph unicode="ḥ" d="M126 339q10 32 28.5 57t42.5 42.5t52 26.5t58 9q48 0 80 -17t51 -45t27 -63t8 -71v-278h-22v276q0 28 -6 60t-22.5 58t-44.5 43.5t-71 17.5q-38 0 -71.5 -15.5t-58 -44.5t-39 -70.5t-14.5 -94.5v-230h-22v756h22v-417h2zM287 -126q-9 0 -16 7t-7 19q0 11 7 18t16 7t16 -7 t7 -18q0 -12 -7.5 -19t-15.5 -7z" glyph-name="hdotbelow" horiz-adv-x="569"/>
<glyph unicode="Ḧ" d="M604 0v356h-476v-356h-22v708h22v-332h476v332h22v-708h-22zM289 783q-9 0 -16 7t-7 19q0 11 7 18t16 7t16 -7t7 -18q0 -12 -7.5 -19t-15.5 -7zM443 783q-9 0 -16 7t-7 19q0 11 7 18t16 7t16 -7t7 -18q0 -12 -7.5 -19t-15.5 -7z" glyph-name="Hdieresis" horiz-adv-x="732"/>
<glyph unicode="ḧ" d="M126 339q10 32 28.5 57t42.5 42.5t52 26.5t58 9q48 0 80 -17t51 -45t27 -63t8 -71v-278h-22v276q0 28 -6 60t-22.5 58t-44.5 43.5t-71 17.5q-38 0 -71.5 -15.5t-58 -44.5t-39 -70.5t-14.5 -94.5v-230h-22v756h22v-417h2zM210 831q-9 0 -16 7t-7 19q0 11 7 18t16 7t16 -7 t7 -18q0 -12 -7.5 -19t-15.5 -7zM364 831q-9 0 -16 7t-7 19q0 11 7 18t16 7t16 -7t7 -18q0 -12 -7.5 -19t-15.5 -7z" glyph-name="hdieresis" horiz-adv-x="569"/>
<glyph unicode="Ḩ" d="M604 0v356h-476v-356h-22v708h22v-332h476v332h22v-708h-22zM219 -146q0 -24 -11.5 -39.5t-28.5 -24.5t-36.5 -12.5t-35.5 -3.5q-19 0 -43.5 5t-46.5 15l5 17q19 -10 43.5 -14t42.5 -4q15 0 30.5 2.5t29 9t22 18.5t8.5 31q0 16 -7 26t-17.5 15.5t-23 7.5t-24.5 2 q-14 0 -35.5 -4t-33.5 -11l-10 9l69 101h21l-59 -86q14 5 27 6.5t27 1.5q15 0 30.5 -3.5t28 -11t20.5 -21t8 -32.5z" glyph-name="Hcedilla" horiz-adv-x="732"/>
<glyph unicode="ḩ" d="M126 339q10 32 28.5 57t42.5 42.5t52 26.5t58 9q48 0 80 -17t51 -45t27 -63t8 -71v-278h-22v276q0 28 -6 60t-22.5 58t-44.5 43.5t-71 17.5q-38 0 -71.5 -15.5t-58 -44.5t-39 -70.5t-14.5 -94.5v-230h-22v756h22v-417h2zM219 -146q0 -24 -11.5 -39.5t-28.5 -24.5 t-36.5 -12.5t-35.5 -3.5q-19 0 -43.5 5t-46.5 15l5 17q19 -10 43.5 -14t42.5 -4q15 0 30.5 2.5t29 9t22 18.5t8.5 31q0 16 -7 26t-17.5 15.5t-23 7.5t-24.5 2q-14 0 -35.5 -4t-33.5 -11l-10 9l69 101h21l-59 -86q14 5 27 6.5t27 1.5q15 0 30.5 -3.5t28 -11t20.5 -21t8 -32.5 z" glyph-name="hcedilla" horiz-adv-x="569"/>
<glyph unicode="Ḫ" d="M604 0v356h-476v-356h-22v708h22v-332h476v332h22v-708h-22zM492 -75q-10 -61 -43.5 -93.5t-83.5 -32.5q-49 0 -82.5 32.5t-41.5 93.5h19q10 -52 38 -79t67 -27q45 0 71 25t38 81h18v0z" glyph-name="Hbrevebelow" horiz-adv-x="732"/>
<glyph unicode="ḫ" d="M126 339q10 32 28.5 57t42.5 42.5t52 26.5t58 9q48 0 80 -17t51 -45t27 -63t8 -71v-278h-22v276q0 28 -6 60t-22.5 58t-44.5 43.5t-71 17.5q-38 0 -71.5 -15.5t-58 -44.5t-39 -70.5t-14.5 -94.5v-230h-22v756h22v-417h2zM413 -75q-10 -61 -43.5 -93.5t-83.5 -32.5 q-49 0 -82.5 32.5t-41.5 93.5h19q10 -52 38 -79t67 -27q45 0 71 25t38 81h18v0z" glyph-name="hbrevebelow" horiz-adv-x="569"/>
<glyph unicode="Ḭ" d="M106 0v708h22v-708h-22zM120 -99q13 -8 22 -13t15.5 -7.5t11 -3t10.5 -0.5q33 0 40 48h16q-4 -36 -20 -51.5t-36 -15.5q-16 0 -28.5 5t-35.5 19q-26 16 -37 20t-22 4q-32 0 -40 -51h-16q4 36 20 53t36 17q16 0 29 -5t35 -19z" glyph-name="Itildebelow" horiz-adv-x="234"/>
<glyph unicode="ḭ" d="M113 633q-9 0 -16 7t-7 19q0 11 7 18t16 7t16 -7t7 -18q0 -12 -7.5 -19t-15.5 -7zM102 0v460h22v-460h-22zM116 -99q13 -8 22 -13t15.5 -7.5t11 -3t10.5 -0.5q33 0 40 48h16q-4 -36 -20 -51.5t-36 -15.5q-16 0 -28.5 5t-35.5 19q-26 16 -37 20t-22 4q-32 0 -40 -51h-16 q4 36 20 53t36 17q16 0 29 -5t35 -19z" glyph-name="itildebelow" horiz-adv-x="226"/>
<glyph unicode="Ḯ" d="M106 0v708h22v-708h-22zM40 783q-9 0 -16 7t-7 19q0 11 7 18t16 7t16 -7t7 -18q0 -12 -7.5 -19t-15.5 -7zM194 783q-9 0 -16 7t-7 19q0 11 7 18t16 7t16 -7t7 -18q0 -12 -7.5 -19t-15.5 -7zM71 909h-19l103 144h27z" glyph-name="Idieresisacute" horiz-adv-x="234"/>
<glyph unicode="ḯ" d="M102 0v460h22v-460h-22zM36 535q-9 0 -16 7t-7 19q0 11 7 18t16 7t16 -7t7 -18q0 -12 -7.5 -19t-15.5 -7zM190 535q-9 0 -16 7t-7 19q0 11 7 18t16 7t16 -7t7 -18q0 -12 -7.5 -19t-15.5 -7zM67 661h-19l103 144h27z" glyph-name="idieresisacute" horiz-adv-x="226"/>
<glyph unicode="Ḱ" d="M129 383l356 325h32l-360 -325l378 -383h-31l-375 381h-1v-381h-22v708h22v-325h1zM274 783h-19l103 144h27z" glyph-name="Kacute" horiz-adv-x="565"/>
<glyph unicode="ḱ" d="M125 248l238 212h31l-243 -213l271 -247h-33l-264 243h-1v-243h-22v756h22v-508h1zM216 831h-19l103 144h27z" glyph-name="kacute" horiz-adv-x="445"/>
<glyph unicode="Ḳ" d="M129 383l356 325h32l-360 -325l378 -383h-31l-375 381h-1v-381h-22v708h22v-325h1zM320 -126q-9 0 -16 7t-7 19q0 11 7 18t16 7t16 -7t7 -18q0 -12 -7.5 -19t-15.5 -7z" glyph-name="Kdotbelow" horiz-adv-x="565"/>
<glyph unicode="ḳ" d="M125 248l238 212h31l-243 -213l271 -247h-33l-264 243h-1v-243h-22v756h22v-508h1zM262 -126q-9 0 -16 7t-7 19q0 11 7 18t16 7t16 -7t7 -18q0 -12 -7.5 -19t-15.5 -7z" glyph-name="kdotbelow" horiz-adv-x="445"/>
<glyph unicode="Ḵ" d="M129 383l356 325h32l-360 -325l378 -383h-31l-375 381h-1v-381h-22v708h22v-325h1zM204 -95v20h232v-20h-232z" glyph-name="Klinebelow" horiz-adv-x="565"/>
<glyph unicode="ḵ" d="M125 248l238 212h31l-243 -213l271 -247h-33l-264 243h-1v-243h-22v756h22v-508h1zM146 -95v20h232v-20h-232z" glyph-name="klinebelow" horiz-adv-x="445"/>
<glyph unicode="Ḷ" d="M106 0v708h22v-688h352v-20h-374zM293 -126q-9 0 -16 7t-7 19q0 11 7 18t16 7t16 -7t7 -18q0 -12 -7.5 -19t-15.5 -7z" glyph-name="Ldotbelow" horiz-adv-x="498"/>
<glyph unicode="ḷ" d="M102 0v756h22v-756h-22zM113 -126q-9 0 -16 7t-7 19q0 11 7 18t16 7t16 -7t7 -18q0 -12 -7.5 -19t-15.5 -7z" glyph-name="ldotbelow" horiz-adv-x="226"/>
<glyph unicode="Ḹ" d="M106 0v708h22v-688h352v-20h-374zM293 -126q-9 0 -16 7t-7 19q0 11 7 18t16 7t16 -7t7 -18q0 -12 -7.5 -19t-15.5 -7zM177 783v20h232v-20h-232z" glyph-name="Ldotbelowmacron" horiz-adv-x="498"/>
<glyph unicode="ḹ" d="M102 0v756h22v-756h-22zM113 -126q-9 0 -16 7t-7 19q0 11 7 18t16 7t16 -7t7 -18q0 -12 -7.5 -19t-15.5 -7zM-3 831v20h232v-20h-232z" glyph-name="ldotbelowmacron" horiz-adv-x="226"/>
<glyph unicode="Ḻ" d="M106 0v708h22v-688h352v-20h-374zM177 -95v20h232v-20h-232z" glyph-name="Llinebelow" horiz-adv-x="498"/>
<glyph unicode="ḻ" d="M102 0v756h22v-756h-22zM-3 -95v20h232v-20h-232z" glyph-name="llinebelow" horiz-adv-x="226"/>
<glyph unicode="Ḽ" d="M106 0v708h22v-688h352v-20h-374zM307 -75l103 -144h-23l-94 132l-94 -132h-23l103 144h28z" glyph-name="Lcircumflexbelow" horiz-adv-x="498"/>
<glyph unicode="ḽ" d="M102 0v756h22v-756h-22zM127 -75l103 -144h-23l-94 132l-94 -132h-23l103 144h28z" glyph-name="lcircumflexbelow" horiz-adv-x="226"/>
<glyph unicode="Ḿ" d="M778 0v683h-4l-313 -683h-18l-312 683h-3v-683h-22v708h39l308 -676l308 676h39v-708h-22zM407 783h-19l103 144h27z" glyph-name="Macute" horiz-adv-x="906"/>
<glyph unicode="ḿ" d="M454 333q20 68 68 104.5t109 36.5q46 0 77.5 -17t50 -45t26.5 -63t8 -71v-278h-22v276q0 28 -6.5 60t-22.5 58t-43 43.5t-68 17.5q-36 0 -67.5 -15.5t-55 -44.5t-37.5 -70.5t-14 -94.5v-230h-22v276q0 28 -5.5 60t-20.5 58t-41.5 43.5t-67.5 17.5q-36 0 -67.5 -15.5 t-55 -44.5t-37 -70.5t-13.5 -94.5v-230h-22v344q0 11 -0.5 27t-1 32.5t-1.5 31.5t-2 25h22q1 -10 1.5 -25t1 -32.5t1 -34t0.5 -29.5h2q10 32 28 57t40.5 42.5t49 26.5t54.5 9q36 0 62.5 -11t44.5 -30t29 -44.5t16 -55.5h2zM400 549h-19l103 144h27z" glyph-name="macute" horiz-adv-x="889"/>
<glyph unicode="Ṁ" d="M778 0v683h-4l-313 -683h-18l-312 683h-3v-683h-22v708h39l308 -676l308 676h39v-708h-22zM453 783q-9 0 -16 7t-7 19q0 11 7 18t16 7t16 -7t7 -18q0 -12 -7.5 -19t-15.5 -7z" glyph-name="Mdotaccent" horiz-adv-x="906"/>
<glyph unicode="ṁ" d="M454 333q20 68 68 104.5t109 36.5q46 0 77.5 -17t50 -45t26.5 -63t8 -71v-278h-22v276q0 28 -6.5 60t-22.5 58t-43 43.5t-68 17.5q-36 0 -67.5 -15.5t-55 -44.5t-37.5 -70.5t-14 -94.5v-230h-22v276q0 28 -5.5 60t-20.5 58t-41.5 43.5t-67.5 17.5q-36 0 -67.5 -15.5 t-55 -44.5t-37 -70.5t-13.5 -94.5v-230h-22v344q0 11 -0.5 27t-1 32.5t-1.5 31.5t-2 25h22q1 -10 1.5 -25t1 -32.5t1 -34t0.5 -29.5h2q10 32 28 57t40.5 42.5t49 26.5t54.5 9q36 0 62.5 -11t44.5 -30t29 -44.5t16 -55.5h2zM446 549q-9 0 -16 7t-7 19q0 11 7 18t16 7t16 -7 t7 -18q0 -12 -7.5 -19t-15.5 -7z" glyph-name="mdotaccent" horiz-adv-x="889"/>
<glyph unicode="Ṃ" d="M778 0v683h-4l-313 -683h-18l-312 683h-3v-683h-22v708h39l308 -676l308 676h39v-708h-22zM453 -126q-9 0 -16 7t-7 19q0 11 7 18t16 7t16 -7t7 -18q0 -12 -7.5 -19t-15.5 -7z" glyph-name="Mdotbelow" horiz-adv-x="906"/>
<glyph unicode="ṃ" d="M454 333q20 68 68 104.5t109 36.5q46 0 77.5 -17t50 -45t26.5 -63t8 -71v-278h-22v276q0 28 -6.5 60t-22.5 58t-43 43.5t-68 17.5q-36 0 -67.5 -15.5t-55 -44.5t-37.5 -70.5t-14 -94.5v-230h-22v276q0 28 -5.5 60t-20.5 58t-41.5 43.5t-67.5 17.5q-36 0 -67.5 -15.5 t-55 -44.5t-37 -70.5t-13.5 -94.5v-230h-22v344q0 11 -0.5 27t-1 32.5t-1.5 31.5t-2 25h22q1 -10 1.5 -25t1 -32.5t1 -34t0.5 -29.5h2q10 32 28 57t40.5 42.5t49 26.5t54.5 9q36 0 62.5 -11t44.5 -30t29 -44.5t16 -55.5h2zM446 -126q-9 0 -16 7t-7 19q0 11 7 18t16 7t16 -7 t7 -18q0 -12 -7.5 -19t-15.5 -7z" glyph-name="mdotbelow" horiz-adv-x="889"/>
<glyph unicode="Ṅ" d="M639 0l-508 680h-3v-680h-22v708h31l509 -679h3v679h22v-708h-32zM388 783q-9 0 -16 7t-7 19q0 11 7 18t16 7t16 -7t7 -18q0 -12 -7.5 -19t-15.5 -7z" glyph-name="Ndotaccent" horiz-adv-x="777"/>
<glyph unicode="ṅ" d="M128 339q10 32 29 57t43 42.5t52 26.5t58 9q48 0 80 -17t51 -45t27 -63t8 -71v-278h-22v276q0 28 -6 60t-22.5 58t-44.5 43.5t-71 17.5q-38 0 -71.5 -15.5t-58 -44.5t-39 -70.5t-14.5 -94.5v-230h-22v344q0 11 -0.5 27t-1 32.5t-1.5 31.5t-2 25h22q1 -10 1.5 -25t1 -32.5 t1 -34t0.5 -29.5h2v0zM288 549q-9 0 -16 7t-7 19q0 11 7 18t16 7t16 -7t7 -18q0 -12 -7.5 -19t-15.5 -7z" glyph-name="ndotaccent" horiz-adv-x="572"/>
<glyph unicode="Ṇ" d="M639 0l-508 680h-3v-680h-22v708h31l509 -679h3v679h22v-708h-32zM388 -126q-9 0 -16 7t-7 19q0 11 7 18t16 7t16 -7t7 -18q0 -12 -7.5 -19t-15.5 -7z" glyph-name="Ndotbelow" horiz-adv-x="777"/>
<glyph unicode="ṇ" d="M128 339q10 32 29 57t43 42.5t52 26.5t58 9q48 0 80 -17t51 -45t27 -63t8 -71v-278h-22v276q0 28 -6 60t-22.5 58t-44.5 43.5t-71 17.5q-38 0 -71.5 -15.5t-58 -44.5t-39 -70.5t-14.5 -94.5v-230h-22v344q0 11 -0.5 27t-1 32.5t-1.5 31.5t-2 25h22q1 -10 1.5 -25t1 -32.5 t1 -34t0.5 -29.5h2v0zM288 -126q-9 0 -16 7t-7 19q0 11 7 18t16 7t16 -7t7 -18q0 -12 -7.5 -19t-15.5 -7z" glyph-name="ndotbelow" horiz-adv-x="572"/>
<glyph unicode="Ṉ" d="M639 0l-508 680h-3v-680h-22v708h31l509 -679h3v679h22v-708h-32zM272 -95v20h232v-20h-232z" glyph-name="Nlinebelow" horiz-adv-x="777"/>
<glyph unicode="ṉ" d="M128 339q10 32 29 57t43 42.5t52 26.5t58 9q48 0 80 -17t51 -45t27 -63t8 -71v-278h-22v276q0 28 -6 60t-22.5 58t-44.5 43.5t-71 17.5q-38 0 -71.5 -15.5t-58 -44.5t-39 -70.5t-14.5 -94.5v-230h-22v344q0 11 -0.5 27t-1 32.5t-1.5 31.5t-2 25h22q1 -10 1.5 -25t1 -32.5 t1 -34t0.5 -29.5h2v0zM172 -95v20h232v-20h-232z" glyph-name="nlinebelow" horiz-adv-x="572"/>
<glyph unicode="Ṋ" d="M639 0l-508 680h-3v-680h-22v708h31l509 -679h3v679h22v-708h-32zM402 -75l103 -144h-23l-94 132l-94 -132h-23l103 144h28z" glyph-name="Ncircumflexbelow" horiz-adv-x="777"/>
<glyph unicode="ṋ" d="M128 339q10 32 29 57t43 42.5t52 26.5t58 9q48 0 80 -17t51 -45t27 -63t8 -71v-278h-22v276q0 28 -6 60t-22.5 58t-44.5 43.5t-71 17.5q-38 0 -71.5 -15.5t-58 -44.5t-39 -70.5t-14.5 -94.5v-230h-22v344q0 11 -0.5 27t-1 32.5t-1.5 31.5t-2 25h22q1 -10 1.5 -25t1 -32.5 t1 -34t0.5 -29.5h2v0zM302 -75l103 -144h-23l-94 132l-94 -132h-23l103 144h28z" glyph-name="ncircumflexbelow" horiz-adv-x="572"/>
<glyph unicode="Ṍ" d="M800 354q0 -82 -27.5 -150.5t-76 -118t-115.5 -77.5t-145 -28t-145 28t-115.5 77.5t-76 118t-27.5 150.5t27.5 150.5t76 118t115 77.5t145.5 28t145.5 -28t115 -77.5t76 -118t27.5 -150.5zM778 354q0 74 -25 138.5t-70.5 112.5t-108.5 75.5t-138 27.5t-138 -27.5 t-108.5 -75.5t-70.5 -112.5t-25 -138.5t24.5 -138.5t69.5 -112.5t108 -75.5t140 -27.5t140 27.5t108 75.5t69.5 112.5t24.5 138.5zM439 849q13 -8 22 -13t15.5 -7.5t11 -3t10.5 -0.5q33 0 40 48h16q-4 -36 -20 -51.5t-36 -15.5q-16 0 -28.5 5t-35.5 19q-26 16 -37 20t-22 4 q-32 0 -40 -51h-16q4 36 20 53t36 17q16 0 29 -5t35 -19zM390 948h-19l103 144h27z" glyph-name="Otildeacute" horiz-adv-x="872"/>
<glyph unicode="ṍ" d="M543 231q0 -54 -17.5 -99t-49.5 -77.5t-76.5 -50.5t-97.5 -18t-97 18t-76 50.5t-49.5 77.5t-17.5 99t17.5 98.5t49.5 76.5t76 50t97 18t97.5 -18t76.5 -50t49.5 -76.5t17.5 -98.5zM521 231q0 46 -15 87t-43.5 71.5t-69 48t-91.5 17.5t-91 -17.5t-68.5 -48t-43.5 -71.5 t-15 -87q0 -47 15 -88t43.5 -71.5t68.5 -48.5t91 -18t91.5 18t69 48.5t43.5 71.5t15 88zM305 595q13 -8 22 -13t15.5 -7.5t11 -3t10.5 -0.5q33 0 40 48h16q-4 -36 -20 -51.5t-36 -15.5q-16 0 -28.5 5t-35.5 19q-26 16 -37 20t-22 4q-32 0 -40 -51h-16q4 36 20 53t36 17 q16 0 29 -5t35 -19zM256 694h-19l103 144h27z" glyph-name="otildeacute" horiz-adv-x="605"/>
<glyph unicode="Ṏ" d="M800 354q0 -82 -27.5 -150.5t-76 -118t-115.5 -77.5t-145 -28t-145 28t-115.5 77.5t-76 118t-27.5 150.5t27.5 150.5t76 118t115 77.5t145.5 28t145.5 -28t115 -77.5t76 -118t27.5 -150.5zM778 354q0 74 -25 138.5t-70.5 112.5t-108.5 75.5t-138 27.5t-138 -27.5 t-108.5 -75.5t-70.5 -112.5t-25 -138.5t24.5 -138.5t69.5 -112.5t108 -75.5t140 -27.5t140 27.5t108 75.5t69.5 112.5t24.5 138.5zM439 849q13 -8 22 -13t15.5 -7.5t11 -3t10.5 -0.5q33 0 40 48h16q-4 -36 -20 -51.5t-36 -15.5q-16 0 -28.5 5t-35.5 19q-26 16 -37 20t-22 4 q-32 0 -40 -51h-16q4 36 20 53t36 17q16 0 29 -5t35 -19zM359 948q-9 0 -16 7t-7 19q0 11 7 18t16 7t16 -7t7 -18q0 -12 -7.5 -19t-15.5 -7zM513 948q-9 0 -16 7t-7 19q0 11 7 18t16 7t16 -7t7 -18q0 -12 -7.5 -19t-15.5 -7z" glyph-name="Otildedieresis" horiz-adv-x="872"/>
<glyph unicode="ṏ" d="M543 231q0 -54 -17.5 -99t-49.5 -77.5t-76.5 -50.5t-97.5 -18t-97 18t-76 50.5t-49.5 77.5t-17.5 99t17.5 98.5t49.5 76.5t76 50t97 18t97.5 -18t76.5 -50t49.5 -76.5t17.5 -98.5zM521 231q0 46 -15 87t-43.5 71.5t-69 48t-91.5 17.5t-91 -17.5t-68.5 -48t-43.5 -71.5 t-15 -87q0 -47 15 -88t43.5 -71.5t68.5 -48.5t91 -18t91.5 18t69 48.5t43.5 71.5t15 88zM305 595q13 -8 22 -13t15.5 -7.5t11 -3t10.5 -0.5q33 0 40 48h16q-4 -36 -20 -51.5t-36 -15.5q-16 0 -28.5 5t-35.5 19q-26 16 -37 20t-22 4q-32 0 -40 -51h-16q4 36 20 53t36 17 q16 0 29 -5t35 -19zM225 694q-9 0 -16 7t-7 19q0 11 7 18t16 7t16 -7t7 -18q0 -12 -7.5 -19t-15.5 -7zM379 694q-9 0 -16 7t-7 19q0 11 7 18t16 7t16 -7t7 -18q0 -12 -7.5 -19t-15.5 -7z" glyph-name="otildedieresis" horiz-adv-x="605"/>
<glyph unicode="Ṑ" d="M800 354q0 -82 -27.5 -150.5t-76 -118t-115.5 -77.5t-145 -28t-145 28t-115.5 77.5t-76 118t-27.5 150.5t27.5 150.5t76 118t115 77.5t145.5 28t145.5 -28t115 -77.5t76 -118t27.5 -150.5zM778 354q0 74 -25 138.5t-70.5 112.5t-108.5 75.5t-138 27.5t-138 -27.5 t-108.5 -75.5t-70.5 -112.5t-25 -138.5t24.5 -138.5t69.5 -112.5t108 -75.5t140 -27.5t140 27.5t108 75.5t69.5 112.5t24.5 138.5zM320 803v20h232v-20h-232zM398 1042l103 -144h-19l-111 144h27z" glyph-name="Omacrongrave" horiz-adv-x="872"/>
<glyph unicode="ṑ" d="M543 231q0 -54 -17.5 -99t-49.5 -77.5t-76.5 -50.5t-97.5 -18t-97 18t-76 50.5t-49.5 77.5t-17.5 99t17.5 98.5t49.5 76.5t76 50t97 18t97.5 -18t76.5 -50t49.5 -76.5t17.5 -98.5zM521 231q0 46 -15 87t-43.5 71.5t-69 48t-91.5 17.5t-91 -17.5t-68.5 -48t-43.5 -71.5 t-15 -87q0 -47 15 -88t43.5 -71.5t68.5 -48.5t91 -18t91.5 18t69 48.5t43.5 71.5t15 88zM186 549v20h232v-20h-232zM264 788l103 -144h-19l-111 144h27z" glyph-name="omacrongrave" horiz-adv-x="605"/>
<glyph unicode="Ṓ" d="M800 354q0 -82 -27.5 -150.5t-76 -118t-115.5 -77.5t-145 -28t-145 28t-115.5 77.5t-76 118t-27.5 150.5t27.5 150.5t76 118t115 77.5t145.5 28t145.5 -28t115 -77.5t76 -118t27.5 -150.5zM778 354q0 74 -25 138.5t-70.5 112.5t-108.5 75.5t-138 27.5t-138 -27.5 t-108.5 -75.5t-70.5 -112.5t-25 -138.5t24.5 -138.5t69.5 -112.5t108 -75.5t140 -27.5t140 27.5t108 75.5t69.5 112.5t24.5 138.5zM320 803v20h232v-20h-232zM390 898h-19l103 144h27z" glyph-name="Omacronacute" horiz-adv-x="872"/>
<glyph unicode="ṓ" d="M543 231q0 -54 -17.5 -99t-49.5 -77.5t-76.5 -50.5t-97.5 -18t-97 18t-76 50.5t-49.5 77.5t-17.5 99t17.5 98.5t49.5 76.5t76 50t97 18t97.5 -18t76.5 -50t49.5 -76.5t17.5 -98.5zM521 231q0 46 -15 87t-43.5 71.5t-69 48t-91.5 17.5t-91 -17.5t-68.5 -48t-43.5 -71.5 t-15 -87q0 -47 15 -88t43.5 -71.5t68.5 -48.5t91 -18t91.5 18t69 48.5t43.5 71.5t15 88zM186 549v20h232v-20h-232zM256 644h-19l103 144h27z" glyph-name="omacronacute" horiz-adv-x="605"/>
<glyph unicode="Ṕ" d="M517 532q0 -45 -16.5 -79.5t-44.5 -57.5t-65.5 -35t-79.5 -12h-183v-348h-22v708h192q38 0 77 -8.5t70.5 -28.5t51.5 -54t20 -85zM495 532q0 45 -17 75t-44 48t-60.5 26t-66.5 8h-179v-322h184q33 0 66 9t59 29t42 51.5t16 75.5zM265 783h-19l103 144h27z" glyph-name="Pacute" horiz-adv-x="572"/>
<glyph unicode="ṕ" d="M127 335q30 69 85.5 104t121.5 35q51 0 93.5 -18.5t73 -51t47 -77.5t16.5 -98q0 -52 -17 -96.5t-47.5 -77t-73 -51t-92.5 -18.5q-33 0 -64.5 9t-58.5 26.5t-49 43t-35 59.5h-3v-364h-22v700h22v-125h3zM542 229q0 45 -14.5 86t-41.5 72t-65.5 49.5t-86.5 18.5 q-46 0 -84.5 -18t-66.5 -48.5t-44 -71.5t-16 -87t16 -87t44 -71.5t66.5 -48.5t84.5 -18q48 0 86.5 18t65.5 48.5t41.5 71.5t14.5 86zM287 549h-19l103 144h27z" glyph-name="pacute" horiz-adv-x="626"/>
<glyph unicode="Ṗ" d="M300 833q-9 0 -16 7t-7 19q0 11 7 18t16 7t16 -7t7 -18q0 -12 -7.5 -19t-15.5 -7zM495 532q0 45 -17 75t-44 48t-60.5 26t-66.5 8h-179v-322h184q33 0 66 9t59 29t42 51.5t16 75.5zM517 532q0 -45 -16.5 -79.5t-44.5 -57.5t-65.5 -35t-79.5 -12h-183v-348h-22v708h192 q38 0 77 -8.5t70.5 -28.5t51.5 -54t20 -85z" glyph-name="uni1E56" horiz-adv-x="572"/>
<glyph unicode="ṗ" d="M330 633q-9 0 -16 7t-7 19q0 11 7 18t16 7t16 -7t7 -18q0 -12 -7.5 -19t-15.5 -7zM542 229q0 45 -14.5 86t-41.5 72t-65.5 49.5t-86.5 18.5q-46 0 -84.5 -18t-66.5 -48.5t-44 -71.5t-16 -87t16 -87t44 -71.5t66.5 -48.5t84.5 -18q48 0 86.5 18t65.5 48.5t41.5 71.5 t14.5 86zM127 335q30 69 85.5 104t121.5 35q51 0 93.5 -18.5t73 -51t47 -77.5t16.5 -98q0 -52 -17 -96.5t-47.5 -77t-73 -51t-92.5 -18.5q-33 0 -64.5 9t-58.5 26.5t-49 43t-35 59.5h-3v-364h-22v700h22v-125h3z" glyph-name="uni1E57" horiz-adv-x="626"/>
<glyph unicode="Ṙ" d="M508 0l-214 357h-166v-357h-22v708h196q39 0 79 -7t71.5 -26.5t51.5 -53.5t20 -88q0 -50 -19 -83t-49 -53.5t-66.5 -29.5t-71.5 -9l215 -358h-25zM502 533q0 46 -18 76.5t-47.5 48t-68 24.5t-78.5 7h-162v-313h173q98 0 149.5 41t51.5 116zM319 783q-9 0 -16 7t-7 19 q0 11 7 18t16 7t16 -7t7 -18q0 -12 -7.5 -19t-15.5 -7z" glyph-name="Rdotaccent" horiz-adv-x="594"/>
<glyph unicode="ṙ" d="M128 339q20 72 64 103.5t95 31.5h9t9 -1v-19q-4 1 -7.5 1h-5.5q-44 0 -75 -19.5t-51 -51t-29.5 -70t-9.5 -76.5v-238h-22v344q0 11 -0.5 27t-1 32.5t-1.5 31.5t-2 25h22q1 -10 1.5 -25t1 -32.5t1 -34t0.5 -29.5h2v0zM202 549q-9 0 -16 7t-7 19q0 11 7 18t16 7t16 -7 t7 -18q0 -12 -7.5 -19t-15.5 -7z" glyph-name="rdotaccent" horiz-adv-x="317"/>
<glyph unicode="Ṛ" d="M508 0l-214 357h-166v-357h-22v708h196q39 0 79 -7t71.5 -26.5t51.5 -53.5t20 -88q0 -50 -19 -83t-49 -53.5t-66.5 -29.5t-71.5 -9l215 -358h-25zM502 533q0 46 -18 76.5t-47.5 48t-68 24.5t-78.5 7h-162v-313h173q98 0 149.5 41t51.5 116zM319 -126q-9 0 -16 7t-7 19 q0 11 7 18t16 7t16 -7t7 -18q0 -12 -7.5 -19t-15.5 -7z" glyph-name="Rdotbelow" horiz-adv-x="594"/>
<glyph unicode="ṛ" d="M128 339q20 72 64 103.5t95 31.5h9t9 -1v-19q-4 1 -7.5 1h-5.5q-44 0 -75 -19.5t-51 -51t-29.5 -70t-9.5 -76.5v-238h-22v344q0 11 -0.5 27t-1 32.5t-1.5 31.5t-2 25h22q1 -10 1.5 -25t1 -32.5t1 -34t0.5 -29.5h2v0zM202 -126q-9 0 -16 7t-7 19q0 11 7 18t16 7t16 -7 t7 -18q0 -12 -7.5 -19t-15.5 -7z" glyph-name="rdotbelow" horiz-adv-x="317"/>
<glyph unicode="Ṝ" d="M508 0l-214 357h-166v-357h-22v708h196q39 0 79 -7t71.5 -26.5t51.5 -53.5t20 -88q0 -50 -19 -83t-49 -53.5t-66.5 -29.5t-71.5 -9l215 -358h-25zM502 533q0 46 -18 76.5t-47.5 48t-68 24.5t-78.5 7h-162v-313h173q98 0 149.5 41t51.5 116zM203 783v20h232v-20h-232z M319 -126q-9 0 -16 7t-7 19q0 11 7 18t16 7t16 -7t7 -18q0 -12 -7.5 -19t-15.5 -7z" glyph-name="Rdotbelowmacron" horiz-adv-x="594"/>
<glyph unicode="ṝ" d="M128 339q20 72 64 103.5t95 31.5h9t9 -1v-19q-4 1 -7.5 1h-5.5q-44 0 -75 -19.5t-51 -51t-29.5 -70t-9.5 -76.5v-238h-22v344q0 11 -0.5 27t-1 32.5t-1.5 31.5t-2 25h22q1 -10 1.5 -25t1 -32.5t1 -34t0.5 -29.5h2v0zM86 549v20h232v-20h-232zM202 -126q-9 0 -16 7t-7 19 q0 11 7 18t16 7t16 -7t7 -18q0 -12 -7.5 -19t-15.5 -7z" glyph-name="rdotbelowmacron" horiz-adv-x="317"/>
<glyph unicode="Ṟ" d="M508 0l-214 357h-166v-357h-22v708h196q39 0 79 -7t71.5 -26.5t51.5 -53.5t20 -88q0 -50 -19 -83t-49 -53.5t-66.5 -29.5t-71.5 -9l215 -358h-25zM502 533q0 46 -18 76.5t-47.5 48t-68 24.5t-78.5 7h-162v-313h173q98 0 149.5 41t51.5 116zM203 -95v20h232v-20h-232z" glyph-name="Rlinebelow" horiz-adv-x="594"/>
<glyph unicode="ṟ" d="M128 339q20 72 64 103.5t95 31.5h9t9 -1v-19q-4 1 -7.5 1h-5.5q-44 0 -75 -19.5t-51 -51t-29.5 -70t-9.5 -76.5v-238h-22v344q0 11 -0.5 27t-1 32.5t-1.5 31.5t-2 25h22q1 -10 1.5 -25t1 -32.5t1 -34t0.5 -29.5h2v0zM86 -95v20h232v-20h-232z" glyph-name="rlinebelow" horiz-adv-x="317"/>
<glyph unicode="Ṡ" d="M302 833q-9 0 -16 7t-7 19q0 11 7 18t16 7t16 -7t7 -18q0 -12 -7.5 -19t-15.5 -7zM498 170q0 -45 -17.5 -80.5t-46.5 -60t-68.5 -37t-82.5 -12.5q-66 0 -120.5 23.5t-90.5 63.5l17 15q38 -41 88.5 -61.5t104.5 -20.5q39 0 74 11.5t62 33t42.5 53t15.5 72.5t-17 69t-44 48 t-61.5 33.5t-69.5 24.5q-44 14 -80.5 29.5t-63 38t-41 54t-14.5 76.5q0 44 17.5 78.5t47.5 58t69.5 36t83.5 12.5q54 0 102.5 -20.5t79.5 -58.5l-17 -15q-28 35 -71.5 54.5t-94.5 19.5q-36 0 -70.5 -10t-62.5 -30.5t-45 -51.5t-17 -73q0 -41 15 -69.5t40 -48.5t56.5 -33 t64.5 -24q45 -15 84 -30.5t68.5 -37.5t46 -53.5t16.5 -76.5z" glyph-name="uni1E60" horiz-adv-x="570"/>
<glyph unicode="ṡ" d="M214 633q-9 0 -16 7t-7 19q0 11 7 18t16 7t16 -7t7 -18q0 -12 -7.5 -19t-15.5 -7zM361 120q0 -31 -12 -55.5t-32.5 -41.5t-47.5 -26t-58 -9q-51 0 -92.5 19.5t-68.5 57.5l18 12q50 -70 144 -70q22 0 44.5 7t41 21t30 35t11.5 48q0 32 -14.5 52t-36.5 32t-48.5 19.5 t-49.5 13.5q-25 7 -47 15.5t-38.5 22t-26 33.5t-9.5 50t12 52t32 36.5t45.5 22t51.5 7.5q94 0 141 -67l-19 -11q-23 30 -52 44.5t-70 14.5q-19 0 -40 -5t-38.5 -16.5t-29 -30.5t-11.5 -46q0 -30 9.5 -48t26.5 -29t41 -18.5t53 -14.5q27 -7 52.5 -16.5t45 -23.5t31 -35 t11.5 -52z" glyph-name="uni1E61" horiz-adv-x="415"/>
<glyph unicode="Ṣ" d="M498 170q0 -45 -17.5 -80.5t-46.5 -60t-68.5 -37t-82.5 -12.5q-66 0 -120.5 23.5t-90.5 63.5l17 15q38 -41 88.5 -61.5t104.5 -20.5q39 0 74 11.5t62 33t42.5 53t15.5 72.5t-17 69t-44 48t-61.5 33.5t-69.5 24.5q-44 14 -80.5 29.5t-63 38t-41 54t-14.5 76.5 q0 44 17.5 78.5t47.5 58t69.5 36t83.5 12.5q54 0 102.5 -20.5t79.5 -58.5l-17 -15q-28 35 -71.5 54.5t-94.5 19.5q-36 0 -70.5 -10t-62.5 -30.5t-45 -51.5t-17 -73q0 -41 15 -69.5t40 -48.5t56.5 -33t64.5 -24q45 -15 84 -30.5t68.5 -37.5t46 -53.5t16.5 -76.5zM285 -146 q-9 0 -16 7t-7 19q0 11 7 18t16 7t16 -7t7 -18q0 -12 -7.5 -19t-15.5 -7z" glyph-name="Sdotbelow" horiz-adv-x="570"/>
<glyph unicode="ṣ" d="M361 120q0 -31 -12 -55.5t-32.5 -41.5t-47.5 -26t-58 -9q-51 0 -92.5 19.5t-68.5 57.5l18 12q50 -70 144 -70q22 0 44.5 7t41 21t30 35t11.5 48q0 32 -14.5 52t-36.5 32t-48.5 19.5t-49.5 13.5q-25 7 -47 15.5t-38.5 22t-26 33.5t-9.5 50t12 52t32 36.5t45.5 22t51.5 7.5 q94 0 141 -67l-19 -11q-23 30 -52 44.5t-70 14.5q-19 0 -40 -5t-38.5 -16.5t-29 -30.5t-11.5 -46q0 -30 9.5 -48t26.5 -29t41 -18.5t53 -14.5q27 -7 52.5 -16.5t45 -23.5t31 -35t11.5 -52zM205 -138q-9 0 -16 7t-7 19q0 11 7 18t16 7t16 -7t7 -18q0 -12 -7.5 -19t-15.5 -7z " glyph-name="sdotbelow" horiz-adv-x="415"/>
<glyph unicode="Ṥ" d="M498 170q0 -45 -17.5 -80.5t-46.5 -60t-68.5 -37t-82.5 -12.5q-66 0 -120.5 23.5t-90.5 63.5l17 15q38 -41 88.5 -61.5t104.5 -20.5q39 0 74 11.5t62 33t42.5 53t15.5 72.5t-17 69t-44 48t-61.5 33.5t-69.5 24.5q-44 14 -80.5 29.5t-63 38t-41 54t-14.5 76.5 q0 44 17.5 78.5t47.5 58t69.5 36t83.5 12.5q54 0 102.5 -20.5t79.5 -58.5l-17 -15q-28 35 -71.5 54.5t-94.5 19.5q-36 0 -70.5 -10t-62.5 -30.5t-45 -51.5t-17 -73q0 -41 15 -69.5t40 -48.5t56.5 -33t64.5 -24q45 -15 84 -30.5t68.5 -37.5t46 -53.5t16.5 -76.5zM239 803h-19 l103 144h27zM285 1022q-9 0 -16 7t-7 19q0 11 7 18t16 7t16 -7t7 -18q0 -12 -7.5 -19t-15.5 -7z" glyph-name="Sacutedotaccent" horiz-adv-x="570"/>
<glyph unicode="ṥ" d="M361 120q0 -31 -12 -55.5t-32.5 -41.5t-47.5 -26t-58 -9q-51 0 -92.5 19.5t-68.5 57.5l18 12q50 -70 144 -70q22 0 44.5 7t41 21t30 35t11.5 48q0 32 -14.5 52t-36.5 32t-48.5 19.5t-49.5 13.5q-25 7 -47 15.5t-38.5 22t-26 33.5t-9.5 50t12 52t32 36.5t45.5 22t51.5 7.5 q94 0 141 -67l-19 -11q-23 30 -52 44.5t-70 14.5q-19 0 -40 -5t-38.5 -16.5t-29 -30.5t-11.5 -46q0 -30 9.5 -48t26.5 -29t41 -18.5t53 -14.5q27 -7 52.5 -16.5t45 -23.5t31 -35t11.5 -52zM159 549h-19l103 144h27zM205 768q-9 0 -16 7t-7 19q0 11 7 18t16 7t16 -7t7 -18 q0 -12 -7.5 -19t-15.5 -7z" glyph-name="sacutedotaccent" horiz-adv-x="415"/>
<glyph unicode="Ṧ" d="M498 170q0 -45 -17.5 -80.5t-46.5 -60t-68.5 -37t-82.5 -12.5q-66 0 -120.5 23.5t-90.5 63.5l17 15q38 -41 88.5 -61.5t104.5 -20.5q39 0 74 11.5t62 33t42.5 53t15.5 72.5t-17 69t-44 48t-61.5 33.5t-69.5 24.5q-44 14 -80.5 29.5t-63 38t-41 54t-14.5 76.5 q0 44 17.5 78.5t47.5 58t69.5 36t83.5 12.5q54 0 102.5 -20.5t79.5 -58.5l-17 -15q-28 35 -71.5 54.5t-94.5 19.5q-36 0 -70.5 -10t-62.5 -30.5t-45 -51.5t-17 -73q0 -41 15 -69.5t40 -48.5t56.5 -33t64.5 -24q45 -15 84 -30.5t68.5 -37.5t46 -53.5t16.5 -76.5zM271 803 l-103 144h23l94 -132l94 132h23l-103 -144h-28zM285 1022q-9 0 -16 7t-7 19q0 11 7 18t16 7t16 -7t7 -18q0 -12 -7.5 -19t-15.5 -7z" glyph-name="Scarondotaccent" horiz-adv-x="570"/>
<glyph unicode="ṧ" d="M361 120q0 -31 -12 -55.5t-32.5 -41.5t-47.5 -26t-58 -9q-51 0 -92.5 19.5t-68.5 57.5l18 12q50 -70 144 -70q22 0 44.5 7t41 21t30 35t11.5 48q0 32 -14.5 52t-36.5 32t-48.5 19.5t-49.5 13.5q-25 7 -47 15.5t-38.5 22t-26 33.5t-9.5 50t12 52t32 36.5t45.5 22t51.5 7.5 q94 0 141 -67l-19 -11q-23 30 -52 44.5t-70 14.5q-19 0 -40 -5t-38.5 -16.5t-29 -30.5t-11.5 -46q0 -30 9.5 -48t26.5 -29t41 -18.5t53 -14.5q27 -7 52.5 -16.5t45 -23.5t31 -35t11.5 -52zM191 549l-103 144h23l94 -132l94 132h23l-103 -144h-28zM205 768q-9 0 -16 7t-7 19 q0 11 7 18t16 7t16 -7t7 -18q0 -12 -7.5 -19t-15.5 -7z" glyph-name="scarondotaccent" horiz-adv-x="415"/>
<glyph unicode="Ṩ" d="M498 170q0 -45 -17.5 -80.5t-46.5 -60t-68.5 -37t-82.5 -12.5q-66 0 -120.5 23.5t-90.5 63.5l17 15q38 -41 88.5 -61.5t104.5 -20.5q39 0 74 11.5t62 33t42.5 53t15.5 72.5t-17 69t-44 48t-61.5 33.5t-69.5 24.5q-44 14 -80.5 29.5t-63 38t-41 54t-14.5 76.5 q0 44 17.5 78.5t47.5 58t69.5 36t83.5 12.5q54 0 102.5 -20.5t79.5 -58.5l-17 -15q-28 35 -71.5 54.5t-94.5 19.5q-36 0 -70.5 -10t-62.5 -30.5t-45 -51.5t-17 -73q0 -41 15 -69.5t40 -48.5t56.5 -33t64.5 -24q45 -15 84 -30.5t68.5 -37.5t46 -53.5t16.5 -76.5zM285 -146 q-9 0 -16 7t-7 19q0 11 7 18t16 7t16 -7t7 -18q0 -12 -7.5 -19t-15.5 -7zM285 803q-9 0 -16 7t-7 19q0 11 7 18t16 7t16 -7t7 -18q0 -12 -7.5 -19t-15.5 -7z" glyph-name="Sdotbelowdotaccent" horiz-adv-x="570"/>
<glyph unicode="ṩ" d="M361 120q0 -31 -12 -55.5t-32.5 -41.5t-47.5 -26t-58 -9q-51 0 -92.5 19.5t-68.5 57.5l18 12q50 -70 144 -70q22 0 44.5 7t41 21t30 35t11.5 48q0 32 -14.5 52t-36.5 32t-48.5 19.5t-49.5 13.5q-25 7 -47 15.5t-38.5 22t-26 33.5t-9.5 50t12 52t32 36.5t45.5 22t51.5 7.5 q94 0 141 -67l-19 -11q-23 30 -52 44.5t-70 14.5q-19 0 -40 -5t-38.5 -16.5t-29 -30.5t-11.5 -46q0 -30 9.5 -48t26.5 -29t41 -18.5t53 -14.5q27 -7 52.5 -16.5t45 -23.5t31 -35t11.5 -52zM205 -138q-9 0 -16 7t-7 19q0 11 7 18t16 7t16 -7t7 -18q0 -12 -7.5 -19t-15.5 -7z M205 549q-9 0 -16 7t-7 19q0 11 7 18t16 7t16 -7t7 -18q0 -12 -7.5 -19t-15.5 -7z" glyph-name="sdotbelowdotaccent" horiz-adv-x="415"/>
<glyph unicode="Ṫ" d="M270 833q-9 0 -16 7t-7 19q0 11 7 18t16 7t16 -7t7 -18q0 -12 -7.5 -19t-15.5 -7zM281 688v-688h-22v688h-241v20h504v-20h-241z" glyph-name="uni1E6A" horiz-adv-x="540"/>
<glyph unicode="ṫ" d="M130 713q-9 0 -16 7t-7 19q0 11 7 18t16 7t16 -7t7 -18q0 -12 -7.5 -19t-15.5 -7zM280 -1q-12 -5 -28 -8t-31 -3q-54 0 -77.5 30.5t-23.5 76.5v346h-100v19h99v135h23v-135h135v-19h-135v-346q0 -47 23 -67.5t61 -20.5q28 0 51 9z" glyph-name="uni1E6B" horiz-adv-x="304"/>
<glyph unicode="Ṭ" d="M281 688v-688h-22v688h-241v20h504v-20h-241zM270 -126q-9 0 -16 7t-7 19q0 11 7 18t16 7t16 -7t7 -18q0 -12 -7.5 -19t-15.5 -7z" glyph-name="Tdotbelow" horiz-adv-x="540"/>
<glyph unicode="ṭ" d="M280 -1q-12 -5 -28 -8t-31 -3q-54 0 -77.5 30.5t-23.5 76.5v346h-100v19h99v135h23v-135h135v-19h-135v-346q0 -47 23 -67.5t61 -20.5q28 0 51 9l3 -17v0zM150 -138q-9 0 -16 7t-7 19q0 11 7 18t16 7t16 -7t7 -18q0 -12 -7.5 -19t-15.5 -7z" glyph-name="tdotbelow" horiz-adv-x="304"/>
<glyph unicode="Ṯ" d="M281 688v-688h-22v688h-241v20h504v-20h-241zM154 -95v20h232v-20h-232z" glyph-name="Tlinebelow" horiz-adv-x="540"/>
<glyph unicode="ṯ" d="M280 -1q-12 -5 -28 -8t-31 -3q-54 0 -77.5 30.5t-23.5 76.5v346h-100v19h99v135h23v-135h135v-19h-135v-346q0 -47 23 -67.5t61 -20.5q28 0 51 9l3 -17v0zM34 -107v20h232v-20h-232z" glyph-name="tlinebelow" horiz-adv-x="304"/>
<glyph unicode="Ṱ" d="M281 688v-688h-22v688h-241v20h504v-20h-241zM284 -75l103 -144h-23l-94 132l-94 -132h-23l103 144h28z" glyph-name="Tcircumflexbelow" horiz-adv-x="540"/>
<glyph unicode="ṱ" d="M280 -1q-12 -5 -28 -8t-31 -3q-54 0 -77.5 30.5t-23.5 76.5v346h-100v19h99v135h23v-135h135v-19h-135v-346q0 -47 23 -67.5t61 -20.5q28 0 51 9l3 -17v0zM164 -87l103 -144h-23l-94 132l-94 -132h-23l103 144h28z" glyph-name="tcircumflexbelow" horiz-adv-x="304"/>
<glyph unicode="Ṳ" d="M636 268q0 -60 -14 -112.5t-46 -91.5t-83.5 -61.5t-126.5 -22.5t-126.5 22.5t-83.5 61.5t-46 91.5t-14 112.5v440h22v-436q0 -42 8.5 -89.5t35 -88t75 -67.5t129.5 -27q79 0 127.5 26t75.5 66.5t36 88t9 91.5v436h22v-440v0zM289 -146q-9 0 -16 7t-7 19q0 11 7 18t16 7 t16 -7t7 -18q0 -12 -7.5 -19t-15.5 -7zM443 -146q-9 0 -16 7t-7 19q0 11 7 18t16 7t16 -7t7 -18q0 -12 -7.5 -19t-15.5 -7z" glyph-name="Udieresisbelow" horiz-adv-x="732"/>
<glyph unicode="ṳ" d="M442 121q-11 -32 -29.5 -57.5t-42.5 -42.5t-52 -26t-58 -9q-48 0 -80 17t-51 45t-27 63t-8 71v278h22v-276q0 -29 6 -60.5t22.5 -57.5t44 -43.5t71.5 -17.5q38 0 71.5 15.5t58 44.5t39 70.5t14.5 94.5v230h22v-344q0 -11 0.5 -27t1 -32.5t1.5 -31.5t2 -25h-22 q-1 10 -1.5 25t-1 32.5t-1 34t-0.5 29.5h-2v0zM205 -140q-9 0 -16 7t-7 19q0 11 7 18t16 7t16 -7t7 -18q0 -12 -7.5 -19t-15.5 -7zM359 -140q-9 0 -16 7t-7 19q0 11 7 18t16 7t16 -7t7 -18q0 -12 -7.5 -19t-15.5 -7z" glyph-name="udieresisbelow" horiz-adv-x="572"/>
</font>
</defs>
</svg>
